v -4.37382459640503 -1.05813956260681 -0.5
v -4.4316349029541 -0.781416833400726 -0.5
l 1 2
v -4.29875230789185 -1.33068633079529 -0.5
v -4.37382459640503 -1.05813956260681 -0.5
l 3 4
v -4.20671510696411 -1.5979813337326 -0.5
v -4.29875230789185 -1.33068633079529 -0.5
l 5 6
v -4.09807682037354 -1.85896992683411 -0.5
v -4.20671510696411 -1.5979813337326 -0.5
l 7 8
v -3.97326421737671 -2.11262202262878 -0.5
v -4.09807682037354 -1.85896992683411 -0.5
l 9 10
v -3.83277130126953 -2.35793662071228 -0.5
v -3.97326421737671 -2.11262202262878 -0.5
l 11 12
v -3.67715215682983 -2.59394526481628 -0.5
v -3.83277130126953 -2.35793662071228 -0.5
l 13 14
v -3.5070207118988 -2.8197169303894 -0.5
v -3.67715215682983 -2.59394526481628 -0.5
l 15 16
v -3.32304906845093 -3.03436088562012 -0.5
v -3.5070207118988 -2.8197169303894 -0.5
l 17 18
v -3.12596273422241 -3.23702907562256 -0.5
v -3.32304906845093 -3.03436088562012 -0.5
l 19 20
v -2.91653966903687 -3.42692232131958 -0.5
v -3.12596273422241 -3.23702907562256 -0.5
l 21 22
v -2.69560623168945 -3.60329127311707 -0.5
v -2.91653966903687 -3.42692232131958 -0.5
l 23 24
v -2.46403431892395 -3.76543951034546 -0.5
v -2.69560623168945 -3.60329127311707 -0.5
l 25 26
v -2.22273826599121 -3.91272735595703 -0.5
v -2.46403431892395 -3.76543951034546 -0.5
l 27 28
v -1.97267019748688 -4.04457330703735 -0.5
v -2.22273826599121 -3.91272735595703 -0.5
l 29 30
v -1.71481668949127 -4.16045713424683 -0.5
v -1.97267019748688 -4.04457330703735 -0.5
l 31 32
v -1.45019567012787 -4.25992202758789 -0.5
v -1.71481668949127 -4.16045713424683 -0.5
l 33 34
v -1.17985129356384 -4.34257411956787 -0.5
v -1.45019567012787 -4.25992202758789 -0.5
l 35 36
v -0.904850661754608 -4.40808868408203 -0.5
v -1.17985129356384 -4.34257411956787 -0.5
l 37 38
v -0.626278936862946 -4.45620632171631 -0.5
v -0.904850661754608 -4.40808868408203 -0.5
l 39 40
v -0.345235615968704 -4.48673725128174 -0.5
v -0.626278936862946 -4.45620632171631 -0.5
l 41 42
v -0.0628298074007034 -4.49956130981445 -0.5
v -0.345235615968704 -4.48673725128174 -0.5
l 43 44
v 0.219823956489563 -4.49462747573853 -0.5
v -0.0628298074007034 -4.49956130981445 -0.5
l 45 46
v 0.501610219478607 -4.4719557762146 -0.5
v 0.219823956489563 -4.49462747573853 -0.5
l 47 48
v 0.781416833400726 -4.4316349029541 -0.5
v 0.501610219478607 -4.4719557762146 -0.5
l 49 50
v 0.225502207875252 -3.00651788711548 -0.5
v 0.816386818885803 -2.9023289680481 -0.5
l 51 52
v 1.05813956260681 -4.37382459640503 -0.5
v 0.781416833400726 -4.4316349029541 -0.5
l 53 54
v 1.33068633079529 -4.29875230789185 -0.5
v 1.05813956260681 -4.37382459640503 -0.5
l 55 56
v 1.5979813337326 -4.20671510696411 -0.5
v 1.33068633079529 -4.29875230789185 -0.5
l 57 58
v 1.85896992683411 -4.09807682037354 -0.5
v 1.5979813337326 -4.20671510696411 -0.5
l 59 60
v 2.11262202262878 -3.97326421737671 -0.5
v 1.85896992683411 -4.09807682037354 -0.5
l 61 62
v 2.35793662071228 -3.83277130126953 -0.5
v 2.11262202262878 -3.97326421737671 -0.5
l 63 64
v 2.59394526481628 -3.67715215682983 -0.5
v 2.35793662071228 -3.83277130126953 -0.5
l 65 66
v 2.8197169303894 -3.5070207118988 -0.5
v 2.59394526481628 -3.67715215682983 -0.5
l 67 68
v 3.03436088562012 -3.32304906845093 -0.5
v 2.8197169303894 -3.5070207118988 -0.5
l 69 70
v 3.23702907562256 -3.12596273422241 -0.5
v 3.03436088562012 -3.32304906845093 -0.5
l 71 72
v 3.42692232131958 -2.91653966903687 -0.5
v 3.23702907562256 -3.12596273422241 -0.5
l 73 74
v 3.60329127311707 -2.69560623168945 -0.5
v 3.42692232131958 -2.91653966903687 -0.5
l 75 76
v 3.76543951034546 -2.46403431892395 -0.5
v 3.60329127311707 -2.69560623168945 -0.5
l 77 78
v 3.91272735595703 -2.22273826599121 -0.5
v 3.76543951034546 -2.46403431892395 -0.5
l 79 80
v 4.04457330703735 -1.97267019748688 -0.5
v 3.91272735595703 -2.22273826599121 -0.5
l 81 82
v 4.16045713424683 -1.71481668949127 -0.5
v 4.04457330703735 -1.97267019748688 -0.5
l 83 84
v 4.25992202758789 -1.45019567012787 -0.5
v 4.16045713424683 -1.71481668949127 -0.5
l 85 86
v 4.34257411956787 -1.17985129356384 -0.5
v 4.25992202758789 -1.45019567012787 -0.5
l 87 88
v 4.40808868408203 -0.904850661754608 -0.5
v 4.34257411956787 -1.17985129356384 -0.5
l 89 90
v -2.59394526481628 3.67715215682983 -0.5
v -2.35793662071228 3.83277130126953 -0.5
l 91 92
v -2.8197169303894 3.5070207118988 -0.5
v -2.59394526481628 3.67715215682983 -0.5
l 93 94
v -3.03436088562012 3.32304906845093 -0.5
v -2.8197169303894 3.5070207118988 -0.5
l 95 96
v -3.23702907562256 3.12596273422241 -0.5
v -3.03436088562012 3.32304906845093 -0.5
l 97 98
v -3.42692232131958 2.91653966903687 -0.5
v -3.23702907562256 3.12596273422241 -0.5
l 99 100
v -3.60329127311707 2.69560623168945 -0.5
v -3.42692232131958 2.91653966903687 -0.5
l 101 102
v -3.76543951034546 2.46403431892395 -0.5
v -3.60329127311707 2.69560623168945 -0.5
l 103 104
v -3.91272735595703 2.22273826599121 -0.5
v -3.76543951034546 2.46403431892395 -0.5
l 105 106
v -4.04457330703735 1.97267019748688 -0.5
v -3.91272735595703 2.22273826599121 -0.5
l 107 108
v -4.16045713424683 1.71481668949127 -0.5
v -4.04457330703735 1.97267019748688 -0.5
l 109 110
v -4.25992202758789 1.45019567012787 -0.5
v -4.16045713424683 1.71481668949127 -0.5
l 111 112
v -4.34257411956787 1.17985129356384 -0.5
v -4.25992202758789 1.45019567012787 -0.5
l 113 114
v -4.40808868408203 0.904850661754608 -0.5
v -4.34257411956787 1.17985129356384 -0.5
l 115 116
v -4.45620632171631 0.626278936862946 -0.5
v -4.40808868408203 0.904850661754608 -0.5
l 117 118
v -4.48673725128174 0.345235615968704 -0.5
v -4.45620632171631 0.626278936862946 -0.5
l 119 120
v -4.49956130981445 0.0628298074007034 -0.5
v -4.48673725128174 0.345235615968704 -0.5
l 121 122
v -4.49462747573853 -0.219823956489563 -0.5
v -4.49956130981445 0.0628298074007034 -0.5
l 123 124
v -4.4719557762146 -0.501610219478607 -0.5
v -4.49462747573853 -0.219823956489563 -0.5
l 125 126
v -4.4316349029541 -0.781416833400726 -0.5
v -4.4719557762146 -0.501610219478607 -0.5
l 127 128
v -0.816386818885803 2.9023289680481 -0.5
v 0.225502207875252 -3.00651788711548 -0.5
l 129 130
v 4.45620632171631 -0.626278936862946 -0.5
v 4.40808868408203 -0.904850661754608 -0.5
l 131 132
v -2.35793662071228 3.83277130126953 -0.5
v -2.11262202262878 3.97326421737671 -0.5
l 133 134
v 4.48673725128174 -0.345235615968704 -0.5
v 4.45620632171631 -0.626278936862946 -0.5
l 135 136
v -2.11262202262878 3.97326421737671 -0.5
v -1.85896992683411 4.09807682037354 -0.5
l 137 138
v 4.49956130981445 -0.0628298074007034 -0.5
v 4.48673725128174 -0.345235615968704 -0.5
l 139 140
v -1.85896992683411 4.09807682037354 -0.5
v -1.5979813337326 4.20671510696411 -0.5
l 141 142
v 4.49462747573853 0.219823956489563 -0.5
v 4.49956130981445 -0.0628298074007034 -0.5
l 143 144
v -1.5979813337326 4.20671510696411 -0.5
v -1.33068633079529 4.29875230789185 -0.5
l 145 146
v 4.4719557762146 0.501610219478607 -0.5
v 4.49462747573853 0.219823956489563 -0.5
l 147 148
v -1.33068633079529 4.29875230789185 -0.5
v -1.05813956260681 4.37382459640503 -0.5
l 149 150
v 0.816386818885803 -2.9023289680481 -0.5
v -0.225502207875252 3.00651788711548 -0.5
l 151 152
v 4.4316349029541 0.781416833400726 -0.5
v 4.4719557762146 0.501610219478607 -0.5
l 153 154
v -0.225502207875252 3.00651788711548 -0.5
v -0.816386818885803 2.9023289680481 -0.5
l 155 156
v -1.05813956260681 4.37382459640503 -0.5
v -0.781416833400726 4.4316349029541 -0.5
l 157 158
v 4.37382459640503 1.05813956260681 -0.5
v 4.4316349029541 0.781416833400726 -0.5
l 159 160
v -0.781416833400726 4.4316349029541 -0.5
v -0.501610219478607 4.4719557762146 -0.5
l 161 162
v -0.501610219478607 4.4719557762146 -0.5
v -0.219823956489563 4.49462747573853 -0.5
l 163 164
v 4.29875230789185 1.33068633079529 -0.5
v 4.37382459640503 1.05813956260681 -0.5
l 165 166
v 4.20671510696411 1.5979813337326 -0.5
v 4.29875230789185 1.33068633079529 -0.5
l 167 168
v -0.219823956489563 4.49462747573853 -0.5
v 0.0628298074007034 4.49956130981445 -0.5
l 169 170
v 4.09807682037354 1.85896992683411 -0.5
v 4.20671510696411 1.5979813337326 -0.5
l 171 172
v 0.0628298074007034 4.49956130981445 -0.5
v 0.345235615968704 4.48673725128174 -0.5
l 173 174
v 3.97326421737671 2.11262202262878 -0.5
v 4.09807682037354 1.85896992683411 -0.5
l 175 176
v 0.345235615968704 4.48673725128174 -0.5
v 0.626278936862946 4.45620632171631 -0.5
l 177 178
v 3.83277130126953 2.35793662071228 -0.5
v 3.97326421737671 2.11262202262878 -0.5
l 179 180
v 0.626278936862946 4.45620632171631 -0.5
v 0.904850661754608 4.40808868408203 -0.5
l 181 182
v 3.67715215682983 2.59394526481628 -0.5
v 3.83277130126953 2.35793662071228 -0.5
l 183 184
v 0.904850661754608 4.40808868408203 -0.5
v 1.17985129356384 4.34257411956787 -0.5
l 185 186
v 3.5070207118988 2.8197169303894 -0.5
v 3.67715215682983 2.59394526481628 -0.5
l 187 188
v 1.17985129356384 4.34257411956787 -0.5
v 1.45019567012787 4.25992202758789 -0.5
l 189 190
v 1.45019567012787 4.25992202758789 -0.5
v 1.71481668949127 4.16045713424683 -0.5
l 191 192
v 3.32304906845093 3.03436088562012 -0.5
v 3.5070207118988 2.8197169303894 -0.5
l 193 194
v 1.71481668949127 4.16045713424683 -0.5
v 1.97267019748688 4.04457330703735 -0.5
l 195 196
v 3.12596273422241 3.23702907562256 -0.5
v 3.32304906845093 3.03436088562012 -0.5
l 197 198
v 1.97267019748688 4.04457330703735 -0.5
v 2.22273826599121 3.91272735595703 -0.5
l 199 200
v 2.91653966903687 3.42692232131958 -0.5
v 3.12596273422241 3.23702907562256 -0.5
l 201 202
v 2.69560623168945 3.60329127311707 -0.5
v 2.91653966903687 3.42692232131958 -0.5
l 203 204
v 2.22273826599121 3.91272735595703 -0.5
v 2.46403431892395 3.76543951034546 -0.5
l 205 206
v 2.46403431892395 3.76543951034546 -0.5
v 2.69560623168945 3.60329127311707 -0.5
l 207 208
v -4.4316349029541 -0.781416833400726 0.5
v -4.37382459640503 -1.05813956260681 0.5
l 209 210
v -4.37382459640503 -1.05813956260681 0.5
v -4.29875230789185 -1.33068633079529 0.5
l 211 212
v -4.29875230789185 -1.33068633079529 0.5
v -4.20671510696411 -1.5979813337326 0.5
l 213 214
v -4.20671510696411 -1.5979813337326 0.5
v -4.09807682037354 -1.85896992683411 0.5
l 215 216
v -4.09807682037354 -1.85896992683411 0.5
v -3.97326421737671 -2.11262202262878 0.5
l 217 218
v -3.97326421737671 -2.11262202262878 0.5
v -3.83277130126953 -2.35793662071228 0.5
l 219 220
v -3.83277130126953 -2.35793662071228 0.5
v -3.67715215682983 -2.59394526481628 0.5
l 221 222
v -3.67715215682983 -2.59394526481628 0.5
v -3.5070207118988 -2.8197169303894 0.5
l 223 224
v -3.5070207118988 -2.8197169303894 0.5
v -3.32304906845093 -3.03436088562012 0.5
l 225 226
v -3.32304906845093 -3.03436088562012 0.5
v -3.12596273422241 -3.23702907562256 0.5
l 227 228
v -3.12596273422241 -3.23702907562256 0.5
v -2.91653966903687 -3.42692232131958 0.5
l 229 230
v -2.91653966903687 -3.42692232131958 0.5
v -2.69560623168945 -3.60329127311707 0.5
l 231 232
v -2.69560623168945 -3.60329127311707 0.5
v -2.46403431892395 -3.76543951034546 0.5
l 233 234
v -2.46403431892395 -3.76543951034546 0.5
v -2.22273826599121 -3.91272735595703 0.5
l 235 236
v -2.22273826599121 -3.91272735595703 0.5
v -1.97267019748688 -4.04457330703735 0.5
l 237 238
v -1.97267019748688 -4.04457330703735 0.5
v -1.71481668949127 -4.16045713424683 0.5
l 239 240
v -1.71481668949127 -4.16045713424683 0.5
v -1.45019567012787 -4.25992202758789 0.5
l 241 242
v -1.45019567012787 -4.25992202758789 0.5
v -1.17985129356384 -4.34257411956787 0.5
l 243 244
v -1.17985129356384 -4.34257411956787 0.5
v -0.904850661754608 -4.40808868408203 0.5
l 245 246
v -0.904850661754608 -4.40808868408203 0.5
v -0.626278936862946 -4.45620632171631 0.5
l 247 248
v -0.626278936862946 -4.45620632171631 0.5
v -0.345235615968704 -4.48673725128174 0.5
l 249 250
v -0.345235615968704 -4.48673725128174 0.5
v -0.0628298074007034 -4.49956130981445 0.5
l 251 252
v -0.0628298074007034 -4.49956130981445 0.5
v 0.219823956489563 -4.49462747573853 0.5
l 253 254
v 0.219823956489563 -4.49462747573853 0.5
v 0.501610219478607 -4.4719557762146 0.5
l 255 256
v 0.501610219478607 -4.4719557762146 0.5
v 0.781416833400726 -4.4316349029541 0.5
l 257 258
v 0.816386818885803 -2.9023289680481 0.5
v 0.225502207875252 -3.00651788711548 0.5
l 259 260
v 0.781416833400726 -4.4316349029541 0.5
v 1.05813956260681 -4.37382459640503 0.5
l 261 262
v 1.05813956260681 -4.37382459640503 0.5
v 1.33068633079529 -4.29875230789185 0.5
l 263 264
v 1.33068633079529 -4.29875230789185 0.5
v 1.5979813337326 -4.20671510696411 0.5
l 265 266
v 1.5979813337326 -4.20671510696411 0.5
v 1.85896992683411 -4.09807682037354 0.5
l 267 268
v 1.85896992683411 -4.09807682037354 0.5
v 2.11262202262878 -3.97326421737671 0.5
l 269 270
v 2.11262202262878 -3.97326421737671 0.5
v 2.35793662071228 -3.83277130126953 0.5
l 271 272
v 2.35793662071228 -3.83277130126953 0.5
v 2.59394526481628 -3.67715215682983 0.5
l 273 274
v 2.59394526481628 -3.67715215682983 0.5
v 2.8197169303894 -3.5070207118988 0.5
l 275 276
v 2.8197169303894 -3.5070207118988 0.5
v 3.03436088562012 -3.32304906845093 0.5
l 277 278
v 3.03436088562012 -3.32304906845093 0.5
v 3.23702907562256 -3.12596273422241 0.5
l 279 280
v 3.23702907562256 -3.12596273422241 0.5
v 3.42692232131958 -2.91653966903687 0.5
l 281 282
v 3.42692232131958 -2.91653966903687 0.5
v 3.60329127311707 -2.69560623168945 0.5
l 283 284
v 3.60329127311707 -2.69560623168945 0.5
v 3.76543951034546 -2.46403431892395 0.5
l 285 286
v 3.76543951034546 -2.46403431892395 0.5
v 3.91272735595703 -2.22273826599121 0.5
l 287 288
v 3.91272735595703 -2.22273826599121 0.5
v 4.04457330703735 -1.97267019748688 0.5
l 289 290
v 4.04457330703735 -1.97267019748688 0.5
v 4.16045713424683 -1.71481668949127 0.5
l 291 292
v 4.16045713424683 -1.71481668949127 0.5
v 4.25992202758789 -1.45019567012787 0.5
l 293 294
v 4.25992202758789 -1.45019567012787 0.5
v 4.34257411956787 -1.17985129356384 0.5
l 295 296
v 4.34257411956787 -1.17985129356384 0.5
v 4.40808868408203 -0.904850661754608 0.5
l 297 298
v -2.35793662071228 3.83277130126953 0.5
v -2.59394526481628 3.67715215682983 0.5
l 299 300
v -2.59394526481628 3.67715215682983 0.5
v -2.8197169303894 3.5070207118988 0.5
l 301 302
v -2.8197169303894 3.5070207118988 0.5
v -3.03436088562012 3.32304906845093 0.5
l 303 304
v -3.03436088562012 3.32304906845093 0.5
v -3.23702907562256 3.12596273422241 0.5
l 305 306
v -3.23702907562256 3.12596273422241 0.5
v -3.42692232131958 2.91653966903687 0.5
l 307 308
v -3.42692232131958 2.91653966903687 0.5
v -3.60329127311707 2.69560623168945 0.5
l 309 310
v -3.60329127311707 2.69560623168945 0.5
v -3.76543951034546 2.46403431892395 0.5
l 311 312
v -3.76543951034546 2.46403431892395 0.5
v -3.91272735595703 2.22273826599121 0.5
l 313 314
v -3.91272735595703 2.22273826599121 0.5
v -4.04457330703735 1.97267019748688 0.5
l 315 316
v -4.04457330703735 1.97267019748688 0.5
v -4.16045713424683 1.71481668949127 0.5
l 317 318
v -4.16045713424683 1.71481668949127 0.5
v -4.25992202758789 1.45019567012787 0.5
l 319 320
v -4.25992202758789 1.45019567012787 0.5
v -4.34257411956787 1.17985129356384 0.5
l 321 322
v -4.34257411956787 1.17985129356384 0.5
v -4.40808868408203 0.904850661754608 0.5
l 323 324
v -4.40808868408203 0.904850661754608 0.5
v -4.45620632171631 0.626278936862946 0.5
l 325 326
v -4.45620632171631 0.626278936862946 0.5
v -4.48673725128174 0.345235615968704 0.5
l 327 328
v -4.48673725128174 0.345235615968704 0.5
v -4.49956130981445 0.0628298074007034 0.5
l 329 330
v -4.49956130981445 0.0628298074007034 0.5
v -4.49462747573853 -0.219823956489563 0.5
l 331 332
v -4.49462747573853 -0.219823956489563 0.5
v -4.4719557762146 -0.501610219478607 0.5
l 333 334
v -4.4719557762146 -0.501610219478607 0.5
v -4.4316349029541 -0.781416833400726 0.5
l 335 336
v 0.225502207875252 -3.00651788711548 0.5
v -0.816386818885803 2.9023289680481 0.5
l 337 338
v 4.40808868408203 -0.904850661754608 0.5
v 4.45620632171631 -0.626278936862946 0.5
l 339 340
v -2.11262202262878 3.97326421737671 0.5
v -2.35793662071228 3.83277130126953 0.5
l 341 342
v 4.45620632171631 -0.626278936862946 0.5
v 4.48673725128174 -0.345235615968704 0.5
l 343 344
v -1.85896992683411 4.09807682037354 0.5
v -2.11262202262878 3.97326421737671 0.5
l 345 346
v 4.48673725128174 -0.345235615968704 0.5
v 4.49956130981445 -0.0628298074007034 0.5
l 347 348
v -1.5979813337326 4.20671510696411 0.5
v -1.85896992683411 4.09807682037354 0.5
l 349 350
v 4.49956130981445 -0.0628298074007034 0.5
v 4.49462747573853 0.219823956489563 0.5
l 351 352
v -1.33068633079529 4.29875230789185 0.5
v -1.5979813337326 4.20671510696411 0.5
l 353 354
v 4.49462747573853 0.219823956489563 0.5
v 4.4719557762146 0.501610219478607 0.5
l 355 356
v -1.05813956260681 4.37382459640503 0.5
v -1.33068633079529 4.29875230789185 0.5
l 357 358
v -0.225502207875252 3.00651788711548 0.5
v 0.816386818885803 -2.9023289680481 0.5
l 359 360
v 4.4719557762146 0.501610219478607 0.5
v 4.4316349029541 0.781416833400726 0.5
l 361 362
v -0.816386818885803 2.9023289680481 0.5
v -0.225502207875252 3.00651788711548 0.5
l 363 364
v -0.781416833400726 4.4316349029541 0.5
v -1.05813956260681 4.37382459640503 0.5
l 365 366
v 4.4316349029541 0.781416833400726 0.5
v 4.37382459640503 1.05813956260681 0.5
l 367 368
v -0.501610219478607 4.4719557762146 0.5
v -0.781416833400726 4.4316349029541 0.5
l 369 370
v -0.219823956489563 4.49462747573853 0.5
v -0.501610219478607 4.4719557762146 0.5
l 371 372
v 4.37382459640503 1.05813956260681 0.5
v 4.29875230789185 1.33068633079529 0.5
l 373 374
v 4.29875230789185 1.33068633079529 0.5
v 4.20671510696411 1.5979813337326 0.5
l 375 376
v 0.0628298074007034 4.49956130981445 0.5
v -0.219823956489563 4.49462747573853 0.5
l 377 378
v 4.20671510696411 1.5979813337326 0.5
v 4.09807682037354 1.85896992683411 0.5
l 379 380
v 0.345235615968704 4.48673725128174 0.5
v 0.0628298074007034 4.49956130981445 0.5
l 381 382
v 4.09807682037354 1.85896992683411 0.5
v 3.97326421737671 2.11262202262878 0.5
l 383 384
v 0.626278936862946 4.45620632171631 0.5
v 0.345235615968704 4.48673725128174 0.5
l 385 386
v 3.97326421737671 2.11262202262878 0.5
v 3.83277130126953 2.35793662071228 0.5
l 387 388
v 0.904850661754608 4.40808868408203 0.5
v 0.626278936862946 4.45620632171631 0.5
l 389 390
v 3.83277130126953 2.35793662071228 0.5
v 3.67715215682983 2.59394526481628 0.5
l 391 392
v 1.17985129356384 4.34257411956787 0.5
v 0.904850661754608 4.40808868408203 0.5
l 393 394
v 3.67715215682983 2.59394526481628 0.5
v 3.5070207118988 2.8197169303894 0.5
l 395 396
v 1.45019567012787 4.25992202758789 0.5
v 1.17985129356384 4.34257411956787 0.5
l 397 398
v 1.71481668949127 4.16045713424683 0.5
v 1.45019567012787 4.25992202758789 0.5
l 399 400
v 3.5070207118988 2.8197169303894 0.5
v 3.32304906845093 3.03436088562012 0.5
l 401 402
v 1.97267019748688 4.04457330703735 0.5
v 1.71481668949127 4.16045713424683 0.5
l 403 404
v 3.32304906845093 3.03436088562012 0.5
v 3.12596273422241 3.23702907562256 0.5
l 405 406
v 2.22273826599121 3.91272735595703 0.5
v 1.97267019748688 4.04457330703735 0.5
l 407 408
v 3.12596273422241 3.23702907562256 0.5
v 2.91653966903687 3.42692232131958 0.5
l 409 410
v 2.91653966903687 3.42692232131958 0.5
v 2.69560623168945 3.60329127311707 0.5
l 411 412
v 2.46403431892395 3.76543951034546 0.5
v 2.22273826599121 3.91272735595703 0.5
l 413 414
v 2.69560623168945 3.60329127311707 0.5
v 2.46403431892395 3.76543951034546 0.5
l 415 416
