# Wavefront OBJ file written 2026-06-22T09:24:14
o MeshRefinement_edgeMesh

# points : 8
# lines  : 12

# <points count="8">
v -0.816386818885803 2.9023289680481 0.5
v -0.816386818885803 2.9023289680481 -0.5
v -0.225502207875252 3.00651788711548 0.5
v -0.225502207875252 3.00651788711548 -0.5
v 0.816386818885803 -2.9023289680481 -0.5
v 0.816386818885803 -2.9023289680481 0.5
v 0.225502207875252 -3.00651788711548 0.5
v 0.225502207875252 -3.00651788711548 -0.5
# </points>

# <edges count="12">
l 1 2
l 4 3
l 5 6
l 8 7
l 3 1
l 2 4
l 4 5
l 6 3
l 7 6
l 5 8
l 8 2
l 1 7
# </edges>
