solid patch_1_1
 facet normal -0.9980267286300659 0.0 -0.06279081106185913
  outer loop
   vertex 0.2976343994140625 3.0 0.037599971771240234
   vertex 0.3 3.0 -7.300000312354324e-17
   vertex 0.3 -3.0 -7.300000312354324e-17
  endloop
 endfacet
 facet normal -0.9980267286300659 -0.0 -0.06279081106185913
  outer loop
   vertex 0.2976343994140625 3.0 0.037599971771240234
   vertex 0.3 -3.0 -7.300000312354324e-17
   vertex 0.2976343994140625 -3.0 0.037599971771240234
  endloop
 endfacet
 facet normal -0.9822873473167419 -0.0 -0.18738096952438354
  outer loop
   vertex 0.290574951171875 3.0 0.07460696411132813
   vertex 0.2976343994140625 -3.0 0.037599971771240234
   vertex 0.290574951171875 -3.0 0.07460696411132813
  endloop
 endfacet
 facet normal -0.9822873473167419 0.0 -0.18738096952438354
  outer loop
   vertex 0.290574951171875 3.0 0.07460696411132813
   vertex 0.2976343994140625 3.0 0.037599971771240234
   vertex 0.2976343994140625 -3.0 0.037599971771240234
  endloop
 endfacet
 facet normal -0.9510565400123596 -0.0 -0.3090169131755829
  outer loop
   vertex 0.2789329528808594 3.0 0.11043736267089845
   vertex 0.290574951171875 -3.0 0.07460696411132813
   vertex 0.2789329528808594 -3.0 0.11043736267089845
  endloop
 endfacet
 facet normal -0.9510565400123596 0.0 -0.3090169131755829
  outer loop
   vertex 0.2789329528808594 3.0 0.11043736267089845
   vertex 0.290574951171875 3.0 0.07460696411132813
   vertex 0.290574951171875 -3.0 0.07460696411132813
  endloop
 endfacet
 facet normal -0.9048269987106323 -0.0 -0.4257794916629791
  outer loop
   vertex 0.2628919982910156 3.0 0.14452610778808594
   vertex 0.2789329528808594 -3.0 0.11043736267089845
   vertex 0.2628919982910156 -3.0 0.14452610778808594
  endloop
 endfacet
 facet normal -0.9048269987106323 0.0 -0.4257794916629791
  outer loop
   vertex 0.2628919982910156 3.0 0.14452610778808594
   vertex 0.2789329528808594 3.0 0.11043736267089845
   vertex 0.2789329528808594 -3.0 0.11043736267089845
  endloop
 endfacet
 facet normal -0.8443278670310974 -0.0 -0.5358269214630127
  outer loop
   vertex 0.24270509338378907 3.0 0.1763355712890625
   vertex 0.2628919982910156 -3.0 0.14452610778808594
   vertex 0.24270509338378907 -3.0 0.1763355712890625
  endloop
 endfacet
 facet normal -0.8443278670310974 0.0 -0.5358269214630127
  outer loop
   vertex 0.24270509338378907 3.0 0.1763355712890625
   vertex 0.2628919982910156 3.0 0.14452610778808594
   vertex 0.2628919982910156 -3.0 0.14452610778808594
  endloop
 endfacet
 facet normal -0.7705132961273193 -0.0 -0.6374238729476929
  outer loop
   vertex 0.21869058227539062 3.0 0.2053641357421875
   vertex 0.24270509338378907 -3.0 0.1763355712890625
   vertex 0.21869058227539062 -3.0 0.2053641357421875
  endloop
 endfacet
 facet normal -0.7705132961273193 0.0 -0.6374238729476929
  outer loop
   vertex 0.21869058227539062 3.0 0.2053641357421875
   vertex 0.24270509338378907 3.0 0.1763355712890625
   vertex 0.24270509338378907 -3.0 0.1763355712890625
  endloop
 endfacet
 facet normal -0.6845472455024719 -0.0 -0.7289684414863586
  outer loop
   vertex 0.19122720336914062 3.0 0.2311539764404297
   vertex 0.21869058227539062 -3.0 0.2053641357421875
   vertex 0.19122720336914062 -3.0 0.2311539764404297
  endloop
 endfacet
 facet normal -0.5877848863601685 -0.0 -0.8090173006057739
  outer loop
   vertex 0.19122720336914062 3.0 0.2311539764404297
   vertex 0.19122720336914062 -3.0 0.2311539764404297
   vertex 0.16074803161621093 -3.0 0.25329837036132813
  endloop
 endfacet
 facet normal -0.6845472455024719 0.0 -0.7289684414863586
  outer loop
   vertex 0.19122720336914062 3.0 0.2311539764404297
   vertex 0.21869058227539062 3.0 0.2053641357421875
   vertex 0.21869058227539062 -3.0 0.2053641357421875
  endloop
 endfacet
 facet normal -0.5877848863601685 -0.0 -0.8090173006057739
  outer loop
   vertex 0.16074803161621093 3.0 0.25329837036132813
   vertex 0.19122720336914062 3.0 0.2311539764404297
   vertex 0.16074803161621093 -3.0 0.25329837036132813
  endloop
 endfacet
 facet normal -0.48175397515296936 -0.0 -0.8763064742088318
  outer loop
   vertex 0.1277337875366211 3.0 0.2714481201171875
   vertex 0.16074803161621093 -3.0 0.25329837036132813
   vertex 0.1277337875366211 -3.0 0.2714481201171875
  endloop
 endfacet
 facet normal -0.36812448501586914 -0.0 -0.9297764897346497
  outer loop
   vertex 0.1277337875366211 3.0 0.2714481201171875
   vertex 0.1277337875366211 -3.0 0.2714481201171875
   vertex 0.09270510101318359 -3.0 0.28531695556640624
  endloop
 endfacet
 facet normal -0.48175397515296936 0.0 -0.8763064742088318
  outer loop
   vertex 0.1277337875366211 3.0 0.2714481201171875
   vertex 0.16074803161621093 3.0 0.25329837036132813
   vertex 0.16074803161621093 -3.0 0.25329837036132813
  endloop
 endfacet
 facet normal -0.36812448501586914 -0.0 -0.9297764897346497
  outer loop
   vertex 0.09270510101318359 3.0 0.28531695556640624
   vertex 0.1277337875366211 3.0 0.2714481201171875
   vertex 0.09270510101318359 -3.0 0.28531695556640624
  endloop
 endfacet
 facet normal -0.2486901581287384 -0.0 -0.9685830473899841
  outer loop
   vertex 0.056214393615722655 3.0 0.2946861877441406
   vertex 0.09270510101318359 -3.0 0.28531695556640624
   vertex 0.056214393615722655 -3.0 0.2946861877441406
  endloop
 endfacet
 facet normal -0.2486901581287384 0.0 -0.9685830473899841
  outer loop
   vertex 0.056214393615722655 3.0 0.2946861877441406
   vertex 0.09270510101318359 3.0 0.28531695556640624
   vertex 0.09270510101318359 -3.0 0.28531695556640624
  endloop
 endfacet
 facet normal -0.12533296644687653 -0.0 -0.992114782333374
  outer loop
   vertex 0.018837156295776366 3.0 0.29940802001953126
   vertex 0.056214393615722655 -3.0 0.2946861877441406
   vertex 0.018837156295776366 -3.0 0.29940802001953126
  endloop
 endfacet
 facet normal 0.0 -0.0 -1.0
  outer loop
   vertex 0.018837156295776366 3.0 0.29940802001953126
   vertex 0.018837156295776366 -3.0 0.29940802001953126
   vertex -0.018837156295776366 -3.0 0.29940802001953126
  endloop
 endfacet
 facet normal -0.12533296644687653 0.0 -0.992114782333374
  outer loop
   vertex 0.018837156295776366 3.0 0.29940802001953126
   vertex 0.056214393615722655 3.0 0.2946861877441406
   vertex 0.056214393615722655 -3.0 0.2946861877441406
  endloop
 endfacet
 facet normal 0.12533296644687653 0.0 -0.992114782333374
  outer loop
   vertex -0.018837156295776366 3.0 0.29940802001953126
   vertex -0.018837156295776366 -3.0 0.29940802001953126
   vertex -0.056214393615722655 -3.0 0.2946861877441406
  endloop
 endfacet
 facet normal 0.0 0.0 -1.0
  outer loop
   vertex -0.018837156295776366 3.0 0.29940802001953126
   vertex 0.018837156295776366 3.0 0.29940802001953126
   vertex -0.018837156295776366 -3.0 0.29940802001953126
  endloop
 endfacet
 facet normal 0.12533296644687653 0.0 -0.992114782333374
  outer loop
   vertex -0.056214393615722655 3.0 0.2946861877441406
   vertex -0.018837156295776366 3.0 0.29940802001953126
   vertex -0.056214393615722655 -3.0 0.2946861877441406
  endloop
 endfacet
 facet normal 0.2486901581287384 0.0 -0.9685830473899841
  outer loop
   vertex -0.09270510101318359 3.0 0.28531695556640624
   vertex -0.056214393615722655 -3.0 0.2946861877441406
   vertex -0.09270510101318359 -3.0 0.28531695556640624
  endloop
 endfacet
 facet normal 0.2486901581287384 0.0 -0.9685830473899841
  outer loop
   vertex -0.09270510101318359 3.0 0.28531695556640624
   vertex -0.056214393615722655 3.0 0.2946861877441406
   vertex -0.056214393615722655 -3.0 0.2946861877441406
  endloop
 endfacet
 facet normal 0.36812448501586914 0.0 -0.9297764897346497
  outer loop
   vertex -0.1277337875366211 3.0 0.2714481201171875
   vertex -0.09270510101318359 -3.0 0.28531695556640624
   vertex -0.1277337875366211 -3.0 0.2714481201171875
  endloop
 endfacet
 facet normal 0.36812448501586914 0.0 -0.9297764897346497
  outer loop
   vertex -0.1277337875366211 3.0 0.2714481201171875
   vertex -0.09270510101318359 3.0 0.28531695556640624
   vertex -0.09270510101318359 -3.0 0.28531695556640624
  endloop
 endfacet
 facet normal 0.48175397515296936 0.0 -0.8763064742088318
  outer loop
   vertex -0.16074803161621093 3.0 0.25329837036132813
   vertex -0.1277337875366211 -3.0 0.2714481201171875
   vertex -0.16074803161621093 -3.0 0.25329837036132813
  endloop
 endfacet
 facet normal 0.5877848863601685 0.0 -0.8090173006057739
  outer loop
   vertex -0.16074803161621093 3.0 0.25329837036132813
   vertex -0.16074803161621093 -3.0 0.25329837036132813
   vertex -0.19122720336914062 -3.0 0.2311539764404297
  endloop
 endfacet
 facet normal 0.48175397515296936 0.0 -0.8763064742088318
  outer loop
   vertex -0.16074803161621093 3.0 0.25329837036132813
   vertex -0.1277337875366211 3.0 0.2714481201171875
   vertex -0.1277337875366211 -3.0 0.2714481201171875
  endloop
 endfacet
 facet normal 0.5877848863601685 0.0 -0.8090173006057739
  outer loop
   vertex -0.19122720336914062 3.0 0.2311539764404297
   vertex -0.16074803161621093 3.0 0.25329837036132813
   vertex -0.19122720336914062 -3.0 0.2311539764404297
  endloop
 endfacet
 facet normal 0.6845472455024719 0.0 -0.7289684414863586
  outer loop
   vertex -0.21869058227539062 3.0 0.2053641357421875
   vertex -0.19122720336914062 -3.0 0.2311539764404297
   vertex -0.21869058227539062 -3.0 0.2053641357421875
  endloop
 endfacet
 facet normal 0.6845472455024719 0.0 -0.7289684414863586
  outer loop
   vertex -0.21869058227539062 3.0 0.2053641357421875
   vertex -0.19122720336914062 3.0 0.2311539764404297
   vertex -0.19122720336914062 -3.0 0.2311539764404297
  endloop
 endfacet
 facet normal 0.7705132961273193 0.0 -0.6374238729476929
  outer loop
   vertex -0.24270509338378907 3.0 0.1763355712890625
   vertex -0.21869058227539062 -3.0 0.2053641357421875
   vertex -0.24270509338378907 -3.0 0.1763355712890625
  endloop
 endfacet
 facet normal 0.7705132961273193 0.0 -0.6374238729476929
  outer loop
   vertex -0.24270509338378907 3.0 0.1763355712890625
   vertex -0.21869058227539062 3.0 0.2053641357421875
   vertex -0.21869058227539062 -3.0 0.2053641357421875
  endloop
 endfacet
 facet normal 0.8443278670310974 0.0 -0.5358269214630127
  outer loop
   vertex -0.2628919982910156 3.0 0.14452610778808594
   vertex -0.24270509338378907 -3.0 0.1763355712890625
   vertex -0.2628919982910156 -3.0 0.14452610778808594
  endloop
 endfacet
 facet normal 0.8443278670310974 0.0 -0.5358269214630127
  outer loop
   vertex -0.2628919982910156 3.0 0.14452610778808594
   vertex -0.24270509338378907 3.0 0.1763355712890625
   vertex -0.24270509338378907 -3.0 0.1763355712890625
  endloop
 endfacet
 facet normal 0.9048269987106323 0.0 -0.4257794916629791
  outer loop
   vertex -0.2789329528808594 3.0 0.11043736267089845
   vertex -0.2628919982910156 -3.0 0.14452610778808594
   vertex -0.2789329528808594 -3.0 0.11043736267089845
  endloop
 endfacet
 facet normal 0.9048269987106323 0.0 -0.4257794916629791
  outer loop
   vertex -0.2789329528808594 3.0 0.11043736267089845
   vertex -0.2628919982910156 3.0 0.14452610778808594
   vertex -0.2628919982910156 -3.0 0.14452610778808594
  endloop
 endfacet
 facet normal 0.9510565400123596 0.0 -0.3090169131755829
  outer loop
   vertex -0.290574951171875 3.0 0.07460696411132813
   vertex -0.2789329528808594 -3.0 0.11043736267089845
   vertex -0.290574951171875 -3.0 0.07460696411132813
  endloop
 endfacet
 facet normal 0.9510565400123596 0.0 -0.3090169131755829
  outer loop
   vertex -0.290574951171875 3.0 0.07460696411132813
   vertex -0.2789329528808594 3.0 0.11043736267089845
   vertex -0.2789329528808594 -3.0 0.11043736267089845
  endloop
 endfacet
 facet normal 0.9822873473167419 0.0 -0.18738096952438354
  outer loop
   vertex -0.2976343994140625 3.0 0.037599971771240234
   vertex -0.290574951171875 -3.0 0.07460696411132813
   vertex -0.2976343994140625 -3.0 0.037599971771240234
  endloop
 endfacet
 facet normal 0.9822873473167419 0.0 -0.18738096952438354
  outer loop
   vertex -0.2976343994140625 3.0 0.037599971771240234
   vertex -0.290574951171875 3.0 0.07460696411132813
   vertex -0.290574951171875 -3.0 0.07460696411132813
  endloop
 endfacet
 facet normal 0.9980267286300659 0.0 -0.06279081106185913
  outer loop
   vertex -0.3 3.0 -3.62940878522941e-16
   vertex -0.2976343994140625 3.0 0.037599971771240234
   vertex -0.2976343994140625 -3.0 0.037599971771240234
  endloop
 endfacet
 facet normal 0.9980267286300659 0.0 -0.06279081106185913
  outer loop
   vertex -0.3 3.0 -3.62940878522941e-16
   vertex -0.2976343994140625 -3.0 0.037599971771240234
   vertex -0.3 -3.0 -3.62940878522941e-16
  endloop
 endfacet
 facet normal 0.9980267286300659 0.0 0.06279081106185913
  outer loop
   vertex -0.3 3.0 -3.62940878522941e-16
   vertex -0.3 -3.0 -3.62940878522941e-16
   vertex -0.2976343994140625 -3.0 -0.037599971771240234
  endloop
 endfacet
 facet normal 0.9980267286300659 0.0 0.06279081106185913
  outer loop
   vertex -0.2976343994140625 3.0 -0.037599971771240234
   vertex -0.3 3.0 -3.62940878522941e-16
   vertex -0.2976343994140625 -3.0 -0.037599971771240234
  endloop
 endfacet
 facet normal 0.9822873473167419 0.0 0.18738096952438354
  outer loop
   vertex -0.290574951171875 3.0 -0.07460696411132813
   vertex -0.2976343994140625 3.0 -0.037599971771240234
   vertex -0.2976343994140625 -3.0 -0.037599971771240234
  endloop
 endfacet
 facet normal 0.9822873473167419 0.0 0.18738096952438354
  outer loop
   vertex -0.290574951171875 3.0 -0.07460696411132813
   vertex -0.2976343994140625 -3.0 -0.037599971771240234
   vertex -0.290574951171875 -3.0 -0.07460696411132813
  endloop
 endfacet
 facet normal 0.9510565400123596 0.0 0.3090169131755829
  outer loop
   vertex -0.290574951171875 3.0 -0.07460696411132813
   vertex -0.290574951171875 -3.0 -0.07460696411132813
   vertex -0.2789329528808594 -3.0 -0.11043736267089845
  endloop
 endfacet
 facet normal 0.9510565400123596 0.0 0.3090169131755829
  outer loop
   vertex -0.2789329528808594 3.0 -0.11043736267089845
   vertex -0.290574951171875 3.0 -0.07460696411132813
   vertex -0.2789329528808594 -3.0 -0.11043736267089845
  endloop
 endfacet
 facet normal 0.9048269987106323 0.0 0.4257794916629791
  outer loop
   vertex -0.2628919982910156 3.0 -0.14452610778808594
   vertex -0.2789329528808594 3.0 -0.11043736267089845
   vertex -0.2789329528808594 -3.0 -0.11043736267089845
  endloop
 endfacet
 facet normal 0.9048269987106323 0.0 0.4257794916629791
  outer loop
   vertex -0.2628919982910156 3.0 -0.14452610778808594
   vertex -0.2789329528808594 -3.0 -0.11043736267089845
   vertex -0.2628919982910156 -3.0 -0.14452610778808594
  endloop
 endfacet
 facet normal 0.8443278670310974 0.0 0.5358269214630127
  outer loop
   vertex -0.2628919982910156 3.0 -0.14452610778808594
   vertex -0.2628919982910156 -3.0 -0.14452610778808594
   vertex -0.24270509338378907 -3.0 -0.1763355712890625
  endloop
 endfacet
 facet normal 0.8443278670310974 0.0 0.5358269214630127
  outer loop
   vertex -0.24270509338378907 3.0 -0.1763355712890625
   vertex -0.2628919982910156 3.0 -0.14452610778808594
   vertex -0.24270509338378907 -3.0 -0.1763355712890625
  endloop
 endfacet
 facet normal 0.7705132961273193 0.0 0.6374238729476929
  outer loop
   vertex -0.21869058227539062 3.0 -0.2053641357421875
   vertex -0.24270509338378907 3.0 -0.1763355712890625
   vertex -0.24270509338378907 -3.0 -0.1763355712890625
  endloop
 endfacet
 facet normal 0.7705132961273193 0.0 0.6374238729476929
  outer loop
   vertex -0.21869058227539062 3.0 -0.2053641357421875
   vertex -0.24270509338378907 -3.0 -0.1763355712890625
   vertex -0.21869058227539062 -3.0 -0.2053641357421875
  endloop
 endfacet
 facet normal 0.6845472455024719 0.0 0.7289684414863586
  outer loop
   vertex -0.21869058227539062 3.0 -0.2053641357421875
   vertex -0.21869058227539062 -3.0 -0.2053641357421875
   vertex -0.19122720336914062 -3.0 -0.2311539764404297
  endloop
 endfacet
 facet normal 0.6845472455024719 0.0 0.7289684414863586
  outer loop
   vertex -0.19122720336914062 3.0 -0.2311539764404297
   vertex -0.21869058227539062 3.0 -0.2053641357421875
   vertex -0.19122720336914062 -3.0 -0.2311539764404297
  endloop
 endfacet
 facet normal 0.5877848863601685 0.0 0.8090173006057739
  outer loop
   vertex -0.16074803161621093 3.0 -0.25329837036132813
   vertex -0.19122720336914062 -3.0 -0.2311539764404297
   vertex -0.16074803161621093 -3.0 -0.25329837036132813
  endloop
 endfacet
 facet normal 0.5877848863601685 0.0 0.8090173006057739
  outer loop
   vertex -0.16074803161621093 3.0 -0.25329837036132813
   vertex -0.19122720336914062 3.0 -0.2311539764404297
   vertex -0.19122720336914062 -3.0 -0.2311539764404297
  endloop
 endfacet
 facet normal 0.48175397515296936 0.0 0.8763064742088318
  outer loop
   vertex -0.1277337875366211 3.0 -0.2714481201171875
   vertex -0.16074803161621093 -3.0 -0.25329837036132813
   vertex -0.1277337875366211 -3.0 -0.2714481201171875
  endloop
 endfacet
 facet normal 0.36812448501586914 0.0 0.9297764897346497
  outer loop
   vertex -0.1277337875366211 3.0 -0.2714481201171875
   vertex -0.1277337875366211 -3.0 -0.2714481201171875
   vertex -0.09270510101318359 -3.0 -0.28531695556640624
  endloop
 endfacet
 facet normal 0.48175397515296936 0.0 0.8763064742088318
  outer loop
   vertex -0.1277337875366211 3.0 -0.2714481201171875
   vertex -0.16074803161621093 3.0 -0.25329837036132813
   vertex -0.16074803161621093 -3.0 -0.25329837036132813
  endloop
 endfacet
 facet normal 0.36812448501586914 0.0 0.9297764897346497
  outer loop
   vertex -0.09270510101318359 3.0 -0.28531695556640624
   vertex -0.1277337875366211 3.0 -0.2714481201171875
   vertex -0.09270510101318359 -3.0 -0.28531695556640624
  endloop
 endfacet
 facet normal 0.2486901581287384 0.0 0.9685830473899841
  outer loop
   vertex -0.056214393615722655 3.0 -0.2946861877441406
   vertex -0.09270510101318359 -3.0 -0.28531695556640624
   vertex -0.056214393615722655 -3.0 -0.2946861877441406
  endloop
 endfacet
 facet normal 0.12533296644687653 0.0 0.992114782333374
  outer loop
   vertex -0.056214393615722655 3.0 -0.2946861877441406
   vertex -0.056214393615722655 -3.0 -0.2946861877441406
   vertex -0.018837156295776366 -3.0 -0.29940802001953126
  endloop
 endfacet
 facet normal 0.2486901581287384 0.0 0.9685830473899841
  outer loop
   vertex -0.056214393615722655 3.0 -0.2946861877441406
   vertex -0.09270510101318359 3.0 -0.28531695556640624
   vertex -0.09270510101318359 -3.0 -0.28531695556640624
  endloop
 endfacet
 facet normal 0.0 0.0 1.0
  outer loop
   vertex -0.018837156295776366 3.0 -0.29940802001953126
   vertex -0.018837156295776366 -3.0 -0.29940802001953126
   vertex 0.018837156295776366 -3.0 -0.29940802001953126
  endloop
 endfacet
 facet normal 0.12533296644687653 0.0 0.992114782333374
  outer loop
   vertex -0.018837156295776366 3.0 -0.29940802001953126
   vertex -0.056214393615722655 3.0 -0.2946861877441406
   vertex -0.018837156295776366 -3.0 -0.29940802001953126
  endloop
 endfacet
 facet normal 0.0 0.0 1.0
  outer loop
   vertex 0.018837156295776366 3.0 -0.29940802001953126
   vertex -0.018837156295776366 3.0 -0.29940802001953126
   vertex 0.018837156295776366 -3.0 -0.29940802001953126
  endloop
 endfacet
 facet normal -0.12533296644687653 0.0 0.992114782333374
  outer loop
   vertex 0.056214393615722655 3.0 -0.2946861877441406
   vertex 0.018837156295776366 -3.0 -0.29940802001953126
   vertex 0.056214393615722655 -3.0 -0.2946861877441406
  endloop
 endfacet
 facet normal -0.2486901581287384 0.0 0.9685830473899841
  outer loop
   vertex 0.056214393615722655 3.0 -0.2946861877441406
   vertex 0.056214393615722655 -3.0 -0.2946861877441406
   vertex 0.09270510101318359 -3.0 -0.28531695556640624
  endloop
 endfacet
 facet normal -0.12533296644687653 0.0 0.992114782333374
  outer loop
   vertex 0.056214393615722655 3.0 -0.2946861877441406
   vertex 0.018837156295776366 3.0 -0.29940802001953126
   vertex 0.018837156295776366 -3.0 -0.29940802001953126
  endloop
 endfacet
 facet normal -0.2486901581287384 0.0 0.9685830473899841
  outer loop
   vertex 0.09270510101318359 3.0 -0.28531695556640624
   vertex 0.056214393615722655 3.0 -0.2946861877441406
   vertex 0.09270510101318359 -3.0 -0.28531695556640624
  endloop
 endfacet
 facet normal -0.36812448501586914 0.0 0.9297764897346497
  outer loop
   vertex 0.1277337875366211 3.0 -0.2714481201171875
   vertex 0.09270510101318359 -3.0 -0.28531695556640624
   vertex 0.1277337875366211 -3.0 -0.2714481201171875
  endloop
 endfacet
 facet normal -0.48175397515296936 0.0 0.8763064742088318
  outer loop
   vertex 0.1277337875366211 3.0 -0.2714481201171875
   vertex 0.1277337875366211 -3.0 -0.2714481201171875
   vertex 0.16074803161621093 -3.0 -0.25329837036132813
  endloop
 endfacet
 facet normal -0.36812448501586914 0.0 0.9297764897346497
  outer loop
   vertex 0.1277337875366211 3.0 -0.2714481201171875
   vertex 0.09270510101318359 3.0 -0.28531695556640624
   vertex 0.09270510101318359 -3.0 -0.28531695556640624
  endloop
 endfacet
 facet normal -0.48175397515296936 0.0 0.8763064742088318
  outer loop
   vertex 0.16074803161621093 3.0 -0.25329837036132813
   vertex 0.1277337875366211 3.0 -0.2714481201171875
   vertex 0.16074803161621093 -3.0 -0.25329837036132813
  endloop
 endfacet
 facet normal -0.5877848863601685 0.0 0.8090173006057739
  outer loop
   vertex 0.19122720336914062 3.0 -0.2311539764404297
   vertex 0.16074803161621093 -3.0 -0.25329837036132813
   vertex 0.19122720336914062 -3.0 -0.2311539764404297
  endloop
 endfacet
 facet normal -0.5877848863601685 0.0 0.8090173006057739
  outer loop
   vertex 0.19122720336914062 3.0 -0.2311539764404297
   vertex 0.16074803161621093 3.0 -0.25329837036132813
   vertex 0.16074803161621093 -3.0 -0.25329837036132813
  endloop
 endfacet
 facet normal -0.6845472455024719 0.0 0.7289684414863586
  outer loop
   vertex 0.21869058227539062 3.0 -0.2053641357421875
   vertex 0.19122720336914062 -3.0 -0.2311539764404297
   vertex 0.21869058227539062 -3.0 -0.2053641357421875
  endloop
 endfacet
 facet normal -0.6845472455024719 0.0 0.7289684414863586
  outer loop
   vertex 0.21869058227539062 3.0 -0.2053641357421875
   vertex 0.19122720336914062 3.0 -0.2311539764404297
   vertex 0.19122720336914062 -3.0 -0.2311539764404297
  endloop
 endfacet
 facet normal -0.7705132961273193 0.0 0.6374238729476929
  outer loop
   vertex 0.24270509338378907 3.0 -0.1763355712890625
   vertex 0.21869058227539062 -3.0 -0.2053641357421875
   vertex 0.24270509338378907 -3.0 -0.1763355712890625
  endloop
 endfacet
 facet normal -0.7705132961273193 0.0 0.6374238729476929
  outer loop
   vertex 0.24270509338378907 3.0 -0.1763355712890625
   vertex 0.21869058227539062 3.0 -0.2053641357421875
   vertex 0.21869058227539062 -3.0 -0.2053641357421875
  endloop
 endfacet
 facet normal -0.8443278670310974 0.0 0.5358269214630127
  outer loop
   vertex 0.2628919982910156 3.0 -0.14452610778808594
   vertex 0.24270509338378907 -3.0 -0.1763355712890625
   vertex 0.2628919982910156 -3.0 -0.14452610778808594
  endloop
 endfacet
 facet normal -0.9048269987106323 0.0 0.4257794916629791
  outer loop
   vertex 0.2628919982910156 3.0 -0.14452610778808594
   vertex 0.2628919982910156 -3.0 -0.14452610778808594
   vertex 0.2789329528808594 -3.0 -0.11043736267089845
  endloop
 endfacet
 facet normal -0.8443278670310974 0.0 0.5358269214630127
  outer loop
   vertex 0.2628919982910156 3.0 -0.14452610778808594
   vertex 0.24270509338378907 3.0 -0.1763355712890625
   vertex 0.24270509338378907 -3.0 -0.1763355712890625
  endloop
 endfacet
 facet normal -0.9510565400123596 0.0 0.3090169131755829
  outer loop
   vertex 0.2789329528808594 3.0 -0.11043736267089845
   vertex 0.2789329528808594 -3.0 -0.11043736267089845
   vertex 0.290574951171875 -3.0 -0.07460696411132813
  endloop
 endfacet
 facet normal -0.9048269987106323 0.0 0.4257794916629791
  outer loop
   vertex 0.2789329528808594 3.0 -0.11043736267089845
   vertex 0.2628919982910156 3.0 -0.14452610778808594
   vertex 0.2789329528808594 -3.0 -0.11043736267089845
  endloop
 endfacet
 facet normal -0.9510565400123596 0.0 0.3090169131755829
  outer loop
   vertex 0.290574951171875 3.0 -0.07460696411132813
   vertex 0.2789329528808594 3.0 -0.11043736267089845
   vertex 0.290574951171875 -3.0 -0.07460696411132813
  endloop
 endfacet
 facet normal -0.9822873473167419 0.0 0.18738096952438354
  outer loop
   vertex 0.2976343994140625 3.0 -0.037599971771240234
   vertex 0.290574951171875 3.0 -0.07460696411132813
   vertex 0.290574951171875 -3.0 -0.07460696411132813
  endloop
 endfacet
 facet normal -0.9822873473167419 0.0 0.18738096952438354
  outer loop
   vertex 0.2976343994140625 3.0 -0.037599971771240234
   vertex 0.290574951171875 -3.0 -0.07460696411132813
   vertex 0.2976343994140625 -3.0 -0.037599971771240234
  endloop
 endfacet
 facet normal -0.9980267286300659 0.0 0.06279081106185913
  outer loop
   vertex 0.3 3.0 -7.300000312354324e-17
   vertex 0.2976343994140625 3.0 -0.037599971771240234
   vertex 0.2976343994140625 -3.0 -0.037599971771240234
  endloop
 endfacet
 facet normal -0.9980267286300659 0.0 0.06279081106185913
  outer loop
   vertex 0.3 3.0 -7.300000312354324e-17
   vertex 0.2976343994140625 -3.0 -0.037599971771240234
   vertex 0.3 -3.0 -7.300000312354324e-17
  endloop
 endfacet
 facet normal 0.0 -1.0 0.0
  outer loop
   vertex -0.16074803161621093 3.0 -0.25329837036132813
   vertex -0.21869058227539062 3.0 -0.2053641357421875
   vertex -0.19122720336914062 3.0 -0.2311539764404297
  endloop
 endfacet
 facet normal 0.0 -1.0 0.0
  outer loop
   vertex -0.2628919982910156 3.0 -0.14452610778808594
   vertex -0.24270509338378907 3.0 -0.1763355712890625
   vertex -0.21869058227539062 3.0 -0.2053641357421875
  endloop
 endfacet
 facet normal 0.0 -1.0 0.0
  outer loop
   vertex -0.290574951171875 3.0 -0.07460696411132813
   vertex -0.2789329528808594 3.0 -0.11043736267089845
   vertex -0.2628919982910156 3.0 -0.14452610778808594
  endloop
 endfacet
 facet normal 0.0 -1.0 0.0
  outer loop
   vertex -0.056214393615722655 3.0 -0.2946861877441406
   vertex -0.16074803161621093 3.0 -0.25329837036132813
   vertex -0.1277337875366211 3.0 -0.2714481201171875
  endloop
 endfacet
 facet normal 0.0 -1.0 0.0
  outer loop
   vertex -0.056214393615722655 3.0 -0.2946861877441406
   vertex -0.1277337875366211 3.0 -0.2714481201171875
   vertex -0.09270510101318359 3.0 -0.28531695556640624
  endloop
 endfacet
 facet normal 0.0 -1.0 0.0
  outer loop
   vertex -0.056214393615722655 3.0 -0.2946861877441406
   vertex -0.290574951171875 3.0 -0.07460696411132813
   vertex -0.2628919982910156 3.0 -0.14452610778808594
  endloop
 endfacet
 facet normal 0.0 -1.0 0.0
  outer loop
   vertex -0.056214393615722655 3.0 -0.2946861877441406
   vertex -0.21869058227539062 3.0 -0.2053641357421875
   vertex -0.16074803161621093 3.0 -0.25329837036132813
  endloop
 endfacet
 facet normal 0.0 -1.0 0.0
  outer loop
   vertex -0.056214393615722655 3.0 -0.2946861877441406
   vertex -0.2628919982910156 3.0 -0.14452610778808594
   vertex -0.21869058227539062 3.0 -0.2053641357421875
  endloop
 endfacet
 facet normal 0.0 -1.0 0.0
  outer loop
   vertex -0.018837156295776366 3.0 -0.29940802001953126
   vertex -0.290574951171875 3.0 -0.07460696411132813
   vertex -0.056214393615722655 3.0 -0.2946861877441406
  endloop
 endfacet
 facet normal 0.0 -1.0 0.0
  outer loop
   vertex 0.018837156295776366 3.0 -0.29940802001953126
   vertex -0.290574951171875 3.0 -0.07460696411132813
   vertex -0.018837156295776366 3.0 -0.29940802001953126
  endloop
 endfacet
 facet normal 0.0 -1.0 -0.0
  outer loop
   vertex -0.2976343994140625 3.0 0.037599971771240234
   vertex -0.3 3.0 -3.62940878522941e-16
   vertex -0.2976343994140625 3.0 -0.037599971771240234
  endloop
 endfacet
 facet normal 0.0 -1.0 0.0
  outer loop
   vertex -0.2976343994140625 3.0 0.037599971771240234
   vertex -0.2976343994140625 3.0 -0.037599971771240234
   vertex -0.290574951171875 3.0 -0.07460696411132813
  endloop
 endfacet
 facet normal 0.0 -1.0 0.0
  outer loop
   vertex 0.09270510101318359 3.0 -0.28531695556640624
   vertex 0.018837156295776366 3.0 -0.29940802001953126
   vertex 0.056214393615722655 3.0 -0.2946861877441406
  endloop
 endfacet
 facet normal 0.0 -1.0 0.0
  outer loop
   vertex -0.2628919982910156 3.0 0.14452610778808594
   vertex -0.2789329528808594 3.0 0.11043736267089845
   vertex -0.290574951171875 3.0 0.07460696411132813
  endloop
 endfacet
 facet normal 0.0 -1.0 0.0
  outer loop
   vertex -0.2628919982910156 3.0 0.14452610778808594
   vertex -0.290574951171875 3.0 0.07460696411132813
   vertex -0.2976343994140625 3.0 0.037599971771240234
  endloop
 endfacet
 facet normal 0.0 -1.0 0.0
  outer loop
   vertex -0.2628919982910156 3.0 0.14452610778808594
   vertex -0.2976343994140625 3.0 0.037599971771240234
   vertex -0.290574951171875 3.0 -0.07460696411132813
  endloop
 endfacet
 facet normal 0.0 -1.0 -0.0
  outer loop
   vertex -0.2628919982910156 3.0 0.14452610778808594
   vertex -0.290574951171875 3.0 -0.07460696411132813
   vertex 0.018837156295776366 3.0 -0.29940802001953126
  endloop
 endfacet
 facet normal 0.0 -1.0 0.0
  outer loop
   vertex -0.2628919982910156 3.0 0.14452610778808594
   vertex 0.018837156295776366 3.0 -0.29940802001953126
   vertex 0.09270510101318359 3.0 -0.28531695556640624
  endloop
 endfacet
 facet normal 0.0 -1.0 0.0
  outer loop
   vertex 0.19122720336914062 3.0 -0.2311539764404297
   vertex 0.09270510101318359 3.0 -0.28531695556640624
   vertex 0.1277337875366211 3.0 -0.2714481201171875
  endloop
 endfacet
 facet normal 0.0 -1.0 0.0
  outer loop
   vertex 0.19122720336914062 3.0 -0.2311539764404297
   vertex 0.1277337875366211 3.0 -0.2714481201171875
   vertex 0.16074803161621093 3.0 -0.25329837036132813
  endloop
 endfacet
 facet normal 0.0 -1.0 0.0
  outer loop
   vertex -0.21869058227539062 3.0 0.2053641357421875
   vertex -0.24270509338378907 3.0 0.1763355712890625
   vertex -0.2628919982910156 3.0 0.14452610778808594
  endloop
 endfacet
 facet normal 0.0 -1.0 0.0
  outer loop
   vertex 0.24270509338378907 3.0 -0.1763355712890625
   vertex 0.19122720336914062 3.0 -0.2311539764404297
   vertex 0.21869058227539062 3.0 -0.2053641357421875
  endloop
 endfacet
 facet normal 0.0 -1.0 0.0
  outer loop
   vertex 0.2628919982910156 3.0 -0.14452610778808594
   vertex 0.19122720336914062 3.0 -0.2311539764404297
   vertex 0.24270509338378907 3.0 -0.1763355712890625
  endloop
 endfacet
 facet normal 0.0 -1.0 0.0
  outer loop
   vertex -0.1277337875366211 3.0 0.2714481201171875
   vertex -0.16074803161621093 3.0 0.25329837036132813
   vertex -0.19122720336914062 3.0 0.2311539764404297
  endloop
 endfacet
 facet normal 0.0 -1.0 0.0
  outer loop
   vertex -0.1277337875366211 3.0 0.2714481201171875
   vertex -0.19122720336914062 3.0 0.2311539764404297
   vertex -0.21869058227539062 3.0 0.2053641357421875
  endloop
 endfacet
 facet normal 0.0 -1.0 0.0
  outer loop
   vertex 0.290574951171875 3.0 -0.07460696411132813
   vertex 0.2628919982910156 3.0 -0.14452610778808594
   vertex 0.2789329528808594 3.0 -0.11043736267089845
  endloop
 endfacet
 facet normal 0.0 -1.0 0.0
  outer loop
   vertex -0.056214393615722655 3.0 0.2946861877441406
   vertex -0.1277337875366211 3.0 0.2714481201171875
   vertex -0.21869058227539062 3.0 0.2053641357421875
  endloop
 endfacet
 facet normal 0.0 -1.0 0.0
  outer loop
   vertex -0.056214393615722655 3.0 0.2946861877441406
   vertex -0.09270510101318359 3.0 0.28531695556640624
   vertex -0.1277337875366211 3.0 0.2714481201171875
  endloop
 endfacet
 facet normal 0.0 -1.0 0.0
  outer loop
   vertex 0.3 3.0 -7.300000312354324e-17
   vertex 0.290574951171875 3.0 -0.07460696411132813
   vertex 0.2976343994140625 3.0 -0.037599971771240234
  endloop
 endfacet
 facet normal -0.0 -1.0 0.0
  outer loop
   vertex 0.018837156295776366 3.0 0.29940802001953126
   vertex -0.018837156295776366 3.0 0.29940802001953126
   vertex -0.056214393615722655 3.0 0.2946861877441406
  endloop
 endfacet
 facet normal 0.0 -1.0 0.0
  outer loop
   vertex 0.09270510101318359 3.0 0.28531695556640624
   vertex -0.21869058227539062 3.0 0.2053641357421875
   vertex -0.2628919982910156 3.0 0.14452610778808594
  endloop
 endfacet
 facet normal 0.0 -1.0 0.0
  outer loop
   vertex 0.09270510101318359 3.0 0.28531695556640624
   vertex 0.056214393615722655 3.0 0.2946861877441406
   vertex 0.018837156295776366 3.0 0.29940802001953126
  endloop
 endfacet
 facet normal -0.0 -1.0 0.0
  outer loop
   vertex 0.09270510101318359 3.0 0.28531695556640624
   vertex -0.056214393615722655 3.0 0.2946861877441406
   vertex -0.21869058227539062 3.0 0.2053641357421875
  endloop
 endfacet
 facet normal 0.0 -1.0 0.0
  outer loop
   vertex 0.09270510101318359 3.0 0.28531695556640624
   vertex 0.018837156295776366 3.0 0.29940802001953126
   vertex -0.056214393615722655 3.0 0.2946861877441406
  endloop
 endfacet
 facet normal 0.0 -1.0 -0.0
  outer loop
   vertex 0.09270510101318359 3.0 0.28531695556640624
   vertex -0.2628919982910156 3.0 0.14452610778808594
   vertex 0.09270510101318359 3.0 -0.28531695556640624
  endloop
 endfacet
 facet normal 0.0 -1.0 0.0
  outer loop
   vertex 0.2789329528808594 3.0 0.11043736267089845
   vertex 0.3 3.0 -7.300000312354324e-17
   vertex 0.2976343994140625 3.0 0.037599971771240234
  endloop
 endfacet
 facet normal 0.0 -1.0 0.0
  outer loop
   vertex 0.2789329528808594 3.0 0.11043736267089845
   vertex 0.2976343994140625 3.0 0.037599971771240234
   vertex 0.290574951171875 3.0 0.07460696411132813
  endloop
 endfacet
 facet normal 0.0 -1.0 0.0
  outer loop
   vertex 0.2789329528808594 3.0 0.11043736267089845
   vertex 0.19122720336914062 3.0 -0.2311539764404297
   vertex 0.2628919982910156 3.0 -0.14452610778808594
  endloop
 endfacet
 facet normal 0.0 -1.0 -0.0
  outer loop
   vertex 0.2789329528808594 3.0 0.11043736267089845
   vertex 0.2628919982910156 3.0 -0.14452610778808594
   vertex 0.290574951171875 3.0 -0.07460696411132813
  endloop
 endfacet
 facet normal 0.0 -1.0 0.0
  outer loop
   vertex 0.2789329528808594 3.0 0.11043736267089845
   vertex 0.290574951171875 3.0 -0.07460696411132813
   vertex 0.3 3.0 -7.300000312354324e-17
  endloop
 endfacet
 facet normal -0.0 -1.0 0.0
  outer loop
   vertex 0.2789329528808594 3.0 0.11043736267089845
   vertex 0.09270510101318359 3.0 0.28531695556640624
   vertex 0.09270510101318359 3.0 -0.28531695556640624
  endloop
 endfacet
 facet normal 0.0 -1.0 0.0
  outer loop
   vertex 0.2789329528808594 3.0 0.11043736267089845
   vertex 0.09270510101318359 3.0 -0.28531695556640624
   vertex 0.19122720336914062 3.0 -0.2311539764404297
  endloop
 endfacet
 facet normal -0.0 -1.0 -0.0
  outer loop
   vertex 0.2628919982910156 3.0 0.14452610778808594
   vertex 0.09270510101318359 3.0 0.28531695556640624
   vertex 0.2789329528808594 3.0 0.11043736267089845
  endloop
 endfacet
 facet normal 0.0 -1.0 0.0
  outer loop
   vertex 0.16074803161621093 3.0 0.25329837036132813
   vertex 0.1277337875366211 3.0 0.2714481201171875
   vertex 0.09270510101318359 3.0 0.28531695556640624
  endloop
 endfacet
 facet normal 0.0 -1.0 0.0
  outer loop
   vertex 0.21869058227539062 3.0 0.2053641357421875
   vertex 0.2628919982910156 3.0 0.14452610778808594
   vertex 0.24270509338378907 3.0 0.1763355712890625
  endloop
 endfacet
 facet normal 0.0 -1.0 0.0
  outer loop
   vertex 0.21869058227539062 3.0 0.2053641357421875
   vertex 0.19122720336914062 3.0 0.2311539764404297
   vertex 0.16074803161621093 3.0 0.25329837036132813
  endloop
 endfacet
 facet normal -0.0 -1.0 -0.0
  outer loop
   vertex 0.21869058227539062 3.0 0.2053641357421875
   vertex 0.09270510101318359 3.0 0.28531695556640624
   vertex 0.2628919982910156 3.0 0.14452610778808594
  endloop
 endfacet
 facet normal 0.0 -1.0 0.0
  outer loop
   vertex 0.21869058227539062 3.0 0.2053641357421875
   vertex 0.16074803161621093 3.0 0.25329837036132813
   vertex 0.09270510101318359 3.0 0.28531695556640624
  endloop
 endfacet
 facet normal 0.0 1.0 0.0
  outer loop
   vertex -0.21869058227539062 -3.0 -0.2053641357421875
   vertex -0.16074803161621093 -3.0 -0.25329837036132813
   vertex -0.19122720336914062 -3.0 -0.2311539764404297
  endloop
 endfacet
 facet normal -0.0 1.0 -0.0
  outer loop
   vertex -0.24270509338378907 -3.0 -0.1763355712890625
   vertex -0.2628919982910156 -3.0 -0.14452610778808594
   vertex -0.21869058227539062 -3.0 -0.2053641357421875
  endloop
 endfacet
 facet normal -0.0 1.0 -0.0
  outer loop
   vertex -0.2789329528808594 -3.0 -0.11043736267089845
   vertex -0.290574951171875 -3.0 -0.07460696411132813
   vertex -0.2628919982910156 -3.0 -0.14452610778808594
  endloop
 endfacet
 facet normal 0.0 1.0 0.0
  outer loop
   vertex -0.16074803161621093 -3.0 -0.25329837036132813
   vertex -0.056214393615722655 -3.0 -0.2946861877441406
   vertex -0.1277337875366211 -3.0 -0.2714481201171875
  endloop
 endfacet
 facet normal 0.0 1.0 0.0
  outer loop
   vertex -0.1277337875366211 -3.0 -0.2714481201171875
   vertex -0.056214393615722655 -3.0 -0.2946861877441406
   vertex -0.09270510101318359 -3.0 -0.28531695556640624
  endloop
 endfacet
 facet normal 0.0 1.0 0.0
  outer loop
   vertex -0.290574951171875 -3.0 -0.07460696411132813
   vertex -0.056214393615722655 -3.0 -0.2946861877441406
   vertex -0.2628919982910156 -3.0 -0.14452610778808594
  endloop
 endfacet
 facet normal 0.0 1.0 0.0
  outer loop
   vertex -0.21869058227539062 -3.0 -0.2053641357421875
   vertex -0.056214393615722655 -3.0 -0.2946861877441406
   vertex -0.16074803161621093 -3.0 -0.25329837036132813
  endloop
 endfacet
 facet normal 0.0 1.0 0.0
  outer loop
   vertex -0.2628919982910156 -3.0 -0.14452610778808594
   vertex -0.056214393615722655 -3.0 -0.2946861877441406
   vertex -0.21869058227539062 -3.0 -0.2053641357421875
  endloop
 endfacet
 facet normal 0.0 1.0 0.0
  outer loop
   vertex -0.290574951171875 -3.0 -0.07460696411132813
   vertex -0.018837156295776366 -3.0 -0.29940802001953126
   vertex -0.056214393615722655 -3.0 -0.2946861877441406
  endloop
 endfacet
 facet normal 0.0 1.0 0.0
  outer loop
   vertex -0.290574951171875 -3.0 -0.07460696411132813
   vertex 0.018837156295776366 -3.0 -0.29940802001953126
   vertex -0.018837156295776366 -3.0 -0.29940802001953126
  endloop
 endfacet
 facet normal -0.0 1.0 0.0
  outer loop
   vertex -0.3 -3.0 -3.62940878522941e-16
   vertex -0.2976343994140625 -3.0 0.037599971771240234
   vertex -0.2976343994140625 -3.0 -0.037599971771240234
  endloop
 endfacet
 facet normal -0.0 1.0 0.0
  outer loop
   vertex -0.2976343994140625 -3.0 -0.037599971771240234
   vertex -0.2976343994140625 -3.0 0.037599971771240234
   vertex -0.290574951171875 -3.0 -0.07460696411132813
  endloop
 endfacet
 facet normal 0.0 1.0 0.0
  outer loop
   vertex 0.018837156295776366 -3.0 -0.29940802001953126
   vertex 0.09270510101318359 -3.0 -0.28531695556640624
   vertex 0.056214393615722655 -3.0 -0.2946861877441406
  endloop
 endfacet
 facet normal -0.0 1.0 0.0
  outer loop
   vertex -0.2789329528808594 -3.0 0.11043736267089845
   vertex -0.2628919982910156 -3.0 0.14452610778808594
   vertex -0.290574951171875 -3.0 0.07460696411132813
  endloop
 endfacet
 facet normal -0.0 1.0 0.0
  outer loop
   vertex -0.290574951171875 -3.0 0.07460696411132813
   vertex -0.2628919982910156 -3.0 0.14452610778808594
   vertex -0.2976343994140625 -3.0 0.037599971771240234
  endloop
 endfacet
 facet normal -0.0 1.0 0.0
  outer loop
   vertex -0.2976343994140625 -3.0 0.037599971771240234
   vertex -0.2628919982910156 -3.0 0.14452610778808594
   vertex -0.290574951171875 -3.0 -0.07460696411132813
  endloop
 endfacet
 facet normal -0.0 1.0 0.0
  outer loop
   vertex -0.290574951171875 -3.0 -0.07460696411132813
   vertex -0.2628919982910156 -3.0 0.14452610778808594
   vertex 0.018837156295776366 -3.0 -0.29940802001953126
  endloop
 endfacet
 facet normal 0.0 1.0 -0.0
  outer loop
   vertex 0.018837156295776366 -3.0 -0.29940802001953126
   vertex -0.2628919982910156 -3.0 0.14452610778808594
   vertex 0.09270510101318359 -3.0 -0.28531695556640624
  endloop
 endfacet
 facet normal 0.0 1.0 0.0
  outer loop
   vertex 0.09270510101318359 -3.0 -0.28531695556640624
   vertex 0.19122720336914062 -3.0 -0.2311539764404297
   vertex 0.1277337875366211 -3.0 -0.2714481201171875
  endloop
 endfacet
 facet normal 0.0 1.0 0.0
  outer loop
   vertex 0.1277337875366211 -3.0 -0.2714481201171875
   vertex 0.19122720336914062 -3.0 -0.2311539764404297
   vertex 0.16074803161621093 -3.0 -0.25329837036132813
  endloop
 endfacet
 facet normal -0.0 1.0 0.0
  outer loop
   vertex -0.24270509338378907 -3.0 0.1763355712890625
   vertex -0.21869058227539062 -3.0 0.2053641357421875
   vertex -0.2628919982910156 -3.0 0.14452610778808594
  endloop
 endfacet
 facet normal 0.0 1.0 0.0
  outer loop
   vertex 0.19122720336914062 -3.0 -0.2311539764404297
   vertex 0.24270509338378907 -3.0 -0.1763355712890625
   vertex 0.21869058227539062 -3.0 -0.2053641357421875
  endloop
 endfacet
 facet normal 0.0 1.0 0.0
  outer loop
   vertex 0.19122720336914062 -3.0 -0.2311539764404297
   vertex 0.2628919982910156 -3.0 -0.14452610778808594
   vertex 0.24270509338378907 -3.0 -0.1763355712890625
  endloop
 endfacet
 facet normal -0.0 1.0 0.0
  outer loop
   vertex -0.16074803161621093 -3.0 0.25329837036132813
   vertex -0.1277337875366211 -3.0 0.2714481201171875
   vertex -0.19122720336914062 -3.0 0.2311539764404297
  endloop
 endfacet
 facet normal -0.0 1.0 0.0
  outer loop
   vertex -0.19122720336914062 -3.0 0.2311539764404297
   vertex -0.1277337875366211 -3.0 0.2714481201171875
   vertex -0.21869058227539062 -3.0 0.2053641357421875
  endloop
 endfacet
 facet normal 0.0 1.0 0.0
  outer loop
   vertex 0.2628919982910156 -3.0 -0.14452610778808594
   vertex 0.290574951171875 -3.0 -0.07460696411132813
   vertex 0.2789329528808594 -3.0 -0.11043736267089845
  endloop
 endfacet
 facet normal -0.0 1.0 0.0
  outer loop
   vertex -0.1277337875366211 -3.0 0.2714481201171875
   vertex -0.056214393615722655 -3.0 0.2946861877441406
   vertex -0.21869058227539062 -3.0 0.2053641357421875
  endloop
 endfacet
 facet normal -0.0 1.0 0.0
  outer loop
   vertex -0.09270510101318359 -3.0 0.28531695556640624
   vertex -0.056214393615722655 -3.0 0.2946861877441406
   vertex -0.1277337875366211 -3.0 0.2714481201171875
  endloop
 endfacet
 facet normal 0.0 1.0 0.0
  outer loop
   vertex 0.290574951171875 -3.0 -0.07460696411132813
   vertex 0.3 -3.0 -7.300000312354324e-17
   vertex 0.2976343994140625 -3.0 -0.037599971771240234
  endloop
 endfacet
 facet normal -0.0 1.0 0.0
  outer loop
   vertex -0.018837156295776366 -3.0 0.29940802001953126
   vertex 0.018837156295776366 -3.0 0.29940802001953126
   vertex -0.056214393615722655 -3.0 0.2946861877441406
  endloop
 endfacet
 facet normal -0.0 1.0 0.0
  outer loop
   vertex -0.21869058227539062 -3.0 0.2053641357421875
   vertex 0.09270510101318359 -3.0 0.28531695556640624
   vertex -0.2628919982910156 -3.0 0.14452610778808594
  endloop
 endfacet
 facet normal 0.0 1.0 0.0
  outer loop
   vertex 0.056214393615722655 -3.0 0.2946861877441406
   vertex 0.09270510101318359 -3.0 0.28531695556640624
   vertex 0.018837156295776366 -3.0 0.29940802001953126
  endloop
 endfacet
 facet normal 0.0 1.0 0.0
  outer loop
   vertex -0.056214393615722655 -3.0 0.2946861877441406
   vertex 0.09270510101318359 -3.0 0.28531695556640624
   vertex -0.21869058227539062 -3.0 0.2053641357421875
  endloop
 endfacet
 facet normal 0.0 1.0 0.0
  outer loop
   vertex 0.018837156295776366 -3.0 0.29940802001953126
   vertex 0.09270510101318359 -3.0 0.28531695556640624
   vertex -0.056214393615722655 -3.0 0.2946861877441406
  endloop
 endfacet
 facet normal -0.0 1.0 0.0
  outer loop
   vertex -0.2628919982910156 -3.0 0.14452610778808594
   vertex 0.09270510101318359 -3.0 0.28531695556640624
   vertex 0.09270510101318359 -3.0 -0.28531695556640624
  endloop
 endfacet
 facet normal 0.0 1.0 0.0
  outer loop
   vertex 0.3 -3.0 -7.300000312354324e-17
   vertex 0.2789329528808594 -3.0 0.11043736267089845
   vertex 0.2976343994140625 -3.0 0.037599971771240234
  endloop
 endfacet
 facet normal 0.0 1.0 0.0
  outer loop
   vertex 0.2976343994140625 -3.0 0.037599971771240234
   vertex 0.2789329528808594 -3.0 0.11043736267089845
   vertex 0.290574951171875 -3.0 0.07460696411132813
  endloop
 endfacet
 facet normal 0.0 1.0 0.0
  outer loop
   vertex 0.19122720336914062 -3.0 -0.2311539764404297
   vertex 0.2789329528808594 -3.0 0.11043736267089845
   vertex 0.2628919982910156 -3.0 -0.14452610778808594
  endloop
 endfacet
 facet normal 0.0 1.0 0.0
  outer loop
   vertex 0.2628919982910156 -3.0 -0.14452610778808594
   vertex 0.2789329528808594 -3.0 0.11043736267089845
   vertex 0.290574951171875 -3.0 -0.07460696411132813
  endloop
 endfacet
 facet normal 0.0 1.0 -0.0
  outer loop
   vertex 0.290574951171875 -3.0 -0.07460696411132813
   vertex 0.2789329528808594 -3.0 0.11043736267089845
   vertex 0.3 -3.0 -7.300000312354324e-17
  endloop
 endfacet
 facet normal 0.0 1.0 0.0
  outer loop
   vertex 0.09270510101318359 -3.0 0.28531695556640624
   vertex 0.2789329528808594 -3.0 0.11043736267089845
   vertex 0.09270510101318359 -3.0 -0.28531695556640624
  endloop
 endfacet
 facet normal 0.0 1.0 0.0
  outer loop
   vertex 0.09270510101318359 -3.0 -0.28531695556640624
   vertex 0.2789329528808594 -3.0 0.11043736267089845
   vertex 0.19122720336914062 -3.0 -0.2311539764404297
  endloop
 endfacet
 facet normal 0.0 1.0 0.0
  outer loop
   vertex 0.09270510101318359 -3.0 0.28531695556640624
   vertex 0.2628919982910156 -3.0 0.14452610778808594
   vertex 0.2789329528808594 -3.0 0.11043736267089845
  endloop
 endfacet
 facet normal 0.0 1.0 0.0
  outer loop
   vertex 0.1277337875366211 -3.0 0.2714481201171875
   vertex 0.16074803161621093 -3.0 0.25329837036132813
   vertex 0.09270510101318359 -3.0 0.28531695556640624
  endloop
 endfacet
 facet normal 0.0 1.0 0.0
  outer loop
   vertex 0.2628919982910156 -3.0 0.14452610778808594
   vertex 0.21869058227539062 -3.0 0.2053641357421875
   vertex 0.24270509338378907 -3.0 0.1763355712890625
  endloop
 endfacet
 facet normal 0.0 1.0 0.0
  outer loop
   vertex 0.19122720336914062 -3.0 0.2311539764404297
   vertex 0.21869058227539062 -3.0 0.2053641357421875
   vertex 0.16074803161621093 -3.0 0.25329837036132813
  endloop
 endfacet
 facet normal 0.0 1.0 0.0
  outer loop
   vertex 0.09270510101318359 -3.0 0.28531695556640624
   vertex 0.21869058227539062 -3.0 0.2053641357421875
   vertex 0.2628919982910156 -3.0 0.14452610778808594
  endloop
 endfacet
 facet normal 0.0 1.0 0.0
  outer loop
   vertex 0.16074803161621093 -3.0 0.25329837036132813
   vertex 0.21869058227539062 -3.0 0.2053641357421875
   vertex 0.09270510101318359 -3.0 0.28531695556640624
  endloop
 endfacet
endsolid patch_1_1
solid patch_2_0
 facet normal 0.9980267882347107 -0.0 0.06279027462005615
  outer loop
   vertex 0.9 -6.0 -2.20000002915631e-16
   vertex 0.9 6.0 -2.20000002915631e-16
   vertex 0.8929032592773438 -6.0 0.11279991149902344
  endloop
 endfacet
 facet normal 0.9980267882347107 0.0 0.06279027462005615
  outer loop
   vertex 0.9 6.0 -2.20000002915631e-16
   vertex 0.8929032592773438 6.0 0.11279991149902344
   vertex 0.8929032592773438 -6.0 0.11279991149902344
  endloop
 endfacet
 facet normal 0.9822872281074524 0.0 0.18738150596618652
  outer loop
   vertex 0.8929032592773438 -6.0 0.11279991149902344
   vertex 0.871724853515625 6.0 0.2238208923339844
   vertex 0.871724853515625 -6.0 0.2238208923339844
  endloop
 endfacet
 facet normal 0.9822872281074524 0.0 0.18738150596618652
  outer loop
   vertex 0.8929032592773438 6.0 0.11279991149902344
   vertex 0.871724853515625 6.0 0.2238208923339844
   vertex 0.8929032592773438 -6.0 0.11279991149902344
  endloop
 endfacet
 facet normal 0.9510564804077148 0.0 0.3090171217918396
  outer loop
   vertex 0.871724853515625 -6.0 0.2238208923339844
   vertex 0.8367988281250001 6.0 0.33131210327148436
   vertex 0.8367988281250001 -6.0 0.33131210327148436
  endloop
 endfacet
 facet normal 0.9510564804077148 0.0 0.3090171217918396
  outer loop
   vertex 0.871724853515625 6.0 0.2238208923339844
   vertex 0.8367988281250001 6.0 0.33131210327148436
   vertex 0.871724853515625 -6.0 0.2238208923339844
  endloop
 endfacet
 facet normal 0.9048271179199219 0.0 0.4257791042327881
  outer loop
   vertex 0.8367988281250001 -6.0 0.33131210327148436
   vertex 0.788676025390625 6.0 0.43357830810546877
   vertex 0.788676025390625 -6.0 0.43357830810546877
  endloop
 endfacet
 facet normal 0.9048271179199219 0.0 0.4257791042327881
  outer loop
   vertex 0.8367988281250001 6.0 0.33131210327148436
   vertex 0.788676025390625 6.0 0.43357830810546877
   vertex 0.8367988281250001 -6.0 0.33131210327148436
  endloop
 endfacet
 facet normal 0.8443278670310974 0.0 0.5358269214630127
  outer loop
   vertex 0.788676025390625 -6.0 0.43357830810546877
   vertex 0.7281152954101563 6.0 0.5290067138671876
   vertex 0.7281152954101563 -6.0 0.5290067138671876
  endloop
 endfacet
 facet normal 0.8443278670310974 0.0 0.5358269214630127
  outer loop
   vertex 0.788676025390625 6.0 0.43357830810546877
   vertex 0.7281152954101563 6.0 0.5290067138671876
   vertex 0.788676025390625 -6.0 0.43357830810546877
  endloop
 endfacet
 facet normal 0.7705133557319641 0.0 0.6374238133430481
  outer loop
   vertex 0.7281152954101563 -6.0 0.5290067138671876
   vertex 0.65607177734375 6.0 0.6160924072265626
   vertex 0.65607177734375 -6.0 0.6160924072265626
  endloop
 endfacet
 facet normal 0.7705133557319641 0.0 0.6374238133430481
  outer loop
   vertex 0.7281152954101563 6.0 0.5290067138671876
   vertex 0.65607177734375 6.0 0.6160924072265626
   vertex 0.7281152954101563 -6.0 0.5290067138671876
  endloop
 endfacet
 facet normal 0.684546947479248 0.0 0.7289687991142273
  outer loop
   vertex 0.65607177734375 -6.0 0.6160924072265626
   vertex 0.5736815795898438 6.0 0.6934619140625
   vertex 0.5736815795898438 -6.0 0.6934619140625
  endloop
 endfacet
 facet normal 0.684546947479248 0.0 0.7289687991142273
  outer loop
   vertex 0.65607177734375 6.0 0.6160924072265626
   vertex 0.5736815795898438 6.0 0.6934619140625
   vertex 0.65607177734375 -6.0 0.6160924072265626
  endloop
 endfacet
 facet normal 0.5877853631973267 0.0 0.8090169429779053
  outer loop
   vertex 0.5736815795898438 -6.0 0.6934619140625
   vertex 0.4822441101074219 6.0 0.7598951416015625
   vertex 0.4822441101074219 -6.0 0.7598951416015625
  endloop
 endfacet
 facet normal 0.5877853631973267 0.0 0.8090169429779053
  outer loop
   vertex 0.5736815795898438 6.0 0.6934619140625
   vertex 0.4822441101074219 6.0 0.7598951416015625
   vertex 0.5736815795898438 -6.0 0.6934619140625
  endloop
 endfacet
 facet normal 0.48175370693206787 0.0 0.8763066530227661
  outer loop
   vertex 0.4822441101074219 -6.0 0.7598951416015625
   vertex 0.38320135498046876 6.0 0.8143443603515625
   vertex 0.38320135498046876 -6.0 0.8143443603515625
  endloop
 endfacet
 facet normal 0.48175370693206787 0.0 0.8763066530227661
  outer loop
   vertex 0.4822441101074219 6.0 0.7598951416015625
   vertex 0.38320135498046876 6.0 0.8143443603515625
   vertex 0.4822441101074219 -6.0 0.7598951416015625
  endloop
 endfacet
 facet normal 0.36812448501586914 0.0 0.9297764897346497
  outer loop
   vertex 0.38320135498046876 -6.0 0.8143443603515625
   vertex 0.2781152954101563 6.0 0.8559508666992187
   vertex 0.2781152954101563 -6.0 0.8559508666992187
  endloop
 endfacet
 facet normal 0.36812448501586914 0.0 0.9297764897346497
  outer loop
   vertex 0.38320135498046876 6.0 0.8143443603515625
   vertex 0.2781152954101563 6.0 0.8559508666992187
   vertex 0.38320135498046876 -6.0 0.8143443603515625
  endloop
 endfacet
 facet normal 0.2486899495124817 0.0 0.9685831665992737
  outer loop
   vertex 0.2781152954101563 -6.0 0.8559508666992187
   vertex 0.1686431884765625 6.0 0.8840585327148438
   vertex 0.1686431884765625 -6.0 0.8840585327148438
  endloop
 endfacet
 facet normal 0.2486899495124817 0.0 0.9685831665992737
  outer loop
   vertex 0.2781152954101563 6.0 0.8559508666992187
   vertex 0.1686431884765625 6.0 0.8840585327148438
   vertex 0.2781152954101563 -6.0 0.8559508666992187
  endloop
 endfacet
 facet normal 0.12533320486545563 0.0 0.9921147227287292
  outer loop
   vertex 0.1686431884765625 -6.0 0.8840585327148438
   vertex 0.05651146697998047 6.0 0.8982240600585938
   vertex 0.05651146697998047 -6.0 0.8982240600585938
  endloop
 endfacet
 facet normal 0.12533320486545563 0.0 0.9921147227287292
  outer loop
   vertex 0.1686431884765625 6.0 0.8840585327148438
   vertex 0.05651146697998047 6.0 0.8982240600585938
   vertex 0.1686431884765625 -6.0 0.8840585327148438
  endloop
 endfacet
 facet normal 0.0 0.0 1.0
  outer loop
   vertex 0.05651146697998047 -6.0 0.8982240600585938
   vertex -0.05651146697998047 6.0 0.8982240600585938
   vertex -0.05651146697998047 -6.0 0.8982240600585938
  endloop
 endfacet
 facet normal 0.0 0.0 1.0
  outer loop
   vertex 0.05651146697998047 6.0 0.8982240600585938
   vertex -0.05651146697998047 6.0 0.8982240600585938
   vertex 0.05651146697998047 -6.0 0.8982240600585938
  endloop
 endfacet
 facet normal -0.12533320486545563 0.0 0.9921147227287292
  outer loop
   vertex -0.05651146697998047 -6.0 0.8982240600585938
   vertex -0.1686431884765625 6.0 0.8840585327148438
   vertex -0.1686431884765625 -6.0 0.8840585327148438
  endloop
 endfacet
 facet normal -0.12533320486545563 0.0 0.9921147227287292
  outer loop
   vertex -0.05651146697998047 6.0 0.8982240600585938
   vertex -0.1686431884765625 6.0 0.8840585327148438
   vertex -0.05651146697998047 -6.0 0.8982240600585938
  endloop
 endfacet
 facet normal -0.2486899495124817 0.0 0.9685831665992737
  outer loop
   vertex -0.1686431884765625 -6.0 0.8840585327148438
   vertex -0.2781152954101563 6.0 0.8559508666992187
   vertex -0.2781152954101563 -6.0 0.8559508666992187
  endloop
 endfacet
 facet normal -0.2486899495124817 0.0 0.9685831665992737
  outer loop
   vertex -0.1686431884765625 6.0 0.8840585327148438
   vertex -0.2781152954101563 6.0 0.8559508666992187
   vertex -0.1686431884765625 -6.0 0.8840585327148438
  endloop
 endfacet
 facet normal -0.36812448501586914 0.0 0.9297764897346497
  outer loop
   vertex -0.2781152954101563 -6.0 0.8559508666992187
   vertex -0.38320135498046876 6.0 0.8143443603515625
   vertex -0.38320135498046876 -6.0 0.8143443603515625
  endloop
 endfacet
 facet normal -0.48175370693206787 0.0 0.8763066530227661
  outer loop
   vertex -0.38320135498046876 -6.0 0.8143443603515625
   vertex -0.38320135498046876 6.0 0.8143443603515625
   vertex -0.4822441101074219 -6.0 0.7598951416015625
  endloop
 endfacet
 facet normal -0.36812448501586914 0.0 0.9297764897346497
  outer loop
   vertex -0.2781152954101563 6.0 0.8559508666992187
   vertex -0.38320135498046876 6.0 0.8143443603515625
   vertex -0.2781152954101563 -6.0 0.8559508666992187
  endloop
 endfacet
 facet normal -0.48175370693206787 0.0 0.8763066530227661
  outer loop
   vertex -0.38320135498046876 6.0 0.8143443603515625
   vertex -0.4822441101074219 6.0 0.7598951416015625
   vertex -0.4822441101074219 -6.0 0.7598951416015625
  endloop
 endfacet
 facet normal -0.5877853631973267 0.0 0.8090169429779053
  outer loop
   vertex -0.4822441101074219 -6.0 0.7598951416015625
   vertex -0.5736815795898438 6.0 0.6934619140625
   vertex -0.5736815795898438 -6.0 0.6934619140625
  endloop
 endfacet
 facet normal -0.5877853631973267 0.0 0.8090169429779053
  outer loop
   vertex -0.4822441101074219 6.0 0.7598951416015625
   vertex -0.5736815795898438 6.0 0.6934619140625
   vertex -0.4822441101074219 -6.0 0.7598951416015625
  endloop
 endfacet
 facet normal -0.684546947479248 0.0 0.7289687991142273
  outer loop
   vertex -0.5736815795898438 -6.0 0.6934619140625
   vertex -0.65607177734375 6.0 0.6160924072265626
   vertex -0.65607177734375 -6.0 0.6160924072265626
  endloop
 endfacet
 facet normal -0.684546947479248 0.0 0.7289687991142273
  outer loop
   vertex -0.5736815795898438 6.0 0.6934619140625
   vertex -0.65607177734375 6.0 0.6160924072265626
   vertex -0.5736815795898438 -6.0 0.6934619140625
  endloop
 endfacet
 facet normal -0.7705133557319641 0.0 0.6374238133430481
  outer loop
   vertex -0.65607177734375 -6.0 0.6160924072265626
   vertex -0.7281152954101563 6.0 0.5290067138671876
   vertex -0.7281152954101563 -6.0 0.5290067138671876
  endloop
 endfacet
 facet normal -0.7705133557319641 0.0 0.6374238133430481
  outer loop
   vertex -0.65607177734375 6.0 0.6160924072265626
   vertex -0.7281152954101563 6.0 0.5290067138671876
   vertex -0.65607177734375 -6.0 0.6160924072265626
  endloop
 endfacet
 facet normal -0.8443278670310974 0.0 0.5358269214630127
  outer loop
   vertex -0.7281152954101563 -6.0 0.5290067138671876
   vertex -0.788676025390625 6.0 0.43357830810546877
   vertex -0.788676025390625 -6.0 0.43357830810546877
  endloop
 endfacet
 facet normal -0.8443278670310974 0.0 0.5358269214630127
  outer loop
   vertex -0.7281152954101563 6.0 0.5290067138671876
   vertex -0.788676025390625 6.0 0.43357830810546877
   vertex -0.7281152954101563 -6.0 0.5290067138671876
  endloop
 endfacet
 facet normal -0.9048271179199219 0.0 0.4257791042327881
  outer loop
   vertex -0.788676025390625 -6.0 0.43357830810546877
   vertex -0.8367988281250001 6.0 0.33131210327148436
   vertex -0.8367988281250001 -6.0 0.33131210327148436
  endloop
 endfacet
 facet normal -0.9048271179199219 0.0 0.4257791042327881
  outer loop
   vertex -0.788676025390625 6.0 0.43357830810546877
   vertex -0.8367988281250001 6.0 0.33131210327148436
   vertex -0.788676025390625 -6.0 0.43357830810546877
  endloop
 endfacet
 facet normal -0.9510564804077148 0.0 0.3090171217918396
  outer loop
   vertex -0.8367988281250001 -6.0 0.33131210327148436
   vertex -0.871724853515625 6.0 0.2238208923339844
   vertex -0.871724853515625 -6.0 0.2238208923339844
  endloop
 endfacet
 facet normal -0.9822872281074524 0.0 0.18738150596618652
  outer loop
   vertex -0.871724853515625 -6.0 0.2238208923339844
   vertex -0.871724853515625 6.0 0.2238208923339844
   vertex -0.8929032592773438 -6.0 0.11279991149902344
  endloop
 endfacet
 facet normal -0.9510564804077148 0.0 0.3090171217918396
  outer loop
   vertex -0.8367988281250001 6.0 0.33131210327148436
   vertex -0.871724853515625 6.0 0.2238208923339844
   vertex -0.8367988281250001 -6.0 0.33131210327148436
  endloop
 endfacet
 facet normal -0.9822872281074524 0.0 0.18738150596618652
  outer loop
   vertex -0.871724853515625 6.0 0.2238208923339844
   vertex -0.8929032592773438 6.0 0.11279991149902344
   vertex -0.8929032592773438 -6.0 0.11279991149902344
  endloop
 endfacet
 facet normal -0.9980267882347107 0.0 0.06279027462005615
  outer loop
   vertex -0.8929032592773438 6.0 0.11279991149902344
   vertex -0.9 6.0 -1.0888226084637687e-15
   vertex -0.8929032592773438 -6.0 0.11279991149902344
  endloop
 endfacet
 facet normal -0.9980267882347107 0.0 0.06279027462005615
  outer loop
   vertex -0.8929032592773438 -6.0 0.11279991149902344
   vertex -0.9 6.0 -1.0888226084637687e-15
   vertex -0.9 -6.0 -1.0888226084637687e-15
  endloop
 endfacet
 facet normal -0.9980267882347107 -0.0 -0.06279027462005615
  outer loop
   vertex -0.9 6.0 -1.0888226084637687e-15
   vertex -0.8929032592773438 6.0 -0.11279991149902344
   vertex -0.9 -6.0 -1.0888226084637687e-15
  endloop
 endfacet
 facet normal -0.9980267882347107 0.0 -0.06279027462005615
  outer loop
   vertex -0.9 -6.0 -1.0888226084637687e-15
   vertex -0.8929032592773438 6.0 -0.11279991149902344
   vertex -0.8929032592773438 -6.0 -0.11279991149902344
  endloop
 endfacet
 facet normal -0.9822872281074524 -0.0 -0.18738150596618652
  outer loop
   vertex -0.8929032592773438 6.0 -0.11279991149902344
   vertex -0.871724853515625 6.0 -0.2238208923339844
   vertex -0.8929032592773438 -6.0 -0.11279991149902344
  endloop
 endfacet
 facet normal -0.9822872281074524 0.0 -0.18738150596618652
  outer loop
   vertex -0.8929032592773438 -6.0 -0.11279991149902344
   vertex -0.871724853515625 6.0 -0.2238208923339844
   vertex -0.871724853515625 -6.0 -0.2238208923339844
  endloop
 endfacet
 facet normal -0.9510564804077148 0.0 -0.3090171217918396
  outer loop
   vertex -0.871724853515625 -6.0 -0.2238208923339844
   vertex -0.871724853515625 6.0 -0.2238208923339844
   vertex -0.8367988281250001 -6.0 -0.33131210327148436
  endloop
 endfacet
 facet normal -0.9510564804077148 0.0 -0.3090171217918396
  outer loop
   vertex -0.871724853515625 6.0 -0.2238208923339844
   vertex -0.8367988281250001 6.0 -0.33131210327148436
   vertex -0.8367988281250001 -6.0 -0.33131210327148436
  endloop
 endfacet
 facet normal -0.9048271179199219 -0.0 -0.4257791042327881
  outer loop
   vertex -0.8367988281250001 6.0 -0.33131210327148436
   vertex -0.788676025390625 6.0 -0.43357830810546877
   vertex -0.8367988281250001 -6.0 -0.33131210327148436
  endloop
 endfacet
 facet normal -0.9048271179199219 0.0 -0.4257791042327881
  outer loop
   vertex -0.8367988281250001 -6.0 -0.33131210327148436
   vertex -0.788676025390625 6.0 -0.43357830810546877
   vertex -0.788676025390625 -6.0 -0.43357830810546877
  endloop
 endfacet
 facet normal -0.8443278670310974 0.0 -0.5358269214630127
  outer loop
   vertex -0.788676025390625 -6.0 -0.43357830810546877
   vertex -0.788676025390625 6.0 -0.43357830810546877
   vertex -0.7281152954101563 -6.0 -0.5290067138671876
  endloop
 endfacet
 facet normal -0.8443278670310974 0.0 -0.5358269214630127
  outer loop
   vertex -0.788676025390625 6.0 -0.43357830810546877
   vertex -0.7281152954101563 6.0 -0.5290067138671876
   vertex -0.7281152954101563 -6.0 -0.5290067138671876
  endloop
 endfacet
 facet normal -0.7705133557319641 -0.0 -0.6374238133430481
  outer loop
   vertex -0.7281152954101563 6.0 -0.5290067138671876
   vertex -0.65607177734375 6.0 -0.6160924072265626
   vertex -0.7281152954101563 -6.0 -0.5290067138671876
  endloop
 endfacet
 facet normal -0.7705133557319641 0.0 -0.6374238133430481
  outer loop
   vertex -0.7281152954101563 -6.0 -0.5290067138671876
   vertex -0.65607177734375 6.0 -0.6160924072265626
   vertex -0.65607177734375 -6.0 -0.6160924072265626
  endloop
 endfacet
 facet normal -0.684546947479248 0.0 -0.7289687991142273
  outer loop
   vertex -0.65607177734375 -6.0 -0.6160924072265626
   vertex -0.5736815795898438 6.0 -0.6934619140625
   vertex -0.5736815795898438 -6.0 -0.6934619140625
  endloop
 endfacet
 facet normal -0.684546947479248 -0.0 -0.7289687991142273
  outer loop
   vertex -0.65607177734375 6.0 -0.6160924072265626
   vertex -0.5736815795898438 6.0 -0.6934619140625
   vertex -0.65607177734375 -6.0 -0.6160924072265626
  endloop
 endfacet
 facet normal -0.5877853631973267 0.0 -0.8090169429779053
  outer loop
   vertex -0.5736815795898438 -6.0 -0.6934619140625
   vertex -0.4822441101074219 6.0 -0.7598951416015625
   vertex -0.4822441101074219 -6.0 -0.7598951416015625
  endloop
 endfacet
 facet normal -0.5877853631973267 -0.0 -0.8090169429779053
  outer loop
   vertex -0.5736815795898438 6.0 -0.6934619140625
   vertex -0.4822441101074219 6.0 -0.7598951416015625
   vertex -0.5736815795898438 -6.0 -0.6934619140625
  endloop
 endfacet
 facet normal -0.48175370693206787 0.0 -0.8763066530227661
  outer loop
   vertex -0.4822441101074219 -6.0 -0.7598951416015625
   vertex -0.38320135498046876 6.0 -0.8143443603515625
   vertex -0.38320135498046876 -6.0 -0.8143443603515625
  endloop
 endfacet
 facet normal -0.36812448501586914 0.0 -0.9297764897346497
  outer loop
   vertex -0.38320135498046876 -6.0 -0.8143443603515625
   vertex -0.38320135498046876 6.0 -0.8143443603515625
   vertex -0.2781152954101563 -6.0 -0.8559508666992187
  endloop
 endfacet
 facet normal -0.48175370693206787 -0.0 -0.8763066530227661
  outer loop
   vertex -0.4822441101074219 6.0 -0.7598951416015625
   vertex -0.38320135498046876 6.0 -0.8143443603515625
   vertex -0.4822441101074219 -6.0 -0.7598951416015625
  endloop
 endfacet
 facet normal -0.36812448501586914 0.0 -0.9297764897346497
  outer loop
   vertex -0.38320135498046876 6.0 -0.8143443603515625
   vertex -0.2781152954101563 6.0 -0.8559508666992187
   vertex -0.2781152954101563 -6.0 -0.8559508666992187
  endloop
 endfacet
 facet normal -0.2486899495124817 0.0 -0.9685831665992737
  outer loop
   vertex -0.2781152954101563 -6.0 -0.8559508666992187
   vertex -0.1686431884765625 6.0 -0.8840585327148438
   vertex -0.1686431884765625 -6.0 -0.8840585327148438
  endloop
 endfacet
 facet normal -0.2486899495124817 -0.0 -0.9685831665992737
  outer loop
   vertex -0.2781152954101563 6.0 -0.8559508666992187
   vertex -0.1686431884765625 6.0 -0.8840585327148438
   vertex -0.2781152954101563 -6.0 -0.8559508666992187
  endloop
 endfacet
 facet normal -0.12533320486545563 0.0 -0.9921147227287292
  outer loop
   vertex -0.1686431884765625 -6.0 -0.8840585327148438
   vertex -0.05651146697998047 6.0 -0.8982240600585938
   vertex -0.05651146697998047 -6.0 -0.8982240600585938
  endloop
 endfacet
 facet normal -0.12533320486545563 -0.0 -0.9921147227287292
  outer loop
   vertex -0.1686431884765625 6.0 -0.8840585327148438
   vertex -0.05651146697998047 6.0 -0.8982240600585938
   vertex -0.1686431884765625 -6.0 -0.8840585327148438
  endloop
 endfacet
 facet normal 0.0 0.0 -1.0
  outer loop
   vertex -0.05651146697998047 -6.0 -0.8982240600585938
   vertex 0.05651146697998047 6.0 -0.8982240600585938
   vertex 0.05651146697998047 -6.0 -0.8982240600585938
  endloop
 endfacet
 facet normal 0.0 0.0 -1.0
  outer loop
   vertex -0.05651146697998047 6.0 -0.8982240600585938
   vertex 0.05651146697998047 6.0 -0.8982240600585938
   vertex -0.05651146697998047 -6.0 -0.8982240600585938
  endloop
 endfacet
 facet normal 0.12533320486545563 0.0 -0.9921147227287292
  outer loop
   vertex 0.05651146697998047 -6.0 -0.8982240600585938
   vertex 0.1686431884765625 6.0 -0.8840585327148438
   vertex 0.1686431884765625 -6.0 -0.8840585327148438
  endloop
 endfacet
 facet normal 0.2486899495124817 0.0 -0.9685831665992737
  outer loop
   vertex 0.1686431884765625 -6.0 -0.8840585327148438
   vertex 0.1686431884765625 6.0 -0.8840585327148438
   vertex 0.2781152954101563 -6.0 -0.8559508666992187
  endloop
 endfacet
 facet normal 0.12533320486545563 0.0 -0.9921147227287292
  outer loop
   vertex 0.05651146697998047 6.0 -0.8982240600585938
   vertex 0.1686431884765625 6.0 -0.8840585327148438
   vertex 0.05651146697998047 -6.0 -0.8982240600585938
  endloop
 endfacet
 facet normal 0.2486899495124817 0.0 -0.9685831665992737
  outer loop
   vertex 0.1686431884765625 6.0 -0.8840585327148438
   vertex 0.2781152954101563 6.0 -0.8559508666992187
   vertex 0.2781152954101563 -6.0 -0.8559508666992187
  endloop
 endfacet
 facet normal 0.36812448501586914 0.0 -0.9297764897346497
  outer loop
   vertex 0.2781152954101563 -6.0 -0.8559508666992187
   vertex 0.38320135498046876 6.0 -0.8143443603515625
   vertex 0.38320135498046876 -6.0 -0.8143443603515625
  endloop
 endfacet
 facet normal 0.48175370693206787 0.0 -0.8763066530227661
  outer loop
   vertex 0.38320135498046876 -6.0 -0.8143443603515625
   vertex 0.38320135498046876 6.0 -0.8143443603515625
   vertex 0.4822441101074219 -6.0 -0.7598951416015625
  endloop
 endfacet
 facet normal 0.36812448501586914 0.0 -0.9297764897346497
  outer loop
   vertex 0.2781152954101563 6.0 -0.8559508666992187
   vertex 0.38320135498046876 6.0 -0.8143443603515625
   vertex 0.2781152954101563 -6.0 -0.8559508666992187
  endloop
 endfacet
 facet normal 0.5877853631973267 0.0 -0.8090169429779053
  outer loop
   vertex 0.4822441101074219 -6.0 -0.7598951416015625
   vertex 0.4822441101074219 6.0 -0.7598951416015625
   vertex 0.5736815795898438 -6.0 -0.6934619140625
  endloop
 endfacet
 facet normal 0.48175370693206787 0.0 -0.8763066530227661
  outer loop
   vertex 0.38320135498046876 6.0 -0.8143443603515625
   vertex 0.4822441101074219 6.0 -0.7598951416015625
   vertex 0.4822441101074219 -6.0 -0.7598951416015625
  endloop
 endfacet
 facet normal 0.5877853631973267 0.0 -0.8090169429779053
  outer loop
   vertex 0.4822441101074219 6.0 -0.7598951416015625
   vertex 0.5736815795898438 6.0 -0.6934619140625
   vertex 0.5736815795898438 -6.0 -0.6934619140625
  endloop
 endfacet
 facet normal 0.684546947479248 0.0 -0.7289687991142273
  outer loop
   vertex 0.5736815795898438 -6.0 -0.6934619140625
   vertex 0.65607177734375 6.0 -0.6160924072265626
   vertex 0.65607177734375 -6.0 -0.6160924072265626
  endloop
 endfacet
 facet normal 0.684546947479248 0.0 -0.7289687991142273
  outer loop
   vertex 0.5736815795898438 6.0 -0.6934619140625
   vertex 0.65607177734375 6.0 -0.6160924072265626
   vertex 0.5736815795898438 -6.0 -0.6934619140625
  endloop
 endfacet
 facet normal 0.7705133557319641 0.0 -0.6374238133430481
  outer loop
   vertex 0.65607177734375 -6.0 -0.6160924072265626
   vertex 0.7281152954101563 6.0 -0.5290067138671876
   vertex 0.7281152954101563 -6.0 -0.5290067138671876
  endloop
 endfacet
 facet normal 0.7705133557319641 0.0 -0.6374238133430481
  outer loop
   vertex 0.65607177734375 6.0 -0.6160924072265626
   vertex 0.7281152954101563 6.0 -0.5290067138671876
   vertex 0.65607177734375 -6.0 -0.6160924072265626
  endloop
 endfacet
 facet normal 0.8443278670310974 0.0 -0.5358269214630127
  outer loop
   vertex 0.7281152954101563 -6.0 -0.5290067138671876
   vertex 0.788676025390625 6.0 -0.43357830810546877
   vertex 0.788676025390625 -6.0 -0.43357830810546877
  endloop
 endfacet
 facet normal 0.8443278670310974 0.0 -0.5358269214630127
  outer loop
   vertex 0.7281152954101563 6.0 -0.5290067138671876
   vertex 0.788676025390625 6.0 -0.43357830810546877
   vertex 0.7281152954101563 -6.0 -0.5290067138671876
  endloop
 endfacet
 facet normal 0.9048271179199219 0.0 -0.4257791042327881
  outer loop
   vertex 0.788676025390625 -6.0 -0.43357830810546877
   vertex 0.8367988281250001 6.0 -0.33131210327148436
   vertex 0.8367988281250001 -6.0 -0.33131210327148436
  endloop
 endfacet
 facet normal 0.9048271179199219 0.0 -0.4257791042327881
  outer loop
   vertex 0.788676025390625 6.0 -0.43357830810546877
   vertex 0.8367988281250001 6.0 -0.33131210327148436
   vertex 0.788676025390625 -6.0 -0.43357830810546877
  endloop
 endfacet
 facet normal 0.9510564804077148 0.0 -0.3090171217918396
  outer loop
   vertex 0.8367988281250001 -6.0 -0.33131210327148436
   vertex 0.871724853515625 6.0 -0.2238208923339844
   vertex 0.871724853515625 -6.0 -0.2238208923339844
  endloop
 endfacet
 facet normal 0.9510564804077148 0.0 -0.3090171217918396
  outer loop
   vertex 0.8367988281250001 6.0 -0.33131210327148436
   vertex 0.871724853515625 6.0 -0.2238208923339844
   vertex 0.8367988281250001 -6.0 -0.33131210327148436
  endloop
 endfacet
 facet normal 0.9822872281074524 0.0 -0.18738150596618652
  outer loop
   vertex 0.871724853515625 6.0 -0.2238208923339844
   vertex 0.8929032592773438 6.0 -0.11279991149902344
   vertex 0.871724853515625 -6.0 -0.2238208923339844
  endloop
 endfacet
 facet normal 0.9822872281074524 0.0 -0.18738150596618652
  outer loop
   vertex 0.871724853515625 -6.0 -0.2238208923339844
   vertex 0.8929032592773438 6.0 -0.11279991149902344
   vertex 0.8929032592773438 -6.0 -0.11279991149902344
  endloop
 endfacet
 facet normal 0.9980267882347107 0.0 -0.06279027462005615
  outer loop
   vertex 0.8929032592773438 6.0 -0.11279991149902344
   vertex 0.9 6.0 -2.20000002915631e-16
   vertex 0.8929032592773438 -6.0 -0.11279991149902344
  endloop
 endfacet
 facet normal 0.9980267882347107 0.0 -0.06279027462005615
  outer loop
   vertex 0.8929032592773438 -6.0 -0.11279991149902344
   vertex 0.9 6.0 -2.20000002915631e-16
   vertex 0.9 -6.0 -2.20000002915631e-16
  endloop
 endfacet
 facet normal 0.0 1.0 0.0
  outer loop
   vertex -0.5736815795898438 6.0 -0.6934619140625
   vertex -0.2781152954101563 6.0 -0.8559508666992187
   vertex -0.4822441101074219 6.0 -0.7598951416015625
  endloop
 endfacet
 facet normal 0.0 1.0 0.0
  outer loop
   vertex -0.4822441101074219 6.0 -0.7598951416015625
   vertex -0.2781152954101563 6.0 -0.8559508666992187
   vertex -0.38320135498046876 6.0 -0.8143443603515625
  endloop
 endfacet
 facet normal -0.0 1.0 -0.0
  outer loop
   vertex -0.8367988281250001 6.0 -0.33131210327148436
   vertex -0.871724853515625 6.0 -0.2238208923339844
   vertex -0.788676025390625 6.0 -0.43357830810546877
  endloop
 endfacet
 facet normal -0.0 1.0 -0.0
  outer loop
   vertex -0.788676025390625 6.0 -0.43357830810546877
   vertex -0.871724853515625 6.0 -0.2238208923339844
   vertex -0.7281152954101563 6.0 -0.5290067138671876
  endloop
 endfacet
 facet normal -0.0 1.0 -0.0
  outer loop
   vertex -0.7281152954101563 6.0 -0.5290067138671876
   vertex -0.871724853515625 6.0 -0.2238208923339844
   vertex -0.65607177734375 6.0 -0.6160924072265626
  endloop
 endfacet
 facet normal -0.0 1.0 -0.0
  outer loop
   vertex -0.65607177734375 6.0 -0.6160924072265626
   vertex -0.871724853515625 6.0 -0.2238208923339844
   vertex -0.5736815795898438 6.0 -0.6934619140625
  endloop
 endfacet
 facet normal -0.0 1.0 -0.0
  outer loop
   vertex -0.8929032592773438 6.0 -0.11279991149902344
   vertex -0.9 6.0 -1.0888226084637687e-15
   vertex -0.871724853515625 6.0 -0.2238208923339844
  endloop
 endfacet
 facet normal 0.0 1.0 0.0
  outer loop
   vertex -0.2781152954101563 6.0 -0.8559508666992187
   vertex 0.05651146697998047 6.0 -0.8982240600585938
   vertex -0.1686431884765625 6.0 -0.8840585327148438
  endloop
 endfacet
 facet normal 0.0 1.0 0.0
  outer loop
   vertex -0.1686431884765625 6.0 -0.8840585327148438
   vertex 0.05651146697998047 6.0 -0.8982240600585938
   vertex -0.05651146697998047 6.0 -0.8982240600585938
  endloop
 endfacet
 facet normal 0.0 1.0 0.0
  outer loop
   vertex -0.5736815795898438 6.0 -0.6934619140625
   vertex 0.05651146697998047 6.0 -0.8982240600585938
   vertex -0.2781152954101563 6.0 -0.8559508666992187
  endloop
 endfacet
 facet normal -0.0 1.0 0.0
  outer loop
   vertex -0.8929032592773438 6.0 0.11279991149902344
   vertex -0.871724853515625 6.0 0.2238208923339844
   vertex -0.9 6.0 -1.0888226084637687e-15
  endloop
 endfacet
 facet normal -0.0 1.0 0.0
  outer loop
   vertex -0.9 6.0 -1.0888226084637687e-15
   vertex -0.871724853515625 6.0 0.2238208923339844
   vertex -0.871724853515625 6.0 -0.2238208923339844
  endloop
 endfacet
 facet normal 0.0 1.0 0.0
  outer loop
   vertex 0.05651146697998047 6.0 -0.8982240600585938
   vertex 0.2781152954101563 6.0 -0.8559508666992187
   vertex 0.1686431884765625 6.0 -0.8840585327148438
  endloop
 endfacet
 facet normal -0.0 1.0 0.0
  outer loop
   vertex -0.8367988281250001 6.0 0.33131210327148436
   vertex -0.788676025390625 6.0 0.43357830810546877
   vertex -0.871724853515625 6.0 0.2238208923339844
  endloop
 endfacet
 facet normal 0.0 1.0 0.0
  outer loop
   vertex 0.2781152954101563 6.0 -0.8559508666992187
   vertex 0.65607177734375 6.0 -0.6160924072265626
   vertex 0.38320135498046876 6.0 -0.8143443603515625
  endloop
 endfacet
 facet normal 0.0 1.0 0.0
  outer loop
   vertex 0.38320135498046876 6.0 -0.8143443603515625
   vertex 0.65607177734375 6.0 -0.6160924072265626
   vertex 0.4822441101074219 6.0 -0.7598951416015625
  endloop
 endfacet
 facet normal 0.0 1.0 0.0
  outer loop
   vertex 0.4822441101074219 6.0 -0.7598951416015625
   vertex 0.65607177734375 6.0 -0.6160924072265626
   vertex 0.5736815795898438 6.0 -0.6934619140625
  endloop
 endfacet
 facet normal 0.0 1.0 0.0
  outer loop
   vertex -0.871724853515625 6.0 -0.2238208923339844
   vertex 0.65607177734375 6.0 -0.6160924072265626
   vertex -0.5736815795898438 6.0 -0.6934619140625
  endloop
 endfacet
 facet normal -0.0 1.0 0.0
  outer loop
   vertex -0.5736815795898438 6.0 -0.6934619140625
   vertex 0.65607177734375 6.0 -0.6160924072265626
   vertex 0.05651146697998047 6.0 -0.8982240600585938
  endloop
 endfacet
 facet normal 0.0 1.0 0.0
  outer loop
   vertex 0.05651146697998047 6.0 -0.8982240600585938
   vertex 0.65607177734375 6.0 -0.6160924072265626
   vertex 0.2781152954101563 6.0 -0.8559508666992187
  endloop
 endfacet
 facet normal -0.0 1.0 0.0
  outer loop
   vertex -0.4822441101074219 6.0 0.7598951416015625
   vertex -0.38320135498046876 6.0 0.8143443603515625
   vertex -0.5736815795898438 6.0 0.6934619140625
  endloop
 endfacet
 facet normal -0.0 1.0 0.0
  outer loop
   vertex -0.5736815795898438 6.0 0.6934619140625
   vertex -0.38320135498046876 6.0 0.8143443603515625
   vertex -0.65607177734375 6.0 0.6160924072265626
  endloop
 endfacet
 facet normal 0.0 1.0 0.0
  outer loop
   vertex 0.65607177734375 6.0 -0.6160924072265626
   vertex 0.8367988281250001 6.0 -0.33131210327148436
   vertex 0.7281152954101563 6.0 -0.5290067138671876
  endloop
 endfacet
 facet normal 0.0 1.0 0.0
  outer loop
   vertex 0.7281152954101563 6.0 -0.5290067138671876
   vertex 0.8367988281250001 6.0 -0.33131210327148436
   vertex 0.788676025390625 6.0 -0.43357830810546877
  endloop
 endfacet
 facet normal 0.0 1.0 0.0
  outer loop
   vertex 0.65607177734375 6.0 -0.6160924072265626
   vertex 0.871724853515625 6.0 -0.2238208923339844
   vertex 0.8367988281250001 6.0 -0.33131210327148436
  endloop
 endfacet
 facet normal -0.0 1.0 0.0
  outer loop
   vertex -0.871724853515625 6.0 -0.2238208923339844
   vertex 0.871724853515625 6.0 -0.2238208923339844
   vertex 0.65607177734375 6.0 -0.6160924072265626
  endloop
 endfacet
 facet normal 0.0 1.0 0.0
  outer loop
   vertex -0.871724853515625 6.0 -0.2238208923339844
   vertex 0.8929032592773438 6.0 -0.11279991149902344
   vertex 0.871724853515625 6.0 -0.2238208923339844
  endloop
 endfacet
 facet normal 0.0 1.0 0.0
  outer loop
   vertex -0.7281152954101563 6.0 0.5290067138671876
   vertex 0.8929032592773438 6.0 -0.11279991149902344
   vertex -0.788676025390625 6.0 0.43357830810546877
  endloop
 endfacet
 facet normal 0.0 1.0 0.0
  outer loop
   vertex -0.788676025390625 6.0 0.43357830810546877
   vertex 0.8929032592773438 6.0 -0.11279991149902344
   vertex -0.871724853515625 6.0 0.2238208923339844
  endloop
 endfacet
 facet normal 0.0 1.0 0.0
  outer loop
   vertex -0.871724853515625 6.0 0.2238208923339844
   vertex 0.8929032592773438 6.0 -0.11279991149902344
   vertex -0.871724853515625 6.0 -0.2238208923339844
  endloop
 endfacet
 facet normal -0.0 1.0 0.0
  outer loop
   vertex -0.05651146697998047 6.0 0.8982240600585938
   vertex 0.05651146697998047 6.0 0.8982240600585938
   vertex -0.1686431884765625 6.0 0.8840585327148438
  endloop
 endfacet
 facet normal 0.0 1.0 0.0
  outer loop
   vertex 0.05651146697998047 6.0 0.8982240600585938
   vertex 0.1686431884765625 6.0 0.8840585327148438
   vertex -0.1686431884765625 6.0 0.8840585327148438
  endloop
 endfacet
 facet normal -0.0 1.0 0.0
  outer loop
   vertex -0.1686431884765625 6.0 0.8840585327148438
   vertex 0.1686431884765625 6.0 0.8840585327148438
   vertex -0.2781152954101563 6.0 0.8559508666992187
  endloop
 endfacet
 facet normal -0.0 1.0 0.0
  outer loop
   vertex -0.2781152954101563 6.0 0.8559508666992187
   vertex 0.1686431884765625 6.0 0.8840585327148438
   vertex -0.38320135498046876 6.0 0.8143443603515625
  endloop
 endfacet
 facet normal 0.0 1.0 0.0
  outer loop
   vertex 0.9 6.0 -2.20000002915631e-16
   vertex 0.871724853515625 6.0 0.2238208923339844
   vertex 0.8929032592773438 6.0 0.11279991149902344
  endloop
 endfacet
 facet normal 0.0 1.0 -0.0
  outer loop
   vertex 0.8929032592773438 6.0 -0.11279991149902344
   vertex 0.871724853515625 6.0 0.2238208923339844
   vertex 0.9 6.0 -2.20000002915631e-16
  endloop
 endfacet
 facet normal -0.0 1.0 0.0
  outer loop
   vertex -0.38320135498046876 6.0 0.8143443603515625
   vertex 0.2781152954101563 6.0 0.8559508666992187
   vertex -0.65607177734375 6.0 0.6160924072265626
  endloop
 endfacet
 facet normal 0.0 1.0 0.0
  outer loop
   vertex 0.1686431884765625 6.0 0.8840585327148438
   vertex 0.2781152954101563 6.0 0.8559508666992187
   vertex -0.38320135498046876 6.0 0.8143443603515625
  endloop
 endfacet
 facet normal 0.0 1.0 0.0
  outer loop
   vertex 0.871724853515625 6.0 0.2238208923339844
   vertex 0.788676025390625 6.0 0.43357830810546877
   vertex 0.8367988281250001 6.0 0.33131210327148436
  endloop
 endfacet
 facet normal 0.0 1.0 0.0
  outer loop
   vertex -0.7281152954101563 6.0 0.5290067138671876
   vertex 0.788676025390625 6.0 0.43357830810546877
   vertex 0.8929032592773438 6.0 -0.11279991149902344
  endloop
 endfacet
 facet normal 0.0 1.0 0.0
  outer loop
   vertex 0.8929032592773438 6.0 -0.11279991149902344
   vertex 0.788676025390625 6.0 0.43357830810546877
   vertex 0.871724853515625 6.0 0.2238208923339844
  endloop
 endfacet
 facet normal 0.0 1.0 0.0
  outer loop
   vertex 0.4822441101074219 6.0 0.7598951416015625
   vertex 0.5736815795898438 6.0 0.6934619140625
   vertex 0.38320135498046876 6.0 0.8143443603515625
  endloop
 endfacet
 facet normal 0.0 1.0 0.0
  outer loop
   vertex 0.38320135498046876 6.0 0.8143443603515625
   vertex 0.5736815795898438 6.0 0.6934619140625
   vertex 0.2781152954101563 6.0 0.8559508666992187
  endloop
 endfacet
 facet normal 0.0 1.0 0.0
  outer loop
   vertex 0.788676025390625 6.0 0.43357830810546877
   vertex 0.65607177734375 6.0 0.6160924072265626
   vertex 0.7281152954101563 6.0 0.5290067138671876
  endloop
 endfacet
 facet normal -0.0 1.0 0.0
  outer loop
   vertex -0.7281152954101563 6.0 0.5290067138671876
   vertex 0.65607177734375 6.0 0.6160924072265626
   vertex 0.788676025390625 6.0 0.43357830810546877
  endloop
 endfacet
 facet normal -0.0 1.0 0.0
  outer loop
   vertex -0.65607177734375 6.0 0.6160924072265626
   vertex 0.65607177734375 6.0 0.6160924072265626
   vertex -0.7281152954101563 6.0 0.5290067138671876
  endloop
 endfacet
 facet normal 0.0 1.0 0.0
  outer loop
   vertex 0.2781152954101563 6.0 0.8559508666992187
   vertex 0.65607177734375 6.0 0.6160924072265626
   vertex -0.65607177734375 6.0 0.6160924072265626
  endloop
 endfacet
 facet normal 0.0 1.0 0.0
  outer loop
   vertex 0.5736815795898438 6.0 0.6934619140625
   vertex 0.65607177734375 6.0 0.6160924072265626
   vertex 0.2781152954101563 6.0 0.8559508666992187
  endloop
 endfacet
 facet normal 0.0 -1.0 0.0
  outer loop
   vertex -0.2781152954101563 -6.0 -0.8559508666992187
   vertex -0.5736815795898438 -6.0 -0.6934619140625
   vertex -0.4822441101074219 -6.0 -0.7598951416015625
  endloop
 endfacet
 facet normal 0.0 -1.0 0.0
  outer loop
   vertex -0.2781152954101563 -6.0 -0.8559508666992187
   vertex -0.4822441101074219 -6.0 -0.7598951416015625
   vertex -0.38320135498046876 -6.0 -0.8143443603515625
  endloop
 endfacet
 facet normal 0.0 -1.0 0.0
  outer loop
   vertex -0.871724853515625 -6.0 -0.2238208923339844
   vertex -0.8367988281250001 -6.0 -0.33131210327148436
   vertex -0.788676025390625 -6.0 -0.43357830810546877
  endloop
 endfacet
 facet normal 0.0 -1.0 0.0
  outer loop
   vertex -0.871724853515625 -6.0 -0.2238208923339844
   vertex -0.788676025390625 -6.0 -0.43357830810546877
   vertex -0.7281152954101563 -6.0 -0.5290067138671876
  endloop
 endfacet
 facet normal 0.0 -1.0 0.0
  outer loop
   vertex -0.871724853515625 -6.0 -0.2238208923339844
   vertex -0.7281152954101563 -6.0 -0.5290067138671876
   vertex -0.65607177734375 -6.0 -0.6160924072265626
  endloop
 endfacet
 facet normal 0.0 -1.0 0.0
  outer loop
   vertex -0.871724853515625 -6.0 -0.2238208923339844
   vertex -0.65607177734375 -6.0 -0.6160924072265626
   vertex -0.5736815795898438 -6.0 -0.6934619140625
  endloop
 endfacet
 facet normal 0.0 -1.0 0.0
  outer loop
   vertex -0.9 -6.0 -1.0888226084637687e-15
   vertex -0.8929032592773438 -6.0 -0.11279991149902344
   vertex -0.871724853515625 -6.0 -0.2238208923339844
  endloop
 endfacet
 facet normal 0.0 -1.0 0.0
  outer loop
   vertex 0.05651146697998047 -6.0 -0.8982240600585938
   vertex -0.2781152954101563 -6.0 -0.8559508666992187
   vertex -0.1686431884765625 -6.0 -0.8840585327148438
  endloop
 endfacet
 facet normal 0.0 -1.0 0.0
  outer loop
   vertex 0.05651146697998047 -6.0 -0.8982240600585938
   vertex -0.1686431884765625 -6.0 -0.8840585327148438
   vertex -0.05651146697998047 -6.0 -0.8982240600585938
  endloop
 endfacet
 facet normal 0.0 -1.0 0.0
  outer loop
   vertex 0.05651146697998047 -6.0 -0.8982240600585938
   vertex -0.5736815795898438 -6.0 -0.6934619140625
   vertex -0.2781152954101563 -6.0 -0.8559508666992187
  endloop
 endfacet
 facet normal 0.0 -1.0 0.0
  outer loop
   vertex -0.871724853515625 -6.0 0.2238208923339844
   vertex -0.8929032592773438 -6.0 0.11279991149902344
   vertex -0.9 -6.0 -1.0888226084637687e-15
  endloop
 endfacet
 facet normal 0.0 -1.0 -0.0
  outer loop
   vertex -0.871724853515625 -6.0 0.2238208923339844
   vertex -0.9 -6.0 -1.0888226084637687e-15
   vertex -0.871724853515625 -6.0 -0.2238208923339844
  endloop
 endfacet
 facet normal 0.0 -1.0 0.0
  outer loop
   vertex 0.2781152954101563 -6.0 -0.8559508666992187
   vertex 0.05651146697998047 -6.0 -0.8982240600585938
   vertex 0.1686431884765625 -6.0 -0.8840585327148438
  endloop
 endfacet
 facet normal 0.0 -1.0 0.0
  outer loop
   vertex -0.788676025390625 -6.0 0.43357830810546877
   vertex -0.8367988281250001 -6.0 0.33131210327148436
   vertex -0.871724853515625 -6.0 0.2238208923339844
  endloop
 endfacet
 facet normal 0.0 -1.0 0.0
  outer loop
   vertex 0.65607177734375 -6.0 -0.6160924072265626
   vertex 0.2781152954101563 -6.0 -0.8559508666992187
   vertex 0.38320135498046876 -6.0 -0.8143443603515625
  endloop
 endfacet
 facet normal 0.0 -1.0 0.0
  outer loop
   vertex 0.65607177734375 -6.0 -0.6160924072265626
   vertex 0.38320135498046876 -6.0 -0.8143443603515625
   vertex 0.4822441101074219 -6.0 -0.7598951416015625
  endloop
 endfacet
 facet normal 0.0 -1.0 0.0
  outer loop
   vertex 0.65607177734375 -6.0 -0.6160924072265626
   vertex 0.4822441101074219 -6.0 -0.7598951416015625
   vertex 0.5736815795898438 -6.0 -0.6934619140625
  endloop
 endfacet
 facet normal -0.0 -1.0 0.0
  outer loop
   vertex 0.65607177734375 -6.0 -0.6160924072265626
   vertex -0.871724853515625 -6.0 -0.2238208923339844
   vertex -0.5736815795898438 -6.0 -0.6934619140625
  endloop
 endfacet
 facet normal 0.0 -1.0 0.0
  outer loop
   vertex 0.65607177734375 -6.0 -0.6160924072265626
   vertex -0.5736815795898438 -6.0 -0.6934619140625
   vertex 0.05651146697998047 -6.0 -0.8982240600585938
  endloop
 endfacet
 facet normal 0.0 -1.0 0.0
  outer loop
   vertex 0.65607177734375 -6.0 -0.6160924072265626
   vertex 0.05651146697998047 -6.0 -0.8982240600585938
   vertex 0.2781152954101563 -6.0 -0.8559508666992187
  endloop
 endfacet
 facet normal 0.0 -1.0 0.0
  outer loop
   vertex -0.38320135498046876 -6.0 0.8143443603515625
   vertex -0.4822441101074219 -6.0 0.7598951416015625
   vertex -0.5736815795898438 -6.0 0.6934619140625
  endloop
 endfacet
 facet normal 0.0 -1.0 0.0
  outer loop
   vertex -0.38320135498046876 -6.0 0.8143443603515625
   vertex -0.5736815795898438 -6.0 0.6934619140625
   vertex -0.65607177734375 -6.0 0.6160924072265626
  endloop
 endfacet
 facet normal 0.0 -1.0 0.0
  outer loop
   vertex 0.8367988281250001 -6.0 -0.33131210327148436
   vertex 0.65607177734375 -6.0 -0.6160924072265626
   vertex 0.7281152954101563 -6.0 -0.5290067138671876
  endloop
 endfacet
 facet normal 0.0 -1.0 0.0
  outer loop
   vertex 0.8367988281250001 -6.0 -0.33131210327148436
   vertex 0.7281152954101563 -6.0 -0.5290067138671876
   vertex 0.788676025390625 -6.0 -0.43357830810546877
  endloop
 endfacet
 facet normal 0.0 -1.0 0.0
  outer loop
   vertex 0.871724853515625 -6.0 -0.2238208923339844
   vertex 0.65607177734375 -6.0 -0.6160924072265626
   vertex 0.8367988281250001 -6.0 -0.33131210327148436
  endloop
 endfacet
 facet normal -0.0 -1.0 0.0
  outer loop
   vertex 0.871724853515625 -6.0 -0.2238208923339844
   vertex -0.871724853515625 -6.0 -0.2238208923339844
   vertex 0.65607177734375 -6.0 -0.6160924072265626
  endloop
 endfacet
 facet normal 0.0 -1.0 0.0
  outer loop
   vertex 0.8929032592773438 -6.0 -0.11279991149902344
   vertex -0.871724853515625 -6.0 -0.2238208923339844
   vertex 0.871724853515625 -6.0 -0.2238208923339844
  endloop
 endfacet
 facet normal 0.0 -1.0 0.0
  outer loop
   vertex 0.8929032592773438 -6.0 -0.11279991149902344
   vertex -0.7281152954101563 -6.0 0.5290067138671876
   vertex -0.788676025390625 -6.0 0.43357830810546877
  endloop
 endfacet
 facet normal 0.0 -1.0 0.0
  outer loop
   vertex 0.8929032592773438 -6.0 -0.11279991149902344
   vertex -0.788676025390625 -6.0 0.43357830810546877
   vertex -0.871724853515625 -6.0 0.2238208923339844
  endloop
 endfacet
 facet normal -0.0 -1.0 0.0
  outer loop
   vertex 0.8929032592773438 -6.0 -0.11279991149902344
   vertex -0.871724853515625 -6.0 0.2238208923339844
   vertex -0.871724853515625 -6.0 -0.2238208923339844
  endloop
 endfacet
 facet normal -0.0 -1.0 0.0
  outer loop
   vertex 0.05651146697998047 -6.0 0.8982240600585938
   vertex -0.05651146697998047 -6.0 0.8982240600585938
   vertex -0.1686431884765625 -6.0 0.8840585327148438
  endloop
 endfacet
 facet normal 0.0 -1.0 0.0
  outer loop
   vertex 0.1686431884765625 -6.0 0.8840585327148438
   vertex 0.05651146697998047 -6.0 0.8982240600585938
   vertex -0.1686431884765625 -6.0 0.8840585327148438
  endloop
 endfacet
 facet normal -0.0 -1.0 0.0
  outer loop
   vertex 0.1686431884765625 -6.0 0.8840585327148438
   vertex -0.1686431884765625 -6.0 0.8840585327148438
   vertex -0.2781152954101563 -6.0 0.8559508666992187
  endloop
 endfacet
 facet normal 0.0 -1.0 0.0
  outer loop
   vertex 0.1686431884765625 -6.0 0.8840585327148438
   vertex -0.2781152954101563 -6.0 0.8559508666992187
   vertex -0.38320135498046876 -6.0 0.8143443603515625
  endloop
 endfacet
 facet normal 0.0 -1.0 0.0
  outer loop
   vertex 0.871724853515625 -6.0 0.2238208923339844
   vertex 0.9 -6.0 -2.20000002915631e-16
   vertex 0.8929032592773438 -6.0 0.11279991149902344
  endloop
 endfacet
 facet normal 0.0 -1.0 0.0
  outer loop
   vertex 0.871724853515625 -6.0 0.2238208923339844
   vertex 0.8929032592773438 -6.0 -0.11279991149902344
   vertex 0.9 -6.0 -2.20000002915631e-16
  endloop
 endfacet
 facet normal 0.0 -1.0 0.0
  outer loop
   vertex 0.2781152954101563 -6.0 0.8559508666992187
   vertex -0.38320135498046876 -6.0 0.8143443603515625
   vertex -0.65607177734375 -6.0 0.6160924072265626
  endloop
 endfacet
 facet normal -0.0 -1.0 0.0
  outer loop
   vertex 0.2781152954101563 -6.0 0.8559508666992187
   vertex 0.1686431884765625 -6.0 0.8840585327148438
   vertex -0.38320135498046876 -6.0 0.8143443603515625
  endloop
 endfacet
 facet normal 0.0 -1.0 0.0
  outer loop
   vertex 0.788676025390625 -6.0 0.43357830810546877
   vertex 0.871724853515625 -6.0 0.2238208923339844
   vertex 0.8367988281250001 -6.0 0.33131210327148436
  endloop
 endfacet
 facet normal -0.0 -1.0 -0.0
  outer loop
   vertex 0.788676025390625 -6.0 0.43357830810546877
   vertex -0.7281152954101563 -6.0 0.5290067138671876
   vertex 0.8929032592773438 -6.0 -0.11279991149902344
  endloop
 endfacet
 facet normal 0.0 -1.0 0.0
  outer loop
   vertex 0.788676025390625 -6.0 0.43357830810546877
   vertex 0.8929032592773438 -6.0 -0.11279991149902344
   vertex 0.871724853515625 -6.0 0.2238208923339844
  endloop
 endfacet
 facet normal 0.0 -1.0 0.0
  outer loop
   vertex 0.5736815795898438 -6.0 0.6934619140625
   vertex 0.4822441101074219 -6.0 0.7598951416015625
   vertex 0.38320135498046876 -6.0 0.8143443603515625
  endloop
 endfacet
 facet normal 0.0 -1.0 0.0
  outer loop
   vertex 0.5736815795898438 -6.0 0.6934619140625
   vertex 0.38320135498046876 -6.0 0.8143443603515625
   vertex 0.2781152954101563 -6.0 0.8559508666992187
  endloop
 endfacet
 facet normal 0.0 -1.0 0.0
  outer loop
   vertex 0.65607177734375 -6.0 0.6160924072265626
   vertex 0.788676025390625 -6.0 0.43357830810546877
   vertex 0.7281152954101563 -6.0 0.5290067138671876
  endloop
 endfacet
 facet normal 0.0 -1.0 -0.0
  outer loop
   vertex 0.65607177734375 -6.0 0.6160924072265626
   vertex -0.7281152954101563 -6.0 0.5290067138671876
   vertex 0.788676025390625 -6.0 0.43357830810546877
  endloop
 endfacet
 facet normal -0.0 -1.0 0.0
  outer loop
   vertex 0.65607177734375 -6.0 0.6160924072265626
   vertex -0.65607177734375 -6.0 0.6160924072265626
   vertex -0.7281152954101563 -6.0 0.5290067138671876
  endloop
 endfacet
 facet normal 0.0 -1.0 0.0
  outer loop
   vertex 0.65607177734375 -6.0 0.6160924072265626
   vertex 0.2781152954101563 -6.0 0.8559508666992187
   vertex -0.65607177734375 -6.0 0.6160924072265626
  endloop
 endfacet
 facet normal 0.0 -1.0 0.0
  outer loop
   vertex 0.65607177734375 -6.0 0.6160924072265626
   vertex 0.5736815795898438 -6.0 0.6934619140625
   vertex 0.2781152954101563 -6.0 0.8559508666992187
  endloop
 endfacet
endsolid patch_2_0
