solid patch_3_0
 facet normal 0.9995065331459045 6.97471578751445e-18 -0.03141132742166519
  outer loop
   vertex 24.0 24.0 1.3871910564677847e-14
   vertex 24.0 -12.0 5.87830478737672e-15
   vertex 23.952640625 24.0 -1.506972412109375
  endloop
 endfacet
 facet normal 0.9995065331459045 0.0 -0.03141132742166519
  outer loop
   vertex 24.0 -12.0 5.87830478737672e-15
   vertex 23.952640625 -12.0 -1.506972412109375
   vertex 23.952640625 24.0 -1.506972412109375
  endloop
 endfacet
 facet normal 0.995561957359314 0.0 -0.09410832077264786
  outer loop
   vertex 23.952640625 24.0 -1.506972412109375
   vertex 23.810751953125 -12.0 -3.00799755859375
   vertex 23.810751953125 24.0 -3.00799755859375
  endloop
 endfacet
 facet normal 0.995561957359314 0.0 -0.09410832077264786
  outer loop
   vertex 23.952640625 -12.0 -1.506972412109375
   vertex 23.810751953125 -12.0 -3.00799755859375
   vertex 23.952640625 24.0 -1.506972412109375
  endloop
 endfacet
 facet normal 0.987688422203064 0.0 -0.156433567404747
  outer loop
   vertex 23.810751953125 24.0 -3.00799755859375
   vertex 23.57489453125 -12.0 -4.4971513671875005
   vertex 23.57489453125 24.0 -4.4971513671875005
  endloop
 endfacet
 facet normal 0.987688422203064 0.0 -0.156433567404747
  outer loop
   vertex 23.810751953125 -12.0 -3.00799755859375
   vertex 23.57489453125 -12.0 -4.4971513671875005
   vertex 23.810751953125 24.0 -3.00799755859375
  endloop
 endfacet
 facet normal 0.9759168028831482 0.0 -0.21814343333244324
  outer loop
   vertex 23.57489453125 24.0 -4.4971513671875005
   vertex 23.24599609375 -12.0 -5.96855712890625
   vertex 23.24599609375 24.0 -5.96855712890625
  endloop
 endfacet
 facet normal 0.9759168028831482 0.0 -0.21814343333244324
  outer loop
   vertex 23.57489453125 -12.0 -4.4971513671875005
   vertex 23.24599609375 -12.0 -5.96855712890625
   vertex 23.57489453125 24.0 -4.4971513671875005
  endloop
 endfacet
 facet normal 0.9602934718132019 0.0 -0.27899178862571716
  outer loop
   vertex 23.24599609375 24.0 -5.96855712890625
   vertex 22.82535546875 -12.0 -7.41640771484375
   vertex 22.82535546875 24.0 -7.41640771484375
  endloop
 endfacet
 facet normal 0.9408807754516602 0.0 -0.3387378752231598
  outer loop
   vertex 22.82535546875 24.0 -7.41640771484375
   vertex 22.82535546875 -12.0 -7.41640771484375
   vertex 22.314634765625 24.0 -8.8349892578125
  endloop
 endfacet
 facet normal 0.9602934718132019 0.0 -0.27899178862571716
  outer loop
   vertex 23.24599609375 -12.0 -5.96855712890625
   vertex 22.82535546875 -12.0 -7.41640771484375
   vertex 23.24599609375 24.0 -5.96855712890625
  endloop
 endfacet
 facet normal 0.9408807754516602 0.0 -0.3387378752231598
  outer loop
   vertex 22.82535546875 -12.0 -7.41640771484375
   vertex 22.314634765625 -12.0 -8.8349892578125
   vertex 22.314634765625 24.0 -8.8349892578125
  endloop
 endfacet
 facet normal 0.9177549481391907 0.0 -0.39714714884757996
  outer loop
   vertex 22.314634765625 24.0 -8.8349892578125
   vertex 21.715849609375 -12.0 -10.218703125
   vertex 21.715849609375 24.0 -10.218703125
  endloop
 endfacet
 facet normal 0.9177549481391907 0.0 -0.39714714884757996
  outer loop
   vertex 22.314634765625 -12.0 -8.8349892578125
   vertex 21.715849609375 -12.0 -10.218703125
   vertex 22.314634765625 24.0 -8.8349892578125
  endloop
 endfacet
 facet normal 0.8910061120986938 0.0 -0.4539912939071655
  outer loop
   vertex 21.715849609375 24.0 -10.218703125
   vertex 21.031359375 -12.0 -11.562087890625
   vertex 21.031359375 24.0 -11.562087890625
  endloop
 endfacet
 facet normal 0.8607425093650818 0.0 -0.5090404748916626
  outer loop
   vertex 21.031359375 24.0 -11.562087890625
   vertex 21.031359375 -12.0 -11.562087890625
   vertex 20.26387109375 24.0 -12.859842773437501
  endloop
 endfacet
 facet normal 0.8910061120986938 0.0 -0.4539912939071655
  outer loop
   vertex 21.715849609375 -12.0 -10.218703125
   vertex 21.031359375 -12.0 -11.562087890625
   vertex 21.715849609375 24.0 -10.218703125
  endloop
 endfacet
 facet normal 0.8607425093650818 0.0 -0.5090404748916626
  outer loop
   vertex 21.031359375 -12.0 -11.562087890625
   vertex 20.26387109375 -12.0 -12.859842773437501
   vertex 20.26387109375 24.0 -12.859842773437501
  endloop
 endfacet
 facet normal 0.8270803689956665 0.0 -0.5620836615562439
  outer loop
   vertex 20.26387109375 24.0 -12.859842773437501
   vertex 19.416408203125002 -12.0 -14.106845703125
   vertex 19.416408203125002 24.0 -14.106845703125
  endloop
 endfacet
 facet normal 0.7901551723480225 0.0 -0.612906813621521
  outer loop
   vertex 19.416408203125002 24.0 -14.106845703125
   vertex 19.416408203125002 -12.0 -14.106845703125
   vertex 18.492318359375002 24.0 -15.29817578125
  endloop
 endfacet
 facet normal 0.8270803689956665 0.0 -0.5620836615562439
  outer loop
   vertex 20.26387109375 -12.0 -12.859842773437501
   vertex 19.416408203125002 -12.0 -14.106845703125
   vertex 20.26387109375 24.0 -12.859842773437501
  endloop
 endfacet
 facet normal 0.7901551723480225 0.0 -0.612906813621521
  outer loop
   vertex 19.416408203125002 -12.0 -14.106845703125
   vertex 18.492318359375002 -12.0 -15.29817578125
   vertex 18.492318359375002 24.0 -15.29817578125
  endloop
 endfacet
 facet normal 0.7501106858253479 0.0 -0.6613122820854187
  outer loop
   vertex 18.492318359375002 24.0 -15.29817578125
   vertex 17.49524609375 -12.0 -16.429130859375
   vertex 17.49524609375 24.0 -16.429130859375
  endloop
 endfacet
 facet normal 0.7501106858253479 0.0 -0.6613122820854187
  outer loop
   vertex 18.492318359375002 -12.0 -15.29817578125
   vertex 17.49524609375 -12.0 -16.429130859375
   vertex 18.492318359375002 24.0 -15.29817578125
  endloop
 endfacet
 facet normal 0.7071067690849304 0.0 -0.7071067690849304
  outer loop
   vertex 17.49524609375 24.0 -16.429130859375
   vertex 16.429130859375 -12.0 -17.49524609375
   vertex 16.429130859375 24.0 -17.49524609375
  endloop
 endfacet
 facet normal 0.7071067690849304 0.0 -0.7071067690849304
  outer loop
   vertex 17.49524609375 -12.0 -16.429130859375
   vertex 16.429130859375 -12.0 -17.49524609375
   vertex 17.49524609375 24.0 -16.429130859375
  endloop
 endfacet
 facet normal 0.6613122820854187 0.0 -0.7501106858253479
  outer loop
   vertex 16.429130859375 24.0 -17.49524609375
   vertex 15.29817578125 -12.0 -18.492318359375002
   vertex 15.29817578125 24.0 -18.492318359375002
  endloop
 endfacet
 facet normal 0.612906813621521 0.0 -0.7901551723480225
  outer loop
   vertex 15.29817578125 24.0 -18.492318359375002
   vertex 15.29817578125 -12.0 -18.492318359375002
   vertex 14.106845703125 24.0 -19.416408203125002
  endloop
 endfacet
 facet normal 0.6613122820854187 0.0 -0.7501106858253479
  outer loop
   vertex 16.429130859375 -12.0 -17.49524609375
   vertex 15.29817578125 -12.0 -18.492318359375002
   vertex 16.429130859375 24.0 -17.49524609375
  endloop
 endfacet
 facet normal 0.612906813621521 0.0 -0.7901551723480225
  outer loop
   vertex 15.29817578125 -12.0 -18.492318359375002
   vertex 14.106845703125 -12.0 -19.416408203125002
   vertex 14.106845703125 24.0 -19.416408203125002
  endloop
 endfacet
 facet normal 0.5620836615562439 0.0 -0.8270803689956665
  outer loop
   vertex 14.106845703125 24.0 -19.416408203125002
   vertex 12.859842773437501 -12.0 -20.26387109375
   vertex 12.859842773437501 24.0 -20.26387109375
  endloop
 endfacet
 facet normal 0.5620836615562439 0.0 -0.8270803689956665
  outer loop
   vertex 14.106845703125 -12.0 -19.416408203125002
   vertex 12.859842773437501 -12.0 -20.26387109375
   vertex 14.106845703125 24.0 -19.416408203125002
  endloop
 endfacet
 facet normal 0.5090404748916626 0.0 -0.8607425093650818
  outer loop
   vertex 12.859842773437501 24.0 -20.26387109375
   vertex 11.562087890625 -12.0 -21.031359375
   vertex 11.562087890625 24.0 -21.031359375
  endloop
 endfacet
 facet normal 0.4539912939071655 0.0 -0.8910061120986938
  outer loop
   vertex 11.562087890625 24.0 -21.031359375
   vertex 11.562087890625 -12.0 -21.031359375
   vertex 10.218703125 24.0 -21.715849609375
  endloop
 endfacet
 facet normal 0.5090404748916626 0.0 -0.8607425093650818
  outer loop
   vertex 12.859842773437501 -12.0 -20.26387109375
   vertex 11.562087890625 -12.0 -21.031359375
   vertex 12.859842773437501 24.0 -20.26387109375
  endloop
 endfacet
 facet normal 0.4539912939071655 0.0 -0.8910061120986938
  outer loop
   vertex 11.562087890625 -12.0 -21.031359375
   vertex 10.218703125 -12.0 -21.715849609375
   vertex 10.218703125 24.0 -21.715849609375
  endloop
 endfacet
 facet normal 0.39714714884757996 0.0 -0.9177549481391907
  outer loop
   vertex 10.218703125 24.0 -21.715849609375
   vertex 8.8349892578125 -12.0 -22.314634765625
   vertex 8.8349892578125 24.0 -22.314634765625
  endloop
 endfacet
 facet normal 0.39714714884757996 0.0 -0.9177549481391907
  outer loop
   vertex 10.218703125 -12.0 -21.715849609375
   vertex 8.8349892578125 -12.0 -22.314634765625
   vertex 10.218703125 24.0 -21.715849609375
  endloop
 endfacet
 facet normal 0.3387378752231598 0.0 -0.9408807754516602
  outer loop
   vertex 8.8349892578125 24.0 -22.314634765625
   vertex 7.41640771484375 -12.0 -22.82535546875
   vertex 7.41640771484375 24.0 -22.82535546875
  endloop
 endfacet
 facet normal 0.3387378752231598 0.0 -0.9408807754516602
  outer loop
   vertex 8.8349892578125 -12.0 -22.314634765625
   vertex 7.41640771484375 -12.0 -22.82535546875
   vertex 8.8349892578125 24.0 -22.314634765625
  endloop
 endfacet
 facet normal 0.27899178862571716 0.0 -0.9602934718132019
  outer loop
   vertex 7.41640771484375 24.0 -22.82535546875
   vertex 5.96855712890625 -12.0 -23.24599609375
   vertex 5.96855712890625 24.0 -23.24599609375
  endloop
 endfacet
 facet normal 0.27899178862571716 0.0 -0.9602934718132019
  outer loop
   vertex 7.41640771484375 -12.0 -22.82535546875
   vertex 5.96855712890625 -12.0 -23.24599609375
   vertex 7.41640771484375 24.0 -22.82535546875
  endloop
 endfacet
 facet normal 0.21814343333244324 0.0 -0.9759168028831482
  outer loop
   vertex 5.96855712890625 24.0 -23.24599609375
   vertex 4.4971513671875005 -12.0 -23.57489453125
   vertex 4.4971513671875005 24.0 -23.57489453125
  endloop
 endfacet
 facet normal 0.21814343333244324 0.0 -0.9759168028831482
  outer loop
   vertex 5.96855712890625 -12.0 -23.24599609375
   vertex 4.4971513671875005 -12.0 -23.57489453125
   vertex 5.96855712890625 24.0 -23.24599609375
  endloop
 endfacet
 facet normal 0.156433567404747 0.0 -0.987688422203064
  outer loop
   vertex 4.4971513671875005 24.0 -23.57489453125
   vertex 3.00799755859375 -12.0 -23.810751953125
   vertex 3.00799755859375 24.0 -23.810751953125
  endloop
 endfacet
 facet normal 0.156433567404747 0.0 -0.987688422203064
  outer loop
   vertex 4.4971513671875005 -12.0 -23.57489453125
   vertex 3.00799755859375 -12.0 -23.810751953125
   vertex 4.4971513671875005 24.0 -23.57489453125
  endloop
 endfacet
 facet normal 0.09410832077264786 0.0 -0.995561957359314
  outer loop
   vertex 3.00799755859375 24.0 -23.810751953125
   vertex 1.506972412109375 -12.0 -23.952640625
   vertex 1.506972412109375 24.0 -23.952640625
  endloop
 endfacet
 facet normal 0.09410832077264786 0.0 -0.995561957359314
  outer loop
   vertex 3.00799755859375 -12.0 -23.810751953125
   vertex 1.506972412109375 -12.0 -23.952640625
   vertex 3.00799755859375 24.0 -23.810751953125
  endloop
 endfacet
 facet normal 0.03141132742166519 0.0 -0.9995065331459045
  outer loop
   vertex 1.506972412109375 -12.0 -23.952640625
   vertex -1.4517635357758074e-14 -12.0 -24.0
   vertex 1.506972412109375 24.0 -23.952640625
  endloop
 endfacet
 facet normal 0.03141132742166519 0.0 -0.9995065331459045
  outer loop
   vertex 1.506972412109375 24.0 -23.952640625
   vertex -1.4517635357758074e-14 -12.0 -24.0
   vertex -1.4517635357758074e-14 24.0 -24.0
  endloop
 endfacet
 facet normal -0.03141132742166519 0.0 -0.9995065331459045
  outer loop
   vertex -1.4517635357758074e-14 -12.0 -24.0
   vertex -1.506972412109375 -12.0 -23.952640625
   vertex -1.4517635357758074e-14 24.0 -24.0
  endloop
 endfacet
 facet normal -0.03141132742166519 0.0 -0.9995065331459045
  outer loop
   vertex -1.4517635357758074e-14 24.0 -24.0
   vertex -1.506972412109375 -12.0 -23.952640625
   vertex -1.506972412109375 24.0 -23.952640625
  endloop
 endfacet
 facet normal -0.09410832077264786 -0.0 -0.995561957359314
  outer loop
   vertex -1.506972412109375 24.0 -23.952640625
   vertex -1.506972412109375 -12.0 -23.952640625
   vertex -3.00799755859375 24.0 -23.810751953125
  endloop
 endfacet
 facet normal -0.09410832077264786 0.0 -0.995561957359314
  outer loop
   vertex -1.506972412109375 -12.0 -23.952640625
   vertex -3.00799755859375 -12.0 -23.810751953125
   vertex -3.00799755859375 24.0 -23.810751953125
  endloop
 endfacet
 facet normal -0.156433567404747 -0.0 -0.987688422203064
  outer loop
   vertex -3.00799755859375 24.0 -23.810751953125
   vertex -3.00799755859375 -12.0 -23.810751953125
   vertex -4.4971513671875005 24.0 -23.57489453125
  endloop
 endfacet
 facet normal -0.156433567404747 0.0 -0.987688422203064
  outer loop
   vertex -3.00799755859375 -12.0 -23.810751953125
   vertex -4.4971513671875005 -12.0 -23.57489453125
   vertex -4.4971513671875005 24.0 -23.57489453125
  endloop
 endfacet
 facet normal -0.21814343333244324 0.0 -0.9759168028831482
  outer loop
   vertex -4.4971513671875005 -12.0 -23.57489453125
   vertex -5.96855712890625 -12.0 -23.24599609375
   vertex -4.4971513671875005 24.0 -23.57489453125
  endloop
 endfacet
 facet normal -0.21814343333244324 0.0 -0.9759168028831482
  outer loop
   vertex -4.4971513671875005 24.0 -23.57489453125
   vertex -5.96855712890625 -12.0 -23.24599609375
   vertex -5.96855712890625 24.0 -23.24599609375
  endloop
 endfacet
 facet normal -0.27899178862571716 -0.0 -0.9602934718132019
  outer loop
   vertex -5.96855712890625 24.0 -23.24599609375
   vertex -5.96855712890625 -12.0 -23.24599609375
   vertex -7.41640771484375 24.0 -22.82535546875
  endloop
 endfacet
 facet normal -0.27899178862571716 0.0 -0.9602934718132019
  outer loop
   vertex -5.96855712890625 -12.0 -23.24599609375
   vertex -7.41640771484375 -12.0 -22.82535546875
   vertex -7.41640771484375 24.0 -22.82535546875
  endloop
 endfacet
 facet normal -0.3387378752231598 0.0 -0.9408807754516602
  outer loop
   vertex -7.41640771484375 -12.0 -22.82535546875
   vertex -8.8349892578125 -12.0 -22.314634765625
   vertex -7.41640771484375 24.0 -22.82535546875
  endloop
 endfacet
 facet normal -0.3387378752231598 0.0 -0.9408807754516602
  outer loop
   vertex -7.41640771484375 24.0 -22.82535546875
   vertex -8.8349892578125 -12.0 -22.314634765625
   vertex -8.8349892578125 24.0 -22.314634765625
  endloop
 endfacet
 facet normal -0.39714714884757996 0.0 -0.9177549481391907
  outer loop
   vertex -8.8349892578125 24.0 -22.314634765625
   vertex -10.218703125 -12.0 -21.715849609375
   vertex -10.218703125 24.0 -21.715849609375
  endloop
 endfacet
 facet normal -0.39714714884757996 0.0 -0.9177549481391907
  outer loop
   vertex -8.8349892578125 -12.0 -22.314634765625
   vertex -10.218703125 -12.0 -21.715849609375
   vertex -8.8349892578125 24.0 -22.314634765625
  endloop
 endfacet
 facet normal -0.4539912939071655 -0.0 -0.8910061120986938
  outer loop
   vertex -10.218703125 24.0 -21.715849609375
   vertex -10.218703125 -12.0 -21.715849609375
   vertex -11.562087890625 24.0 -21.031359375
  endloop
 endfacet
 facet normal -0.4539912939071655 0.0 -0.8910061120986938
  outer loop
   vertex -10.218703125 -12.0 -21.715849609375
   vertex -11.562087890625 -12.0 -21.031359375
   vertex -11.562087890625 24.0 -21.031359375
  endloop
 endfacet
 facet normal -0.5090404748916626 0.0 -0.8607425093650818
  outer loop
   vertex -11.562087890625 24.0 -21.031359375
   vertex -12.859842773437501 -12.0 -20.26387109375
   vertex -12.859842773437501 24.0 -20.26387109375
  endloop
 endfacet
 facet normal -0.5620836615562439 -0.0 -0.8270803689956665
  outer loop
   vertex -12.859842773437501 24.0 -20.26387109375
   vertex -12.859842773437501 -12.0 -20.26387109375
   vertex -14.106845703125 24.0 -19.416408203125002
  endloop
 endfacet
 facet normal -0.5090404748916626 0.0 -0.8607425093650818
  outer loop
   vertex -11.562087890625 -12.0 -21.031359375
   vertex -12.859842773437501 -12.0 -20.26387109375
   vertex -11.562087890625 24.0 -21.031359375
  endloop
 endfacet
 facet normal -0.5620836615562439 0.0 -0.8270803689956665
  outer loop
   vertex -12.859842773437501 -12.0 -20.26387109375
   vertex -14.106845703125 -12.0 -19.416408203125002
   vertex -14.106845703125 24.0 -19.416408203125002
  endloop
 endfacet
 facet normal -0.612906813621521 0.0 -0.7901551723480225
  outer loop
   vertex -14.106845703125 24.0 -19.416408203125002
   vertex -15.29817578125 -12.0 -18.492318359375002
   vertex -15.29817578125 24.0 -18.492318359375002
  endloop
 endfacet
 facet normal -0.612906813621521 0.0 -0.7901551723480225
  outer loop
   vertex -14.106845703125 -12.0 -19.416408203125002
   vertex -15.29817578125 -12.0 -18.492318359375002
   vertex -14.106845703125 24.0 -19.416408203125002
  endloop
 endfacet
 facet normal -0.6613122820854187 0.0 -0.7501106858253479
  outer loop
   vertex -15.29817578125 24.0 -18.492318359375002
   vertex -16.429130859375 -12.0 -17.49524609375
   vertex -16.429130859375 24.0 -17.49524609375
  endloop
 endfacet
 facet normal -0.6613122820854187 0.0 -0.7501106858253479
  outer loop
   vertex -15.29817578125 -12.0 -18.492318359375002
   vertex -16.429130859375 -12.0 -17.49524609375
   vertex -15.29817578125 24.0 -18.492318359375002
  endloop
 endfacet
 facet normal -0.7071067690849304 0.0 -0.7071067690849304
  outer loop
   vertex -16.429130859375 24.0 -17.49524609375
   vertex -17.49524609375 -12.0 -16.429130859375
   vertex -17.49524609375 24.0 -16.429130859375
  endloop
 endfacet
 facet normal -0.7071067690849304 0.0 -0.7071067690849304
  outer loop
   vertex -16.429130859375 -12.0 -17.49524609375
   vertex -17.49524609375 -12.0 -16.429130859375
   vertex -16.429130859375 24.0 -17.49524609375
  endloop
 endfacet
 facet normal -0.7501106858253479 0.0 -0.6613122820854187
  outer loop
   vertex -17.49524609375 24.0 -16.429130859375
   vertex -18.492318359375002 -12.0 -15.29817578125
   vertex -18.492318359375002 24.0 -15.29817578125
  endloop
 endfacet
 facet normal -0.7901551723480225 -0.0 -0.612906813621521
  outer loop
   vertex -18.492318359375002 24.0 -15.29817578125
   vertex -18.492318359375002 -12.0 -15.29817578125
   vertex -19.416408203125002 24.0 -14.106845703125
  endloop
 endfacet
 facet normal -0.7501106858253479 0.0 -0.6613122820854187
  outer loop
   vertex -17.49524609375 -12.0 -16.429130859375
   vertex -18.492318359375002 -12.0 -15.29817578125
   vertex -17.49524609375 24.0 -16.429130859375
  endloop
 endfacet
 facet normal -0.7901551723480225 0.0 -0.612906813621521
  outer loop
   vertex -18.492318359375002 -12.0 -15.29817578125
   vertex -19.416408203125002 -12.0 -14.106845703125
   vertex -19.416408203125002 24.0 -14.106845703125
  endloop
 endfacet
 facet normal -0.8270803689956665 0.0 -0.5620836615562439
  outer loop
   vertex -19.416408203125002 24.0 -14.106845703125
   vertex -20.26387109375 -12.0 -12.859842773437501
   vertex -20.26387109375 24.0 -12.859842773437501
  endloop
 endfacet
 facet normal -0.8270803689956665 0.0 -0.5620836615562439
  outer loop
   vertex -19.416408203125002 -12.0 -14.106845703125
   vertex -20.26387109375 -12.0 -12.859842773437501
   vertex -19.416408203125002 24.0 -14.106845703125
  endloop
 endfacet
 facet normal -0.8607425093650818 0.0 -0.5090404748916626
  outer loop
   vertex -20.26387109375 24.0 -12.859842773437501
   vertex -21.031359375 -12.0 -11.562087890625
   vertex -21.031359375 24.0 -11.562087890625
  endloop
 endfacet
 facet normal -0.8607425093650818 0.0 -0.5090404748916626
  outer loop
   vertex -20.26387109375 -12.0 -12.859842773437501
   vertex -21.031359375 -12.0 -11.562087890625
   vertex -20.26387109375 24.0 -12.859842773437501
  endloop
 endfacet
 facet normal -0.8910061120986938 0.0 -0.4539912939071655
  outer loop
   vertex -21.031359375 24.0 -11.562087890625
   vertex -21.715849609375 -12.0 -10.218703125
   vertex -21.715849609375 24.0 -10.218703125
  endloop
 endfacet
 facet normal -0.8910061120986938 0.0 -0.4539912939071655
  outer loop
   vertex -21.031359375 -12.0 -11.562087890625
   vertex -21.715849609375 -12.0 -10.218703125
   vertex -21.031359375 24.0 -11.562087890625
  endloop
 endfacet
 facet normal -0.9177549481391907 0.0 -0.39714714884757996
  outer loop
   vertex -21.715849609375 24.0 -10.218703125
   vertex -22.314634765625 -12.0 -8.8349892578125
   vertex -22.314634765625 24.0 -8.8349892578125
  endloop
 endfacet
 facet normal -0.9408807754516602 -0.0 -0.3387378752231598
  outer loop
   vertex -22.314634765625 24.0 -8.8349892578125
   vertex -22.314634765625 -12.0 -8.8349892578125
   vertex -22.82535546875 24.0 -7.41640771484375
  endloop
 endfacet
 facet normal -0.9177549481391907 0.0 -0.39714714884757996
  outer loop
   vertex -21.715849609375 -12.0 -10.218703125
   vertex -22.314634765625 -12.0 -8.8349892578125
   vertex -21.715849609375 24.0 -10.218703125
  endloop
 endfacet
 facet normal -0.9408807754516602 0.0 -0.3387378752231598
  outer loop
   vertex -22.314634765625 -12.0 -8.8349892578125
   vertex -22.82535546875 -12.0 -7.41640771484375
   vertex -22.82535546875 24.0 -7.41640771484375
  endloop
 endfacet
 facet normal -0.9602934718132019 0.0 -0.27899178862571716
  outer loop
   vertex -22.82535546875 24.0 -7.41640771484375
   vertex -23.24599609375 -12.0 -5.96855712890625
   vertex -23.24599609375 24.0 -5.96855712890625
  endloop
 endfacet
 facet normal -0.9759168028831482 -0.0 -0.21814343333244324
  outer loop
   vertex -23.24599609375 24.0 -5.96855712890625
   vertex -23.24599609375 -12.0 -5.96855712890625
   vertex -23.57489453125 24.0 -4.4971513671875005
  endloop
 endfacet
 facet normal -0.9602934718132019 0.0 -0.27899178862571716
  outer loop
   vertex -22.82535546875 -12.0 -7.41640771484375
   vertex -23.24599609375 -12.0 -5.96855712890625
   vertex -22.82535546875 24.0 -7.41640771484375
  endloop
 endfacet
 facet normal -0.9759168028831482 0.0 -0.21814343333244324
  outer loop
   vertex -23.24599609375 -12.0 -5.96855712890625
   vertex -23.57489453125 -12.0 -4.4971513671875005
   vertex -23.57489453125 24.0 -4.4971513671875005
  endloop
 endfacet
 facet normal -0.987688422203064 0.0 -0.156433567404747
  outer loop
   vertex -23.57489453125 24.0 -4.4971513671875005
   vertex -23.810751953125 -12.0 -3.00799755859375
   vertex -23.810751953125 24.0 -3.00799755859375
  endloop
 endfacet
 facet normal -0.995561957359314 -0.0 -0.09410832077264786
  outer loop
   vertex -23.810751953125 24.0 -3.00799755859375
   vertex -23.810751953125 -12.0 -3.00799755859375
   vertex -23.952640625 24.0 -1.506972412109375
  endloop
 endfacet
 facet normal -0.987688422203064 0.0 -0.156433567404747
  outer loop
   vertex -23.57489453125 -12.0 -4.4971513671875005
   vertex -23.810751953125 -12.0 -3.00799755859375
   vertex -23.57489453125 24.0 -4.4971513671875005
  endloop
 endfacet
 facet normal -0.995561957359314 0.0 -0.09410832077264786
  outer loop
   vertex -23.810751953125 -12.0 -3.00799755859375
   vertex -23.952640625 -12.0 -1.506972412109375
   vertex -23.952640625 24.0 -1.506972412109375
  endloop
 endfacet
 facet normal -0.9995065331459045 0.0 -0.03141132742166519
  outer loop
   vertex -23.952640625 -12.0 -1.506972412109375
   vertex -24.0 -12.0 6.100969729416761e-14
   vertex -23.952640625 24.0 -1.506972412109375
  endloop
 endfacet
 facet normal -0.9995065331459045 0.0 -0.03141132742166519
  outer loop
   vertex -23.952640625 24.0 -1.506972412109375
   vertex -24.0 -12.0 6.100969729416761e-14
   vertex -24.0 24.0 6.900330307146874e-14
  endloop
 endfacet
 facet normal -0.9995065331459045 -6.97471578751445e-18 0.03141132742166519
  outer loop
   vertex -24.0 -12.0 6.100969729416761e-14
   vertex -23.952640625 -12.0 1.506972412109375
   vertex -24.0 24.0 6.900330307146874e-14
  endloop
 endfacet
 facet normal -0.9995065331459045 0.0 0.03141132742166519
  outer loop
   vertex -24.0 24.0 6.900330307146874e-14
   vertex -23.952640625 -12.0 1.506972412109375
   vertex -23.952640625 24.0 1.506972412109375
  endloop
 endfacet
 facet normal -0.995561957359314 0.0 0.09410832077264786
  outer loop
   vertex -23.952640625 24.0 1.506972412109375
   vertex -23.952640625 -12.0 1.506972412109375
   vertex -23.810751953125 24.0 3.00799755859375
  endloop
 endfacet
 facet normal -0.995561957359314 0.0 0.09410832077264786
  outer loop
   vertex -23.952640625 -12.0 1.506972412109375
   vertex -23.810751953125 -12.0 3.00799755859375
   vertex -23.810751953125 24.0 3.00799755859375
  endloop
 endfacet
 facet normal -0.987688422203064 0.0 0.156433567404747
  outer loop
   vertex -23.810751953125 -12.0 3.00799755859375
   vertex -23.57489453125 -12.0 4.4971513671875005
   vertex -23.810751953125 24.0 3.00799755859375
  endloop
 endfacet
 facet normal -0.987688422203064 0.0 0.156433567404747
  outer loop
   vertex -23.810751953125 24.0 3.00799755859375
   vertex -23.57489453125 -12.0 4.4971513671875005
   vertex -23.57489453125 24.0 4.4971513671875005
  endloop
 endfacet
 facet normal -0.9759168028831482 0.0 0.21814343333244324
  outer loop
   vertex -23.57489453125 24.0 4.4971513671875005
   vertex -23.57489453125 -12.0 4.4971513671875005
   vertex -23.24599609375 24.0 5.96855712890625
  endloop
 endfacet
 facet normal -0.9759168028831482 0.0 0.21814343333244324
  outer loop
   vertex -23.57489453125 -12.0 4.4971513671875005
   vertex -23.24599609375 -12.0 5.96855712890625
   vertex -23.24599609375 24.0 5.96855712890625
  endloop
 endfacet
 facet normal -0.9602934718132019 0.0 0.27899178862571716
  outer loop
   vertex -23.24599609375 -12.0 5.96855712890625
   vertex -22.82535546875 -12.0 7.41640771484375
   vertex -23.24599609375 24.0 5.96855712890625
  endloop
 endfacet
 facet normal -0.9602934718132019 0.0 0.27899178862571716
  outer loop
   vertex -23.24599609375 24.0 5.96855712890625
   vertex -22.82535546875 -12.0 7.41640771484375
   vertex -22.82535546875 24.0 7.41640771484375
  endloop
 endfacet
 facet normal -0.9408807754516602 0.0 0.3387378752231598
  outer loop
   vertex -22.82535546875 -12.0 7.41640771484375
   vertex -22.314634765625 -12.0 8.8349892578125
   vertex -22.82535546875 24.0 7.41640771484375
  endloop
 endfacet
 facet normal -0.9408807754516602 0.0 0.3387378752231598
  outer loop
   vertex -22.82535546875 24.0 7.41640771484375
   vertex -22.314634765625 -12.0 8.8349892578125
   vertex -22.314634765625 24.0 8.8349892578125
  endloop
 endfacet
 facet normal -0.9177549481391907 0.0 0.39714714884757996
  outer loop
   vertex -22.314634765625 -12.0 8.8349892578125
   vertex -21.715849609375 -12.0 10.218703125
   vertex -22.314634765625 24.0 8.8349892578125
  endloop
 endfacet
 facet normal -0.9177549481391907 0.0 0.39714714884757996
  outer loop
   vertex -22.314634765625 24.0 8.8349892578125
   vertex -21.715849609375 -12.0 10.218703125
   vertex -21.715849609375 24.0 10.218703125
  endloop
 endfacet
 facet normal -0.8910061120986938 0.0 0.4539912939071655
  outer loop
   vertex -21.715849609375 24.0 10.218703125
   vertex -21.715849609375 -12.0 10.218703125
   vertex -21.031359375 24.0 11.562087890625
  endloop
 endfacet
 facet normal -0.8910061120986938 0.0 0.4539912939071655
  outer loop
   vertex -21.715849609375 -12.0 10.218703125
   vertex -21.031359375 -12.0 11.562087890625
   vertex -21.031359375 24.0 11.562087890625
  endloop
 endfacet
 facet normal -0.8607425093650818 0.0 0.5090404748916626
  outer loop
   vertex -21.031359375 -12.0 11.562087890625
   vertex -20.26387109375 -12.0 12.859842773437501
   vertex -21.031359375 24.0 11.562087890625
  endloop
 endfacet
 facet normal -0.8607425093650818 0.0 0.5090404748916626
  outer loop
   vertex -21.031359375 24.0 11.562087890625
   vertex -20.26387109375 -12.0 12.859842773437501
   vertex -20.26387109375 24.0 12.859842773437501
  endloop
 endfacet
 facet normal -0.8270803689956665 0.0 0.5620836615562439
  outer loop
   vertex -20.26387109375 24.0 12.859842773437501
   vertex -20.26387109375 -12.0 12.859842773437501
   vertex -19.416408203125002 24.0 14.106845703125
  endloop
 endfacet
 facet normal -0.8270803689956665 0.0 0.5620836615562439
  outer loop
   vertex -20.26387109375 -12.0 12.859842773437501
   vertex -19.416408203125002 -12.0 14.106845703125
   vertex -19.416408203125002 24.0 14.106845703125
  endloop
 endfacet
 facet normal -0.7901551723480225 0.0 0.612906813621521
  outer loop
   vertex -19.416408203125002 -12.0 14.106845703125
   vertex -18.492318359375002 -12.0 15.29817578125
   vertex -19.416408203125002 24.0 14.106845703125
  endloop
 endfacet
 facet normal -0.7901551723480225 0.0 0.612906813621521
  outer loop
   vertex -19.416408203125002 24.0 14.106845703125
   vertex -18.492318359375002 -12.0 15.29817578125
   vertex -18.492318359375002 24.0 15.29817578125
  endloop
 endfacet
 facet normal -0.7501106858253479 0.0 0.6613122820854187
  outer loop
   vertex -18.492318359375002 24.0 15.29817578125
   vertex -18.492318359375002 -12.0 15.29817578125
   vertex -17.49524609375 24.0 16.429130859375
  endloop
 endfacet
 facet normal -0.7501106858253479 0.0 0.6613122820854187
  outer loop
   vertex -18.492318359375002 -12.0 15.29817578125
   vertex -17.49524609375 -12.0 16.429130859375
   vertex -17.49524609375 24.0 16.429130859375
  endloop
 endfacet
 facet normal -0.7071067690849304 0.0 0.7071067690849304
  outer loop
   vertex -17.49524609375 -12.0 16.429130859375
   vertex -16.429130859375 -12.0 17.49524609375
   vertex -17.49524609375 24.0 16.429130859375
  endloop
 endfacet
 facet normal -0.7071067690849304 0.0 0.7071067690849304
  outer loop
   vertex -17.49524609375 24.0 16.429130859375
   vertex -16.429130859375 -12.0 17.49524609375
   vertex -16.429130859375 24.0 17.49524609375
  endloop
 endfacet
 facet normal -0.6613122820854187 0.0 0.7501106858253479
  outer loop
   vertex -16.429130859375 24.0 17.49524609375
   vertex -16.429130859375 -12.0 17.49524609375
   vertex -15.29817578125 24.0 18.492318359375002
  endloop
 endfacet
 facet normal -0.6613122820854187 0.0 0.7501106858253479
  outer loop
   vertex -16.429130859375 -12.0 17.49524609375
   vertex -15.29817578125 -12.0 18.492318359375002
   vertex -15.29817578125 24.0 18.492318359375002
  endloop
 endfacet
 facet normal -0.612906813621521 0.0 0.7901551723480225
  outer loop
   vertex -15.29817578125 -12.0 18.492318359375002
   vertex -14.106845703125 -12.0 19.416408203125002
   vertex -15.29817578125 24.0 18.492318359375002
  endloop
 endfacet
 facet normal -0.612906813621521 0.0 0.7901551723480225
  outer loop
   vertex -15.29817578125 24.0 18.492318359375002
   vertex -14.106845703125 -12.0 19.416408203125002
   vertex -14.106845703125 24.0 19.416408203125002
  endloop
 endfacet
 facet normal -0.5620836615562439 0.0 0.8270803689956665
  outer loop
   vertex -14.106845703125 24.0 19.416408203125002
   vertex -12.859842773437501 -12.0 20.26387109375
   vertex -12.859842773437501 24.0 20.26387109375
  endloop
 endfacet
 facet normal -0.5620836615562439 0.0 0.8270803689956665
  outer loop
   vertex -14.106845703125 -12.0 19.416408203125002
   vertex -12.859842773437501 -12.0 20.26387109375
   vertex -14.106845703125 24.0 19.416408203125002
  endloop
 endfacet
 facet normal -0.5090404748916626 0.0 0.8607425093650818
  outer loop
   vertex -12.859842773437501 24.0 20.26387109375
   vertex -11.562087890625 -12.0 21.031359375
   vertex -11.562087890625 24.0 21.031359375
  endloop
 endfacet
 facet normal -0.4539912939071655 0.0 0.8910061120986938
  outer loop
   vertex -11.562087890625 24.0 21.031359375
   vertex -11.562087890625 -12.0 21.031359375
   vertex -10.218703125 24.0 21.715849609375
  endloop
 endfacet
 facet normal -0.5090404748916626 0.0 0.8607425093650818
  outer loop
   vertex -12.859842773437501 -12.0 20.26387109375
   vertex -11.562087890625 -12.0 21.031359375
   vertex -12.859842773437501 24.0 20.26387109375
  endloop
 endfacet
 facet normal -0.4539912939071655 0.0 0.8910061120986938
  outer loop
   vertex -11.562087890625 -12.0 21.031359375
   vertex -10.218703125 -12.0 21.715849609375
   vertex -10.218703125 24.0 21.715849609375
  endloop
 endfacet
 facet normal -0.39714714884757996 0.0 0.9177549481391907
  outer loop
   vertex -10.218703125 24.0 21.715849609375
   vertex -8.8349892578125 -12.0 22.314634765625
   vertex -8.8349892578125 24.0 22.314634765625
  endloop
 endfacet
 facet normal -0.3387378752231598 0.0 0.9408807754516602
  outer loop
   vertex -8.8349892578125 24.0 22.314634765625
   vertex -8.8349892578125 -12.0 22.314634765625
   vertex -7.41640771484375 24.0 22.82535546875
  endloop
 endfacet
 facet normal -0.39714714884757996 0.0 0.9177549481391907
  outer loop
   vertex -10.218703125 -12.0 21.715849609375
   vertex -8.8349892578125 -12.0 22.314634765625
   vertex -10.218703125 24.0 21.715849609375
  endloop
 endfacet
 facet normal -0.3387378752231598 0.0 0.9408807754516602
  outer loop
   vertex -8.8349892578125 -12.0 22.314634765625
   vertex -7.41640771484375 -12.0 22.82535546875
   vertex -7.41640771484375 24.0 22.82535546875
  endloop
 endfacet
 facet normal -0.27899178862571716 0.0 0.9602934718132019
  outer loop
   vertex -7.41640771484375 24.0 22.82535546875
   vertex -5.96855712890625 -12.0 23.24599609375
   vertex -5.96855712890625 24.0 23.24599609375
  endloop
 endfacet
 facet normal -0.21814343333244324 0.0 0.9759168028831482
  outer loop
   vertex -5.96855712890625 24.0 23.24599609375
   vertex -5.96855712890625 -12.0 23.24599609375
   vertex -4.4971513671875005 24.0 23.57489453125
  endloop
 endfacet
 facet normal -0.27899178862571716 0.0 0.9602934718132019
  outer loop
   vertex -7.41640771484375 -12.0 22.82535546875
   vertex -5.96855712890625 -12.0 23.24599609375
   vertex -7.41640771484375 24.0 22.82535546875
  endloop
 endfacet
 facet normal -0.21814343333244324 0.0 0.9759168028831482
  outer loop
   vertex -5.96855712890625 -12.0 23.24599609375
   vertex -4.4971513671875005 -12.0 23.57489453125
   vertex -4.4971513671875005 24.0 23.57489453125
  endloop
 endfacet
 facet normal -0.156433567404747 0.0 0.987688422203064
  outer loop
   vertex -4.4971513671875005 24.0 23.57489453125
   vertex -3.00799755859375 -12.0 23.810751953125
   vertex -3.00799755859375 24.0 23.810751953125
  endloop
 endfacet
 facet normal -0.09410832077264786 0.0 0.995561957359314
  outer loop
   vertex -3.00799755859375 24.0 23.810751953125
   vertex -3.00799755859375 -12.0 23.810751953125
   vertex -1.506972412109375 24.0 23.952640625
  endloop
 endfacet
 facet normal -0.156433567404747 0.0 0.987688422203064
  outer loop
   vertex -4.4971513671875005 -12.0 23.57489453125
   vertex -3.00799755859375 -12.0 23.810751953125
   vertex -4.4971513671875005 24.0 23.57489453125
  endloop
 endfacet
 facet normal -0.09410832077264786 0.0 0.995561957359314
  outer loop
   vertex -3.00799755859375 -12.0 23.810751953125
   vertex -1.506972412109375 -12.0 23.952640625
   vertex -1.506972412109375 24.0 23.952640625
  endloop
 endfacet
 facet normal -0.03141132742166519 0.0 0.9995065331459045
  outer loop
   vertex -1.506972412109375 -12.0 23.952640625
   vertex -4.40872859053254e-15 -12.0 24.0
   vertex -1.506972412109375 24.0 23.952640625
  endloop
 endfacet
 facet normal -0.03141132742166519 0.0 0.9995065331459045
  outer loop
   vertex -1.506972412109375 24.0 23.952640625
   vertex -4.40872859053254e-15 -12.0 24.0
   vertex -4.40872859053254e-15 24.0 24.0
  endloop
 endfacet
 facet normal 0.03141132742166519 0.0 0.9995065331459045
  outer loop
   vertex -4.40872859053254e-15 24.0 24.0
   vertex -4.40872859053254e-15 -12.0 24.0
   vertex 1.506972412109375 24.0 23.952640625
  endloop
 endfacet
 facet normal 0.03141132742166519 0.0 0.9995065331459045
  outer loop
   vertex -4.40872859053254e-15 -12.0 24.0
   vertex 1.506972412109375 -12.0 23.952640625
   vertex 1.506972412109375 24.0 23.952640625
  endloop
 endfacet
 facet normal 0.09410832077264786 -0.0 0.995561957359314
  outer loop
   vertex 1.506972412109375 -12.0 23.952640625
   vertex 3.00799755859375 -12.0 23.810751953125
   vertex 1.506972412109375 24.0 23.952640625
  endloop
 endfacet
 facet normal 0.09410832077264786 0.0 0.995561957359314
  outer loop
   vertex 1.506972412109375 24.0 23.952640625
   vertex 3.00799755859375 -12.0 23.810751953125
   vertex 3.00799755859375 24.0 23.810751953125
  endloop
 endfacet
 facet normal 0.156433567404747 0.0 0.987688422203064
  outer loop
   vertex 3.00799755859375 24.0 23.810751953125
   vertex 3.00799755859375 -12.0 23.810751953125
   vertex 4.4971513671875005 24.0 23.57489453125
  endloop
 endfacet
 facet normal 0.156433567404747 0.0 0.987688422203064
  outer loop
   vertex 3.00799755859375 -12.0 23.810751953125
   vertex 4.4971513671875005 -12.0 23.57489453125
   vertex 4.4971513671875005 24.0 23.57489453125
  endloop
 endfacet
 facet normal 0.21814343333244324 -0.0 0.9759168028831482
  outer loop
   vertex 4.4971513671875005 -12.0 23.57489453125
   vertex 5.96855712890625 -12.0 23.24599609375
   vertex 4.4971513671875005 24.0 23.57489453125
  endloop
 endfacet
 facet normal 0.21814343333244324 0.0 0.9759168028831482
  outer loop
   vertex 4.4971513671875005 24.0 23.57489453125
   vertex 5.96855712890625 -12.0 23.24599609375
   vertex 5.96855712890625 24.0 23.24599609375
  endloop
 endfacet
 facet normal 0.27899178862571716 0.0 0.9602934718132019
  outer loop
   vertex 5.96855712890625 24.0 23.24599609375
   vertex 5.96855712890625 -12.0 23.24599609375
   vertex 7.41640771484375 24.0 22.82535546875
  endloop
 endfacet
 facet normal 0.27899178862571716 0.0 0.9602934718132019
  outer loop
   vertex 5.96855712890625 -12.0 23.24599609375
   vertex 7.41640771484375 -12.0 22.82535546875
   vertex 7.41640771484375 24.0 22.82535546875
  endloop
 endfacet
 facet normal 0.3387378752231598 -0.0 0.9408807754516602
  outer loop
   vertex 7.41640771484375 -12.0 22.82535546875
   vertex 8.8349892578125 -12.0 22.314634765625
   vertex 7.41640771484375 24.0 22.82535546875
  endloop
 endfacet
 facet normal 0.3387378752231598 0.0 0.9408807754516602
  outer loop
   vertex 7.41640771484375 24.0 22.82535546875
   vertex 8.8349892578125 -12.0 22.314634765625
   vertex 8.8349892578125 24.0 22.314634765625
  endloop
 endfacet
 facet normal 0.39714714884757996 0.0 0.9177549481391907
  outer loop
   vertex 8.8349892578125 24.0 22.314634765625
   vertex 8.8349892578125 -12.0 22.314634765625
   vertex 10.218703125 24.0 21.715849609375
  endloop
 endfacet
 facet normal 0.39714714884757996 0.0 0.9177549481391907
  outer loop
   vertex 8.8349892578125 -12.0 22.314634765625
   vertex 10.218703125 -12.0 21.715849609375
   vertex 10.218703125 24.0 21.715849609375
  endloop
 endfacet
 facet normal 0.4539912939071655 -0.0 0.8910061120986938
  outer loop
   vertex 10.218703125 -12.0 21.715849609375
   vertex 11.562087890625 -12.0 21.031359375
   vertex 10.218703125 24.0 21.715849609375
  endloop
 endfacet
 facet normal 0.4539912939071655 0.0 0.8910061120986938
  outer loop
   vertex 10.218703125 24.0 21.715849609375
   vertex 11.562087890625 -12.0 21.031359375
   vertex 11.562087890625 24.0 21.031359375
  endloop
 endfacet
 facet normal 0.5090404748916626 0.0 0.8607425093650818
  outer loop
   vertex 11.562087890625 24.0 21.031359375
   vertex 11.562087890625 -12.0 21.031359375
   vertex 12.859842773437501 24.0 20.26387109375
  endloop
 endfacet
 facet normal 0.5090404748916626 0.0 0.8607425093650818
  outer loop
   vertex 11.562087890625 -12.0 21.031359375
   vertex 12.859842773437501 -12.0 20.26387109375
   vertex 12.859842773437501 24.0 20.26387109375
  endloop
 endfacet
 facet normal 0.5620836615562439 0.0 0.8270803689956665
  outer loop
   vertex 12.859842773437501 24.0 20.26387109375
   vertex 12.859842773437501 -12.0 20.26387109375
   vertex 14.106845703125 24.0 19.416408203125002
  endloop
 endfacet
 facet normal 0.5620836615562439 0.0 0.8270803689956665
  outer loop
   vertex 12.859842773437501 -12.0 20.26387109375
   vertex 14.106845703125 -12.0 19.416408203125002
   vertex 14.106845703125 24.0 19.416408203125002
  endloop
 endfacet
 facet normal 0.612906813621521 -0.0 0.7901551723480225
  outer loop
   vertex 14.106845703125 -12.0 19.416408203125002
   vertex 15.29817578125 -12.0 18.492318359375002
   vertex 14.106845703125 24.0 19.416408203125002
  endloop
 endfacet
 facet normal 0.612906813621521 0.0 0.7901551723480225
  outer loop
   vertex 14.106845703125 24.0 19.416408203125002
   vertex 15.29817578125 -12.0 18.492318359375002
   vertex 15.29817578125 24.0 18.492318359375002
  endloop
 endfacet
 facet normal 0.6613122820854187 -0.0 0.7501106858253479
  outer loop
   vertex 15.29817578125 -12.0 18.492318359375002
   vertex 16.429130859375 -12.0 17.49524609375
   vertex 15.29817578125 24.0 18.492318359375002
  endloop
 endfacet
 facet normal 0.6613122820854187 0.0 0.7501106858253479
  outer loop
   vertex 15.29817578125 24.0 18.492318359375002
   vertex 16.429130859375 -12.0 17.49524609375
   vertex 16.429130859375 24.0 17.49524609375
  endloop
 endfacet
 facet normal 0.7071067690849304 0.0 0.7071067690849304
  outer loop
   vertex 16.429130859375 24.0 17.49524609375
   vertex 16.429130859375 -12.0 17.49524609375
   vertex 17.49524609375 24.0 16.429130859375
  endloop
 endfacet
 facet normal 0.7071067690849304 0.0 0.7071067690849304
  outer loop
   vertex 16.429130859375 -12.0 17.49524609375
   vertex 17.49524609375 -12.0 16.429130859375
   vertex 17.49524609375 24.0 16.429130859375
  endloop
 endfacet
 facet normal 0.7501106858253479 0.0 0.6613122820854187
  outer loop
   vertex 17.49524609375 24.0 16.429130859375
   vertex 17.49524609375 -12.0 16.429130859375
   vertex 18.492318359375002 24.0 15.29817578125
  endloop
 endfacet
 facet normal 0.7501106858253479 0.0 0.6613122820854187
  outer loop
   vertex 17.49524609375 -12.0 16.429130859375
   vertex 18.492318359375002 -12.0 15.29817578125
   vertex 18.492318359375002 24.0 15.29817578125
  endloop
 endfacet
 facet normal 0.7901551723480225 -0.0 0.612906813621521
  outer loop
   vertex 18.492318359375002 -12.0 15.29817578125
   vertex 19.416408203125002 -12.0 14.106845703125
   vertex 18.492318359375002 24.0 15.29817578125
  endloop
 endfacet
 facet normal 0.7901551723480225 0.0 0.612906813621521
  outer loop
   vertex 18.492318359375002 24.0 15.29817578125
   vertex 19.416408203125002 -12.0 14.106845703125
   vertex 19.416408203125002 24.0 14.106845703125
  endloop
 endfacet
 facet normal 0.8270803689956665 -0.0 0.5620836615562439
  outer loop
   vertex 19.416408203125002 -12.0 14.106845703125
   vertex 20.26387109375 -12.0 12.859842773437501
   vertex 19.416408203125002 24.0 14.106845703125
  endloop
 endfacet
 facet normal 0.8270803689956665 0.0 0.5620836615562439
  outer loop
   vertex 19.416408203125002 24.0 14.106845703125
   vertex 20.26387109375 -12.0 12.859842773437501
   vertex 20.26387109375 24.0 12.859842773437501
  endloop
 endfacet
 facet normal 0.8607425093650818 0.0 0.5090404748916626
  outer loop
   vertex 20.26387109375 24.0 12.859842773437501
   vertex 20.26387109375 -12.0 12.859842773437501
   vertex 21.031359375 24.0 11.562087890625
  endloop
 endfacet
 facet normal 0.8607425093650818 0.0 0.5090404748916626
  outer loop
   vertex 20.26387109375 -12.0 12.859842773437501
   vertex 21.031359375 -12.0 11.562087890625
   vertex 21.031359375 24.0 11.562087890625
  endloop
 endfacet
 facet normal 0.8910061120986938 0.0 0.4539912939071655
  outer loop
   vertex 21.031359375 24.0 11.562087890625
   vertex 21.031359375 -12.0 11.562087890625
   vertex 21.715849609375 24.0 10.218703125
  endloop
 endfacet
 facet normal 0.8910061120986938 0.0 0.4539912939071655
  outer loop
   vertex 21.031359375 -12.0 11.562087890625
   vertex 21.715849609375 -12.0 10.218703125
   vertex 21.715849609375 24.0 10.218703125
  endloop
 endfacet
 facet normal 0.9177549481391907 -0.0 0.39714714884757996
  outer loop
   vertex 21.715849609375 -12.0 10.218703125
   vertex 22.314634765625 -12.0 8.8349892578125
   vertex 21.715849609375 24.0 10.218703125
  endloop
 endfacet
 facet normal 0.9177549481391907 0.0 0.39714714884757996
  outer loop
   vertex 21.715849609375 24.0 10.218703125
   vertex 22.314634765625 -12.0 8.8349892578125
   vertex 22.314634765625 24.0 8.8349892578125
  endloop
 endfacet
 facet normal 0.9408807754516602 -0.0 0.3387378752231598
  outer loop
   vertex 22.314634765625 -12.0 8.8349892578125
   vertex 22.82535546875 -12.0 7.41640771484375
   vertex 22.314634765625 24.0 8.8349892578125
  endloop
 endfacet
 facet normal 0.9408807754516602 0.0 0.3387378752231598
  outer loop
   vertex 22.314634765625 24.0 8.8349892578125
   vertex 22.82535546875 -12.0 7.41640771484375
   vertex 22.82535546875 24.0 7.41640771484375
  endloop
 endfacet
 facet normal 0.9602934718132019 -0.0 0.27899178862571716
  outer loop
   vertex 22.82535546875 -12.0 7.41640771484375
   vertex 23.24599609375 -12.0 5.96855712890625
   vertex 22.82535546875 24.0 7.41640771484375
  endloop
 endfacet
 facet normal 0.9602934718132019 0.0 0.27899178862571716
  outer loop
   vertex 22.82535546875 24.0 7.41640771484375
   vertex 23.24599609375 -12.0 5.96855712890625
   vertex 23.24599609375 24.0 5.96855712890625
  endloop
 endfacet
 facet normal 0.9759168028831482 0.0 0.21814343333244324
  outer loop
   vertex 23.24599609375 24.0 5.96855712890625
   vertex 23.24599609375 -12.0 5.96855712890625
   vertex 23.57489453125 24.0 4.4971513671875005
  endloop
 endfacet
 facet normal 0.9759168028831482 0.0 0.21814343333244324
  outer loop
   vertex 23.24599609375 -12.0 5.96855712890625
   vertex 23.57489453125 -12.0 4.4971513671875005
   vertex 23.57489453125 24.0 4.4971513671875005
  endloop
 endfacet
 facet normal 0.987688422203064 0.0 0.156433567404747
  outer loop
   vertex 23.57489453125 24.0 4.4971513671875005
   vertex 23.57489453125 -12.0 4.4971513671875005
   vertex 23.810751953125 24.0 3.00799755859375
  endloop
 endfacet
 facet normal 0.987688422203064 0.0 0.156433567404747
  outer loop
   vertex 23.57489453125 -12.0 4.4971513671875005
   vertex 23.810751953125 -12.0 3.00799755859375
   vertex 23.810751953125 24.0 3.00799755859375
  endloop
 endfacet
 facet normal 0.9995065331459045 0.0 0.03141132742166519
  outer loop
   vertex 23.952640625 24.0 1.506972412109375
   vertex 23.952640625 -12.0 1.506972412109375
   vertex 24.0 24.0 1.3871910564677847e-14
  endloop
 endfacet
 facet normal 0.995561957359314 -0.0 0.09410832077264786
  outer loop
   vertex 23.810751953125 -12.0 3.00799755859375
   vertex 23.952640625 -12.0 1.506972412109375
   vertex 23.810751953125 24.0 3.00799755859375
  endloop
 endfacet
 facet normal 0.995561957359314 0.0 0.09410832077264786
  outer loop
   vertex 23.810751953125 24.0 3.00799755859375
   vertex 23.952640625 -12.0 1.506972412109375
   vertex 23.952640625 24.0 1.506972412109375
  endloop
 endfacet
 facet normal 0.9995065331459045 0.0 0.03141132742166519
  outer loop
   vertex 23.952640625 -12.0 1.506972412109375
   vertex 24.0 -12.0 5.87830478737672e-15
   vertex 24.0 24.0 1.3871910564677847e-14
  endloop
 endfacet
endsolid patch_3_0
