solid patch_0_0
 facet normal 0.0 0.0 -1.0
  outer loop
   vertex -4.431634765625 -0.7814168090820313 -0.5
   vertex 0.22550221252441408 -3.006517822265625 -0.5
   vertex -4.37382470703125 -1.0581395263671876 -0.5
  endloop
 endfacet
 facet normal 0.0 0.0 -1.0
  outer loop
   vertex -4.37382470703125 -1.0581395263671876 -0.5
   vertex 0.22550221252441408 -3.006517822265625 -0.5
   vertex -4.29875244140625 -1.330686279296875 -0.5
  endloop
 endfacet
 facet normal 0.0 0.0 -1.0
  outer loop
   vertex -4.29875244140625 -1.330686279296875 -0.5
   vertex 0.22550221252441408 -3.006517822265625 -0.5
   vertex -4.2067153320312505 -1.5979813232421876 -0.5
  endloop
 endfacet
 facet normal 0.0 0.0 -1.0
  outer loop
   vertex -4.2067153320312505 -1.5979813232421876 -0.5
   vertex 0.22550221252441408 -3.006517822265625 -0.5
   vertex -4.09807666015625 -1.858969970703125 -0.5
  endloop
 endfacet
 facet normal 0.0 0.0 -1.0
  outer loop
   vertex -4.09807666015625 -1.858969970703125 -0.5
   vertex 0.22550221252441408 -3.006517822265625 -0.5
   vertex -3.97326416015625 -2.1126220703125 -0.5
  endloop
 endfacet
 facet normal 0.0 0.0 -1.0
  outer loop
   vertex -3.97326416015625 -2.1126220703125 -0.5
   vertex 0.22550221252441408 -3.006517822265625 -0.5
   vertex -3.832771240234375 -2.3579365234375 -0.5
  endloop
 endfacet
 facet normal 0.0 0.0 -1.0
  outer loop
   vertex -3.832771240234375 -2.3579365234375 -0.5
   vertex 0.22550221252441408 -3.006517822265625 -0.5
   vertex -3.677152099609375 -2.5939453125000003 -0.5
  endloop
 endfacet
 facet normal 0.0 0.0 -1.0
  outer loop
   vertex -3.677152099609375 -2.5939453125000003 -0.5
   vertex 0.22550221252441408 -3.006517822265625 -0.5
   vertex -3.507020751953125 -2.819717041015625 -0.5
  endloop
 endfacet
 facet normal 0.0 0.0 -1.0
  outer loop
   vertex -3.507020751953125 -2.819717041015625 -0.5
   vertex 0.22550221252441408 -3.006517822265625 -0.5
   vertex -3.323049072265625 -3.03436083984375 -0.5
  endloop
 endfacet
 facet normal 0.0 0.0 -1.0
  outer loop
   vertex -3.323049072265625 -3.03436083984375 -0.5
   vertex 0.22550221252441408 -3.006517822265625 -0.5
   vertex -3.1259626464843753 -3.2370290527343752 -0.5
  endloop
 endfacet
 facet normal 0.0 0.0 -1.0
  outer loop
   vertex -3.1259626464843753 -3.2370290527343752 -0.5
   vertex 0.22550221252441408 -3.006517822265625 -0.5
   vertex -2.91653955078125 -3.42692236328125 -0.5
  endloop
 endfacet
 facet normal 0.0 0.0 -1.0
  outer loop
   vertex -2.91653955078125 -3.42692236328125 -0.5
   vertex 0.22550221252441408 -3.006517822265625 -0.5
   vertex -2.695606201171875 -3.603291259765625 -0.5
  endloop
 endfacet
 facet normal 0.0 0.0 -1.0
  outer loop
   vertex -2.695606201171875 -3.603291259765625 -0.5
   vertex 0.22550221252441408 -3.006517822265625 -0.5
   vertex -2.464034423828125 -3.765439453125 -0.5
  endloop
 endfacet
 facet normal 0.0 0.0 -1.0
  outer loop
   vertex -2.464034423828125 -3.765439453125 -0.5
   vertex 0.22550221252441408 -3.006517822265625 -0.5
   vertex -2.22273828125 -3.912727294921875 -0.5
  endloop
 endfacet
 facet normal 0.0 0.0 -1.0
  outer loop
   vertex -2.22273828125 -3.912727294921875 -0.5
   vertex 0.22550221252441408 -3.006517822265625 -0.5
   vertex -1.972670166015625 -4.0445732421875 -0.5
  endloop
 endfacet
 facet normal 0.0 0.0 -1.0
  outer loop
   vertex -1.972670166015625 -4.0445732421875 -0.5
   vertex 0.22550221252441408 -3.006517822265625 -0.5
   vertex -1.714816650390625 -4.16045703125 -0.5
  endloop
 endfacet
 facet normal 0.0 0.0 -1.0
  outer loop
   vertex -1.714816650390625 -4.16045703125 -0.5
   vertex 0.22550221252441408 -3.006517822265625 -0.5
   vertex -1.4501956787109376 -4.259921875 -0.5
  endloop
 endfacet
 facet normal 0.0 0.0 -1.0
  outer loop
   vertex -1.4501956787109376 -4.259921875 -0.5
   vertex 0.22550221252441408 -3.006517822265625 -0.5
   vertex -1.179851318359375 -4.34257421875 -0.5
  endloop
 endfacet
 facet normal 0.0 0.0 -1.0
  outer loop
   vertex -1.179851318359375 -4.34257421875 -0.5
   vertex 0.22550221252441408 -3.006517822265625 -0.5
   vertex -0.9048506469726563 -4.4080888671875 -0.5
  endloop
 endfacet
 facet normal 0.0 0.0 -1.0
  outer loop
   vertex -0.9048506469726563 -4.4080888671875 -0.5
   vertex 0.22550221252441408 -3.006517822265625 -0.5
   vertex -0.6262789306640625 -4.45620654296875 -0.5
  endloop
 endfacet
 facet normal 0.0 0.0 -1.0
  outer loop
   vertex -0.6262789306640625 -4.45620654296875 -0.5
   vertex 0.22550221252441408 -3.006517822265625 -0.5
   vertex -0.34523562622070314 -4.4867373046875 -0.5
  endloop
 endfacet
 facet normal 0.0 0.0 -1.0
  outer loop
   vertex -0.34523562622070314 -4.4867373046875 -0.5
   vertex 0.22550221252441408 -3.006517822265625 -0.5
   vertex -0.0628298110961914 -4.4995615234375 -0.5
  endloop
 endfacet
 facet normal 0.0 0.0 -1.0
  outer loop
   vertex -0.0628298110961914 -4.4995615234375 -0.5
   vertex 0.22550221252441408 -3.006517822265625 -0.5
   vertex 0.21982395935058593 -4.49462744140625 -0.5
  endloop
 endfacet
 facet normal 0.0 0.0 -1.0
  outer loop
   vertex 0.21982395935058593 -4.49462744140625 -0.5
   vertex 0.22550221252441408 -3.006517822265625 -0.5
   vertex 0.5016101989746093 -4.47195556640625 -0.5
  endloop
 endfacet
 facet normal 0.0 0.0 -1.0
  outer loop
   vertex 0.5016101989746093 -4.47195556640625 -0.5
   vertex 0.22550221252441408 -3.006517822265625 -0.5
   vertex 0.7814168090820313 -4.431634765625 -0.5
  endloop
 endfacet
 facet normal 0.0 0.0 -1.0
  outer loop
   vertex 0.22550221252441408 -3.006517822265625 -0.5
   vertex 0.8163868408203125 -2.902328857421875 -0.5
   vertex 0.7814168090820313 -4.431634765625 -0.5
  endloop
 endfacet
 facet normal 0.0 0.0 -1.0
  outer loop
   vertex 0.7814168090820313 -4.431634765625 -0.5
   vertex 0.8163868408203125 -2.902328857421875 -0.5
   vertex 1.0581395263671876 -4.37382470703125 -0.5
  endloop
 endfacet
 facet normal 0.0 0.0 -1.0
  outer loop
   vertex 1.0581395263671876 -4.37382470703125 -0.5
   vertex 0.8163868408203125 -2.902328857421875 -0.5
   vertex 1.330686279296875 -4.29875244140625 -0.5
  endloop
 endfacet
 facet normal 0.0 0.0 -1.0
  outer loop
   vertex 1.330686279296875 -4.29875244140625 -0.5
   vertex 0.8163868408203125 -2.902328857421875 -0.5
   vertex 1.5979813232421876 -4.2067153320312505 -0.5
  endloop
 endfacet
 facet normal 0.0 0.0 -1.0
  outer loop
   vertex 1.5979813232421876 -4.2067153320312505 -0.5
   vertex 0.8163868408203125 -2.902328857421875 -0.5
   vertex 1.858969970703125 -4.09807666015625 -0.5
  endloop
 endfacet
 facet normal 0.0 0.0 -1.0
  outer loop
   vertex 1.858969970703125 -4.09807666015625 -0.5
   vertex 0.8163868408203125 -2.902328857421875 -0.5
   vertex 2.1126220703125 -3.97326416015625 -0.5
  endloop
 endfacet
 facet normal 0.0 0.0 -1.0
  outer loop
   vertex 0.8163868408203125 -2.902328857421875 -0.5
   vertex 2.3579365234375 -3.832771240234375 -0.5
   vertex 2.1126220703125 -3.97326416015625 -0.5
  endloop
 endfacet
 facet normal 0.0 0.0 -1.0
  outer loop
   vertex 0.8163868408203125 -2.902328857421875 -0.5
   vertex 2.5939453125000003 -3.677152099609375 -0.5
   vertex 2.3579365234375 -3.832771240234375 -0.5
  endloop
 endfacet
 facet normal 0.0 0.0 -1.0
  outer loop
   vertex 0.8163868408203125 -2.902328857421875 -0.5
   vertex 2.819717041015625 -3.507020751953125 -0.5
   vertex 2.5939453125000003 -3.677152099609375 -0.5
  endloop
 endfacet
 facet normal 0.0 0.0 -1.0
  outer loop
   vertex 0.8163868408203125 -2.902328857421875 -0.5
   vertex 3.03436083984375 -3.323049072265625 -0.5
   vertex 2.819717041015625 -3.507020751953125 -0.5
  endloop
 endfacet
 facet normal 0.0 0.0 -1.0
  outer loop
   vertex 0.8163868408203125 -2.902328857421875 -0.5
   vertex 3.2370290527343752 -3.1259626464843753 -0.5
   vertex 3.03436083984375 -3.323049072265625 -0.5
  endloop
 endfacet
 facet normal 0.0 0.0 -1.0
  outer loop
   vertex 0.8163868408203125 -2.902328857421875 -0.5
   vertex 3.42692236328125 -2.91653955078125 -0.5
   vertex 3.2370290527343752 -3.1259626464843753 -0.5
  endloop
 endfacet
 facet normal 0.0 0.0 -1.0
  outer loop
   vertex 0.8163868408203125 -2.902328857421875 -0.5
   vertex 3.603291259765625 -2.695606201171875 -0.5
   vertex 3.42692236328125 -2.91653955078125 -0.5
  endloop
 endfacet
 facet normal 0.0 0.0 -1.0
  outer loop
   vertex 0.8163868408203125 -2.902328857421875 -0.5
   vertex 3.765439453125 -2.464034423828125 -0.5
   vertex 3.603291259765625 -2.695606201171875 -0.5
  endloop
 endfacet
 facet normal 0.0 0.0 -1.0
  outer loop
   vertex 0.8163868408203125 -2.902328857421875 -0.5
   vertex 3.912727294921875 -2.22273828125 -0.5
   vertex 3.765439453125 -2.464034423828125 -0.5
  endloop
 endfacet
 facet normal 0.0 0.0 -1.0
  outer loop
   vertex 0.8163868408203125 -2.902328857421875 -0.5
   vertex 4.0445732421875 -1.972670166015625 -0.5
   vertex 3.912727294921875 -2.22273828125 -0.5
  endloop
 endfacet
 facet normal 0.0 0.0 -1.0
  outer loop
   vertex 0.8163868408203125 -2.902328857421875 -0.5
   vertex 4.16045703125 -1.714816650390625 -0.5
   vertex 4.0445732421875 -1.972670166015625 -0.5
  endloop
 endfacet
 facet normal 0.0 0.0 -1.0
  outer loop
   vertex 0.8163868408203125 -2.902328857421875 -0.5
   vertex 4.259921875 -1.4501956787109376 -0.5
   vertex 4.16045703125 -1.714816650390625 -0.5
  endloop
 endfacet
 facet normal 0.0 0.0 -1.0
  outer loop
   vertex 0.8163868408203125 -2.902328857421875 -0.5
   vertex 4.34257421875 -1.179851318359375 -0.5
   vertex 4.259921875 -1.4501956787109376 -0.5
  endloop
 endfacet
 facet normal 0.0 0.0 -1.0
  outer loop
   vertex 0.8163868408203125 -2.902328857421875 -0.5
   vertex 4.4080888671875 -0.9048506469726563 -0.5
   vertex 4.34257421875 -1.179851318359375 -0.5
  endloop
 endfacet
 facet normal 0.0 -0.0 -1.0
  outer loop
   vertex -2.3579365234375 3.832771240234375 -0.5
   vertex -0.8163868408203125 2.902328857421875 -0.5
   vertex -2.5939453125000003 3.677152099609375 -0.5
  endloop
 endfacet
 facet normal 0.0 -0.0 -1.0
  outer loop
   vertex -2.5939453125000003 3.677152099609375 -0.5
   vertex -0.8163868408203125 2.902328857421875 -0.5
   vertex -2.819717041015625 3.507020751953125 -0.5
  endloop
 endfacet
 facet normal 0.0 -0.0 -1.0
  outer loop
   vertex -2.819717041015625 3.507020751953125 -0.5
   vertex -0.8163868408203125 2.902328857421875 -0.5
   vertex -3.03436083984375 3.323049072265625 -0.5
  endloop
 endfacet
 facet normal 0.0 -0.0 -1.0
  outer loop
   vertex -3.03436083984375 3.323049072265625 -0.5
   vertex -0.8163868408203125 2.902328857421875 -0.5
   vertex -3.2370290527343752 3.1259626464843753 -0.5
  endloop
 endfacet
 facet normal 0.0 -0.0 -1.0
  outer loop
   vertex -3.2370290527343752 3.1259626464843753 -0.5
   vertex -0.8163868408203125 2.902328857421875 -0.5
   vertex -3.42692236328125 2.91653955078125 -0.5
  endloop
 endfacet
 facet normal 0.0 -0.0 -1.0
  outer loop
   vertex -3.42692236328125 2.91653955078125 -0.5
   vertex -0.8163868408203125 2.902328857421875 -0.5
   vertex -3.603291259765625 2.695606201171875 -0.5
  endloop
 endfacet
 facet normal 0.0 -0.0 -1.0
  outer loop
   vertex -3.603291259765625 2.695606201171875 -0.5
   vertex -0.8163868408203125 2.902328857421875 -0.5
   vertex -3.765439453125 2.464034423828125 -0.5
  endloop
 endfacet
 facet normal 0.0 -0.0 -1.0
  outer loop
   vertex -3.765439453125 2.464034423828125 -0.5
   vertex -0.8163868408203125 2.902328857421875 -0.5
   vertex -3.912727294921875 2.22273828125 -0.5
  endloop
 endfacet
 facet normal 0.0 -0.0 -1.0
  outer loop
   vertex -3.912727294921875 2.22273828125 -0.5
   vertex -0.8163868408203125 2.902328857421875 -0.5
   vertex -4.0445732421875 1.972670166015625 -0.5
  endloop
 endfacet
 facet normal 0.0 -0.0 -1.0
  outer loop
   vertex -4.0445732421875 1.972670166015625 -0.5
   vertex -0.8163868408203125 2.902328857421875 -0.5
   vertex -4.16045703125 1.714816650390625 -0.5
  endloop
 endfacet
 facet normal 0.0 -0.0 -1.0
  outer loop
   vertex -4.16045703125 1.714816650390625 -0.5
   vertex -0.8163868408203125 2.902328857421875 -0.5
   vertex -4.259921875 1.4501956787109376 -0.5
  endloop
 endfacet
 facet normal 0.0 -0.0 -1.0
  outer loop
   vertex -4.259921875 1.4501956787109376 -0.5
   vertex -0.8163868408203125 2.902328857421875 -0.5
   vertex -4.34257421875 1.179851318359375 -0.5
  endloop
 endfacet
 facet normal 0.0 -0.0 -1.0
  outer loop
   vertex -4.34257421875 1.179851318359375 -0.5
   vertex -0.8163868408203125 2.902328857421875 -0.5
   vertex -4.4080888671875 0.9048506469726563 -0.5
  endloop
 endfacet
 facet normal 0.0 -0.0 -1.0
  outer loop
   vertex -4.4080888671875 0.9048506469726563 -0.5
   vertex -0.8163868408203125 2.902328857421875 -0.5
   vertex -4.45620654296875 0.6262789306640625 -0.5
  endloop
 endfacet
 facet normal 0.0 -0.0 -1.0
  outer loop
   vertex -4.45620654296875 0.6262789306640625 -0.5
   vertex -0.8163868408203125 2.902328857421875 -0.5
   vertex -4.4867373046875 0.34523562622070314 -0.5
  endloop
 endfacet
 facet normal 0.0 -0.0 -1.0
  outer loop
   vertex -4.4867373046875 0.34523562622070314 -0.5
   vertex -0.8163868408203125 2.902328857421875 -0.5
   vertex -4.4995615234375 0.0628298110961914 -0.5
  endloop
 endfacet
 facet normal 0.0 0.0 -1.0
  outer loop
   vertex -4.4995615234375 0.0628298110961914 -0.5
   vertex -0.8163868408203125 2.902328857421875 -0.5
   vertex -4.49462744140625 -0.21982395935058593 -0.5
  endloop
 endfacet
 facet normal 0.0 0.0 -1.0
  outer loop
   vertex -4.49462744140625 -0.21982395935058593 -0.5
   vertex -0.8163868408203125 2.902328857421875 -0.5
   vertex -4.47195556640625 -0.5016101989746093 -0.5
  endloop
 endfacet
 facet normal 0.0 0.0 -1.0
  outer loop
   vertex -4.47195556640625 -0.5016101989746093 -0.5
   vertex -0.8163868408203125 2.902328857421875 -0.5
   vertex -4.431634765625 -0.7814168090820313 -0.5
  endloop
 endfacet
 facet normal 0.0 0.0 -1.0
  outer loop
   vertex -4.431634765625 -0.7814168090820313 -0.5
   vertex -0.8163868408203125 2.902328857421875 -0.5
   vertex 0.22550221252441408 -3.006517822265625 -0.5
  endloop
 endfacet
 facet normal 0.0 0.0 -1.0
  outer loop
   vertex 0.8163868408203125 -2.902328857421875 -0.5
   vertex 4.45620654296875 -0.6262789306640625 -0.5
   vertex 4.4080888671875 -0.9048506469726563 -0.5
  endloop
 endfacet
 facet normal 0.0 0.0 -1.0
  outer loop
   vertex -2.3579365234375 3.832771240234375 -0.5
   vertex -2.1126220703125 3.97326416015625 -0.5
   vertex -0.8163868408203125 2.902328857421875 -0.5
  endloop
 endfacet
 facet normal 0.0 0.0 -1.0
  outer loop
   vertex 0.8163868408203125 -2.902328857421875 -0.5
   vertex 4.4867373046875 -0.34523562622070314 -0.5
   vertex 4.45620654296875 -0.6262789306640625 -0.5
  endloop
 endfacet
 facet normal 0.0 0.0 -1.0
  outer loop
   vertex -2.1126220703125 3.97326416015625 -0.5
   vertex -1.858969970703125 4.09807666015625 -0.5
   vertex -0.8163868408203125 2.902328857421875 -0.5
  endloop
 endfacet
 facet normal 0.0 0.0 -1.0
  outer loop
   vertex 0.8163868408203125 -2.902328857421875 -0.5
   vertex 4.4995615234375 -0.0628298110961914 -0.5
   vertex 4.4867373046875 -0.34523562622070314 -0.5
  endloop
 endfacet
 facet normal 0.0 0.0 -1.0
  outer loop
   vertex -1.858969970703125 4.09807666015625 -0.5
   vertex -1.5979813232421876 4.2067153320312505 -0.5
   vertex -0.8163868408203125 2.902328857421875 -0.5
  endloop
 endfacet
 facet normal 0.0 0.0 -1.0
  outer loop
   vertex 0.8163868408203125 -2.902328857421875 -0.5
   vertex 4.49462744140625 0.21982395935058593 -0.5
   vertex 4.4995615234375 -0.0628298110961914 -0.5
  endloop
 endfacet
 facet normal 0.0 0.0 -1.0
  outer loop
   vertex -1.5979813232421876 4.2067153320312505 -0.5
   vertex -1.330686279296875 4.29875244140625 -0.5
   vertex -0.8163868408203125 2.902328857421875 -0.5
  endloop
 endfacet
 facet normal 0.0 0.0 -1.0
  outer loop
   vertex 0.8163868408203125 -2.902328857421875 -0.5
   vertex 4.47195556640625 0.5016101989746093 -0.5
   vertex 4.49462744140625 0.21982395935058593 -0.5
  endloop
 endfacet
 facet normal 0.0 0.0 -1.0
  outer loop
   vertex -1.330686279296875 4.29875244140625 -0.5
   vertex -1.0581395263671876 4.37382470703125 -0.5
   vertex -0.8163868408203125 2.902328857421875 -0.5
  endloop
 endfacet
 facet normal 0.0 0.0 -1.0
  outer loop
   vertex -0.22550221252441408 3.006517822265625 -0.5
   vertex 4.431634765625 0.7814168090820313 -0.5
   vertex 0.8163868408203125 -2.902328857421875 -0.5
  endloop
 endfacet
 facet normal 0.0 0.0 -1.0
  outer loop
   vertex 0.8163868408203125 -2.902328857421875 -0.5
   vertex 4.431634765625 0.7814168090820313 -0.5
   vertex 4.47195556640625 0.5016101989746093 -0.5
  endloop
 endfacet
 facet normal 0.0 0.0 -1.0
  outer loop
   vertex -0.8163868408203125 2.902328857421875 -0.5
   vertex -0.7814168090820313 4.431634765625 -0.5
   vertex -0.22550221252441408 3.006517822265625 -0.5
  endloop
 endfacet
 facet normal 0.0 0.0 -1.0
  outer loop
   vertex -1.0581395263671876 4.37382470703125 -0.5
   vertex -0.7814168090820313 4.431634765625 -0.5
   vertex -0.8163868408203125 2.902328857421875 -0.5
  endloop
 endfacet
 facet normal 0.0 0.0 -1.0
  outer loop
   vertex -0.22550221252441408 3.006517822265625 -0.5
   vertex 4.37382470703125 1.0581395263671876 -0.5
   vertex 4.431634765625 0.7814168090820313 -0.5
  endloop
 endfacet
 facet normal 0.0 0.0 -1.0
  outer loop
   vertex -0.7814168090820313 4.431634765625 -0.5
   vertex -0.5016101989746093 4.47195556640625 -0.5
   vertex -0.22550221252441408 3.006517822265625 -0.5
  endloop
 endfacet
 facet normal 0.0 0.0 -1.0
  outer loop
   vertex -0.5016101989746093 4.47195556640625 -0.5
   vertex -0.21982395935058593 4.49462744140625 -0.5
   vertex -0.22550221252441408 3.006517822265625 -0.5
  endloop
 endfacet
 facet normal 0.0 0.0 -1.0
  outer loop
   vertex -0.22550221252441408 3.006517822265625 -0.5
   vertex 4.29875244140625 1.330686279296875 -0.5
   vertex 4.37382470703125 1.0581395263671876 -0.5
  endloop
 endfacet
 facet normal 0.0 0.0 -1.0
  outer loop
   vertex -0.22550221252441408 3.006517822265625 -0.5
   vertex 4.2067153320312505 1.5979813232421876 -0.5
   vertex 4.29875244140625 1.330686279296875 -0.5
  endloop
 endfacet
 facet normal 0.0 -0.0 -1.0
  outer loop
   vertex -0.21982395935058593 4.49462744140625 -0.5
   vertex 0.0628298110961914 4.4995615234375 -0.5
   vertex -0.22550221252441408 3.006517822265625 -0.5
  endloop
 endfacet
 facet normal 0.0 0.0 -1.0
  outer loop
   vertex -0.22550221252441408 3.006517822265625 -0.5
   vertex 4.09807666015625 1.858969970703125 -0.5
   vertex 4.2067153320312505 1.5979813232421876 -0.5
  endloop
 endfacet
 facet normal 0.0 -0.0 -1.0
  outer loop
   vertex 0.0628298110961914 4.4995615234375 -0.5
   vertex 0.34523562622070314 4.4867373046875 -0.5
   vertex -0.22550221252441408 3.006517822265625 -0.5
  endloop
 endfacet
 facet normal 0.0 0.0 -1.0
  outer loop
   vertex -0.22550221252441408 3.006517822265625 -0.5
   vertex 3.97326416015625 2.1126220703125 -0.5
   vertex 4.09807666015625 1.858969970703125 -0.5
  endloop
 endfacet
 facet normal 0.0 -0.0 -1.0
  outer loop
   vertex 0.34523562622070314 4.4867373046875 -0.5
   vertex 0.6262789306640625 4.45620654296875 -0.5
   vertex -0.22550221252441408 3.006517822265625 -0.5
  endloop
 endfacet
 facet normal 0.0 0.0 -1.0
  outer loop
   vertex -0.22550221252441408 3.006517822265625 -0.5
   vertex 3.832771240234375 2.3579365234375 -0.5
   vertex 3.97326416015625 2.1126220703125 -0.5
  endloop
 endfacet
 facet normal 0.0 -0.0 -1.0
  outer loop
   vertex 0.6262789306640625 4.45620654296875 -0.5
   vertex 0.9048506469726563 4.4080888671875 -0.5
   vertex -0.22550221252441408 3.006517822265625 -0.5
  endloop
 endfacet
 facet normal 0.0 0.0 -1.0
  outer loop
   vertex -0.22550221252441408 3.006517822265625 -0.5
   vertex 3.677152099609375 2.5939453125000003 -0.5
   vertex 3.832771240234375 2.3579365234375 -0.5
  endloop
 endfacet
 facet normal 0.0 -0.0 -1.0
  outer loop
   vertex 0.9048506469726563 4.4080888671875 -0.5
   vertex 1.179851318359375 4.34257421875 -0.5
   vertex -0.22550221252441408 3.006517822265625 -0.5
  endloop
 endfacet
 facet normal 0.0 0.0 -1.0
  outer loop
   vertex -0.22550221252441408 3.006517822265625 -0.5
   vertex 3.507020751953125 2.819717041015625 -0.5
   vertex 3.677152099609375 2.5939453125000003 -0.5
  endloop
 endfacet
 facet normal 0.0 -0.0 -1.0
  outer loop
   vertex 1.179851318359375 4.34257421875 -0.5
   vertex 1.4501956787109376 4.259921875 -0.5
   vertex -0.22550221252441408 3.006517822265625 -0.5
  endloop
 endfacet
 facet normal 0.0 -0.0 -1.0
  outer loop
   vertex 1.4501956787109376 4.259921875 -0.5
   vertex 1.714816650390625 4.16045703125 -0.5
   vertex -0.22550221252441408 3.006517822265625 -0.5
  endloop
 endfacet
 facet normal 0.0 0.0 -1.0
  outer loop
   vertex -0.22550221252441408 3.006517822265625 -0.5
   vertex 3.323049072265625 3.03436083984375 -0.5
   vertex 3.507020751953125 2.819717041015625 -0.5
  endloop
 endfacet
 facet normal 0.0 -0.0 -1.0
  outer loop
   vertex 1.714816650390625 4.16045703125 -0.5
   vertex 1.972670166015625 4.0445732421875 -0.5
   vertex -0.22550221252441408 3.006517822265625 -0.5
  endloop
 endfacet
 facet normal 0.0 0.0 -1.0
  outer loop
   vertex -0.22550221252441408 3.006517822265625 -0.5
   vertex 3.1259626464843753 3.2370290527343752 -0.5
   vertex 3.323049072265625 3.03436083984375 -0.5
  endloop
 endfacet
 facet normal 0.0 -0.0 -1.0
  outer loop
   vertex 1.972670166015625 4.0445732421875 -0.5
   vertex 2.22273828125 3.912727294921875 -0.5
   vertex -0.22550221252441408 3.006517822265625 -0.5
  endloop
 endfacet
 facet normal 0.0 0.0 -1.0
  outer loop
   vertex -0.22550221252441408 3.006517822265625 -0.5
   vertex 2.91653955078125 3.42692236328125 -0.5
   vertex 3.1259626464843753 3.2370290527343752 -0.5
  endloop
 endfacet
 facet normal 0.0 0.0 -1.0
  outer loop
   vertex -0.22550221252441408 3.006517822265625 -0.5
   vertex 2.695606201171875 3.603291259765625 -0.5
   vertex 2.91653955078125 3.42692236328125 -0.5
  endloop
 endfacet
 facet normal 0.0 -0.0 -1.0
  outer loop
   vertex 2.22273828125 3.912727294921875 -0.5
   vertex 2.464034423828125 3.765439453125 -0.5
   vertex -0.22550221252441408 3.006517822265625 -0.5
  endloop
 endfacet
 facet normal 0.0 0.0 -1.0
  outer loop
   vertex -0.22550221252441408 3.006517822265625 -0.5
   vertex 2.464034423828125 3.765439453125 -0.5
   vertex 2.695606201171875 3.603291259765625 -0.5
  endloop
 endfacet
endsolid patch_0_0
