solid MeshRefinement002
 facet normal -0.9995065331459045 -0.03141132742166519 0.0
  outer loop
   vertex 4.4911201171875 0.2825573425292969 -0.5
   vertex 4.5 0.0 -0.5
   vertex 4.5 0.0 0.5
  endloop
 endfacet
 facet normal -0.9995065331459045 -0.03141132742166519 0.0
  outer loop
   vertex 4.4911201171875 0.2825573425292969 -0.5
   vertex 4.5 0.0 0.5
   vertex 4.4911201171875 0.2825573425292969 0.5
  endloop
 endfacet
 facet normal -0.995561957359314 -0.09410788863897324 0.0
  outer loop
   vertex 4.46451611328125 0.5639995727539062 -0.5
   vertex 4.4911201171875 0.2825573425292969 0.5
   vertex 4.46451611328125 0.5639995727539062 0.5
  endloop
 endfacet
 facet normal -0.9876882433891296 -0.1564348191022873 0.0
  outer loop
   vertex 4.46451611328125 0.5639995727539062 -0.5
   vertex 4.46451611328125 0.5639995727539062 0.5
   vertex 4.42029248046875 0.8432159423828125 0.5
  endloop
 endfacet
 facet normal -0.995561957359314 -0.09410788863897324 0.0
  outer loop
   vertex 4.46451611328125 0.5639995727539062 -0.5
   vertex 4.4911201171875 0.2825573425292969 -0.5
   vertex 4.4911201171875 0.2825573425292969 0.5
  endloop
 endfacet
 facet normal -0.9759166836738586 -0.21814341843128204 0.0
  outer loop
   vertex 4.42029248046875 0.8432159423828125 -0.5
   vertex 4.42029248046875 0.8432159423828125 0.5
   vertex 4.3586240234375 1.1191044921875 0.5
  endloop
 endfacet
 facet normal -0.9876882433891296 -0.1564348191022873 0.0
  outer loop
   vertex 4.42029248046875 0.8432159423828125 -0.5
   vertex 4.46451611328125 0.5639995727539062 -0.5
   vertex 4.42029248046875 0.8432159423828125 0.5
  endloop
 endfacet
 facet normal -0.9759166836738586 -0.21814341843128204 0.0
  outer loop
   vertex 4.3586240234375 1.1191044921875 -0.5
   vertex 4.42029248046875 0.8432159423828125 -0.5
   vertex 4.3586240234375 1.1191044921875 0.5
  endloop
 endfacet
 facet normal -0.9602940082550049 -0.2789902687072754 0.0
  outer loop
   vertex 4.27975439453125 1.390576416015625 -0.5
   vertex 4.3586240234375 1.1191044921875 0.5
   vertex 4.27975439453125 1.390576416015625 0.5
  endloop
 endfacet
 facet normal -0.9602940082550049 -0.2789902687072754 0.0
  outer loop
   vertex 4.27975439453125 1.390576416015625 -0.5
   vertex 4.3586240234375 1.1191044921875 -0.5
   vertex 4.3586240234375 1.1191044921875 0.5
  endloop
 endfacet
 facet normal -0.9408807158470154 -0.3387381434440613 0.0
  outer loop
   vertex 4.183994140625 1.656560546875 -0.5
   vertex 4.27975439453125 1.390576416015625 0.5
   vertex 4.183994140625 1.656560546875 0.5
  endloop
 endfacet
 facet normal -0.9408807158470154 -0.3387381434440613 0.0
  outer loop
   vertex 4.183994140625 1.656560546875 -0.5
   vertex 4.27975439453125 1.390576416015625 -0.5
   vertex 4.27975439453125 1.390576416015625 0.5
  endloop
 endfacet
 facet normal -0.9177545309066772 -0.3971479535102844 0.0
  outer loop
   vertex 4.0717216796875 1.9160068359375 -0.5
   vertex 4.183994140625 1.656560546875 0.5
   vertex 4.0717216796875 1.9160068359375 0.5
  endloop
 endfacet
 facet normal -0.9177545309066772 -0.3971479535102844 0.0
  outer loop
   vertex 4.0717216796875 1.9160068359375 -0.5
   vertex 4.183994140625 1.656560546875 -0.5
   vertex 4.183994140625 1.656560546875 0.5
  endloop
 endfacet
 facet normal -0.8910067677497864 -0.45399010181427 0.0
  outer loop
   vertex 3.9433801269531252 2.1678916015625 -0.5
   vertex 4.0717216796875 1.9160068359375 0.5
   vertex 3.9433801269531252 2.1678916015625 0.5
  endloop
 endfacet
 facet normal -0.8910067677497864 -0.45399010181427 0.0
  outer loop
   vertex 3.9433801269531252 2.1678916015625 -0.5
   vertex 4.0717216796875 1.9160068359375 -0.5
   vertex 4.0717216796875 1.9160068359375 0.5
  endloop
 endfacet
 facet normal -0.8607416152954102 -0.5090420842170715 0.0
  outer loop
   vertex 3.7994755859375 2.411220458984375 -0.5
   vertex 3.9433801269531252 2.1678916015625 0.5
   vertex 3.7994755859375 2.411220458984375 0.5
  endloop
 endfacet
 facet normal -0.8270807862281799 -0.5620830655097961 0.0
  outer loop
   vertex 3.7994755859375 2.411220458984375 -0.5
   vertex 3.7994755859375 2.411220458984375 0.5
   vertex 3.640576416015625 2.64503369140625 0.5
  endloop
 endfacet
 facet normal -0.8607416152954102 -0.5090420842170715 0.0
  outer loop
   vertex 3.7994755859375 2.411220458984375 -0.5
   vertex 3.9433801269531252 2.1678916015625 -0.5
   vertex 3.9433801269531252 2.1678916015625 0.5
  endloop
 endfacet
 facet normal -0.8270807862281799 -0.5620830655097961 0.0
  outer loop
   vertex 3.640576416015625 2.64503369140625 -0.5
   vertex 3.7994755859375 2.411220458984375 -0.5
   vertex 3.640576416015625 2.64503369140625 0.5
  endloop
 endfacet
 facet normal -0.7901549935340881 -0.6129070520401001 0.0
  outer loop
   vertex 3.4673095703125 2.868407958984375 -0.5
   vertex 3.640576416015625 2.64503369140625 0.5
   vertex 3.4673095703125 2.868407958984375 0.5
  endloop
 endfacet
 facet normal -0.7901549935340881 -0.6129070520401001 0.0
  outer loop
   vertex 3.4673095703125 2.868407958984375 -0.5
   vertex 3.640576416015625 2.64503369140625 -0.5
   vertex 3.640576416015625 2.64503369140625 0.5
  endloop
 endfacet
 facet normal -0.7501111030578613 -0.6613118648529053 0.0
  outer loop
   vertex 3.28035888671875 3.0804619140625 -0.5
   vertex 3.4673095703125 2.868407958984375 0.5
   vertex 3.28035888671875 3.0804619140625 0.5
  endloop
 endfacet
 facet normal -0.7501111030578613 -0.6613118648529053 0.0
  outer loop
   vertex 3.28035888671875 3.0804619140625 -0.5
   vertex 3.4673095703125 2.868407958984375 -0.5
   vertex 3.4673095703125 2.868407958984375 0.5
  endloop
 endfacet
 facet normal -0.7071067690849304 -0.7071067690849304 0.0
  outer loop
   vertex 3.0804619140625 3.28035888671875 -0.5
   vertex 3.28035888671875 3.0804619140625 0.5
   vertex 3.0804619140625 3.28035888671875 0.5
  endloop
 endfacet
 facet normal -0.7071067690849304 -0.7071067690849304 0.0
  outer loop
   vertex 3.0804619140625 3.28035888671875 -0.5
   vertex 3.28035888671875 3.0804619140625 -0.5
   vertex 3.28035888671875 3.0804619140625 0.5
  endloop
 endfacet
 facet normal -0.6613118648529053 -0.7501111030578613 0.0
  outer loop
   vertex 2.868407958984375 3.4673095703125 -0.5
   vertex 3.0804619140625 3.28035888671875 0.5
   vertex 2.868407958984375 3.4673095703125 0.5
  endloop
 endfacet
 facet normal -0.6613118648529053 -0.7501111030578613 0.0
  outer loop
   vertex 2.868407958984375 3.4673095703125 -0.5
   vertex 3.0804619140625 3.28035888671875 -0.5
   vertex 3.0804619140625 3.28035888671875 0.5
  endloop
 endfacet
 facet normal -0.6129070520401001 -0.7901549935340881 0.0
  outer loop
   vertex 2.64503369140625 3.640576416015625 -0.5
   vertex 2.868407958984375 3.4673095703125 0.5
   vertex 2.64503369140625 3.640576416015625 0.5
  endloop
 endfacet
 facet normal -0.6129070520401001 -0.7901549935340881 0.0
  outer loop
   vertex 2.64503369140625 3.640576416015625 -0.5
   vertex 2.868407958984375 3.4673095703125 -0.5
   vertex 2.868407958984375 3.4673095703125 0.5
  endloop
 endfacet
 facet normal -0.5620830655097961 -0.8270807862281799 0.0
  outer loop
   vertex 2.411220458984375 3.7994755859375 -0.5
   vertex 2.64503369140625 3.640576416015625 0.5
   vertex 2.411220458984375 3.7994755859375 0.5
  endloop
 endfacet
 facet normal -0.5620830655097961 -0.8270807862281799 0.0
  outer loop
   vertex 2.411220458984375 3.7994755859375 -0.5
   vertex 2.64503369140625 3.640576416015625 -0.5
   vertex 2.64503369140625 3.640576416015625 0.5
  endloop
 endfacet
 facet normal -0.5090420842170715 -0.8607416152954102 0.0
  outer loop
   vertex 2.1678916015625 3.9433801269531252 -0.5
   vertex 2.411220458984375 3.7994755859375 0.5
   vertex 2.1678916015625 3.9433801269531252 0.5
  endloop
 endfacet
 facet normal -0.5090420842170715 -0.8607416152954102 0.0
  outer loop
   vertex 2.1678916015625 3.9433801269531252 -0.5
   vertex 2.411220458984375 3.7994755859375 -0.5
   vertex 2.411220458984375 3.7994755859375 0.5
  endloop
 endfacet
 facet normal -0.45399010181427 -0.8910067677497864 0.0
  outer loop
   vertex 1.9160068359375 4.0717216796875 -0.5
   vertex 2.1678916015625 3.9433801269531252 0.5
   vertex 1.9160068359375 4.0717216796875 0.5
  endloop
 endfacet
 facet normal -0.45399010181427 -0.8910067677497864 0.0
  outer loop
   vertex 1.9160068359375 4.0717216796875 -0.5
   vertex 2.1678916015625 3.9433801269531252 -0.5
   vertex 2.1678916015625 3.9433801269531252 0.5
  endloop
 endfacet
 facet normal -0.3971479535102844 -0.9177545309066772 0.0
  outer loop
   vertex 1.656560546875 4.183994140625 -0.5
   vertex 1.9160068359375 4.0717216796875 0.5
   vertex 1.656560546875 4.183994140625 0.5
  endloop
 endfacet
 facet normal -0.3971479535102844 -0.9177545309066772 0.0
  outer loop
   vertex 1.656560546875 4.183994140625 -0.5
   vertex 1.9160068359375 4.0717216796875 -0.5
   vertex 1.9160068359375 4.0717216796875 0.5
  endloop
 endfacet
 facet normal -0.3387381434440613 -0.9408807158470154 0.0
  outer loop
   vertex 1.390576416015625 4.27975439453125 -0.5
   vertex 1.656560546875 4.183994140625 0.5
   vertex 1.390576416015625 4.27975439453125 0.5
  endloop
 endfacet
 facet normal -0.2789902687072754 -0.9602940082550049 0.0
  outer loop
   vertex 1.390576416015625 4.27975439453125 -0.5
   vertex 1.390576416015625 4.27975439453125 0.5
   vertex 1.1191044921875 4.3586240234375 0.5
  endloop
 endfacet
 facet normal -0.3387381434440613 -0.9408807158470154 0.0
  outer loop
   vertex 1.390576416015625 4.27975439453125 -0.5
   vertex 1.656560546875 4.183994140625 -0.5
   vertex 1.656560546875 4.183994140625 0.5
  endloop
 endfacet
 facet normal -0.2789902687072754 -0.9602940082550049 0.0
  outer loop
   vertex 1.1191044921875 4.3586240234375 -0.5
   vertex 1.390576416015625 4.27975439453125 -0.5
   vertex 1.1191044921875 4.3586240234375 0.5
  endloop
 endfacet
 facet normal -0.21814341843128204 -0.9759166836738586 0.0
  outer loop
   vertex 0.8432159423828125 4.42029248046875 -0.5
   vertex 1.1191044921875 4.3586240234375 0.5
   vertex 0.8432159423828125 4.42029248046875 0.5
  endloop
 endfacet
 facet normal -0.21814341843128204 -0.9759166836738586 0.0
  outer loop
   vertex 0.8432159423828125 4.42029248046875 -0.5
   vertex 1.1191044921875 4.3586240234375 -0.5
   vertex 1.1191044921875 4.3586240234375 0.5
  endloop
 endfacet
 facet normal -0.1564348191022873 -0.9876882433891296 0.0
  outer loop
   vertex 0.5639995727539062 4.46451611328125 -0.5
   vertex 0.8432159423828125 4.42029248046875 0.5
   vertex 0.5639995727539062 4.46451611328125 0.5
  endloop
 endfacet
 facet normal -0.1564348191022873 -0.9876882433891296 0.0
  outer loop
   vertex 0.5639995727539062 4.46451611328125 -0.5
   vertex 0.8432159423828125 4.42029248046875 -0.5
   vertex 0.8432159423828125 4.42029248046875 0.5
  endloop
 endfacet
 facet normal -0.09410788863897324 -0.995561957359314 0.0
  outer loop
   vertex 0.2825573425292969 4.4911201171875 -0.5
   vertex 0.5639995727539062 4.46451611328125 0.5
   vertex 0.2825573425292969 4.4911201171875 0.5
  endloop
 endfacet
 facet normal -0.09410788863897324 -0.995561957359314 0.0
  outer loop
   vertex 0.2825573425292969 4.4911201171875 -0.5
   vertex 0.5639995727539062 4.46451611328125 -0.5
   vertex 0.5639995727539062 4.46451611328125 0.5
  endloop
 endfacet
 facet normal -0.03141132742166519 -0.9995065331459045 0.0
  outer loop
   vertex -2.7220567379998563e-15 4.5 -0.5
   vertex 0.2825573425292969 4.4911201171875 -0.5
   vertex 0.2825573425292969 4.4911201171875 0.5
  endloop
 endfacet
 facet normal -0.03141132742166519 -0.9995065331459045 0.0
  outer loop
   vertex -2.7220567379998563e-15 4.5 -0.5
   vertex 0.2825573425292969 4.4911201171875 0.5
   vertex -2.7220567379998563e-15 4.5 0.5
  endloop
 endfacet
 facet normal 0.03141132742166519 -0.9995065331459045 0.0
  outer loop
   vertex -0.2825573425292969 4.4911201171875 -0.5
   vertex -2.7220567379998563e-15 4.5 -0.5
   vertex -2.7220567379998563e-15 4.5 0.5
  endloop
 endfacet
 facet normal 0.03141132742166519 -0.9995065331459045 0.0
  outer loop
   vertex -0.2825573425292969 4.4911201171875 -0.5
   vertex -2.7220567379998563e-15 4.5 0.5
   vertex -0.2825573425292969 4.4911201171875 0.5
  endloop
 endfacet
 facet normal 0.09410788863897324 -0.995561957359314 0.0
  outer loop
   vertex -0.2825573425292969 4.4911201171875 -0.5
   vertex -0.2825573425292969 4.4911201171875 0.5
   vertex -0.5639995727539062 4.46451611328125 0.5
  endloop
 endfacet
 facet normal 0.09410788863897324 -0.995561957359314 0.0
  outer loop
   vertex -0.5639995727539062 4.46451611328125 -0.5
   vertex -0.2825573425292969 4.4911201171875 -0.5
   vertex -0.5639995727539062 4.46451611328125 0.5
  endloop
 endfacet
 facet normal 0.1564348191022873 -0.9876882433891296 0.0
  outer loop
   vertex -0.5639995727539062 4.46451611328125 -0.5
   vertex -0.5639995727539062 4.46451611328125 0.5
   vertex -0.8432159423828125 4.42029248046875 0.5
  endloop
 endfacet
 facet normal 0.1564348191022873 -0.9876882433891296 0.0
  outer loop
   vertex -0.8432159423828125 4.42029248046875 -0.5
   vertex -0.5639995727539062 4.46451611328125 -0.5
   vertex -0.8432159423828125 4.42029248046875 0.5
  endloop
 endfacet
 facet normal 0.21814341843128204 -0.9759166836738586 0.0
  outer loop
   vertex -1.1191044921875 4.3586240234375 -0.5
   vertex -0.8432159423828125 4.42029248046875 -0.5
   vertex -0.8432159423828125 4.42029248046875 0.5
  endloop
 endfacet
 facet normal 0.21814341843128204 -0.9759166836738586 0.0
  outer loop
   vertex -1.1191044921875 4.3586240234375 -0.5
   vertex -0.8432159423828125 4.42029248046875 0.5
   vertex -1.1191044921875 4.3586240234375 0.5
  endloop
 endfacet
 facet normal 0.2789902687072754 -0.9602940082550049 0.0
  outer loop
   vertex -1.1191044921875 4.3586240234375 -0.5
   vertex -1.1191044921875 4.3586240234375 0.5
   vertex -1.390576416015625 4.27975439453125 0.5
  endloop
 endfacet
 facet normal 0.2789902687072754 -0.9602940082550049 0.0
  outer loop
   vertex -1.390576416015625 4.27975439453125 -0.5
   vertex -1.1191044921875 4.3586240234375 -0.5
   vertex -1.390576416015625 4.27975439453125 0.5
  endloop
 endfacet
 facet normal 0.3387381434440613 -0.9408807158470154 0.0
  outer loop
   vertex -1.656560546875 4.183994140625 -0.5
   vertex -1.390576416015625 4.27975439453125 -0.5
   vertex -1.390576416015625 4.27975439453125 0.5
  endloop
 endfacet
 facet normal 0.3387381434440613 -0.9408807158470154 0.0
  outer loop
   vertex -1.656560546875 4.183994140625 -0.5
   vertex -1.390576416015625 4.27975439453125 0.5
   vertex -1.656560546875 4.183994140625 0.5
  endloop
 endfacet
 facet normal 0.3971479535102844 -0.9177545309066772 0.0
  outer loop
   vertex -1.9160068359375 4.0717216796875 -0.5
   vertex -1.656560546875 4.183994140625 0.5
   vertex -1.9160068359375 4.0717216796875 0.5
  endloop
 endfacet
 facet normal 0.3971479535102844 -0.9177545309066772 0.0
  outer loop
   vertex -1.9160068359375 4.0717216796875 -0.5
   vertex -1.656560546875 4.183994140625 -0.5
   vertex -1.656560546875 4.183994140625 0.5
  endloop
 endfacet
 facet normal 0.45399010181427 -0.8910067677497864 0.0
  outer loop
   vertex -1.9160068359375 4.0717216796875 -0.5
   vertex -1.9160068359375 4.0717216796875 0.5
   vertex -2.1678916015625 3.9433801269531252 0.5
  endloop
 endfacet
 facet normal 0.45399010181427 -0.8910067677497864 0.0
  outer loop
   vertex -2.1678916015625 3.9433801269531252 -0.5
   vertex -1.9160068359375 4.0717216796875 -0.5
   vertex -2.1678916015625 3.9433801269531252 0.5
  endloop
 endfacet
 facet normal 0.5090420842170715 -0.8607416152954102 0.0
  outer loop
   vertex -2.411220458984375 3.7994755859375 -0.5
   vertex -2.1678916015625 3.9433801269531252 0.5
   vertex -2.411220458984375 3.7994755859375 0.5
  endloop
 endfacet
 facet normal 0.5620830655097961 -0.8270807862281799 0.0
  outer loop
   vertex -2.411220458984375 3.7994755859375 -0.5
   vertex -2.411220458984375 3.7994755859375 0.5
   vertex -2.64503369140625 3.640576416015625 0.5
  endloop
 endfacet
 facet normal 0.5090420842170715 -0.8607416152954102 0.0
  outer loop
   vertex -2.411220458984375 3.7994755859375 -0.5
   vertex -2.1678916015625 3.9433801269531252 -0.5
   vertex -2.1678916015625 3.9433801269531252 0.5
  endloop
 endfacet
 facet normal 0.5620830655097961 -0.8270807862281799 0.0
  outer loop
   vertex -2.64503369140625 3.640576416015625 -0.5
   vertex -2.411220458984375 3.7994755859375 -0.5
   vertex -2.64503369140625 3.640576416015625 0.5
  endloop
 endfacet
 facet normal 0.6129070520401001 -0.7901549935340881 0.0
  outer loop
   vertex -2.868407958984375 3.4673095703125 -0.5
   vertex -2.64503369140625 3.640576416015625 0.5
   vertex -2.868407958984375 3.4673095703125 0.5
  endloop
 endfacet
 facet normal 0.6129070520401001 -0.7901549935340881 0.0
  outer loop
   vertex -2.868407958984375 3.4673095703125 -0.5
   vertex -2.64503369140625 3.640576416015625 -0.5
   vertex -2.64503369140625 3.640576416015625 0.5
  endloop
 endfacet
 facet normal 0.6613118648529053 -0.7501111030578613 0.0
  outer loop
   vertex -3.0804619140625 3.28035888671875 -0.5
   vertex -2.868407958984375 3.4673095703125 0.5
   vertex -3.0804619140625 3.28035888671875 0.5
  endloop
 endfacet
 facet normal 0.6613118648529053 -0.7501111030578613 0.0
  outer loop
   vertex -3.0804619140625 3.28035888671875 -0.5
   vertex -2.868407958984375 3.4673095703125 -0.5
   vertex -2.868407958984375 3.4673095703125 0.5
  endloop
 endfacet
 facet normal 0.7071067690849304 -0.7071067690849304 0.0
  outer loop
   vertex -3.28035888671875 3.0804619140625 -0.5
   vertex -3.0804619140625 3.28035888671875 0.5
   vertex -3.28035888671875 3.0804619140625 0.5
  endloop
 endfacet
 facet normal 0.7071067690849304 -0.7071067690849304 0.0
  outer loop
   vertex -3.28035888671875 3.0804619140625 -0.5
   vertex -3.0804619140625 3.28035888671875 -0.5
   vertex -3.0804619140625 3.28035888671875 0.5
  endloop
 endfacet
 facet normal 0.7501111030578613 -0.6613118648529053 0.0
  outer loop
   vertex -3.4673095703125 2.868407958984375 -0.5
   vertex -3.28035888671875 3.0804619140625 0.5
   vertex -3.4673095703125 2.868407958984375 0.5
  endloop
 endfacet
 facet normal 0.7901549935340881 -0.6129070520401001 0.0
  outer loop
   vertex -3.4673095703125 2.868407958984375 -0.5
   vertex -3.4673095703125 2.868407958984375 0.5
   vertex -3.640576416015625 2.64503369140625 0.5
  endloop
 endfacet
 facet normal 0.7501111030578613 -0.6613118648529053 0.0
  outer loop
   vertex -3.4673095703125 2.868407958984375 -0.5
   vertex -3.28035888671875 3.0804619140625 -0.5
   vertex -3.28035888671875 3.0804619140625 0.5
  endloop
 endfacet
 facet normal 0.8270807862281799 -0.5620830655097961 0.0
  outer loop
   vertex -3.640576416015625 2.64503369140625 -0.5
   vertex -3.640576416015625 2.64503369140625 0.5
   vertex -3.7994755859375 2.411220458984375 0.5
  endloop
 endfacet
 facet normal 0.7901549935340881 -0.6129070520401001 0.0
  outer loop
   vertex -3.640576416015625 2.64503369140625 -0.5
   vertex -3.4673095703125 2.868407958984375 -0.5
   vertex -3.640576416015625 2.64503369140625 0.5
  endloop
 endfacet
 facet normal 0.8270807862281799 -0.5620830655097961 0.0
  outer loop
   vertex -3.7994755859375 2.411220458984375 -0.5
   vertex -3.640576416015625 2.64503369140625 -0.5
   vertex -3.7994755859375 2.411220458984375 0.5
  endloop
 endfacet
 facet normal 0.8607416152954102 -0.5090420842170715 0.0
  outer loop
   vertex -3.9433801269531252 2.1678916015625 -0.5
   vertex -3.7994755859375 2.411220458984375 0.5
   vertex -3.9433801269531252 2.1678916015625 0.5
  endloop
 endfacet
 facet normal 0.8607416152954102 -0.5090420842170715 0.0
  outer loop
   vertex -3.9433801269531252 2.1678916015625 -0.5
   vertex -3.7994755859375 2.411220458984375 -0.5
   vertex -3.7994755859375 2.411220458984375 0.5
  endloop
 endfacet
 facet normal 0.8910067677497864 -0.45399010181427 0.0
  outer loop
   vertex -4.0717216796875 1.9160068359375 -0.5
   vertex -3.9433801269531252 2.1678916015625 0.5
   vertex -4.0717216796875 1.9160068359375 0.5
  endloop
 endfacet
 facet normal 0.8910067677497864 -0.45399010181427 0.0
  outer loop
   vertex -4.0717216796875 1.9160068359375 -0.5
   vertex -3.9433801269531252 2.1678916015625 -0.5
   vertex -3.9433801269531252 2.1678916015625 0.5
  endloop
 endfacet
 facet normal 0.9177545309066772 -0.3971479535102844 0.0
  outer loop
   vertex -4.183994140625 1.656560546875 -0.5
   vertex -4.0717216796875 1.9160068359375 0.5
   vertex -4.183994140625 1.656560546875 0.5
  endloop
 endfacet
 facet normal 0.9177545309066772 -0.3971479535102844 0.0
  outer loop
   vertex -4.183994140625 1.656560546875 -0.5
   vertex -4.0717216796875 1.9160068359375 -0.5
   vertex -4.0717216796875 1.9160068359375 0.5
  endloop
 endfacet
 facet normal 0.9408807158470154 -0.3387381434440613 0.0
  outer loop
   vertex -4.27975439453125 1.390576416015625 -0.5
   vertex -4.183994140625 1.656560546875 0.5
   vertex -4.27975439453125 1.390576416015625 0.5
  endloop
 endfacet
 facet normal 0.9408807158470154 -0.3387381434440613 0.0
  outer loop
   vertex -4.27975439453125 1.390576416015625 -0.5
   vertex -4.183994140625 1.656560546875 -0.5
   vertex -4.183994140625 1.656560546875 0.5
  endloop
 endfacet
 facet normal 0.9602940082550049 -0.2789902687072754 0.0
  outer loop
   vertex -4.3586240234375 1.1191044921875 -0.5
   vertex -4.27975439453125 1.390576416015625 0.5
   vertex -4.3586240234375 1.1191044921875 0.5
  endloop
 endfacet
 facet normal 0.9602940082550049 -0.2789902687072754 0.0
  outer loop
   vertex -4.3586240234375 1.1191044921875 -0.5
   vertex -4.27975439453125 1.390576416015625 -0.5
   vertex -4.27975439453125 1.390576416015625 0.5
  endloop
 endfacet
 facet normal 0.9759166836738586 -0.21814341843128204 0.0
  outer loop
   vertex -4.42029248046875 0.8432159423828125 -0.5
   vertex -4.3586240234375 1.1191044921875 0.5
   vertex -4.42029248046875 0.8432159423828125 0.5
  endloop
 endfacet
 facet normal 0.9759166836738586 -0.21814341843128204 0.0
  outer loop
   vertex -4.42029248046875 0.8432159423828125 -0.5
   vertex -4.3586240234375 1.1191044921875 -0.5
   vertex -4.3586240234375 1.1191044921875 0.5
  endloop
 endfacet
 facet normal 0.9876882433891296 -0.1564348191022873 0.0
  outer loop
   vertex -4.46451611328125 0.5639995727539062 -0.5
   vertex -4.42029248046875 0.8432159423828125 0.5
   vertex -4.46451611328125 0.5639995727539062 0.5
  endloop
 endfacet
 facet normal 0.9876882433891296 -0.1564348191022873 0.0
  outer loop
   vertex -4.46451611328125 0.5639995727539062 -0.5
   vertex -4.42029248046875 0.8432159423828125 -0.5
   vertex -4.42029248046875 0.8432159423828125 0.5
  endloop
 endfacet
 facet normal 0.995561957359314 -0.09410788863897324 0.0
  outer loop
   vertex -4.4911201171875 0.2825573425292969 -0.5
   vertex -4.46451611328125 0.5639995727539062 0.5
   vertex -4.4911201171875 0.2825573425292969 0.5
  endloop
 endfacet
 facet normal 0.995561957359314 -0.09410788863897324 0.0
  outer loop
   vertex -4.4911201171875 0.2825573425292969 -0.5
   vertex -4.46451611328125 0.5639995727539062 -0.5
   vertex -4.46451611328125 0.5639995727539062 0.5
  endloop
 endfacet
 facet normal 0.9995065331459045 -0.03141132742166519 0.0
  outer loop
   vertex -4.5 -1.1439317375294689e-14 -0.5
   vertex -4.4911201171875 0.2825573425292969 -0.5
   vertex -4.4911201171875 0.2825573425292969 0.5
  endloop
 endfacet
 facet normal 0.9995065331459045 -0.03141132742166519 0.0
  outer loop
   vertex -4.5 -1.1439317375294689e-14 -0.5
   vertex -4.4911201171875 0.2825573425292969 0.5
   vertex -4.5 -1.1439317375294689e-14 0.5
  endloop
 endfacet
 facet normal 0.9995065331459045 0.03141132742166519 0.0
  outer loop
   vertex -4.4911201171875 -0.2825573425292969 -0.5
   vertex -4.5 -1.1439317375294689e-14 -0.5
   vertex -4.5 -1.1439317375294689e-14 0.5
  endloop
 endfacet
 facet normal 0.9995065331459045 0.03141132742166519 -0.0
  outer loop
   vertex -4.4911201171875 -0.2825573425292969 -0.5
   vertex -4.5 -1.1439317375294689e-14 0.5
   vertex -4.4911201171875 -0.2825573425292969 0.5
  endloop
 endfacet
 facet normal 0.995561957359314 0.09410788863897324 0.0
  outer loop
   vertex -4.46451611328125 -0.5639995727539062 -0.5
   vertex -4.4911201171875 -0.2825573425292969 -0.5
   vertex -4.4911201171875 -0.2825573425292969 0.5
  endloop
 endfacet
 facet normal 0.995561957359314 0.09410788863897324 -0.0
  outer loop
   vertex -4.46451611328125 -0.5639995727539062 -0.5
   vertex -4.4911201171875 -0.2825573425292969 0.5
   vertex -4.46451611328125 -0.5639995727539062 0.5
  endloop
 endfacet
 facet normal 0.9876882433891296 0.1564348191022873 0.0
  outer loop
   vertex -4.42029248046875 -0.8432159423828125 -0.5
   vertex -4.46451611328125 -0.5639995727539062 -0.5
   vertex -4.46451611328125 -0.5639995727539062 0.5
  endloop
 endfacet
 facet normal 0.9876882433891296 0.1564348191022873 -0.0
  outer loop
   vertex -4.42029248046875 -0.8432159423828125 -0.5
   vertex -4.46451611328125 -0.5639995727539062 0.5
   vertex -4.42029248046875 -0.8432159423828125 0.5
  endloop
 endfacet
 facet normal 0.9759166836738586 0.21814341843128204 -0.0
  outer loop
   vertex -4.42029248046875 -0.8432159423828125 -0.5
   vertex -4.42029248046875 -0.8432159423828125 0.5
   vertex -4.3586240234375 -1.1191044921875 0.5
  endloop
 endfacet
 facet normal 0.9759166836738586 0.21814341843128204 -0.0
  outer loop
   vertex -4.3586240234375 -1.1191044921875 -0.5
   vertex -4.42029248046875 -0.8432159423828125 -0.5
   vertex -4.3586240234375 -1.1191044921875 0.5
  endloop
 endfacet
 facet normal 0.9602940082550049 0.2789902687072754 0.0
  outer loop
   vertex -4.27975439453125 -1.390576416015625 -0.5
   vertex -4.3586240234375 -1.1191044921875 -0.5
   vertex -4.3586240234375 -1.1191044921875 0.5
  endloop
 endfacet
 facet normal 0.9602940082550049 0.2789902687072754 -0.0
  outer loop
   vertex -4.27975439453125 -1.390576416015625 -0.5
   vertex -4.3586240234375 -1.1191044921875 0.5
   vertex -4.27975439453125 -1.390576416015625 0.5
  endloop
 endfacet
 facet normal 0.9408807158470154 0.3387381434440613 0.0
  outer loop
   vertex -4.183994140625 -1.656560546875 -0.5
   vertex -4.27975439453125 -1.390576416015625 -0.5
   vertex -4.27975439453125 -1.390576416015625 0.5
  endloop
 endfacet
 facet normal 0.9408807158470154 0.3387381434440613 -0.0
  outer loop
   vertex -4.183994140625 -1.656560546875 -0.5
   vertex -4.27975439453125 -1.390576416015625 0.5
   vertex -4.183994140625 -1.656560546875 0.5
  endloop
 endfacet
 facet normal 0.9177545309066772 0.3971479535102844 0.0
  outer loop
   vertex -4.0717216796875 -1.9160068359375 -0.5
   vertex -4.183994140625 -1.656560546875 -0.5
   vertex -4.183994140625 -1.656560546875 0.5
  endloop
 endfacet
 facet normal 0.9177545309066772 0.3971479535102844 -0.0
  outer loop
   vertex -4.0717216796875 -1.9160068359375 -0.5
   vertex -4.183994140625 -1.656560546875 0.5
   vertex -4.0717216796875 -1.9160068359375 0.5
  endloop
 endfacet
 facet normal 0.8910067677497864 0.45399010181427 0.0
  outer loop
   vertex -3.9433801269531252 -2.1678916015625 -0.5
   vertex -4.0717216796875 -1.9160068359375 -0.5
   vertex -4.0717216796875 -1.9160068359375 0.5
  endloop
 endfacet
 facet normal 0.8910067677497864 0.45399010181427 -0.0
  outer loop
   vertex -3.9433801269531252 -2.1678916015625 -0.5
   vertex -4.0717216796875 -1.9160068359375 0.5
   vertex -3.9433801269531252 -2.1678916015625 0.5
  endloop
 endfacet
 facet normal 0.8607416152954102 0.5090420842170715 0.0
  outer loop
   vertex -3.7994755859375 -2.411220458984375 -0.5
   vertex -3.9433801269531252 -2.1678916015625 -0.5
   vertex -3.9433801269531252 -2.1678916015625 0.5
  endloop
 endfacet
 facet normal 0.8607416152954102 0.5090420842170715 -0.0
  outer loop
   vertex -3.7994755859375 -2.411220458984375 -0.5
   vertex -3.9433801269531252 -2.1678916015625 0.5
   vertex -3.7994755859375 -2.411220458984375 0.5
  endloop
 endfacet
 facet normal 0.8270807862281799 0.5620830655097961 0.0
  outer loop
   vertex -3.640576416015625 -2.64503369140625 -0.5
   vertex -3.7994755859375 -2.411220458984375 -0.5
   vertex -3.7994755859375 -2.411220458984375 0.5
  endloop
 endfacet
 facet normal 0.8270807862281799 0.5620830655097961 -0.0
  outer loop
   vertex -3.640576416015625 -2.64503369140625 -0.5
   vertex -3.7994755859375 -2.411220458984375 0.5
   vertex -3.640576416015625 -2.64503369140625 0.5
  endloop
 endfacet
 facet normal 0.7901549935340881 0.6129070520401001 0.0
  outer loop
   vertex -3.4673095703125 -2.868407958984375 -0.5
   vertex -3.640576416015625 -2.64503369140625 -0.5
   vertex -3.640576416015625 -2.64503369140625 0.5
  endloop
 endfacet
 facet normal 0.7901549935340881 0.6129070520401001 -0.0
  outer loop
   vertex -3.4673095703125 -2.868407958984375 -0.5
   vertex -3.640576416015625 -2.64503369140625 0.5
   vertex -3.4673095703125 -2.868407958984375 0.5
  endloop
 endfacet
 facet normal 0.7501111030578613 0.6613118648529053 0.0
  outer loop
   vertex -3.28035888671875 -3.0804619140625 -0.5
   vertex -3.4673095703125 -2.868407958984375 -0.5
   vertex -3.4673095703125 -2.868407958984375 0.5
  endloop
 endfacet
 facet normal 0.7501111030578613 0.6613118648529053 -0.0
  outer loop
   vertex -3.28035888671875 -3.0804619140625 -0.5
   vertex -3.4673095703125 -2.868407958984375 0.5
   vertex -3.28035888671875 -3.0804619140625 0.5
  endloop
 endfacet
 facet normal 0.7071067690849304 0.7071067690849304 0.0
  outer loop
   vertex -3.0804619140625 -3.28035888671875 -0.5
   vertex -3.28035888671875 -3.0804619140625 -0.5
   vertex -3.28035888671875 -3.0804619140625 0.5
  endloop
 endfacet
 facet normal 0.7071067690849304 0.7071067690849304 -0.0
  outer loop
   vertex -3.0804619140625 -3.28035888671875 -0.5
   vertex -3.28035888671875 -3.0804619140625 0.5
   vertex -3.0804619140625 -3.28035888671875 0.5
  endloop
 endfacet
 facet normal 0.6613118648529053 0.7501111030578613 0.0
  outer loop
   vertex -2.868407958984375 -3.4673095703125 -0.5
   vertex -3.0804619140625 -3.28035888671875 -0.5
   vertex -3.0804619140625 -3.28035888671875 0.5
  endloop
 endfacet
 facet normal 0.6613118648529053 0.7501111030578613 -0.0
  outer loop
   vertex -2.868407958984375 -3.4673095703125 -0.5
   vertex -3.0804619140625 -3.28035888671875 0.5
   vertex -2.868407958984375 -3.4673095703125 0.5
  endloop
 endfacet
 facet normal 0.6129070520401001 0.7901549935340881 0.0
  outer loop
   vertex -2.64503369140625 -3.640576416015625 -0.5
   vertex -2.868407958984375 -3.4673095703125 -0.5
   vertex -2.868407958984375 -3.4673095703125 0.5
  endloop
 endfacet
 facet normal 0.6129070520401001 0.7901549935340881 -0.0
  outer loop
   vertex -2.64503369140625 -3.640576416015625 -0.5
   vertex -2.868407958984375 -3.4673095703125 0.5
   vertex -2.64503369140625 -3.640576416015625 0.5
  endloop
 endfacet
 facet normal 0.5620830655097961 0.8270807862281799 -0.0
  outer loop
   vertex -2.411220458984375 -3.7994755859375 -0.5
   vertex -2.64503369140625 -3.640576416015625 0.5
   vertex -2.411220458984375 -3.7994755859375 0.5
  endloop
 endfacet
 facet normal 0.5620830655097961 0.8270807862281799 0.0
  outer loop
   vertex -2.411220458984375 -3.7994755859375 -0.5
   vertex -2.64503369140625 -3.640576416015625 -0.5
   vertex -2.64503369140625 -3.640576416015625 0.5
  endloop
 endfacet
 facet normal 0.5090420842170715 0.8607416152954102 -0.0
  outer loop
   vertex -2.411220458984375 -3.7994755859375 -0.5
   vertex -2.411220458984375 -3.7994755859375 0.5
   vertex -2.1678916015625 -3.9433801269531252 0.5
  endloop
 endfacet
 facet normal 0.5090420842170715 0.8607416152954102 -0.0
  outer loop
   vertex -2.1678916015625 -3.9433801269531252 -0.5
   vertex -2.411220458984375 -3.7994755859375 -0.5
   vertex -2.1678916015625 -3.9433801269531252 0.5
  endloop
 endfacet
 facet normal 0.45399010181427 0.8910067677497864 -0.0
  outer loop
   vertex -1.9160068359375 -4.0717216796875 -0.5
   vertex -2.1678916015625 -3.9433801269531252 0.5
   vertex -1.9160068359375 -4.0717216796875 0.5
  endloop
 endfacet
 facet normal 0.45399010181427 0.8910067677497864 0.0
  outer loop
   vertex -1.9160068359375 -4.0717216796875 -0.5
   vertex -2.1678916015625 -3.9433801269531252 -0.5
   vertex -2.1678916015625 -3.9433801269531252 0.5
  endloop
 endfacet
 facet normal 0.3971479535102844 0.9177545309066772 -0.0
  outer loop
   vertex -1.656560546875 -4.183994140625 -0.5
   vertex -1.9160068359375 -4.0717216796875 0.5
   vertex -1.656560546875 -4.183994140625 0.5
  endloop
 endfacet
 facet normal 0.3971479535102844 0.9177545309066772 0.0
  outer loop
   vertex -1.656560546875 -4.183994140625 -0.5
   vertex -1.9160068359375 -4.0717216796875 -0.5
   vertex -1.9160068359375 -4.0717216796875 0.5
  endloop
 endfacet
 facet normal 0.3387381434440613 0.9408807158470154 -0.0
  outer loop
   vertex -1.390576416015625 -4.27975439453125 -0.5
   vertex -1.656560546875 -4.183994140625 0.5
   vertex -1.390576416015625 -4.27975439453125 0.5
  endloop
 endfacet
 facet normal 0.3387381434440613 0.9408807158470154 0.0
  outer loop
   vertex -1.390576416015625 -4.27975439453125 -0.5
   vertex -1.656560546875 -4.183994140625 -0.5
   vertex -1.656560546875 -4.183994140625 0.5
  endloop
 endfacet
 facet normal 0.2789902687072754 0.9602940082550049 -0.0
  outer loop
   vertex -1.1191044921875 -4.3586240234375 -0.5
   vertex -1.390576416015625 -4.27975439453125 0.5
   vertex -1.1191044921875 -4.3586240234375 0.5
  endloop
 endfacet
 facet normal 0.2789902687072754 0.9602940082550049 0.0
  outer loop
   vertex -1.1191044921875 -4.3586240234375 -0.5
   vertex -1.390576416015625 -4.27975439453125 -0.5
   vertex -1.390576416015625 -4.27975439453125 0.5
  endloop
 endfacet
 facet normal 0.21814341843128204 0.9759166836738586 -0.0
  outer loop
   vertex -0.8432159423828125 -4.42029248046875 -0.5
   vertex -1.1191044921875 -4.3586240234375 0.5
   vertex -0.8432159423828125 -4.42029248046875 0.5
  endloop
 endfacet
 facet normal 0.1564348191022873 0.9876882433891296 -0.0
  outer loop
   vertex -0.8432159423828125 -4.42029248046875 -0.5
   vertex -0.8432159423828125 -4.42029248046875 0.5
   vertex -0.5639995727539062 -4.46451611328125 0.5
  endloop
 endfacet
 facet normal 0.21814341843128204 0.9759166836738586 0.0
  outer loop
   vertex -0.8432159423828125 -4.42029248046875 -0.5
   vertex -1.1191044921875 -4.3586240234375 -0.5
   vertex -1.1191044921875 -4.3586240234375 0.5
  endloop
 endfacet
 facet normal 0.1564348191022873 0.9876882433891296 -0.0
  outer loop
   vertex -0.5639995727539062 -4.46451611328125 -0.5
   vertex -0.8432159423828125 -4.42029248046875 -0.5
   vertex -0.5639995727539062 -4.46451611328125 0.5
  endloop
 endfacet
 facet normal 0.09410788863897324 0.995561957359314 -0.0
  outer loop
   vertex -0.2825573425292969 -4.4911201171875 -0.5
   vertex -0.5639995727539062 -4.46451611328125 0.5
   vertex -0.2825573425292969 -4.4911201171875 0.5
  endloop
 endfacet
 facet normal 0.09410788863897324 0.995561957359314 0.0
  outer loop
   vertex -0.2825573425292969 -4.4911201171875 -0.5
   vertex -0.5639995727539062 -4.46451611328125 -0.5
   vertex -0.5639995727539062 -4.46451611328125 0.5
  endloop
 endfacet
 facet normal 0.03141132742166519 0.9995065331459045 0.0
  outer loop
   vertex -8.266366107248513e-16 -4.5 -0.5
   vertex -0.2825573425292969 -4.4911201171875 -0.5
   vertex -0.2825573425292969 -4.4911201171875 0.5
  endloop
 endfacet
 facet normal 0.03141132742166519 0.9995065331459045 -0.0
  outer loop
   vertex -8.266366107248513e-16 -4.5 -0.5
   vertex -0.2825573425292969 -4.4911201171875 0.5
   vertex -8.266366107248513e-16 -4.5 0.5
  endloop
 endfacet
 facet normal -0.03141132742166519 0.9995065331459045 0.0
  outer loop
   vertex 0.2825573425292969 -4.4911201171875 -0.5
   vertex -8.266366107248513e-16 -4.5 -0.5
   vertex -8.266366107248513e-16 -4.5 0.5
  endloop
 endfacet
 facet normal -0.03141132742166519 0.9995065331459045 0.0
  outer loop
   vertex 0.2825573425292969 -4.4911201171875 -0.5
   vertex -8.266366107248513e-16 -4.5 0.5
   vertex 0.2825573425292969 -4.4911201171875 0.5
  endloop
 endfacet
 facet normal -0.09410788863897324 0.995561957359314 0.0
  outer loop
   vertex 0.5639995727539062 -4.46451611328125 -0.5
   vertex 0.2825573425292969 -4.4911201171875 -0.5
   vertex 0.2825573425292969 -4.4911201171875 0.5
  endloop
 endfacet
 facet normal -0.09410788863897324 0.995561957359314 0.0
  outer loop
   vertex 0.5639995727539062 -4.46451611328125 -0.5
   vertex 0.2825573425292969 -4.4911201171875 0.5
   vertex 0.5639995727539062 -4.46451611328125 0.5
  endloop
 endfacet
 facet normal -0.1564348191022873 0.9876882433891296 0.0
  outer loop
   vertex 0.8432159423828125 -4.42029248046875 -0.5
   vertex 0.5639995727539062 -4.46451611328125 -0.5
   vertex 0.5639995727539062 -4.46451611328125 0.5
  endloop
 endfacet
 facet normal -0.1564348191022873 0.9876882433891296 0.0
  outer loop
   vertex 0.8432159423828125 -4.42029248046875 -0.5
   vertex 0.5639995727539062 -4.46451611328125 0.5
   vertex 0.8432159423828125 -4.42029248046875 0.5
  endloop
 endfacet
 facet normal -0.21814341843128204 0.9759166836738586 0.0
  outer loop
   vertex 1.1191044921875 -4.3586240234375 -0.5
   vertex 0.8432159423828125 -4.42029248046875 -0.5
   vertex 0.8432159423828125 -4.42029248046875 0.5
  endloop
 endfacet
 facet normal -0.21814341843128204 0.9759166836738586 0.0
  outer loop
   vertex 1.1191044921875 -4.3586240234375 -0.5
   vertex 0.8432159423828125 -4.42029248046875 0.5
   vertex 1.1191044921875 -4.3586240234375 0.5
  endloop
 endfacet
 facet normal -0.2789902687072754 0.9602940082550049 0.0
  outer loop
   vertex 1.390576416015625 -4.27975439453125 -0.5
   vertex 1.1191044921875 -4.3586240234375 -0.5
   vertex 1.1191044921875 -4.3586240234375 0.5
  endloop
 endfacet
 facet normal -0.2789902687072754 0.9602940082550049 0.0
  outer loop
   vertex 1.390576416015625 -4.27975439453125 -0.5
   vertex 1.1191044921875 -4.3586240234375 0.5
   vertex 1.390576416015625 -4.27975439453125 0.5
  endloop
 endfacet
 facet normal -0.3387381434440613 0.9408807158470154 0.0
  outer loop
   vertex 1.656560546875 -4.183994140625 -0.5
   vertex 1.390576416015625 -4.27975439453125 -0.5
   vertex 1.390576416015625 -4.27975439453125 0.5
  endloop
 endfacet
 facet normal -0.3387381434440613 0.9408807158470154 0.0
  outer loop
   vertex 1.656560546875 -4.183994140625 -0.5
   vertex 1.390576416015625 -4.27975439453125 0.5
   vertex 1.656560546875 -4.183994140625 0.5
  endloop
 endfacet
 facet normal -0.3971479535102844 0.9177545309066772 0.0
  outer loop
   vertex 1.9160068359375 -4.0717216796875 -0.5
   vertex 1.656560546875 -4.183994140625 -0.5
   vertex 1.656560546875 -4.183994140625 0.5
  endloop
 endfacet
 facet normal -0.3971479535102844 0.9177545309066772 0.0
  outer loop
   vertex 1.9160068359375 -4.0717216796875 -0.5
   vertex 1.656560546875 -4.183994140625 0.5
   vertex 1.9160068359375 -4.0717216796875 0.5
  endloop
 endfacet
 facet normal -0.45399010181427 0.8910067677497864 0.0
  outer loop
   vertex 2.1678916015625 -3.9433801269531252 -0.5
   vertex 1.9160068359375 -4.0717216796875 -0.5
   vertex 1.9160068359375 -4.0717216796875 0.5
  endloop
 endfacet
 facet normal -0.45399010181427 0.8910067677497864 0.0
  outer loop
   vertex 2.1678916015625 -3.9433801269531252 -0.5
   vertex 1.9160068359375 -4.0717216796875 0.5
   vertex 2.1678916015625 -3.9433801269531252 0.5
  endloop
 endfacet
 facet normal -0.5090420842170715 0.8607416152954102 0.0
  outer loop
   vertex 2.411220458984375 -3.7994755859375 -0.5
   vertex 2.1678916015625 -3.9433801269531252 -0.5
   vertex 2.1678916015625 -3.9433801269531252 0.5
  endloop
 endfacet
 facet normal -0.5090420842170715 0.8607416152954102 0.0
  outer loop
   vertex 2.411220458984375 -3.7994755859375 -0.5
   vertex 2.1678916015625 -3.9433801269531252 0.5
   vertex 2.411220458984375 -3.7994755859375 0.5
  endloop
 endfacet
 facet normal -0.5620830655097961 0.8270807862281799 0.0
  outer loop
   vertex 2.64503369140625 -3.640576416015625 -0.5
   vertex 2.411220458984375 -3.7994755859375 -0.5
   vertex 2.411220458984375 -3.7994755859375 0.5
  endloop
 endfacet
 facet normal -0.5620830655097961 0.8270807862281799 0.0
  outer loop
   vertex 2.64503369140625 -3.640576416015625 -0.5
   vertex 2.411220458984375 -3.7994755859375 0.5
   vertex 2.64503369140625 -3.640576416015625 0.5
  endloop
 endfacet
 facet normal -0.6129070520401001 0.7901549935340881 0.0
  outer loop
   vertex 2.868407958984375 -3.4673095703125 -0.5
   vertex 2.64503369140625 -3.640576416015625 -0.5
   vertex 2.64503369140625 -3.640576416015625 0.5
  endloop
 endfacet
 facet normal -0.6129070520401001 0.7901549935340881 0.0
  outer loop
   vertex 2.868407958984375 -3.4673095703125 -0.5
   vertex 2.64503369140625 -3.640576416015625 0.5
   vertex 2.868407958984375 -3.4673095703125 0.5
  endloop
 endfacet
 facet normal -0.6613118648529053 0.7501111030578613 0.0
  outer loop
   vertex 3.0804619140625 -3.28035888671875 -0.5
   vertex 2.868407958984375 -3.4673095703125 -0.5
   vertex 2.868407958984375 -3.4673095703125 0.5
  endloop
 endfacet
 facet normal -0.6613118648529053 0.7501111030578613 0.0
  outer loop
   vertex 3.0804619140625 -3.28035888671875 -0.5
   vertex 2.868407958984375 -3.4673095703125 0.5
   vertex 3.0804619140625 -3.28035888671875 0.5
  endloop
 endfacet
 facet normal -0.7071067690849304 0.7071067690849304 0.0
  outer loop
   vertex 3.28035888671875 -3.0804619140625 -0.5
   vertex 3.0804619140625 -3.28035888671875 -0.5
   vertex 3.0804619140625 -3.28035888671875 0.5
  endloop
 endfacet
 facet normal -0.7071067690849304 0.7071067690849304 0.0
  outer loop
   vertex 3.28035888671875 -3.0804619140625 -0.5
   vertex 3.0804619140625 -3.28035888671875 0.5
   vertex 3.28035888671875 -3.0804619140625 0.5
  endloop
 endfacet
 facet normal -0.7501111030578613 0.6613118648529053 0.0
  outer loop
   vertex 3.4673095703125 -2.868407958984375 -0.5
   vertex 3.28035888671875 -3.0804619140625 -0.5
   vertex 3.28035888671875 -3.0804619140625 0.5
  endloop
 endfacet
 facet normal -0.7501111030578613 0.6613118648529053 0.0
  outer loop
   vertex 3.4673095703125 -2.868407958984375 -0.5
   vertex 3.28035888671875 -3.0804619140625 0.5
   vertex 3.4673095703125 -2.868407958984375 0.5
  endloop
 endfacet
 facet normal -0.7901549935340881 0.6129070520401001 0.0
  outer loop
   vertex 3.640576416015625 -2.64503369140625 -0.5
   vertex 3.4673095703125 -2.868407958984375 -0.5
   vertex 3.4673095703125 -2.868407958984375 0.5
  endloop
 endfacet
 facet normal -0.7901549935340881 0.6129070520401001 0.0
  outer loop
   vertex 3.640576416015625 -2.64503369140625 -0.5
   vertex 3.4673095703125 -2.868407958984375 0.5
   vertex 3.640576416015625 -2.64503369140625 0.5
  endloop
 endfacet
 facet normal -0.8270807862281799 0.5620830655097961 0.0
  outer loop
   vertex 3.7994755859375 -2.411220458984375 -0.5
   vertex 3.640576416015625 -2.64503369140625 -0.5
   vertex 3.640576416015625 -2.64503369140625 0.5
  endloop
 endfacet
 facet normal -0.8270807862281799 0.5620830655097961 0.0
  outer loop
   vertex 3.7994755859375 -2.411220458984375 -0.5
   vertex 3.640576416015625 -2.64503369140625 0.5
   vertex 3.7994755859375 -2.411220458984375 0.5
  endloop
 endfacet
 facet normal -0.8607416152954102 0.5090420842170715 0.0
  outer loop
   vertex 3.9433801269531252 -2.1678916015625 -0.5
   vertex 3.7994755859375 -2.411220458984375 -0.5
   vertex 3.7994755859375 -2.411220458984375 0.5
  endloop
 endfacet
 facet normal -0.8607416152954102 0.5090420842170715 0.0
  outer loop
   vertex 3.9433801269531252 -2.1678916015625 -0.5
   vertex 3.7994755859375 -2.411220458984375 0.5
   vertex 3.9433801269531252 -2.1678916015625 0.5
  endloop
 endfacet
 facet normal -0.8910067677497864 0.45399010181427 0.0
  outer loop
   vertex 4.0717216796875 -1.9160068359375 -0.5
   vertex 3.9433801269531252 -2.1678916015625 -0.5
   vertex 3.9433801269531252 -2.1678916015625 0.5
  endloop
 endfacet
 facet normal -0.8910067677497864 0.45399010181427 0.0
  outer loop
   vertex 4.0717216796875 -1.9160068359375 -0.5
   vertex 3.9433801269531252 -2.1678916015625 0.5
   vertex 4.0717216796875 -1.9160068359375 0.5
  endloop
 endfacet
 facet normal -0.9177545309066772 0.3971479535102844 0.0
  outer loop
   vertex 4.183994140625 -1.656560546875 -0.5
   vertex 4.0717216796875 -1.9160068359375 -0.5
   vertex 4.0717216796875 -1.9160068359375 0.5
  endloop
 endfacet
 facet normal -0.9177545309066772 0.3971479535102844 0.0
  outer loop
   vertex 4.183994140625 -1.656560546875 -0.5
   vertex 4.0717216796875 -1.9160068359375 0.5
   vertex 4.183994140625 -1.656560546875 0.5
  endloop
 endfacet
 facet normal -0.9408807158470154 0.3387381434440613 0.0
  outer loop
   vertex 4.27975439453125 -1.390576416015625 -0.5
   vertex 4.183994140625 -1.656560546875 -0.5
   vertex 4.183994140625 -1.656560546875 0.5
  endloop
 endfacet
 facet normal -0.9408807158470154 0.3387381434440613 0.0
  outer loop
   vertex 4.27975439453125 -1.390576416015625 -0.5
   vertex 4.183994140625 -1.656560546875 0.5
   vertex 4.27975439453125 -1.390576416015625 0.5
  endloop
 endfacet
 facet normal -0.9602940082550049 0.2789902687072754 0.0
  outer loop
   vertex 4.3586240234375 -1.1191044921875 -0.5
   vertex 4.27975439453125 -1.390576416015625 -0.5
   vertex 4.27975439453125 -1.390576416015625 0.5
  endloop
 endfacet
 facet normal -0.9602940082550049 0.2789902687072754 0.0
  outer loop
   vertex 4.3586240234375 -1.1191044921875 -0.5
   vertex 4.27975439453125 -1.390576416015625 0.5
   vertex 4.3586240234375 -1.1191044921875 0.5
  endloop
 endfacet
 facet normal -0.9759166836738586 0.21814341843128204 0.0
  outer loop
   vertex 4.42029248046875 -0.8432159423828125 -0.5
   vertex 4.3586240234375 -1.1191044921875 -0.5
   vertex 4.3586240234375 -1.1191044921875 0.5
  endloop
 endfacet
 facet normal -0.9759166836738586 0.21814341843128204 0.0
  outer loop
   vertex 4.42029248046875 -0.8432159423828125 -0.5
   vertex 4.3586240234375 -1.1191044921875 0.5
   vertex 4.42029248046875 -0.8432159423828125 0.5
  endloop
 endfacet
 facet normal -0.9876882433891296 0.1564348191022873 0.0
  outer loop
   vertex 4.46451611328125 -0.5639995727539062 -0.5
   vertex 4.42029248046875 -0.8432159423828125 -0.5
   vertex 4.42029248046875 -0.8432159423828125 0.5
  endloop
 endfacet
 facet normal -0.9876882433891296 0.1564348191022873 0.0
  outer loop
   vertex 4.46451611328125 -0.5639995727539062 -0.5
   vertex 4.42029248046875 -0.8432159423828125 0.5
   vertex 4.46451611328125 -0.5639995727539062 0.5
  endloop
 endfacet
 facet normal -0.9995065331459045 0.03141132742166519 0.0
  outer loop
   vertex 4.4911201171875 -0.2825573425292969 -0.5
   vertex 4.4911201171875 -0.2825573425292969 0.5
   vertex 4.5 0.0 0.5
  endloop
 endfacet
 facet normal -0.995561957359314 0.09410788863897324 0.0
  outer loop
   vertex 4.4911201171875 -0.2825573425292969 -0.5
   vertex 4.46451611328125 -0.5639995727539062 -0.5
   vertex 4.46451611328125 -0.5639995727539062 0.5
  endloop
 endfacet
 facet normal -0.995561957359314 0.09410788863897324 0.0
  outer loop
   vertex 4.4911201171875 -0.2825573425292969 -0.5
   vertex 4.46451611328125 -0.5639995727539062 0.5
   vertex 4.4911201171875 -0.2825573425292969 0.5
  endloop
 endfacet
 facet normal -0.9995065331459045 0.03141132742166519 0.0
  outer loop
   vertex 4.5 0.0 -0.5
   vertex 4.4911201171875 -0.2825573425292969 -0.5
   vertex 4.5 0.0 0.5
  endloop
 endfacet
endsolid MeshRefinement002
