# Wavefront OBJ file written 2026-06-18T01:45:10
o Cylinder001_Geometry_edgeMesh

# points : 200
# lines  : 200

# <points count="200">
v -10.9345293045044 16 -10.2682065963745
v -11.5576982498169 16 -9.56135940551758
v -10.2682065963745 16 -10.9345293045044
v -9.56135940551758 16 -11.5576982498169
v -8.8167781829834 16 -12.1352548599243
v -12.1352548599243 16 -8.8167781829834
v -12.6649188995361 16 -8.03740215301514
v -8.03740215301514 16 -12.6649188995361
v -7.22630500793457 16 -13.1446008682251
v -13.1446008682251 16 -7.22630500793457
v -13.5724058151245 16 -6.38668966293335
v -6.38668966293335 16 -13.5724058151245
v -4.63525485992432 16 -14.2658472061157
v -5.52186822891235 16 -13.946647644043
v -3.73034834861755 16 -14.5287466049194
v -14.5287466049194 16 -3.73034834861755
v -14.7343082427979 16 -2.81071972846985
v -14.2658472061157 16 -4.63525485992432
v -13.946647644043 16 -5.52186822891235
v -2.81071972846985 16 -14.7343082427979
v -1.87999856472015 16 -14.8817205429077
v -0.941857814788818 16 -14.970401763916
v -15 16 -3.81310583693999e-14
v -14.970401763916 16 0.941857814788818
v -14.970401763916 16 -0.941857814788818
v -14.8817205429077 16 -1.87999856472015
v 1.87999856472015 16 -14.8817205429077
v 0.941857814788818 16 -14.970401763916
v 2.81071972846985 16 -14.7343082427979
v -14.7343082427979 16 2.81071972846985
v -14.5287466049194 16 3.73034834861755
v -14.8817205429077 16 1.87999856472015
v 3.73034834861755 16 -14.5287466049194
v -14.2658472061157 16 4.63525485992432
v 4.63525485992432 16 -14.2658472061157
v -2.75545535214218e-15 16 -15
v -13.946647644043 16 5.52186822891235
v 5.52186822891235 16 -13.946647644043
v 6.38668966293335 16 -13.5724058151245
v -13.5724058151245 16 6.38668966293335
v -13.1446008682251 16 7.22630500793457
v -12.6649188995361 16 8.03740215301514
v -12.1352548599243 16 8.8167781829834
v 7.22630500793457 16 -13.1446008682251
v -11.5576982498169 16 9.56135940551758
v 8.8167781829834 16 -12.1352548599243
v 8.03740215301514 16 -12.6649188995361
v 9.56135940551758 16 -11.5576982498169
v 10.2682065963745 16 -10.9345293045044
v 10.9345293045044 16 -10.2682065963745
v 11.5576982498169 16 -9.56135940551758
v -9.56135940551758 16 11.5576982498169
v -8.8167781829834 16 12.1352548599243
v -10.2682065963745 16 10.9345293045044
v -10.9345293045044 16 10.2682065963745
v -8.03740215301514 16 12.6649188995361
v -7.22630500793457 16 13.1446008682251
v 13.1446008682251 16 -7.22630500793457
v 12.6649188995361 16 -8.03740215301514
v 13.5724058151245 16 -6.38668966293335
v -6.38668966293335 16 13.5724058151245
v 12.1352548599243 16 -8.8167781829834
v 13.946647644043 16 -5.52186822891235
v 14.2658472061157 16 -4.63525485992432
v -4.63525485992432 16 14.2658472061157
v -3.73034834861755 16 14.5287466049194
v -5.52186822891235 16 13.946647644043
v 14.5287466049194 16 -3.73034834861755
v 14.7343082427979 16 -2.81071972846985
v 14.8817205429077 16 -1.87999856472015
v 14.970401763916 16 -0.941857814788818
v 15 16 -3.67399990300137e-15
v 0.941857814788818 16 14.970401763916
v 1.87999856472015 16 14.8817205429077
v -9.07352196307352e-15 16 15
v -0.941857814788818 16 14.970401763916
v -1.87999856472015 16 14.8817205429077
v -2.81071972846985 16 14.7343082427979
v 14.970401763916 16 0.941857814788818
v 14.8817205429077 16 1.87999856472015
v 14.7343082427979 16 2.81071972846985
v 14.5287466049194 16 3.73034834861755
v 2.81071972846985 16 14.7343082427979
v 3.73034834861755 16 14.5287466049194
v 14.2658472061157 16 4.63525485992432
v 13.946647644043 16 5.52186822891235
v 13.5724058151245 16 6.38668966293335
v 13.1446008682251 16 7.22630500793457
v 7.22630500793457 16 13.1446008682251
v 8.03740215301514 16 12.6649188995361
v 6.38668966293335 16 13.5724058151245
v 12.6649188995361 16 8.03740215301514
v 5.52186822891235 16 13.946647644043
v 4.63525485992432 16 14.2658472061157
v 8.8167781829834 16 12.1352548599243
v 12.1352548599243 16 8.8167781829834
v 11.5576982498169 16 9.56135940551758
v 9.56135940551758 16 11.5576982498169
v 10.9345293045044 16 10.2682065963745
v 10.2682065963745 16 10.9345293045044
v -11.5576982498169 -8 -9.56135940551758
v -10.9345293045044 -8 -10.2682065963745
v -10.2682065963745 -8 -10.9345293045044
v -9.56135940551758 -8 -11.5576982498169
v -8.8167781829834 -8 -12.1352548599243
v -12.6649188995361 -8 -8.03740215301514
v -12.1352548599243 -8 -8.8167781829834
v -8.03740215301514 -8 -12.6649188995361
v -7.22630500793457 -8 -13.1446008682251
v -13.5724058151245 -8 -6.38668966293335
v -13.1446008682251 -8 -7.22630500793457
v -6.38668966293335 -8 -13.5724058151245
v -5.52186822891235 -8 -13.946647644043
v -4.63525485992432 -8 -14.2658472061157
v -3.73034834861755 -8 -14.5287466049194
v -14.7343082427979 -8 -2.81071972846985
v -14.5287466049194 -8 -3.73034834861755
v -14.2658472061157 -8 -4.63525485992432
v -13.946647644043 -8 -5.52186822891235
v -2.81071972846985 -8 -14.7343082427979
v -1.87999856472015 -8 -14.8817205429077
v -0.941857814788818 -8 -14.970401763916
v -14.970401763916 -8 0.941857814788818
v -15 -8 -3.81310583693999e-14
v -14.970401763916 -8 -0.941857814788818
v -14.8817205429077 -8 -1.87999856472015
v 0.941857814788818 -8 -14.970401763916
v 1.87999856472015 -8 -14.8817205429077
v 2.81071972846985 -8 -14.7343082427979
v -14.5287466049194 -8 3.73034834861755
v -14.7343082427979 -8 2.81071972846985
v -14.8817205429077 -8 1.87999856472015
v 3.73034834861755 -8 -14.5287466049194
v -14.2658472061157 -8 4.63525485992432
v 4.63525485992432 -8 -14.2658472061157
v -2.75545535214218e-15 -8 -15
v -13.946647644043 -8 5.52186822891235
v 5.52186822891235 -8 -13.946647644043
v 6.38668966293335 -8 -13.5724058151245
v -13.5724058151245 -8 6.38668966293335
v -12.6649188995361 -8 8.03740215301514
v -13.1446008682251 -8 7.22630500793457
v -12.1352548599243 -8 8.8167781829834
v 7.22630500793457 -8 -13.1446008682251
v -11.5576982498169 -8 9.56135940551758
v 8.03740215301514 -8 -12.6649188995361
v 8.8167781829834 -8 -12.1352548599243
v 9.56135940551758 -8 -11.5576982498169
v 10.2682065963745 -8 -10.9345293045044
v 10.9345293045044 -8 -10.2682065963745
v 11.5576982498169 -8 -9.56135940551758
v -8.8167781829834 -8 12.1352548599243
v -9.56135940551758 -8 11.5576982498169
v -10.2682065963745 -8 10.9345293045044
v -10.9345293045044 -8 10.2682065963745
v -7.22630500793457 -8 13.1446008682251
v -8.03740215301514 -8 12.6649188995361
v 12.6649188995361 -8 -8.03740215301514
v 13.1446008682251 -8 -7.22630500793457
v 13.5724058151245 -8 -6.38668966293335
v -6.38668966293335 -8 13.5724058151245
v 12.1352548599243 -8 -8.8167781829834
v 13.946647644043 -8 -5.52186822891235
v 14.2658472061157 -8 -4.63525485992432
v -3.73034834861755 -8 14.5287466049194
v -4.63525485992432 -8 14.2658472061157
v -5.52186822891235 -8 13.946647644043
v 14.5287466049194 -8 -3.73034834861755
v 14.7343082427979 -8 -2.81071972846985
v 14.8817205429077 -8 -1.87999856472015
v 14.970401763916 -8 -0.941857814788818
v 15 -8 -3.67399990300137e-15
v 1.87999856472015 -8 14.8817205429077
v 0.941857814788818 -8 14.970401763916
v -9.07352196307352e-15 -8 15
v -0.941857814788818 -8 14.970401763916
v -1.87999856472015 -8 14.8817205429077
v -2.81071972846985 -8 14.7343082427979
v 14.970401763916 -8 0.941857814788818
v 14.8817205429077 -8 1.87999856472015
v 14.7343082427979 -8 2.81071972846985
v 14.5287466049194 -8 3.73034834861755
v 3.73034834861755 -8 14.5287466049194
v 2.81071972846985 -8 14.7343082427979
v 14.2658472061157 -8 4.63525485992432
v 13.946647644043 -8 5.52186822891235
v 13.5724058151245 -8 6.38668966293335
v 13.1446008682251 -8 7.22630500793457
v 8.03740215301514 -8 12.6649188995361
v 7.22630500793457 -8 13.1446008682251
v 6.38668966293335 -8 13.5724058151245
v 12.6649188995361 -8 8.03740215301514
v 5.52186822891235 -8 13.946647644043
v 4.63525485992432 -8 14.2658472061157
v 8.8167781829834 -8 12.1352548599243
v 12.1352548599243 -8 8.8167781829834
v 11.5576982498169 -8 9.56135940551758
v 9.56135940551758 -8 11.5576982498169
v 10.9345293045044 -8 10.2682065963745
v 10.2682065963745 -8 10.9345293045044
# </points>

# <edges count="200">
l 1 2
l 3 1
l 4 3
l 5 4
l 6 7
l 2 6
l 8 5
l 9 8
l 10 11
l 7 10
l 12 9
l 13 14
l 15 13
l 16 17
l 18 16
l 19 18
l 11 19
l 14 12
l 20 15
l 21 20
l 22 21
l 23 24
l 25 23
l 26 25
l 17 26
l 27 28
l 29 27
l 30 31
l 32 30
l 33 29
l 24 32
l 31 34
l 35 33
l 36 22
l 28 36
l 34 37
l 38 35
l 39 38
l 37 40
l 41 42
l 40 41
l 42 43
l 44 39
l 43 45
l 46 47
l 48 46
l 49 48
l 47 44
l 50 49
l 51 50
l 52 53
l 54 52
l 55 54
l 56 57
l 53 56
l 45 55
l 58 59
l 60 58
l 57 61
l 62 51
l 59 62
l 63 60
l 64 63
l 65 66
l 67 65
l 61 67
l 68 64
l 69 68
l 70 69
l 71 70
l 72 71
l 73 74
l 75 73
l 76 75
l 77 76
l 78 77
l 66 78
l 79 72
l 80 79
l 81 80
l 82 81
l 83 84
l 74 83
l 85 82
l 86 85
l 87 86
l 88 87
l 89 90
l 91 89
l 92 88
l 93 91
l 94 93
l 90 95
l 96 92
l 97 96
l 95 98
l 99 97
l 100 99
l 84 94
l 98 100
l 101 102
l 102 103
l 103 104
l 104 105
l 106 107
l 107 101
l 105 108
l 108 109
l 110 111
l 111 106
l 109 112
l 113 114
l 114 115
l 116 117
l 117 118
l 118 119
l 119 110
l 112 113
l 115 120
l 120 121
l 121 122
l 123 124
l 124 125
l 125 126
l 126 116
l 127 128
l 128 129
l 130 131
l 131 132
l 129 133
l 132 123
l 134 130
l 133 135
l 122 136
l 136 127
l 137 134
l 135 138
l 138 139
l 140 137
l 141 142
l 142 140
l 143 141
l 139 144
l 145 143
l 146 147
l 147 148
l 148 149
l 144 146
l 149 150
l 150 151
l 152 153
l 153 154
l 154 155
l 156 157
l 157 152
l 155 145
l 158 159
l 159 160
l 161 156
l 151 162
l 162 158
l 160 163
l 163 164
l 165 166
l 166 167
l 167 161
l 164 168
l 168 169
l 169 170
l 170 171
l 171 172
l 173 174
l 174 175
l 175 176
l 176 177
l 177 178
l 178 165
l 172 179
l 179 180
l 180 181
l 181 182
l 183 184
l 184 173
l 182 185
l 185 186
l 186 187
l 187 188
l 189 190
l 190 191
l 188 192
l 191 193
l 193 194
l 195 189
l 192 196
l 196 197
l 198 195
l 197 199
l 199 200
l 194 183
l 200 198
# </edges>
