solid patch_2_0
 facet normal 0.0 -1.0 0.0
  outer loop
   vertex -11.5576982421875 -8.0 -9.561359375
   vertex -10.934529296875 -8.0 -10.26820703125
   vertex -10.26820703125 -8.0 -10.934529296875
  endloop
 endfacet
 facet normal 0.0 -1.0 0.0
  outer loop
   vertex -8.8167783203125 -8.0 -12.1352548828125
   vertex -10.26820703125 -8.0 -10.934529296875
   vertex -9.561359375 -8.0 -11.5576982421875
  endloop
 endfacet
 facet normal 0.0 -1.0 0.0
  outer loop
   vertex -12.6649189453125 -8.0 -8.037401855468751
   vertex -11.5576982421875 -8.0 -9.561359375
   vertex -10.26820703125 -8.0 -10.934529296875
  endloop
 endfacet
 facet normal 0.0 -1.0 0.0
  outer loop
   vertex -12.6649189453125 -8.0 -8.037401855468751
   vertex -12.1352548828125 -8.0 -8.8167783203125
   vertex -11.5576982421875 -8.0 -9.561359375
  endloop
 endfacet
 facet normal 0.0 -1.0 0.0
  outer loop
   vertex -8.037401855468751 -8.0 -12.6649189453125
   vertex -10.26820703125 -8.0 -10.934529296875
   vertex -8.8167783203125 -8.0 -12.1352548828125
  endloop
 endfacet
 facet normal 0.0 -1.0 0.0
  outer loop
   vertex -7.22630517578125 -8.0 -13.1446005859375
   vertex -10.26820703125 -8.0 -10.934529296875
   vertex -8.037401855468751 -8.0 -12.6649189453125
  endloop
 endfacet
 facet normal 0.0 -1.0 0.0
  outer loop
   vertex -13.57240625 -8.0 -6.386689453125
   vertex -13.1446005859375 -8.0 -7.22630517578125
   vertex -12.6649189453125 -8.0 -8.037401855468751
  endloop
 endfacet
 facet normal 0.0 -1.0 0.0
  outer loop
   vertex -6.386689453125 -8.0 -13.57240625
   vertex -10.26820703125 -8.0 -10.934529296875
   vertex -7.22630517578125 -8.0 -13.1446005859375
  endloop
 endfacet
 facet normal 0.0 -1.0 0.0
  outer loop
   vertex -3.730348388671875 -8.0 -14.5287470703125
   vertex -5.5218681640625 -8.0 -13.9466474609375
   vertex -4.6352548828125 -8.0 -14.265847656250001
  endloop
 endfacet
 facet normal 0.0 -1.0 0.0
  outer loop
   vertex -14.73430859375 -8.0 -2.8107197265625
   vertex -12.6649189453125 -8.0 -8.037401855468751
   vertex -10.26820703125 -8.0 -10.934529296875
  endloop
 endfacet
 facet normal 0.0 -1.0 0.0
  outer loop
   vertex -14.73430859375 -8.0 -2.8107197265625
   vertex -13.57240625 -8.0 -6.386689453125
   vertex -12.6649189453125 -8.0 -8.037401855468751
  endloop
 endfacet
 facet normal 0.0 -1.0 0.0
  outer loop
   vertex -14.73430859375 -8.0 -2.8107197265625
   vertex -14.5287470703125 -8.0 -3.730348388671875
   vertex -14.265847656250001 -8.0 -4.6352548828125
  endloop
 endfacet
 facet normal 0.0 -1.0 0.0
  outer loop
   vertex -14.73430859375 -8.0 -2.8107197265625
   vertex -14.265847656250001 -8.0 -4.6352548828125
   vertex -13.9466474609375 -8.0 -5.5218681640625
  endloop
 endfacet
 facet normal 0.0 -1.0 0.0
  outer loop
   vertex -14.73430859375 -8.0 -2.8107197265625
   vertex -13.9466474609375 -8.0 -5.5218681640625
   vertex -13.57240625 -8.0 -6.386689453125
  endloop
 endfacet
 facet normal 0.0 -1.0 0.0
  outer loop
   vertex -1.87999853515625 -8.0 -14.881720703125
   vertex -10.26820703125 -8.0 -10.934529296875
   vertex -6.386689453125 -8.0 -13.57240625
  endloop
 endfacet
 facet normal 0.0 -1.0 0.0
  outer loop
   vertex -1.87999853515625 -8.0 -14.881720703125
   vertex -14.73430859375 -8.0 -2.8107197265625
   vertex -10.26820703125 -8.0 -10.934529296875
  endloop
 endfacet
 facet normal 0.0 -1.0 0.0
  outer loop
   vertex -1.87999853515625 -8.0 -14.881720703125
   vertex -5.5218681640625 -8.0 -13.9466474609375
   vertex -3.730348388671875 -8.0 -14.5287470703125
  endloop
 endfacet
 facet normal 0.0 -1.0 0.0
  outer loop
   vertex -1.87999853515625 -8.0 -14.881720703125
   vertex -6.386689453125 -8.0 -13.57240625
   vertex -5.5218681640625 -8.0 -13.9466474609375
  endloop
 endfacet
 facet normal 0.0 -1.0 0.0
  outer loop
   vertex -1.87999853515625 -8.0 -14.881720703125
   vertex -3.730348388671875 -8.0 -14.5287470703125
   vertex -2.8107197265625 -8.0 -14.73430859375
  endloop
 endfacet
 facet normal 0.0 -1.0 0.0
  outer loop
   vertex -0.9418577880859376 -8.0 -14.9704013671875
   vertex -14.73430859375 -8.0 -2.8107197265625
   vertex -1.87999853515625 -8.0 -14.881720703125
  endloop
 endfacet
 facet normal 0.0 -1.0 -0.0
  outer loop
   vertex -14.9704013671875 -8.0 0.9418577880859376
   vertex -15.0 -8.0 -3.8131057339407805e-14
   vertex -14.9704013671875 -8.0 -0.9418577880859376
  endloop
 endfacet
 facet normal 0.0 -1.0 0.0
  outer loop
   vertex -14.9704013671875 -8.0 0.9418577880859376
   vertex -14.9704013671875 -8.0 -0.9418577880859376
   vertex -14.881720703125 -8.0 -1.87999853515625
  endloop
 endfacet
 facet normal 0.0 -1.0 0.0
  outer loop
   vertex -14.9704013671875 -8.0 0.9418577880859376
   vertex -14.881720703125 -8.0 -1.87999853515625
   vertex -14.73430859375 -8.0 -2.8107197265625
  endloop
 endfacet
 facet normal 0.0 -1.0 0.0
  outer loop
   vertex 2.8107197265625 -8.0 -14.73430859375
   vertex 0.9418577880859376 -8.0 -14.9704013671875
   vertex 1.87999853515625 -8.0 -14.881720703125
  endloop
 endfacet
 facet normal 0.0 -1.0 0.0
  outer loop
   vertex -14.5287470703125 -8.0 3.730348388671875
   vertex -14.73430859375 -8.0 2.8107197265625
   vertex -14.881720703125 -8.0 1.87999853515625
  endloop
 endfacet
 facet normal 0.0 -1.0 0.0
  outer loop
   vertex 3.730348388671875 -8.0 -14.5287470703125
   vertex 0.9418577880859376 -8.0 -14.9704013671875
   vertex 2.8107197265625 -8.0 -14.73430859375
  endloop
 endfacet
 facet normal 0.0 -1.0 0.0
  outer loop
   vertex -14.265847656250001 -8.0 4.6352548828125
   vertex -14.881720703125 -8.0 1.87999853515625
   vertex -14.9704013671875 -8.0 0.9418577880859376
  endloop
 endfacet
 facet normal 0.0 -1.0 0.0
  outer loop
   vertex -14.265847656250001 -8.0 4.6352548828125
   vertex -14.5287470703125 -8.0 3.730348388671875
   vertex -14.881720703125 -8.0 1.87999853515625
  endloop
 endfacet
 facet normal -0.0 -1.0 0.0
  outer loop
   vertex 4.6352548828125 -8.0 -14.265847656250001
   vertex -14.73430859375 -8.0 -2.8107197265625
   vertex -0.9418577880859376 -8.0 -14.9704013671875
  endloop
 endfacet
 facet normal 0.0 -1.0 0.0
  outer loop
   vertex 4.6352548828125 -8.0 -14.265847656250001
   vertex 0.9418577880859376 -8.0 -14.9704013671875
   vertex 3.730348388671875 -8.0 -14.5287470703125
  endloop
 endfacet
 facet normal 0.0 -1.0 0.0
  outer loop
   vertex 4.6352548828125 -8.0 -14.265847656250001
   vertex -0.9418577880859376 -8.0 -14.9704013671875
   vertex -2.7554553690828376e-15 -8.0 -15.0
  endloop
 endfacet
 facet normal 0.0 -1.0 0.0
  outer loop
   vertex 4.6352548828125 -8.0 -14.265847656250001
   vertex -2.7554553690828376e-15 -8.0 -15.0
   vertex 0.9418577880859376 -8.0 -14.9704013671875
  endloop
 endfacet
 facet normal 0.0 -1.0 0.0
  outer loop
   vertex -13.9466474609375 -8.0 5.5218681640625
   vertex -14.9704013671875 -8.0 0.9418577880859376
   vertex -14.73430859375 -8.0 -2.8107197265625
  endloop
 endfacet
 facet normal 0.0 -1.0 0.0
  outer loop
   vertex -13.9466474609375 -8.0 5.5218681640625
   vertex -14.265847656250001 -8.0 4.6352548828125
   vertex -14.9704013671875 -8.0 0.9418577880859376
  endloop
 endfacet
 facet normal 0.0 -1.0 -0.0
  outer loop
   vertex -13.9466474609375 -8.0 5.5218681640625
   vertex -14.73430859375 -8.0 -2.8107197265625
   vertex 4.6352548828125 -8.0 -14.265847656250001
  endloop
 endfacet
 facet normal 0.0 -1.0 0.0
  outer loop
   vertex 6.386689453125 -8.0 -13.57240625
   vertex 4.6352548828125 -8.0 -14.265847656250001
   vertex 5.5218681640625 -8.0 -13.9466474609375
  endloop
 endfacet
 facet normal 0.0 -1.0 -0.0
  outer loop
   vertex -13.57240625 -8.0 6.386689453125
   vertex -13.9466474609375 -8.0 5.5218681640625
   vertex 4.6352548828125 -8.0 -14.265847656250001
  endloop
 endfacet
 facet normal 0.0 -1.0 0.0
  outer loop
   vertex -13.57240625 -8.0 6.386689453125
   vertex 4.6352548828125 -8.0 -14.265847656250001
   vertex 6.386689453125 -8.0 -13.57240625
  endloop
 endfacet
 facet normal 0.0 -1.0 0.0
  outer loop
   vertex -12.6649189453125 -8.0 8.037401855468751
   vertex -13.1446005859375 -8.0 7.22630517578125
   vertex -13.57240625 -8.0 6.386689453125
  endloop
 endfacet
 facet normal 0.0 -1.0 0.0
  outer loop
   vertex -12.1352548828125 -8.0 8.8167783203125
   vertex -12.6649189453125 -8.0 8.037401855468751
   vertex -13.57240625 -8.0 6.386689453125
  endloop
 endfacet
 facet normal 0.0 -1.0 0.0
  outer loop
   vertex -11.5576982421875 -8.0 9.561359375
   vertex 6.386689453125 -8.0 -13.57240625
   vertex 7.22630517578125 -8.0 -13.1446005859375
  endloop
 endfacet
 facet normal 0.0 -1.0 -0.0
  outer loop
   vertex -11.5576982421875 -8.0 9.561359375
   vertex -13.57240625 -8.0 6.386689453125
   vertex 6.386689453125 -8.0 -13.57240625
  endloop
 endfacet
 facet normal 0.0 -1.0 0.0
  outer loop
   vertex -11.5576982421875 -8.0 9.561359375
   vertex -12.1352548828125 -8.0 8.8167783203125
   vertex -13.57240625 -8.0 6.386689453125
  endloop
 endfacet
 facet normal 0.0 -1.0 0.0
  outer loop
   vertex 10.26820703125 -8.0 -10.934529296875
   vertex 8.037401855468751 -8.0 -12.6649189453125
   vertex 8.8167783203125 -8.0 -12.1352548828125
  endloop
 endfacet
 facet normal 0.0 -1.0 0.0
  outer loop
   vertex 10.26820703125 -8.0 -10.934529296875
   vertex 8.8167783203125 -8.0 -12.1352548828125
   vertex 9.561359375 -8.0 -11.5576982421875
  endloop
 endfacet
 facet normal 0.0 -1.0 0.0
  outer loop
   vertex 11.5576982421875 -8.0 -9.561359375
   vertex 7.22630517578125 -8.0 -13.1446005859375
   vertex 8.037401855468751 -8.0 -12.6649189453125
  endloop
 endfacet
 facet normal 0.0 -1.0 0.0
  outer loop
   vertex 11.5576982421875 -8.0 -9.561359375
   vertex 10.26820703125 -8.0 -10.934529296875
   vertex 10.934529296875 -8.0 -10.26820703125
  endloop
 endfacet
 facet normal 0.0 -1.0 0.0
  outer loop
   vertex 11.5576982421875 -8.0 -9.561359375
   vertex 8.037401855468751 -8.0 -12.6649189453125
   vertex 10.26820703125 -8.0 -10.934529296875
  endloop
 endfacet
 facet normal 0.0 -1.0 0.0
  outer loop
   vertex -8.8167783203125 -8.0 12.1352548828125
   vertex -9.561359375 -8.0 11.5576982421875
   vertex -10.26820703125 -8.0 10.934529296875
  endloop
 endfacet
 facet normal 0.0 -1.0 0.0
  outer loop
   vertex -8.8167783203125 -8.0 12.1352548828125
   vertex -10.26820703125 -8.0 10.934529296875
   vertex -10.934529296875 -8.0 10.26820703125
  endloop
 endfacet
 facet normal 0.0 -1.0 0.0
  outer loop
   vertex -7.22630517578125 -8.0 13.1446005859375
   vertex -8.8167783203125 -8.0 12.1352548828125
   vertex -10.934529296875 -8.0 10.26820703125
  endloop
 endfacet
 facet normal 0.0 -1.0 0.0
  outer loop
   vertex -7.22630517578125 -8.0 13.1446005859375
   vertex -8.037401855468751 -8.0 12.6649189453125
   vertex -8.8167783203125 -8.0 12.1352548828125
  endloop
 endfacet
 facet normal 0.0 -1.0 0.0
  outer loop
   vertex -7.22630517578125 -8.0 13.1446005859375
   vertex -10.934529296875 -8.0 10.26820703125
   vertex -11.5576982421875 -8.0 9.561359375
  endloop
 endfacet
 facet normal 0.0 -1.0 -0.0
  outer loop
   vertex -7.22630517578125 -8.0 13.1446005859375
   vertex -11.5576982421875 -8.0 9.561359375
   vertex 7.22630517578125 -8.0 -13.1446005859375
  endloop
 endfacet
 facet normal 0.0 -1.0 0.0
  outer loop
   vertex 13.57240625 -8.0 -6.386689453125
   vertex 12.6649189453125 -8.0 -8.037401855468751
   vertex 13.1446005859375 -8.0 -7.22630517578125
  endloop
 endfacet
 facet normal 0.0 -1.0 0.0
  outer loop
   vertex -6.386689453125 -8.0 13.57240625
   vertex 7.22630517578125 -8.0 -13.1446005859375
   vertex 11.5576982421875 -8.0 -9.561359375
  endloop
 endfacet
 facet normal 0.0 -1.0 -0.0
  outer loop
   vertex -6.386689453125 -8.0 13.57240625
   vertex -7.22630517578125 -8.0 13.1446005859375
   vertex 7.22630517578125 -8.0 -13.1446005859375
  endloop
 endfacet
 facet normal 0.0 -1.0 0.0
  outer loop
   vertex 14.265847656250001 -8.0 -4.6352548828125
   vertex 12.6649189453125 -8.0 -8.037401855468751
   vertex 13.57240625 -8.0 -6.386689453125
  endloop
 endfacet
 facet normal 0.0 -1.0 0.0
  outer loop
   vertex 14.265847656250001 -8.0 -4.6352548828125
   vertex 11.5576982421875 -8.0 -9.561359375
   vertex 12.1352548828125 -8.0 -8.8167783203125
  endloop
 endfacet
 facet normal 0.0 -1.0 0.0
  outer loop
   vertex 14.265847656250001 -8.0 -4.6352548828125
   vertex 12.1352548828125 -8.0 -8.8167783203125
   vertex 12.6649189453125 -8.0 -8.037401855468751
  endloop
 endfacet
 facet normal 0.0 -1.0 0.0
  outer loop
   vertex 14.265847656250001 -8.0 -4.6352548828125
   vertex 13.57240625 -8.0 -6.386689453125
   vertex 13.9466474609375 -8.0 -5.5218681640625
  endloop
 endfacet
 facet normal 0.0 -1.0 -0.0
  outer loop
   vertex -3.730348388671875 -8.0 14.5287470703125
   vertex -6.386689453125 -8.0 13.57240625
   vertex 11.5576982421875 -8.0 -9.561359375
  endloop
 endfacet
 facet normal 0.0 -1.0 0.0
  outer loop
   vertex -3.730348388671875 -8.0 14.5287470703125
   vertex -4.6352548828125 -8.0 14.265847656250001
   vertex -5.5218681640625 -8.0 13.9466474609375
  endloop
 endfacet
 facet normal 0.0 -1.0 0.0
  outer loop
   vertex -3.730348388671875 -8.0 14.5287470703125
   vertex -5.5218681640625 -8.0 13.9466474609375
   vertex -6.386689453125 -8.0 13.57240625
  endloop
 endfacet
 facet normal 0.0 -1.0 0.0
  outer loop
   vertex 14.881720703125 -8.0 -1.87999853515625
   vertex 14.265847656250001 -8.0 -4.6352548828125
   vertex 14.5287470703125 -8.0 -3.730348388671875
  endloop
 endfacet
 facet normal 0.0 -1.0 0.0
  outer loop
   vertex 14.881720703125 -8.0 -1.87999853515625
   vertex 14.5287470703125 -8.0 -3.730348388671875
   vertex 14.73430859375 -8.0 -2.8107197265625
  endloop
 endfacet
 facet normal 0.0 -1.0 0.0
  outer loop
   vertex 15.0 -8.0 -3.673999906389502e-15
   vertex 11.5576982421875 -8.0 -9.561359375
   vertex 14.265847656250001 -8.0 -4.6352548828125
  endloop
 endfacet
 facet normal 0.0 -1.0 0.0
  outer loop
   vertex 15.0 -8.0 -3.673999906389502e-15
   vertex 14.265847656250001 -8.0 -4.6352548828125
   vertex 14.881720703125 -8.0 -1.87999853515625
  endloop
 endfacet
 facet normal 0.0 -1.0 0.0
  outer loop
   vertex 15.0 -8.0 -3.673999906389502e-15
   vertex 14.881720703125 -8.0 -1.87999853515625
   vertex 14.9704013671875 -8.0 -0.9418577880859376
  endloop
 endfacet
 facet normal 0.0 -1.0 0.0
  outer loop
   vertex 1.87999853515625 -8.0 14.881720703125
   vertex 0.9418577880859376 -8.0 14.9704013671875
   vertex -9.073522315439232e-15 -8.0 15.0
  endloop
 endfacet
 facet normal 0.0 -1.0 0.0
  outer loop
   vertex 1.87999853515625 -8.0 14.881720703125
   vertex -9.073522315439232e-15 -8.0 15.0
   vertex -0.9418577880859376 -8.0 14.9704013671875
  endloop
 endfacet
 facet normal 0.0 -1.0 0.0
  outer loop
   vertex 1.87999853515625 -8.0 14.881720703125
   vertex -0.9418577880859376 -8.0 14.9704013671875
   vertex -1.87999853515625 -8.0 14.881720703125
  endloop
 endfacet
 facet normal -0.0 -1.0 0.0
  outer loop
   vertex 1.87999853515625 -8.0 14.881720703125
   vertex -1.87999853515625 -8.0 14.881720703125
   vertex -2.8107197265625 -8.0 14.73430859375
  endloop
 endfacet
 facet normal 0.0 -1.0 0.0
  outer loop
   vertex 1.87999853515625 -8.0 14.881720703125
   vertex -2.8107197265625 -8.0 14.73430859375
   vertex -3.730348388671875 -8.0 14.5287470703125
  endloop
 endfacet
 facet normal 0.0 -1.0 0.0
  outer loop
   vertex 14.881720703125 -8.0 1.87999853515625
   vertex 15.0 -8.0 -3.673999906389502e-15
   vertex 14.9704013671875 -8.0 0.9418577880859376
  endloop
 endfacet
 facet normal 0.0 -1.0 -0.0
  outer loop
   vertex 14.881720703125 -8.0 1.87999853515625
   vertex 11.5576982421875 -8.0 -9.561359375
   vertex 15.0 -8.0 -3.673999906389502e-15
  endloop
 endfacet
 facet normal 0.0 -1.0 0.0
  outer loop
   vertex 14.5287470703125 -8.0 3.730348388671875
   vertex 14.881720703125 -8.0 1.87999853515625
   vertex 14.73430859375 -8.0 2.8107197265625
  endloop
 endfacet
 facet normal 0.0 -1.0 0.0
  outer loop
   vertex 14.265847656250001 -8.0 4.6352548828125
   vertex 3.730348388671875 -8.0 14.5287470703125
   vertex 2.8107197265625 -8.0 14.73430859375
  endloop
 endfacet
 facet normal 0.0 -1.0 0.0
  outer loop
   vertex 14.265847656250001 -8.0 4.6352548828125
   vertex 2.8107197265625 -8.0 14.73430859375
   vertex 1.87999853515625 -8.0 14.881720703125
  endloop
 endfacet
 facet normal -0.0 -1.0 0.0
  outer loop
   vertex 14.265847656250001 -8.0 4.6352548828125
   vertex -3.730348388671875 -8.0 14.5287470703125
   vertex 11.5576982421875 -8.0 -9.561359375
  endloop
 endfacet
 facet normal 0.0 -1.0 0.0
  outer loop
   vertex 14.265847656250001 -8.0 4.6352548828125
   vertex 1.87999853515625 -8.0 14.881720703125
   vertex -3.730348388671875 -8.0 14.5287470703125
  endloop
 endfacet
 facet normal 0.0 -1.0 -0.0
  outer loop
   vertex 14.265847656250001 -8.0 4.6352548828125
   vertex 11.5576982421875 -8.0 -9.561359375
   vertex 14.881720703125 -8.0 1.87999853515625
  endloop
 endfacet
 facet normal 0.0 -1.0 0.0
  outer loop
   vertex 14.265847656250001 -8.0 4.6352548828125
   vertex 14.881720703125 -8.0 1.87999853515625
   vertex 14.5287470703125 -8.0 3.730348388671875
  endloop
 endfacet
 facet normal 0.0 -1.0 0.0
  outer loop
   vertex 13.1446005859375 -8.0 7.22630517578125
   vertex 14.265847656250001 -8.0 4.6352548828125
   vertex 13.9466474609375 -8.0 5.5218681640625
  endloop
 endfacet
 facet normal 0.0 -1.0 0.0
  outer loop
   vertex 13.1446005859375 -8.0 7.22630517578125
   vertex 13.9466474609375 -8.0 5.5218681640625
   vertex 13.57240625 -8.0 6.386689453125
  endloop
 endfacet
 facet normal 0.0 -1.0 0.0
  outer loop
   vertex 8.037401855468751 -8.0 12.6649189453125
   vertex 7.22630517578125 -8.0 13.1446005859375
   vertex 6.386689453125 -8.0 13.57240625
  endloop
 endfacet
 facet normal 0.0 -1.0 0.0
  outer loop
   vertex 12.6649189453125 -8.0 8.037401855468751
   vertex 14.265847656250001 -8.0 4.6352548828125
   vertex 13.1446005859375 -8.0 7.22630517578125
  endloop
 endfacet
 facet normal 0.0 -1.0 0.0
  outer loop
   vertex 8.8167783203125 -8.0 12.1352548828125
   vertex 6.386689453125 -8.0 13.57240625
   vertex 5.5218681640625 -8.0 13.9466474609375
  endloop
 endfacet
 facet normal 0.0 -1.0 0.0
  outer loop
   vertex 8.8167783203125 -8.0 12.1352548828125
   vertex 5.5218681640625 -8.0 13.9466474609375
   vertex 4.6352548828125 -8.0 14.265847656250001
  endloop
 endfacet
 facet normal 0.0 -1.0 0.0
  outer loop
   vertex 8.8167783203125 -8.0 12.1352548828125
   vertex 8.037401855468751 -8.0 12.6649189453125
   vertex 6.386689453125 -8.0 13.57240625
  endloop
 endfacet
 facet normal 0.0 -1.0 0.0
  outer loop
   vertex 11.5576982421875 -8.0 9.561359375
   vertex 12.6649189453125 -8.0 8.037401855468751
   vertex 12.1352548828125 -8.0 8.8167783203125
  endloop
 endfacet
 facet normal 0.0 -1.0 0.0
  outer loop
   vertex 11.5576982421875 -8.0 9.561359375
   vertex 14.265847656250001 -8.0 4.6352548828125
   vertex 12.6649189453125 -8.0 8.037401855468751
  endloop
 endfacet
 facet normal 0.0 -1.0 0.0
  outer loop
   vertex 9.561359375 -8.0 11.5576982421875
   vertex 8.8167783203125 -8.0 12.1352548828125
   vertex 4.6352548828125 -8.0 14.265847656250001
  endloop
 endfacet
 facet normal 0.0 -1.0 0.0
  outer loop
   vertex 10.26820703125 -8.0 10.934529296875
   vertex 11.5576982421875 -8.0 9.561359375
   vertex 10.934529296875 -8.0 10.26820703125
  endloop
 endfacet
 facet normal 0.0 -1.0 0.0
  outer loop
   vertex 10.26820703125 -8.0 10.934529296875
   vertex 4.6352548828125 -8.0 14.265847656250001
   vertex 3.730348388671875 -8.0 14.5287470703125
  endloop
 endfacet
 facet normal -0.0 -1.0 -0.0
  outer loop
   vertex 10.26820703125 -8.0 10.934529296875
   vertex 3.730348388671875 -8.0 14.5287470703125
   vertex 14.265847656250001 -8.0 4.6352548828125
  endloop
 endfacet
 facet normal 0.0 -1.0 0.0
  outer loop
   vertex 10.26820703125 -8.0 10.934529296875
   vertex 14.265847656250001 -8.0 4.6352548828125
   vertex 11.5576982421875 -8.0 9.561359375
  endloop
 endfacet
 facet normal 0.0 -1.0 0.0
  outer loop
   vertex 10.26820703125 -8.0 10.934529296875
   vertex 9.561359375 -8.0 11.5576982421875
   vertex 4.6352548828125 -8.0 14.265847656250001
  endloop
 endfacet
endsolid patch_2_0
