solid patch_3_0
 facet normal 0.9995066523551941 0.0 0.03141029551625252
  outer loop
   vertex 15.0 16.0 -3.673999906389502e-15
   vertex 14.9704013671875 16.0 0.9418577880859376
   vertex 15.0 -8.0 -3.673999906389502e-15
  endloop
 endfacet
 facet normal 0.9995066523551941 0.0 0.03141029551625252
  outer loop
   vertex 15.0 -8.0 -3.673999906389502e-15
   vertex 14.9704013671875 16.0 0.9418577880859376
   vertex 14.9704013671875 -8.0 0.9418577880859376
  endloop
 endfacet
 facet normal 0.995561957359314 0.0 0.09410858154296875
  outer loop
   vertex 14.9704013671875 -8.0 0.9418577880859376
   vertex 14.881720703125 16.0 1.87999853515625
   vertex 14.881720703125 -8.0 1.87999853515625
  endloop
 endfacet
 facet normal 0.995561957359314 0.0 0.09410858154296875
  outer loop
   vertex 14.9704013671875 16.0 0.9418577880859376
   vertex 14.881720703125 16.0 1.87999853515625
   vertex 14.9704013671875 -8.0 0.9418577880859376
  endloop
 endfacet
 facet normal 0.9876882433891296 0.0 0.1564348191022873
  outer loop
   vertex 14.881720703125 -8.0 1.87999853515625
   vertex 14.73430859375 16.0 2.8107197265625
   vertex 14.73430859375 -8.0 2.8107197265625
  endloop
 endfacet
 facet normal 0.9759168028831482 -0.0 0.21814341843128204
  outer loop
   vertex 14.73430859375 -8.0 2.8107197265625
   vertex 14.73430859375 16.0 2.8107197265625
   vertex 14.5287470703125 -8.0 3.730348388671875
  endloop
 endfacet
 facet normal 0.9876882433891296 0.0 0.1564348191022873
  outer loop
   vertex 14.881720703125 16.0 1.87999853515625
   vertex 14.73430859375 16.0 2.8107197265625
   vertex 14.881720703125 -8.0 1.87999853515625
  endloop
 endfacet
 facet normal 0.9759168028831482 0.0 0.21814341843128204
  outer loop
   vertex 14.73430859375 16.0 2.8107197265625
   vertex 14.5287470703125 16.0 3.730348388671875
   vertex 14.5287470703125 -8.0 3.730348388671875
  endloop
 endfacet
 facet normal 0.9602937698364258 0.0 0.27899089455604553
  outer loop
   vertex 14.5287470703125 -8.0 3.730348388671875
   vertex 14.265847656250001 16.0 4.6352548828125
   vertex 14.265847656250001 -8.0 4.6352548828125
  endloop
 endfacet
 facet normal 0.9602937698364258 0.0 0.27899089455604553
  outer loop
   vertex 14.5287470703125 16.0 3.730348388671875
   vertex 14.265847656250001 16.0 4.6352548828125
   vertex 14.5287470703125 -8.0 3.730348388671875
  endloop
 endfacet
 facet normal 0.9408808350563049 0.0 0.33873769640922546
  outer loop
   vertex 14.265847656250001 -8.0 4.6352548828125
   vertex 13.9466474609375 16.0 5.5218681640625
   vertex 13.9466474609375 -8.0 5.5218681640625
  endloop
 endfacet
 facet normal 0.9408808350563049 0.0 0.33873769640922546
  outer loop
   vertex 14.265847656250001 16.0 4.6352548828125
   vertex 13.9466474609375 16.0 5.5218681640625
   vertex 14.265847656250001 -8.0 4.6352548828125
  endloop
 endfacet
 facet normal 0.9177547693252563 0.0 0.3971475660800934
  outer loop
   vertex 13.9466474609375 -8.0 5.5218681640625
   vertex 13.57240625 16.0 6.386689453125
   vertex 13.57240625 -8.0 6.386689453125
  endloop
 endfacet
 facet normal 0.9177547693252563 0.0 0.3971475660800934
  outer loop
   vertex 13.9466474609375 16.0 5.5218681640625
   vertex 13.57240625 16.0 6.386689453125
   vertex 13.9466474609375 -8.0 5.5218681640625
  endloop
 endfacet
 facet normal 0.8910064697265625 0.0 0.45399054884910583
  outer loop
   vertex 13.57240625 -8.0 6.386689453125
   vertex 13.1446005859375 16.0 7.22630517578125
   vertex 13.1446005859375 -8.0 7.22630517578125
  endloop
 endfacet
 facet normal 0.8910064697265625 0.0 0.45399054884910583
  outer loop
   vertex 13.57240625 16.0 6.386689453125
   vertex 13.1446005859375 16.0 7.22630517578125
   vertex 13.57240625 -8.0 6.386689453125
  endloop
 endfacet
 facet normal 0.8607417941093445 0.0 0.5090417265892029
  outer loop
   vertex 13.1446005859375 -8.0 7.22630517578125
   vertex 12.6649189453125 16.0 8.037401855468751
   vertex 12.6649189453125 -8.0 8.037401855468751
  endloop
 endfacet
 facet normal 0.8607417941093445 0.0 0.5090417265892029
  outer loop
   vertex 13.1446005859375 16.0 7.22630517578125
   vertex 12.6649189453125 16.0 8.037401855468751
   vertex 13.1446005859375 -8.0 7.22630517578125
  endloop
 endfacet
 facet normal 0.8270803689956665 0.0 0.5620836019515991
  outer loop
   vertex 12.6649189453125 -8.0 8.037401855468751
   vertex 12.1352548828125 16.0 8.8167783203125
   vertex 12.1352548828125 -8.0 8.8167783203125
  endloop
 endfacet
 facet normal 0.8270803689956665 0.0 0.5620836019515991
  outer loop
   vertex 12.6649189453125 16.0 8.037401855468751
   vertex 12.1352548828125 16.0 8.8167783203125
   vertex 12.6649189453125 -8.0 8.037401855468751
  endloop
 endfacet
 facet normal 0.7901548147201538 0.0 0.6129072904586792
  outer loop
   vertex 12.1352548828125 -8.0 8.8167783203125
   vertex 11.5576982421875 16.0 9.561359375
   vertex 11.5576982421875 -8.0 9.561359375
  endloop
 endfacet
 facet normal 0.7901548147201538 0.0 0.6129072904586792
  outer loop
   vertex 12.1352548828125 16.0 8.8167783203125
   vertex 11.5576982421875 16.0 9.561359375
   vertex 12.1352548828125 -8.0 8.8167783203125
  endloop
 endfacet
 facet normal 0.7501115798950195 0.0 0.6613112092018127
  outer loop
   vertex 11.5576982421875 -8.0 9.561359375
   vertex 10.934529296875 16.0 10.26820703125
   vertex 10.934529296875 -8.0 10.26820703125
  endloop
 endfacet
 facet normal 0.7501115798950195 0.0 0.6613112092018127
  outer loop
   vertex 11.5576982421875 16.0 9.561359375
   vertex 10.934529296875 16.0 10.26820703125
   vertex 11.5576982421875 -8.0 9.561359375
  endloop
 endfacet
 facet normal 0.7071067690849304 0.0 0.7071067690849304
  outer loop
   vertex 10.934529296875 -8.0 10.26820703125
   vertex 10.26820703125 16.0 10.934529296875
   vertex 10.26820703125 -8.0 10.934529296875
  endloop
 endfacet
 facet normal 0.7071067690849304 0.0 0.7071067690849304
  outer loop
   vertex 10.934529296875 16.0 10.26820703125
   vertex 10.26820703125 16.0 10.934529296875
   vertex 10.934529296875 -8.0 10.26820703125
  endloop
 endfacet
 facet normal 0.6613112092018127 0.0 0.7501115798950195
  outer loop
   vertex 10.26820703125 -8.0 10.934529296875
   vertex 9.561359375 16.0 11.5576982421875
   vertex 9.561359375 -8.0 11.5576982421875
  endloop
 endfacet
 facet normal 0.6613112092018127 0.0 0.7501115798950195
  outer loop
   vertex 10.26820703125 16.0 10.934529296875
   vertex 9.561359375 16.0 11.5576982421875
   vertex 10.26820703125 -8.0 10.934529296875
  endloop
 endfacet
 facet normal 0.6129072904586792 0.0 0.7901548147201538
  outer loop
   vertex 9.561359375 -8.0 11.5576982421875
   vertex 8.8167783203125 16.0 12.1352548828125
   vertex 8.8167783203125 -8.0 12.1352548828125
  endloop
 endfacet
 facet normal 0.5620836019515991 -0.0 0.8270803689956665
  outer loop
   vertex 8.8167783203125 -8.0 12.1352548828125
   vertex 8.8167783203125 16.0 12.1352548828125
   vertex 8.037401855468751 -8.0 12.6649189453125
  endloop
 endfacet
 facet normal 0.6129072904586792 0.0 0.7901548147201538
  outer loop
   vertex 9.561359375 16.0 11.5576982421875
   vertex 8.8167783203125 16.0 12.1352548828125
   vertex 9.561359375 -8.0 11.5576982421875
  endloop
 endfacet
 facet normal 0.5620836019515991 0.0 0.8270803689956665
  outer loop
   vertex 8.8167783203125 16.0 12.1352548828125
   vertex 8.037401855468751 16.0 12.6649189453125
   vertex 8.037401855468751 -8.0 12.6649189453125
  endloop
 endfacet
 facet normal 0.5090417265892029 0.0 0.8607417941093445
  outer loop
   vertex 8.037401855468751 -8.0 12.6649189453125
   vertex 7.22630517578125 16.0 13.1446005859375
   vertex 7.22630517578125 -8.0 13.1446005859375
  endloop
 endfacet
 facet normal 0.5090417265892029 0.0 0.8607417941093445
  outer loop
   vertex 8.037401855468751 16.0 12.6649189453125
   vertex 7.22630517578125 16.0 13.1446005859375
   vertex 8.037401855468751 -8.0 12.6649189453125
  endloop
 endfacet
 facet normal 0.45399054884910583 0.0 0.8910064697265625
  outer loop
   vertex 7.22630517578125 -8.0 13.1446005859375
   vertex 6.386689453125 16.0 13.57240625
   vertex 6.386689453125 -8.0 13.57240625
  endloop
 endfacet
 facet normal 0.3971475660800934 -0.0 0.9177547693252563
  outer loop
   vertex 6.386689453125 -8.0 13.57240625
   vertex 6.386689453125 16.0 13.57240625
   vertex 5.5218681640625 -8.0 13.9466474609375
  endloop
 endfacet
 facet normal 0.45399054884910583 0.0 0.8910064697265625
  outer loop
   vertex 7.22630517578125 16.0 13.1446005859375
   vertex 6.386689453125 16.0 13.57240625
   vertex 7.22630517578125 -8.0 13.1446005859375
  endloop
 endfacet
 facet normal 0.33873769640922546 -0.0 0.9408808350563049
  outer loop
   vertex 5.5218681640625 -8.0 13.9466474609375
   vertex 5.5218681640625 16.0 13.9466474609375
   vertex 4.6352548828125 -8.0 14.265847656250001
  endloop
 endfacet
 facet normal 0.3971475660800934 0.0 0.9177547693252563
  outer loop
   vertex 6.386689453125 16.0 13.57240625
   vertex 5.5218681640625 16.0 13.9466474609375
   vertex 5.5218681640625 -8.0 13.9466474609375
  endloop
 endfacet
 facet normal 0.33873769640922546 0.0 0.9408808350563049
  outer loop
   vertex 5.5218681640625 16.0 13.9466474609375
   vertex 4.6352548828125 16.0 14.265847656250001
   vertex 4.6352548828125 -8.0 14.265847656250001
  endloop
 endfacet
 facet normal 0.27899089455604553 0.0 0.9602937698364258
  outer loop
   vertex 4.6352548828125 -8.0 14.265847656250001
   vertex 3.730348388671875 16.0 14.5287470703125
   vertex 3.730348388671875 -8.0 14.5287470703125
  endloop
 endfacet
 facet normal 0.21814341843128204 -0.0 0.9759168028831482
  outer loop
   vertex 3.730348388671875 -8.0 14.5287470703125
   vertex 3.730348388671875 16.0 14.5287470703125
   vertex 2.8107197265625 -8.0 14.73430859375
  endloop
 endfacet
 facet normal 0.27899089455604553 0.0 0.9602937698364258
  outer loop
   vertex 4.6352548828125 16.0 14.265847656250001
   vertex 3.730348388671875 16.0 14.5287470703125
   vertex 4.6352548828125 -8.0 14.265847656250001
  endloop
 endfacet
 facet normal 0.21814341843128204 0.0 0.9759168028831482
  outer loop
   vertex 3.730348388671875 16.0 14.5287470703125
   vertex 2.8107197265625 16.0 14.73430859375
   vertex 2.8107197265625 -8.0 14.73430859375
  endloop
 endfacet
 facet normal 0.1564348191022873 0.0 0.9876882433891296
  outer loop
   vertex 2.8107197265625 -8.0 14.73430859375
   vertex 1.87999853515625 16.0 14.881720703125
   vertex 1.87999853515625 -8.0 14.881720703125
  endloop
 endfacet
 facet normal 0.09410858154296875 -0.0 0.995561957359314
  outer loop
   vertex 1.87999853515625 -8.0 14.881720703125
   vertex 1.87999853515625 16.0 14.881720703125
   vertex 0.9418577880859376 -8.0 14.9704013671875
  endloop
 endfacet
 facet normal 0.1564348191022873 0.0 0.9876882433891296
  outer loop
   vertex 2.8107197265625 16.0 14.73430859375
   vertex 1.87999853515625 16.0 14.881720703125
   vertex 2.8107197265625 -8.0 14.73430859375
  endloop
 endfacet
 facet normal 0.09410858154296875 0.0 0.995561957359314
  outer loop
   vertex 1.87999853515625 16.0 14.881720703125
   vertex 0.9418577880859376 16.0 14.9704013671875
   vertex 0.9418577880859376 -8.0 14.9704013671875
  endloop
 endfacet
 facet normal 0.03141029551625252 0.0 0.9995066523551941
  outer loop
   vertex 0.9418577880859376 -8.0 14.9704013671875
   vertex -9.073522315439232e-15 16.0 15.0
   vertex -9.073522315439232e-15 -8.0 15.0
  endloop
 endfacet
 facet normal 0.03141029551625252 0.0 0.9995066523551941
  outer loop
   vertex 0.9418577880859376 16.0 14.9704013671875
   vertex -9.073522315439232e-15 16.0 15.0
   vertex 0.9418577880859376 -8.0 14.9704013671875
  endloop
 endfacet
 facet normal -0.03141029551625252 0.0 0.9995066523551941
  outer loop
   vertex -9.073522315439232e-15 16.0 15.0
   vertex -0.9418577880859376 16.0 14.9704013671875
   vertex -9.073522315439232e-15 -8.0 15.0
  endloop
 endfacet
 facet normal -0.03141029551625252 0.0 0.9995066523551941
  outer loop
   vertex -9.073522315439232e-15 -8.0 15.0
   vertex -0.9418577880859376 16.0 14.9704013671875
   vertex -0.9418577880859376 -8.0 14.9704013671875
  endloop
 endfacet
 facet normal -0.09410858154296875 0.0 0.995561957359314
  outer loop
   vertex -0.9418577880859376 16.0 14.9704013671875
   vertex -1.87999853515625 16.0 14.881720703125
   vertex -0.9418577880859376 -8.0 14.9704013671875
  endloop
 endfacet
 facet normal -0.09410858154296875 0.0 0.995561957359314
  outer loop
   vertex -0.9418577880859376 -8.0 14.9704013671875
   vertex -1.87999853515625 16.0 14.881720703125
   vertex -1.87999853515625 -8.0 14.881720703125
  endloop
 endfacet
 facet normal -0.1564348191022873 0.0 0.9876882433891296
  outer loop
   vertex -1.87999853515625 16.0 14.881720703125
   vertex -2.8107197265625 16.0 14.73430859375
   vertex -1.87999853515625 -8.0 14.881720703125
  endloop
 endfacet
 facet normal -0.1564348191022873 0.0 0.9876882433891296
  outer loop
   vertex -1.87999853515625 -8.0 14.881720703125
   vertex -2.8107197265625 16.0 14.73430859375
   vertex -2.8107197265625 -8.0 14.73430859375
  endloop
 endfacet
 facet normal -0.21814341843128204 0.0 0.9759168028831482
  outer loop
   vertex -2.8107197265625 16.0 14.73430859375
   vertex -3.730348388671875 16.0 14.5287470703125
   vertex -2.8107197265625 -8.0 14.73430859375
  endloop
 endfacet
 facet normal -0.21814341843128204 0.0 0.9759168028831482
  outer loop
   vertex -2.8107197265625 -8.0 14.73430859375
   vertex -3.730348388671875 16.0 14.5287470703125
   vertex -3.730348388671875 -8.0 14.5287470703125
  endloop
 endfacet
 facet normal -0.27899089455604553 0.0 0.9602937698364258
  outer loop
   vertex -3.730348388671875 16.0 14.5287470703125
   vertex -4.6352548828125 16.0 14.265847656250001
   vertex -3.730348388671875 -8.0 14.5287470703125
  endloop
 endfacet
 facet normal -0.27899089455604553 0.0 0.9602937698364258
  outer loop
   vertex -3.730348388671875 -8.0 14.5287470703125
   vertex -4.6352548828125 16.0 14.265847656250001
   vertex -4.6352548828125 -8.0 14.265847656250001
  endloop
 endfacet
 facet normal -0.33873769640922546 0.0 0.9408808350563049
  outer loop
   vertex -4.6352548828125 16.0 14.265847656250001
   vertex -5.5218681640625 16.0 13.9466474609375
   vertex -4.6352548828125 -8.0 14.265847656250001
  endloop
 endfacet
 facet normal -0.33873769640922546 0.0 0.9408808350563049
  outer loop
   vertex -4.6352548828125 -8.0 14.265847656250001
   vertex -5.5218681640625 16.0 13.9466474609375
   vertex -5.5218681640625 -8.0 13.9466474609375
  endloop
 endfacet
 facet normal -0.3971475660800934 0.0 0.9177547693252563
  outer loop
   vertex -5.5218681640625 -8.0 13.9466474609375
   vertex -6.386689453125 16.0 13.57240625
   vertex -6.386689453125 -8.0 13.57240625
  endloop
 endfacet
 facet normal -0.3971475660800934 0.0 0.9177547693252563
  outer loop
   vertex -5.5218681640625 16.0 13.9466474609375
   vertex -6.386689453125 16.0 13.57240625
   vertex -5.5218681640625 -8.0 13.9466474609375
  endloop
 endfacet
 facet normal -0.45399054884910583 0.0 0.8910064697265625
  outer loop
   vertex -6.386689453125 -8.0 13.57240625
   vertex -7.22630517578125 16.0 13.1446005859375
   vertex -7.22630517578125 -8.0 13.1446005859375
  endloop
 endfacet
 facet normal -0.45399054884910583 0.0 0.8910064697265625
  outer loop
   vertex -6.386689453125 16.0 13.57240625
   vertex -7.22630517578125 16.0 13.1446005859375
   vertex -6.386689453125 -8.0 13.57240625
  endloop
 endfacet
 facet normal -0.5090417265892029 0.0 0.8607417941093445
  outer loop
   vertex -7.22630517578125 -8.0 13.1446005859375
   vertex -8.037401855468751 16.0 12.6649189453125
   vertex -8.037401855468751 -8.0 12.6649189453125
  endloop
 endfacet
 facet normal -0.5090417265892029 0.0 0.8607417941093445
  outer loop
   vertex -7.22630517578125 16.0 13.1446005859375
   vertex -8.037401855468751 16.0 12.6649189453125
   vertex -7.22630517578125 -8.0 13.1446005859375
  endloop
 endfacet
 facet normal -0.5620836019515991 0.0 0.8270803689956665
  outer loop
   vertex -8.037401855468751 -8.0 12.6649189453125
   vertex -8.8167783203125 16.0 12.1352548828125
   vertex -8.8167783203125 -8.0 12.1352548828125
  endloop
 endfacet
 facet normal -0.5620836019515991 0.0 0.8270803689956665
  outer loop
   vertex -8.037401855468751 16.0 12.6649189453125
   vertex -8.8167783203125 16.0 12.1352548828125
   vertex -8.037401855468751 -8.0 12.6649189453125
  endloop
 endfacet
 facet normal -0.6129072904586792 0.0 0.7901548147201538
  outer loop
   vertex -8.8167783203125 -8.0 12.1352548828125
   vertex -9.561359375 16.0 11.5576982421875
   vertex -9.561359375 -8.0 11.5576982421875
  endloop
 endfacet
 facet normal -0.6129072904586792 0.0 0.7901548147201538
  outer loop
   vertex -8.8167783203125 16.0 12.1352548828125
   vertex -9.561359375 16.0 11.5576982421875
   vertex -8.8167783203125 -8.0 12.1352548828125
  endloop
 endfacet
 facet normal -0.6613112092018127 0.0 0.7501115798950195
  outer loop
   vertex -9.561359375 -8.0 11.5576982421875
   vertex -10.26820703125 16.0 10.934529296875
   vertex -10.26820703125 -8.0 10.934529296875
  endloop
 endfacet
 facet normal -0.6613112092018127 0.0 0.7501115798950195
  outer loop
   vertex -9.561359375 16.0 11.5576982421875
   vertex -10.26820703125 16.0 10.934529296875
   vertex -9.561359375 -8.0 11.5576982421875
  endloop
 endfacet
 facet normal -0.7071067690849304 0.0 0.7071067690849304
  outer loop
   vertex -10.26820703125 -8.0 10.934529296875
   vertex -10.934529296875 16.0 10.26820703125
   vertex -10.934529296875 -8.0 10.26820703125
  endloop
 endfacet
 facet normal -0.7071067690849304 0.0 0.7071067690849304
  outer loop
   vertex -10.26820703125 16.0 10.934529296875
   vertex -10.934529296875 16.0 10.26820703125
   vertex -10.26820703125 -8.0 10.934529296875
  endloop
 endfacet
 facet normal -0.7501115798950195 0.0 0.6613112092018127
  outer loop
   vertex -10.934529296875 -8.0 10.26820703125
   vertex -11.5576982421875 16.0 9.561359375
   vertex -11.5576982421875 -8.0 9.561359375
  endloop
 endfacet
 facet normal -0.7501115798950195 0.0 0.6613112092018127
  outer loop
   vertex -10.934529296875 16.0 10.26820703125
   vertex -11.5576982421875 16.0 9.561359375
   vertex -10.934529296875 -8.0 10.26820703125
  endloop
 endfacet
 facet normal -0.7901548147201538 0.0 0.6129072904586792
  outer loop
   vertex -11.5576982421875 -8.0 9.561359375
   vertex -12.1352548828125 16.0 8.8167783203125
   vertex -12.1352548828125 -8.0 8.8167783203125
  endloop
 endfacet
 facet normal -0.7901548147201538 0.0 0.6129072904586792
  outer loop
   vertex -11.5576982421875 16.0 9.561359375
   vertex -12.1352548828125 16.0 8.8167783203125
   vertex -11.5576982421875 -8.0 9.561359375
  endloop
 endfacet
 facet normal -0.8270803689956665 0.0 0.5620836019515991
  outer loop
   vertex -12.1352548828125 -8.0 8.8167783203125
   vertex -12.6649189453125 16.0 8.037401855468751
   vertex -12.6649189453125 -8.0 8.037401855468751
  endloop
 endfacet
 facet normal -0.8270803689956665 0.0 0.5620836019515991
  outer loop
   vertex -12.1352548828125 16.0 8.8167783203125
   vertex -12.6649189453125 16.0 8.037401855468751
   vertex -12.1352548828125 -8.0 8.8167783203125
  endloop
 endfacet
 facet normal -0.8607417941093445 0.0 0.5090417265892029
  outer loop
   vertex -12.6649189453125 -8.0 8.037401855468751
   vertex -13.1446005859375 16.0 7.22630517578125
   vertex -13.1446005859375 -8.0 7.22630517578125
  endloop
 endfacet
 facet normal -0.8607417941093445 0.0 0.5090417265892029
  outer loop
   vertex -12.6649189453125 16.0 8.037401855468751
   vertex -13.1446005859375 16.0 7.22630517578125
   vertex -12.6649189453125 -8.0 8.037401855468751
  endloop
 endfacet
 facet normal -0.8910064697265625 0.0 0.45399054884910583
  outer loop
   vertex -13.1446005859375 -8.0 7.22630517578125
   vertex -13.57240625 16.0 6.386689453125
   vertex -13.57240625 -8.0 6.386689453125
  endloop
 endfacet
 facet normal -0.8910064697265625 0.0 0.45399054884910583
  outer loop
   vertex -13.1446005859375 16.0 7.22630517578125
   vertex -13.57240625 16.0 6.386689453125
   vertex -13.1446005859375 -8.0 7.22630517578125
  endloop
 endfacet
 facet normal -0.9177547693252563 0.0 0.3971475660800934
  outer loop
   vertex -13.57240625 -8.0 6.386689453125
   vertex -13.9466474609375 16.0 5.5218681640625
   vertex -13.9466474609375 -8.0 5.5218681640625
  endloop
 endfacet
 facet normal -0.9177547693252563 0.0 0.3971475660800934
  outer loop
   vertex -13.57240625 16.0 6.386689453125
   vertex -13.9466474609375 16.0 5.5218681640625
   vertex -13.57240625 -8.0 6.386689453125
  endloop
 endfacet
 facet normal -0.9408808350563049 0.0 0.33873769640922546
  outer loop
   vertex -13.9466474609375 -8.0 5.5218681640625
   vertex -14.265847656250001 16.0 4.6352548828125
   vertex -14.265847656250001 -8.0 4.6352548828125
  endloop
 endfacet
 facet normal -0.9602937698364258 0.0 0.27899089455604553
  outer loop
   vertex -14.265847656250001 -8.0 4.6352548828125
   vertex -14.265847656250001 16.0 4.6352548828125
   vertex -14.5287470703125 -8.0 3.730348388671875
  endloop
 endfacet
 facet normal -0.9408808350563049 0.0 0.33873769640922546
  outer loop
   vertex -13.9466474609375 16.0 5.5218681640625
   vertex -14.265847656250001 16.0 4.6352548828125
   vertex -13.9466474609375 -8.0 5.5218681640625
  endloop
 endfacet
 facet normal -0.9602937698364258 0.0 0.27899089455604553
  outer loop
   vertex -14.265847656250001 16.0 4.6352548828125
   vertex -14.5287470703125 16.0 3.730348388671875
   vertex -14.5287470703125 -8.0 3.730348388671875
  endloop
 endfacet
 facet normal -0.9759168028831482 0.0 0.21814341843128204
  outer loop
   vertex -14.5287470703125 -8.0 3.730348388671875
   vertex -14.73430859375 16.0 2.8107197265625
   vertex -14.73430859375 -8.0 2.8107197265625
  endloop
 endfacet
 facet normal -0.9876882433891296 0.0 0.1564348191022873
  outer loop
   vertex -14.73430859375 -8.0 2.8107197265625
   vertex -14.73430859375 16.0 2.8107197265625
   vertex -14.881720703125 -8.0 1.87999853515625
  endloop
 endfacet
 facet normal -0.9759168028831482 0.0 0.21814341843128204
  outer loop
   vertex -14.5287470703125 16.0 3.730348388671875
   vertex -14.73430859375 16.0 2.8107197265625
   vertex -14.5287470703125 -8.0 3.730348388671875
  endloop
 endfacet
 facet normal -0.9876882433891296 0.0 0.1564348191022873
  outer loop
   vertex -14.73430859375 16.0 2.8107197265625
   vertex -14.881720703125 16.0 1.87999853515625
   vertex -14.881720703125 -8.0 1.87999853515625
  endloop
 endfacet
 facet normal -0.995561957359314 0.0 0.09410858154296875
  outer loop
   vertex -14.881720703125 -8.0 1.87999853515625
   vertex -14.9704013671875 16.0 0.9418577880859376
   vertex -14.9704013671875 -8.0 0.9418577880859376
  endloop
 endfacet
 facet normal -0.995561957359314 0.0 0.09410858154296875
  outer loop
   vertex -14.881720703125 16.0 1.87999853515625
   vertex -14.9704013671875 16.0 0.9418577880859376
   vertex -14.881720703125 -8.0 1.87999853515625
  endloop
 endfacet
 facet normal -0.9995066523551941 0.0 0.03141029551625252
  outer loop
   vertex -14.9704013671875 16.0 0.9418577880859376
   vertex -15.0 16.0 -3.8131057339407805e-14
   vertex -14.9704013671875 -8.0 0.9418577880859376
  endloop
 endfacet
 facet normal -0.9995066523551941 0.0 0.03141029551625252
  outer loop
   vertex -14.9704013671875 -8.0 0.9418577880859376
   vertex -15.0 16.0 -3.8131057339407805e-14
   vertex -15.0 -8.0 -3.8131057339407805e-14
  endloop
 endfacet
 facet normal -0.9995066523551941 0.0 -0.03141029551625252
  outer loop
   vertex -15.0 -8.0 -3.8131057339407805e-14
   vertex -15.0 16.0 -3.8131057339407805e-14
   vertex -14.9704013671875 -8.0 -0.9418577880859376
  endloop
 endfacet
 facet normal -0.9995066523551941 0.0 -0.03141029551625252
  outer loop
   vertex -15.0 16.0 -3.8131057339407805e-14
   vertex -14.9704013671875 16.0 -0.9418577880859376
   vertex -14.9704013671875 -8.0 -0.9418577880859376
  endloop
 endfacet
 facet normal -0.995561957359314 -0.0 -0.09410858154296875
  outer loop
   vertex -14.9704013671875 16.0 -0.9418577880859376
   vertex -14.881720703125 16.0 -1.87999853515625
   vertex -14.9704013671875 -8.0 -0.9418577880859376
  endloop
 endfacet
 facet normal -0.995561957359314 0.0 -0.09410858154296875
  outer loop
   vertex -14.9704013671875 -8.0 -0.9418577880859376
   vertex -14.881720703125 16.0 -1.87999853515625
   vertex -14.881720703125 -8.0 -1.87999853515625
  endloop
 endfacet
 facet normal -0.9876882433891296 0.0 -0.1564348191022873
  outer loop
   vertex -14.881720703125 -8.0 -1.87999853515625
   vertex -14.881720703125 16.0 -1.87999853515625
   vertex -14.73430859375 -8.0 -2.8107197265625
  endloop
 endfacet
 facet normal -0.9876882433891296 0.0 -0.1564348191022873
  outer loop
   vertex -14.881720703125 16.0 -1.87999853515625
   vertex -14.73430859375 16.0 -2.8107197265625
   vertex -14.73430859375 -8.0 -2.8107197265625
  endloop
 endfacet
 facet normal -0.9759168028831482 -0.0 -0.21814341843128204
  outer loop
   vertex -14.73430859375 16.0 -2.8107197265625
   vertex -14.5287470703125 16.0 -3.730348388671875
   vertex -14.73430859375 -8.0 -2.8107197265625
  endloop
 endfacet
 facet normal -0.9759168028831482 0.0 -0.21814341843128204
  outer loop
   vertex -14.73430859375 -8.0 -2.8107197265625
   vertex -14.5287470703125 16.0 -3.730348388671875
   vertex -14.5287470703125 -8.0 -3.730348388671875
  endloop
 endfacet
 facet normal -0.9602937698364258 0.0 -0.27899089455604553
  outer loop
   vertex -14.5287470703125 -8.0 -3.730348388671875
   vertex -14.5287470703125 16.0 -3.730348388671875
   vertex -14.265847656250001 -8.0 -4.6352548828125
  endloop
 endfacet
 facet normal -0.9602937698364258 0.0 -0.27899089455604553
  outer loop
   vertex -14.5287470703125 16.0 -3.730348388671875
   vertex -14.265847656250001 16.0 -4.6352548828125
   vertex -14.265847656250001 -8.0 -4.6352548828125
  endloop
 endfacet
 facet normal -0.9408808350563049 -0.0 -0.33873769640922546
  outer loop
   vertex -14.265847656250001 16.0 -4.6352548828125
   vertex -13.9466474609375 16.0 -5.5218681640625
   vertex -14.265847656250001 -8.0 -4.6352548828125
  endloop
 endfacet
 facet normal -0.9408808350563049 0.0 -0.33873769640922546
  outer loop
   vertex -14.265847656250001 -8.0 -4.6352548828125
   vertex -13.9466474609375 16.0 -5.5218681640625
   vertex -13.9466474609375 -8.0 -5.5218681640625
  endloop
 endfacet
 facet normal -0.9177547693252563 -0.0 -0.3971475660800934
  outer loop
   vertex -13.9466474609375 16.0 -5.5218681640625
   vertex -13.57240625 16.0 -6.386689453125
   vertex -13.9466474609375 -8.0 -5.5218681640625
  endloop
 endfacet
 facet normal -0.9177547693252563 0.0 -0.3971475660800934
  outer loop
   vertex -13.9466474609375 -8.0 -5.5218681640625
   vertex -13.57240625 16.0 -6.386689453125
   vertex -13.57240625 -8.0 -6.386689453125
  endloop
 endfacet
 facet normal -0.8910064697265625 0.0 -0.45399054884910583
  outer loop
   vertex -13.57240625 -8.0 -6.386689453125
   vertex -13.57240625 16.0 -6.386689453125
   vertex -13.1446005859375 -8.0 -7.22630517578125
  endloop
 endfacet
 facet normal -0.8910064697265625 0.0 -0.45399054884910583
  outer loop
   vertex -13.57240625 16.0 -6.386689453125
   vertex -13.1446005859375 16.0 -7.22630517578125
   vertex -13.1446005859375 -8.0 -7.22630517578125
  endloop
 endfacet
 facet normal -0.8607417941093445 0.0 -0.5090417265892029
  outer loop
   vertex -13.1446005859375 -8.0 -7.22630517578125
   vertex -13.1446005859375 16.0 -7.22630517578125
   vertex -12.6649189453125 -8.0 -8.037401855468751
  endloop
 endfacet
 facet normal -0.8607417941093445 0.0 -0.5090417265892029
  outer loop
   vertex -13.1446005859375 16.0 -7.22630517578125
   vertex -12.6649189453125 16.0 -8.037401855468751
   vertex -12.6649189453125 -8.0 -8.037401855468751
  endloop
 endfacet
 facet normal -0.8270803689956665 -0.0 -0.5620836019515991
  outer loop
   vertex -12.6649189453125 16.0 -8.037401855468751
   vertex -12.1352548828125 16.0 -8.8167783203125
   vertex -12.6649189453125 -8.0 -8.037401855468751
  endloop
 endfacet
 facet normal -0.8270803689956665 0.0 -0.5620836019515991
  outer loop
   vertex -12.6649189453125 -8.0 -8.037401855468751
   vertex -12.1352548828125 16.0 -8.8167783203125
   vertex -12.1352548828125 -8.0 -8.8167783203125
  endloop
 endfacet
 facet normal -0.7901548147201538 -0.0 -0.6129072904586792
  outer loop
   vertex -12.1352548828125 16.0 -8.8167783203125
   vertex -11.5576982421875 16.0 -9.561359375
   vertex -12.1352548828125 -8.0 -8.8167783203125
  endloop
 endfacet
 facet normal -0.7901548147201538 0.0 -0.6129072904586792
  outer loop
   vertex -12.1352548828125 -8.0 -8.8167783203125
   vertex -11.5576982421875 16.0 -9.561359375
   vertex -11.5576982421875 -8.0 -9.561359375
  endloop
 endfacet
 facet normal -0.7501115798950195 -0.0 -0.6613112092018127
  outer loop
   vertex -11.5576982421875 16.0 -9.561359375
   vertex -10.934529296875 16.0 -10.26820703125
   vertex -11.5576982421875 -8.0 -9.561359375
  endloop
 endfacet
 facet normal -0.7501115798950195 0.0 -0.6613112092018127
  outer loop
   vertex -11.5576982421875 -8.0 -9.561359375
   vertex -10.934529296875 16.0 -10.26820703125
   vertex -10.934529296875 -8.0 -10.26820703125
  endloop
 endfacet
 facet normal -0.7071067690849304 -0.0 -0.7071067690849304
  outer loop
   vertex -10.934529296875 16.0 -10.26820703125
   vertex -10.26820703125 16.0 -10.934529296875
   vertex -10.934529296875 -8.0 -10.26820703125
  endloop
 endfacet
 facet normal -0.7071067690849304 0.0 -0.7071067690849304
  outer loop
   vertex -10.934529296875 -8.0 -10.26820703125
   vertex -10.26820703125 16.0 -10.934529296875
   vertex -10.26820703125 -8.0 -10.934529296875
  endloop
 endfacet
 facet normal -0.6613112092018127 0.0 -0.7501115798950195
  outer loop
   vertex -10.26820703125 -8.0 -10.934529296875
   vertex -10.26820703125 16.0 -10.934529296875
   vertex -9.561359375 -8.0 -11.5576982421875
  endloop
 endfacet
 facet normal -0.6613112092018127 0.0 -0.7501115798950195
  outer loop
   vertex -10.26820703125 16.0 -10.934529296875
   vertex -9.561359375 16.0 -11.5576982421875
   vertex -9.561359375 -8.0 -11.5576982421875
  endloop
 endfacet
 facet normal -0.6129072904586792 -0.0 -0.7901548147201538
  outer loop
   vertex -9.561359375 16.0 -11.5576982421875
   vertex -8.8167783203125 16.0 -12.1352548828125
   vertex -9.561359375 -8.0 -11.5576982421875
  endloop
 endfacet
 facet normal -0.6129072904586792 0.0 -0.7901548147201538
  outer loop
   vertex -9.561359375 -8.0 -11.5576982421875
   vertex -8.8167783203125 16.0 -12.1352548828125
   vertex -8.8167783203125 -8.0 -12.1352548828125
  endloop
 endfacet
 facet normal -0.5620836019515991 0.0 -0.8270803689956665
  outer loop
   vertex -8.8167783203125 -8.0 -12.1352548828125
   vertex -8.037401855468751 16.0 -12.6649189453125
   vertex -8.037401855468751 -8.0 -12.6649189453125
  endloop
 endfacet
 facet normal -0.5620836019515991 -0.0 -0.8270803689956665
  outer loop
   vertex -8.8167783203125 16.0 -12.1352548828125
   vertex -8.037401855468751 16.0 -12.6649189453125
   vertex -8.8167783203125 -8.0 -12.1352548828125
  endloop
 endfacet
 facet normal -0.5090417265892029 0.0 -0.8607417941093445
  outer loop
   vertex -8.037401855468751 -8.0 -12.6649189453125
   vertex -8.037401855468751 16.0 -12.6649189453125
   vertex -7.22630517578125 -8.0 -13.1446005859375
  endloop
 endfacet
 facet normal -0.5090417265892029 0.0 -0.8607417941093445
  outer loop
   vertex -8.037401855468751 16.0 -12.6649189453125
   vertex -7.22630517578125 16.0 -13.1446005859375
   vertex -7.22630517578125 -8.0 -13.1446005859375
  endloop
 endfacet
 facet normal -0.45399054884910583 0.0 -0.8910064697265625
  outer loop
   vertex -7.22630517578125 -8.0 -13.1446005859375
   vertex -6.386689453125 16.0 -13.57240625
   vertex -6.386689453125 -8.0 -13.57240625
  endloop
 endfacet
 facet normal -0.45399054884910583 -0.0 -0.8910064697265625
  outer loop
   vertex -7.22630517578125 16.0 -13.1446005859375
   vertex -6.386689453125 16.0 -13.57240625
   vertex -7.22630517578125 -8.0 -13.1446005859375
  endloop
 endfacet
 facet normal -0.3971475660800934 0.0 -0.9177547693252563
  outer loop
   vertex -6.386689453125 -8.0 -13.57240625
   vertex -5.5218681640625 16.0 -13.9466474609375
   vertex -5.5218681640625 -8.0 -13.9466474609375
  endloop
 endfacet
 facet normal -0.3971475660800934 -0.0 -0.9177547693252563
  outer loop
   vertex -6.386689453125 16.0 -13.57240625
   vertex -5.5218681640625 16.0 -13.9466474609375
   vertex -6.386689453125 -8.0 -13.57240625
  endloop
 endfacet
 facet normal -0.33873769640922546 0.0 -0.9408808350563049
  outer loop
   vertex -5.5218681640625 -8.0 -13.9466474609375
   vertex -4.6352548828125 16.0 -14.265847656250001
   vertex -4.6352548828125 -8.0 -14.265847656250001
  endloop
 endfacet
 facet normal -0.33873769640922546 -0.0 -0.9408808350563049
  outer loop
   vertex -5.5218681640625 16.0 -13.9466474609375
   vertex -4.6352548828125 16.0 -14.265847656250001
   vertex -5.5218681640625 -8.0 -13.9466474609375
  endloop
 endfacet
 facet normal -0.27899089455604553 0.0 -0.9602937698364258
  outer loop
   vertex -4.6352548828125 -8.0 -14.265847656250001
   vertex -3.730348388671875 16.0 -14.5287470703125
   vertex -3.730348388671875 -8.0 -14.5287470703125
  endloop
 endfacet
 facet normal -0.27899089455604553 -0.0 -0.9602937698364258
  outer loop
   vertex -4.6352548828125 16.0 -14.265847656250001
   vertex -3.730348388671875 16.0 -14.5287470703125
   vertex -4.6352548828125 -8.0 -14.265847656250001
  endloop
 endfacet
 facet normal -0.21814341843128204 0.0 -0.9759168028831482
  outer loop
   vertex -3.730348388671875 -8.0 -14.5287470703125
   vertex -2.8107197265625 16.0 -14.73430859375
   vertex -2.8107197265625 -8.0 -14.73430859375
  endloop
 endfacet
 facet normal -0.21814341843128204 -0.0 -0.9759168028831482
  outer loop
   vertex -3.730348388671875 16.0 -14.5287470703125
   vertex -2.8107197265625 16.0 -14.73430859375
   vertex -3.730348388671875 -8.0 -14.5287470703125
  endloop
 endfacet
 facet normal -0.1564348191022873 0.0 -0.9876882433891296
  outer loop
   vertex -2.8107197265625 -8.0 -14.73430859375
   vertex -1.87999853515625 16.0 -14.881720703125
   vertex -1.87999853515625 -8.0 -14.881720703125
  endloop
 endfacet
 facet normal -0.1564348191022873 -0.0 -0.9876882433891296
  outer loop
   vertex -2.8107197265625 16.0 -14.73430859375
   vertex -1.87999853515625 16.0 -14.881720703125
   vertex -2.8107197265625 -8.0 -14.73430859375
  endloop
 endfacet
 facet normal -0.09410858154296875 0.0 -0.995561957359314
  outer loop
   vertex -1.87999853515625 -8.0 -14.881720703125
   vertex -0.9418577880859376 16.0 -14.9704013671875
   vertex -0.9418577880859376 -8.0 -14.9704013671875
  endloop
 endfacet
 facet normal -0.09410858154296875 -0.0 -0.995561957359314
  outer loop
   vertex -1.87999853515625 16.0 -14.881720703125
   vertex -0.9418577880859376 16.0 -14.9704013671875
   vertex -1.87999853515625 -8.0 -14.881720703125
  endloop
 endfacet
 facet normal -0.03141029551625252 -0.0 -0.9995066523551941
  outer loop
   vertex -0.9418577880859376 16.0 -14.9704013671875
   vertex -2.7554553690828376e-15 16.0 -15.0
   vertex -0.9418577880859376 -8.0 -14.9704013671875
  endloop
 endfacet
 facet normal -0.03141029551625252 0.0 -0.9995066523551941
  outer loop
   vertex -0.9418577880859376 -8.0 -14.9704013671875
   vertex -2.7554553690828376e-15 16.0 -15.0
   vertex -2.7554553690828376e-15 -8.0 -15.0
  endloop
 endfacet
 facet normal 0.03141029551625252 0.0 -0.9995066523551941
  outer loop
   vertex -2.7554553690828376e-15 16.0 -15.0
   vertex 0.9418577880859376 16.0 -14.9704013671875
   vertex -2.7554553690828376e-15 -8.0 -15.0
  endloop
 endfacet
 facet normal 0.03141029551625252 0.0 -0.9995066523551941
  outer loop
   vertex -2.7554553690828376e-15 -8.0 -15.0
   vertex 0.9418577880859376 16.0 -14.9704013671875
   vertex 0.9418577880859376 -8.0 -14.9704013671875
  endloop
 endfacet
 facet normal 0.09410858154296875 0.0 -0.995561957359314
  outer loop
   vertex 0.9418577880859376 16.0 -14.9704013671875
   vertex 1.87999853515625 16.0 -14.881720703125
   vertex 0.9418577880859376 -8.0 -14.9704013671875
  endloop
 endfacet
 facet normal 0.09410858154296875 0.0 -0.995561957359314
  outer loop
   vertex 0.9418577880859376 -8.0 -14.9704013671875
   vertex 1.87999853515625 16.0 -14.881720703125
   vertex 1.87999853515625 -8.0 -14.881720703125
  endloop
 endfacet
 facet normal 0.1564348191022873 0.0 -0.9876882433891296
  outer loop
   vertex 1.87999853515625 16.0 -14.881720703125
   vertex 2.8107197265625 16.0 -14.73430859375
   vertex 1.87999853515625 -8.0 -14.881720703125
  endloop
 endfacet
 facet normal 0.1564348191022873 0.0 -0.9876882433891296
  outer loop
   vertex 1.87999853515625 -8.0 -14.881720703125
   vertex 2.8107197265625 16.0 -14.73430859375
   vertex 2.8107197265625 -8.0 -14.73430859375
  endloop
 endfacet
 facet normal 0.21814341843128204 0.0 -0.9759168028831482
  outer loop
   vertex 2.8107197265625 16.0 -14.73430859375
   vertex 3.730348388671875 16.0 -14.5287470703125
   vertex 2.8107197265625 -8.0 -14.73430859375
  endloop
 endfacet
 facet normal 0.21814341843128204 0.0 -0.9759168028831482
  outer loop
   vertex 2.8107197265625 -8.0 -14.73430859375
   vertex 3.730348388671875 16.0 -14.5287470703125
   vertex 3.730348388671875 -8.0 -14.5287470703125
  endloop
 endfacet
 facet normal 0.27899089455604553 0.0 -0.9602937698364258
  outer loop
   vertex 3.730348388671875 16.0 -14.5287470703125
   vertex 4.6352548828125 16.0 -14.265847656250001
   vertex 3.730348388671875 -8.0 -14.5287470703125
  endloop
 endfacet
 facet normal 0.27899089455604553 0.0 -0.9602937698364258
  outer loop
   vertex 3.730348388671875 -8.0 -14.5287470703125
   vertex 4.6352548828125 16.0 -14.265847656250001
   vertex 4.6352548828125 -8.0 -14.265847656250001
  endloop
 endfacet
 facet normal 0.33873769640922546 0.0 -0.9408808350563049
  outer loop
   vertex 4.6352548828125 16.0 -14.265847656250001
   vertex 5.5218681640625 16.0 -13.9466474609375
   vertex 4.6352548828125 -8.0 -14.265847656250001
  endloop
 endfacet
 facet normal 0.33873769640922546 0.0 -0.9408808350563049
  outer loop
   vertex 4.6352548828125 -8.0 -14.265847656250001
   vertex 5.5218681640625 16.0 -13.9466474609375
   vertex 5.5218681640625 -8.0 -13.9466474609375
  endloop
 endfacet
 facet normal 0.3971475660800934 0.0 -0.9177547693252563
  outer loop
   vertex 5.5218681640625 16.0 -13.9466474609375
   vertex 6.386689453125 16.0 -13.57240625
   vertex 5.5218681640625 -8.0 -13.9466474609375
  endloop
 endfacet
 facet normal 0.3971475660800934 0.0 -0.9177547693252563
  outer loop
   vertex 5.5218681640625 -8.0 -13.9466474609375
   vertex 6.386689453125 16.0 -13.57240625
   vertex 6.386689453125 -8.0 -13.57240625
  endloop
 endfacet
 facet normal 0.45399054884910583 0.0 -0.8910064697265625
  outer loop
   vertex 6.386689453125 16.0 -13.57240625
   vertex 7.22630517578125 16.0 -13.1446005859375
   vertex 6.386689453125 -8.0 -13.57240625
  endloop
 endfacet
 facet normal 0.45399054884910583 0.0 -0.8910064697265625
  outer loop
   vertex 6.386689453125 -8.0 -13.57240625
   vertex 7.22630517578125 16.0 -13.1446005859375
   vertex 7.22630517578125 -8.0 -13.1446005859375
  endloop
 endfacet
 facet normal 0.5090417265892029 0.0 -0.8607417941093445
  outer loop
   vertex 7.22630517578125 -8.0 -13.1446005859375
   vertex 7.22630517578125 16.0 -13.1446005859375
   vertex 8.037401855468751 -8.0 -12.6649189453125
  endloop
 endfacet
 facet normal 0.5090417265892029 0.0 -0.8607417941093445
  outer loop
   vertex 7.22630517578125 16.0 -13.1446005859375
   vertex 8.037401855468751 16.0 -12.6649189453125
   vertex 8.037401855468751 -8.0 -12.6649189453125
  endloop
 endfacet
 facet normal 0.5620836019515991 0.0 -0.8270803689956665
  outer loop
   vertex 8.037401855468751 16.0 -12.6649189453125
   vertex 8.8167783203125 16.0 -12.1352548828125
   vertex 8.037401855468751 -8.0 -12.6649189453125
  endloop
 endfacet
 facet normal 0.5620836019515991 0.0 -0.8270803689956665
  outer loop
   vertex 8.037401855468751 -8.0 -12.6649189453125
   vertex 8.8167783203125 16.0 -12.1352548828125
   vertex 8.8167783203125 -8.0 -12.1352548828125
  endloop
 endfacet
 facet normal 0.6129072904586792 0.0 -0.7901548147201538
  outer loop
   vertex 8.8167783203125 -8.0 -12.1352548828125
   vertex 8.8167783203125 16.0 -12.1352548828125
   vertex 9.561359375 -8.0 -11.5576982421875
  endloop
 endfacet
 facet normal 0.6129072904586792 0.0 -0.7901548147201538
  outer loop
   vertex 8.8167783203125 16.0 -12.1352548828125
   vertex 9.561359375 16.0 -11.5576982421875
   vertex 9.561359375 -8.0 -11.5576982421875
  endloop
 endfacet
 facet normal 0.6613112092018127 0.0 -0.7501115798950195
  outer loop
   vertex 9.561359375 16.0 -11.5576982421875
   vertex 10.26820703125 16.0 -10.934529296875
   vertex 9.561359375 -8.0 -11.5576982421875
  endloop
 endfacet
 facet normal 0.6613112092018127 0.0 -0.7501115798950195
  outer loop
   vertex 9.561359375 -8.0 -11.5576982421875
   vertex 10.26820703125 16.0 -10.934529296875
   vertex 10.26820703125 -8.0 -10.934529296875
  endloop
 endfacet
 facet normal 0.7071067690849304 0.0 -0.7071067690849304
  outer loop
   vertex 10.26820703125 -8.0 -10.934529296875
   vertex 10.26820703125 16.0 -10.934529296875
   vertex 10.934529296875 -8.0 -10.26820703125
  endloop
 endfacet
 facet normal 0.7071067690849304 0.0 -0.7071067690849304
  outer loop
   vertex 10.26820703125 16.0 -10.934529296875
   vertex 10.934529296875 16.0 -10.26820703125
   vertex 10.934529296875 -8.0 -10.26820703125
  endloop
 endfacet
 facet normal 0.7501115798950195 0.0 -0.6613112092018127
  outer loop
   vertex 10.934529296875 16.0 -10.26820703125
   vertex 11.5576982421875 16.0 -9.561359375
   vertex 10.934529296875 -8.0 -10.26820703125
  endloop
 endfacet
 facet normal 0.7501115798950195 0.0 -0.6613112092018127
  outer loop
   vertex 10.934529296875 -8.0 -10.26820703125
   vertex 11.5576982421875 16.0 -9.561359375
   vertex 11.5576982421875 -8.0 -9.561359375
  endloop
 endfacet
 facet normal 0.7901548147201538 0.0 -0.6129072904586792
  outer loop
   vertex 11.5576982421875 16.0 -9.561359375
   vertex 12.1352548828125 16.0 -8.8167783203125
   vertex 11.5576982421875 -8.0 -9.561359375
  endloop
 endfacet
 facet normal 0.7901548147201538 0.0 -0.6129072904586792
  outer loop
   vertex 11.5576982421875 -8.0 -9.561359375
   vertex 12.1352548828125 16.0 -8.8167783203125
   vertex 12.1352548828125 -8.0 -8.8167783203125
  endloop
 endfacet
 facet normal 0.8270803689956665 0.0 -0.5620836019515991
  outer loop
   vertex 12.1352548828125 16.0 -8.8167783203125
   vertex 12.6649189453125 16.0 -8.037401855468751
   vertex 12.1352548828125 -8.0 -8.8167783203125
  endloop
 endfacet
 facet normal 0.8270803689956665 0.0 -0.5620836019515991
  outer loop
   vertex 12.1352548828125 -8.0 -8.8167783203125
   vertex 12.6649189453125 16.0 -8.037401855468751
   vertex 12.6649189453125 -8.0 -8.037401855468751
  endloop
 endfacet
 facet normal 0.8607417941093445 0.0 -0.5090417265892029
  outer loop
   vertex 12.6649189453125 16.0 -8.037401855468751
   vertex 13.1446005859375 16.0 -7.22630517578125
   vertex 12.6649189453125 -8.0 -8.037401855468751
  endloop
 endfacet
 facet normal 0.8607417941093445 0.0 -0.5090417265892029
  outer loop
   vertex 12.6649189453125 -8.0 -8.037401855468751
   vertex 13.1446005859375 16.0 -7.22630517578125
   vertex 13.1446005859375 -8.0 -7.22630517578125
  endloop
 endfacet
 facet normal 0.8910064697265625 0.0 -0.45399054884910583
  outer loop
   vertex 13.1446005859375 16.0 -7.22630517578125
   vertex 13.57240625 16.0 -6.386689453125
   vertex 13.1446005859375 -8.0 -7.22630517578125
  endloop
 endfacet
 facet normal 0.8910064697265625 0.0 -0.45399054884910583
  outer loop
   vertex 13.1446005859375 -8.0 -7.22630517578125
   vertex 13.57240625 16.0 -6.386689453125
   vertex 13.57240625 -8.0 -6.386689453125
  endloop
 endfacet
 facet normal 0.9177547693252563 0.0 -0.3971475660800934
  outer loop
   vertex 13.57240625 -8.0 -6.386689453125
   vertex 13.57240625 16.0 -6.386689453125
   vertex 13.9466474609375 -8.0 -5.5218681640625
  endloop
 endfacet
 facet normal 0.9177547693252563 0.0 -0.3971475660800934
  outer loop
   vertex 13.57240625 16.0 -6.386689453125
   vertex 13.9466474609375 16.0 -5.5218681640625
   vertex 13.9466474609375 -8.0 -5.5218681640625
  endloop
 endfacet
 facet normal 0.9408808350563049 0.0 -0.33873769640922546
  outer loop
   vertex 13.9466474609375 16.0 -5.5218681640625
   vertex 14.265847656250001 16.0 -4.6352548828125
   vertex 13.9466474609375 -8.0 -5.5218681640625
  endloop
 endfacet
 facet normal 0.9408808350563049 0.0 -0.33873769640922546
  outer loop
   vertex 13.9466474609375 -8.0 -5.5218681640625
   vertex 14.265847656250001 16.0 -4.6352548828125
   vertex 14.265847656250001 -8.0 -4.6352548828125
  endloop
 endfacet
 facet normal 0.9602937698364258 0.0 -0.27899089455604553
  outer loop
   vertex 14.265847656250001 16.0 -4.6352548828125
   vertex 14.5287470703125 16.0 -3.730348388671875
   vertex 14.265847656250001 -8.0 -4.6352548828125
  endloop
 endfacet
 facet normal 0.9602937698364258 0.0 -0.27899089455604553
  outer loop
   vertex 14.265847656250001 -8.0 -4.6352548828125
   vertex 14.5287470703125 16.0 -3.730348388671875
   vertex 14.5287470703125 -8.0 -3.730348388671875
  endloop
 endfacet
 facet normal 0.9759168028831482 0.0 -0.21814341843128204
  outer loop
   vertex 14.5287470703125 16.0 -3.730348388671875
   vertex 14.73430859375 16.0 -2.8107197265625
   vertex 14.5287470703125 -8.0 -3.730348388671875
  endloop
 endfacet
 facet normal 0.9759168028831482 0.0 -0.21814341843128204
  outer loop
   vertex 14.5287470703125 -8.0 -3.730348388671875
   vertex 14.73430859375 16.0 -2.8107197265625
   vertex 14.73430859375 -8.0 -2.8107197265625
  endloop
 endfacet
 facet normal 0.9876882433891296 0.0 -0.1564348191022873
  outer loop
   vertex 14.73430859375 16.0 -2.8107197265625
   vertex 14.881720703125 16.0 -1.87999853515625
   vertex 14.73430859375 -8.0 -2.8107197265625
  endloop
 endfacet
 facet normal 0.9876882433891296 0.0 -0.1564348191022873
  outer loop
   vertex 14.73430859375 -8.0 -2.8107197265625
   vertex 14.881720703125 16.0 -1.87999853515625
   vertex 14.881720703125 -8.0 -1.87999853515625
  endloop
 endfacet
 facet normal 0.995561957359314 0.0 -0.09410858154296875
  outer loop
   vertex 14.881720703125 -8.0 -1.87999853515625
   vertex 14.881720703125 16.0 -1.87999853515625
   vertex 14.9704013671875 -8.0 -0.9418577880859376
  endloop
 endfacet
 facet normal 0.995561957359314 0.0 -0.09410858154296875
  outer loop
   vertex 14.881720703125 16.0 -1.87999853515625
   vertex 14.9704013671875 16.0 -0.9418577880859376
   vertex 14.9704013671875 -8.0 -0.9418577880859376
  endloop
 endfacet
 facet normal 0.9995066523551941 0.0 -0.03141029551625252
  outer loop
   vertex 14.9704013671875 -8.0 -0.9418577880859376
   vertex 15.0 16.0 -3.673999906389502e-15
   vertex 15.0 -8.0 -3.673999906389502e-15
  endloop
 endfacet
 facet normal 0.9995066523551941 0.0 -0.03141029551625252
  outer loop
   vertex 14.9704013671875 16.0 -0.9418577880859376
   vertex 15.0 16.0 -3.673999906389502e-15
   vertex 14.9704013671875 -8.0 -0.9418577880859376
  endloop
 endfacet
endsolid patch_3_0
