solid patch_0_0
 facet normal 0.0 0.0 -1.0
  outer loop
   vertex -4.431634765625 -0.7814168090820313 -0.5
   vertex 0.22550221252441408 -3.006517822265625 -0.5
   vertex -4.37382470703125 -1.0581395263671876 -0.5
  endloop
 endfacet
 facet normal 0.0 0.0 -1.0
  outer loop
   vertex -4.37382470703125 -1.0581395263671876 -0.5
   vertex 0.22550221252441408 -3.006517822265625 -0.5
   vertex -4.29875244140625 -1.330686279296875 -0.5
  endloop
 endfacet
 facet normal 0.0 0.0 -1.0
  outer loop
   vertex -4.29875244140625 -1.330686279296875 -0.5
   vertex 0.22550221252441408 -3.006517822265625 -0.5
   vertex -4.2067153320312505 -1.5979813232421876 -0.5
  endloop
 endfacet
 facet normal 0.0 0.0 -1.0
  outer loop
   vertex -4.2067153320312505 -1.5979813232421876 -0.5
   vertex 0.22550221252441408 -3.006517822265625 -0.5
   vertex -4.09807666015625 -1.858969970703125 -0.5
  endloop
 endfacet
 facet normal 0.0 0.0 -1.0
  outer loop
   vertex -4.09807666015625 -1.858969970703125 -0.5
   vertex 0.22550221252441408 -3.006517822265625 -0.5
   vertex -3.97326416015625 -2.1126220703125 -0.5
  endloop
 endfacet
 facet normal 0.0 0.0 -1.0
  outer loop
   vertex -3.97326416015625 -2.1126220703125 -0.5
   vertex 0.22550221252441408 -3.006517822265625 -0.5
   vertex -3.832771240234375 -2.3579365234375 -0.5
  endloop
 endfacet
 facet normal 0.0 0.0 -1.0
  outer loop
   vertex -3.832771240234375 -2.3579365234375 -0.5
   vertex 0.22550221252441408 -3.006517822265625 -0.5
   vertex -3.677152099609375 -2.5939453125000003 -0.5
  endloop
 endfacet
 facet normal 0.0 0.0 -1.0
  outer loop
   vertex -3.677152099609375 -2.5939453125000003 -0.5
   vertex 0.22550221252441408 -3.006517822265625 -0.5
   vertex -3.507020751953125 -2.819717041015625 -0.5
  endloop
 endfacet
 facet normal 0.0 0.0 -1.0
  outer loop
   vertex -3.507020751953125 -2.819717041015625 -0.5
   vertex 0.22550221252441408 -3.006517822265625 -0.5
   vertex -3.323049072265625 -3.03436083984375 -0.5
  endloop
 endfacet
 facet normal 0.0 0.0 -1.0
  outer loop
   vertex -3.323049072265625 -3.03436083984375 -0.5
   vertex 0.22550221252441408 -3.006517822265625 -0.5
   vertex -3.1259626464843753 -3.2370290527343752 -0.5
  endloop
 endfacet
 facet normal 0.0 0.0 -1.0
  outer loop
   vertex -3.1259626464843753 -3.2370290527343752 -0.5
   vertex 0.22550221252441408 -3.006517822265625 -0.5
   vertex -2.91653955078125 -3.42692236328125 -0.5
  endloop
 endfacet
 facet normal 0.0 0.0 -1.0
  outer loop
   vertex -2.91653955078125 -3.42692236328125 -0.5
   vertex 0.22550221252441408 -3.006517822265625 -0.5
   vertex -2.695606201171875 -3.603291259765625 -0.5
  endloop
 endfacet
 facet normal 0.0 0.0 -1.0
  outer loop
   vertex -2.695606201171875 -3.603291259765625 -0.5
   vertex 0.22550221252441408 -3.006517822265625 -0.5
   vertex -2.464034423828125 -3.765439453125 -0.5
  endloop
 endfacet
 facet normal 0.0 0.0 -1.0
  outer loop
   vertex -2.464034423828125 -3.765439453125 -0.5
   vertex 0.22550221252441408 -3.006517822265625 -0.5
   vertex -2.22273828125 -3.912727294921875 -0.5
  endloop
 endfacet
 facet normal 0.0 0.0 -1.0
  outer loop
   vertex -2.22273828125 -3.912727294921875 -0.5
   vertex 0.22550221252441408 -3.006517822265625 -0.5
   vertex -1.972670166015625 -4.0445732421875 -0.5
  endloop
 endfacet
 facet normal 0.0 0.0 -1.0
  outer loop
   vertex -1.972670166015625 -4.0445732421875 -0.5
   vertex 0.22550221252441408 -3.006517822265625 -0.5
   vertex -1.714816650390625 -4.16045703125 -0.5
  endloop
 endfacet
 facet normal 0.0 0.0 -1.0
  outer loop
   vertex -1.714816650390625 -4.16045703125 -0.5
   vertex 0.22550221252441408 -3.006517822265625 -0.5
   vertex -1.4501956787109376 -4.259921875 -0.5
  endloop
 endfacet
 facet normal 0.0 0.0 -1.0
  outer loop
   vertex -1.4501956787109376 -4.259921875 -0.5
   vertex 0.22550221252441408 -3.006517822265625 -0.5
   vertex -1.179851318359375 -4.34257421875 -0.5
  endloop
 endfacet
 facet normal 0.0 0.0 -1.0
  outer loop
   vertex -1.179851318359375 -4.34257421875 -0.5
   vertex 0.22550221252441408 -3.006517822265625 -0.5
   vertex -0.9048506469726563 -4.4080888671875 -0.5
  endloop
 endfacet
 facet normal 0.0 0.0 -1.0
  outer loop
   vertex -0.9048506469726563 -4.4080888671875 -0.5
   vertex 0.22550221252441408 -3.006517822265625 -0.5
   vertex -0.6262789306640625 -4.45620654296875 -0.5
  endloop
 endfacet
 facet normal 0.0 0.0 -1.0
  outer loop
   vertex -0.6262789306640625 -4.45620654296875 -0.5
   vertex 0.22550221252441408 -3.006517822265625 -0.5
   vertex -0.34523562622070314 -4.4867373046875 -0.5
  endloop
 endfacet
 facet normal 0.0 0.0 -1.0
  outer loop
   vertex -0.34523562622070314 -4.4867373046875 -0.5
   vertex 0.22550221252441408 -3.006517822265625 -0.5
   vertex -0.0628298110961914 -4.4995615234375 -0.5
  endloop
 endfacet
 facet normal 0.0 0.0 -1.0
  outer loop
   vertex -0.0628298110961914 -4.4995615234375 -0.5
   vertex 0.22550221252441408 -3.006517822265625 -0.5
   vertex 0.21982395935058593 -4.49462744140625 -0.5
  endloop
 endfacet
 facet normal 0.0 0.0 -1.0
  outer loop
   vertex 0.21982395935058593 -4.49462744140625 -0.5
   vertex 0.22550221252441408 -3.006517822265625 -0.5
   vertex 0.5016101989746093 -4.47195556640625 -0.5
  endloop
 endfacet
 facet normal 0.0 0.0 -1.0
  outer loop
   vertex 0.5016101989746093 -4.47195556640625 -0.5
   vertex 0.22550221252441408 -3.006517822265625 -0.5
   vertex 0.7814168090820313 -4.431634765625 -0.5
  endloop
 endfacet
 facet normal 0.0 0.0 -1.0
  outer loop
   vertex 0.22550221252441408 -3.006517822265625 -0.5
   vertex 0.8163868408203125 -2.902328857421875 -0.5
   vertex 0.7814168090820313 -4.431634765625 -0.5
  endloop
 endfacet
 facet normal 0.0 0.0 -1.0
  outer loop
   vertex 0.7814168090820313 -4.431634765625 -0.5
   vertex 0.8163868408203125 -2.902328857421875 -0.5
   vertex 1.0581395263671876 -4.37382470703125 -0.5
  endloop
 endfacet
 facet normal 0.0 0.0 -1.0
  outer loop
   vertex 1.0581395263671876 -4.37382470703125 -0.5
   vertex 0.8163868408203125 -2.902328857421875 -0.5
   vertex 1.330686279296875 -4.29875244140625 -0.5
  endloop
 endfacet
 facet normal 0.0 0.0 -1.0
  outer loop
   vertex 1.330686279296875 -4.29875244140625 -0.5
   vertex 0.8163868408203125 -2.902328857421875 -0.5
   vertex 1.5979813232421876 -4.2067153320312505 -0.5
  endloop
 endfacet
 facet normal 0.0 0.0 -1.0
  outer loop
   vertex 1.5979813232421876 -4.2067153320312505 -0.5
   vertex 0.8163868408203125 -2.902328857421875 -0.5
   vertex 1.858969970703125 -4.09807666015625 -0.5
  endloop
 endfacet
 facet normal 0.0 0.0 -1.0
  outer loop
   vertex 1.858969970703125 -4.09807666015625 -0.5
   vertex 0.8163868408203125 -2.902328857421875 -0.5
   vertex 2.1126220703125 -3.97326416015625 -0.5
  endloop
 endfacet
 facet normal 0.0 0.0 -1.0
  outer loop
   vertex 0.8163868408203125 -2.902328857421875 -0.5
   vertex 2.3579365234375 -3.832771240234375 -0.5
   vertex 2.1126220703125 -3.97326416015625 -0.5
  endloop
 endfacet
 facet normal 0.0 0.0 -1.0
  outer loop
   vertex 0.8163868408203125 -2.902328857421875 -0.5
   vertex 2.5939453125000003 -3.677152099609375 -0.5
   vertex 2.3579365234375 -3.832771240234375 -0.5
  endloop
 endfacet
 facet normal 0.0 0.0 -1.0
  outer loop
   vertex 0.8163868408203125 -2.902328857421875 -0.5
   vertex 2.819717041015625 -3.507020751953125 -0.5
   vertex 2.5939453125000003 -3.677152099609375 -0.5
  endloop
 endfacet
 facet normal 0.0 0.0 -1.0
  outer loop
   vertex 0.8163868408203125 -2.902328857421875 -0.5
   vertex 3.03436083984375 -3.323049072265625 -0.5
   vertex 2.819717041015625 -3.507020751953125 -0.5
  endloop
 endfacet
 facet normal 0.0 0.0 -1.0
  outer loop
   vertex 0.8163868408203125 -2.902328857421875 -0.5
   vertex 3.2370290527343752 -3.1259626464843753 -0.5
   vertex 3.03436083984375 -3.323049072265625 -0.5
  endloop
 endfacet
 facet normal 0.0 0.0 -1.0
  outer loop
   vertex 0.8163868408203125 -2.902328857421875 -0.5
   vertex 3.42692236328125 -2.91653955078125 -0.5
   vertex 3.2370290527343752 -3.1259626464843753 -0.5
  endloop
 endfacet
 facet normal 0.0 0.0 -1.0
  outer loop
   vertex 0.8163868408203125 -2.902328857421875 -0.5
   vertex 3.603291259765625 -2.695606201171875 -0.5
   vertex 3.42692236328125 -2.91653955078125 -0.5
  endloop
 endfacet
 facet normal 0.0 0.0 -1.0
  outer loop
   vertex 0.8163868408203125 -2.902328857421875 -0.5
   vertex 3.765439453125 -2.464034423828125 -0.5
   vertex 3.603291259765625 -2.695606201171875 -0.5
  endloop
 endfacet
 facet normal 0.0 0.0 -1.0
  outer loop
   vertex 0.8163868408203125 -2.902328857421875 -0.5
   vertex 3.912727294921875 -2.22273828125 -0.5
   vertex 3.765439453125 -2.464034423828125 -0.5
  endloop
 endfacet
 facet normal 0.0 0.0 -1.0
  outer loop
   vertex 0.8163868408203125 -2.902328857421875 -0.5
   vertex 4.0445732421875 -1.972670166015625 -0.5
   vertex 3.912727294921875 -2.22273828125 -0.5
  endloop
 endfacet
 facet normal 0.0 0.0 -1.0
  outer loop
   vertex 0.8163868408203125 -2.902328857421875 -0.5
   vertex 4.16045703125 -1.714816650390625 -0.5
   vertex 4.0445732421875 -1.972670166015625 -0.5
  endloop
 endfacet
 facet normal 0.0 0.0 -1.0
  outer loop
   vertex 0.8163868408203125 -2.902328857421875 -0.5
   vertex 4.259921875 -1.4501956787109376 -0.5
   vertex 4.16045703125 -1.714816650390625 -0.5
  endloop
 endfacet
 facet normal 0.0 0.0 -1.0
  outer loop
   vertex 0.8163868408203125 -2.902328857421875 -0.5
   vertex 4.34257421875 -1.179851318359375 -0.5
   vertex 4.259921875 -1.4501956787109376 -0.5
  endloop
 endfacet
 facet normal 0.0 0.0 -1.0
  outer loop
   vertex 0.8163868408203125 -2.902328857421875 -0.5
   vertex 4.4080888671875 -0.9048506469726563 -0.5
   vertex 4.34257421875 -1.179851318359375 -0.5
  endloop
 endfacet
 facet normal 0.0 -0.0 -1.0
  outer loop
   vertex -2.3579365234375 3.832771240234375 -0.5
   vertex -0.8163868408203125 2.902328857421875 -0.5
   vertex -2.5939453125000003 3.677152099609375 -0.5
  endloop
 endfacet
 facet normal 0.0 -0.0 -1.0
  outer loop
   vertex -2.5939453125000003 3.677152099609375 -0.5
   vertex -0.8163868408203125 2.902328857421875 -0.5
   vertex -2.819717041015625 3.507020751953125 -0.5
  endloop
 endfacet
 facet normal 0.0 -0.0 -1.0
  outer loop
   vertex -2.819717041015625 3.507020751953125 -0.5
   vertex -0.8163868408203125 2.902328857421875 -0.5
   vertex -3.03436083984375 3.323049072265625 -0.5
  endloop
 endfacet
 facet normal 0.0 -0.0 -1.0
  outer loop
   vertex -3.03436083984375 3.323049072265625 -0.5
   vertex -0.8163868408203125 2.902328857421875 -0.5
   vertex -3.2370290527343752 3.1259626464843753 -0.5
  endloop
 endfacet
 facet normal 0.0 -0.0 -1.0
  outer loop
   vertex -3.2370290527343752 3.1259626464843753 -0.5
   vertex -0.8163868408203125 2.902328857421875 -0.5
   vertex -3.42692236328125 2.91653955078125 -0.5
  endloop
 endfacet
 facet normal 0.0 -0.0 -1.0
  outer loop
   vertex -3.42692236328125 2.91653955078125 -0.5
   vertex -0.8163868408203125 2.902328857421875 -0.5
   vertex -3.603291259765625 2.695606201171875 -0.5
  endloop
 endfacet
 facet normal 0.0 -0.0 -1.0
  outer loop
   vertex -3.603291259765625 2.695606201171875 -0.5
   vertex -0.8163868408203125 2.902328857421875 -0.5
   vertex -3.765439453125 2.464034423828125 -0.5
  endloop
 endfacet
 facet normal 0.0 -0.0 -1.0
  outer loop
   vertex -3.765439453125 2.464034423828125 -0.5
   vertex -0.8163868408203125 2.902328857421875 -0.5
   vertex -3.912727294921875 2.22273828125 -0.5
  endloop
 endfacet
 facet normal 0.0 -0.0 -1.0
  outer loop
   vertex -3.912727294921875 2.22273828125 -0.5
   vertex -0.8163868408203125 2.902328857421875 -0.5
   vertex -4.0445732421875 1.972670166015625 -0.5
  endloop
 endfacet
 facet normal 0.0 -0.0 -1.0
  outer loop
   vertex -4.0445732421875 1.972670166015625 -0.5
   vertex -0.8163868408203125 2.902328857421875 -0.5
   vertex -4.16045703125 1.714816650390625 -0.5
  endloop
 endfacet
 facet normal 0.0 -0.0 -1.0
  outer loop
   vertex -4.16045703125 1.714816650390625 -0.5
   vertex -0.8163868408203125 2.902328857421875 -0.5
   vertex -4.259921875 1.4501956787109376 -0.5
  endloop
 endfacet
 facet normal 0.0 -0.0 -1.0
  outer loop
   vertex -4.259921875 1.4501956787109376 -0.5
   vertex -0.8163868408203125 2.902328857421875 -0.5
   vertex -4.34257421875 1.179851318359375 -0.5
  endloop
 endfacet
 facet normal 0.0 -0.0 -1.0
  outer loop
   vertex -4.34257421875 1.179851318359375 -0.5
   vertex -0.8163868408203125 2.902328857421875 -0.5
   vertex -4.4080888671875 0.9048506469726563 -0.5
  endloop
 endfacet
 facet normal 0.0 -0.0 -1.0
  outer loop
   vertex -4.4080888671875 0.9048506469726563 -0.5
   vertex -0.8163868408203125 2.902328857421875 -0.5
   vertex -4.45620654296875 0.6262789306640625 -0.5
  endloop
 endfacet
 facet normal 0.0 -0.0 -1.0
  outer loop
   vertex -4.45620654296875 0.6262789306640625 -0.5
   vertex -0.8163868408203125 2.902328857421875 -0.5
   vertex -4.4867373046875 0.34523562622070314 -0.5
  endloop
 endfacet
 facet normal 0.0 -0.0 -1.0
  outer loop
   vertex -4.4867373046875 0.34523562622070314 -0.5
   vertex -0.8163868408203125 2.902328857421875 -0.5
   vertex -4.4995615234375 0.0628298110961914 -0.5
  endloop
 endfacet
 facet normal 0.0 0.0 -1.0
  outer loop
   vertex -4.4995615234375 0.0628298110961914 -0.5
   vertex -0.8163868408203125 2.902328857421875 -0.5
   vertex -4.49462744140625 -0.21982395935058593 -0.5
  endloop
 endfacet
 facet normal 0.0 0.0 -1.0
  outer loop
   vertex -4.49462744140625 -0.21982395935058593 -0.5
   vertex -0.8163868408203125 2.902328857421875 -0.5
   vertex -4.47195556640625 -0.5016101989746093 -0.5
  endloop
 endfacet
 facet normal 0.0 0.0 -1.0
  outer loop
   vertex -4.47195556640625 -0.5016101989746093 -0.5
   vertex -0.8163868408203125 2.902328857421875 -0.5
   vertex -4.431634765625 -0.7814168090820313 -0.5
  endloop
 endfacet
 facet normal 0.0 0.0 -1.0
  outer loop
   vertex -4.431634765625 -0.7814168090820313 -0.5
   vertex -0.8163868408203125 2.902328857421875 -0.5
   vertex 0.22550221252441408 -3.006517822265625 -0.5
  endloop
 endfacet
 facet normal 0.0 0.0 -1.0
  outer loop
   vertex 0.8163868408203125 -2.902328857421875 -0.5
   vertex 4.45620654296875 -0.6262789306640625 -0.5
   vertex 4.4080888671875 -0.9048506469726563 -0.5
  endloop
 endfacet
 facet normal 0.0 0.0 -1.0
  outer loop
   vertex -2.3579365234375 3.832771240234375 -0.5
   vertex -2.1126220703125 3.97326416015625 -0.5
   vertex -0.8163868408203125 2.902328857421875 -0.5
  endloop
 endfacet
 facet normal 0.0 0.0 -1.0
  outer loop
   vertex 0.8163868408203125 -2.902328857421875 -0.5
   vertex 4.4867373046875 -0.34523562622070314 -0.5
   vertex 4.45620654296875 -0.6262789306640625 -0.5
  endloop
 endfacet
 facet normal 0.0 0.0 -1.0
  outer loop
   vertex -2.1126220703125 3.97326416015625 -0.5
   vertex -1.858969970703125 4.09807666015625 -0.5
   vertex -0.8163868408203125 2.902328857421875 -0.5
  endloop
 endfacet
 facet normal 0.0 0.0 -1.0
  outer loop
   vertex 0.8163868408203125 -2.902328857421875 -0.5
   vertex 4.4995615234375 -0.0628298110961914 -0.5
   vertex 4.4867373046875 -0.34523562622070314 -0.5
  endloop
 endfacet
 facet normal 0.0 0.0 -1.0
  outer loop
   vertex -1.858969970703125 4.09807666015625 -0.5
   vertex -1.5979813232421876 4.2067153320312505 -0.5
   vertex -0.8163868408203125 2.902328857421875 -0.5
  endloop
 endfacet
 facet normal 0.0 0.0 -1.0
  outer loop
   vertex 0.8163868408203125 -2.902328857421875 -0.5
   vertex 4.49462744140625 0.21982395935058593 -0.5
   vertex 4.4995615234375 -0.0628298110961914 -0.5
  endloop
 endfacet
 facet normal 0.0 0.0 -1.0
  outer loop
   vertex -1.5979813232421876 4.2067153320312505 -0.5
   vertex -1.330686279296875 4.29875244140625 -0.5
   vertex -0.8163868408203125 2.902328857421875 -0.5
  endloop
 endfacet
 facet normal 0.0 0.0 -1.0
  outer loop
   vertex 0.8163868408203125 -2.902328857421875 -0.5
   vertex 4.47195556640625 0.5016101989746093 -0.5
   vertex 4.49462744140625 0.21982395935058593 -0.5
  endloop
 endfacet
 facet normal 0.0 0.0 -1.0
  outer loop
   vertex -1.330686279296875 4.29875244140625 -0.5
   vertex -1.0581395263671876 4.37382470703125 -0.5
   vertex -0.8163868408203125 2.902328857421875 -0.5
  endloop
 endfacet
 facet normal 0.0 0.0 -1.0
  outer loop
   vertex -0.22550221252441408 3.006517822265625 -0.5
   vertex 4.431634765625 0.7814168090820313 -0.5
   vertex 0.8163868408203125 -2.902328857421875 -0.5
  endloop
 endfacet
 facet normal 0.0 0.0 -1.0
  outer loop
   vertex 0.8163868408203125 -2.902328857421875 -0.5
   vertex 4.431634765625 0.7814168090820313 -0.5
   vertex 4.47195556640625 0.5016101989746093 -0.5
  endloop
 endfacet
 facet normal 0.0 0.0 -1.0
  outer loop
   vertex -0.8163868408203125 2.902328857421875 -0.5
   vertex -0.7814168090820313 4.431634765625 -0.5
   vertex -0.22550221252441408 3.006517822265625 -0.5
  endloop
 endfacet
 facet normal 0.0 0.0 -1.0
  outer loop
   vertex -1.0581395263671876 4.37382470703125 -0.5
   vertex -0.7814168090820313 4.431634765625 -0.5
   vertex -0.8163868408203125 2.902328857421875 -0.5
  endloop
 endfacet
 facet normal 0.0 0.0 -1.0
  outer loop
   vertex -0.22550221252441408 3.006517822265625 -0.5
   vertex 4.37382470703125 1.0581395263671876 -0.5
   vertex 4.431634765625 0.7814168090820313 -0.5
  endloop
 endfacet
 facet normal 0.0 0.0 -1.0
  outer loop
   vertex -0.7814168090820313 4.431634765625 -0.5
   vertex -0.5016101989746093 4.47195556640625 -0.5
   vertex -0.22550221252441408 3.006517822265625 -0.5
  endloop
 endfacet
 facet normal 0.0 0.0 -1.0
  outer loop
   vertex -0.5016101989746093 4.47195556640625 -0.5
   vertex -0.21982395935058593 4.49462744140625 -0.5
   vertex -0.22550221252441408 3.006517822265625 -0.5
  endloop
 endfacet
 facet normal 0.0 0.0 -1.0
  outer loop
   vertex -0.22550221252441408 3.006517822265625 -0.5
   vertex 4.29875244140625 1.330686279296875 -0.5
   vertex 4.37382470703125 1.0581395263671876 -0.5
  endloop
 endfacet
 facet normal 0.0 0.0 -1.0
  outer loop
   vertex -0.22550221252441408 3.006517822265625 -0.5
   vertex 4.2067153320312505 1.5979813232421876 -0.5
   vertex 4.29875244140625 1.330686279296875 -0.5
  endloop
 endfacet
 facet normal 0.0 -0.0 -1.0
  outer loop
   vertex -0.21982395935058593 4.49462744140625 -0.5
   vertex 0.0628298110961914 4.4995615234375 -0.5
   vertex -0.22550221252441408 3.006517822265625 -0.5
  endloop
 endfacet
 facet normal 0.0 0.0 -1.0
  outer loop
   vertex -0.22550221252441408 3.006517822265625 -0.5
   vertex 4.09807666015625 1.858969970703125 -0.5
   vertex 4.2067153320312505 1.5979813232421876 -0.5
  endloop
 endfacet
 facet normal 0.0 -0.0 -1.0
  outer loop
   vertex 0.0628298110961914 4.4995615234375 -0.5
   vertex 0.34523562622070314 4.4867373046875 -0.5
   vertex -0.22550221252441408 3.006517822265625 -0.5
  endloop
 endfacet
 facet normal 0.0 0.0 -1.0
  outer loop
   vertex -0.22550221252441408 3.006517822265625 -0.5
   vertex 3.97326416015625 2.1126220703125 -0.5
   vertex 4.09807666015625 1.858969970703125 -0.5
  endloop
 endfacet
 facet normal 0.0 -0.0 -1.0
  outer loop
   vertex 0.34523562622070314 4.4867373046875 -0.5
   vertex 0.6262789306640625 4.45620654296875 -0.5
   vertex -0.22550221252441408 3.006517822265625 -0.5
  endloop
 endfacet
 facet normal 0.0 0.0 -1.0
  outer loop
   vertex -0.22550221252441408 3.006517822265625 -0.5
   vertex 3.832771240234375 2.3579365234375 -0.5
   vertex 3.97326416015625 2.1126220703125 -0.5
  endloop
 endfacet
 facet normal 0.0 -0.0 -1.0
  outer loop
   vertex 0.6262789306640625 4.45620654296875 -0.5
   vertex 0.9048506469726563 4.4080888671875 -0.5
   vertex -0.22550221252441408 3.006517822265625 -0.5
  endloop
 endfacet
 facet normal 0.0 0.0 -1.0
  outer loop
   vertex -0.22550221252441408 3.006517822265625 -0.5
   vertex 3.677152099609375 2.5939453125000003 -0.5
   vertex 3.832771240234375 2.3579365234375 -0.5
  endloop
 endfacet
 facet normal 0.0 -0.0 -1.0
  outer loop
   vertex 0.9048506469726563 4.4080888671875 -0.5
   vertex 1.179851318359375 4.34257421875 -0.5
   vertex -0.22550221252441408 3.006517822265625 -0.5
  endloop
 endfacet
 facet normal 0.0 0.0 -1.0
  outer loop
   vertex -0.22550221252441408 3.006517822265625 -0.5
   vertex 3.507020751953125 2.819717041015625 -0.5
   vertex 3.677152099609375 2.5939453125000003 -0.5
  endloop
 endfacet
 facet normal 0.0 -0.0 -1.0
  outer loop
   vertex 1.179851318359375 4.34257421875 -0.5
   vertex 1.4501956787109376 4.259921875 -0.5
   vertex -0.22550221252441408 3.006517822265625 -0.5
  endloop
 endfacet
 facet normal 0.0 -0.0 -1.0
  outer loop
   vertex 1.4501956787109376 4.259921875 -0.5
   vertex 1.714816650390625 4.16045703125 -0.5
   vertex -0.22550221252441408 3.006517822265625 -0.5
  endloop
 endfacet
 facet normal 0.0 0.0 -1.0
  outer loop
   vertex -0.22550221252441408 3.006517822265625 -0.5
   vertex 3.323049072265625 3.03436083984375 -0.5
   vertex 3.507020751953125 2.819717041015625 -0.5
  endloop
 endfacet
 facet normal 0.0 -0.0 -1.0
  outer loop
   vertex 1.714816650390625 4.16045703125 -0.5
   vertex 1.972670166015625 4.0445732421875 -0.5
   vertex -0.22550221252441408 3.006517822265625 -0.5
  endloop
 endfacet
 facet normal 0.0 0.0 -1.0
  outer loop
   vertex -0.22550221252441408 3.006517822265625 -0.5
   vertex 3.1259626464843753 3.2370290527343752 -0.5
   vertex 3.323049072265625 3.03436083984375 -0.5
  endloop
 endfacet
 facet normal 0.0 -0.0 -1.0
  outer loop
   vertex 1.972670166015625 4.0445732421875 -0.5
   vertex 2.22273828125 3.912727294921875 -0.5
   vertex -0.22550221252441408 3.006517822265625 -0.5
  endloop
 endfacet
 facet normal 0.0 0.0 -1.0
  outer loop
   vertex -0.22550221252441408 3.006517822265625 -0.5
   vertex 2.91653955078125 3.42692236328125 -0.5
   vertex 3.1259626464843753 3.2370290527343752 -0.5
  endloop
 endfacet
 facet normal 0.0 0.0 -1.0
  outer loop
   vertex -0.22550221252441408 3.006517822265625 -0.5
   vertex 2.695606201171875 3.603291259765625 -0.5
   vertex 2.91653955078125 3.42692236328125 -0.5
  endloop
 endfacet
 facet normal 0.0 -0.0 -1.0
  outer loop
   vertex 2.22273828125 3.912727294921875 -0.5
   vertex 2.464034423828125 3.765439453125 -0.5
   vertex -0.22550221252441408 3.006517822265625 -0.5
  endloop
 endfacet
 facet normal 0.0 0.0 -1.0
  outer loop
   vertex -0.22550221252441408 3.006517822265625 -0.5
   vertex 2.464034423828125 3.765439453125 -0.5
   vertex 2.695606201171875 3.603291259765625 -0.5
  endloop
 endfacet
endsolid patch_0_0
solid patch_0_2
 facet normal 0.0 0.0 1.0
  outer loop
   vertex 0.22550221252441408 -3.006517822265625 0.5
   vertex -4.431634765625 -0.7814168090820313 0.5
   vertex -4.37382470703125 -1.0581395263671876 0.5
  endloop
 endfacet
 facet normal 0.0 0.0 1.0
  outer loop
   vertex 0.22550221252441408 -3.006517822265625 0.5
   vertex -4.37382470703125 -1.0581395263671876 0.5
   vertex -4.29875244140625 -1.330686279296875 0.5
  endloop
 endfacet
 facet normal 0.0 0.0 1.0
  outer loop
   vertex 0.22550221252441408 -3.006517822265625 0.5
   vertex -4.29875244140625 -1.330686279296875 0.5
   vertex -4.2067153320312505 -1.5979813232421876 0.5
  endloop
 endfacet
 facet normal 0.0 0.0 1.0
  outer loop
   vertex 0.22550221252441408 -3.006517822265625 0.5
   vertex -4.2067153320312505 -1.5979813232421876 0.5
   vertex -4.09807666015625 -1.858969970703125 0.5
  endloop
 endfacet
 facet normal 0.0 0.0 1.0
  outer loop
   vertex 0.22550221252441408 -3.006517822265625 0.5
   vertex -4.09807666015625 -1.858969970703125 0.5
   vertex -3.97326416015625 -2.1126220703125 0.5
  endloop
 endfacet
 facet normal 0.0 0.0 1.0
  outer loop
   vertex 0.22550221252441408 -3.006517822265625 0.5
   vertex -3.97326416015625 -2.1126220703125 0.5
   vertex -3.832771240234375 -2.3579365234375 0.5
  endloop
 endfacet
 facet normal 0.0 0.0 1.0
  outer loop
   vertex 0.22550221252441408 -3.006517822265625 0.5
   vertex -3.832771240234375 -2.3579365234375 0.5
   vertex -3.677152099609375 -2.5939453125000003 0.5
  endloop
 endfacet
 facet normal 0.0 0.0 1.0
  outer loop
   vertex 0.22550221252441408 -3.006517822265625 0.5
   vertex -3.677152099609375 -2.5939453125000003 0.5
   vertex -3.507020751953125 -2.819717041015625 0.5
  endloop
 endfacet
 facet normal 0.0 0.0 1.0
  outer loop
   vertex 0.22550221252441408 -3.006517822265625 0.5
   vertex -3.507020751953125 -2.819717041015625 0.5
   vertex -3.323049072265625 -3.03436083984375 0.5
  endloop
 endfacet
 facet normal 0.0 0.0 1.0
  outer loop
   vertex 0.22550221252441408 -3.006517822265625 0.5
   vertex -3.323049072265625 -3.03436083984375 0.5
   vertex -3.1259626464843753 -3.2370290527343752 0.5
  endloop
 endfacet
 facet normal 0.0 0.0 1.0
  outer loop
   vertex 0.22550221252441408 -3.006517822265625 0.5
   vertex -3.1259626464843753 -3.2370290527343752 0.5
   vertex -2.91653955078125 -3.42692236328125 0.5
  endloop
 endfacet
 facet normal 0.0 0.0 1.0
  outer loop
   vertex 0.22550221252441408 -3.006517822265625 0.5
   vertex -2.91653955078125 -3.42692236328125 0.5
   vertex -2.695606201171875 -3.603291259765625 0.5
  endloop
 endfacet
 facet normal 0.0 0.0 1.0
  outer loop
   vertex 0.22550221252441408 -3.006517822265625 0.5
   vertex -2.695606201171875 -3.603291259765625 0.5
   vertex -2.464034423828125 -3.765439453125 0.5
  endloop
 endfacet
 facet normal 0.0 0.0 1.0
  outer loop
   vertex 0.22550221252441408 -3.006517822265625 0.5
   vertex -2.464034423828125 -3.765439453125 0.5
   vertex -2.22273828125 -3.912727294921875 0.5
  endloop
 endfacet
 facet normal 0.0 0.0 1.0
  outer loop
   vertex 0.22550221252441408 -3.006517822265625 0.5
   vertex -2.22273828125 -3.912727294921875 0.5
   vertex -1.972670166015625 -4.0445732421875 0.5
  endloop
 endfacet
 facet normal 0.0 0.0 1.0
  outer loop
   vertex 0.22550221252441408 -3.006517822265625 0.5
   vertex -1.972670166015625 -4.0445732421875 0.5
   vertex -1.714816650390625 -4.16045703125 0.5
  endloop
 endfacet
 facet normal 0.0 0.0 1.0
  outer loop
   vertex 0.22550221252441408 -3.006517822265625 0.5
   vertex -1.714816650390625 -4.16045703125 0.5
   vertex -1.4501956787109376 -4.259921875 0.5
  endloop
 endfacet
 facet normal 0.0 0.0 1.0
  outer loop
   vertex 0.22550221252441408 -3.006517822265625 0.5
   vertex -1.4501956787109376 -4.259921875 0.5
   vertex -1.179851318359375 -4.34257421875 0.5
  endloop
 endfacet
 facet normal 0.0 0.0 1.0
  outer loop
   vertex 0.22550221252441408 -3.006517822265625 0.5
   vertex -1.179851318359375 -4.34257421875 0.5
   vertex -0.9048506469726563 -4.4080888671875 0.5
  endloop
 endfacet
 facet normal 0.0 0.0 1.0
  outer loop
   vertex 0.22550221252441408 -3.006517822265625 0.5
   vertex -0.9048506469726563 -4.4080888671875 0.5
   vertex -0.6262789306640625 -4.45620654296875 0.5
  endloop
 endfacet
 facet normal 0.0 0.0 1.0
  outer loop
   vertex 0.22550221252441408 -3.006517822265625 0.5
   vertex -0.6262789306640625 -4.45620654296875 0.5
   vertex -0.34523562622070314 -4.4867373046875 0.5
  endloop
 endfacet
 facet normal 0.0 0.0 1.0
  outer loop
   vertex 0.22550221252441408 -3.006517822265625 0.5
   vertex -0.34523562622070314 -4.4867373046875 0.5
   vertex -0.0628298110961914 -4.4995615234375 0.5
  endloop
 endfacet
 facet normal 0.0 0.0 1.0
  outer loop
   vertex 0.22550221252441408 -3.006517822265625 0.5
   vertex -0.0628298110961914 -4.4995615234375 0.5
   vertex 0.21982395935058593 -4.49462744140625 0.5
  endloop
 endfacet
 facet normal 0.0 0.0 1.0
  outer loop
   vertex 0.22550221252441408 -3.006517822265625 0.5
   vertex 0.21982395935058593 -4.49462744140625 0.5
   vertex 0.5016101989746093 -4.47195556640625 0.5
  endloop
 endfacet
 facet normal 0.0 0.0 1.0
  outer loop
   vertex 0.22550221252441408 -3.006517822265625 0.5
   vertex 0.5016101989746093 -4.47195556640625 0.5
   vertex 0.7814168090820313 -4.431634765625 0.5
  endloop
 endfacet
 facet normal 0.0 0.0 1.0
  outer loop
   vertex 0.8163868408203125 -2.902328857421875 0.5
   vertex 0.22550221252441408 -3.006517822265625 0.5
   vertex 0.7814168090820313 -4.431634765625 0.5
  endloop
 endfacet
 facet normal 0.0 0.0 1.0
  outer loop
   vertex 0.8163868408203125 -2.902328857421875 0.5
   vertex 0.7814168090820313 -4.431634765625 0.5
   vertex 1.0581395263671876 -4.37382470703125 0.5
  endloop
 endfacet
 facet normal 0.0 0.0 1.0
  outer loop
   vertex 0.8163868408203125 -2.902328857421875 0.5
   vertex 1.0581395263671876 -4.37382470703125 0.5
   vertex 1.330686279296875 -4.29875244140625 0.5
  endloop
 endfacet
 facet normal 0.0 0.0 1.0
  outer loop
   vertex 0.8163868408203125 -2.902328857421875 0.5
   vertex 1.330686279296875 -4.29875244140625 0.5
   vertex 1.5979813232421876 -4.2067153320312505 0.5
  endloop
 endfacet
 facet normal 0.0 0.0 1.0
  outer loop
   vertex 0.8163868408203125 -2.902328857421875 0.5
   vertex 1.5979813232421876 -4.2067153320312505 0.5
   vertex 1.858969970703125 -4.09807666015625 0.5
  endloop
 endfacet
 facet normal 0.0 0.0 1.0
  outer loop
   vertex 0.8163868408203125 -2.902328857421875 0.5
   vertex 1.858969970703125 -4.09807666015625 0.5
   vertex 2.1126220703125 -3.97326416015625 0.5
  endloop
 endfacet
 facet normal 0.0 0.0 1.0
  outer loop
   vertex 2.3579365234375 -3.832771240234375 0.5
   vertex 0.8163868408203125 -2.902328857421875 0.5
   vertex 2.1126220703125 -3.97326416015625 0.5
  endloop
 endfacet
 facet normal 0.0 0.0 1.0
  outer loop
   vertex 2.5939453125000003 -3.677152099609375 0.5
   vertex 0.8163868408203125 -2.902328857421875 0.5
   vertex 2.3579365234375 -3.832771240234375 0.5
  endloop
 endfacet
 facet normal 0.0 0.0 1.0
  outer loop
   vertex 2.819717041015625 -3.507020751953125 0.5
   vertex 0.8163868408203125 -2.902328857421875 0.5
   vertex 2.5939453125000003 -3.677152099609375 0.5
  endloop
 endfacet
 facet normal 0.0 0.0 1.0
  outer loop
   vertex 3.03436083984375 -3.323049072265625 0.5
   vertex 0.8163868408203125 -2.902328857421875 0.5
   vertex 2.819717041015625 -3.507020751953125 0.5
  endloop
 endfacet
 facet normal 0.0 0.0 1.0
  outer loop
   vertex 3.2370290527343752 -3.1259626464843753 0.5
   vertex 0.8163868408203125 -2.902328857421875 0.5
   vertex 3.03436083984375 -3.323049072265625 0.5
  endloop
 endfacet
 facet normal 0.0 0.0 1.0
  outer loop
   vertex 3.42692236328125 -2.91653955078125 0.5
   vertex 0.8163868408203125 -2.902328857421875 0.5
   vertex 3.2370290527343752 -3.1259626464843753 0.5
  endloop
 endfacet
 facet normal 0.0 0.0 1.0
  outer loop
   vertex 3.603291259765625 -2.695606201171875 0.5
   vertex 0.8163868408203125 -2.902328857421875 0.5
   vertex 3.42692236328125 -2.91653955078125 0.5
  endloop
 endfacet
 facet normal 0.0 0.0 1.0
  outer loop
   vertex 3.765439453125 -2.464034423828125 0.5
   vertex 0.8163868408203125 -2.902328857421875 0.5
   vertex 3.603291259765625 -2.695606201171875 0.5
  endloop
 endfacet
 facet normal 0.0 0.0 1.0
  outer loop
   vertex 3.912727294921875 -2.22273828125 0.5
   vertex 0.8163868408203125 -2.902328857421875 0.5
   vertex 3.765439453125 -2.464034423828125 0.5
  endloop
 endfacet
 facet normal 0.0 0.0 1.0
  outer loop
   vertex 4.0445732421875 -1.972670166015625 0.5
   vertex 0.8163868408203125 -2.902328857421875 0.5
   vertex 3.912727294921875 -2.22273828125 0.5
  endloop
 endfacet
 facet normal 0.0 0.0 1.0
  outer loop
   vertex 4.16045703125 -1.714816650390625 0.5
   vertex 0.8163868408203125 -2.902328857421875 0.5
   vertex 4.0445732421875 -1.972670166015625 0.5
  endloop
 endfacet
 facet normal 0.0 0.0 1.0
  outer loop
   vertex 4.259921875 -1.4501956787109376 0.5
   vertex 0.8163868408203125 -2.902328857421875 0.5
   vertex 4.16045703125 -1.714816650390625 0.5
  endloop
 endfacet
 facet normal 0.0 0.0 1.0
  outer loop
   vertex 4.34257421875 -1.179851318359375 0.5
   vertex 0.8163868408203125 -2.902328857421875 0.5
   vertex 4.259921875 -1.4501956787109376 0.5
  endloop
 endfacet
 facet normal 0.0 0.0 1.0
  outer loop
   vertex 4.4080888671875 -0.9048506469726563 0.5
   vertex 0.8163868408203125 -2.902328857421875 0.5
   vertex 4.34257421875 -1.179851318359375 0.5
  endloop
 endfacet
 facet normal 0.0 0.0 1.0
  outer loop
   vertex -0.8163868408203125 2.902328857421875 0.5
   vertex -2.3579365234375 3.832771240234375 0.5
   vertex -2.5939453125000003 3.677152099609375 0.5
  endloop
 endfacet
 facet normal 0.0 0.0 1.0
  outer loop
   vertex -0.8163868408203125 2.902328857421875 0.5
   vertex -2.5939453125000003 3.677152099609375 0.5
   vertex -2.819717041015625 3.507020751953125 0.5
  endloop
 endfacet
 facet normal 0.0 0.0 1.0
  outer loop
   vertex -0.8163868408203125 2.902328857421875 0.5
   vertex -2.819717041015625 3.507020751953125 0.5
   vertex -3.03436083984375 3.323049072265625 0.5
  endloop
 endfacet
 facet normal 0.0 0.0 1.0
  outer loop
   vertex -0.8163868408203125 2.902328857421875 0.5
   vertex -3.03436083984375 3.323049072265625 0.5
   vertex -3.2370290527343752 3.1259626464843753 0.5
  endloop
 endfacet
 facet normal 0.0 0.0 1.0
  outer loop
   vertex -0.8163868408203125 2.902328857421875 0.5
   vertex -3.2370290527343752 3.1259626464843753 0.5
   vertex -3.42692236328125 2.91653955078125 0.5
  endloop
 endfacet
 facet normal 0.0 0.0 1.0
  outer loop
   vertex -0.8163868408203125 2.902328857421875 0.5
   vertex -3.42692236328125 2.91653955078125 0.5
   vertex -3.603291259765625 2.695606201171875 0.5
  endloop
 endfacet
 facet normal 0.0 0.0 1.0
  outer loop
   vertex -0.8163868408203125 2.902328857421875 0.5
   vertex -3.603291259765625 2.695606201171875 0.5
   vertex -3.765439453125 2.464034423828125 0.5
  endloop
 endfacet
 facet normal 0.0 0.0 1.0
  outer loop
   vertex -0.8163868408203125 2.902328857421875 0.5
   vertex -3.765439453125 2.464034423828125 0.5
   vertex -3.912727294921875 2.22273828125 0.5
  endloop
 endfacet
 facet normal 0.0 0.0 1.0
  outer loop
   vertex -0.8163868408203125 2.902328857421875 0.5
   vertex -3.912727294921875 2.22273828125 0.5
   vertex -4.0445732421875 1.972670166015625 0.5
  endloop
 endfacet
 facet normal 0.0 0.0 1.0
  outer loop
   vertex -0.8163868408203125 2.902328857421875 0.5
   vertex -4.0445732421875 1.972670166015625 0.5
   vertex -4.16045703125 1.714816650390625 0.5
  endloop
 endfacet
 facet normal 0.0 0.0 1.0
  outer loop
   vertex -0.8163868408203125 2.902328857421875 0.5
   vertex -4.16045703125 1.714816650390625 0.5
   vertex -4.259921875 1.4501956787109376 0.5
  endloop
 endfacet
 facet normal 0.0 0.0 1.0
  outer loop
   vertex -0.8163868408203125 2.902328857421875 0.5
   vertex -4.259921875 1.4501956787109376 0.5
   vertex -4.34257421875 1.179851318359375 0.5
  endloop
 endfacet
 facet normal 0.0 0.0 1.0
  outer loop
   vertex -0.8163868408203125 2.902328857421875 0.5
   vertex -4.34257421875 1.179851318359375 0.5
   vertex -4.4080888671875 0.9048506469726563 0.5
  endloop
 endfacet
 facet normal 0.0 0.0 1.0
  outer loop
   vertex -0.8163868408203125 2.902328857421875 0.5
   vertex -4.4080888671875 0.9048506469726563 0.5
   vertex -4.45620654296875 0.6262789306640625 0.5
  endloop
 endfacet
 facet normal 0.0 0.0 1.0
  outer loop
   vertex -0.8163868408203125 2.902328857421875 0.5
   vertex -4.45620654296875 0.6262789306640625 0.5
   vertex -4.4867373046875 0.34523562622070314 0.5
  endloop
 endfacet
 facet normal 0.0 0.0 1.0
  outer loop
   vertex -0.8163868408203125 2.902328857421875 0.5
   vertex -4.4867373046875 0.34523562622070314 0.5
   vertex -4.4995615234375 0.0628298110961914 0.5
  endloop
 endfacet
 facet normal 0.0 0.0 1.0
  outer loop
   vertex -0.8163868408203125 2.902328857421875 0.5
   vertex -4.4995615234375 0.0628298110961914 0.5
   vertex -4.49462744140625 -0.21982395935058593 0.5
  endloop
 endfacet
 facet normal 0.0 0.0 1.0
  outer loop
   vertex -0.8163868408203125 2.902328857421875 0.5
   vertex -4.49462744140625 -0.21982395935058593 0.5
   vertex -4.47195556640625 -0.5016101989746093 0.5
  endloop
 endfacet
 facet normal 0.0 0.0 1.0
  outer loop
   vertex -0.8163868408203125 2.902328857421875 0.5
   vertex -4.47195556640625 -0.5016101989746093 0.5
   vertex -4.431634765625 -0.7814168090820313 0.5
  endloop
 endfacet
 facet normal 0.0 0.0 1.0
  outer loop
   vertex -0.8163868408203125 2.902328857421875 0.5
   vertex -4.431634765625 -0.7814168090820313 0.5
   vertex 0.22550221252441408 -3.006517822265625 0.5
  endloop
 endfacet
 facet normal 0.0 0.0 1.0
  outer loop
   vertex 4.45620654296875 -0.6262789306640625 0.5
   vertex 0.8163868408203125 -2.902328857421875 0.5
   vertex 4.4080888671875 -0.9048506469726563 0.5
  endloop
 endfacet
 facet normal 0.0 0.0 1.0
  outer loop
   vertex -2.1126220703125 3.97326416015625 0.5
   vertex -2.3579365234375 3.832771240234375 0.5
   vertex -0.8163868408203125 2.902328857421875 0.5
  endloop
 endfacet
 facet normal 0.0 0.0 1.0
  outer loop
   vertex 4.4867373046875 -0.34523562622070314 0.5
   vertex 0.8163868408203125 -2.902328857421875 0.5
   vertex 4.45620654296875 -0.6262789306640625 0.5
  endloop
 endfacet
 facet normal 0.0 0.0 1.0
  outer loop
   vertex -1.858969970703125 4.09807666015625 0.5
   vertex -2.1126220703125 3.97326416015625 0.5
   vertex -0.8163868408203125 2.902328857421875 0.5
  endloop
 endfacet
 facet normal 0.0 0.0 1.0
  outer loop
   vertex 4.4995615234375 -0.0628298110961914 0.5
   vertex 0.8163868408203125 -2.902328857421875 0.5
   vertex 4.4867373046875 -0.34523562622070314 0.5
  endloop
 endfacet
 facet normal 0.0 0.0 1.0
  outer loop
   vertex -1.5979813232421876 4.2067153320312505 0.5
   vertex -1.858969970703125 4.09807666015625 0.5
   vertex -0.8163868408203125 2.902328857421875 0.5
  endloop
 endfacet
 facet normal 0.0 0.0 1.0
  outer loop
   vertex 4.49462744140625 0.21982395935058593 0.5
   vertex 0.8163868408203125 -2.902328857421875 0.5
   vertex 4.4995615234375 -0.0628298110961914 0.5
  endloop
 endfacet
 facet normal 0.0 0.0 1.0
  outer loop
   vertex -1.330686279296875 4.29875244140625 0.5
   vertex -1.5979813232421876 4.2067153320312505 0.5
   vertex -0.8163868408203125 2.902328857421875 0.5
  endloop
 endfacet
 facet normal 0.0 0.0 1.0
  outer loop
   vertex 4.47195556640625 0.5016101989746093 0.5
   vertex 0.8163868408203125 -2.902328857421875 0.5
   vertex 4.49462744140625 0.21982395935058593 0.5
  endloop
 endfacet
 facet normal 0.0 0.0 1.0
  outer loop
   vertex -1.0581395263671876 4.37382470703125 0.5
   vertex -1.330686279296875 4.29875244140625 0.5
   vertex -0.8163868408203125 2.902328857421875 0.5
  endloop
 endfacet
 facet normal 0.0 0.0 1.0
  outer loop
   vertex 4.431634765625 0.7814168090820313 0.5
   vertex -0.22550221252441408 3.006517822265625 0.5
   vertex 0.8163868408203125 -2.902328857421875 0.5
  endloop
 endfacet
 facet normal 0.0 0.0 1.0
  outer loop
   vertex 4.431634765625 0.7814168090820313 0.5
   vertex 0.8163868408203125 -2.902328857421875 0.5
   vertex 4.47195556640625 0.5016101989746093 0.5
  endloop
 endfacet
 facet normal 0.0 0.0 1.0
  outer loop
   vertex -0.7814168090820313 4.431634765625 0.5
   vertex -0.8163868408203125 2.902328857421875 0.5
   vertex -0.22550221252441408 3.006517822265625 0.5
  endloop
 endfacet
 facet normal 0.0 0.0 1.0
  outer loop
   vertex -0.7814168090820313 4.431634765625 0.5
   vertex -1.0581395263671876 4.37382470703125 0.5
   vertex -0.8163868408203125 2.902328857421875 0.5
  endloop
 endfacet
 facet normal 0.0 0.0 1.0
  outer loop
   vertex 4.37382470703125 1.0581395263671876 0.5
   vertex -0.22550221252441408 3.006517822265625 0.5
   vertex 4.431634765625 0.7814168090820313 0.5
  endloop
 endfacet
 facet normal 0.0 0.0 1.0
  outer loop
   vertex -0.5016101989746093 4.47195556640625 0.5
   vertex -0.7814168090820313 4.431634765625 0.5
   vertex -0.22550221252441408 3.006517822265625 0.5
  endloop
 endfacet
 facet normal 0.0 0.0 1.0
  outer loop
   vertex -0.21982395935058593 4.49462744140625 0.5
   vertex -0.5016101989746093 4.47195556640625 0.5
   vertex -0.22550221252441408 3.006517822265625 0.5
  endloop
 endfacet
 facet normal 0.0 0.0 1.0
  outer loop
   vertex 4.29875244140625 1.330686279296875 0.5
   vertex -0.22550221252441408 3.006517822265625 0.5
   vertex 4.37382470703125 1.0581395263671876 0.5
  endloop
 endfacet
 facet normal 0.0 0.0 1.0
  outer loop
   vertex 4.2067153320312505 1.5979813232421876 0.5
   vertex -0.22550221252441408 3.006517822265625 0.5
   vertex 4.29875244140625 1.330686279296875 0.5
  endloop
 endfacet
 facet normal 0.0 0.0 1.0
  outer loop
   vertex 0.0628298110961914 4.4995615234375 0.5
   vertex -0.21982395935058593 4.49462744140625 0.5
   vertex -0.22550221252441408 3.006517822265625 0.5
  endloop
 endfacet
 facet normal 0.0 0.0 1.0
  outer loop
   vertex 4.09807666015625 1.858969970703125 0.5
   vertex -0.22550221252441408 3.006517822265625 0.5
   vertex 4.2067153320312505 1.5979813232421876 0.5
  endloop
 endfacet
 facet normal 0.0 0.0 1.0
  outer loop
   vertex 0.34523562622070314 4.4867373046875 0.5
   vertex 0.0628298110961914 4.4995615234375 0.5
   vertex -0.22550221252441408 3.006517822265625 0.5
  endloop
 endfacet
 facet normal 0.0 0.0 1.0
  outer loop
   vertex 3.97326416015625 2.1126220703125 0.5
   vertex -0.22550221252441408 3.006517822265625 0.5
   vertex 4.09807666015625 1.858969970703125 0.5
  endloop
 endfacet
 facet normal 0.0 0.0 1.0
  outer loop
   vertex 0.6262789306640625 4.45620654296875 0.5
   vertex 0.34523562622070314 4.4867373046875 0.5
   vertex -0.22550221252441408 3.006517822265625 0.5
  endloop
 endfacet
 facet normal 0.0 0.0 1.0
  outer loop
   vertex 3.832771240234375 2.3579365234375 0.5
   vertex -0.22550221252441408 3.006517822265625 0.5
   vertex 3.97326416015625 2.1126220703125 0.5
  endloop
 endfacet
 facet normal 0.0 0.0 1.0
  outer loop
   vertex 0.9048506469726563 4.4080888671875 0.5
   vertex 0.6262789306640625 4.45620654296875 0.5
   vertex -0.22550221252441408 3.006517822265625 0.5
  endloop
 endfacet
 facet normal 0.0 0.0 1.0
  outer loop
   vertex 3.677152099609375 2.5939453125000003 0.5
   vertex -0.22550221252441408 3.006517822265625 0.5
   vertex 3.832771240234375 2.3579365234375 0.5
  endloop
 endfacet
 facet normal 0.0 0.0 1.0
  outer loop
   vertex 1.179851318359375 4.34257421875 0.5
   vertex 0.9048506469726563 4.4080888671875 0.5
   vertex -0.22550221252441408 3.006517822265625 0.5
  endloop
 endfacet
 facet normal 0.0 0.0 1.0
  outer loop
   vertex 3.507020751953125 2.819717041015625 0.5
   vertex -0.22550221252441408 3.006517822265625 0.5
   vertex 3.677152099609375 2.5939453125000003 0.5
  endloop
 endfacet
 facet normal 0.0 0.0 1.0
  outer loop
   vertex 1.4501956787109376 4.259921875 0.5
   vertex 1.179851318359375 4.34257421875 0.5
   vertex -0.22550221252441408 3.006517822265625 0.5
  endloop
 endfacet
 facet normal 0.0 0.0 1.0
  outer loop
   vertex 1.714816650390625 4.16045703125 0.5
   vertex 1.4501956787109376 4.259921875 0.5
   vertex -0.22550221252441408 3.006517822265625 0.5
  endloop
 endfacet
 facet normal 0.0 0.0 1.0
  outer loop
   vertex 3.323049072265625 3.03436083984375 0.5
   vertex -0.22550221252441408 3.006517822265625 0.5
   vertex 3.507020751953125 2.819717041015625 0.5
  endloop
 endfacet
 facet normal 0.0 0.0 1.0
  outer loop
   vertex 1.972670166015625 4.0445732421875 0.5
   vertex 1.714816650390625 4.16045703125 0.5
   vertex -0.22550221252441408 3.006517822265625 0.5
  endloop
 endfacet
 facet normal 0.0 0.0 1.0
  outer loop
   vertex 3.1259626464843753 3.2370290527343752 0.5
   vertex -0.22550221252441408 3.006517822265625 0.5
   vertex 3.323049072265625 3.03436083984375 0.5
  endloop
 endfacet
 facet normal 0.0 0.0 1.0
  outer loop
   vertex 2.22273828125 3.912727294921875 0.5
   vertex 1.972670166015625 4.0445732421875 0.5
   vertex -0.22550221252441408 3.006517822265625 0.5
  endloop
 endfacet
 facet normal 0.0 0.0 1.0
  outer loop
   vertex 2.91653955078125 3.42692236328125 0.5
   vertex -0.22550221252441408 3.006517822265625 0.5
   vertex 3.1259626464843753 3.2370290527343752 0.5
  endloop
 endfacet
 facet normal 0.0 0.0 1.0
  outer loop
   vertex 2.695606201171875 3.603291259765625 0.5
   vertex -0.22550221252441408 3.006517822265625 0.5
   vertex 2.91653955078125 3.42692236328125 0.5
  endloop
 endfacet
 facet normal 0.0 0.0 1.0
  outer loop
   vertex 2.464034423828125 3.765439453125 0.5
   vertex 2.22273828125 3.912727294921875 0.5
   vertex -0.22550221252441408 3.006517822265625 0.5
  endloop
 endfacet
 facet normal 0.0 0.0 1.0
  outer loop
   vertex 2.464034423828125 3.765439453125 0.5
   vertex -0.22550221252441408 3.006517822265625 0.5
   vertex 2.695606201171875 3.603291259765625 0.5
  endloop
 endfacet
endsolid patch_0_2
solid patch_1_1
 facet normal 0.9848077297210693 0.1736481785774231 0.0
  outer loop
   vertex 0.22550221252441408 -3.006517822265625 -0.5
   vertex -0.8163868408203125 2.902328857421875 -0.5
   vertex -0.8163868408203125 2.902328857421875 0.5
  endloop
 endfacet
 facet normal 0.9848077297210693 0.1736481785774231 -0.0
  outer loop
   vertex 0.22550221252441408 -3.006517822265625 -0.5
   vertex -0.8163868408203125 2.902328857421875 0.5
   vertex 0.22550221252441408 -3.006517822265625 0.5
  endloop
 endfacet
 facet normal -0.17364828288555145 0.9848077297210693 0.0
  outer loop
   vertex 0.8163868408203125 -2.902328857421875 0.5
   vertex 0.8163868408203125 -2.902328857421875 -0.5
   vertex 0.22550221252441408 -3.006517822265625 0.5
  endloop
 endfacet
 facet normal -0.17364828288555145 0.9848077297210693 0.0
  outer loop
   vertex 0.8163868408203125 -2.902328857421875 -0.5
   vertex 0.22550221252441408 -3.006517822265625 -0.5
   vertex 0.22550221252441408 -3.006517822265625 0.5
  endloop
 endfacet
 facet normal -0.9848077297210693 -0.1736481785774231 0.0
  outer loop
   vertex -0.22550221252441408 3.006517822265625 -0.5
   vertex 0.8163868408203125 -2.902328857421875 -0.5
   vertex -0.22550221252441408 3.006517822265625 0.5
  endloop
 endfacet
 facet normal -0.9848077297210693 -0.1736481785774231 0.0
  outer loop
   vertex -0.22550221252441408 3.006517822265625 0.5
   vertex 0.8163868408203125 -2.902328857421875 -0.5
   vertex 0.8163868408203125 -2.902328857421875 0.5
  endloop
 endfacet
 facet normal 0.17364828288555145 -0.9848077297210693 0.0
  outer loop
   vertex -0.8163868408203125 2.902328857421875 0.5
   vertex -0.8163868408203125 2.902328857421875 -0.5
   vertex -0.22550221252441408 3.006517822265625 0.5
  endloop
 endfacet
 facet normal 0.17364828288555145 -0.9848077297210693 0.0
  outer loop
   vertex -0.8163868408203125 2.902328857421875 -0.5
   vertex -0.22550221252441408 3.006517822265625 -0.5
   vertex -0.22550221252441408 3.006517822265625 0.5
  endloop
 endfacet
endsolid patch_1_1
solid patch_2_0
 facet normal 0.9788675904273987 0.2044949233531952 -0.0
  outer loop
   vertex 4.431634765625 0.7814168090820313 -0.5
   vertex 4.37382470703125 1.0581395263671876 -0.5
   vertex 4.431634765625 0.7814168090820313 0.5
  endloop
 endfacet
 facet normal 0.9788675904273987 0.2044949233531952 0.0
  outer loop
   vertex 4.431634765625 0.7814168090820313 0.5
   vertex 4.37382470703125 1.0581395263671876 -0.5
   vertex 4.37382470703125 1.0581395263671876 0.5
  endloop
 endfacet
 facet normal 0.9640950560569763 0.2655573785305023 0.0
  outer loop
   vertex 4.37382470703125 1.0581395263671876 0.5
   vertex 4.29875244140625 1.330686279296875 -0.5
   vertex 4.29875244140625 1.330686279296875 0.5
  endloop
 endfacet
 facet normal 0.9455184936523438 0.325568288564682 0.0
  outer loop
   vertex 4.29875244140625 1.330686279296875 0.5
   vertex 4.29875244140625 1.330686279296875 -0.5
   vertex 4.2067153320312505 1.5979813232421876 0.5
  endloop
 endfacet
 facet normal 0.9640950560569763 0.2655573785305023 -0.0
  outer loop
   vertex 4.37382470703125 1.0581395263671876 -0.5
   vertex 4.29875244140625 1.330686279296875 -0.5
   vertex 4.37382470703125 1.0581395263671876 0.5
  endloop
 endfacet
 facet normal 0.9232107400894165 0.3842940628528595 0.0
  outer loop
   vertex 4.2067153320312505 1.5979813232421876 0.5
   vertex 4.2067153320312505 1.5979813232421876 -0.5
   vertex 4.09807666015625 1.858969970703125 0.5
  endloop
 endfacet
 facet normal 0.9455184936523438 0.325568288564682 0.0
  outer loop
   vertex 4.29875244140625 1.330686279296875 -0.5
   vertex 4.2067153320312505 1.5979813232421876 -0.5
   vertex 4.2067153320312505 1.5979813232421876 0.5
  endloop
 endfacet
 facet normal 0.9232107400894165 0.3842940628528595 0.0
  outer loop
   vertex 4.2067153320312505 1.5979813232421876 -0.5
   vertex 4.09807666015625 1.858969970703125 -0.5
   vertex 4.09807666015625 1.858969970703125 0.5
  endloop
 endfacet
 facet normal 0.8972581028938293 0.44150641560554504 0.0
  outer loop
   vertex 4.09807666015625 1.858969970703125 0.5
   vertex 3.97326416015625 2.1126220703125 -0.5
   vertex 3.97326416015625 2.1126220703125 0.5
  endloop
 endfacet
 facet normal 0.8972581028938293 0.44150641560554504 -0.0
  outer loop
   vertex 4.09807666015625 1.858969970703125 -0.5
   vertex 3.97326416015625 2.1126220703125 -0.5
   vertex 4.09807666015625 1.858969970703125 0.5
  endloop
 endfacet
 facet normal 0.867765486240387 0.49697402119636536 0.0
  outer loop
   vertex 3.97326416015625 2.1126220703125 0.5
   vertex 3.832771240234375 2.3579365234375 -0.5
   vertex 3.832771240234375 2.3579365234375 0.5
  endloop
 endfacet
 facet normal 0.867765486240387 0.49697402119636536 -0.0
  outer loop
   vertex 3.97326416015625 2.1126220703125 -0.5
   vertex 3.832771240234375 2.3579365234375 -0.5
   vertex 3.97326416015625 2.1126220703125 0.5
  endloop
 endfacet
 facet normal 0.8348478078842163 0.5504807829856873 0.0
  outer loop
   vertex 3.832771240234375 2.3579365234375 0.5
   vertex 3.677152099609375 2.5939453125000003 -0.5
   vertex 3.677152099609375 2.5939453125000003 0.5
  endloop
 endfacet
 facet normal 0.8348478078842163 0.5504807829856873 -0.0
  outer loop
   vertex 3.832771240234375 2.3579365234375 -0.5
   vertex 3.677152099609375 2.5939453125000003 -0.5
   vertex 3.832771240234375 2.3579365234375 0.5
  endloop
 endfacet
 facet normal 0.7986353039741516 0.6018153429031372 0.0
  outer loop
   vertex 3.677152099609375 2.5939453125000003 0.5
   vertex 3.507020751953125 2.819717041015625 -0.5
   vertex 3.507020751953125 2.819717041015625 0.5
  endloop
 endfacet
 facet normal 0.7986353039741516 0.6018153429031372 -0.0
  outer loop
   vertex 3.677152099609375 2.5939453125000003 -0.5
   vertex 3.507020751953125 2.819717041015625 -0.5
   vertex 3.677152099609375 2.5939453125000003 0.5
  endloop
 endfacet
 facet normal 0.7592718005180359 0.6507735848426819 0.0
  outer loop
   vertex 3.507020751953125 2.819717041015625 0.5
   vertex 3.323049072265625 3.03436083984375 -0.5
   vertex 3.323049072265625 3.03436083984375 0.5
  endloop
 endfacet
 facet normal 0.7169102430343628 0.6971654295921326 0.0
  outer loop
   vertex 3.323049072265625 3.03436083984375 0.5
   vertex 3.323049072265625 3.03436083984375 -0.5
   vertex 3.1259626464843753 3.2370290527343752 0.5
  endloop
 endfacet
 facet normal 0.7592718005180359 0.6507735848426819 -0.0
  outer loop
   vertex 3.507020751953125 2.819717041015625 -0.5
   vertex 3.323049072265625 3.03436083984375 -0.5
   vertex 3.507020751953125 2.819717041015625 0.5
  endloop
 endfacet
 facet normal 0.7169102430343628 0.6971654295921326 0.0
  outer loop
   vertex 3.323049072265625 3.03436083984375 -0.5
   vertex 3.1259626464843753 3.2370290527343752 -0.5
   vertex 3.1259626464843753 3.2370290527343752 0.5
  endloop
 endfacet
 facet normal 0.6717206835746765 0.7408044934272766 0.0
  outer loop
   vertex 3.1259626464843753 3.2370290527343752 0.5
   vertex 2.91653955078125 3.42692236328125 -0.5
   vertex 2.91653955078125 3.42692236328125 0.5
  endloop
 endfacet
 facet normal 0.6717206835746765 0.7408044934272766 -0.0
  outer loop
   vertex 3.1259626464843753 3.2370290527343752 -0.5
   vertex 2.91653955078125 3.42692236328125 -0.5
   vertex 3.1259626464843753 3.2370290527343752 0.5
  endloop
 endfacet
 facet normal 0.6238798499107361 0.7815203070640564 0.0
  outer loop
   vertex 2.91653955078125 3.42692236328125 0.5
   vertex 2.695606201171875 3.603291259765625 -0.5
   vertex 2.695606201171875 3.603291259765625 0.5
  endloop
 endfacet
 facet normal 0.6238798499107361 0.7815203070640564 -0.0
  outer loop
   vertex 2.91653955078125 3.42692236328125 -0.5
   vertex 2.695606201171875 3.603291259765625 -0.5
   vertex 2.91653955078125 3.42692236328125 0.5
  endloop
 endfacet
 facet normal 0.5735761523246765 0.8191522359848022 0.0
  outer loop
   vertex 2.695606201171875 3.603291259765625 0.5
   vertex 2.464034423828125 3.765439453125 -0.5
   vertex 2.464034423828125 3.765439453125 0.5
  endloop
 endfacet
 facet normal 0.5735761523246765 0.8191522359848022 -0.0
  outer loop
   vertex 2.695606201171875 3.603291259765625 -0.5
   vertex 2.464034423828125 3.765439453125 -0.5
   vertex 2.695606201171875 3.603291259765625 0.5
  endloop
 endfacet
 facet normal 0.5210097432136536 0.8535506725311279 0.0
  outer loop
   vertex 2.464034423828125 3.765439453125 0.5
   vertex 2.22273828125 3.912727294921875 -0.5
   vertex 2.22273828125 3.912727294921875 0.5
  endloop
 endfacet
 facet normal 0.5210097432136536 0.8535506725311279 -0.0
  outer loop
   vertex 2.464034423828125 3.765439453125 -0.5
   vertex 2.22273828125 3.912727294921875 -0.5
   vertex 2.464034423828125 3.765439453125 0.5
  endloop
 endfacet
 facet normal 0.466386616230011 0.8845809698104858 0.0
  outer loop
   vertex 2.22273828125 3.912727294921875 0.5
   vertex 1.972670166015625 4.0445732421875 -0.5
   vertex 1.972670166015625 4.0445732421875 0.5
  endloop
 endfacet
 facet normal 0.466386616230011 0.8845809698104858 -0.0
  outer loop
   vertex 2.22273828125 3.912727294921875 -0.5
   vertex 1.972670166015625 4.0445732421875 -0.5
   vertex 2.22273828125 3.912727294921875 0.5
  endloop
 endfacet
 facet normal 0.4099225103855133 0.9121203422546387 0.0
  outer loop
   vertex 1.972670166015625 4.0445732421875 0.5
   vertex 1.714816650390625 4.16045703125 -0.5
   vertex 1.714816650390625 4.16045703125 0.5
  endloop
 endfacet
 facet normal 0.4099225103855133 0.9121203422546387 -0.0
  outer loop
   vertex 1.972670166015625 4.0445732421875 -0.5
   vertex 1.714816650390625 4.16045703125 -0.5
   vertex 1.972670166015625 4.0445732421875 0.5
  endloop
 endfacet
 facet normal 0.3518427312374115 0.9360590577125549 0.0
  outer loop
   vertex 1.714816650390625 4.16045703125 0.5
   vertex 1.4501956787109376 4.259921875 -0.5
   vertex 1.4501956787109376 4.259921875 0.5
  endloop
 endfacet
 facet normal 0.3518427312374115 0.9360590577125549 -0.0
  outer loop
   vertex 1.714816650390625 4.16045703125 -0.5
   vertex 1.4501956787109376 4.259921875 -0.5
   vertex 1.714816650390625 4.16045703125 0.5
  endloop
 endfacet
 facet normal 0.2923709750175476 0.9563050270080566 0.0
  outer loop
   vertex 1.4501956787109376 4.259921875 0.5
   vertex 1.179851318359375 4.34257421875 -0.5
   vertex 1.179851318359375 4.34257421875 0.5
  endloop
 endfacet
 facet normal 0.2923709750175476 0.9563050270080566 -0.0
  outer loop
   vertex 1.4501956787109376 4.259921875 -0.5
   vertex 1.179851318359375 4.34257421875 -0.5
   vertex 1.4501956787109376 4.259921875 0.5
  endloop
 endfacet
 facet normal 0.2317487597465515 0.9727756977081299 0.0
  outer loop
   vertex 1.179851318359375 4.34257421875 0.5
   vertex 0.9048506469726563 4.4080888671875 -0.5
   vertex 0.9048506469726563 4.4080888671875 0.5
  endloop
 endfacet
 facet normal 0.2317487597465515 0.9727756977081299 -0.0
  outer loop
   vertex 1.179851318359375 4.34257421875 -0.5
   vertex 0.9048506469726563 4.4080888671875 -0.5
   vertex 1.179851318359375 4.34257421875 0.5
  endloop
 endfacet
 facet normal 0.17020943760871887 0.985407829284668 0.0
  outer loop
   vertex 0.9048506469726563 4.4080888671875 0.5
   vertex 0.6262789306640625 4.45620654296875 -0.5
   vertex 0.6262789306640625 4.45620654296875 0.5
  endloop
 endfacet
 facet normal 0.10799826681613922 0.9941511154174805 0.0
  outer loop
   vertex 0.6262789306640625 4.45620654296875 0.5
   vertex 0.6262789306640625 4.45620654296875 -0.5
   vertex 0.34523562622070314 4.4867373046875 0.5
  endloop
 endfacet
 facet normal 0.17020943760871887 0.985407829284668 -0.0
  outer loop
   vertex 0.9048506469726563 4.4080888671875 -0.5
   vertex 0.6262789306640625 4.45620654296875 -0.5
   vertex 0.9048506469726563 4.4080888671875 0.5
  endloop
 endfacet
 facet normal 0.10799826681613922 0.9941511154174805 0.0
  outer loop
   vertex 0.6262789306640625 4.45620654296875 -0.5
   vertex 0.34523562622070314 4.4867373046875 -0.5
   vertex 0.34523562622070314 4.4867373046875 0.5
  endloop
 endfacet
 facet normal 0.04536385461688042 0.9989705085754395 0.0
  outer loop
   vertex 0.34523562622070314 4.4867373046875 0.5
   vertex 0.0628298110961914 4.4995615234375 -0.5
   vertex 0.0628298110961914 4.4995615234375 0.5
  endloop
 endfacet
 facet normal 0.04536385461688042 0.9989705085754395 -0.0
  outer loop
   vertex 0.34523562622070314 4.4867373046875 -0.5
   vertex 0.0628298110961914 4.4995615234375 -0.5
   vertex 0.34523562622070314 4.4867373046875 0.5
  endloop
 endfacet
 facet normal -0.017453616484999657 0.9998476505279541 0.0
  outer loop
   vertex 0.0628298110961914 4.4995615234375 0.5
   vertex -0.21982395935058593 4.49462744140625 -0.5
   vertex -0.21982395935058593 4.49462744140625 0.5
  endloop
 endfacet
 facet normal -0.017453616484999657 0.9998476505279541 0.0
  outer loop
   vertex 0.0628298110961914 4.4995615234375 -0.5
   vertex -0.21982395935058593 4.49462744140625 -0.5
   vertex 0.0628298110961914 4.4995615234375 0.5
  endloop
 endfacet
 facet normal -0.08019854128360748 0.9967789053916931 0.0
  outer loop
   vertex -0.21982395935058593 4.49462744140625 0.5
   vertex -0.5016101989746093 4.47195556640625 -0.5
   vertex -0.5016101989746093 4.47195556640625 0.5
  endloop
 endfacet
 facet normal -0.08019854128360748 0.9967789053916931 0.0
  outer loop
   vertex -0.21982395935058593 4.49462744140625 -0.5
   vertex -0.5016101989746093 4.47195556640625 -0.5
   vertex -0.21982395935058593 4.49462744140625 0.5
  endloop
 endfacet
 facet normal -0.14262910187244415 0.9897761344909668 0.0
  outer loop
   vertex -0.5016101989746093 4.47195556640625 -0.5
   vertex -0.7814168090820313 4.431634765625 -0.5
   vertex -0.5016101989746093 4.47195556640625 0.5
  endloop
 endfacet
 facet normal -0.14262910187244415 0.9897761344909668 0.0
  outer loop
   vertex -0.5016101989746093 4.47195556640625 0.5
   vertex -0.7814168090820313 4.431634765625 -0.5
   vertex -0.7814168090820313 4.431634765625 0.5
  endloop
 endfacet
 facet normal -0.2044949233531952 0.9788675904273987 0.0
  outer loop
   vertex -0.7814168090820313 4.431634765625 -0.5
   vertex -1.0581395263671876 4.37382470703125 -0.5
   vertex -0.7814168090820313 4.431634765625 0.5
  endloop
 endfacet
 facet normal -0.2044949233531952 0.9788675904273987 0.0
  outer loop
   vertex -0.7814168090820313 4.431634765625 0.5
   vertex -1.0581395263671876 4.37382470703125 -0.5
   vertex -1.0581395263671876 4.37382470703125 0.5
  endloop
 endfacet
 facet normal -0.2655573785305023 0.9640950560569763 0.0
  outer loop
   vertex -1.0581395263671876 4.37382470703125 0.5
   vertex -1.0581395263671876 4.37382470703125 -0.5
   vertex -1.330686279296875 4.29875244140625 0.5
  endloop
 endfacet
 facet normal -0.2655573785305023 0.9640950560569763 0.0
  outer loop
   vertex -1.0581395263671876 4.37382470703125 -0.5
   vertex -1.330686279296875 4.29875244140625 -0.5
   vertex -1.330686279296875 4.29875244140625 0.5
  endloop
 endfacet
 facet normal -0.325568288564682 0.9455184936523438 0.0
  outer loop
   vertex -1.330686279296875 4.29875244140625 0.5
   vertex -1.330686279296875 4.29875244140625 -0.5
   vertex -1.5979813232421876 4.2067153320312505 0.5
  endloop
 endfacet
 facet normal -0.325568288564682 0.9455184936523438 0.0
  outer loop
   vertex -1.330686279296875 4.29875244140625 -0.5
   vertex -1.5979813232421876 4.2067153320312505 -0.5
   vertex -1.5979813232421876 4.2067153320312505 0.5
  endloop
 endfacet
 facet normal -0.3842940628528595 0.9232107400894165 0.0
  outer loop
   vertex -1.5979813232421876 4.2067153320312505 -0.5
   vertex -1.858969970703125 4.09807666015625 -0.5
   vertex -1.5979813232421876 4.2067153320312505 0.5
  endloop
 endfacet
 facet normal -0.3842940628528595 0.9232107400894165 0.0
  outer loop
   vertex -1.5979813232421876 4.2067153320312505 0.5
   vertex -1.858969970703125 4.09807666015625 -0.5
   vertex -1.858969970703125 4.09807666015625 0.5
  endloop
 endfacet
 facet normal -0.44150641560554504 0.8972581028938293 0.0
  outer loop
   vertex -1.858969970703125 4.09807666015625 0.5
   vertex -1.858969970703125 4.09807666015625 -0.5
   vertex -2.1126220703125 3.97326416015625 0.5
  endloop
 endfacet
 facet normal -0.44150641560554504 0.8972581028938293 0.0
  outer loop
   vertex -1.858969970703125 4.09807666015625 -0.5
   vertex -2.1126220703125 3.97326416015625 -0.5
   vertex -2.1126220703125 3.97326416015625 0.5
  endloop
 endfacet
 facet normal -0.49697402119636536 0.867765486240387 0.0
  outer loop
   vertex -2.1126220703125 3.97326416015625 -0.5
   vertex -2.3579365234375 3.832771240234375 -0.5
   vertex -2.1126220703125 3.97326416015625 0.5
  endloop
 endfacet
 facet normal -0.49697402119636536 0.867765486240387 0.0
  outer loop
   vertex -2.1126220703125 3.97326416015625 0.5
   vertex -2.3579365234375 3.832771240234375 -0.5
   vertex -2.3579365234375 3.832771240234375 0.5
  endloop
 endfacet
 facet normal -0.5504807829856873 0.8348478078842163 0.0
  outer loop
   vertex -2.3579365234375 3.832771240234375 0.5
   vertex -2.5939453125000003 3.677152099609375 -0.5
   vertex -2.5939453125000003 3.677152099609375 0.5
  endloop
 endfacet
 facet normal -0.5504807829856873 0.8348478078842163 0.0
  outer loop
   vertex -2.3579365234375 3.832771240234375 -0.5
   vertex -2.5939453125000003 3.677152099609375 -0.5
   vertex -2.3579365234375 3.832771240234375 0.5
  endloop
 endfacet
 facet normal -0.6018153429031372 0.7986353039741516 0.0
  outer loop
   vertex -2.5939453125000003 3.677152099609375 0.5
   vertex -2.5939453125000003 3.677152099609375 -0.5
   vertex -2.819717041015625 3.507020751953125 0.5
  endloop
 endfacet
 facet normal -0.6018153429031372 0.7986353039741516 0.0
  outer loop
   vertex -2.5939453125000003 3.677152099609375 -0.5
   vertex -2.819717041015625 3.507020751953125 -0.5
   vertex -2.819717041015625 3.507020751953125 0.5
  endloop
 endfacet
 facet normal -0.6507735848426819 0.7592718005180359 0.0
  outer loop
   vertex -2.819717041015625 3.507020751953125 0.5
   vertex -3.03436083984375 3.323049072265625 -0.5
   vertex -3.03436083984375 3.323049072265625 0.5
  endloop
 endfacet
 facet normal -0.6971654295921326 0.7169102430343628 0.0
  outer loop
   vertex -3.03436083984375 3.323049072265625 0.5
   vertex -3.03436083984375 3.323049072265625 -0.5
   vertex -3.2370290527343752 3.1259626464843753 0.5
  endloop
 endfacet
 facet normal -0.6507735848426819 0.7592718005180359 0.0
  outer loop
   vertex -2.819717041015625 3.507020751953125 -0.5
   vertex -3.03436083984375 3.323049072265625 -0.5
   vertex -2.819717041015625 3.507020751953125 0.5
  endloop
 endfacet
 facet normal -0.6971654295921326 0.7169102430343628 0.0
  outer loop
   vertex -3.03436083984375 3.323049072265625 -0.5
   vertex -3.2370290527343752 3.1259626464843753 -0.5
   vertex -3.2370290527343752 3.1259626464843753 0.5
  endloop
 endfacet
 facet normal -0.7408044934272766 0.6717206835746765 0.0
  outer loop
   vertex -3.2370290527343752 3.1259626464843753 0.5
   vertex -3.42692236328125 2.91653955078125 -0.5
   vertex -3.42692236328125 2.91653955078125 0.5
  endloop
 endfacet
 facet normal -0.7408044934272766 0.6717206835746765 0.0
  outer loop
   vertex -3.2370290527343752 3.1259626464843753 -0.5
   vertex -3.42692236328125 2.91653955078125 -0.5
   vertex -3.2370290527343752 3.1259626464843753 0.5
  endloop
 endfacet
 facet normal -0.7815203070640564 0.6238798499107361 0.0
  outer loop
   vertex -3.42692236328125 2.91653955078125 0.5
   vertex -3.603291259765625 2.695606201171875 -0.5
   vertex -3.603291259765625 2.695606201171875 0.5
  endloop
 endfacet
 facet normal -0.7815203070640564 0.6238798499107361 0.0
  outer loop
   vertex -3.42692236328125 2.91653955078125 -0.5
   vertex -3.603291259765625 2.695606201171875 -0.5
   vertex -3.42692236328125 2.91653955078125 0.5
  endloop
 endfacet
 facet normal -0.8191522359848022 0.5735761523246765 0.0
  outer loop
   vertex -3.603291259765625 2.695606201171875 0.5
   vertex -3.765439453125 2.464034423828125 -0.5
   vertex -3.765439453125 2.464034423828125 0.5
  endloop
 endfacet
 facet normal -0.8191522359848022 0.5735761523246765 0.0
  outer loop
   vertex -3.603291259765625 2.695606201171875 -0.5
   vertex -3.765439453125 2.464034423828125 -0.5
   vertex -3.603291259765625 2.695606201171875 0.5
  endloop
 endfacet
 facet normal -0.8535506725311279 0.5210097432136536 0.0
  outer loop
   vertex -3.765439453125 2.464034423828125 0.5
   vertex -3.912727294921875 2.22273828125 -0.5
   vertex -3.912727294921875 2.22273828125 0.5
  endloop
 endfacet
 facet normal -0.8845809698104858 0.466386616230011 0.0
  outer loop
   vertex -3.912727294921875 2.22273828125 0.5
   vertex -3.912727294921875 2.22273828125 -0.5
   vertex -4.0445732421875 1.972670166015625 0.5
  endloop
 endfacet
 facet normal -0.8535506725311279 0.5210097432136536 0.0
  outer loop
   vertex -3.765439453125 2.464034423828125 -0.5
   vertex -3.912727294921875 2.22273828125 -0.5
   vertex -3.765439453125 2.464034423828125 0.5
  endloop
 endfacet
 facet normal -0.9121203422546387 0.4099225103855133 0.0
  outer loop
   vertex -4.0445732421875 1.972670166015625 0.5
   vertex -4.0445732421875 1.972670166015625 -0.5
   vertex -4.16045703125 1.714816650390625 0.5
  endloop
 endfacet
 facet normal -0.8845809698104858 0.466386616230011 0.0
  outer loop
   vertex -3.912727294921875 2.22273828125 -0.5
   vertex -4.0445732421875 1.972670166015625 -0.5
   vertex -4.0445732421875 1.972670166015625 0.5
  endloop
 endfacet
 facet normal -0.9121203422546387 0.4099225103855133 0.0
  outer loop
   vertex -4.0445732421875 1.972670166015625 -0.5
   vertex -4.16045703125 1.714816650390625 -0.5
   vertex -4.16045703125 1.714816650390625 0.5
  endloop
 endfacet
 facet normal -0.9360590577125549 0.3518427312374115 0.0
  outer loop
   vertex -4.16045703125 1.714816650390625 0.5
   vertex -4.259921875 1.4501956787109376 -0.5
   vertex -4.259921875 1.4501956787109376 0.5
  endloop
 endfacet
 facet normal -0.9360590577125549 0.3518427312374115 0.0
  outer loop
   vertex -4.16045703125 1.714816650390625 -0.5
   vertex -4.259921875 1.4501956787109376 -0.5
   vertex -4.16045703125 1.714816650390625 0.5
  endloop
 endfacet
 facet normal -0.9563050270080566 0.2923709750175476 0.0
  outer loop
   vertex -4.259921875 1.4501956787109376 0.5
   vertex -4.34257421875 1.179851318359375 -0.5
   vertex -4.34257421875 1.179851318359375 0.5
  endloop
 endfacet
 facet normal -0.9563050270080566 0.2923709750175476 0.0
  outer loop
   vertex -4.259921875 1.4501956787109376 -0.5
   vertex -4.34257421875 1.179851318359375 -0.5
   vertex -4.259921875 1.4501956787109376 0.5
  endloop
 endfacet
 facet normal -0.9727756977081299 0.2317487597465515 0.0
  outer loop
   vertex -4.34257421875 1.179851318359375 0.5
   vertex -4.4080888671875 0.9048506469726563 -0.5
   vertex -4.4080888671875 0.9048506469726563 0.5
  endloop
 endfacet
 facet normal -0.9727756977081299 0.2317487597465515 0.0
  outer loop
   vertex -4.34257421875 1.179851318359375 -0.5
   vertex -4.4080888671875 0.9048506469726563 -0.5
   vertex -4.34257421875 1.179851318359375 0.5
  endloop
 endfacet
 facet normal -0.985407829284668 0.17020943760871887 0.0
  outer loop
   vertex -4.4080888671875 0.9048506469726563 0.5
   vertex -4.45620654296875 0.6262789306640625 -0.5
   vertex -4.45620654296875 0.6262789306640625 0.5
  endloop
 endfacet
 facet normal -0.985407829284668 0.17020943760871887 0.0
  outer loop
   vertex -4.4080888671875 0.9048506469726563 -0.5
   vertex -4.45620654296875 0.6262789306640625 -0.5
   vertex -4.4080888671875 0.9048506469726563 0.5
  endloop
 endfacet
 facet normal -0.9941511154174805 0.10799826681613922 0.0
  outer loop
   vertex -4.45620654296875 0.6262789306640625 0.5
   vertex -4.4867373046875 0.34523562622070314 -0.5
   vertex -4.4867373046875 0.34523562622070314 0.5
  endloop
 endfacet
 facet normal -0.9941511154174805 0.10799826681613922 0.0
  outer loop
   vertex -4.45620654296875 0.6262789306640625 -0.5
   vertex -4.4867373046875 0.34523562622070314 -0.5
   vertex -4.45620654296875 0.6262789306640625 0.5
  endloop
 endfacet
 facet normal -0.9989705085754395 0.04536385461688042 0.0
  outer loop
   vertex -4.4867373046875 0.34523562622070314 0.5
   vertex -4.4995615234375 0.0628298110961914 -0.5
   vertex -4.4995615234375 0.0628298110961914 0.5
  endloop
 endfacet
 facet normal -0.9989705085754395 0.04536385461688042 0.0
  outer loop
   vertex -4.4867373046875 0.34523562622070314 -0.5
   vertex -4.4995615234375 0.0628298110961914 -0.5
   vertex -4.4867373046875 0.34523562622070314 0.5
  endloop
 endfacet
 facet normal -0.9998476505279541 -0.017453616484999657 0.0
  outer loop
   vertex -4.4995615234375 0.0628298110961914 0.5
   vertex -4.49462744140625 -0.21982395935058593 -0.5
   vertex -4.49462744140625 -0.21982395935058593 0.5
  endloop
 endfacet
 facet normal -0.9998476505279541 -0.017453616484999657 0.0
  outer loop
   vertex -4.4995615234375 0.0628298110961914 -0.5
   vertex -4.49462744140625 -0.21982395935058593 -0.5
   vertex -4.4995615234375 0.0628298110961914 0.5
  endloop
 endfacet
 facet normal -0.9967789053916931 -0.08019854128360748 0.0
  outer loop
   vertex -4.49462744140625 -0.21982395935058593 0.5
   vertex -4.47195556640625 -0.5016101989746093 -0.5
   vertex -4.47195556640625 -0.5016101989746093 0.5
  endloop
 endfacet
 facet normal -0.9967789053916931 -0.08019854128360748 0.0
  outer loop
   vertex -4.49462744140625 -0.21982395935058593 -0.5
   vertex -4.47195556640625 -0.5016101989746093 -0.5
   vertex -4.49462744140625 -0.21982395935058593 0.5
  endloop
 endfacet
 facet normal -0.9897761344909668 -0.14262910187244415 0.0
  outer loop
   vertex -4.47195556640625 -0.5016101989746093 -0.5
   vertex -4.431634765625 -0.7814168090820313 -0.5
   vertex -4.47195556640625 -0.5016101989746093 0.5
  endloop
 endfacet
 facet normal -0.9897761344909668 -0.14262910187244415 0.0
  outer loop
   vertex -4.47195556640625 -0.5016101989746093 0.5
   vertex -4.431634765625 -0.7814168090820313 -0.5
   vertex -4.431634765625 -0.7814168090820313 0.5
  endloop
 endfacet
 facet normal -0.9788675904273987 -0.2044949233531952 0.0
  outer loop
   vertex -4.431634765625 -0.7814168090820313 -0.5
   vertex -4.37382470703125 -1.0581395263671876 -0.5
   vertex -4.431634765625 -0.7814168090820313 0.5
  endloop
 endfacet
 facet normal -0.9788675904273987 -0.2044949233531952 0.0
  outer loop
   vertex -4.431634765625 -0.7814168090820313 0.5
   vertex -4.37382470703125 -1.0581395263671876 -0.5
   vertex -4.37382470703125 -1.0581395263671876 0.5
  endloop
 endfacet
 facet normal -0.9640950560569763 -0.2655573785305023 0.0
  outer loop
   vertex -4.37382470703125 -1.0581395263671876 -0.5
   vertex -4.29875244140625 -1.330686279296875 -0.5
   vertex -4.37382470703125 -1.0581395263671876 0.5
  endloop
 endfacet
 facet normal -0.9640950560569763 -0.2655573785305023 0.0
  outer loop
   vertex -4.37382470703125 -1.0581395263671876 0.5
   vertex -4.29875244140625 -1.330686279296875 -0.5
   vertex -4.29875244140625 -1.330686279296875 0.5
  endloop
 endfacet
 facet normal -0.9455184936523438 -0.325568288564682 0.0
  outer loop
   vertex -4.29875244140625 -1.330686279296875 -0.5
   vertex -4.2067153320312505 -1.5979813232421876 -0.5
   vertex -4.29875244140625 -1.330686279296875 0.5
  endloop
 endfacet
 facet normal -0.9455184936523438 -0.325568288564682 0.0
  outer loop
   vertex -4.29875244140625 -1.330686279296875 0.5
   vertex -4.2067153320312505 -1.5979813232421876 -0.5
   vertex -4.2067153320312505 -1.5979813232421876 0.5
  endloop
 endfacet
 facet normal -0.9232107400894165 -0.3842940628528595 -0.0
  outer loop
   vertex -4.2067153320312505 -1.5979813232421876 0.5
   vertex -4.2067153320312505 -1.5979813232421876 -0.5
   vertex -4.09807666015625 -1.858969970703125 0.5
  endloop
 endfacet
 facet normal -0.9232107400894165 -0.3842940628528595 0.0
  outer loop
   vertex -4.2067153320312505 -1.5979813232421876 -0.5
   vertex -4.09807666015625 -1.858969970703125 -0.5
   vertex -4.09807666015625 -1.858969970703125 0.5
  endloop
 endfacet
 facet normal -0.8972581028938293 -0.44150641560554504 0.0
  outer loop
   vertex -4.09807666015625 -1.858969970703125 -0.5
   vertex -3.97326416015625 -2.1126220703125 -0.5
   vertex -4.09807666015625 -1.858969970703125 0.5
  endloop
 endfacet
 facet normal -0.8972581028938293 -0.44150641560554504 0.0
  outer loop
   vertex -4.09807666015625 -1.858969970703125 0.5
   vertex -3.97326416015625 -2.1126220703125 -0.5
   vertex -3.97326416015625 -2.1126220703125 0.5
  endloop
 endfacet
 facet normal -0.867765486240387 -0.49697402119636536 0.0
  outer loop
   vertex -3.97326416015625 -2.1126220703125 -0.5
   vertex -3.832771240234375 -2.3579365234375 -0.5
   vertex -3.97326416015625 -2.1126220703125 0.5
  endloop
 endfacet
 facet normal -0.867765486240387 -0.49697402119636536 0.0
  outer loop
   vertex -3.97326416015625 -2.1126220703125 0.5
   vertex -3.832771240234375 -2.3579365234375 -0.5
   vertex -3.832771240234375 -2.3579365234375 0.5
  endloop
 endfacet
 facet normal -0.8348478078842163 -0.5504807829856873 0.0
  outer loop
   vertex -3.832771240234375 -2.3579365234375 -0.5
   vertex -3.677152099609375 -2.5939453125000003 -0.5
   vertex -3.832771240234375 -2.3579365234375 0.5
  endloop
 endfacet
 facet normal -0.8348478078842163 -0.5504807829856873 0.0
  outer loop
   vertex -3.832771240234375 -2.3579365234375 0.5
   vertex -3.677152099609375 -2.5939453125000003 -0.5
   vertex -3.677152099609375 -2.5939453125000003 0.5
  endloop
 endfacet
 facet normal -0.7986353039741516 -0.6018153429031372 0.0
  outer loop
   vertex -3.677152099609375 -2.5939453125000003 -0.5
   vertex -3.507020751953125 -2.819717041015625 -0.5
   vertex -3.677152099609375 -2.5939453125000003 0.5
  endloop
 endfacet
 facet normal -0.7986353039741516 -0.6018153429031372 0.0
  outer loop
   vertex -3.677152099609375 -2.5939453125000003 0.5
   vertex -3.507020751953125 -2.819717041015625 -0.5
   vertex -3.507020751953125 -2.819717041015625 0.5
  endloop
 endfacet
 facet normal -0.7592718005180359 -0.6507735848426819 0.0
  outer loop
   vertex -3.507020751953125 -2.819717041015625 -0.5
   vertex -3.323049072265625 -3.03436083984375 -0.5
   vertex -3.507020751953125 -2.819717041015625 0.5
  endloop
 endfacet
 facet normal -0.7592718005180359 -0.6507735848426819 0.0
  outer loop
   vertex -3.507020751953125 -2.819717041015625 0.5
   vertex -3.323049072265625 -3.03436083984375 -0.5
   vertex -3.323049072265625 -3.03436083984375 0.5
  endloop
 endfacet
 facet normal -0.7169102430343628 -0.6971654295921326 0.0
  outer loop
   vertex -3.323049072265625 -3.03436083984375 -0.5
   vertex -3.1259626464843753 -3.2370290527343752 -0.5
   vertex -3.323049072265625 -3.03436083984375 0.5
  endloop
 endfacet
 facet normal -0.7169102430343628 -0.6971654295921326 0.0
  outer loop
   vertex -3.323049072265625 -3.03436083984375 0.5
   vertex -3.1259626464843753 -3.2370290527343752 -0.5
   vertex -3.1259626464843753 -3.2370290527343752 0.5
  endloop
 endfacet
 facet normal -0.6717206835746765 -0.7408044934272766 0.0
  outer loop
   vertex -3.1259626464843753 -3.2370290527343752 -0.5
   vertex -2.91653955078125 -3.42692236328125 -0.5
   vertex -3.1259626464843753 -3.2370290527343752 0.5
  endloop
 endfacet
 facet normal -0.6717206835746765 -0.7408044934272766 0.0
  outer loop
   vertex -3.1259626464843753 -3.2370290527343752 0.5
   vertex -2.91653955078125 -3.42692236328125 -0.5
   vertex -2.91653955078125 -3.42692236328125 0.5
  endloop
 endfacet
 facet normal -0.6238798499107361 -0.7815203070640564 0.0
  outer loop
   vertex -2.91653955078125 -3.42692236328125 -0.5
   vertex -2.695606201171875 -3.603291259765625 -0.5
   vertex -2.91653955078125 -3.42692236328125 0.5
  endloop
 endfacet
 facet normal -0.6238798499107361 -0.7815203070640564 0.0
  outer loop
   vertex -2.91653955078125 -3.42692236328125 0.5
   vertex -2.695606201171875 -3.603291259765625 -0.5
   vertex -2.695606201171875 -3.603291259765625 0.5
  endloop
 endfacet
 facet normal -0.5735761523246765 -0.8191522359848022 0.0
  outer loop
   vertex -2.695606201171875 -3.603291259765625 -0.5
   vertex -2.464034423828125 -3.765439453125 -0.5
   vertex -2.695606201171875 -3.603291259765625 0.5
  endloop
 endfacet
 facet normal -0.5735761523246765 -0.8191522359848022 0.0
  outer loop
   vertex -2.695606201171875 -3.603291259765625 0.5
   vertex -2.464034423828125 -3.765439453125 -0.5
   vertex -2.464034423828125 -3.765439453125 0.5
  endloop
 endfacet
 facet normal -0.5210097432136536 -0.8535506725311279 0.0
  outer loop
   vertex -2.464034423828125 -3.765439453125 -0.5
   vertex -2.22273828125 -3.912727294921875 -0.5
   vertex -2.464034423828125 -3.765439453125 0.5
  endloop
 endfacet
 facet normal -0.5210097432136536 -0.8535506725311279 0.0
  outer loop
   vertex -2.464034423828125 -3.765439453125 0.5
   vertex -2.22273828125 -3.912727294921875 -0.5
   vertex -2.22273828125 -3.912727294921875 0.5
  endloop
 endfacet
 facet normal -0.466386616230011 -0.8845809698104858 0.0
  outer loop
   vertex -2.22273828125 -3.912727294921875 -0.5
   vertex -1.972670166015625 -4.0445732421875 -0.5
   vertex -2.22273828125 -3.912727294921875 0.5
  endloop
 endfacet
 facet normal -0.466386616230011 -0.8845809698104858 0.0
  outer loop
   vertex -2.22273828125 -3.912727294921875 0.5
   vertex -1.972670166015625 -4.0445732421875 -0.5
   vertex -1.972670166015625 -4.0445732421875 0.5
  endloop
 endfacet
 facet normal -0.4099225103855133 -0.9121203422546387 0.0
  outer loop
   vertex -1.972670166015625 -4.0445732421875 0.5
   vertex -1.714816650390625 -4.16045703125 -0.5
   vertex -1.714816650390625 -4.16045703125 0.5
  endloop
 endfacet
 facet normal -0.4099225103855133 -0.9121203422546387 0.0
  outer loop
   vertex -1.972670166015625 -4.0445732421875 -0.5
   vertex -1.714816650390625 -4.16045703125 -0.5
   vertex -1.972670166015625 -4.0445732421875 0.5
  endloop
 endfacet
 facet normal -0.3518427312374115 -0.9360590577125549 -0.0
  outer loop
   vertex -1.714816650390625 -4.16045703125 0.5
   vertex -1.714816650390625 -4.16045703125 -0.5
   vertex -1.4501956787109376 -4.259921875 0.5
  endloop
 endfacet
 facet normal -0.3518427312374115 -0.9360590577125549 0.0
  outer loop
   vertex -1.714816650390625 -4.16045703125 -0.5
   vertex -1.4501956787109376 -4.259921875 -0.5
   vertex -1.4501956787109376 -4.259921875 0.5
  endloop
 endfacet
 facet normal -0.2923709750175476 -0.9563050270080566 0.0
  outer loop
   vertex -1.4501956787109376 -4.259921875 0.5
   vertex -1.179851318359375 -4.34257421875 -0.5
   vertex -1.179851318359375 -4.34257421875 0.5
  endloop
 endfacet
 facet normal -0.2923709750175476 -0.9563050270080566 0.0
  outer loop
   vertex -1.4501956787109376 -4.259921875 -0.5
   vertex -1.179851318359375 -4.34257421875 -0.5
   vertex -1.4501956787109376 -4.259921875 0.5
  endloop
 endfacet
 facet normal -0.2317487597465515 -0.9727756977081299 0.0
  outer loop
   vertex -1.179851318359375 -4.34257421875 0.5
   vertex -0.9048506469726563 -4.4080888671875 -0.5
   vertex -0.9048506469726563 -4.4080888671875 0.5
  endloop
 endfacet
 facet normal -0.2317487597465515 -0.9727756977081299 0.0
  outer loop
   vertex -1.179851318359375 -4.34257421875 -0.5
   vertex -0.9048506469726563 -4.4080888671875 -0.5
   vertex -1.179851318359375 -4.34257421875 0.5
  endloop
 endfacet
 facet normal -0.17020943760871887 -0.985407829284668 0.0
  outer loop
   vertex -0.9048506469726563 -4.4080888671875 0.5
   vertex -0.6262789306640625 -4.45620654296875 -0.5
   vertex -0.6262789306640625 -4.45620654296875 0.5
  endloop
 endfacet
 facet normal -0.17020943760871887 -0.985407829284668 0.0
  outer loop
   vertex -0.9048506469726563 -4.4080888671875 -0.5
   vertex -0.6262789306640625 -4.45620654296875 -0.5
   vertex -0.9048506469726563 -4.4080888671875 0.5
  endloop
 endfacet
 facet normal -0.10799826681613922 -0.9941511154174805 0.0
  outer loop
   vertex -0.6262789306640625 -4.45620654296875 0.5
   vertex -0.34523562622070314 -4.4867373046875 -0.5
   vertex -0.34523562622070314 -4.4867373046875 0.5
  endloop
 endfacet
 facet normal -0.10799826681613922 -0.9941511154174805 0.0
  outer loop
   vertex -0.6262789306640625 -4.45620654296875 -0.5
   vertex -0.34523562622070314 -4.4867373046875 -0.5
   vertex -0.6262789306640625 -4.45620654296875 0.5
  endloop
 endfacet
 facet normal -0.04536385461688042 -0.9989705085754395 0.0
  outer loop
   vertex -0.34523562622070314 -4.4867373046875 0.5
   vertex -0.0628298110961914 -4.4995615234375 -0.5
   vertex -0.0628298110961914 -4.4995615234375 0.5
  endloop
 endfacet
 facet normal 0.017453616484999657 -0.9998476505279541 0.0
  outer loop
   vertex -0.0628298110961914 -4.4995615234375 0.5
   vertex -0.0628298110961914 -4.4995615234375 -0.5
   vertex 0.21982395935058593 -4.49462744140625 0.5
  endloop
 endfacet
 facet normal -0.04536385461688042 -0.9989705085754395 0.0
  outer loop
   vertex -0.34523562622070314 -4.4867373046875 -0.5
   vertex -0.0628298110961914 -4.4995615234375 -0.5
   vertex -0.34523562622070314 -4.4867373046875 0.5
  endloop
 endfacet
 facet normal 0.017453616484999657 -0.9998476505279541 0.0
  outer loop
   vertex -0.0628298110961914 -4.4995615234375 -0.5
   vertex 0.21982395935058593 -4.49462744140625 -0.5
   vertex 0.21982395935058593 -4.49462744140625 0.5
  endloop
 endfacet
 facet normal 0.08019854128360748 -0.9967789053916931 0.0
  outer loop
   vertex 0.21982395935058593 -4.49462744140625 0.5
   vertex 0.5016101989746093 -4.47195556640625 -0.5
   vertex 0.5016101989746093 -4.47195556640625 0.5
  endloop
 endfacet
 facet normal 0.08019854128360748 -0.9967789053916931 0.0
  outer loop
   vertex 0.21982395935058593 -4.49462744140625 -0.5
   vertex 0.5016101989746093 -4.47195556640625 -0.5
   vertex 0.21982395935058593 -4.49462744140625 0.5
  endloop
 endfacet
 facet normal 0.14262910187244415 -0.9897761344909668 0.0
  outer loop
   vertex 0.5016101989746093 -4.47195556640625 -0.5
   vertex 0.7814168090820313 -4.431634765625 -0.5
   vertex 0.5016101989746093 -4.47195556640625 0.5
  endloop
 endfacet
 facet normal 0.14262910187244415 -0.9897761344909668 0.0
  outer loop
   vertex 0.5016101989746093 -4.47195556640625 0.5
   vertex 0.7814168090820313 -4.431634765625 -0.5
   vertex 0.7814168090820313 -4.431634765625 0.5
  endloop
 endfacet
 facet normal 0.2044949233531952 -0.9788675904273987 0.0
  outer loop
   vertex 0.7814168090820313 -4.431634765625 -0.5
   vertex 1.0581395263671876 -4.37382470703125 -0.5
   vertex 0.7814168090820313 -4.431634765625 0.5
  endloop
 endfacet
 facet normal 0.2044949233531952 -0.9788675904273987 0.0
  outer loop
   vertex 0.7814168090820313 -4.431634765625 0.5
   vertex 1.0581395263671876 -4.37382470703125 -0.5
   vertex 1.0581395263671876 -4.37382470703125 0.5
  endloop
 endfacet
 facet normal 0.2655573785305023 -0.9640950560569763 0.0
  outer loop
   vertex 1.0581395263671876 -4.37382470703125 -0.5
   vertex 1.330686279296875 -4.29875244140625 -0.5
   vertex 1.0581395263671876 -4.37382470703125 0.5
  endloop
 endfacet
 facet normal 0.2655573785305023 -0.9640950560569763 0.0
  outer loop
   vertex 1.0581395263671876 -4.37382470703125 0.5
   vertex 1.330686279296875 -4.29875244140625 -0.5
   vertex 1.330686279296875 -4.29875244140625 0.5
  endloop
 endfacet
 facet normal 0.325568288564682 -0.9455184936523438 0.0
  outer loop
   vertex 1.330686279296875 -4.29875244140625 -0.5
   vertex 1.5979813232421876 -4.2067153320312505 -0.5
   vertex 1.330686279296875 -4.29875244140625 0.5
  endloop
 endfacet
 facet normal 0.325568288564682 -0.9455184936523438 0.0
  outer loop
   vertex 1.330686279296875 -4.29875244140625 0.5
   vertex 1.5979813232421876 -4.2067153320312505 -0.5
   vertex 1.5979813232421876 -4.2067153320312505 0.5
  endloop
 endfacet
 facet normal 0.3842940628528595 -0.9232107400894165 0.0
  outer loop
   vertex 1.5979813232421876 -4.2067153320312505 -0.5
   vertex 1.858969970703125 -4.09807666015625 -0.5
   vertex 1.5979813232421876 -4.2067153320312505 0.5
  endloop
 endfacet
 facet normal 0.3842940628528595 -0.9232107400894165 0.0
  outer loop
   vertex 1.5979813232421876 -4.2067153320312505 0.5
   vertex 1.858969970703125 -4.09807666015625 -0.5
   vertex 1.858969970703125 -4.09807666015625 0.5
  endloop
 endfacet
 facet normal 0.44150641560554504 -0.8972581028938293 0.0
  outer loop
   vertex 1.858969970703125 -4.09807666015625 -0.5
   vertex 2.1126220703125 -3.97326416015625 -0.5
   vertex 1.858969970703125 -4.09807666015625 0.5
  endloop
 endfacet
 facet normal 0.44150641560554504 -0.8972581028938293 0.0
  outer loop
   vertex 1.858969970703125 -4.09807666015625 0.5
   vertex 2.1126220703125 -3.97326416015625 -0.5
   vertex 2.1126220703125 -3.97326416015625 0.5
  endloop
 endfacet
 facet normal 0.49697402119636536 -0.867765486240387 0.0
  outer loop
   vertex 2.1126220703125 -3.97326416015625 -0.5
   vertex 2.3579365234375 -3.832771240234375 -0.5
   vertex 2.1126220703125 -3.97326416015625 0.5
  endloop
 endfacet
 facet normal 0.49697402119636536 -0.867765486240387 0.0
  outer loop
   vertex 2.1126220703125 -3.97326416015625 0.5
   vertex 2.3579365234375 -3.832771240234375 -0.5
   vertex 2.3579365234375 -3.832771240234375 0.5
  endloop
 endfacet
 facet normal 0.5504807829856873 -0.8348478078842163 0.0
  outer loop
   vertex 2.3579365234375 -3.832771240234375 -0.5
   vertex 2.5939453125000003 -3.677152099609375 -0.5
   vertex 2.3579365234375 -3.832771240234375 0.5
  endloop
 endfacet
 facet normal 0.5504807829856873 -0.8348478078842163 0.0
  outer loop
   vertex 2.3579365234375 -3.832771240234375 0.5
   vertex 2.5939453125000003 -3.677152099609375 -0.5
   vertex 2.5939453125000003 -3.677152099609375 0.5
  endloop
 endfacet
 facet normal 0.6018153429031372 -0.7986353039741516 0.0
  outer loop
   vertex 2.5939453125000003 -3.677152099609375 -0.5
   vertex 2.819717041015625 -3.507020751953125 -0.5
   vertex 2.5939453125000003 -3.677152099609375 0.5
  endloop
 endfacet
 facet normal 0.6018153429031372 -0.7986353039741516 0.0
  outer loop
   vertex 2.5939453125000003 -3.677152099609375 0.5
   vertex 2.819717041015625 -3.507020751953125 -0.5
   vertex 2.819717041015625 -3.507020751953125 0.5
  endloop
 endfacet
 facet normal 0.6507735848426819 -0.7592718005180359 0.0
  outer loop
   vertex 2.819717041015625 -3.507020751953125 -0.5
   vertex 3.03436083984375 -3.323049072265625 -0.5
   vertex 2.819717041015625 -3.507020751953125 0.5
  endloop
 endfacet
 facet normal 0.6507735848426819 -0.7592718005180359 0.0
  outer loop
   vertex 2.819717041015625 -3.507020751953125 0.5
   vertex 3.03436083984375 -3.323049072265625 -0.5
   vertex 3.03436083984375 -3.323049072265625 0.5
  endloop
 endfacet
 facet normal 0.6971654295921326 -0.7169102430343628 0.0
  outer loop
   vertex 3.03436083984375 -3.323049072265625 -0.5
   vertex 3.2370290527343752 -3.1259626464843753 -0.5
   vertex 3.03436083984375 -3.323049072265625 0.5
  endloop
 endfacet
 facet normal 0.6971654295921326 -0.7169102430343628 0.0
  outer loop
   vertex 3.03436083984375 -3.323049072265625 0.5
   vertex 3.2370290527343752 -3.1259626464843753 -0.5
   vertex 3.2370290527343752 -3.1259626464843753 0.5
  endloop
 endfacet
 facet normal 0.7408044934272766 -0.6717206835746765 0.0
  outer loop
   vertex 3.2370290527343752 -3.1259626464843753 -0.5
   vertex 3.42692236328125 -2.91653955078125 -0.5
   vertex 3.2370290527343752 -3.1259626464843753 0.5
  endloop
 endfacet
 facet normal 0.7408044934272766 -0.6717206835746765 0.0
  outer loop
   vertex 3.2370290527343752 -3.1259626464843753 0.5
   vertex 3.42692236328125 -2.91653955078125 -0.5
   vertex 3.42692236328125 -2.91653955078125 0.5
  endloop
 endfacet
 facet normal 0.7815203070640564 -0.6238798499107361 0.0
  outer loop
   vertex 3.42692236328125 -2.91653955078125 -0.5
   vertex 3.603291259765625 -2.695606201171875 -0.5
   vertex 3.42692236328125 -2.91653955078125 0.5
  endloop
 endfacet
 facet normal 0.7815203070640564 -0.6238798499107361 0.0
  outer loop
   vertex 3.42692236328125 -2.91653955078125 0.5
   vertex 3.603291259765625 -2.695606201171875 -0.5
   vertex 3.603291259765625 -2.695606201171875 0.5
  endloop
 endfacet
 facet normal 0.8191522359848022 -0.5735761523246765 0.0
  outer loop
   vertex 3.603291259765625 -2.695606201171875 -0.5
   vertex 3.765439453125 -2.464034423828125 -0.5
   vertex 3.603291259765625 -2.695606201171875 0.5
  endloop
 endfacet
 facet normal 0.8191522359848022 -0.5735761523246765 0.0
  outer loop
   vertex 3.603291259765625 -2.695606201171875 0.5
   vertex 3.765439453125 -2.464034423828125 -0.5
   vertex 3.765439453125 -2.464034423828125 0.5
  endloop
 endfacet
 facet normal 0.8535506725311279 -0.5210097432136536 0.0
  outer loop
   vertex 3.765439453125 -2.464034423828125 -0.5
   vertex 3.912727294921875 -2.22273828125 -0.5
   vertex 3.765439453125 -2.464034423828125 0.5
  endloop
 endfacet
 facet normal 0.8535506725311279 -0.5210097432136536 0.0
  outer loop
   vertex 3.765439453125 -2.464034423828125 0.5
   vertex 3.912727294921875 -2.22273828125 -0.5
   vertex 3.912727294921875 -2.22273828125 0.5
  endloop
 endfacet
 facet normal 0.8845809698104858 -0.466386616230011 0.0
  outer loop
   vertex 3.912727294921875 -2.22273828125 -0.5
   vertex 4.0445732421875 -1.972670166015625 -0.5
   vertex 3.912727294921875 -2.22273828125 0.5
  endloop
 endfacet
 facet normal 0.8845809698104858 -0.466386616230011 0.0
  outer loop
   vertex 3.912727294921875 -2.22273828125 0.5
   vertex 4.0445732421875 -1.972670166015625 -0.5
   vertex 4.0445732421875 -1.972670166015625 0.5
  endloop
 endfacet
 facet normal 0.9121203422546387 -0.4099225103855133 0.0
  outer loop
   vertex 4.0445732421875 -1.972670166015625 -0.5
   vertex 4.16045703125 -1.714816650390625 -0.5
   vertex 4.0445732421875 -1.972670166015625 0.5
  endloop
 endfacet
 facet normal 0.9121203422546387 -0.4099225103855133 0.0
  outer loop
   vertex 4.0445732421875 -1.972670166015625 0.5
   vertex 4.16045703125 -1.714816650390625 -0.5
   vertex 4.16045703125 -1.714816650390625 0.5
  endloop
 endfacet
 facet normal 0.9360590577125549 -0.3518427312374115 0.0
  outer loop
   vertex 4.16045703125 -1.714816650390625 -0.5
   vertex 4.259921875 -1.4501956787109376 -0.5
   vertex 4.16045703125 -1.714816650390625 0.5
  endloop
 endfacet
 facet normal 0.9360590577125549 -0.3518427312374115 0.0
  outer loop
   vertex 4.16045703125 -1.714816650390625 0.5
   vertex 4.259921875 -1.4501956787109376 -0.5
   vertex 4.259921875 -1.4501956787109376 0.5
  endloop
 endfacet
 facet normal 0.9563050270080566 -0.2923709750175476 0.0
  outer loop
   vertex 4.259921875 -1.4501956787109376 -0.5
   vertex 4.34257421875 -1.179851318359375 -0.5
   vertex 4.259921875 -1.4501956787109376 0.5
  endloop
 endfacet
 facet normal 0.9563050270080566 -0.2923709750175476 0.0
  outer loop
   vertex 4.259921875 -1.4501956787109376 0.5
   vertex 4.34257421875 -1.179851318359375 -0.5
   vertex 4.34257421875 -1.179851318359375 0.5
  endloop
 endfacet
 facet normal 0.9727756977081299 -0.2317487597465515 0.0
  outer loop
   vertex 4.34257421875 -1.179851318359375 -0.5
   vertex 4.4080888671875 -0.9048506469726563 -0.5
   vertex 4.34257421875 -1.179851318359375 0.5
  endloop
 endfacet
 facet normal 0.9727756977081299 -0.2317487597465515 0.0
  outer loop
   vertex 4.34257421875 -1.179851318359375 0.5
   vertex 4.4080888671875 -0.9048506469726563 -0.5
   vertex 4.4080888671875 -0.9048506469726563 0.5
  endloop
 endfacet
 facet normal 0.985407829284668 -0.17020943760871887 0.0
  outer loop
   vertex 4.4080888671875 -0.9048506469726563 -0.5
   vertex 4.45620654296875 -0.6262789306640625 -0.5
   vertex 4.4080888671875 -0.9048506469726563 0.5
  endloop
 endfacet
 facet normal 0.985407829284668 -0.17020943760871887 0.0
  outer loop
   vertex 4.4080888671875 -0.9048506469726563 0.5
   vertex 4.45620654296875 -0.6262789306640625 -0.5
   vertex 4.45620654296875 -0.6262789306640625 0.5
  endloop
 endfacet
 facet normal 0.9941511154174805 -0.10799826681613922 0.0
  outer loop
   vertex 4.45620654296875 -0.6262789306640625 -0.5
   vertex 4.4867373046875 -0.34523562622070314 -0.5
   vertex 4.45620654296875 -0.6262789306640625 0.5
  endloop
 endfacet
 facet normal 0.9941511154174805 -0.10799826681613922 0.0
  outer loop
   vertex 4.45620654296875 -0.6262789306640625 0.5
   vertex 4.4867373046875 -0.34523562622070314 -0.5
   vertex 4.4867373046875 -0.34523562622070314 0.5
  endloop
 endfacet
 facet normal 0.9989705085754395 -0.04536385461688042 0.0
  outer loop
   vertex 4.4867373046875 -0.34523562622070314 -0.5
   vertex 4.4995615234375 -0.0628298110961914 -0.5
   vertex 4.4867373046875 -0.34523562622070314 0.5
  endloop
 endfacet
 facet normal 0.9989705085754395 -0.04536385461688042 0.0
  outer loop
   vertex 4.4867373046875 -0.34523562622070314 0.5
   vertex 4.4995615234375 -0.0628298110961914 -0.5
   vertex 4.4995615234375 -0.0628298110961914 0.5
  endloop
 endfacet
 facet normal 0.9998476505279541 0.017453616484999657 -0.0
  outer loop
   vertex 4.4995615234375 -0.0628298110961914 -0.5
   vertex 4.49462744140625 0.21982395935058593 -0.5
   vertex 4.4995615234375 -0.0628298110961914 0.5
  endloop
 endfacet
 facet normal 0.9998476505279541 0.017453616484999657 0.0
  outer loop
   vertex 4.4995615234375 -0.0628298110961914 0.5
   vertex 4.49462744140625 0.21982395935058593 -0.5
   vertex 4.49462744140625 0.21982395935058593 0.5
  endloop
 endfacet
 facet normal 0.9897761344909668 0.14262910187244415 0.0
  outer loop
   vertex 4.47195556640625 0.5016101989746093 0.5
   vertex 4.47195556640625 0.5016101989746093 -0.5
   vertex 4.431634765625 0.7814168090820313 0.5
  endloop
 endfacet
 facet normal 0.9967789053916931 0.08019854128360748 -0.0
  outer loop
   vertex 4.49462744140625 0.21982395935058593 -0.5
   vertex 4.47195556640625 0.5016101989746093 -0.5
   vertex 4.49462744140625 0.21982395935058593 0.5
  endloop
 endfacet
 facet normal 0.9967789053916931 0.08019854128360748 0.0
  outer loop
   vertex 4.49462744140625 0.21982395935058593 0.5
   vertex 4.47195556640625 0.5016101989746093 -0.5
   vertex 4.47195556640625 0.5016101989746093 0.5
  endloop
 endfacet
 facet normal 0.9897761344909668 0.14262910187244415 0.0
  outer loop
   vertex 4.47195556640625 0.5016101989746093 -0.5
   vertex 4.431634765625 0.7814168090820313 -0.5
   vertex 4.431634765625 0.7814168090820313 0.5
  endloop
 endfacet
endsolid patch_2_0
