solid patch_1_1
 facet normal 0.9848077297210693 0.1736481785774231 0.0
  outer loop
   vertex 0.22550221252441408 -3.006517822265625 -0.5
   vertex -0.8163868408203125 2.902328857421875 -0.5
   vertex -0.8163868408203125 2.902328857421875 0.5
  endloop
 endfacet
 facet normal 0.9848077297210693 0.1736481785774231 -0.0
  outer loop
   vertex 0.22550221252441408 -3.006517822265625 -0.5
   vertex -0.8163868408203125 2.902328857421875 0.5
   vertex 0.22550221252441408 -3.006517822265625 0.5
  endloop
 endfacet
 facet normal -0.17364828288555145 0.9848077297210693 0.0
  outer loop
   vertex 0.8163868408203125 -2.902328857421875 0.5
   vertex 0.8163868408203125 -2.902328857421875 -0.5
   vertex 0.22550221252441408 -3.006517822265625 0.5
  endloop
 endfacet
 facet normal -0.17364828288555145 0.9848077297210693 0.0
  outer loop
   vertex 0.8163868408203125 -2.902328857421875 -0.5
   vertex 0.22550221252441408 -3.006517822265625 -0.5
   vertex 0.22550221252441408 -3.006517822265625 0.5
  endloop
 endfacet
 facet normal -0.9848077297210693 -0.1736481785774231 0.0
  outer loop
   vertex -0.22550221252441408 3.006517822265625 -0.5
   vertex 0.8163868408203125 -2.902328857421875 -0.5
   vertex -0.22550221252441408 3.006517822265625 0.5
  endloop
 endfacet
 facet normal -0.9848077297210693 -0.1736481785774231 0.0
  outer loop
   vertex -0.22550221252441408 3.006517822265625 0.5
   vertex 0.8163868408203125 -2.902328857421875 -0.5
   vertex 0.8163868408203125 -2.902328857421875 0.5
  endloop
 endfacet
 facet normal 0.17364828288555145 -0.9848077297210693 0.0
  outer loop
   vertex -0.8163868408203125 2.902328857421875 0.5
   vertex -0.8163868408203125 2.902328857421875 -0.5
   vertex -0.22550221252441408 3.006517822265625 0.5
  endloop
 endfacet
 facet normal 0.17364828288555145 -0.9848077297210693 0.0
  outer loop
   vertex -0.8163868408203125 2.902328857421875 -0.5
   vertex -0.22550221252441408 3.006517822265625 -0.5
   vertex -0.22550221252441408 3.006517822265625 0.5
  endloop
 endfacet
endsolid patch_1_1
