solid MeshRefinement
 facet normal 0.0 -1.0 -0.0
  outer loop
   vertex -0.24270509338378907 3.0 0.1763355712890625
   vertex -0.2628919982910156 3.0 0.14452610778808594
   vertex -0.21869058227539062 3.0 0.2053641357421875
  endloop
 endfacet
 facet normal 0.0 -1.0 -0.0
  outer loop
   vertex -0.2789329528808594 3.0 0.11043736267089845
   vertex -0.290574951171875 3.0 0.07460696411132813
   vertex -0.2628919982910156 3.0 0.14452610778808594
  endloop
 endfacet
 facet normal 0.0 -1.0 0.0
  outer loop
   vertex -0.16074803161621093 3.0 0.25329837036132813
   vertex -0.056214393615722655 3.0 0.2946861877441406
   vertex -0.1277337875366211 3.0 0.2714481201171875
  endloop
 endfacet
 facet normal 0.0 -1.0 0.0
  outer loop
   vertex -0.1277337875366211 3.0 0.2714481201171875
   vertex -0.056214393615722655 3.0 0.2946861877441406
   vertex -0.09270510101318359 3.0 0.28531695556640624
  endloop
 endfacet
 facet normal 0.0 -1.0 0.0
  outer loop
   vertex -0.21869058227539062 3.0 0.2053641357421875
   vertex -0.018837156295776366 3.0 0.29940802001953126
   vertex -0.19122720336914062 3.0 0.2311539764404297
  endloop
 endfacet
 facet normal 0.0 -1.0 0.0
  outer loop
   vertex -0.19122720336914062 3.0 0.2311539764404297
   vertex -0.018837156295776366 3.0 0.29940802001953126
   vertex -0.16074803161621093 3.0 0.25329837036132813
  endloop
 endfacet
 facet normal 0.0 -1.0 0.0
  outer loop
   vertex -0.2628919982910156 3.0 0.14452610778808594
   vertex -0.018837156295776366 3.0 0.29940802001953126
   vertex -0.21869058227539062 3.0 0.2053641357421875
  endloop
 endfacet
 facet normal 0.0 -1.0 0.0
  outer loop
   vertex -0.16074803161621093 3.0 0.25329837036132813
   vertex -0.018837156295776366 3.0 0.29940802001953126
   vertex -0.056214393615722655 3.0 0.2946861877441406
  endloop
 endfacet
 facet normal 0.0 -1.0 0.0
  outer loop
   vertex -0.2976343994140625 3.0 -0.037599971771240234
   vertex -0.290574951171875 3.0 -0.07460696411132813
   vertex -0.3 3.0 1.6952085351781832e-15
  endloop
 endfacet
 facet normal 0.0 -1.0 0.0
  outer loop
   vertex -0.3 3.0 1.6952085351781832e-15
   vertex -0.290574951171875 3.0 -0.07460696411132813
   vertex -0.2976343994140625 3.0 0.037599971771240234
  endloop
 endfacet
 facet normal 0.0 -1.0 0.0
  outer loop
   vertex -0.018837156295776366 3.0 0.29940802001953126
   vertex 0.09270510101318359 3.0 0.28531695556640624
   vertex 0.018837156295776366 3.0 0.29940802001953126
  endloop
 endfacet
 facet normal 0.0 -1.0 0.0
  outer loop
   vertex 0.018837156295776366 3.0 0.29940802001953126
   vertex 0.09270510101318359 3.0 0.28531695556640624
   vertex 0.056214393615722655 3.0 0.2946861877441406
  endloop
 endfacet
 facet normal 0.0 -1.0 0.0
  outer loop
   vertex -0.2789329528808594 3.0 -0.11043736267089845
   vertex -0.2628919982910156 3.0 -0.14452610778808594
   vertex -0.290574951171875 3.0 -0.07460696411132813
  endloop
 endfacet
 facet normal 0.0 -1.0 0.0
  outer loop
   vertex -0.2976343994140625 3.0 0.037599971771240234
   vertex -0.2628919982910156 3.0 -0.14452610778808594
   vertex -0.290574951171875 3.0 0.07460696411132813
  endloop
 endfacet
 facet normal 0.0 -1.0 0.0
  outer loop
   vertex -0.290574951171875 3.0 0.07460696411132813
   vertex -0.2628919982910156 3.0 -0.14452610778808594
   vertex -0.2628919982910156 3.0 0.14452610778808594
  endloop
 endfacet
 facet normal 0.0 -1.0 0.0
  outer loop
   vertex -0.290574951171875 3.0 -0.07460696411132813
   vertex -0.2628919982910156 3.0 -0.14452610778808594
   vertex -0.2976343994140625 3.0 0.037599971771240234
  endloop
 endfacet
 facet normal 0.0 -1.0 0.0
  outer loop
   vertex 0.09270510101318359 3.0 0.28531695556640624
   vertex 0.16074803161621093 3.0 0.25329837036132813
   vertex 0.1277337875366211 3.0 0.2714481201171875
  endloop
 endfacet
 facet normal 0.0 -1.0 0.0
  outer loop
   vertex -0.16074803161621093 3.0 -0.25329837036132813
   vertex -0.1277337875366211 3.0 -0.2714481201171875
   vertex -0.19122720336914062 3.0 -0.2311539764404297
  endloop
 endfacet
 facet normal 0.0 -1.0 0.0
  outer loop
   vertex -0.19122720336914062 3.0 -0.2311539764404297
   vertex -0.1277337875366211 3.0 -0.2714481201171875
   vertex -0.21869058227539062 3.0 -0.2053641357421875
  endloop
 endfacet
 facet normal 0.0 -1.0 0.0
  outer loop
   vertex 0.16074803161621093 3.0 0.25329837036132813
   vertex 0.3 3.0 1.40574639602431e-15
   vertex 0.19122720336914062 3.0 0.2311539764404297
  endloop
 endfacet
 facet normal 0.0 -1.0 0.0
  outer loop
   vertex 0.19122720336914062 3.0 0.2311539764404297
   vertex 0.3 3.0 1.40574639602431e-15
   vertex 0.21869058227539062 3.0 0.2053641357421875
  endloop
 endfacet
 facet normal 0.0 -1.0 0.0
  outer loop
   vertex 0.21869058227539062 3.0 0.2053641357421875
   vertex 0.3 3.0 1.40574639602431e-15
   vertex 0.24270509338378907 3.0 0.1763355712890625
  endloop
 endfacet
 facet normal 0.0 -1.0 0.0
  outer loop
   vertex 0.24270509338378907 3.0 0.1763355712890625
   vertex 0.3 3.0 1.40574639602431e-15
   vertex 0.2628919982910156 3.0 0.14452610778808594
  endloop
 endfacet
 facet normal 0.0 -1.0 0.0
  outer loop
   vertex 0.2628919982910156 3.0 0.14452610778808594
   vertex 0.3 3.0 1.40574639602431e-15
   vertex 0.2789329528808594 3.0 0.11043736267089845
  endloop
 endfacet
 facet normal 0.0 -1.0 0.0
  outer loop
   vertex 0.2789329528808594 3.0 0.11043736267089845
   vertex 0.3 3.0 1.40574639602431e-15
   vertex 0.290574951171875 3.0 0.07460696411132813
  endloop
 endfacet
 facet normal 0.0 -1.0 0.0
  outer loop
   vertex 0.290574951171875 3.0 0.07460696411132813
   vertex 0.3 3.0 1.40574639602431e-15
   vertex 0.2976343994140625 3.0 0.037599971771240234
  endloop
 endfacet
 facet normal 0.0 -1.0 0.0
  outer loop
   vertex -0.018837156295776366 3.0 -0.29940802001953126
   vertex 0.018837156295776366 3.0 -0.29940802001953126
   vertex -0.056214393615722655 3.0 -0.2946861877441406
  endloop
 endfacet
 facet normal 0.0 -1.0 0.0
  outer loop
   vertex 0.16074803161621093 3.0 0.25329837036132813
   vertex 0.2976343994140625 3.0 -0.037599971771240234
   vertex 0.3 3.0 1.40574639602431e-15
  endloop
 endfacet
 facet normal -0.0 -1.0 0.0
  outer loop
   vertex 0.056214393615722655 3.0 -0.2946861877441406
   vertex 0.09270510101318359 3.0 -0.28531695556640624
   vertex 0.018837156295776366 3.0 -0.29940802001953126
  endloop
 endfacet
 facet normal 0.0 -1.0 0.0
  outer loop
   vertex 0.018837156295776366 3.0 -0.29940802001953126
   vertex 0.09270510101318359 3.0 -0.28531695556640624
   vertex -0.056214393615722655 3.0 -0.2946861877441406
  endloop
 endfacet
 facet normal 0.0 -1.0 0.0
  outer loop
   vertex -0.1277337875366211 3.0 -0.2714481201171875
   vertex 0.09270510101318359 3.0 -0.28531695556640624
   vertex -0.21869058227539062 3.0 -0.2053641357421875
  endloop
 endfacet
 facet normal 0.0 -1.0 0.0
  outer loop
   vertex -0.056214393615722655 3.0 -0.2946861877441406
   vertex 0.09270510101318359 3.0 -0.28531695556640624
   vertex -0.09270510101318359 3.0 -0.28531695556640624
  endloop
 endfacet
 facet normal 0.0 -1.0 0.0
  outer loop
   vertex -0.09270510101318359 3.0 -0.28531695556640624
   vertex 0.09270510101318359 3.0 -0.28531695556640624
   vertex -0.1277337875366211 3.0 -0.2714481201171875
  endloop
 endfacet
 facet normal 0.0 -1.0 0.0
  outer loop
   vertex -0.21869058227539062 3.0 -0.2053641357421875
   vertex 0.09270510101318359 3.0 -0.28531695556640624
   vertex -0.24270509338378907 3.0 -0.1763355712890625
  endloop
 endfacet
 facet normal 0.0 -1.0 0.0
  outer loop
   vertex -0.24270509338378907 3.0 -0.1763355712890625
   vertex 0.09270510101318359 3.0 -0.28531695556640624
   vertex -0.2628919982910156 3.0 -0.14452610778808594
  endloop
 endfacet
 facet normal 0.0 -1.0 0.0
  outer loop
   vertex -0.2628919982910156 3.0 0.14452610778808594
   vertex 0.09270510101318359 3.0 -0.28531695556640624
   vertex -0.018837156295776366 3.0 0.29940802001953126
  endloop
 endfacet
 facet normal 0.0 -1.0 0.0
  outer loop
   vertex -0.018837156295776366 3.0 0.29940802001953126
   vertex 0.09270510101318359 3.0 -0.28531695556640624
   vertex 0.09270510101318359 3.0 0.28531695556640624
  endloop
 endfacet
 facet normal 0.0 -1.0 0.0
  outer loop
   vertex -0.2628919982910156 3.0 -0.14452610778808594
   vertex 0.09270510101318359 3.0 -0.28531695556640624
   vertex -0.2628919982910156 3.0 0.14452610778808594
  endloop
 endfacet
 facet normal 0.0 -1.0 0.0
  outer loop
   vertex 0.2976343994140625 3.0 -0.037599971771240234
   vertex 0.2789329528808594 3.0 -0.11043736267089845
   vertex 0.290574951171875 3.0 -0.07460696411132813
  endloop
 endfacet
 facet normal -0.0 -1.0 0.0
  outer loop
   vertex 0.1277337875366211 3.0 -0.2714481201171875
   vertex 0.16074803161621093 3.0 -0.25329837036132813
   vertex 0.09270510101318359 3.0 -0.28531695556640624
  endloop
 endfacet
 facet normal 0.0 -1.0 0.0
  outer loop
   vertex 0.2789329528808594 3.0 -0.11043736267089845
   vertex 0.24270509338378907 3.0 -0.1763355712890625
   vertex 0.2628919982910156 3.0 -0.14452610778808594
  endloop
 endfacet
 facet normal 0.0 -1.0 0.0
  outer loop
   vertex 0.2976343994140625 3.0 -0.037599971771240234
   vertex 0.24270509338378907 3.0 -0.1763355712890625
   vertex 0.2789329528808594 3.0 -0.11043736267089845
  endloop
 endfacet
 facet normal -0.0 -1.0 0.0
  outer loop
   vertex 0.16074803161621093 3.0 -0.25329837036132813
   vertex 0.19122720336914062 3.0 -0.2311539764404297
   vertex 0.09270510101318359 3.0 -0.28531695556640624
  endloop
 endfacet
 facet normal 0.0 -1.0 0.0
  outer loop
   vertex 0.16074803161621093 3.0 0.25329837036132813
   vertex 0.21869058227539062 3.0 -0.2053641357421875
   vertex 0.2976343994140625 3.0 -0.037599971771240234
  endloop
 endfacet
 facet normal 0.0 -1.0 0.0
  outer loop
   vertex 0.09270510101318359 3.0 -0.28531695556640624
   vertex 0.21869058227539062 3.0 -0.2053641357421875
   vertex 0.09270510101318359 3.0 0.28531695556640624
  endloop
 endfacet
 facet normal 0.0 -1.0 0.0
  outer loop
   vertex 0.2976343994140625 3.0 -0.037599971771240234
   vertex 0.21869058227539062 3.0 -0.2053641357421875
   vertex 0.24270509338378907 3.0 -0.1763355712890625
  endloop
 endfacet
 facet normal -0.0 -1.0 0.0
  outer loop
   vertex 0.19122720336914062 3.0 -0.2311539764404297
   vertex 0.21869058227539062 3.0 -0.2053641357421875
   vertex 0.09270510101318359 3.0 -0.28531695556640624
  endloop
 endfacet
 facet normal 0.0 -1.0 0.0
  outer loop
   vertex 0.09270510101318359 3.0 0.28531695556640624
   vertex 0.21869058227539062 3.0 -0.2053641357421875
   vertex 0.16074803161621093 3.0 0.25329837036132813
  endloop
 endfacet
 facet normal 0.0 1.0 0.0
  outer loop
   vertex -0.2628919982910156 -3.0 0.14452610778808594
   vertex -0.24270509338378907 -3.0 0.1763355712890625
   vertex -0.21869058227539062 -3.0 0.2053641357421875
  endloop
 endfacet
 facet normal 0.0 1.0 0.0
  outer loop
   vertex -0.290574951171875 -3.0 0.07460696411132813
   vertex -0.2789329528808594 -3.0 0.11043736267089845
   vertex -0.2628919982910156 -3.0 0.14452610778808594
  endloop
 endfacet
 facet normal 0.0 1.0 0.0
  outer loop
   vertex -0.056214393615722655 -3.0 0.2946861877441406
   vertex -0.16074803161621093 -3.0 0.25329837036132813
   vertex -0.1277337875366211 -3.0 0.2714481201171875
  endloop
 endfacet
 facet normal 0.0 1.0 0.0
  outer loop
   vertex -0.056214393615722655 -3.0 0.2946861877441406
   vertex -0.1277337875366211 -3.0 0.2714481201171875
   vertex -0.09270510101318359 -3.0 0.28531695556640624
  endloop
 endfacet
 facet normal 0.0 1.0 0.0
  outer loop
   vertex -0.018837156295776366 -3.0 0.29940802001953126
   vertex -0.21869058227539062 -3.0 0.2053641357421875
   vertex -0.19122720336914062 -3.0 0.2311539764404297
  endloop
 endfacet
 facet normal 0.0 1.0 0.0
  outer loop
   vertex -0.018837156295776366 -3.0 0.29940802001953126
   vertex -0.19122720336914062 -3.0 0.2311539764404297
   vertex -0.16074803161621093 -3.0 0.25329837036132813
  endloop
 endfacet
 facet normal 0.0 1.0 0.0
  outer loop
   vertex -0.018837156295776366 -3.0 0.29940802001953126
   vertex -0.2628919982910156 -3.0 0.14452610778808594
   vertex -0.21869058227539062 -3.0 0.2053641357421875
  endloop
 endfacet
 facet normal 0.0 1.0 0.0
  outer loop
   vertex -0.018837156295776366 -3.0 0.29940802001953126
   vertex -0.16074803161621093 -3.0 0.25329837036132813
   vertex -0.056214393615722655 -3.0 0.2946861877441406
  endloop
 endfacet
 facet normal 0.0 1.0 0.0
  outer loop
   vertex -0.290574951171875 -3.0 -0.07460696411132813
   vertex -0.2976343994140625 -3.0 -0.037599971771240234
   vertex -0.3 -3.0 3.62940878522941e-16
  endloop
 endfacet
 facet normal 0.0 1.0 0.0
  outer loop
   vertex -0.290574951171875 -3.0 -0.07460696411132813
   vertex -0.3 -3.0 3.62940878522941e-16
   vertex -0.2976343994140625 -3.0 0.037599971771240234
  endloop
 endfacet
 facet normal 0.0 1.0 0.0
  outer loop
   vertex 0.09270510101318359 -3.0 0.28531695556640624
   vertex -0.018837156295776366 -3.0 0.29940802001953126
   vertex 0.018837156295776366 -3.0 0.29940802001953126
  endloop
 endfacet
 facet normal 0.0 1.0 0.0
  outer loop
   vertex 0.09270510101318359 -3.0 0.28531695556640624
   vertex 0.018837156295776366 -3.0 0.29940802001953126
   vertex 0.056214393615722655 -3.0 0.2946861877441406
  endloop
 endfacet
 facet normal 0.0 1.0 0.0
  outer loop
   vertex -0.2628919982910156 -3.0 -0.14452610778808594
   vertex -0.2789329528808594 -3.0 -0.11043736267089845
   vertex -0.290574951171875 -3.0 -0.07460696411132813
  endloop
 endfacet
 facet normal 0.0 1.0 0.0
  outer loop
   vertex -0.2628919982910156 -3.0 -0.14452610778808594
   vertex -0.2976343994140625 -3.0 0.037599971771240234
   vertex -0.290574951171875 -3.0 0.07460696411132813
  endloop
 endfacet
 facet normal 0.0 1.0 -0.0
  outer loop
   vertex -0.2628919982910156 -3.0 -0.14452610778808594
   vertex -0.290574951171875 -3.0 0.07460696411132813
   vertex -0.2628919982910156 -3.0 0.14452610778808594
  endloop
 endfacet
 facet normal 0.0 1.0 0.0
  outer loop
   vertex -0.2628919982910156 -3.0 -0.14452610778808594
   vertex -0.290574951171875 -3.0 -0.07460696411132813
   vertex -0.2976343994140625 -3.0 0.037599971771240234
  endloop
 endfacet
 facet normal 0.0 1.0 0.0
  outer loop
   vertex 0.16074803161621093 -3.0 0.25329837036132813
   vertex 0.09270510101318359 -3.0 0.28531695556640624
   vertex 0.1277337875366211 -3.0 0.2714481201171875
  endloop
 endfacet
 facet normal 0.0 1.0 0.0
  outer loop
   vertex -0.1277337875366211 -3.0 -0.2714481201171875
   vertex -0.16074803161621093 -3.0 -0.25329837036132813
   vertex -0.19122720336914062 -3.0 -0.2311539764404297
  endloop
 endfacet
 facet normal 0.0 1.0 0.0
  outer loop
   vertex -0.1277337875366211 -3.0 -0.2714481201171875
   vertex -0.19122720336914062 -3.0 -0.2311539764404297
   vertex -0.21869058227539062 -3.0 -0.2053641357421875
  endloop
 endfacet
 facet normal 0.0 1.0 0.0
  outer loop
   vertex 0.3 -3.0 7.347880713170358e-17
   vertex 0.16074803161621093 -3.0 0.25329837036132813
   vertex 0.19122720336914062 -3.0 0.2311539764404297
  endloop
 endfacet
 facet normal 0.0 1.0 0.0
  outer loop
   vertex 0.3 -3.0 7.347880713170358e-17
   vertex 0.19122720336914062 -3.0 0.2311539764404297
   vertex 0.21869058227539062 -3.0 0.2053641357421875
  endloop
 endfacet
 facet normal 0.0 1.0 0.0
  outer loop
   vertex 0.3 -3.0 7.347880713170358e-17
   vertex 0.21869058227539062 -3.0 0.2053641357421875
   vertex 0.24270509338378907 -3.0 0.1763355712890625
  endloop
 endfacet
 facet normal 0.0 1.0 0.0
  outer loop
   vertex 0.3 -3.0 7.347880713170358e-17
   vertex 0.24270509338378907 -3.0 0.1763355712890625
   vertex 0.2628919982910156 -3.0 0.14452610778808594
  endloop
 endfacet
 facet normal 0.0 1.0 0.0
  outer loop
   vertex 0.3 -3.0 7.347880713170358e-17
   vertex 0.2628919982910156 -3.0 0.14452610778808594
   vertex 0.2789329528808594 -3.0 0.11043736267089845
  endloop
 endfacet
 facet normal 0.0 1.0 0.0
  outer loop
   vertex 0.3 -3.0 7.347880713170358e-17
   vertex 0.2789329528808594 -3.0 0.11043736267089845
   vertex 0.290574951171875 -3.0 0.07460696411132813
  endloop
 endfacet
 facet normal 0.0 1.0 0.0
  outer loop
   vertex 0.3 -3.0 7.347880713170358e-17
   vertex 0.290574951171875 -3.0 0.07460696411132813
   vertex 0.2976343994140625 -3.0 0.037599971771240234
  endloop
 endfacet
 facet normal 0.0 1.0 0.0
  outer loop
   vertex 0.018837156295776366 -3.0 -0.29940802001953126
   vertex -0.018837156295776366 -3.0 -0.29940802001953126
   vertex -0.056214393615722655 -3.0 -0.2946861877441406
  endloop
 endfacet
 facet normal 0.0 1.0 -0.0
  outer loop
   vertex 0.2976343994140625 -3.0 -0.037599971771240234
   vertex 0.16074803161621093 -3.0 0.25329837036132813
   vertex 0.3 -3.0 7.347880713170358e-17
  endloop
 endfacet
 facet normal 0.0 1.0 0.0
  outer loop
   vertex 0.09270510101318359 -3.0 -0.28531695556640624
   vertex 0.056214393615722655 -3.0 -0.2946861877441406
   vertex 0.018837156295776366 -3.0 -0.29940802001953126
  endloop
 endfacet
 facet normal 0.0 1.0 0.0
  outer loop
   vertex 0.09270510101318359 -3.0 -0.28531695556640624
   vertex 0.018837156295776366 -3.0 -0.29940802001953126
   vertex -0.056214393615722655 -3.0 -0.2946861877441406
  endloop
 endfacet
 facet normal 0.0 1.0 0.0
  outer loop
   vertex 0.09270510101318359 -3.0 -0.28531695556640624
   vertex -0.1277337875366211 -3.0 -0.2714481201171875
   vertex -0.21869058227539062 -3.0 -0.2053641357421875
  endloop
 endfacet
 facet normal 0.0 1.0 0.0
  outer loop
   vertex 0.09270510101318359 -3.0 -0.28531695556640624
   vertex -0.056214393615722655 -3.0 -0.2946861877441406
   vertex -0.09270510101318359 -3.0 -0.28531695556640624
  endloop
 endfacet
 facet normal 0.0 1.0 0.0
  outer loop
   vertex 0.09270510101318359 -3.0 -0.28531695556640624
   vertex -0.09270510101318359 -3.0 -0.28531695556640624
   vertex -0.1277337875366211 -3.0 -0.2714481201171875
  endloop
 endfacet
 facet normal 0.0 1.0 0.0
  outer loop
   vertex 0.09270510101318359 -3.0 -0.28531695556640624
   vertex -0.21869058227539062 -3.0 -0.2053641357421875
   vertex -0.24270509338378907 -3.0 -0.1763355712890625
  endloop
 endfacet
 facet normal 0.0 1.0 0.0
  outer loop
   vertex 0.09270510101318359 -3.0 -0.28531695556640624
   vertex -0.24270509338378907 -3.0 -0.1763355712890625
   vertex -0.2628919982910156 -3.0 -0.14452610778808594
  endloop
 endfacet
 facet normal 0.0 1.0 0.0
  outer loop
   vertex 0.09270510101318359 -3.0 -0.28531695556640624
   vertex -0.2628919982910156 -3.0 0.14452610778808594
   vertex -0.018837156295776366 -3.0 0.29940802001953126
  endloop
 endfacet
 facet normal 0.0 1.0 -0.0
  outer loop
   vertex 0.09270510101318359 -3.0 -0.28531695556640624
   vertex -0.018837156295776366 -3.0 0.29940802001953126
   vertex 0.09270510101318359 -3.0 0.28531695556640624
  endloop
 endfacet
 facet normal 0.0 1.0 0.0
  outer loop
   vertex 0.09270510101318359 -3.0 -0.28531695556640624
   vertex -0.2628919982910156 -3.0 -0.14452610778808594
   vertex -0.2628919982910156 -3.0 0.14452610778808594
  endloop
 endfacet
 facet normal 0.0 1.0 0.0
  outer loop
   vertex 0.2789329528808594 -3.0 -0.11043736267089845
   vertex 0.2976343994140625 -3.0 -0.037599971771240234
   vertex 0.290574951171875 -3.0 -0.07460696411132813
  endloop
 endfacet
 facet normal 0.0 1.0 0.0
  outer loop
   vertex 0.16074803161621093 -3.0 -0.25329837036132813
   vertex 0.1277337875366211 -3.0 -0.2714481201171875
   vertex 0.09270510101318359 -3.0 -0.28531695556640624
  endloop
 endfacet
 facet normal 0.0 1.0 0.0
  outer loop
   vertex 0.24270509338378907 -3.0 -0.1763355712890625
   vertex 0.2789329528808594 -3.0 -0.11043736267089845
   vertex 0.2628919982910156 -3.0 -0.14452610778808594
  endloop
 endfacet
 facet normal 0.0 1.0 0.0
  outer loop
   vertex 0.24270509338378907 -3.0 -0.1763355712890625
   vertex 0.2976343994140625 -3.0 -0.037599971771240234
   vertex 0.2789329528808594 -3.0 -0.11043736267089845
  endloop
 endfacet
 facet normal 0.0 1.0 0.0
  outer loop
   vertex 0.19122720336914062 -3.0 -0.2311539764404297
   vertex 0.16074803161621093 -3.0 -0.25329837036132813
   vertex 0.09270510101318359 -3.0 -0.28531695556640624
  endloop
 endfacet
 facet normal 0.0 1.0 -0.0
  outer loop
   vertex 0.21869058227539062 -3.0 -0.2053641357421875
   vertex 0.16074803161621093 -3.0 0.25329837036132813
   vertex 0.2976343994140625 -3.0 -0.037599971771240234
  endloop
 endfacet
 facet normal 0.0 1.0 0.0
  outer loop
   vertex 0.21869058227539062 -3.0 -0.2053641357421875
   vertex 0.09270510101318359 -3.0 -0.28531695556640624
   vertex 0.09270510101318359 -3.0 0.28531695556640624
  endloop
 endfacet
 facet normal 0.0 1.0 0.0
  outer loop
   vertex 0.21869058227539062 -3.0 -0.2053641357421875
   vertex 0.2976343994140625 -3.0 -0.037599971771240234
   vertex 0.24270509338378907 -3.0 -0.1763355712890625
  endloop
 endfacet
 facet normal 0.0 1.0 0.0
  outer loop
   vertex 0.21869058227539062 -3.0 -0.2053641357421875
   vertex 0.19122720336914062 -3.0 -0.2311539764404297
   vertex 0.09270510101318359 -3.0 -0.28531695556640624
  endloop
 endfacet
 facet normal 0.0 1.0 0.0
  outer loop
   vertex 0.21869058227539062 -3.0 -0.2053641357421875
   vertex 0.09270510101318359 -3.0 0.28531695556640624
   vertex 0.16074803161621093 -3.0 0.25329837036132813
  endloop
 endfacet
 facet normal -0.9980267286300659 0.0 0.06279081106185913
  outer loop
   vertex 0.2976343994140625 -3.0 -0.037599971771240234
   vertex 0.3 -3.0 7.347880713170358e-17
   vertex 0.3 3.0 1.40574639602431e-15
  endloop
 endfacet
 facet normal -0.9980267286300659 0.0 0.06279081106185913
  outer loop
   vertex 0.2976343994140625 -3.0 -0.037599971771240234
   vertex 0.3 3.0 1.40574639602431e-15
   vertex 0.2976343994140625 3.0 -0.037599971771240234
  endloop
 endfacet
 facet normal -0.9822873473167419 0.0 0.18738096952438354
  outer loop
   vertex 0.290574951171875 -3.0 -0.07460696411132813
   vertex 0.2976343994140625 3.0 -0.037599971771240234
   vertex 0.290574951171875 3.0 -0.07460696411132813
  endloop
 endfacet
 facet normal -0.9822873473167419 0.0 0.18738096952438354
  outer loop
   vertex 0.290574951171875 -3.0 -0.07460696411132813
   vertex 0.2976343994140625 -3.0 -0.037599971771240234
   vertex 0.2976343994140625 3.0 -0.037599971771240234
  endloop
 endfacet
 facet normal -0.9510565400123596 0.0 0.3090169131755829
  outer loop
   vertex 0.2789329528808594 -3.0 -0.11043736267089845
   vertex 0.290574951171875 3.0 -0.07460696411132813
   vertex 0.2789329528808594 3.0 -0.11043736267089845
  endloop
 endfacet
 facet normal -0.9510565400123596 0.0 0.3090169131755829
  outer loop
   vertex 0.2789329528808594 -3.0 -0.11043736267089845
   vertex 0.290574951171875 -3.0 -0.07460696411132813
   vertex 0.290574951171875 3.0 -0.07460696411132813
  endloop
 endfacet
 facet normal -0.9048269987106323 0.0 0.4257794916629791
  outer loop
   vertex 0.2628919982910156 -3.0 -0.14452610778808594
   vertex 0.2789329528808594 3.0 -0.11043736267089845
   vertex 0.2628919982910156 3.0 -0.14452610778808594
  endloop
 endfacet
 facet normal -0.9048269987106323 0.0 0.4257794916629791
  outer loop
   vertex 0.2628919982910156 -3.0 -0.14452610778808594
   vertex 0.2789329528808594 -3.0 -0.11043736267089845
   vertex 0.2789329528808594 3.0 -0.11043736267089845
  endloop
 endfacet
 facet normal -0.8443278670310974 0.0 0.5358269214630127
  outer loop
   vertex 0.24270509338378907 -3.0 -0.1763355712890625
   vertex 0.2628919982910156 3.0 -0.14452610778808594
   vertex 0.24270509338378907 3.0 -0.1763355712890625
  endloop
 endfacet
 facet normal -0.8443278670310974 0.0 0.5358269214630127
  outer loop
   vertex 0.24270509338378907 -3.0 -0.1763355712890625
   vertex 0.2628919982910156 -3.0 -0.14452610778808594
   vertex 0.2628919982910156 3.0 -0.14452610778808594
  endloop
 endfacet
 facet normal -0.7705132961273193 0.0 0.6374238729476929
  outer loop
   vertex 0.21869058227539062 -3.0 -0.2053641357421875
   vertex 0.24270509338378907 3.0 -0.1763355712890625
   vertex 0.21869058227539062 3.0 -0.2053641357421875
  endloop
 endfacet
 facet normal -0.7705132961273193 0.0 0.6374238729476929
  outer loop
   vertex 0.21869058227539062 -3.0 -0.2053641357421875
   vertex 0.24270509338378907 -3.0 -0.1763355712890625
   vertex 0.24270509338378907 3.0 -0.1763355712890625
  endloop
 endfacet
 facet normal -0.6845472455024719 0.0 0.7289684414863586
  outer loop
   vertex 0.19122720336914062 -3.0 -0.2311539764404297
   vertex 0.21869058227539062 3.0 -0.2053641357421875
   vertex 0.19122720336914062 3.0 -0.2311539764404297
  endloop
 endfacet
 facet normal -0.5877848863601685 0.0 0.8090173006057739
  outer loop
   vertex 0.19122720336914062 -3.0 -0.2311539764404297
   vertex 0.19122720336914062 3.0 -0.2311539764404297
   vertex 0.16074803161621093 3.0 -0.25329837036132813
  endloop
 endfacet
 facet normal -0.6845472455024719 0.0 0.7289684414863586
  outer loop
   vertex 0.19122720336914062 -3.0 -0.2311539764404297
   vertex 0.21869058227539062 -3.0 -0.2053641357421875
   vertex 0.21869058227539062 3.0 -0.2053641357421875
  endloop
 endfacet
 facet normal -0.5877848863601685 0.0 0.8090173006057739
  outer loop
   vertex 0.16074803161621093 -3.0 -0.25329837036132813
   vertex 0.19122720336914062 -3.0 -0.2311539764404297
   vertex 0.16074803161621093 3.0 -0.25329837036132813
  endloop
 endfacet
 facet normal -0.48175397515296936 0.0 0.8763064742088318
  outer loop
   vertex 0.1277337875366211 -3.0 -0.2714481201171875
   vertex 0.16074803161621093 3.0 -0.25329837036132813
   vertex 0.1277337875366211 3.0 -0.2714481201171875
  endloop
 endfacet
 facet normal -0.36812448501586914 0.0 0.9297764897346497
  outer loop
   vertex 0.1277337875366211 -3.0 -0.2714481201171875
   vertex 0.1277337875366211 3.0 -0.2714481201171875
   vertex 0.09270510101318359 3.0 -0.28531695556640624
  endloop
 endfacet
 facet normal -0.48175397515296936 0.0 0.8763064742088318
  outer loop
   vertex 0.1277337875366211 -3.0 -0.2714481201171875
   vertex 0.16074803161621093 -3.0 -0.25329837036132813
   vertex 0.16074803161621093 3.0 -0.25329837036132813
  endloop
 endfacet
 facet normal -0.36812448501586914 0.0 0.9297764897346497
  outer loop
   vertex 0.09270510101318359 -3.0 -0.28531695556640624
   vertex 0.1277337875366211 -3.0 -0.2714481201171875
   vertex 0.09270510101318359 3.0 -0.28531695556640624
  endloop
 endfacet
 facet normal -0.2486901581287384 0.0 0.9685830473899841
  outer loop
   vertex 0.056214393615722655 -3.0 -0.2946861877441406
   vertex 0.09270510101318359 3.0 -0.28531695556640624
   vertex 0.056214393615722655 3.0 -0.2946861877441406
  endloop
 endfacet
 facet normal -0.2486901581287384 0.0 0.9685830473899841
  outer loop
   vertex 0.056214393615722655 -3.0 -0.2946861877441406
   vertex 0.09270510101318359 -3.0 -0.28531695556640624
   vertex 0.09270510101318359 3.0 -0.28531695556640624
  endloop
 endfacet
 facet normal -0.12533296644687653 0.0 0.992114782333374
  outer loop
   vertex 0.018837156295776366 -3.0 -0.29940802001953126
   vertex 0.056214393615722655 3.0 -0.2946861877441406
   vertex 0.018837156295776366 3.0 -0.29940802001953126
  endloop
 endfacet
 facet normal 0.0 -0.0 1.0
  outer loop
   vertex 0.018837156295776366 -3.0 -0.29940802001953126
   vertex 0.018837156295776366 3.0 -0.29940802001953126
   vertex -0.018837156295776366 3.0 -0.29940802001953126
  endloop
 endfacet
 facet normal -0.12533296644687653 0.0 0.992114782333374
  outer loop
   vertex 0.018837156295776366 -3.0 -0.29940802001953126
   vertex 0.056214393615722655 -3.0 -0.2946861877441406
   vertex 0.056214393615722655 3.0 -0.2946861877441406
  endloop
 endfacet
 facet normal 0.12533296644687653 -0.0 0.992114782333374
  outer loop
   vertex -0.018837156295776366 -3.0 -0.29940802001953126
   vertex -0.018837156295776366 3.0 -0.29940802001953126
   vertex -0.056214393615722655 3.0 -0.2946861877441406
  endloop
 endfacet
 facet normal 0.0 0.0 1.0
  outer loop
   vertex -0.018837156295776366 -3.0 -0.29940802001953126
   vertex 0.018837156295776366 -3.0 -0.29940802001953126
   vertex -0.018837156295776366 3.0 -0.29940802001953126
  endloop
 endfacet
 facet normal 0.12533296644687653 -0.0 0.992114782333374
  outer loop
   vertex -0.056214393615722655 -3.0 -0.2946861877441406
   vertex -0.018837156295776366 -3.0 -0.29940802001953126
   vertex -0.056214393615722655 3.0 -0.2946861877441406
  endloop
 endfacet
 facet normal 0.2486901581287384 -0.0 0.9685830473899841
  outer loop
   vertex -0.09270510101318359 -3.0 -0.28531695556640624
   vertex -0.056214393615722655 3.0 -0.2946861877441406
   vertex -0.09270510101318359 3.0 -0.28531695556640624
  endloop
 endfacet
 facet normal 0.2486901581287384 0.0 0.9685830473899841
  outer loop
   vertex -0.09270510101318359 -3.0 -0.28531695556640624
   vertex -0.056214393615722655 -3.0 -0.2946861877441406
   vertex -0.056214393615722655 3.0 -0.2946861877441406
  endloop
 endfacet
 facet normal 0.36812448501586914 -0.0 0.9297764897346497
  outer loop
   vertex -0.1277337875366211 -3.0 -0.2714481201171875
   vertex -0.09270510101318359 3.0 -0.28531695556640624
   vertex -0.1277337875366211 3.0 -0.2714481201171875
  endloop
 endfacet
 facet normal 0.36812448501586914 0.0 0.9297764897346497
  outer loop
   vertex -0.1277337875366211 -3.0 -0.2714481201171875
   vertex -0.09270510101318359 -3.0 -0.28531695556640624
   vertex -0.09270510101318359 3.0 -0.28531695556640624
  endloop
 endfacet
 facet normal 0.48175397515296936 -0.0 0.8763064742088318
  outer loop
   vertex -0.16074803161621093 -3.0 -0.25329837036132813
   vertex -0.1277337875366211 3.0 -0.2714481201171875
   vertex -0.16074803161621093 3.0 -0.25329837036132813
  endloop
 endfacet
 facet normal 0.5877848863601685 -0.0 0.8090173006057739
  outer loop
   vertex -0.16074803161621093 -3.0 -0.25329837036132813
   vertex -0.16074803161621093 3.0 -0.25329837036132813
   vertex -0.19122720336914062 3.0 -0.2311539764404297
  endloop
 endfacet
 facet normal 0.48175397515296936 0.0 0.8763064742088318
  outer loop
   vertex -0.16074803161621093 -3.0 -0.25329837036132813
   vertex -0.1277337875366211 -3.0 -0.2714481201171875
   vertex -0.1277337875366211 3.0 -0.2714481201171875
  endloop
 endfacet
 facet normal 0.5877848863601685 -0.0 0.8090173006057739
  outer loop
   vertex -0.19122720336914062 -3.0 -0.2311539764404297
   vertex -0.16074803161621093 -3.0 -0.25329837036132813
   vertex -0.19122720336914062 3.0 -0.2311539764404297
  endloop
 endfacet
 facet normal 0.6845472455024719 -0.0 0.7289684414863586
  outer loop
   vertex -0.21869058227539062 -3.0 -0.2053641357421875
   vertex -0.19122720336914062 3.0 -0.2311539764404297
   vertex -0.21869058227539062 3.0 -0.2053641357421875
  endloop
 endfacet
 facet normal 0.6845472455024719 0.0 0.7289684414863586
  outer loop
   vertex -0.21869058227539062 -3.0 -0.2053641357421875
   vertex -0.19122720336914062 -3.0 -0.2311539764404297
   vertex -0.19122720336914062 3.0 -0.2311539764404297
  endloop
 endfacet
 facet normal 0.7705132961273193 -0.0 0.6374238729476929
  outer loop
   vertex -0.24270509338378907 -3.0 -0.1763355712890625
   vertex -0.21869058227539062 3.0 -0.2053641357421875
   vertex -0.24270509338378907 3.0 -0.1763355712890625
  endloop
 endfacet
 facet normal 0.7705132961273193 0.0 0.6374238729476929
  outer loop
   vertex -0.24270509338378907 -3.0 -0.1763355712890625
   vertex -0.21869058227539062 -3.0 -0.2053641357421875
   vertex -0.21869058227539062 3.0 -0.2053641357421875
  endloop
 endfacet
 facet normal 0.8443278670310974 -0.0 0.5358269214630127
  outer loop
   vertex -0.2628919982910156 -3.0 -0.14452610778808594
   vertex -0.24270509338378907 3.0 -0.1763355712890625
   vertex -0.2628919982910156 3.0 -0.14452610778808594
  endloop
 endfacet
 facet normal 0.8443278670310974 0.0 0.5358269214630127
  outer loop
   vertex -0.2628919982910156 -3.0 -0.14452610778808594
   vertex -0.24270509338378907 -3.0 -0.1763355712890625
   vertex -0.24270509338378907 3.0 -0.1763355712890625
  endloop
 endfacet
 facet normal 0.9048269987106323 -0.0 0.4257794916629791
  outer loop
   vertex -0.2789329528808594 -3.0 -0.11043736267089845
   vertex -0.2628919982910156 3.0 -0.14452610778808594
   vertex -0.2789329528808594 3.0 -0.11043736267089845
  endloop
 endfacet
 facet normal 0.9048269987106323 0.0 0.4257794916629791
  outer loop
   vertex -0.2789329528808594 -3.0 -0.11043736267089845
   vertex -0.2628919982910156 -3.0 -0.14452610778808594
   vertex -0.2628919982910156 3.0 -0.14452610778808594
  endloop
 endfacet
 facet normal 0.9510565400123596 -0.0 0.3090169131755829
  outer loop
   vertex -0.290574951171875 -3.0 -0.07460696411132813
   vertex -0.2789329528808594 3.0 -0.11043736267089845
   vertex -0.290574951171875 3.0 -0.07460696411132813
  endloop
 endfacet
 facet normal 0.9510565400123596 0.0 0.3090169131755829
  outer loop
   vertex -0.290574951171875 -3.0 -0.07460696411132813
   vertex -0.2789329528808594 -3.0 -0.11043736267089845
   vertex -0.2789329528808594 3.0 -0.11043736267089845
  endloop
 endfacet
 facet normal 0.9822873473167419 -0.0 0.18738096952438354
  outer loop
   vertex -0.2976343994140625 -3.0 -0.037599971771240234
   vertex -0.290574951171875 3.0 -0.07460696411132813
   vertex -0.2976343994140625 3.0 -0.037599971771240234
  endloop
 endfacet
 facet normal 0.9822873473167419 0.0 0.18738096952438354
  outer loop
   vertex -0.2976343994140625 -3.0 -0.037599971771240234
   vertex -0.290574951171875 -3.0 -0.07460696411132813
   vertex -0.290574951171875 3.0 -0.07460696411132813
  endloop
 endfacet
 facet normal 0.9980267286300659 0.0 0.06279081106185913
  outer loop
   vertex -0.3 -3.0 3.62940878522941e-16
   vertex -0.2976343994140625 -3.0 -0.037599971771240234
   vertex -0.2976343994140625 3.0 -0.037599971771240234
  endloop
 endfacet
 facet normal 0.9980267286300659 -1.3942360835152796e-17 0.06279081106185913
  outer loop
   vertex -0.3 -3.0 3.62940878522941e-16
   vertex -0.2976343994140625 3.0 -0.037599971771240234
   vertex -0.3 3.0 1.6952085351781832e-15
  endloop
 endfacet
 facet normal 0.9980267286300659 1.3942360835152796e-17 -0.06279081106185913
  outer loop
   vertex -0.3 -3.0 3.62940878522941e-16
   vertex -0.3 3.0 1.6952085351781832e-15
   vertex -0.2976343994140625 3.0 0.037599971771240234
  endloop
 endfacet
 facet normal 0.9980267286300659 0.0 -0.06279081106185913
  outer loop
   vertex -0.2976343994140625 -3.0 0.037599971771240234
   vertex -0.3 -3.0 3.62940878522941e-16
   vertex -0.2976343994140625 3.0 0.037599971771240234
  endloop
 endfacet
 facet normal 0.9822873473167419 0.0 -0.18738096952438354
  outer loop
   vertex -0.290574951171875 -3.0 0.07460696411132813
   vertex -0.2976343994140625 -3.0 0.037599971771240234
   vertex -0.2976343994140625 3.0 0.037599971771240234
  endloop
 endfacet
 facet normal 0.9822873473167419 0.0 -0.18738096952438354
  outer loop
   vertex -0.290574951171875 -3.0 0.07460696411132813
   vertex -0.2976343994140625 3.0 0.037599971771240234
   vertex -0.290574951171875 3.0 0.07460696411132813
  endloop
 endfacet
 facet normal 0.9510565400123596 0.0 -0.3090169131755829
  outer loop
   vertex -0.290574951171875 -3.0 0.07460696411132813
   vertex -0.290574951171875 3.0 0.07460696411132813
   vertex -0.2789329528808594 3.0 0.11043736267089845
  endloop
 endfacet
 facet normal 0.9510565400123596 0.0 -0.3090169131755829
  outer loop
   vertex -0.2789329528808594 -3.0 0.11043736267089845
   vertex -0.290574951171875 -3.0 0.07460696411132813
   vertex -0.2789329528808594 3.0 0.11043736267089845
  endloop
 endfacet
 facet normal 0.9048269987106323 0.0 -0.4257794916629791
  outer loop
   vertex -0.2628919982910156 -3.0 0.14452610778808594
   vertex -0.2789329528808594 -3.0 0.11043736267089845
   vertex -0.2789329528808594 3.0 0.11043736267089845
  endloop
 endfacet
 facet normal 0.9048269987106323 0.0 -0.4257794916629791
  outer loop
   vertex -0.2628919982910156 -3.0 0.14452610778808594
   vertex -0.2789329528808594 3.0 0.11043736267089845
   vertex -0.2628919982910156 3.0 0.14452610778808594
  endloop
 endfacet
 facet normal 0.8443278670310974 0.0 -0.5358269214630127
  outer loop
   vertex -0.2628919982910156 -3.0 0.14452610778808594
   vertex -0.2628919982910156 3.0 0.14452610778808594
   vertex -0.24270509338378907 3.0 0.1763355712890625
  endloop
 endfacet
 facet normal 0.8443278670310974 0.0 -0.5358269214630127
  outer loop
   vertex -0.24270509338378907 -3.0 0.1763355712890625
   vertex -0.2628919982910156 -3.0 0.14452610778808594
   vertex -0.24270509338378907 3.0 0.1763355712890625
  endloop
 endfacet
 facet normal 0.7705132961273193 0.0 -0.6374238729476929
  outer loop
   vertex -0.21869058227539062 -3.0 0.2053641357421875
   vertex -0.24270509338378907 -3.0 0.1763355712890625
   vertex -0.24270509338378907 3.0 0.1763355712890625
  endloop
 endfacet
 facet normal 0.7705132961273193 0.0 -0.6374238729476929
  outer loop
   vertex -0.21869058227539062 -3.0 0.2053641357421875
   vertex -0.24270509338378907 3.0 0.1763355712890625
   vertex -0.21869058227539062 3.0 0.2053641357421875
  endloop
 endfacet
 facet normal 0.6845472455024719 0.0 -0.7289684414863586
  outer loop
   vertex -0.21869058227539062 -3.0 0.2053641357421875
   vertex -0.21869058227539062 3.0 0.2053641357421875
   vertex -0.19122720336914062 3.0 0.2311539764404297
  endloop
 endfacet
 facet normal 0.6845472455024719 0.0 -0.7289684414863586
  outer loop
   vertex -0.19122720336914062 -3.0 0.2311539764404297
   vertex -0.21869058227539062 -3.0 0.2053641357421875
   vertex -0.19122720336914062 3.0 0.2311539764404297
  endloop
 endfacet
 facet normal 0.5877848863601685 0.0 -0.8090173006057739
  outer loop
   vertex -0.16074803161621093 -3.0 0.25329837036132813
   vertex -0.19122720336914062 3.0 0.2311539764404297
   vertex -0.16074803161621093 3.0 0.25329837036132813
  endloop
 endfacet
 facet normal 0.5877848863601685 0.0 -0.8090173006057739
  outer loop
   vertex -0.16074803161621093 -3.0 0.25329837036132813
   vertex -0.19122720336914062 -3.0 0.2311539764404297
   vertex -0.19122720336914062 3.0 0.2311539764404297
  endloop
 endfacet
 facet normal 0.48175397515296936 0.0 -0.8763064742088318
  outer loop
   vertex -0.1277337875366211 -3.0 0.2714481201171875
   vertex -0.16074803161621093 3.0 0.25329837036132813
   vertex -0.1277337875366211 3.0 0.2714481201171875
  endloop
 endfacet
 facet normal 0.36812448501586914 0.0 -0.9297764897346497
  outer loop
   vertex -0.1277337875366211 -3.0 0.2714481201171875
   vertex -0.1277337875366211 3.0 0.2714481201171875
   vertex -0.09270510101318359 3.0 0.28531695556640624
  endloop
 endfacet
 facet normal 0.48175397515296936 0.0 -0.8763064742088318
  outer loop
   vertex -0.1277337875366211 -3.0 0.2714481201171875
   vertex -0.16074803161621093 -3.0 0.25329837036132813
   vertex -0.16074803161621093 3.0 0.25329837036132813
  endloop
 endfacet
 facet normal 0.36812448501586914 0.0 -0.9297764897346497
  outer loop
   vertex -0.09270510101318359 -3.0 0.28531695556640624
   vertex -0.1277337875366211 -3.0 0.2714481201171875
   vertex -0.09270510101318359 3.0 0.28531695556640624
  endloop
 endfacet
 facet normal 0.2486901581287384 0.0 -0.9685830473899841
  outer loop
   vertex -0.056214393615722655 -3.0 0.2946861877441406
   vertex -0.09270510101318359 3.0 0.28531695556640624
   vertex -0.056214393615722655 3.0 0.2946861877441406
  endloop
 endfacet
 facet normal 0.12533296644687653 0.0 -0.992114782333374
  outer loop
   vertex -0.056214393615722655 -3.0 0.2946861877441406
   vertex -0.056214393615722655 3.0 0.2946861877441406
   vertex -0.018837156295776366 3.0 0.29940802001953126
  endloop
 endfacet
 facet normal 0.2486901581287384 0.0 -0.9685830473899841
  outer loop
   vertex -0.056214393615722655 -3.0 0.2946861877441406
   vertex -0.09270510101318359 -3.0 0.28531695556640624
   vertex -0.09270510101318359 3.0 0.28531695556640624
  endloop
 endfacet
 facet normal 0.0 0.0 -1.0
  outer loop
   vertex -0.018837156295776366 -3.0 0.29940802001953126
   vertex -0.018837156295776366 3.0 0.29940802001953126
   vertex 0.018837156295776366 3.0 0.29940802001953126
  endloop
 endfacet
 facet normal 0.12533296644687653 0.0 -0.992114782333374
  outer loop
   vertex -0.018837156295776366 -3.0 0.29940802001953126
   vertex -0.056214393615722655 -3.0 0.2946861877441406
   vertex -0.018837156295776366 3.0 0.29940802001953126
  endloop
 endfacet
 facet normal 0.0 0.0 -1.0
  outer loop
   vertex 0.018837156295776366 -3.0 0.29940802001953126
   vertex -0.018837156295776366 -3.0 0.29940802001953126
   vertex 0.018837156295776366 3.0 0.29940802001953126
  endloop
 endfacet
 facet normal -0.12533296644687653 0.0 -0.992114782333374
  outer loop
   vertex 0.056214393615722655 -3.0 0.2946861877441406
   vertex 0.018837156295776366 3.0 0.29940802001953126
   vertex 0.056214393615722655 3.0 0.2946861877441406
  endloop
 endfacet
 facet normal -0.2486901581287384 0.0 -0.9685830473899841
  outer loop
   vertex 0.056214393615722655 -3.0 0.2946861877441406
   vertex 0.056214393615722655 3.0 0.2946861877441406
   vertex 0.09270510101318359 3.0 0.28531695556640624
  endloop
 endfacet
 facet normal -0.12533296644687653 0.0 -0.992114782333374
  outer loop
   vertex 0.056214393615722655 -3.0 0.2946861877441406
   vertex 0.018837156295776366 -3.0 0.29940802001953126
   vertex 0.018837156295776366 3.0 0.29940802001953126
  endloop
 endfacet
 facet normal -0.2486901581287384 0.0 -0.9685830473899841
  outer loop
   vertex 0.09270510101318359 -3.0 0.28531695556640624
   vertex 0.056214393615722655 -3.0 0.2946861877441406
   vertex 0.09270510101318359 3.0 0.28531695556640624
  endloop
 endfacet
 facet normal -0.36812448501586914 0.0 -0.9297764897346497
  outer loop
   vertex 0.1277337875366211 -3.0 0.2714481201171875
   vertex 0.09270510101318359 3.0 0.28531695556640624
   vertex 0.1277337875366211 3.0 0.2714481201171875
  endloop
 endfacet
 facet normal -0.48175397515296936 0.0 -0.8763064742088318
  outer loop
   vertex 0.1277337875366211 -3.0 0.2714481201171875
   vertex 0.1277337875366211 3.0 0.2714481201171875
   vertex 0.16074803161621093 3.0 0.25329837036132813
  endloop
 endfacet
 facet normal -0.36812448501586914 0.0 -0.9297764897346497
  outer loop
   vertex 0.1277337875366211 -3.0 0.2714481201171875
   vertex 0.09270510101318359 -3.0 0.28531695556640624
   vertex 0.09270510101318359 3.0 0.28531695556640624
  endloop
 endfacet
 facet normal -0.48175397515296936 0.0 -0.8763064742088318
  outer loop
   vertex 0.16074803161621093 -3.0 0.25329837036132813
   vertex 0.1277337875366211 -3.0 0.2714481201171875
   vertex 0.16074803161621093 3.0 0.25329837036132813
  endloop
 endfacet
 facet normal -0.5877848863601685 0.0 -0.8090173006057739
  outer loop
   vertex 0.19122720336914062 -3.0 0.2311539764404297
   vertex 0.16074803161621093 3.0 0.25329837036132813
   vertex 0.19122720336914062 3.0 0.2311539764404297
  endloop
 endfacet
 facet normal -0.5877848863601685 0.0 -0.8090173006057739
  outer loop
   vertex 0.19122720336914062 -3.0 0.2311539764404297
   vertex 0.16074803161621093 -3.0 0.25329837036132813
   vertex 0.16074803161621093 3.0 0.25329837036132813
  endloop
 endfacet
 facet normal -0.6845472455024719 0.0 -0.7289684414863586
  outer loop
   vertex 0.21869058227539062 -3.0 0.2053641357421875
   vertex 0.19122720336914062 3.0 0.2311539764404297
   vertex 0.21869058227539062 3.0 0.2053641357421875
  endloop
 endfacet
 facet normal -0.6845472455024719 0.0 -0.7289684414863586
  outer loop
   vertex 0.21869058227539062 -3.0 0.2053641357421875
   vertex 0.19122720336914062 -3.0 0.2311539764404297
   vertex 0.19122720336914062 3.0 0.2311539764404297
  endloop
 endfacet
 facet normal -0.7705132961273193 0.0 -0.6374238729476929
  outer loop
   vertex 0.24270509338378907 -3.0 0.1763355712890625
   vertex 0.21869058227539062 3.0 0.2053641357421875
   vertex 0.24270509338378907 3.0 0.1763355712890625
  endloop
 endfacet
 facet normal -0.7705132961273193 0.0 -0.6374238729476929
  outer loop
   vertex 0.24270509338378907 -3.0 0.1763355712890625
   vertex 0.21869058227539062 -3.0 0.2053641357421875
   vertex 0.21869058227539062 3.0 0.2053641357421875
  endloop
 endfacet
 facet normal -0.8443278670310974 0.0 -0.5358269214630127
  outer loop
   vertex 0.2628919982910156 -3.0 0.14452610778808594
   vertex 0.24270509338378907 3.0 0.1763355712890625
   vertex 0.2628919982910156 3.0 0.14452610778808594
  endloop
 endfacet
 facet normal -0.9048269987106323 0.0 -0.4257794916629791
  outer loop
   vertex 0.2628919982910156 -3.0 0.14452610778808594
   vertex 0.2628919982910156 3.0 0.14452610778808594
   vertex 0.2789329528808594 3.0 0.11043736267089845
  endloop
 endfacet
 facet normal -0.8443278670310974 0.0 -0.5358269214630127
  outer loop
   vertex 0.2628919982910156 -3.0 0.14452610778808594
   vertex 0.24270509338378907 -3.0 0.1763355712890625
   vertex 0.24270509338378907 3.0 0.1763355712890625
  endloop
 endfacet
 facet normal -0.9510565400123596 0.0 -0.3090169131755829
  outer loop
   vertex 0.2789329528808594 -3.0 0.11043736267089845
   vertex 0.2789329528808594 3.0 0.11043736267089845
   vertex 0.290574951171875 3.0 0.07460696411132813
  endloop
 endfacet
 facet normal -0.9048269987106323 0.0 -0.4257794916629791
  outer loop
   vertex 0.2789329528808594 -3.0 0.11043736267089845
   vertex 0.2628919982910156 -3.0 0.14452610778808594
   vertex 0.2789329528808594 3.0 0.11043736267089845
  endloop
 endfacet
 facet normal -0.9510565400123596 0.0 -0.3090169131755829
  outer loop
   vertex 0.290574951171875 -3.0 0.07460696411132813
   vertex 0.2789329528808594 -3.0 0.11043736267089845
   vertex 0.290574951171875 3.0 0.07460696411132813
  endloop
 endfacet
 facet normal -0.9822873473167419 0.0 -0.18738096952438354
  outer loop
   vertex 0.2976343994140625 -3.0 0.037599971771240234
   vertex 0.290574951171875 -3.0 0.07460696411132813
   vertex 0.290574951171875 3.0 0.07460696411132813
  endloop
 endfacet
 facet normal -0.9822873473167419 0.0 -0.18738096952438354
  outer loop
   vertex 0.2976343994140625 -3.0 0.037599971771240234
   vertex 0.290574951171875 3.0 0.07460696411132813
   vertex 0.2976343994140625 3.0 0.037599971771240234
  endloop
 endfacet
 facet normal -0.9980267286300659 0.0 -0.06279081106185913
  outer loop
   vertex 0.3 -3.0 7.347880713170358e-17
   vertex 0.2976343994140625 -3.0 0.037599971771240234
   vertex 0.2976343994140625 3.0 0.037599971771240234
  endloop
 endfacet
 facet normal -0.9980267286300659 1.3942360835152796e-17 -0.06279081106185913
  outer loop
   vertex 0.3 -3.0 7.347880713170358e-17
   vertex 0.2976343994140625 3.0 0.037599971771240234
   vertex 0.3 3.0 1.40574639602431e-15
  endloop
 endfacet
endsolid MeshRefinement
