# Wavefront OBJ file written 2026-06-22T09:24:14
o Cut001_Geometry_edgeMesh

# points : 208
# lines  : 212

# <points count="208">
v 0.225502207875252 -3.00651788711548 -0.5
v 0.816386818885803 -2.9023289680481 -0.5
v -0.816386818885803 2.9023289680481 -0.5
v -0.225502207875252 3.00651788711548 -0.5
v 0.225502207875252 -3.00651788711548 0.5
v 0.816386818885803 -2.9023289680481 0.5
v -0.816386818885803 2.9023289680481 0.5
v -0.225502207875252 3.00651788711548 0.5
v -4.37382459640503 -1.05813956260681 -0.5
v -4.4316349029541 -0.781416833400726 -0.5
v -4.29875230789185 -1.33068633079529 -0.5
v -4.20671510696411 -1.5979813337326 -0.5
v -4.09807682037354 -1.85896992683411 -0.5
v -3.97326421737671 -2.11262202262878 -0.5
v -3.83277130126953 -2.35793662071228 -0.5
v -3.67715215682983 -2.59394526481628 -0.5
v -3.5070207118988 -2.8197169303894 -0.5
v -3.32304906845093 -3.03436088562012 -0.5
v -3.12596273422241 -3.23702907562256 -0.5
v -2.91653966903687 -3.42692232131958 -0.5
v -2.69560623168945 -3.60329127311707 -0.5
v -2.46403431892395 -3.76543951034546 -0.5
v -2.22273826599121 -3.91272735595703 -0.5
v -1.97267019748688 -4.04457330703735 -0.5
v -1.71481668949127 -4.16045713424683 -0.5
v -1.45019567012787 -4.25992202758789 -0.5
v -1.17985129356384 -4.34257411956787 -0.5
v -0.904850661754608 -4.40808868408203 -0.5
v -0.626278936862946 -4.45620632171631 -0.5
v -0.345235615968704 -4.48673725128174 -0.5
v -0.0628298074007034 -4.49956130981445 -0.5
v 0.219823956489563 -4.49462747573853 -0.5
v 0.501610219478607 -4.4719557762146 -0.5
v 0.781416833400726 -4.4316349029541 -0.5
v 1.05813956260681 -4.37382459640503 -0.5
v 1.33068633079529 -4.29875230789185 -0.5
v 1.5979813337326 -4.20671510696411 -0.5
v 1.85896992683411 -4.09807682037354 -0.5
v 2.11262202262878 -3.97326421737671 -0.5
v 2.35793662071228 -3.83277130126953 -0.5
v 2.59394526481628 -3.67715215682983 -0.5
v 2.8197169303894 -3.5070207118988 -0.5
v 3.03436088562012 -3.32304906845093 -0.5
v 3.23702907562256 -3.12596273422241 -0.5
v 3.42692232131958 -2.91653966903687 -0.5
v 3.60329127311707 -2.69560623168945 -0.5
v 3.76543951034546 -2.46403431892395 -0.5
v 3.91272735595703 -2.22273826599121 -0.5
v 4.04457330703735 -1.97267019748688 -0.5
v 4.16045713424683 -1.71481668949127 -0.5
v 4.25992202758789 -1.45019567012787 -0.5
v 4.34257411956787 -1.17985129356384 -0.5
v 4.40808868408203 -0.904850661754608 -0.5
v -2.59394526481628 3.67715215682983 -0.5
v -2.35793662071228 3.83277130126953 -0.5
v -2.8197169303894 3.5070207118988 -0.5
v -3.03436088562012 3.32304906845093 -0.5
v -3.23702907562256 3.12596273422241 -0.5
v -3.42692232131958 2.91653966903687 -0.5
v -3.60329127311707 2.69560623168945 -0.5
v -3.76543951034546 2.46403431892395 -0.5
v -3.91272735595703 2.22273826599121 -0.5
v -4.04457330703735 1.97267019748688 -0.5
v -4.16045713424683 1.71481668949127 -0.5
v -4.25992202758789 1.45019567012787 -0.5
v -4.34257411956787 1.17985129356384 -0.5
v -4.40808868408203 0.904850661754608 -0.5
v -4.45620632171631 0.626278936862946 -0.5
v -4.48673725128174 0.345235615968704 -0.5
v -4.49956130981445 0.0628298074007034 -0.5
v -4.49462747573853 -0.219823956489563 -0.5
v -4.4719557762146 -0.501610219478607 -0.5
v 4.45620632171631 -0.626278936862946 -0.5
v -2.11262202262878 3.97326421737671 -0.5
v 4.48673725128174 -0.345235615968704 -0.5
v -1.85896992683411 4.09807682037354 -0.5
v 4.49956130981445 -0.0628298074007034 -0.5
v -1.5979813337326 4.20671510696411 -0.5
v 4.49462747573853 0.219823956489563 -0.5
v -1.33068633079529 4.29875230789185 -0.5
v 4.4719557762146 0.501610219478607 -0.5
v -1.05813956260681 4.37382459640503 -0.5
v 4.4316349029541 0.781416833400726 -0.5
v -0.781416833400726 4.4316349029541 -0.5
v 4.37382459640503 1.05813956260681 -0.5
v -0.501610219478607 4.4719557762146 -0.5
v -0.219823956489563 4.49462747573853 -0.5
v 4.29875230789185 1.33068633079529 -0.5
v 4.20671510696411 1.5979813337326 -0.5
v 0.0628298074007034 4.49956130981445 -0.5
v 4.09807682037354 1.85896992683411 -0.5
v 0.345235615968704 4.48673725128174 -0.5
v 3.97326421737671 2.11262202262878 -0.5
v 0.626278936862946 4.45620632171631 -0.5
v 3.83277130126953 2.35793662071228 -0.5
v 0.904850661754608 4.40808868408203 -0.5
v 3.67715215682983 2.59394526481628 -0.5
v 1.17985129356384 4.34257411956787 -0.5
v 3.5070207118988 2.8197169303894 -0.5
v 1.45019567012787 4.25992202758789 -0.5
v 1.71481668949127 4.16045713424683 -0.5
v 3.32304906845093 3.03436088562012 -0.5
v 1.97267019748688 4.04457330703735 -0.5
v 3.12596273422241 3.23702907562256 -0.5
v 2.22273826599121 3.91272735595703 -0.5
v 2.91653966903687 3.42692232131958 -0.5
v 2.69560623168945 3.60329127311707 -0.5
v 2.46403431892395 3.76543951034546 -0.5
v -4.4316349029541 -0.781416833400726 0.5
v -4.37382459640503 -1.05813956260681 0.5
v -4.29875230789185 -1.33068633079529 0.5
v -4.20671510696411 -1.5979813337326 0.5
v -4.09807682037354 -1.85896992683411 0.5
v -3.97326421737671 -2.11262202262878 0.5
v -3.83277130126953 -2.35793662071228 0.5
v -3.67715215682983 -2.59394526481628 0.5
v -3.5070207118988 -2.8197169303894 0.5
v -3.32304906845093 -3.03436088562012 0.5
v -3.12596273422241 -3.23702907562256 0.5
v -2.91653966903687 -3.42692232131958 0.5
v -2.69560623168945 -3.60329127311707 0.5
v -2.46403431892395 -3.76543951034546 0.5
v -2.22273826599121 -3.91272735595703 0.5
v -1.97267019748688 -4.04457330703735 0.5
v -1.71481668949127 -4.16045713424683 0.5
v -1.45019567012787 -4.25992202758789 0.5
v -1.17985129356384 -4.34257411956787 0.5
v -0.904850661754608 -4.40808868408203 0.5
v -0.626278936862946 -4.45620632171631 0.5
v -0.345235615968704 -4.48673725128174 0.5
v -0.0628298074007034 -4.49956130981445 0.5
v 0.219823956489563 -4.49462747573853 0.5
v 0.501610219478607 -4.4719557762146 0.5
v 0.781416833400726 -4.4316349029541 0.5
v 1.05813956260681 -4.37382459640503 0.5
v 1.33068633079529 -4.29875230789185 0.5
v 1.5979813337326 -4.20671510696411 0.5
v 1.85896992683411 -4.09807682037354 0.5
v 2.11262202262878 -3.97326421737671 0.5
v 2.35793662071228 -3.83277130126953 0.5
v 2.59394526481628 -3.67715215682983 0.5
v 2.8197169303894 -3.5070207118988 0.5
v 3.03436088562012 -3.32304906845093 0.5
v 3.23702907562256 -3.12596273422241 0.5
v 3.42692232131958 -2.91653966903687 0.5
v 3.60329127311707 -2.69560623168945 0.5
v 3.76543951034546 -2.46403431892395 0.5
v 3.91272735595703 -2.22273826599121 0.5
v 4.04457330703735 -1.97267019748688 0.5
v 4.16045713424683 -1.71481668949127 0.5
v 4.25992202758789 -1.45019567012787 0.5
v 4.34257411956787 -1.17985129356384 0.5
v 4.40808868408203 -0.904850661754608 0.5
v -2.35793662071228 3.83277130126953 0.5
v -2.59394526481628 3.67715215682983 0.5
v -2.8197169303894 3.5070207118988 0.5
v -3.03436088562012 3.32304906845093 0.5
v -3.23702907562256 3.12596273422241 0.5
v -3.42692232131958 2.91653966903687 0.5
v -3.60329127311707 2.69560623168945 0.5
v -3.76543951034546 2.46403431892395 0.5
v -3.91272735595703 2.22273826599121 0.5
v -4.04457330703735 1.97267019748688 0.5
v -4.16045713424683 1.71481668949127 0.5
v -4.25992202758789 1.45019567012787 0.5
v -4.34257411956787 1.17985129356384 0.5
v -4.40808868408203 0.904850661754608 0.5
v -4.45620632171631 0.626278936862946 0.5
v -4.48673725128174 0.345235615968704 0.5
v -4.49956130981445 0.0628298074007034 0.5
v -4.49462747573853 -0.219823956489563 0.5
v -4.4719557762146 -0.501610219478607 0.5
v 4.45620632171631 -0.626278936862946 0.5
v -2.11262202262878 3.97326421737671 0.5
v 4.48673725128174 -0.345235615968704 0.5
v -1.85896992683411 4.09807682037354 0.5
v 4.49956130981445 -0.0628298074007034 0.5
v -1.5979813337326 4.20671510696411 0.5
v 4.49462747573853 0.219823956489563 0.5
v -1.33068633079529 4.29875230789185 0.5
v 4.4719557762146 0.501610219478607 0.5
v -1.05813956260681 4.37382459640503 0.5
v 4.4316349029541 0.781416833400726 0.5
v -0.781416833400726 4.4316349029541 0.5
v 4.37382459640503 1.05813956260681 0.5
v -0.501610219478607 4.4719557762146 0.5
v -0.219823956489563 4.49462747573853 0.5
v 4.29875230789185 1.33068633079529 0.5
v 4.20671510696411 1.5979813337326 0.5
v 0.0628298074007034 4.49956130981445 0.5
v 4.09807682037354 1.85896992683411 0.5
v 0.345235615968704 4.48673725128174 0.5
v 3.97326421737671 2.11262202262878 0.5
v 0.626278936862946 4.45620632171631 0.5
v 3.83277130126953 2.35793662071228 0.5
v 0.904850661754608 4.40808868408203 0.5
v 3.67715215682983 2.59394526481628 0.5
v 1.17985129356384 4.34257411956787 0.5
v 3.5070207118988 2.8197169303894 0.5
v 1.45019567012787 4.25992202758789 0.5
v 1.71481668949127 4.16045713424683 0.5
v 3.32304906845093 3.03436088562012 0.5
v 1.97267019748688 4.04457330703735 0.5
v 3.12596273422241 3.23702907562256 0.5
v 2.22273826599121 3.91272735595703 0.5
v 2.91653966903687 3.42692232131958 0.5
v 2.69560623168945 3.60329127311707 0.5
v 2.46403431892395 3.76543951034546 0.5
# </points>

# <edges count="212">
l 9 10
l 11 9
l 12 11
l 13 12
l 14 13
l 15 14
l 16 15
l 17 16
l 18 17
l 19 18
l 20 19
l 21 20
l 22 21
l 23 22
l 24 23
l 25 24
l 26 25
l 27 26
l 28 27
l 29 28
l 30 29
l 31 30
l 32 31
l 33 32
l 34 33
l 1 2
l 35 34
l 36 35
l 37 36
l 38 37
l 39 38
l 40 39
l 41 40
l 42 41
l 43 42
l 44 43
l 45 44
l 46 45
l 47 46
l 48 47
l 49 48
l 50 49
l 51 50
l 52 51
l 53 52
l 54 55
l 56 54
l 57 56
l 58 57
l 59 58
l 60 59
l 61 60
l 62 61
l 63 62
l 64 63
l 65 64
l 66 65
l 67 66
l 68 67
l 69 68
l 70 69
l 71 70
l 72 71
l 10 72
l 3 1
l 73 53
l 55 74
l 75 73
l 74 76
l 77 75
l 76 78
l 79 77
l 78 80
l 81 79
l 80 82
l 2 4
l 83 81
l 4 3
l 82 84
l 85 83
l 84 86
l 86 87
l 88 85
l 89 88
l 87 90
l 91 89
l 90 92
l 93 91
l 92 94
l 95 93
l 94 96
l 97 95
l 96 98
l 99 97
l 98 100
l 100 101
l 102 99
l 101 103
l 104 102
l 103 105
l 106 104
l 107 106
l 105 108
l 108 107
l 109 110
l 110 111
l 111 112
l 112 113
l 113 114
l 114 115
l 115 116
l 116 117
l 117 118
l 118 119
l 119 120
l 120 121
l 121 122
l 122 123
l 123 124
l 124 125
l 125 126
l 126 127
l 127 128
l 128 129
l 129 130
l 130 131
l 131 132
l 132 133
l 133 134
l 6 5
l 134 135
l 135 136
l 136 137
l 137 138
l 138 139
l 139 140
l 140 141
l 141 142
l 142 143
l 143 144
l 144 145
l 145 146
l 146 147
l 147 148
l 148 149
l 149 150
l 150 151
l 151 152
l 152 153
l 154 155
l 155 156
l 156 157
l 157 158
l 158 159
l 159 160
l 160 161
l 161 162
l 162 163
l 163 164
l 164 165
l 165 166
l 166 167
l 167 168
l 168 169
l 169 170
l 170 171
l 171 172
l 172 109
l 5 7
l 153 173
l 174 154
l 173 175
l 176 174
l 175 177
l 178 176
l 177 179
l 180 178
l 179 181
l 182 180
l 8 6
l 181 183
l 7 8
l 184 182
l 183 185
l 186 184
l 187 186
l 185 188
l 188 189
l 190 187
l 189 191
l 192 190
l 191 193
l 194 192
l 193 195
l 196 194
l 195 197
l 198 196
l 197 199
l 200 198
l 201 200
l 199 202
l 203 201
l 202 204
l 205 203
l 204 206
l 206 207
l 208 205
l 207 208
l 3 7
l 5 1
l 6 2
l 8 4
# </edges>
