v -0.816386818885803 2.9023289680481 0.5
v -0.816386818885803 2.9023289680481 -0.5
l 1 2
v -0.225502207875252 3.00651788711548 0.5
v -0.816386818885803 2.9023289680481 0.5
l 3 4
v -0.816386818885803 2.9023289680481 0.5
v 0.225502207875252 -3.00651788711548 0.5
l 5 6
v -0.816386818885803 2.9023289680481 0.5
v -0.816386818885803 2.9023289680481 -0.5
l 7 8
v -0.816386818885803 2.9023289680481 -0.5
v -0.225502207875252 3.00651788711548 -0.5
l 9 10
v 0.225502207875252 -3.00651788711548 -0.5
v -0.816386818885803 2.9023289680481 -0.5
l 11 12
v -0.225502207875252 3.00651788711548 -0.5
v -0.225502207875252 3.00651788711548 0.5
l 13 14
v -0.225502207875252 3.00651788711548 0.5
v -0.816386818885803 2.9023289680481 0.5
l 15 16
v 0.816386818885803 -2.9023289680481 0.5
v -0.225502207875252 3.00651788711548 0.5
l 17 18
v -0.225502207875252 3.00651788711548 -0.5
v -0.225502207875252 3.00651788711548 0.5
l 19 20
v -0.816386818885803 2.9023289680481 -0.5
v -0.225502207875252 3.00651788711548 -0.5
l 21 22
v -0.225502207875252 3.00651788711548 -0.5
v 0.816386818885803 -2.9023289680481 -0.5
l 23 24
v 0.816386818885803 -2.9023289680481 -0.5
v 0.816386818885803 -2.9023289680481 0.5
l 25 26
v -0.225502207875252 3.00651788711548 -0.5
v 0.816386818885803 -2.9023289680481 -0.5
l 27 28
v 0.816386818885803 -2.9023289680481 -0.5
v 0.225502207875252 -3.00651788711548 -0.5
l 29 30
v 0.816386818885803 -2.9023289680481 -0.5
v 0.816386818885803 -2.9023289680481 0.5
l 31 32
v 0.816386818885803 -2.9023289680481 0.5
v -0.225502207875252 3.00651788711548 0.5
l 33 34
v 0.225502207875252 -3.00651788711548 0.5
v 0.816386818885803 -2.9023289680481 0.5
l 35 36
v 0.225502207875252 -3.00651788711548 -0.5
v 0.225502207875252 -3.00651788711548 0.5
l 37 38
v 0.225502207875252 -3.00651788711548 0.5
v 0.816386818885803 -2.9023289680481 0.5
l 39 40
v -0.816386818885803 2.9023289680481 0.5
v 0.225502207875252 -3.00651788711548 0.5
l 41 42
v 0.225502207875252 -3.00651788711548 -0.5
v 0.225502207875252 -3.00651788711548 0.5
l 43 44
v 0.816386818885803 -2.9023289680481 -0.5
v 0.225502207875252 -3.00651788711548 -0.5
l 45 46
v 0.225502207875252 -3.00651788711548 -0.5
v -0.816386818885803 2.9023289680481 -0.5
l 47 48
