v -0.225502207875252 3.00651788711548 0.5
v -0.816386818885803 2.9023289680481 0.5
l 1 2
v -0.816386818885803 2.9023289680481 -0.5
v -0.225502207875252 3.00651788711548 -0.5
l 3 4
v -0.225502207875252 3.00651788711548 -0.5
v 0.816386818885803 -2.9023289680481 -0.5
l 5 6
v 0.816386818885803 -2.9023289680481 0.5
v -0.225502207875252 3.00651788711548 0.5
l 7 8
v 0.225502207875252 -3.00651788711548 0.5
v 0.816386818885803 -2.9023289680481 0.5
l 9 10
v 0.816386818885803 -2.9023289680481 -0.5
v 0.225502207875252 -3.00651788711548 -0.5
l 11 12
v 0.225502207875252 -3.00651788711548 -0.5
v -0.816386818885803 2.9023289680481 -0.5
l 13 14
v -0.816386818885803 2.9023289680481 0.5
v 0.225502207875252 -3.00651788711548 0.5
l 15 16
