v -0.816386818885803 2.9023289680481 0.5
v -0.816386818885803 2.9023289680481 -0.5
l 1 2
v -0.225502207875252 3.00651788711548 -0.5
v -0.225502207875252 3.00651788711548 0.5
l 3 4
v 0.816386818885803 -2.9023289680481 -0.5
v 0.816386818885803 -2.9023289680481 0.5
l 5 6
v 0.225502207875252 -3.00651788711548 -0.5
v 0.225502207875252 -3.00651788711548 0.5
l 7 8
v -0.225502207875252 3.00651788711548 0.5
v -1.2103099552838 2.83286967766863 0.5
l 9 10
v -0.816386818885803 2.9023289680481 -0.5
v 0.168420928522747 3.07597717749495 -0.5
l 11 12
v -0.225502207875252 3.00651788711548 -0.5
v -0.0518540461588408 2.02171013129076 -0.5
l 13 14
v 0.816386818885803 -2.9023289680481 0.5
v 0.642738657169392 -1.91752121222338 0.5
l 15 16
v 0.225502207875252 -3.00651788711548 0.5
v 1.2103099552838 -2.83286967766863 0.5
l 17 18
v 0.816386818885803 -2.9023289680481 -0.5
v -0.168420928522747 -3.07597717749495 -0.5
l 19 20
v 0.225502207875252 -3.00651788711548 -0.5
v 0.0518540461588408 -2.02171013129076 -0.5
l 21 22
v -0.816386818885803 2.9023289680481 0.5
v -0.642738657169392 1.91752121222338 0.5
l 23 24
