v -10.9345293045044 16 -10.2682065963745
v -11.5576982498169 16 -9.56135940551758
l 1 2
v -10.2682065963745 16 -10.9345293045044
v -10.9345293045044 16 -10.2682065963745
l 3 4
v -9.56135940551758 16 -11.5576982498169
v -10.2682065963745 16 -10.9345293045044
l 5 6
v -8.8167781829834 16 -12.1352548599243
v -9.56135940551758 16 -11.5576982498169
l 7 8
v -12.1352548599243 16 -8.8167781829834
v -12.6649188995361 16 -8.03740215301514
l 9 10
v -11.5576982498169 16 -9.56135940551758
v -12.1352548599243 16 -8.8167781829834
l 11 12
v -8.03740215301514 16 -12.6649188995361
v -8.8167781829834 16 -12.1352548599243
l 13 14
v -7.22630500793457 16 -13.1446008682251
v -8.03740215301514 16 -12.6649188995361
l 15 16
v -13.1446008682251 16 -7.22630500793457
v -13.5724058151245 16 -6.38668966293335
l 17 18
v -12.6649188995361 16 -8.03740215301514
v -13.1446008682251 16 -7.22630500793457
l 19 20
v -6.38668966293335 16 -13.5724058151245
v -7.22630500793457 16 -13.1446008682251
l 21 22
v -4.63525485992432 16 -14.2658472061157
v -5.52186822891235 16 -13.946647644043
l 23 24
v -3.73034834861755 16 -14.5287466049194
v -4.63525485992432 16 -14.2658472061157
l 25 26
v -14.5287466049194 16 -3.73034834861755
v -14.7343082427979 16 -2.81071972846985
l 27 28
v -14.2658472061157 16 -4.63525485992432
v -14.5287466049194 16 -3.73034834861755
l 29 30
v -13.946647644043 16 -5.52186822891235
v -14.2658472061157 16 -4.63525485992432
l 31 32
v -13.5724058151245 16 -6.38668966293335
v -13.946647644043 16 -5.52186822891235
l 33 34
v -5.52186822891235 16 -13.946647644043
v -6.38668966293335 16 -13.5724058151245
l 35 36
v -2.81071972846985 16 -14.7343082427979
v -3.73034834861755 16 -14.5287466049194
l 37 38
v -1.87999856472015 16 -14.8817205429077
v -2.81071972846985 16 -14.7343082427979
l 39 40
v -0.941857814788818 16 -14.970401763916
v -1.87999856472015 16 -14.8817205429077
l 41 42
v -15 16 -3.81310583693999e-14
v -14.970401763916 16 0.941857814788818
l 43 44
v -14.970401763916 16 -0.941857814788818
v -15 16 -3.81310583693999e-14
l 45 46
v -14.8817205429077 16 -1.87999856472015
v -14.970401763916 16 -0.941857814788818
l 47 48
v -14.7343082427979 16 -2.81071972846985
v -14.8817205429077 16 -1.87999856472015
l 49 50
v 1.87999856472015 16 -14.8817205429077
v 0.941857814788818 16 -14.970401763916
l 51 52
v 2.81071972846985 16 -14.7343082427979
v 1.87999856472015 16 -14.8817205429077
l 53 54
v -14.7343082427979 16 2.81071972846985
v -14.5287466049194 16 3.73034834861755
l 55 56
v -14.8817205429077 16 1.87999856472015
v -14.7343082427979 16 2.81071972846985
l 57 58
v 3.73034834861755 16 -14.5287466049194
v 2.81071972846985 16 -14.7343082427979
l 59 60
v -14.970401763916 16 0.941857814788818
v -14.8817205429077 16 1.87999856472015
l 61 62
v -14.5287466049194 16 3.73034834861755
v -14.2658472061157 16 4.63525485992432
l 63 64
v 4.63525485992432 16 -14.2658472061157
v 3.73034834861755 16 -14.5287466049194
l 65 66
v -2.75545535214218e-15 16 -15
v -0.941857814788818 16 -14.970401763916
l 67 68
v 0.941857814788818 16 -14.970401763916
v -2.75545535214218e-15 16 -15
l 69 70
v -14.2658472061157 16 4.63525485992432
v -13.946647644043 16 5.52186822891235
l 71 72
v 5.52186822891235 16 -13.946647644043
v 4.63525485992432 16 -14.2658472061157
l 73 74
v 6.38668966293335 16 -13.5724058151245
v 5.52186822891235 16 -13.946647644043
l 75 76
v -13.946647644043 16 5.52186822891235
v -13.5724058151245 16 6.38668966293335
l 77 78
v -13.1446008682251 16 7.22630500793457
v -12.6649188995361 16 8.03740215301514
l 79 80
v -13.5724058151245 16 6.38668966293335
v -13.1446008682251 16 7.22630500793457
l 81 82
v -12.6649188995361 16 8.03740215301514
v -12.1352548599243 16 8.8167781829834
l 83 84
v 7.22630500793457 16 -13.1446008682251
v 6.38668966293335 16 -13.5724058151245
l 85 86
v -12.1352548599243 16 8.8167781829834
v -11.5576982498169 16 9.56135940551758
l 87 88
v 8.8167781829834 16 -12.1352548599243
v 8.03740215301514 16 -12.6649188995361
l 89 90
v 9.56135940551758 16 -11.5576982498169
v 8.8167781829834 16 -12.1352548599243
l 91 92
v 10.2682065963745 16 -10.9345293045044
v 9.56135940551758 16 -11.5576982498169
l 93 94
v 8.03740215301514 16 -12.6649188995361
v 7.22630500793457 16 -13.1446008682251
l 95 96
v 10.9345293045044 16 -10.2682065963745
v 10.2682065963745 16 -10.9345293045044
l 97 98
v 11.5576982498169 16 -9.56135940551758
v 10.9345293045044 16 -10.2682065963745
l 99 100
v -9.56135940551758 16 11.5576982498169
v -8.8167781829834 16 12.1352548599243
l 101 102
v -10.2682065963745 16 10.9345293045044
v -9.56135940551758 16 11.5576982498169
l 103 104
v -10.9345293045044 16 10.2682065963745
v -10.2682065963745 16 10.9345293045044
l 105 106
v -8.03740215301514 16 12.6649188995361
v -7.22630500793457 16 13.1446008682251
l 107 108
v -8.8167781829834 16 12.1352548599243
v -8.03740215301514 16 12.6649188995361
l 109 110
v -11.5576982498169 16 9.56135940551758
v -10.9345293045044 16 10.2682065963745
l 111 112
v 13.1446008682251 16 -7.22630500793457
v 12.6649188995361 16 -8.03740215301514
l 113 114
v 13.5724058151245 16 -6.38668966293335
v 13.1446008682251 16 -7.22630500793457
l 115 116
v -7.22630500793457 16 13.1446008682251
v -6.38668966293335 16 13.5724058151245
l 117 118
v 12.1352548599243 16 -8.8167781829834
v 11.5576982498169 16 -9.56135940551758
l 119 120
v 12.6649188995361 16 -8.03740215301514
v 12.1352548599243 16 -8.8167781829834
l 121 122
v 13.946647644043 16 -5.52186822891235
v 13.5724058151245 16 -6.38668966293335
l 123 124
v 14.2658472061157 16 -4.63525485992432
v 13.946647644043 16 -5.52186822891235
l 125 126
v -4.63525485992432 16 14.2658472061157
v -3.73034834861755 16 14.5287466049194
l 127 128
v -5.52186822891235 16 13.946647644043
v -4.63525485992432 16 14.2658472061157
l 129 130
v -6.38668966293335 16 13.5724058151245
v -5.52186822891235 16 13.946647644043
l 131 132
v 14.5287466049194 16 -3.73034834861755
v 14.2658472061157 16 -4.63525485992432
l 133 134
v 14.7343082427979 16 -2.81071972846985
v 14.5287466049194 16 -3.73034834861755
l 135 136
v 14.8817205429077 16 -1.87999856472015
v 14.7343082427979 16 -2.81071972846985
l 137 138
v 14.970401763916 16 -0.941857814788818
v 14.8817205429077 16 -1.87999856472015
l 139 140
v 15 16 -3.67399990300137e-15
v 14.970401763916 16 -0.941857814788818
l 141 142
v 0.941857814788818 16 14.970401763916
v 1.87999856472015 16 14.8817205429077
l 143 144
v -9.07352196307352e-15 16 15
v 0.941857814788818 16 14.970401763916
l 145 146
v -0.941857814788818 16 14.970401763916
v -9.07352196307352e-15 16 15
l 147 148
v -1.87999856472015 16 14.8817205429077
v -0.941857814788818 16 14.970401763916
l 149 150
v -2.81071972846985 16 14.7343082427979
v -1.87999856472015 16 14.8817205429077
l 151 152
v -3.73034834861755 16 14.5287466049194
v -2.81071972846985 16 14.7343082427979
l 153 154
v 14.970401763916 16 0.941857814788818
v 15 16 -3.67399990300137e-15
l 155 156
v 14.8817205429077 16 1.87999856472015
v 14.970401763916 16 0.941857814788818
l 157 158
v 14.7343082427979 16 2.81071972846985
v 14.8817205429077 16 1.87999856472015
l 159 160
v 14.5287466049194 16 3.73034834861755
v 14.7343082427979 16 2.81071972846985
l 161 162
v 2.81071972846985 16 14.7343082427979
v 3.73034834861755 16 14.5287466049194
l 163 164
v 1.87999856472015 16 14.8817205429077
v 2.81071972846985 16 14.7343082427979
l 165 166
v 14.2658472061157 16 4.63525485992432
v 14.5287466049194 16 3.73034834861755
l 167 168
v 13.946647644043 16 5.52186822891235
v 14.2658472061157 16 4.63525485992432
l 169 170
v 13.5724058151245 16 6.38668966293335
v 13.946647644043 16 5.52186822891235
l 171 172
v 13.1446008682251 16 7.22630500793457
v 13.5724058151245 16 6.38668966293335
l 173 174
v 7.22630500793457 16 13.1446008682251
v 8.03740215301514 16 12.6649188995361
l 175 176
v 6.38668966293335 16 13.5724058151245
v 7.22630500793457 16 13.1446008682251
l 177 178
v 12.6649188995361 16 8.03740215301514
v 13.1446008682251 16 7.22630500793457
l 179 180
v 5.52186822891235 16 13.946647644043
v 6.38668966293335 16 13.5724058151245
l 181 182
v 4.63525485992432 16 14.2658472061157
v 5.52186822891235 16 13.946647644043
l 183 184
v 8.03740215301514 16 12.6649188995361
v 8.8167781829834 16 12.1352548599243
l 185 186
v 12.1352548599243 16 8.8167781829834
v 12.6649188995361 16 8.03740215301514
l 187 188
v 11.5576982498169 16 9.56135940551758
v 12.1352548599243 16 8.8167781829834
l 189 190
v 8.8167781829834 16 12.1352548599243
v 9.56135940551758 16 11.5576982498169
l 191 192
v 10.9345293045044 16 10.2682065963745
v 11.5576982498169 16 9.56135940551758
l 193 194
v 10.2682065963745 16 10.9345293045044
v 10.9345293045044 16 10.2682065963745
l 195 196
v 3.73034834861755 16 14.5287466049194
v 4.63525485992432 16 14.2658472061157
l 197 198
v 9.56135940551758 16 11.5576982498169
v 10.2682065963745 16 10.9345293045044
l 199 200
v -11.5576982498169 -8 -9.56135940551758
v -10.9345293045044 -8 -10.2682065963745
l 201 202
v -10.9345293045044 -8 -10.2682065963745
v -10.2682065963745 -8 -10.9345293045044
l 203 204
v -10.2682065963745 -8 -10.9345293045044
v -9.56135940551758 -8 -11.5576982498169
l 205 206
v -9.56135940551758 -8 -11.5576982498169
v -8.8167781829834 -8 -12.1352548599243
l 207 208
v -12.6649188995361 -8 -8.03740215301514
v -12.1352548599243 -8 -8.8167781829834
l 209 210
v -12.1352548599243 -8 -8.8167781829834
v -11.5576982498169 -8 -9.56135940551758
l 211 212
v -8.8167781829834 -8 -12.1352548599243
v -8.03740215301514 -8 -12.6649188995361
l 213 214
v -8.03740215301514 -8 -12.6649188995361
v -7.22630500793457 -8 -13.1446008682251
l 215 216
v -13.5724058151245 -8 -6.38668966293335
v -13.1446008682251 -8 -7.22630500793457
l 217 218
v -13.1446008682251 -8 -7.22630500793457
v -12.6649188995361 -8 -8.03740215301514
l 219 220
v -7.22630500793457 -8 -13.1446008682251
v -6.38668966293335 -8 -13.5724058151245
l 221 222
v -5.52186822891235 -8 -13.946647644043
v -4.63525485992432 -8 -14.2658472061157
l 223 224
v -4.63525485992432 -8 -14.2658472061157
v -3.73034834861755 -8 -14.5287466049194
l 225 226
v -14.7343082427979 -8 -2.81071972846985
v -14.5287466049194 -8 -3.73034834861755
l 227 228
v -14.5287466049194 -8 -3.73034834861755
v -14.2658472061157 -8 -4.63525485992432
l 229 230
v -14.2658472061157 -8 -4.63525485992432
v -13.946647644043 -8 -5.52186822891235
l 231 232
v -13.946647644043 -8 -5.52186822891235
v -13.5724058151245 -8 -6.38668966293335
l 233 234
v -6.38668966293335 -8 -13.5724058151245
v -5.52186822891235 -8 -13.946647644043
l 235 236
v -3.73034834861755 -8 -14.5287466049194
v -2.81071972846985 -8 -14.7343082427979
l 237 238
v -2.81071972846985 -8 -14.7343082427979
v -1.87999856472015 -8 -14.8817205429077
l 239 240
v -1.87999856472015 -8 -14.8817205429077
v -0.941857814788818 -8 -14.970401763916
l 241 242
v -14.970401763916 -8 0.941857814788818
v -15 -8 -3.81310583693999e-14
l 243 244
v -15 -8 -3.81310583693999e-14
v -14.970401763916 -8 -0.941857814788818
l 245 246
v -14.970401763916 -8 -0.941857814788818
v -14.8817205429077 -8 -1.87999856472015
l 247 248
v -14.8817205429077 -8 -1.87999856472015
v -14.7343082427979 -8 -2.81071972846985
l 249 250
v 0.941857814788818 -8 -14.970401763916
v 1.87999856472015 -8 -14.8817205429077
l 251 252
v 1.87999856472015 -8 -14.8817205429077
v 2.81071972846985 -8 -14.7343082427979
l 253 254
v -14.5287466049194 -8 3.73034834861755
v -14.7343082427979 -8 2.81071972846985
l 255 256
v -14.7343082427979 -8 2.81071972846985
v -14.8817205429077 -8 1.87999856472015
l 257 258
v 2.81071972846985 -8 -14.7343082427979
v 3.73034834861755 -8 -14.5287466049194
l 259 260
v -14.8817205429077 -8 1.87999856472015
v -14.970401763916 -8 0.941857814788818
l 261 262
v -14.2658472061157 -8 4.63525485992432
v -14.5287466049194 -8 3.73034834861755
l 263 264
v 3.73034834861755 -8 -14.5287466049194
v 4.63525485992432 -8 -14.2658472061157
l 265 266
v -0.941857814788818 -8 -14.970401763916
v -2.75545535214218e-15 -8 -15
l 267 268
v -2.75545535214218e-15 -8 -15
v 0.941857814788818 -8 -14.970401763916
l 269 270
v -13.946647644043 -8 5.52186822891235
v -14.2658472061157 -8 4.63525485992432
l 271 272
v 4.63525485992432 -8 -14.2658472061157
v 5.52186822891235 -8 -13.946647644043
l 273 274
v 5.52186822891235 -8 -13.946647644043
v 6.38668966293335 -8 -13.5724058151245
l 275 276
v -13.5724058151245 -8 6.38668966293335
v -13.946647644043 -8 5.52186822891235
l 277 278
v -12.6649188995361 -8 8.03740215301514
v -13.1446008682251 -8 7.22630500793457
l 279 280
v -13.1446008682251 -8 7.22630500793457
v -13.5724058151245 -8 6.38668966293335
l 281 282
v -12.1352548599243 -8 8.8167781829834
v -12.6649188995361 -8 8.03740215301514
l 283 284
v 6.38668966293335 -8 -13.5724058151245
v 7.22630500793457 -8 -13.1446008682251
l 285 286
v -11.5576982498169 -8 9.56135940551758
v -12.1352548599243 -8 8.8167781829834
l 287 288
v 8.03740215301514 -8 -12.6649188995361
v 8.8167781829834 -8 -12.1352548599243
l 289 290
v 8.8167781829834 -8 -12.1352548599243
v 9.56135940551758 -8 -11.5576982498169
l 291 292
v 9.56135940551758 -8 -11.5576982498169
v 10.2682065963745 -8 -10.9345293045044
l 293 294
v 7.22630500793457 -8 -13.1446008682251
v 8.03740215301514 -8 -12.6649188995361
l 295 296
v 10.2682065963745 -8 -10.9345293045044
v 10.9345293045044 -8 -10.2682065963745
l 297 298
v 10.9345293045044 -8 -10.2682065963745
v 11.5576982498169 -8 -9.56135940551758
l 299 300
v -8.8167781829834 -8 12.1352548599243
v -9.56135940551758 -8 11.5576982498169
l 301 302
v -9.56135940551758 -8 11.5576982498169
v -10.2682065963745 -8 10.9345293045044
l 303 304
v -10.2682065963745 -8 10.9345293045044
v -10.9345293045044 -8 10.2682065963745
l 305 306
v -7.22630500793457 -8 13.1446008682251
v -8.03740215301514 -8 12.6649188995361
l 307 308
v -8.03740215301514 -8 12.6649188995361
v -8.8167781829834 -8 12.1352548599243
l 309 310
v -10.9345293045044 -8 10.2682065963745
v -11.5576982498169 -8 9.56135940551758
l 311 312
v 12.6649188995361 -8 -8.03740215301514
v 13.1446008682251 -8 -7.22630500793457
l 313 314
v 13.1446008682251 -8 -7.22630500793457
v 13.5724058151245 -8 -6.38668966293335
l 315 316
v -6.38668966293335 -8 13.5724058151245
v -7.22630500793457 -8 13.1446008682251
l 317 318
v 11.5576982498169 -8 -9.56135940551758
v 12.1352548599243 -8 -8.8167781829834
l 319 320
v 12.1352548599243 -8 -8.8167781829834
v 12.6649188995361 -8 -8.03740215301514
l 321 322
v 13.5724058151245 -8 -6.38668966293335
v 13.946647644043 -8 -5.52186822891235
l 323 324
v 13.946647644043 -8 -5.52186822891235
v 14.2658472061157 -8 -4.63525485992432
l 325 326
v -3.73034834861755 -8 14.5287466049194
v -4.63525485992432 -8 14.2658472061157
l 327 328
v -4.63525485992432 -8 14.2658472061157
v -5.52186822891235 -8 13.946647644043
l 329 330
v -5.52186822891235 -8 13.946647644043
v -6.38668966293335 -8 13.5724058151245
l 331 332
v 14.2658472061157 -8 -4.63525485992432
v 14.5287466049194 -8 -3.73034834861755
l 333 334
v 14.5287466049194 -8 -3.73034834861755
v 14.7343082427979 -8 -2.81071972846985
l 335 336
v 14.7343082427979 -8 -2.81071972846985
v 14.8817205429077 -8 -1.87999856472015
l 337 338
v 14.8817205429077 -8 -1.87999856472015
v 14.970401763916 -8 -0.941857814788818
l 339 340
v 14.970401763916 -8 -0.941857814788818
v 15 -8 -3.67399990300137e-15
l 341 342
v 1.87999856472015 -8 14.8817205429077
v 0.941857814788818 -8 14.970401763916
l 343 344
v 0.941857814788818 -8 14.970401763916
v -9.07352196307352e-15 -8 15
l 345 346
v -9.07352196307352e-15 -8 15
v -0.941857814788818 -8 14.970401763916
l 347 348
v -0.941857814788818 -8 14.970401763916
v -1.87999856472015 -8 14.8817205429077
l 349 350
v -1.87999856472015 -8 14.8817205429077
v -2.81071972846985 -8 14.7343082427979
l 351 352
v -2.81071972846985 -8 14.7343082427979
v -3.73034834861755 -8 14.5287466049194
l 353 354
v 15 -8 -3.67399990300137e-15
v 14.970401763916 -8 0.941857814788818
l 355 356
v 14.970401763916 -8 0.941857814788818
v 14.8817205429077 -8 1.87999856472015
l 357 358
v 14.8817205429077 -8 1.87999856472015
v 14.7343082427979 -8 2.81071972846985
l 359 360
v 14.7343082427979 -8 2.81071972846985
v 14.5287466049194 -8 3.73034834861755
l 361 362
v 3.73034834861755 -8 14.5287466049194
v 2.81071972846985 -8 14.7343082427979
l 363 364
v 2.81071972846985 -8 14.7343082427979
v 1.87999856472015 -8 14.8817205429077
l 365 366
v 14.5287466049194 -8 3.73034834861755
v 14.2658472061157 -8 4.63525485992432
l 367 368
v 14.2658472061157 -8 4.63525485992432
v 13.946647644043 -8 5.52186822891235
l 369 370
v 13.946647644043 -8 5.52186822891235
v 13.5724058151245 -8 6.38668966293335
l 371 372
v 13.5724058151245 -8 6.38668966293335
v 13.1446008682251 -8 7.22630500793457
l 373 374
v 8.03740215301514 -8 12.6649188995361
v 7.22630500793457 -8 13.1446008682251
l 375 376
v 7.22630500793457 -8 13.1446008682251
v 6.38668966293335 -8 13.5724058151245
l 377 378
v 13.1446008682251 -8 7.22630500793457
v 12.6649188995361 -8 8.03740215301514
l 379 380
v 6.38668966293335 -8 13.5724058151245
v 5.52186822891235 -8 13.946647644043
l 381 382
v 5.52186822891235 -8 13.946647644043
v 4.63525485992432 -8 14.2658472061157
l 383 384
v 8.8167781829834 -8 12.1352548599243
v 8.03740215301514 -8 12.6649188995361
l 385 386
v 12.6649188995361 -8 8.03740215301514
v 12.1352548599243 -8 8.8167781829834
l 387 388
v 12.1352548599243 -8 8.8167781829834
v 11.5576982498169 -8 9.56135940551758
l 389 390
v 9.56135940551758 -8 11.5576982498169
v 8.8167781829834 -8 12.1352548599243
l 391 392
v 11.5576982498169 -8 9.56135940551758
v 10.9345293045044 -8 10.2682065963745
l 393 394
v 10.9345293045044 -8 10.2682065963745
v 10.2682065963745 -8 10.9345293045044
l 395 396
v 4.63525485992432 -8 14.2658472061157
v 3.73034834861755 -8 14.5287466049194
l 397 398
v 10.2682065963745 -8 10.9345293045044
v 9.56135940551758 -8 11.5576982498169
l 399 400
