solid MeshRefinement001
 facet normal 0.9980266690254211 1.3942357526430346e-17 -0.06279079616069794
  outer loop
   vertex 0.6 -4.0 1.4695761426340716e-16
   vertex 0.595268798828125 -4.0 -0.07519994354248047
   vertex 0.6 33.0 8.362608348855272e-15
  endloop
 endfacet
 facet normal 0.9980266690254211 0.0 -0.06279079616069794
  outer loop
   vertex 0.6 33.0 8.362608348855272e-15
   vertex 0.595268798828125 -4.0 -0.07519994354248047
   vertex 0.595268798828125 33.0 -0.07519994354248047
  endloop
 endfacet
 facet normal 0.9822872877120972 0.0 -0.18738096952438354
  outer loop
   vertex 0.595268798828125 33.0 -0.07519994354248047
   vertex 0.58114990234375 -4.0 -0.14921392822265625
   vertex 0.58114990234375 33.0 -0.14921392822265625
  endloop
 endfacet
 facet normal 0.9822872877120972 0.0 -0.18738096952438354
  outer loop
   vertex 0.595268798828125 -4.0 -0.07519994354248047
   vertex 0.58114990234375 -4.0 -0.14921392822265625
   vertex 0.595268798828125 33.0 -0.07519994354248047
  endloop
 endfacet
 facet normal 0.9510565400123596 0.0 -0.3090168833732605
  outer loop
   vertex 0.58114990234375 33.0 -0.14921392822265625
   vertex 0.5578659057617188 -4.0 -0.2208747253417969
   vertex 0.5578659057617188 33.0 -0.2208747253417969
  endloop
 endfacet
 facet normal 0.9510565400123596 0.0 -0.3090168833732605
  outer loop
   vertex 0.58114990234375 -4.0 -0.14921392822265625
   vertex 0.5578659057617188 -4.0 -0.2208747253417969
   vertex 0.58114990234375 33.0 -0.14921392822265625
  endloop
 endfacet
 facet normal 0.9048269391059875 0.0 -0.42577943205833435
  outer loop
   vertex 0.5578659057617188 33.0 -0.2208747253417969
   vertex 0.5257839965820312 -4.0 -0.2890522155761719
   vertex 0.5257839965820312 33.0 -0.2890522155761719
  endloop
 endfacet
 facet normal 0.8443278074264526 0.0 -0.5358269214630127
  outer loop
   vertex 0.5257839965820312 33.0 -0.2890522155761719
   vertex 0.5257839965820312 -4.0 -0.2890522155761719
   vertex 0.48541018676757813 33.0 -0.352671142578125
  endloop
 endfacet
 facet normal 0.9048269391059875 0.0 -0.42577943205833435
  outer loop
   vertex 0.5578659057617188 -4.0 -0.2208747253417969
   vertex 0.5257839965820312 -4.0 -0.2890522155761719
   vertex 0.5578659057617188 33.0 -0.2208747253417969
  endloop
 endfacet
 facet normal 0.8443278074264526 0.0 -0.5358269214630127
  outer loop
   vertex 0.5257839965820312 -4.0 -0.2890522155761719
   vertex 0.48541018676757813 -4.0 -0.352671142578125
   vertex 0.48541018676757813 33.0 -0.352671142578125
  endloop
 endfacet
 facet normal 0.7705132961273193 0.0 -0.6374238729476929
  outer loop
   vertex 0.48541018676757813 33.0 -0.352671142578125
   vertex 0.43738116455078124 -4.0 -0.410728271484375
   vertex 0.43738116455078124 33.0 -0.410728271484375
  endloop
 endfacet
 facet normal 0.7705132961273193 0.0 -0.6374238729476929
  outer loop
   vertex 0.48541018676757813 -4.0 -0.352671142578125
   vertex 0.43738116455078124 -4.0 -0.410728271484375
   vertex 0.48541018676757813 33.0 -0.352671142578125
  endloop
 endfacet
 facet normal 0.6845472455024719 0.0 -0.7289684414863586
  outer loop
   vertex 0.43738116455078124 33.0 -0.410728271484375
   vertex 0.38245440673828124 -4.0 -0.4623079528808594
   vertex 0.38245440673828124 33.0 -0.4623079528808594
  endloop
 endfacet
 facet normal 0.6845472455024719 0.0 -0.7289684414863586
  outer loop
   vertex 0.43738116455078124 -4.0 -0.410728271484375
   vertex 0.38245440673828124 -4.0 -0.4623079528808594
   vertex 0.43738116455078124 33.0 -0.410728271484375
  endloop
 endfacet
 facet normal 0.5877848863601685 0.0 -0.8090172410011292
  outer loop
   vertex 0.38245440673828124 33.0 -0.4623079528808594
   vertex 0.32149606323242186 -4.0 -0.5065967407226563
   vertex 0.32149606323242186 33.0 -0.5065967407226563
  endloop
 endfacet
 facet normal 0.48175400495529175 0.0 -0.8763064742088318
  outer loop
   vertex 0.32149606323242186 33.0 -0.5065967407226563
   vertex 0.32149606323242186 -4.0 -0.5065967407226563
   vertex 0.2554675750732422 33.0 -0.542896240234375
  endloop
 endfacet
 facet normal 0.5877848863601685 0.0 -0.8090172410011292
  outer loop
   vertex 0.38245440673828124 -4.0 -0.4623079528808594
   vertex 0.32149606323242186 -4.0 -0.5065967407226563
   vertex 0.38245440673828124 33.0 -0.4623079528808594
  endloop
 endfacet
 facet normal 0.48175400495529175 0.0 -0.8763064742088318
  outer loop
   vertex 0.32149606323242186 -4.0 -0.5065967407226563
   vertex 0.2554675750732422 -4.0 -0.542896240234375
   vertex 0.2554675750732422 33.0 -0.542896240234375
  endloop
 endfacet
 facet normal 0.36812448501586914 0.0 -0.9297764897346497
  outer loop
   vertex 0.2554675750732422 33.0 -0.542896240234375
   vertex 0.18541020202636718 -4.0 -0.5706339111328125
   vertex 0.18541020202636718 33.0 -0.5706339111328125
  endloop
 endfacet
 facet normal 0.2486901581287384 0.0 -0.9685830473899841
  outer loop
   vertex 0.18541020202636718 33.0 -0.5706339111328125
   vertex 0.18541020202636718 -4.0 -0.5706339111328125
   vertex 0.11242878723144531 33.0 -0.5893723754882813
  endloop
 endfacet
 facet normal 0.36812448501586914 0.0 -0.9297764897346497
  outer loop
   vertex 0.2554675750732422 -4.0 -0.542896240234375
   vertex 0.18541020202636718 -4.0 -0.5706339111328125
   vertex 0.2554675750732422 33.0 -0.542896240234375
  endloop
 endfacet
 facet normal 0.2486901581287384 0.0 -0.9685830473899841
  outer loop
   vertex 0.18541020202636718 -4.0 -0.5706339111328125
   vertex 0.11242878723144531 -4.0 -0.5893723754882813
   vertex 0.11242878723144531 33.0 -0.5893723754882813
  endloop
 endfacet
 facet normal 0.12533295154571533 0.0 -0.992114782333374
  outer loop
   vertex 0.11242878723144531 33.0 -0.5893723754882813
   vertex 0.03767431259155273 -4.0 -0.5988160400390625
   vertex 0.03767431259155273 33.0 -0.5988160400390625
  endloop
 endfacet
 facet normal -0.0 -0.0 -1.0
  outer loop
   vertex 0.03767431259155273 33.0 -0.5988160400390625
   vertex 0.03767431259155273 -4.0 -0.5988160400390625
   vertex -0.03767431259155273 33.0 -0.5988160400390625
  endloop
 endfacet
 facet normal 0.12533295154571533 0.0 -0.992114782333374
  outer loop
   vertex 0.11242878723144531 -4.0 -0.5893723754882813
   vertex 0.03767431259155273 -4.0 -0.5988160400390625
   vertex 0.11242878723144531 33.0 -0.5893723754882813
  endloop
 endfacet
 facet normal -0.12533295154571533 -0.0 -0.992114782333374
  outer loop
   vertex -0.03767431259155273 33.0 -0.5988160400390625
   vertex -0.03767431259155273 -4.0 -0.5988160400390625
   vertex -0.11242878723144531 33.0 -0.5893723754882813
  endloop
 endfacet
 facet normal 0.0 0.0 -1.0
  outer loop
   vertex 0.03767431259155273 -4.0 -0.5988160400390625
   vertex -0.03767431259155273 -4.0 -0.5988160400390625
   vertex -0.03767431259155273 33.0 -0.5988160400390625
  endloop
 endfacet
 facet normal -0.12533295154571533 0.0 -0.992114782333374
  outer loop
   vertex -0.03767431259155273 -4.0 -0.5988160400390625
   vertex -0.11242878723144531 -4.0 -0.5893723754882813
   vertex -0.11242878723144531 33.0 -0.5893723754882813
  endloop
 endfacet
 facet normal -0.2486901581287384 0.0 -0.9685830473899841
  outer loop
   vertex -0.11242878723144531 33.0 -0.5893723754882813
   vertex -0.18541020202636718 -4.0 -0.5706339111328125
   vertex -0.18541020202636718 33.0 -0.5706339111328125
  endloop
 endfacet
 facet normal -0.36812448501586914 -0.0 -0.9297764897346497
  outer loop
   vertex -0.18541020202636718 33.0 -0.5706339111328125
   vertex -0.18541020202636718 -4.0 -0.5706339111328125
   vertex -0.2554675750732422 33.0 -0.542896240234375
  endloop
 endfacet
 facet normal -0.2486901581287384 0.0 -0.9685830473899841
  outer loop
   vertex -0.11242878723144531 -4.0 -0.5893723754882813
   vertex -0.18541020202636718 -4.0 -0.5706339111328125
   vertex -0.11242878723144531 33.0 -0.5893723754882813
  endloop
 endfacet
 facet normal -0.48175400495529175 -0.0 -0.8763064742088318
  outer loop
   vertex -0.2554675750732422 33.0 -0.542896240234375
   vertex -0.2554675750732422 -4.0 -0.542896240234375
   vertex -0.32149606323242186 33.0 -0.5065967407226563
  endloop
 endfacet
 facet normal -0.36812448501586914 0.0 -0.9297764897346497
  outer loop
   vertex -0.18541020202636718 -4.0 -0.5706339111328125
   vertex -0.2554675750732422 -4.0 -0.542896240234375
   vertex -0.2554675750732422 33.0 -0.542896240234375
  endloop
 endfacet
 facet normal -0.5877848863601685 -0.0 -0.8090172410011292
  outer loop
   vertex -0.32149606323242186 33.0 -0.5065967407226563
   vertex -0.32149606323242186 -4.0 -0.5065967407226563
   vertex -0.38245440673828124 33.0 -0.4623079528808594
  endloop
 endfacet
 facet normal -0.48175400495529175 0.0 -0.8763064742088318
  outer loop
   vertex -0.2554675750732422 -4.0 -0.542896240234375
   vertex -0.32149606323242186 -4.0 -0.5065967407226563
   vertex -0.32149606323242186 33.0 -0.5065967407226563
  endloop
 endfacet
 facet normal -0.5877848863601685 0.0 -0.8090172410011292
  outer loop
   vertex -0.32149606323242186 -4.0 -0.5065967407226563
   vertex -0.38245440673828124 -4.0 -0.4623079528808594
   vertex -0.38245440673828124 33.0 -0.4623079528808594
  endloop
 endfacet
 facet normal -0.6845472455024719 0.0 -0.7289684414863586
  outer loop
   vertex -0.38245440673828124 33.0 -0.4623079528808594
   vertex -0.43738116455078124 -4.0 -0.410728271484375
   vertex -0.43738116455078124 33.0 -0.410728271484375
  endloop
 endfacet
 facet normal -0.6845472455024719 0.0 -0.7289684414863586
  outer loop
   vertex -0.38245440673828124 -4.0 -0.4623079528808594
   vertex -0.43738116455078124 -4.0 -0.410728271484375
   vertex -0.38245440673828124 33.0 -0.4623079528808594
  endloop
 endfacet
 facet normal -0.7705132961273193 0.0 -0.6374238729476929
  outer loop
   vertex -0.43738116455078124 33.0 -0.410728271484375
   vertex -0.48541018676757813 -4.0 -0.352671142578125
   vertex -0.48541018676757813 33.0 -0.352671142578125
  endloop
 endfacet
 facet normal -0.7705132961273193 0.0 -0.6374238729476929
  outer loop
   vertex -0.43738116455078124 -4.0 -0.410728271484375
   vertex -0.48541018676757813 -4.0 -0.352671142578125
   vertex -0.43738116455078124 33.0 -0.410728271484375
  endloop
 endfacet
 facet normal -0.8443278074264526 0.0 -0.5358269214630127
  outer loop
   vertex -0.48541018676757813 33.0 -0.352671142578125
   vertex -0.5257839965820312 -4.0 -0.2890522155761719
   vertex -0.5257839965820312 33.0 -0.2890522155761719
  endloop
 endfacet
 facet normal -0.9048269391059875 -0.0 -0.42577943205833435
  outer loop
   vertex -0.5257839965820312 33.0 -0.2890522155761719
   vertex -0.5257839965820312 -4.0 -0.2890522155761719
   vertex -0.5578659057617188 33.0 -0.2208747253417969
  endloop
 endfacet
 facet normal -0.8443278074264526 0.0 -0.5358269214630127
  outer loop
   vertex -0.48541018676757813 -4.0 -0.352671142578125
   vertex -0.5257839965820312 -4.0 -0.2890522155761719
   vertex -0.48541018676757813 33.0 -0.352671142578125
  endloop
 endfacet
 facet normal -0.9048269391059875 0.0 -0.42577943205833435
  outer loop
   vertex -0.5257839965820312 -4.0 -0.2890522155761719
   vertex -0.5578659057617188 -4.0 -0.2208747253417969
   vertex -0.5578659057617188 33.0 -0.2208747253417969
  endloop
 endfacet
 facet normal -0.9510565400123596 0.0 -0.3090168833732605
  outer loop
   vertex -0.5578659057617188 -4.0 -0.2208747253417969
   vertex -0.58114990234375 -4.0 -0.14921392822265625
   vertex -0.5578659057617188 33.0 -0.2208747253417969
  endloop
 endfacet
 facet normal -0.9510565400123596 0.0 -0.3090168833732605
  outer loop
   vertex -0.5578659057617188 33.0 -0.2208747253417969
   vertex -0.58114990234375 -4.0 -0.14921392822265625
   vertex -0.58114990234375 33.0 -0.14921392822265625
  endloop
 endfacet
 facet normal -0.9822872877120972 -0.0 -0.18738096952438354
  outer loop
   vertex -0.58114990234375 33.0 -0.14921392822265625
   vertex -0.58114990234375 -4.0 -0.14921392822265625
   vertex -0.595268798828125 33.0 -0.07519994354248047
  endloop
 endfacet
 facet normal -0.9822872877120972 0.0 -0.18738096952438354
  outer loop
   vertex -0.58114990234375 -4.0 -0.14921392822265625
   vertex -0.595268798828125 -4.0 -0.07519994354248047
   vertex -0.595268798828125 33.0 -0.07519994354248047
  endloop
 endfacet
 facet normal -0.9980266690254211 -0.0 -0.06279079616069794
  outer loop
   vertex -0.595268798828125 33.0 -0.07519994354248047
   vertex -0.595268798828125 -4.0 -0.07519994354248047
   vertex -0.6 33.0 8.941532410322584e-15
  endloop
 endfacet
 facet normal -0.9980266690254211 0.0 -0.06279079616069794
  outer loop
   vertex -0.595268798828125 -4.0 -0.07519994354248047
   vertex -0.6 -4.0 7.25881757045882e-16
   vertex -0.6 33.0 8.941532410322584e-15
  endloop
 endfacet
 facet normal -0.9980266690254211 0.0 0.06279079616069794
  outer loop
   vertex -0.6 33.0 8.941532410322584e-15
   vertex -0.595268798828125 -4.0 0.07519994354248047
   vertex -0.595268798828125 33.0 0.07519994354248047
  endloop
 endfacet
 facet normal -0.9980266690254211 -1.3942357526430346e-17 0.06279079616069794
  outer loop
   vertex -0.6 -4.0 7.25881757045882e-16
   vertex -0.595268798828125 -4.0 0.07519994354248047
   vertex -0.6 33.0 8.941532410322584e-15
  endloop
 endfacet
 facet normal -0.9822872877120972 0.0 0.18738096952438354
  outer loop
   vertex -0.595268798828125 -4.0 0.07519994354248047
   vertex -0.58114990234375 -4.0 0.14921392822265625
   vertex -0.595268798828125 33.0 0.07519994354248047
  endloop
 endfacet
 facet normal -0.9822872877120972 0.0 0.18738096952438354
  outer loop
   vertex -0.595268798828125 33.0 0.07519994354248047
   vertex -0.58114990234375 -4.0 0.14921392822265625
   vertex -0.58114990234375 33.0 0.14921392822265625
  endloop
 endfacet
 facet normal -0.9510565400123596 0.0 0.3090168833732605
  outer loop
   vertex -0.58114990234375 -4.0 0.14921392822265625
   vertex -0.5578659057617188 -4.0 0.2208747253417969
   vertex -0.58114990234375 33.0 0.14921392822265625
  endloop
 endfacet
 facet normal -0.9510565400123596 0.0 0.3090168833732605
  outer loop
   vertex -0.58114990234375 33.0 0.14921392822265625
   vertex -0.5578659057617188 -4.0 0.2208747253417969
   vertex -0.5578659057617188 33.0 0.2208747253417969
  endloop
 endfacet
 facet normal -0.9048269391059875 0.0 0.42577943205833435
  outer loop
   vertex -0.5578659057617188 -4.0 0.2208747253417969
   vertex -0.5257839965820312 -4.0 0.2890522155761719
   vertex -0.5578659057617188 33.0 0.2208747253417969
  endloop
 endfacet
 facet normal -0.9048269391059875 0.0 0.42577943205833435
  outer loop
   vertex -0.5578659057617188 33.0 0.2208747253417969
   vertex -0.5257839965820312 -4.0 0.2890522155761719
   vertex -0.5257839965820312 33.0 0.2890522155761719
  endloop
 endfacet
 facet normal -0.8443278074264526 0.0 0.5358269214630127
  outer loop
   vertex -0.5257839965820312 -4.0 0.2890522155761719
   vertex -0.48541018676757813 -4.0 0.352671142578125
   vertex -0.5257839965820312 33.0 0.2890522155761719
  endloop
 endfacet
 facet normal -0.8443278074264526 0.0 0.5358269214630127
  outer loop
   vertex -0.5257839965820312 33.0 0.2890522155761719
   vertex -0.48541018676757813 -4.0 0.352671142578125
   vertex -0.48541018676757813 33.0 0.352671142578125
  endloop
 endfacet
 facet normal -0.7705132961273193 0.0 0.6374238729476929
  outer loop
   vertex -0.48541018676757813 -4.0 0.352671142578125
   vertex -0.43738116455078124 -4.0 0.410728271484375
   vertex -0.48541018676757813 33.0 0.352671142578125
  endloop
 endfacet
 facet normal -0.7705132961273193 0.0 0.6374238729476929
  outer loop
   vertex -0.48541018676757813 33.0 0.352671142578125
   vertex -0.43738116455078124 -4.0 0.410728271484375
   vertex -0.43738116455078124 33.0 0.410728271484375
  endloop
 endfacet
 facet normal -0.6845472455024719 0.0 0.7289684414863586
  outer loop
   vertex -0.43738116455078124 33.0 0.410728271484375
   vertex -0.38245440673828124 -4.0 0.4623079528808594
   vertex -0.38245440673828124 33.0 0.4623079528808594
  endloop
 endfacet
 facet normal -0.6845472455024719 0.0 0.7289684414863586
  outer loop
   vertex -0.43738116455078124 -4.0 0.410728271484375
   vertex -0.38245440673828124 -4.0 0.4623079528808594
   vertex -0.43738116455078124 33.0 0.410728271484375
  endloop
 endfacet
 facet normal -0.5877848863601685 0.0 0.8090172410011292
  outer loop
   vertex -0.38245440673828124 33.0 0.4623079528808594
   vertex -0.32149606323242186 -4.0 0.5065967407226563
   vertex -0.32149606323242186 33.0 0.5065967407226563
  endloop
 endfacet
 facet normal -0.5877848863601685 0.0 0.8090172410011292
  outer loop
   vertex -0.38245440673828124 -4.0 0.4623079528808594
   vertex -0.32149606323242186 -4.0 0.5065967407226563
   vertex -0.38245440673828124 33.0 0.4623079528808594
  endloop
 endfacet
 facet normal -0.48175400495529175 0.0 0.8763064742088318
  outer loop
   vertex -0.32149606323242186 33.0 0.5065967407226563
   vertex -0.2554675750732422 -4.0 0.542896240234375
   vertex -0.2554675750732422 33.0 0.542896240234375
  endloop
 endfacet
 facet normal -0.48175400495529175 0.0 0.8763064742088318
  outer loop
   vertex -0.32149606323242186 -4.0 0.5065967407226563
   vertex -0.2554675750732422 -4.0 0.542896240234375
   vertex -0.32149606323242186 33.0 0.5065967407226563
  endloop
 endfacet
 facet normal -0.36812448501586914 0.0 0.9297764897346497
  outer loop
   vertex -0.2554675750732422 33.0 0.542896240234375
   vertex -0.18541020202636718 -4.0 0.5706339111328125
   vertex -0.18541020202636718 33.0 0.5706339111328125
  endloop
 endfacet
 facet normal -0.2486901581287384 0.0 0.9685830473899841
  outer loop
   vertex -0.18541020202636718 33.0 0.5706339111328125
   vertex -0.18541020202636718 -4.0 0.5706339111328125
   vertex -0.11242878723144531 33.0 0.5893723754882813
  endloop
 endfacet
 facet normal -0.36812448501586914 0.0 0.9297764897346497
  outer loop
   vertex -0.2554675750732422 -4.0 0.542896240234375
   vertex -0.18541020202636718 -4.0 0.5706339111328125
   vertex -0.2554675750732422 33.0 0.542896240234375
  endloop
 endfacet
 facet normal -0.2486901581287384 0.0 0.9685830473899841
  outer loop
   vertex -0.18541020202636718 -4.0 0.5706339111328125
   vertex -0.11242878723144531 -4.0 0.5893723754882813
   vertex -0.11242878723144531 33.0 0.5893723754882813
  endloop
 endfacet
 facet normal -0.12533295154571533 0.0 0.992114782333374
  outer loop
   vertex -0.11242878723144531 33.0 0.5893723754882813
   vertex -0.03767431259155273 -4.0 0.5988160400390625
   vertex -0.03767431259155273 33.0 0.5988160400390625
  endloop
 endfacet
 facet normal -0.12533295154571533 0.0 0.992114782333374
  outer loop
   vertex -0.11242878723144531 -4.0 0.5893723754882813
   vertex -0.03767431259155273 -4.0 0.5988160400390625
   vertex -0.11242878723144531 33.0 0.5893723754882813
  endloop
 endfacet
 facet normal -0.0 0.0 1.0
  outer loop
   vertex -0.03767431259155273 33.0 0.5988160400390625
   vertex 0.03767431259155273 -4.0 0.5988160400390625
   vertex 0.03767431259155273 33.0 0.5988160400390625
  endloop
 endfacet
 facet normal 0.12533295154571533 0.0 0.992114782333374
  outer loop
   vertex 0.03767431259155273 33.0 0.5988160400390625
   vertex 0.03767431259155273 -4.0 0.5988160400390625
   vertex 0.11242878723144531 33.0 0.5893723754882813
  endloop
 endfacet
 facet normal 0.0 0.0 1.0
  outer loop
   vertex -0.03767431259155273 -4.0 0.5988160400390625
   vertex 0.03767431259155273 -4.0 0.5988160400390625
   vertex -0.03767431259155273 33.0 0.5988160400390625
  endloop
 endfacet
 facet normal 0.12533295154571533 0.0 0.992114782333374
  outer loop
   vertex 0.03767431259155273 -4.0 0.5988160400390625
   vertex 0.11242878723144531 -4.0 0.5893723754882813
   vertex 0.11242878723144531 33.0 0.5893723754882813
  endloop
 endfacet
 facet normal 0.2486901581287384 0.0 0.9685830473899841
  outer loop
   vertex 0.11242878723144531 33.0 0.5893723754882813
   vertex 0.18541020202636718 -4.0 0.5706339111328125
   vertex 0.18541020202636718 33.0 0.5706339111328125
  endloop
 endfacet
 facet normal 0.2486901581287384 -0.0 0.9685830473899841
  outer loop
   vertex 0.11242878723144531 -4.0 0.5893723754882813
   vertex 0.18541020202636718 -4.0 0.5706339111328125
   vertex 0.11242878723144531 33.0 0.5893723754882813
  endloop
 endfacet
 facet normal 0.36812448501586914 0.0 0.9297764897346497
  outer loop
   vertex 0.18541020202636718 33.0 0.5706339111328125
   vertex 0.2554675750732422 -4.0 0.542896240234375
   vertex 0.2554675750732422 33.0 0.542896240234375
  endloop
 endfacet
 facet normal 0.48175400495529175 0.0 0.8763064742088318
  outer loop
   vertex 0.2554675750732422 33.0 0.542896240234375
   vertex 0.2554675750732422 -4.0 0.542896240234375
   vertex 0.32149606323242186 33.0 0.5065967407226563
  endloop
 endfacet
 facet normal 0.36812448501586914 -0.0 0.9297764897346497
  outer loop
   vertex 0.18541020202636718 -4.0 0.5706339111328125
   vertex 0.2554675750732422 -4.0 0.542896240234375
   vertex 0.18541020202636718 33.0 0.5706339111328125
  endloop
 endfacet
 facet normal 0.48175400495529175 0.0 0.8763064742088318
  outer loop
   vertex 0.2554675750732422 -4.0 0.542896240234375
   vertex 0.32149606323242186 -4.0 0.5065967407226563
   vertex 0.32149606323242186 33.0 0.5065967407226563
  endloop
 endfacet
 facet normal 0.5877848863601685 0.0 0.8090172410011292
  outer loop
   vertex 0.32149606323242186 33.0 0.5065967407226563
   vertex 0.38245440673828124 -4.0 0.4623079528808594
   vertex 0.38245440673828124 33.0 0.4623079528808594
  endloop
 endfacet
 facet normal 0.5877848863601685 -0.0 0.8090172410011292
  outer loop
   vertex 0.32149606323242186 -4.0 0.5065967407226563
   vertex 0.38245440673828124 -4.0 0.4623079528808594
   vertex 0.32149606323242186 33.0 0.5065967407226563
  endloop
 endfacet
 facet normal 0.6845472455024719 0.0 0.7289684414863586
  outer loop
   vertex 0.38245440673828124 33.0 0.4623079528808594
   vertex 0.43738116455078124 -4.0 0.410728271484375
   vertex 0.43738116455078124 33.0 0.410728271484375
  endloop
 endfacet
 facet normal 0.7705132961273193 0.0 0.6374238729476929
  outer loop
   vertex 0.43738116455078124 33.0 0.410728271484375
   vertex 0.43738116455078124 -4.0 0.410728271484375
   vertex 0.48541018676757813 33.0 0.352671142578125
  endloop
 endfacet
 facet normal 0.6845472455024719 -0.0 0.7289684414863586
  outer loop
   vertex 0.38245440673828124 -4.0 0.4623079528808594
   vertex 0.43738116455078124 -4.0 0.410728271484375
   vertex 0.38245440673828124 33.0 0.4623079528808594
  endloop
 endfacet
 facet normal 0.7705132961273193 0.0 0.6374238729476929
  outer loop
   vertex 0.43738116455078124 -4.0 0.410728271484375
   vertex 0.48541018676757813 -4.0 0.352671142578125
   vertex 0.48541018676757813 33.0 0.352671142578125
  endloop
 endfacet
 facet normal 0.8443278074264526 0.0 0.5358269214630127
  outer loop
   vertex 0.48541018676757813 33.0 0.352671142578125
   vertex 0.5257839965820312 -4.0 0.2890522155761719
   vertex 0.5257839965820312 33.0 0.2890522155761719
  endloop
 endfacet
 facet normal 0.8443278074264526 -0.0 0.5358269214630127
  outer loop
   vertex 0.48541018676757813 -4.0 0.352671142578125
   vertex 0.5257839965820312 -4.0 0.2890522155761719
   vertex 0.48541018676757813 33.0 0.352671142578125
  endloop
 endfacet
 facet normal 0.9048269391059875 0.0 0.42577943205833435
  outer loop
   vertex 0.5257839965820312 33.0 0.2890522155761719
   vertex 0.5578659057617188 -4.0 0.2208747253417969
   vertex 0.5578659057617188 33.0 0.2208747253417969
  endloop
 endfacet
 facet normal 0.9048269391059875 -0.0 0.42577943205833435
  outer loop
   vertex 0.5257839965820312 -4.0 0.2890522155761719
   vertex 0.5578659057617188 -4.0 0.2208747253417969
   vertex 0.5257839965820312 33.0 0.2890522155761719
  endloop
 endfacet
 facet normal 0.9510565400123596 0.0 0.3090168833732605
  outer loop
   vertex 0.5578659057617188 33.0 0.2208747253417969
   vertex 0.58114990234375 -4.0 0.14921392822265625
   vertex 0.58114990234375 33.0 0.14921392822265625
  endloop
 endfacet
 facet normal 0.9510565400123596 -0.0 0.3090168833732605
  outer loop
   vertex 0.5578659057617188 -4.0 0.2208747253417969
   vertex 0.58114990234375 -4.0 0.14921392822265625
   vertex 0.5578659057617188 33.0 0.2208747253417969
  endloop
 endfacet
 facet normal 0.9822872877120972 0.0 0.18738096952438354
  outer loop
   vertex 0.58114990234375 33.0 0.14921392822265625
   vertex 0.595268798828125 -4.0 0.07519994354248047
   vertex 0.595268798828125 33.0 0.07519994354248047
  endloop
 endfacet
 facet normal 0.9822872877120972 -0.0 0.18738096952438354
  outer loop
   vertex 0.58114990234375 -4.0 0.14921392822265625
   vertex 0.595268798828125 -4.0 0.07519994354248047
   vertex 0.58114990234375 33.0 0.14921392822265625
  endloop
 endfacet
 facet normal 0.9980266690254211 -0.0 0.06279079616069794
  outer loop
   vertex 0.595268798828125 -4.0 0.07519994354248047
   vertex 0.6 -4.0 1.4695761426340716e-16
   vertex 0.595268798828125 33.0 0.07519994354248047
  endloop
 endfacet
 facet normal 0.9980266690254211 0.0 0.06279079616069794
  outer loop
   vertex 0.595268798828125 33.0 0.07519994354248047
   vertex 0.6 -4.0 1.4695761426340716e-16
   vertex 0.6 33.0 8.362608348855272e-15
  endloop
 endfacet
 facet normal 0.0 -1.0 0.0
  outer loop
   vertex -0.43738116455078124 -4.0 0.410728271484375
   vertex -0.32149606323242186 -4.0 0.5065967407226563
   vertex -0.38245440673828124 -4.0 0.4623079528808594
  endloop
 endfacet
 facet normal 0.0 -1.0 -0.0
  outer loop
   vertex -0.48541018676757813 -4.0 0.352671142578125
   vertex -0.5257839965820312 -4.0 0.2890522155761719
   vertex -0.43738116455078124 -4.0 0.410728271484375
  endloop
 endfacet
 facet normal 0.0 -1.0 -0.0
  outer loop
   vertex -0.5578659057617188 -4.0 0.2208747253417969
   vertex -0.58114990234375 -4.0 0.14921392822265625
   vertex -0.5257839965820312 -4.0 0.2890522155761719
  endloop
 endfacet
 facet normal 0.0 -1.0 0.0
  outer loop
   vertex -0.32149606323242186 -4.0 0.5065967407226563
   vertex -0.11242878723144531 -4.0 0.5893723754882813
   vertex -0.2554675750732422 -4.0 0.542896240234375
  endloop
 endfacet
 facet normal 0.0 -1.0 0.0
  outer loop
   vertex -0.2554675750732422 -4.0 0.542896240234375
   vertex -0.11242878723144531 -4.0 0.5893723754882813
   vertex -0.18541020202636718 -4.0 0.5706339111328125
  endloop
 endfacet
 facet normal 0.0 -1.0 0.0
  outer loop
   vertex -0.58114990234375 -4.0 0.14921392822265625
   vertex -0.11242878723144531 -4.0 0.5893723754882813
   vertex -0.5257839965820312 -4.0 0.2890522155761719
  endloop
 endfacet
 facet normal 0.0 -1.0 0.0
  outer loop
   vertex -0.43738116455078124 -4.0 0.410728271484375
   vertex -0.11242878723144531 -4.0 0.5893723754882813
   vertex -0.32149606323242186 -4.0 0.5065967407226563
  endloop
 endfacet
 facet normal 0.0 -1.0 0.0
  outer loop
   vertex -0.5257839965820312 -4.0 0.2890522155761719
   vertex -0.11242878723144531 -4.0 0.5893723754882813
   vertex -0.43738116455078124 -4.0 0.410728271484375
  endloop
 endfacet
 facet normal 0.0 -1.0 0.0
  outer loop
   vertex -0.58114990234375 -4.0 0.14921392822265625
   vertex -0.03767431259155273 -4.0 0.5988160400390625
   vertex -0.11242878723144531 -4.0 0.5893723754882813
  endloop
 endfacet
 facet normal 0.0 -1.0 0.0
  outer loop
   vertex -0.58114990234375 -4.0 0.14921392822265625
   vertex 0.03767431259155273 -4.0 0.5988160400390625
   vertex -0.03767431259155273 -4.0 0.5988160400390625
  endloop
 endfacet
 facet normal 0.0 -1.0 0.0
  outer loop
   vertex -0.6 -4.0 7.25881757045882e-16
   vertex -0.595268798828125 -4.0 -0.07519994354248047
   vertex -0.595268798828125 -4.0 0.07519994354248047
  endloop
 endfacet
 facet normal 0.0 -1.0 0.0
  outer loop
   vertex -0.595268798828125 -4.0 0.07519994354248047
   vertex -0.595268798828125 -4.0 -0.07519994354248047
   vertex -0.58114990234375 -4.0 0.14921392822265625
  endloop
 endfacet
 facet normal 0.0 -1.0 0.0
  outer loop
   vertex 0.03767431259155273 -4.0 0.5988160400390625
   vertex 0.18541020202636718 -4.0 0.5706339111328125
   vertex 0.11242878723144531 -4.0 0.5893723754882813
  endloop
 endfacet
 facet normal 0.0 -1.0 0.0
  outer loop
   vertex -0.5578659057617188 -4.0 -0.2208747253417969
   vertex -0.5257839965820312 -4.0 -0.2890522155761719
   vertex -0.58114990234375 -4.0 -0.14921392822265625
  endloop
 endfacet
 facet normal 0.0 -1.0 0.0
  outer loop
   vertex -0.58114990234375 -4.0 -0.14921392822265625
   vertex -0.5257839965820312 -4.0 -0.2890522155761719
   vertex -0.595268798828125 -4.0 -0.07519994354248047
  endloop
 endfacet
 facet normal 0.0 -1.0 0.0
  outer loop
   vertex -0.595268798828125 -4.0 -0.07519994354248047
   vertex -0.5257839965820312 -4.0 -0.2890522155761719
   vertex -0.58114990234375 -4.0 0.14921392822265625
  endloop
 endfacet
 facet normal 0.0 -1.0 0.0
  outer loop
   vertex -0.58114990234375 -4.0 0.14921392822265625
   vertex -0.5257839965820312 -4.0 -0.2890522155761719
   vertex 0.03767431259155273 -4.0 0.5988160400390625
  endloop
 endfacet
 facet normal 0.0 -1.0 -0.0
  outer loop
   vertex 0.03767431259155273 -4.0 0.5988160400390625
   vertex -0.5257839965820312 -4.0 -0.2890522155761719
   vertex 0.18541020202636718 -4.0 0.5706339111328125
  endloop
 endfacet
 facet normal 0.0 -1.0 0.0
  outer loop
   vertex 0.18541020202636718 -4.0 0.5706339111328125
   vertex 0.38245440673828124 -4.0 0.4623079528808594
   vertex 0.2554675750732422 -4.0 0.542896240234375
  endloop
 endfacet
 facet normal 0.0 -1.0 0.0
  outer loop
   vertex 0.2554675750732422 -4.0 0.542896240234375
   vertex 0.38245440673828124 -4.0 0.4623079528808594
   vertex 0.32149606323242186 -4.0 0.5065967407226563
  endloop
 endfacet
 facet normal 0.0 -1.0 0.0
  outer loop
   vertex -0.48541018676757813 -4.0 -0.352671142578125
   vertex -0.43738116455078124 -4.0 -0.410728271484375
   vertex -0.5257839965820312 -4.0 -0.2890522155761719
  endloop
 endfacet
 facet normal 0.0 -1.0 0.0
  outer loop
   vertex 0.38245440673828124 -4.0 0.4623079528808594
   vertex 0.48541018676757813 -4.0 0.352671142578125
   vertex 0.43738116455078124 -4.0 0.410728271484375
  endloop
 endfacet
 facet normal 0.0 -1.0 0.0
  outer loop
   vertex 0.38245440673828124 -4.0 0.4623079528808594
   vertex 0.5257839965820312 -4.0 0.2890522155761719
   vertex 0.48541018676757813 -4.0 0.352671142578125
  endloop
 endfacet
 facet normal 0.0 -1.0 0.0
  outer loop
   vertex -0.32149606323242186 -4.0 -0.5065967407226563
   vertex -0.2554675750732422 -4.0 -0.542896240234375
   vertex -0.38245440673828124 -4.0 -0.4623079528808594
  endloop
 endfacet
 facet normal 0.0 -1.0 0.0
  outer loop
   vertex -0.38245440673828124 -4.0 -0.4623079528808594
   vertex -0.2554675750732422 -4.0 -0.542896240234375
   vertex -0.43738116455078124 -4.0 -0.410728271484375
  endloop
 endfacet
 facet normal 0.0 -1.0 0.0
  outer loop
   vertex 0.5257839965820312 -4.0 0.2890522155761719
   vertex 0.58114990234375 -4.0 0.14921392822265625
   vertex 0.5578659057617188 -4.0 0.2208747253417969
  endloop
 endfacet
 facet normal 0.0 -1.0 0.0
  outer loop
   vertex -0.2554675750732422 -4.0 -0.542896240234375
   vertex -0.11242878723144531 -4.0 -0.5893723754882813
   vertex -0.43738116455078124 -4.0 -0.410728271484375
  endloop
 endfacet
 facet normal 0.0 -1.0 0.0
  outer loop
   vertex -0.18541020202636718 -4.0 -0.5706339111328125
   vertex -0.11242878723144531 -4.0 -0.5893723754882813
   vertex -0.2554675750732422 -4.0 -0.542896240234375
  endloop
 endfacet
 facet normal 0.0 -1.0 0.0
  outer loop
   vertex 0.58114990234375 -4.0 0.14921392822265625
   vertex 0.6 -4.0 1.4695761426340716e-16
   vertex 0.595268798828125 -4.0 0.07519994354248047
  endloop
 endfacet
 facet normal 0.0 -1.0 0.0
  outer loop
   vertex -0.03767431259155273 -4.0 -0.5988160400390625
   vertex 0.03767431259155273 -4.0 -0.5988160400390625
   vertex -0.11242878723144531 -4.0 -0.5893723754882813
  endloop
 endfacet
 facet normal 0.0 -1.0 0.0
  outer loop
   vertex -0.43738116455078124 -4.0 -0.410728271484375
   vertex 0.18541020202636718 -4.0 -0.5706339111328125
   vertex -0.5257839965820312 -4.0 -0.2890522155761719
  endloop
 endfacet
 facet normal -0.0 -1.0 0.0
  outer loop
   vertex 0.11242878723144531 -4.0 -0.5893723754882813
   vertex 0.18541020202636718 -4.0 -0.5706339111328125
   vertex 0.03767431259155273 -4.0 -0.5988160400390625
  endloop
 endfacet
 facet normal 0.0 -1.0 0.0
  outer loop
   vertex -0.11242878723144531 -4.0 -0.5893723754882813
   vertex 0.18541020202636718 -4.0 -0.5706339111328125
   vertex -0.43738116455078124 -4.0 -0.410728271484375
  endloop
 endfacet
 facet normal 0.0 -1.0 0.0
  outer loop
   vertex 0.03767431259155273 -4.0 -0.5988160400390625
   vertex 0.18541020202636718 -4.0 -0.5706339111328125
   vertex -0.11242878723144531 -4.0 -0.5893723754882813
  endloop
 endfacet
 facet normal 0.0 -1.0 0.0
  outer loop
   vertex -0.5257839965820312 -4.0 -0.2890522155761719
   vertex 0.18541020202636718 -4.0 -0.5706339111328125
   vertex 0.18541020202636718 -4.0 0.5706339111328125
  endloop
 endfacet
 facet normal 0.0 -1.0 0.0
  outer loop
   vertex 0.6 -4.0 1.4695761426340716e-16
   vertex 0.5578659057617188 -4.0 -0.2208747253417969
   vertex 0.595268798828125 -4.0 -0.07519994354248047
  endloop
 endfacet
 facet normal 0.0 -1.0 0.0
  outer loop
   vertex 0.595268798828125 -4.0 -0.07519994354248047
   vertex 0.5578659057617188 -4.0 -0.2208747253417969
   vertex 0.58114990234375 -4.0 -0.14921392822265625
  endloop
 endfacet
 facet normal 0.0 -1.0 0.0
  outer loop
   vertex 0.38245440673828124 -4.0 0.4623079528808594
   vertex 0.5578659057617188 -4.0 -0.2208747253417969
   vertex 0.5257839965820312 -4.0 0.2890522155761719
  endloop
 endfacet
 facet normal 0.0 -1.0 0.0
  outer loop
   vertex 0.5257839965820312 -4.0 0.2890522155761719
   vertex 0.5578659057617188 -4.0 -0.2208747253417969
   vertex 0.58114990234375 -4.0 0.14921392822265625
  endloop
 endfacet
 facet normal 0.0 -1.0 -0.0
  outer loop
   vertex 0.58114990234375 -4.0 0.14921392822265625
   vertex 0.5578659057617188 -4.0 -0.2208747253417969
   vertex 0.6 -4.0 1.4695761426340716e-16
  endloop
 endfacet
 facet normal 0.0 -1.0 0.0
  outer loop
   vertex 0.18541020202636718 -4.0 -0.5706339111328125
   vertex 0.5578659057617188 -4.0 -0.2208747253417969
   vertex 0.18541020202636718 -4.0 0.5706339111328125
  endloop
 endfacet
 facet normal 0.0 -1.0 0.0
  outer loop
   vertex 0.18541020202636718 -4.0 0.5706339111328125
   vertex 0.5578659057617188 -4.0 -0.2208747253417969
   vertex 0.38245440673828124 -4.0 0.4623079528808594
  endloop
 endfacet
 facet normal 0.0 -1.0 0.0
  outer loop
   vertex 0.18541020202636718 -4.0 -0.5706339111328125
   vertex 0.5257839965820312 -4.0 -0.2890522155761719
   vertex 0.5578659057617188 -4.0 -0.2208747253417969
  endloop
 endfacet
 facet normal -0.0 -1.0 0.0
  outer loop
   vertex 0.2554675750732422 -4.0 -0.542896240234375
   vertex 0.32149606323242186 -4.0 -0.5065967407226563
   vertex 0.18541020202636718 -4.0 -0.5706339111328125
  endloop
 endfacet
 facet normal 0.0 -1.0 0.0
  outer loop
   vertex 0.5257839965820312 -4.0 -0.2890522155761719
   vertex 0.43738116455078124 -4.0 -0.410728271484375
   vertex 0.48541018676757813 -4.0 -0.352671142578125
  endloop
 endfacet
 facet normal -0.0 -1.0 0.0
  outer loop
   vertex 0.38245440673828124 -4.0 -0.4623079528808594
   vertex 0.43738116455078124 -4.0 -0.410728271484375
   vertex 0.32149606323242186 -4.0 -0.5065967407226563
  endloop
 endfacet
 facet normal 0.0 -1.0 0.0
  outer loop
   vertex 0.18541020202636718 -4.0 -0.5706339111328125
   vertex 0.43738116455078124 -4.0 -0.410728271484375
   vertex 0.5257839965820312 -4.0 -0.2890522155761719
  endloop
 endfacet
 facet normal -0.0 -1.0 0.0
  outer loop
   vertex 0.32149606323242186 -4.0 -0.5065967407226563
   vertex 0.43738116455078124 -4.0 -0.410728271484375
   vertex 0.18541020202636718 -4.0 -0.5706339111328125
  endloop
 endfacet
 facet normal 0.0 1.0 0.0
  outer loop
   vertex -0.32149606323242186 33.0 0.5065967407226563
   vertex -0.43738116455078124 33.0 0.410728271484375
   vertex -0.38245440673828124 33.0 0.4623079528808594
  endloop
 endfacet
 facet normal 0.0 1.0 0.0
  outer loop
   vertex -0.5257839965820312 33.0 0.2890522155761719
   vertex -0.48541018676757813 33.0 0.352671142578125
   vertex -0.43738116455078124 33.0 0.410728271484375
  endloop
 endfacet
 facet normal 0.0 1.0 0.0
  outer loop
   vertex -0.58114990234375 33.0 0.14921392822265625
   vertex -0.5578659057617188 33.0 0.2208747253417969
   vertex -0.5257839965820312 33.0 0.2890522155761719
  endloop
 endfacet
 facet normal 0.0 1.0 0.0
  outer loop
   vertex -0.11242878723144531 33.0 0.5893723754882813
   vertex -0.32149606323242186 33.0 0.5065967407226563
   vertex -0.2554675750732422 33.0 0.542896240234375
  endloop
 endfacet
 facet normal 0.0 1.0 0.0
  outer loop
   vertex -0.11242878723144531 33.0 0.5893723754882813
   vertex -0.2554675750732422 33.0 0.542896240234375
   vertex -0.18541020202636718 33.0 0.5706339111328125
  endloop
 endfacet
 facet normal 0.0 1.0 0.0
  outer loop
   vertex -0.11242878723144531 33.0 0.5893723754882813
   vertex -0.58114990234375 33.0 0.14921392822265625
   vertex -0.5257839965820312 33.0 0.2890522155761719
  endloop
 endfacet
 facet normal 0.0 1.0 0.0
  outer loop
   vertex -0.11242878723144531 33.0 0.5893723754882813
   vertex -0.43738116455078124 33.0 0.410728271484375
   vertex -0.32149606323242186 33.0 0.5065967407226563
  endloop
 endfacet
 facet normal 0.0 1.0 0.0
  outer loop
   vertex -0.11242878723144531 33.0 0.5893723754882813
   vertex -0.5257839965820312 33.0 0.2890522155761719
   vertex -0.43738116455078124 33.0 0.410728271484375
  endloop
 endfacet
 facet normal 0.0 1.0 0.0
  outer loop
   vertex -0.03767431259155273 33.0 0.5988160400390625
   vertex -0.58114990234375 33.0 0.14921392822265625
   vertex -0.11242878723144531 33.0 0.5893723754882813
  endloop
 endfacet
 facet normal 0.0 1.0 0.0
  outer loop
   vertex 0.03767431259155273 33.0 0.5988160400390625
   vertex -0.58114990234375 33.0 0.14921392822265625
   vertex -0.03767431259155273 33.0 0.5988160400390625
  endloop
 endfacet
 facet normal 0.0 1.0 -0.0
  outer loop
   vertex -0.595268798828125 33.0 -0.07519994354248047
   vertex -0.6 33.0 8.941532410322584e-15
   vertex -0.595268798828125 33.0 0.07519994354248047
  endloop
 endfacet
 facet normal 0.0 1.0 0.0
  outer loop
   vertex -0.595268798828125 33.0 -0.07519994354248047
   vertex -0.595268798828125 33.0 0.07519994354248047
   vertex -0.58114990234375 33.0 0.14921392822265625
  endloop
 endfacet
 facet normal 0.0 1.0 0.0
  outer loop
   vertex 0.18541020202636718 33.0 0.5706339111328125
   vertex 0.03767431259155273 33.0 0.5988160400390625
   vertex 0.11242878723144531 33.0 0.5893723754882813
  endloop
 endfacet
 facet normal 0.0 1.0 0.0
  outer loop
   vertex -0.5257839965820312 33.0 -0.2890522155761719
   vertex -0.5578659057617188 33.0 -0.2208747253417969
   vertex -0.58114990234375 33.0 -0.14921392822265625
  endloop
 endfacet
 facet normal 0.0 1.0 0.0
  outer loop
   vertex -0.5257839965820312 33.0 -0.2890522155761719
   vertex -0.58114990234375 33.0 -0.14921392822265625
   vertex -0.595268798828125 33.0 -0.07519994354248047
  endloop
 endfacet
 facet normal 0.0 1.0 0.0
  outer loop
   vertex -0.5257839965820312 33.0 -0.2890522155761719
   vertex -0.595268798828125 33.0 -0.07519994354248047
   vertex -0.58114990234375 33.0 0.14921392822265625
  endloop
 endfacet
 facet normal 0.0 1.0 -0.0
  outer loop
   vertex -0.5257839965820312 33.0 -0.2890522155761719
   vertex -0.58114990234375 33.0 0.14921392822265625
   vertex 0.03767431259155273 33.0 0.5988160400390625
  endloop
 endfacet
 facet normal 0.0 1.0 0.0
  outer loop
   vertex -0.5257839965820312 33.0 -0.2890522155761719
   vertex 0.03767431259155273 33.0 0.5988160400390625
   vertex 0.18541020202636718 33.0 0.5706339111328125
  endloop
 endfacet
 facet normal 0.0 1.0 0.0
  outer loop
   vertex 0.38245440673828124 33.0 0.4623079528808594
   vertex 0.18541020202636718 33.0 0.5706339111328125
   vertex 0.2554675750732422 33.0 0.542896240234375
  endloop
 endfacet
 facet normal 0.0 1.0 0.0
  outer loop
   vertex 0.38245440673828124 33.0 0.4623079528808594
   vertex 0.2554675750732422 33.0 0.542896240234375
   vertex 0.32149606323242186 33.0 0.5065967407226563
  endloop
 endfacet
 facet normal 0.0 1.0 0.0
  outer loop
   vertex -0.43738116455078124 33.0 -0.410728271484375
   vertex -0.48541018676757813 33.0 -0.352671142578125
   vertex -0.5257839965820312 33.0 -0.2890522155761719
  endloop
 endfacet
 facet normal 0.0 1.0 0.0
  outer loop
   vertex 0.48541018676757813 33.0 0.352671142578125
   vertex 0.38245440673828124 33.0 0.4623079528808594
   vertex 0.43738116455078124 33.0 0.410728271484375
  endloop
 endfacet
 facet normal 0.0 1.0 0.0
  outer loop
   vertex 0.5257839965820312 33.0 0.2890522155761719
   vertex 0.38245440673828124 33.0 0.4623079528808594
   vertex 0.48541018676757813 33.0 0.352671142578125
  endloop
 endfacet
 facet normal 0.0 1.0 0.0
  outer loop
   vertex -0.2554675750732422 33.0 -0.542896240234375
   vertex -0.32149606323242186 33.0 -0.5065967407226563
   vertex -0.38245440673828124 33.0 -0.4623079528808594
  endloop
 endfacet
 facet normal 0.0 1.0 0.0
  outer loop
   vertex -0.2554675750732422 33.0 -0.542896240234375
   vertex -0.38245440673828124 33.0 -0.4623079528808594
   vertex -0.43738116455078124 33.0 -0.410728271484375
  endloop
 endfacet
 facet normal 0.0 1.0 0.0
  outer loop
   vertex 0.58114990234375 33.0 0.14921392822265625
   vertex 0.5257839965820312 33.0 0.2890522155761719
   vertex 0.5578659057617188 33.0 0.2208747253417969
  endloop
 endfacet
 facet normal 0.0 1.0 0.0
  outer loop
   vertex -0.11242878723144531 33.0 -0.5893723754882813
   vertex -0.2554675750732422 33.0 -0.542896240234375
   vertex -0.43738116455078124 33.0 -0.410728271484375
  endloop
 endfacet
 facet normal 0.0 1.0 0.0
  outer loop
   vertex -0.11242878723144531 33.0 -0.5893723754882813
   vertex -0.18541020202636718 33.0 -0.5706339111328125
   vertex -0.2554675750732422 33.0 -0.542896240234375
  endloop
 endfacet
 facet normal 0.0 1.0 0.0
  outer loop
   vertex 0.6 33.0 8.362608348855272e-15
   vertex 0.58114990234375 33.0 0.14921392822265625
   vertex 0.595268798828125 33.0 0.07519994354248047
  endloop
 endfacet
 facet normal 0.0 1.0 0.0
  outer loop
   vertex 0.03767431259155273 33.0 -0.5988160400390625
   vertex -0.03767431259155273 33.0 -0.5988160400390625
   vertex -0.11242878723144531 33.0 -0.5893723754882813
  endloop
 endfacet
 facet normal 0.0 1.0 0.0
  outer loop
   vertex 0.18541020202636718 33.0 -0.5706339111328125
   vertex -0.43738116455078124 33.0 -0.410728271484375
   vertex -0.5257839965820312 33.0 -0.2890522155761719
  endloop
 endfacet
 facet normal 0.0 1.0 0.0
  outer loop
   vertex 0.18541020202636718 33.0 -0.5706339111328125
   vertex 0.11242878723144531 33.0 -0.5893723754882813
   vertex 0.03767431259155273 33.0 -0.5988160400390625
  endloop
 endfacet
 facet normal 0.0 1.0 0.0
  outer loop
   vertex 0.18541020202636718 33.0 -0.5706339111328125
   vertex -0.11242878723144531 33.0 -0.5893723754882813
   vertex -0.43738116455078124 33.0 -0.410728271484375
  endloop
 endfacet
 facet normal 0.0 1.0 0.0
  outer loop
   vertex 0.18541020202636718 33.0 -0.5706339111328125
   vertex 0.03767431259155273 33.0 -0.5988160400390625
   vertex -0.11242878723144531 33.0 -0.5893723754882813
  endloop
 endfacet
 facet normal 0.0 1.0 -0.0
  outer loop
   vertex 0.18541020202636718 33.0 -0.5706339111328125
   vertex -0.5257839965820312 33.0 -0.2890522155761719
   vertex 0.18541020202636718 33.0 0.5706339111328125
  endloop
 endfacet
 facet normal 0.0 1.0 0.0
  outer loop
   vertex 0.5578659057617188 33.0 -0.2208747253417969
   vertex 0.6 33.0 8.362608348855272e-15
   vertex 0.595268798828125 33.0 -0.07519994354248047
  endloop
 endfacet
 facet normal 0.0 1.0 0.0
  outer loop
   vertex 0.5578659057617188 33.0 -0.2208747253417969
   vertex 0.595268798828125 33.0 -0.07519994354248047
   vertex 0.58114990234375 33.0 -0.14921392822265625
  endloop
 endfacet
 facet normal 0.0 1.0 0.0
  outer loop
   vertex 0.5578659057617188 33.0 -0.2208747253417969
   vertex 0.38245440673828124 33.0 0.4623079528808594
   vertex 0.5257839965820312 33.0 0.2890522155761719
  endloop
 endfacet
 facet normal 0.0 1.0 -0.0
  outer loop
   vertex 0.5578659057617188 33.0 -0.2208747253417969
   vertex 0.5257839965820312 33.0 0.2890522155761719
   vertex 0.58114990234375 33.0 0.14921392822265625
  endloop
 endfacet
 facet normal 0.0 1.0 0.0
  outer loop
   vertex 0.5578659057617188 33.0 -0.2208747253417969
   vertex 0.58114990234375 33.0 0.14921392822265625
   vertex 0.6 33.0 8.362608348855272e-15
  endloop
 endfacet
 facet normal 0.0 1.0 0.0
  outer loop
   vertex 0.5578659057617188 33.0 -0.2208747253417969
   vertex 0.18541020202636718 33.0 -0.5706339111328125
   vertex 0.18541020202636718 33.0 0.5706339111328125
  endloop
 endfacet
 facet normal 0.0 1.0 0.0
  outer loop
   vertex 0.5578659057617188 33.0 -0.2208747253417969
   vertex 0.18541020202636718 33.0 0.5706339111328125
   vertex 0.38245440673828124 33.0 0.4623079528808594
  endloop
 endfacet
 facet normal 0.0 1.0 -0.0
  outer loop
   vertex 0.5257839965820312 33.0 -0.2890522155761719
   vertex 0.18541020202636718 33.0 -0.5706339111328125
   vertex 0.5578659057617188 33.0 -0.2208747253417969
  endloop
 endfacet
 facet normal 0.0 1.0 0.0
  outer loop
   vertex 0.32149606323242186 33.0 -0.5065967407226563
   vertex 0.2554675750732422 33.0 -0.542896240234375
   vertex 0.18541020202636718 33.0 -0.5706339111328125
  endloop
 endfacet
 facet normal 0.0 1.0 0.0
  outer loop
   vertex 0.43738116455078124 33.0 -0.410728271484375
   vertex 0.5257839965820312 33.0 -0.2890522155761719
   vertex 0.48541018676757813 33.0 -0.352671142578125
  endloop
 endfacet
 facet normal 0.0 1.0 0.0
  outer loop
   vertex 0.43738116455078124 33.0 -0.410728271484375
   vertex 0.38245440673828124 33.0 -0.4623079528808594
   vertex 0.32149606323242186 33.0 -0.5065967407226563
  endloop
 endfacet
 facet normal 0.0 1.0 -0.0
  outer loop
   vertex 0.43738116455078124 33.0 -0.410728271484375
   vertex 0.18541020202636718 33.0 -0.5706339111328125
   vertex 0.5257839965820312 33.0 -0.2890522155761719
  endloop
 endfacet
 facet normal 0.0 1.0 0.0
  outer loop
   vertex 0.43738116455078124 33.0 -0.410728271484375
   vertex 0.32149606323242186 33.0 -0.5065967407226563
   vertex 0.18541020202636718 33.0 -0.5706339111328125
  endloop
 endfacet
endsolid MeshRefinement001
