v 9 -9 -0.5
v 8 -9 -0.5
l 1 2
v -9 -9 -0.5
v -9 -8 -0.5
l 3 4
v -9 15 -0.5
v -8 15 -0.5
l 5 6
v 9 15 -0.5
v 9 14 -0.5
l 7 8
v -9 -9 0.5
v -8 -9 0.5
l 9 10
v -9 15 0.5
v -9 14 0.5
l 11 12
v 9 15 0.5
v 8 15 0.5
l 13 14
v 9 -9 0.5
v 9 -8 0.5
l 15 16
v 9 15 0.5
v 9 15 -0.5
l 17 18
v -9 15 -0.5
v -9 15 0.5
l 19 20
v -9 -9 -0.5
v -9 -9 0.5
l 21 22
v 9 -9 0.5
v 9 -9 -0.5
l 23 24
v -3.22268486022949 -3.14074873924255 -0.5
v -2.48879931126671 -3.82002188093417 -0.5
l 25 26
v -3.52853918075562 -2.79274272918701 -0.5
v -2.8683869939423 -3.54387460192681 -0.5
l 27 28
v -2.88266921043396 -3.45546197891235 -0.5
v -2.08283016479033 -4.05567652477398 -0.5
l 29 30
v -3.79698991775513 -2.41513276100159 -0.5
v -3.21756921461477 -3.23016137937786 -0.5
l 31 32
v -2.51209664344788 -3.7335467338562 -0.5
v -1.65478203265021 -4.24833956414121 -0.5
l 33 34
v -4.02519178390503 -2.01192212104797 -0.5
v -3.53264353863231 -2.88220726172243 -0.5
l 35 36
v -2.11489534378052 -3.97205471992493 -0.5
v -1.20919309013109 -4.39596913078442 -0.5
l 37 38
v -4.21072578430176 -1.58738434314728 -0.5
v -3.81027162220584 -2.50370113556137 -0.5
l 39 40
v -1.69527554512024 -4.16845798492432 -0.5
v -0.750786204712334 -4.4970000459391 -0.5
l 41 42
v -4.35162496566772 -1.1460200548172 -0.5
v -4.04750988916217 -2.0986553576703 -0.5
l 43 44
v -1.25768530368805 -4.32067441940308 -0.5
v -0.284420875201512 -4.55036192938735 -0.5
l 45 46
v -4.44639539718628 -0.692507565021515 -0.5
v -4.24184405178444 -1.6713634007268 -0.5
l 47 48
v -0.806763410568237 -4.42709064483643 -0.5
v 0.184959205380833 -4.55548944940692 -0.5
l 49 50
v -4.4940333366394 -0.231654405593872 -0.5
v -4.39121218693496 -1.22635426543776 -0.5
l 51 52
v -0.347289592027664 -4.48657894134521 -0.5
v 0.652378860101449 -4.51232745232707 -0.5
l 53 54
v -4.4940333366394 0.231654405593872 -0.5
v -4.4940333366394 -0.768345594406128 -0.5
l 55 56
v -4.44639539718628 0.692507565021515 -0.5
v -4.54921654689072 -0.302192294822376 -0.5
l 57 58
v 0.115865610539913 -4.49850845336914 -0.5
v 1.1128830508372 -4.42133187827641 -0.5
l 59 60
v 0.577792584896088 -4.46275186538696 -0.5
v 1.56159042489146 -4.2834704942955 -0.5
l 61 62
v 1.03359484672546 -4.37968921661377 -0.5
v 1.99374507565434 -4.10020480222214 -0.5
l 63 64
v 1.47844064235687 -4.25020170211792 -0.5
v 2.40476452236697 -3.87347359150891 -0.5
l 65 66
v 1.90761470794678 -4.07566022872925 -0.5
v 2.79029356164025 -3.60568358969027 -0.5
l 67 68
v 2.31656765937805 -3.8579158782959 -0.5
v 3.14624465368123 -3.29967212765999 -0.5
l 69 70
v 2.70096445083618 -3.59927654266357 -0.5
v 3.46884467800058 -2.95868310160291 -0.5
l 71 72
v 3.05673003196716 -3.30248403549194 -0.5
v 3.75467442292722 -2.58633207736615 -0.5
l 73 74
v 3.3800938129425 -2.97068452835083 -0.5
v 4.00070289246624 -2.18656440336187 -0.5
l 75 76
v 3.66762733459473 -2.60739493370056 -0.5
v 4.20432397315796 -1.76361965665405 -0.5
l 77 78
v 3.91628360748291 -2.21646642684937 -0.5
v 4.36337791484979 -1.32197960172552 -0.5
l 79 80
v 4.12342643737793 -1.80204260349274 -0.5
v 4.47617833043839 -0.866325711509772 -0.5
l 81 82
v 4.2868595123291 -1.36851668357849 -0.5
v 4.54152986437642 -0.401488756480161 -0.5
l 83 84
v 4.40485048294067 -0.920484304428101 -0.5
v 4.55874152123342 0.06760351977235 -0.5
l 85 86
v 4.476149559021 -0.462694495916367 -0.5
v 4.52762805717424 0.535979607196299 -0.5
l 87 88
v 4.5 0 -0.5
v 4.44852150184675 0.998674103112665 -0.5
l 89 90
v 0.115865610539913 4.49850845336914 -0.5
v -0.8838028415892 4.47275994238729 -0.5
l 91 92
v -0.347289592027664 4.48657894134521 -0.5
v -1.33901220797673 4.35818013677472 -0.5
l 93 94
v -0.806763410568237 4.42709064483643 -0.5
v -1.78002783905477 4.19740313485215 -0.5
l 95 96
v -1.25768530368805 4.32067441940308 -0.5
v -2.20217464409595 3.9921323583883 -0.5
l 97 98
v -1.69527554512024 4.16845798492432 -0.5
v -2.60097779876966 3.74454357406482 -0.5
l 99 100
v -2.11489534378052 3.97205471992493 -0.5
v -2.97220995457818 3.45726188963992 -0.5
l 101 102
v -2.51209664344788 3.7335467338562 -0.5
v -3.31193568909151 3.13333218799457 -0.5
l 103 104
v -2.88266921043396 3.45546197891235 -0.5
v -3.61655475939674 2.77618883722074 -0.5
l 105 106
v -3.22268486022949 3.14074873924255 -0.5
v -3.88283704704281 2.38961686650276 -0.5
l 107 108
v -3.52853918075562 2.79274272918701 -0.5
v -4.10795988389597 1.97771411081074 -0.5
l 109 110
v -3.79698991775513 2.41513276100159 -0.5
v -4.28953816302785 1.54484762032713 -0.5
l 111 112
v -4.02519178390503 2.01192212104797 -0.5
v -4.42564594600095 1.09560532863388 -0.5
l 113 114
v -4.21072578430176 1.58738434314728 -0.5
v -4.51484086080731 0.634749040294177 -0.5
l 115 116
v -4.35162496566772 1.1460200548172 -0.5
v -4.55617631106956 0.167164219111912 -0.5
l 117 118
v 4.476149559021 0.462694495916367 -0.5
v 4.32225852072825 1.45078232011682 -0.5
l 119 120
v 4.40485048294067 0.920484304428101 -0.5
v 4.15018013089335 1.88751223152643 -0.5
l 121 122
v 4.2868595123291 1.36851668357849 -0.5
v 3.93410761926864 2.30423357556146 -0.5
l 123 124
v 4.12342643737793 1.80204260349274 -0.5
v 3.67633213001105 2.69652942861658 -0.5
l 125 126
v 3.91628360748291 2.21646642684937 -0.5
v 3.37958696891968 3.06024170389588 -0.5
l 127 128
v 3.66762733459473 2.60739493370056 -0.5
v 3.04701825507099 3.39151505868952 -0.5
l 129 130
v 3.3800938129425 2.97068452835083 -0.5
v 2.68214942198245 3.68683648647662 -0.5
l 131 132
v 3.05673003196716 3.30248403549194 -0.5
v 2.28884980480276 3.94307747655261 -0.5
l 133 134
v 2.70096445083618 3.59927654266357 -0.5
v 1.87128745653301 4.15752029329949 -0.5
l 135 136
v 2.31656765937805 3.8579158782959 -0.5
v 1.43388880568458 4.32789251733487 -0.5
l 137 138
v 1.90761470794678 4.07566022872925 -0.5
v 0.981290827936679 4.45238833933826 -0.5
l 139 140
v 1.47844064235687 4.25020170211792 -0.5
v 0.518290413427998 4.52968611650955 -0.5
l 141 142
v 1.03359484672546 4.37968921661377 -0.5
v 0.0497970067300897 4.55897058770524 -0.5
l 143 144
v 0.577792584896088 4.46275186538696 -0.5
v -0.4192248554012 4.53992844047969 -0.5
l 145 146
v -2.88266921043396 -3.45546197891235 0.5
v -3.61655475939674 -2.77618883722074 0.5
l 147 148
v -3.22268486022949 -3.14074873924255 0.5
v -3.88283704704281 -2.38961686650276 0.5
l 149 150
v -2.51209664344788 -3.7335467338562 0.5
v -3.31193568909151 -3.13333218799457 0.5
l 151 152
v -3.52853918075562 -2.79274272918701 0.5
v -4.10795988389597 -1.97771411081074 0.5
l 153 154
v -2.11489534378052 -3.97205471992493 0.5
v -2.97220995457818 -3.45726188963992 0.5
l 155 156
v -3.79698991775513 -2.41513276100159 0.5
v -4.28953816302785 -1.54484762032713 0.5
l 157 158
v -1.69527554512024 -4.16845798492432 0.5
v -2.60097779876966 -3.74454357406482 0.5
l 159 160
v -4.02519178390503 -2.01192212104797 0.5
v -4.42564594600095 -1.09560532863388 0.5
l 161 162
v -1.25768530368805 -4.32067441940308 0.5
v -2.20217464409595 -3.9921323583883 0.5
l 163 164
v -4.21072578430176 -1.58738434314728 0.5
v -4.51484086080731 -0.634749040294177 0.5
l 165 166
v -0.806763410568237 -4.42709064483643 0.5
v -1.78002783905477 -4.19740313485215 0.5
l 167 168
v -4.35162496566772 -1.1460200548172 0.5
v -4.55617631106956 -0.167164219111912 0.5
l 169 170
v -0.347289592027664 -4.48657894134521 0.5
v -1.33901220797673 -4.35818013677472 0.5
l 171 172
v -4.44639539718628 -0.692507565021515 0.5
v -4.54921654689072 0.302192294822376 0.5
l 173 174
v 0.115865610539913 -4.49850845336914 0.5
v -0.8838028415892 -4.47275994238729 0.5
l 175 176
v -4.4940333366394 -0.231654405593872 0.5
v -4.4940333366394 0.768345594406128 0.5
l 177 178
v -4.4940333366394 0.231654405593872 0.5
v -4.39121218693496 1.22635426543776 0.5
l 179 180
v 0.577792584896088 -4.46275186538696 0.5
v -0.4192248554012 -4.53992844047969 0.5
l 181 182
v 1.03359484672546 -4.37968921661377 0.5
v 0.0497970067300897 -4.55897058770524 0.5
l 183 184
v 1.47844064235687 -4.25020170211792 0.5
v 0.518290413427998 -4.52968611650955 0.5
l 185 186
v 1.90761470794678 -4.07566022872925 0.5
v 0.981290827936679 -4.45238833933826 0.5
l 187 188
v 2.31656765937805 -3.8579158782959 0.5
v 1.43388880568458 -4.32789251733487 0.5
l 189 190
v 2.70096445083618 -3.59927654266357 0.5
v 1.87128745653301 -4.15752029329949 0.5
l 191 192
v 3.05673003196716 -3.30248403549194 0.5
v 2.28884980480276 -3.94307747655261 0.5
l 193 194
v 3.3800938129425 -2.97068452835083 0.5
v 2.68214942198245 -3.68683648647662 0.5
l 195 196
v 3.66762733459473 -2.60739493370056 0.5
v 3.04701825507099 -3.39151505868952 0.5
l 197 198
v 3.91628360748291 -2.21646642684937 0.5
v 3.37958696891968 -3.06024170389588 0.5
l 199 200
v 4.12342643737793 -1.80204260349274 0.5
v 3.67633213001105 -2.69652942861658 0.5
l 201 202
v 4.2868595123291 -1.36851668357849 0.5
v 3.93410761926864 -2.30423357556146 0.5
l 203 204
v 4.40485048294067 -0.920484304428101 0.5
v 4.15018013089335 -1.88751223152643 0.5
l 205 206
v 4.476149559021 -0.462694495916367 0.5
v 4.32225852072825 -1.45078232011682 0.5
l 207 208
v 4.5 0 0.5
v 4.44852150184675 -0.998674103112665 0.5
l 209 210
v 4.476149559021 0.462694495916367 0.5
v 4.52762805717424 -0.535979607196299 0.5
l 211 212
v -0.347289592027664 4.48657894134521 0.5
v 0.652378860101449 4.51232745232707 0.5
l 213 214
v -0.806763410568237 4.42709064483643 0.5
v 0.184959205380833 4.55548944940692 0.5
l 215 216
v -1.25768530368805 4.32067441940308 0.5
v -0.284420875201512 4.55036192938735 0.5
l 217 218
v -1.69527554512024 4.16845798492432 0.5
v -0.750786204712334 4.4970000459391 0.5
l 219 220
v -2.11489534378052 3.97205471992493 0.5
v -1.20919309013109 4.39596913078442 0.5
l 221 222
v -2.51209664344788 3.7335467338562 0.5
v -1.65478203265021 4.24833956414121 0.5
l 223 224
v -2.88266921043396 3.45546197891235 0.5
v -2.08283016479033 4.05567652477398 0.5
l 225 226
v -3.22268486022949 3.14074873924255 0.5
v -2.48879931126671 3.82002188093417 0.5
l 227 228
v -3.52853918075562 2.79274272918701 0.5
v -2.8683869939423 3.54387460192681 0.5
l 229 230
v -3.79698991775513 2.41513276100159 0.5
v -3.21756921461477 3.23016137937786 0.5
l 231 232
v -4.02519178390503 2.01192212104797 0.5
v -3.53264353863231 2.88220726172243 0.5
l 233 234
v -4.21072578430176 1.58738434314728 0.5
v -3.81027162220584 2.50370113556137 0.5
l 235 236
v -4.35162496566772 1.1460200548172 0.5
v -4.04750988916217 2.0986553576703 0.5
l 237 238
v -4.44639539718628 0.692507565021515 0.5
v -4.24184405178444 1.6713634007268 0.5
l 239 240
v 4.40485048294067 0.920484304428101 0.5
v 4.55874152123342 -0.06760351977235 0.5
l 241 242
v 4.2868595123291 1.36851668357849 0.5
v 4.54152986437642 0.401488756480161 0.5
l 243 244
v 4.12342643737793 1.80204260349274 0.5
v 4.47617833043839 0.866325711509772 0.5
l 245 246
v 3.91628360748291 2.21646642684937 0.5
v 4.36337791484979 1.32197960172552 0.5
l 247 248
v 3.66762733459473 2.60739493370056 0.5
v 4.20432397315796 1.76361965665405 0.5
l 249 250
v 3.3800938129425 2.97068452835083 0.5
v 4.00070289246624 2.18656440336187 0.5
l 251 252
v 3.05673003196716 3.30248403549194 0.5
v 3.75467442292722 2.58633207736615 0.5
l 253 254
v 2.70096445083618 3.59927654266357 0.5
v 3.46884467800058 2.95868310160291 0.5
l 255 256
v 2.31656765937805 3.8579158782959 0.5
v 3.14624465368123 3.29967212765999 0.5
l 257 258
v 1.90761470794678 4.07566022872925 0.5
v 2.79029356164025 3.60568358969027 0.5
l 259 260
v 1.47844064235687 4.25020170211792 0.5
v 2.40476452236697 3.87347359150891 0.5
l 261 262
v 1.03359484672546 4.37968921661377 0.5
v 1.99374507565434 4.10020480222214 0.5
l 263 264
v 0.577792584896088 4.46275186538696 0.5
v 1.56159042489146 4.2834704942955 0.5
l 265 266
v 0.115865610539913 4.49850845336914 0.5
v 1.1128830508372 4.42133187827641 0.5
l 267 268
v 4.49112033843994 0.282557338476181 -0.5
v 4.52253088360809 -0.71694922861192 -0.5
l 269 270
v 4.5 0 0.5
v 4.46858945483185 0.999506567088101 0.5
l 271 272
v 4.49112033843994 0.282557338476181 0.5
v 4.39701185114907 1.27811928663402 0.5
l 273 274
v 4.46451616287231 0.563999593257904 0.5
v 4.30808079988487 1.55168779163176 0.5
l 275 276
v 4.46451616287231 0.563999593257904 -0.5
v 4.55862465016319 -0.431562354899931 -0.5
l 277 278
v 4.42029237747192 0.843215942382812 0.5
v 4.20214914949952 1.81913270732221 0.5
l 279 280
v 4.42029237747192 0.843215942382812 -0.5
v 4.57672774045937 -0.14447225599104 -0.5
l 281 282
v 4.35862398147583 1.11910450458527 -0.5
v 4.57676720944824 0.143187739645869 -0.5
l 283 284
v 4.35862398147583 1.11910450458527 0.5
v 4.07963302536567 2.07939823382062 0.5
l 285 286
v 4.27975416183472 1.39057636260986 -0.5
v 4.55874511794488 0.430282633374512 -0.5
l 287 288
v 4.27975416183472 1.39057636260986 0.5
v 3.94101726771985 2.33145750099314 0.5
l 289 290
v 4.18399429321289 1.65656054019928 -0.5
v 4.52273118732776 0.715679401816003 -0.5
l 291 292
v 4.18399429321289 1.65656054019928 0.5
v 3.78684546201019 2.5743147588626 0.5
l 293 294
v 4.07172155380249 1.91600680351257 -0.5
v 4.46887038500519 0.99825258484925 -0.5
l 295 296
v 4.07172155380249 1.91600680351257 0.5
v 3.61773169442279 2.80701365398029 0.5
l 297 298
v 3.94338011741638 2.16789150238037 -0.5
v 4.39736997679608 1.27688465191265 -0.5
l 299 300
v 3.94338011741638 2.16789150238037 0.5
v 3.43433857160349 3.02863345246554 0.5
l 301 302
v 3.79947566986084 2.41122055053711 0.5
v 3.23739199119215 3.23830092037687 0.5
l 303 304
v 3.79947566986084 2.41122055053711 -0.5
v 4.30851721567373 1.55047860045194 -0.5
l 305 306
v 3.64057636260986 2.64503359794617 -0.5
v 4.20266004127855 1.81795322810641 -0.5
l 307 308
v 3.64057636260986 2.64503359794617 0.5
v 3.02766937946385 3.43518866501266 0.5
l 309 310
v 3.46730947494507 2.86840796470642 -0.5
v 4.08021645809108 2.07825289763993 -0.5
l 311 312
v 3.46730947494507 2.86840796470642 0.5
v 2.80599776470075 3.61851917105767 0.5
l 313 314
v 3.28035879135132 3.08046197891235 -0.5
v 3.94167050159564 2.3303507725611 -0.5
l 315 316
v 3.28035879135132 3.08046197891235 0.5
v 2.57325201016477 3.7875687600989 0.5
l 317 318
v 3.08046197891235 3.28035879135132 -0.5
v 3.7875687600989 2.57325201016477 -0.5
l 319 320
v 3.08046197891235 3.28035879135132 0.5
v 2.3303507725611 3.94167050159564 0.5
l 321 322
v 2.86840796470642 3.46730947494507 -0.5
v 3.61851917105767 2.80599776470075 -0.5
l 323 324
v 2.86840796470642 3.46730947494507 0.5
v 2.07825289763993 4.08021645809108 0.5
l 325 326
v 2.64503359794617 3.64057636260986 -0.5
v 3.43518866501266 3.02766937946385 -0.5
l 327 328
v 2.64503359794617 3.64057636260986 0.5
v 1.81795322810641 4.20266004127855 0.5
l 329 330
v 2.41122055053711 3.79947566986084 -0.5
v 3.23830092037687 3.23739199119215 -0.5
l 331 332
v 2.41122055053711 3.79947566986084 0.5
v 1.55047860045194 4.30851721567373 0.5
l 333 334
v 2.16789150238037 3.94338011741638 -0.5
v 3.02863345246554 3.43433857160349 -0.5
l 335 336
v 2.16789150238037 3.94338011741638 0.5
v 1.27688465191265 4.39736997679608 0.5
l 337 338
v 1.91600680351257 4.07172155380249 -0.5
v 2.80701365398029 3.61773169442279 -0.5
l 339 340
v 1.91600680351257 4.07172155380249 0.5
v 0.99825258484925 4.46887038500519 0.5
l 341 342
v 1.65656054019928 4.18399429321289 -0.5
v 2.5743147588626 3.78684546201019 -0.5
l 343 344
v 1.65656054019928 4.18399429321289 0.5
v 0.715679401816003 4.52273118732776 0.5
l 345 346
v 1.39057636260986 4.27975416183472 0.5
v 0.430282633374512 4.55874511794488 0.5
l 347 348
v 1.39057636260986 4.27975416183472 -0.5
v 2.33145750099314 3.94101726771985 -0.5
l 349 350
v 1.11910450458527 4.35862398147583 -0.5
v 2.07939823382062 4.07963302536567 -0.5
l 351 352
v 1.11910450458527 4.35862398147583 0.5
v 0.143187739645869 4.57676720944824 0.5
l 353 354
v 0.843215942382812 4.42029237747192 -0.5
v 1.81913270732221 4.20214914949952 -0.5
l 355 356
v 0.843215942382812 4.42029237747192 0.5
v -0.14447225599104 4.57672774045937 0.5
l 357 358
v 0.563999593257904 4.46451616287231 -0.5
v 1.55168779163176 4.30808079988487 -0.5
l 359 360
v 0.563999593257904 4.46451616287231 0.5
v -0.431562354899931 4.55862465016319 0.5
l 361 362
v 0.282557338476181 4.49112033843994 -0.5
v 1.27811928663402 4.39701185114907 -0.5
l 363 364
v -2.72205684303194e-15 4.5 -0.5
v 0.999506567088098 4.46858945483185 -0.5
l 365 366
v 0.282557338476181 4.49112033843994 0.5
v -0.71694922861192 4.52253088360809 0.5
l 367 368
v -0.282557338476181 4.49112033843994 -0.5
v 0.71694922861192 4.52253088360809 -0.5
l 369 370
v -2.72205684303194e-15 4.5 0.5
v -0.999506567088103 4.46858945483185 0.5
l 371 372
v -0.282557338476181 4.49112033843994 0.5
v -1.27811928663402 4.39701185114907 0.5
l 373 374
v -0.563999593257904 4.46451616287231 -0.5
v 0.431562354899931 4.55862465016319 -0.5
l 375 376
v -0.563999593257904 4.46451616287231 0.5
v -1.55168779163176 4.30808079988487 0.5
l 377 378
v -0.843215942382812 4.42029237747192 -0.5
v 0.14447225599104 4.57672774045937 -0.5
l 379 380
v -1.11910450458527 4.35862398147583 -0.5
v -0.143187739645869 4.57676720944824 -0.5
l 381 382
v -0.843215942382812 4.42029237747192 0.5
v -1.81913270732221 4.20214914949952 0.5
l 383 384
v -1.11910450458527 4.35862398147583 0.5
v -2.07939823382062 4.07963302536567 0.5
l 385 386
v -1.39057636260986 4.27975416183472 -0.5
v -0.430282633374512 4.55874511794488 -0.5
l 387 388
v -1.65656054019928 4.18399429321289 -0.5
v -0.715679401816003 4.52273118732776 -0.5
l 389 390
v -1.39057636260986 4.27975416183472 0.5
v -2.33145750099314 3.94101726771985 0.5
l 391 392
v -1.65656054019928 4.18399429321289 0.5
v -2.5743147588626 3.78684546201019 0.5
l 393 394
v -1.91600680351257 4.07172155380249 -0.5
v -0.99825258484925 4.46887038500519 -0.5
l 395 396
v -1.91600680351257 4.07172155380249 0.5
v -2.80701365398029 3.61773169442279 0.5
l 397 398
v -2.16789150238037 3.94338011741638 -0.5
v -1.27688465191265 4.39736997679608 -0.5
l 399 400
v -2.16789150238037 3.94338011741638 0.5
v -3.02863345246554 3.43433857160349 0.5
l 401 402
v -2.41122055053711 3.79947566986084 0.5
v -3.23830092037687 3.23739199119215 0.5
l 403 404
v -2.41122055053711 3.79947566986084 -0.5
v -1.55047860045194 4.30851721567373 -0.5
l 405 406
v -2.64503359794617 3.64057636260986 -0.5
v -1.81795322810641 4.20266004127855 -0.5
l 407 408
v -2.64503359794617 3.64057636260986 0.5
v -3.43518866501266 3.02766937946385 0.5
l 409 410
v -2.86840796470642 3.46730947494507 -0.5
v -2.07825289763993 4.08021645809108 -0.5
l 411 412
v -2.86840796470642 3.46730947494507 0.5
v -3.61851917105767 2.80599776470075 0.5
l 413 414
v -3.08046197891235 3.28035879135132 -0.5
v -2.3303507725611 3.94167050159564 -0.5
l 415 416
v -3.08046197891235 3.28035879135132 0.5
v -3.7875687600989 2.57325201016477 0.5
l 417 418
v -3.28035879135132 3.08046197891235 -0.5
v -2.57325201016477 3.7875687600989 -0.5
l 419 420
v -3.28035879135132 3.08046197891235 0.5
v -3.94167050159564 2.3303507725611 0.5
l 421 422
v -3.46730947494507 2.86840796470642 0.5
v -4.08021645809108 2.07825289763993 0.5
l 423 424
v -3.46730947494507 2.86840796470642 -0.5
v -2.80599776470075 3.61851917105767 -0.5
l 425 426
v -3.64057636260986 2.64503359794617 0.5
v -4.20266004127855 1.81795322810641 0.5
l 427 428
v -3.64057636260986 2.64503359794617 -0.5
v -3.02766937946385 3.43518866501266 -0.5
l 429 430
v -3.79947566986084 2.41122055053711 -0.5
v -3.23739199119215 3.23830092037687 -0.5
l 431 432
v -3.79947566986084 2.41122055053711 0.5
v -4.30851721567373 1.55047860045194 0.5
l 433 434
v -3.94338011741638 2.16789150238037 -0.5
v -3.43433857160349 3.02863345246554 -0.5
l 435 436
v -3.94338011741638 2.16789150238037 0.5
v -4.39736997679608 1.27688465191265 0.5
l 437 438
v -4.07172155380249 1.91600680351257 -0.5
v -3.61773169442279 2.80701365398029 -0.5
l 439 440
v -4.07172155380249 1.91600680351257 0.5
v -4.46887038500519 0.99825258484925 0.5
l 441 442
v -4.18399429321289 1.65656054019928 -0.5
v -3.78684546201019 2.5743147588626 -0.5
l 443 444
v -4.18399429321289 1.65656054019928 0.5
v -4.52273118732776 0.715679401816003 0.5
l 445 446
v -4.27975416183472 1.39057636260986 -0.5
v -3.94101726771985 2.33145750099314 -0.5
l 447 448
v -4.27975416183472 1.39057636260986 0.5
v -4.55874511794488 0.430282633374512 0.5
l 449 450
v -4.35862398147583 1.11910450458527 -0.5
v -4.07963302536567 2.07939823382062 -0.5
l 451 452
v -4.35862398147583 1.11910450458527 0.5
v -4.57676720944824 0.143187739645869 0.5
l 453 454
v -4.42029237747192 0.843215942382812 -0.5
v -4.20214914949952 1.81913270732221 -0.5
l 455 456
v -4.42029237747192 0.843215942382812 0.5
v -4.57672774045937 -0.14447225599104 0.5
l 457 458
v -4.46451616287231 0.563999593257904 -0.5
v -4.30808079988487 1.55168779163176 -0.5
l 459 460
v -4.46451616287231 0.563999593257904 0.5
v -4.55862465016319 -0.431562354899931 0.5
l 461 462
v -4.49112033843994 0.282557338476181 -0.5
v -4.39701185114907 1.27811928663402 -0.5
l 463 464
v -4.5 -1.14393171720068e-14 -0.5
v -4.46858945483185 0.999506567088089 -0.5
l 465 466
v -4.49112033843994 0.282557338476181 0.5
v -4.52253088360809 -0.71694922861192 0.5
l 467 468
v -4.49112033843994 -0.282557338476181 -0.5
v -4.52253088360809 0.716949228611919 -0.5
l 469 470
v -4.5 -1.14393171720068e-14 0.5
v -4.46858945483185 -0.999506567088112 0.5
l 471 472
v -4.46451616287231 -0.563999593257904 -0.5
v -4.55862465016319 0.431562354899931 -0.5
l 473 474
v -4.49112033843994 -0.282557338476181 0.5
v -4.39701185114907 -1.27811928663402 0.5
l 475 476
v -4.42029237747192 -0.843215942382812 -0.5
v -4.57672774045937 0.14447225599104 -0.5
l 477 478
v -4.46451616287231 -0.563999593257904 0.5
v -4.30808079988487 -1.55168779163176 0.5
l 479 480
v -4.42029237747192 -0.843215942382812 0.5
v -4.20214914949952 -1.81913270732221 0.5
l 481 482
v -4.35862398147583 -1.11910450458527 -0.5
v -4.57676720944824 -0.143187739645869 -0.5
l 483 484
v -4.27975416183472 -1.39057636260986 -0.5
v -4.55874511794488 -0.430282633374512 -0.5
l 485 486
v -4.35862398147583 -1.11910450458527 0.5
v -4.07963302536567 -2.07939823382062 0.5
l 487 488
v -4.18399429321289 -1.65656054019928 -0.5
v -4.52273118732776 -0.715679401816003 -0.5
l 489 490
v -4.27975416183472 -1.39057636260986 0.5
v -3.94101726771985 -2.33145750099314 0.5
l 491 492
v -4.07172155380249 -1.91600680351257 -0.5
v -4.46887038500519 -0.99825258484925 -0.5
l 493 494
v -4.18399429321289 -1.65656054019928 0.5
v -3.78684546201019 -2.5743147588626 0.5
l 495 496
v -3.94338011741638 -2.16789150238037 -0.5
v -4.39736997679608 -1.27688465191265 -0.5
l 497 498
v -4.07172155380249 -1.91600680351257 0.5
v -3.61773169442279 -2.80701365398029 0.5
l 499 500
v -3.79947566986084 -2.41122055053711 -0.5
v -4.30851721567373 -1.55047860045194 -0.5
l 501 502
v -3.94338011741638 -2.16789150238037 0.5
v -3.43433857160349 -3.02863345246554 0.5
l 503 504
v -3.64057636260986 -2.64503359794617 -0.5
v -4.20266004127855 -1.81795322810641 -0.5
l 505 506
v -3.79947566986084 -2.41122055053711 0.5
v -3.23739199119215 -3.23830092037687 0.5
l 507 508
v -3.46730947494507 -2.86840796470642 -0.5
v -4.08021645809108 -2.07825289763993 -0.5
l 509 510
v -3.64057636260986 -2.64503359794617 0.5
v -3.02766937946385 -3.43518866501266 0.5
l 511 512
v -3.28035879135132 -3.08046197891235 -0.5
v -3.94167050159564 -2.3303507725611 -0.5
l 513 514
v -3.46730947494507 -2.86840796470642 0.5
v -2.80599776470075 -3.61851917105767 0.5
l 515 516
v -3.08046197891235 -3.28035879135132 -0.5
v -3.7875687600989 -2.57325201016477 -0.5
l 517 518
v -3.28035879135132 -3.08046197891235 0.5
v -2.57325201016477 -3.7875687600989 0.5
l 519 520
v -2.86840796470642 -3.46730947494507 -0.5
v -3.61851917105767 -2.80599776470075 -0.5
l 521 522
v -3.08046197891235 -3.28035879135132 0.5
v -2.3303507725611 -3.94167050159564 0.5
l 523 524
v -2.64503359794617 -3.64057636260986 -0.5
v -3.43518866501266 -3.02766937946385 -0.5
l 525 526
v -2.86840796470642 -3.46730947494507 0.5
v -2.07825289763993 -4.08021645809108 0.5
l 527 528
v -2.64503359794617 -3.64057636260986 0.5
v -1.81795322810641 -4.20266004127855 0.5
l 529 530
v -2.41122055053711 -3.79947566986084 -0.5
v -3.23830092037687 -3.23739199119215 -0.5
l 531 532
v -2.41122055053711 -3.79947566986084 0.5
v -1.55047860045194 -4.30851721567373 0.5
l 533 534
v -2.16789150238037 -3.94338011741638 -0.5
v -3.02863345246554 -3.43433857160349 -0.5
l 535 536
v -2.16789150238037 -3.94338011741638 0.5
v -1.27688465191265 -4.39736997679608 0.5
l 537 538
v -1.91600680351257 -4.07172155380249 -0.5
v -2.80701365398029 -3.61773169442279 -0.5
l 539 540
v -1.91600680351257 -4.07172155380249 0.5
v -0.99825258484925 -4.46887038500519 0.5
l 541 542
v -1.65656054019928 -4.18399429321289 -0.5
v -2.5743147588626 -3.78684546201019 -0.5
l 543 544
v -1.65656054019928 -4.18399429321289 0.5
v -0.715679401816003 -4.52273118732776 0.5
l 545 546
v -1.39057636260986 -4.27975416183472 -0.5
v -2.33145750099314 -3.94101726771985 -0.5
l 547 548
v -1.39057636260986 -4.27975416183472 0.5
v -0.430282633374512 -4.55874511794488 0.5
l 549 550
v -1.11910450458527 -4.35862398147583 -0.5
v -2.07939823382062 -4.07963302536567 -0.5
l 551 552
v -1.11910450458527 -4.35862398147583 0.5
v -0.143187739645869 -4.57676720944824 0.5
l 553 554
v -0.843215942382812 -4.42029237747192 0.5
v 0.14447225599104 -4.57672774045937 0.5
l 555 556
v -0.843215942382812 -4.42029237747192 -0.5
v -1.81913270732221 -4.20214914949952 -0.5
l 557 558
v -0.563999593257904 -4.46451616287231 -0.5
v -1.55168779163176 -4.30808079988487 -0.5
l 559 560
v -0.563999593257904 -4.46451616287231 0.5
v 0.431562354899931 -4.55862465016319 0.5
l 561 562
v -0.282557338476181 -4.49112033843994 -0.5
v -1.27811928663402 -4.39701185114907 -0.5
l 563 564
v -8.26636605642654e-16 -4.5 -0.5
v -0.999506567088101 -4.46858945483185 -0.5
l 565 566
v -0.282557338476181 -4.49112033843994 0.5
v 0.71694922861192 -4.52253088360809 0.5
l 567 568
v 0.282557338476181 -4.49112033843994 -0.5
v -0.71694922861192 -4.52253088360809 -0.5
l 569 570
v -8.26636605642654e-16 -4.5 0.5
v 0.9995065670881 -4.46858945483185 0.5
l 571 572
v 0.563999593257904 -4.46451616287231 -0.5
v -0.431562354899931 -4.55862465016319 -0.5
l 573 574
v 0.282557338476181 -4.49112033843994 0.5
v 1.27811928663402 -4.39701185114907 0.5
l 575 576
v 0.843215942382812 -4.42029237747192 -0.5
v -0.14447225599104 -4.57672774045937 -0.5
l 577 578
v 0.563999593257904 -4.46451616287231 0.5
v 1.55168779163176 -4.30808079988487 0.5
l 579 580
v 1.11910450458527 -4.35862398147583 -0.5
v 0.143187739645869 -4.57676720944824 -0.5
l 581 582
v 0.843215942382812 -4.42029237747192 0.5
v 1.81913270732221 -4.20214914949952 0.5
l 583 584
v 1.39057636260986 -4.27975416183472 -0.5
v 0.430282633374512 -4.55874511794488 -0.5
l 585 586
v 1.11910450458527 -4.35862398147583 0.5
v 2.07939823382062 -4.07963302536567 0.5
l 587 588
v 1.65656054019928 -4.18399429321289 -0.5
v 0.715679401816003 -4.52273118732776 -0.5
l 589 590
v 1.39057636260986 -4.27975416183472 0.5
v 2.33145750099314 -3.94101726771985 0.5
l 591 592
v 1.91600680351257 -4.07172155380249 -0.5
v 0.99825258484925 -4.46887038500519 -0.5
l 593 594
v 1.65656054019928 -4.18399429321289 0.5
v 2.5743147588626 -3.78684546201019 0.5
l 595 596
v 2.16789150238037 -3.94338011741638 -0.5
v 1.27688465191265 -4.39736997679608 -0.5
l 597 598
v 1.91600680351257 -4.07172155380249 0.5
v 2.80701365398029 -3.61773169442279 0.5
l 599 600
v 2.41122055053711 -3.79947566986084 -0.5
v 1.55047860045194 -4.30851721567373 -0.5
l 601 602
v 2.16789150238037 -3.94338011741638 0.5
v 3.02863345246554 -3.43433857160349 0.5
l 603 604
v 2.64503359794617 -3.64057636260986 -0.5
v 1.81795322810641 -4.20266004127855 -0.5
l 605 606
v 2.41122055053711 -3.79947566986084 0.5
v 3.23830092037687 -3.23739199119215 0.5
l 607 608
v 2.86840796470642 -3.46730947494507 -0.5
v 2.07825289763993 -4.08021645809108 -0.5
l 609 610
v 2.64503359794617 -3.64057636260986 0.5
v 3.43518866501266 -3.02766937946385 0.5
l 611 612
v 3.08046197891235 -3.28035879135132 -0.5
v 2.3303507725611 -3.94167050159564 -0.5
l 613 614
v 2.86840796470642 -3.46730947494507 0.5
v 3.61851917105767 -2.80599776470075 0.5
l 615 616
v 3.28035879135132 -3.08046197891235 -0.5
v 2.57325201016477 -3.7875687600989 -0.5
l 617 618
v 3.08046197891235 -3.28035879135132 0.5
v 3.7875687600989 -2.57325201016477 0.5
l 619 620
v 3.46730947494507 -2.86840796470642 -0.5
v 2.80599776470075 -3.61851917105767 -0.5
l 621 622
v 3.28035879135132 -3.08046197891235 0.5
v 3.94167050159564 -2.3303507725611 0.5
l 623 624
v 3.64057636260986 -2.64503359794617 -0.5
v 3.02766937946385 -3.43518866501266 -0.5
l 625 626
v 3.46730947494507 -2.86840796470642 0.5
v 4.08021645809108 -2.07825289763993 0.5
l 627 628
v 3.79947566986084 -2.41122055053711 -0.5
v 3.23739199119215 -3.23830092037687 -0.5
l 629 630
v 3.64057636260986 -2.64503359794617 0.5
v 4.20266004127855 -1.81795322810641 0.5
l 631 632
v 3.94338011741638 -2.16789150238037 -0.5
v 3.43433857160349 -3.02863345246554 -0.5
l 633 634
v 3.79947566986084 -2.41122055053711 0.5
v 4.30851721567373 -1.55047860045194 0.5
l 635 636
v 4.07172155380249 -1.91600680351257 -0.5
v 3.61773169442279 -2.80701365398029 -0.5
l 637 638
v 3.94338011741638 -2.16789150238037 0.5
v 4.39736997679608 -1.27688465191265 0.5
l 639 640
v 4.18399429321289 -1.65656054019928 -0.5
v 3.78684546201019 -2.5743147588626 -0.5
l 641 642
v 4.07172155380249 -1.91600680351257 0.5
v 4.46887038500519 -0.99825258484925 0.5
l 643 644
v 4.27975416183472 -1.39057636260986 -0.5
v 3.94101726771985 -2.33145750099314 -0.5
l 645 646
v 4.18399429321289 -1.65656054019928 0.5
v 4.52273118732776 -0.715679401816003 0.5
l 647 648
v 4.35862398147583 -1.11910450458527 -0.5
v 4.07963302536567 -2.07939823382062 -0.5
l 649 650
v 4.27975416183472 -1.39057636260986 0.5
v 4.55874511794488 -0.430282633374512 0.5
l 651 652
v 4.42029237747192 -0.843215942382812 -0.5
v 4.20214914949952 -1.81913270732221 -0.5
l 653 654
v 4.35862398147583 -1.11910450458527 0.5
v 4.57676720944824 -0.143187739645869 0.5
l 655 656
v 4.46451616287231 -0.563999593257904 -0.5
v 4.30808079988487 -1.55168779163176 -0.5
l 657 658
v 4.42029237747192 -0.843215942382812 0.5
v 4.57672774045937 0.14447225599104 0.5
l 659 660
v 4.49112033843994 -0.282557338476181 0.5
v 4.52253088360809 0.71694922861192 0.5
l 661 662
v 4.49112033843994 -0.282557338476181 -0.5
v 4.39701185114907 -1.27811928663402 -0.5
l 663 664
v 4.46451616287231 -0.563999593257904 0.5
v 4.55862465016319 0.431562354899931 0.5
l 665 666
v 4.5 0 -0.5
v 4.46858945483185 -0.999506567088101 -0.5
l 667 668
