solid MeshRefinement
 facet normal -0.9990212917327881 0.0 0.044233232736587524
  outer loop
   vertex 1.5 -3.0 3.6699999593145515e-16
   vertex 1.5 3.0 3.6699999593145515e-16
   vertex 1.4941302490234376 3.0 -0.13257015991210938
  endloop
 endfacet
 facet normal -0.9990212917327881 0.0 0.044233232736587524
  outer loop
   vertex 1.4941302490234376 -3.0 -0.13257015991210938
   vertex 1.5 -3.0 3.6699999593145515e-16
   vertex 1.4941302490234376 3.0 -0.13257015991210938
  endloop
 endfacet
 facet normal -0.9912025332450867 0.0 0.1323537826538086
  outer loop
   vertex 1.47656689453125 -3.0 -0.264102783203125
   vertex 1.4941302490234376 3.0 -0.13257015991210938
   vertex 1.47656689453125 3.0 -0.264102783203125
  endloop
 endfacet
 facet normal -0.9912025332450867 0.0 0.1323537826538086
  outer loop
   vertex 1.47656689453125 -3.0 -0.264102783203125
   vertex 1.4941302490234376 -3.0 -0.13257015991210938
   vertex 1.4941302490234376 3.0 -0.13257015991210938
  endloop
 endfacet
 facet normal -0.9756262898445129 0.0 0.2194385975599289
  outer loop
   vertex 1.4474473876953124 -3.0 -0.39356842041015627
   vertex 1.47656689453125 3.0 -0.264102783203125
   vertex 1.4474473876953124 3.0 -0.39356842041015627
  endloop
 endfacet
 facet normal -0.9524145126342773 0.0 0.3048059344291687
  outer loop
   vertex 1.4474473876953124 -3.0 -0.39356842041015627
   vertex 1.4474473876953124 3.0 -0.39356842041015627
   vertex 1.4069996337890625 3.0 -0.519953857421875
  endloop
 endfacet
 facet normal -0.9756262898445129 0.0 0.2194385975599289
  outer loop
   vertex 1.4474473876953124 -3.0 -0.39356842041015627
   vertex 1.47656689453125 -3.0 -0.264102783203125
   vertex 1.47656689453125 3.0 -0.264102783203125
  endloop
 endfacet
 facet normal -0.9217486381530762 0.0 0.3877878785133362
  outer loop
   vertex 1.4069996337890625 -3.0 -0.519953857421875
   vertex 1.4069996337890625 3.0 -0.519953857421875
   vertex 1.3555401611328126 3.0 -0.6422699584960938
  endloop
 endfacet
 facet normal -0.9524145126342773 0.0 0.3048059344291687
  outer loop
   vertex 1.4069996337890625 -3.0 -0.519953857421875
   vertex 1.4474473876953124 -3.0 -0.39356842041015627
   vertex 1.4069996337890625 3.0 -0.519953857421875
  endloop
 endfacet
 facet normal -0.9217486381530762 0.0 0.3877878785133362
  outer loop
   vertex 1.3555401611328126 -3.0 -0.6422699584960938
   vertex 1.4069996337890625 -3.0 -0.519953857421875
   vertex 1.3555401611328126 3.0 -0.6422699584960938
  endloop
 endfacet
 facet normal -0.8838691115379333 0.0 0.4677342176437378
  outer loop
   vertex 1.2934718017578126 -3.0 -0.7595594482421875
   vertex 1.3555401611328126 3.0 -0.6422699584960938
   vertex 1.2934718017578126 3.0 -0.7595594482421875
  endloop
 endfacet
 facet normal -0.839072048664093 0.0 0.5440203547477722
  outer loop
   vertex 1.2934718017578126 -3.0 -0.7595594482421875
   vertex 1.2934718017578126 3.0 -0.7595594482421875
   vertex 1.2212802734375001 3.0 -0.8709043579101563
  endloop
 endfacet
 facet normal -0.8838691115379333 0.0 0.4677342176437378
  outer loop
   vertex 1.2934718017578126 -3.0 -0.7595594482421875
   vertex 1.3555401611328126 -3.0 -0.6422699584960938
   vertex 1.3555401611328126 3.0 -0.6422699584960938
  endloop
 endfacet
 facet normal -0.839072048664093 0.0 0.5440203547477722
  outer loop
   vertex 1.2212802734375001 -3.0 -0.8709043579101563
   vertex 1.2934718017578126 -3.0 -0.7595594482421875
   vertex 1.2212802734375001 3.0 -0.8709043579101563
  endloop
 endfacet
 facet normal -0.7877081632614136 0.0 0.6160485148429871
  outer loop
   vertex 1.1395306396484375 -3.0 -0.9754332275390625
   vertex 1.2212802734375001 3.0 -0.8709043579101563
   vertex 1.1395306396484375 3.0 -0.9754332275390625
  endloop
 endfacet
 facet normal -0.7877081632614136 0.0 0.6160485148429871
  outer loop
   vertex 1.1395306396484375 -3.0 -0.9754332275390625
   vertex 1.2212802734375001 -3.0 -0.8709043579101563
   vertex 1.2212802734375001 3.0 -0.8709043579101563
  endloop
 endfacet
 facet normal -0.730178952217102 0.0 0.6832560300827026
  outer loop
   vertex 1.0488625488281251 -3.0 -1.0723280029296876
   vertex 1.1395306396484375 3.0 -0.9754332275390625
   vertex 1.0488625488281251 3.0 -1.0723280029296876
  endloop
 endfacet
 facet normal -0.730178952217102 0.0 0.6832560300827026
  outer loop
   vertex 1.0488625488281251 -3.0 -1.0723280029296876
   vertex 1.1395306396484375 -3.0 -0.9754332275390625
   vertex 1.1395306396484375 3.0 -0.9754332275390625
  endloop
 endfacet
 facet normal -0.666935384273529 0.0 0.7451155781745911
  outer loop
   vertex 0.9499857177734375 -3.0 -1.160830322265625
   vertex 1.0488625488281251 3.0 -1.0723280029296876
   vertex 0.9499857177734375 3.0 -1.160830322265625
  endloop
 endfacet
 facet normal -0.666935384273529 0.0 0.7451155781745911
  outer loop
   vertex 0.9499857177734375 -3.0 -1.160830322265625
   vertex 1.0488625488281251 -3.0 -1.0723280029296876
   vertex 1.0488625488281251 3.0 -1.0723280029296876
  endloop
 endfacet
 facet normal -0.5984725952148438 0.0 0.8011432886123657
  outer loop
   vertex 0.8436739501953125 -3.0 -1.2402476806640625
   vertex 0.9499857177734375 3.0 -1.160830322265625
   vertex 0.8436739501953125 3.0 -1.2402476806640625
  endloop
 endfacet
 facet normal -0.5984725952148438 0.0 0.8011432886123657
  outer loop
   vertex 0.8436739501953125 -3.0 -1.2402476806640625
   vertex 0.9499857177734375 -3.0 -1.160830322265625
   vertex 0.9499857177734375 3.0 -1.160830322265625
  endloop
 endfacet
 facet normal -0.5253252983093262 0.0 0.8509015440940857
  outer loop
   vertex 0.73075927734375 -3.0 -1.3099583740234375
   vertex 0.8436739501953125 3.0 -1.2402476806640625
   vertex 0.73075927734375 3.0 -1.3099583740234375
  endloop
 endfacet
 facet normal -0.5253252983093262 0.0 0.8509015440940857
  outer loop
   vertex 0.73075927734375 -3.0 -1.3099583740234375
   vertex 0.8436739501953125 -3.0 -1.2402476806640625
   vertex 0.8436739501953125 3.0 -1.2402476806640625
  endloop
 endfacet
 facet normal -0.4480668604373932 0.0 0.8940000534057617
  outer loop
   vertex 0.6121254272460938 -3.0 -1.3694168701171876
   vertex 0.73075927734375 3.0 -1.3099583740234375
   vertex 0.6121254272460938 3.0 -1.3694168701171876
  endloop
 endfacet
 facet normal -0.4480668604373932 0.0 0.8940000534057617
  outer loop
   vertex 0.6121254272460938 -3.0 -1.3694168701171876
   vertex 0.73075927734375 -3.0 -1.3099583740234375
   vertex 0.73075927734375 3.0 -1.3099583740234375
  endloop
 endfacet
 facet normal -0.36730098724365234 0.0 0.9301021099090576
  outer loop
   vertex 0.48870086669921875 -3.0 -1.41815771484375
   vertex 0.6121254272460938 -3.0 -1.3694168701171876
   vertex 0.6121254272460938 3.0 -1.3694168701171876
  endloop
 endfacet
 facet normal -0.36730098724365234 0.0 0.9301021099090576
  outer loop
   vertex 0.48870086669921875 -3.0 -1.41815771484375
   vertex 0.6121254272460938 3.0 -1.3694168701171876
   vertex 0.48870086669921875 3.0 -1.41815771484375
  endloop
 endfacet
 facet normal -0.2836620509624481 0.0 0.9589242935180664
  outer loop
   vertex 0.48870086669921875 -3.0 -1.41815771484375
   vertex 0.48870086669921875 3.0 -1.41815771484375
   vertex 0.3614515686035156 3.0 -1.4557996826171875
  endloop
 endfacet
 facet normal -0.2836620509624481 0.0 0.9589242935180664
  outer loop
   vertex 0.3614515686035156 -3.0 -1.4557996826171875
   vertex 0.48870086669921875 -3.0 -1.41815771484375
   vertex 0.3614515686035156 3.0 -1.4557996826171875
  endloop
 endfacet
 facet normal -0.19780166447162628 0.0 0.9802420139312744
  outer loop
   vertex 0.23137339782714844 -3.0 -1.4820479736328125
   vertex 0.3614515686035156 -3.0 -1.4557996826171875
   vertex 0.3614515686035156 3.0 -1.4557996826171875
  endloop
 endfacet
 facet normal -0.19780166447162628 0.0 0.9802420139312744
  outer loop
   vertex 0.23137339782714844 -3.0 -1.4820479736328125
   vertex 0.3614515686035156 3.0 -1.4557996826171875
   vertex 0.23137339782714844 3.0 -1.4820479736328125
  endloop
 endfacet
 facet normal -0.11039403080940247 0.0 0.9938879013061523
  outer loop
   vertex 0.23137339782714844 -3.0 -1.4820479736328125
   vertex 0.23137339782714844 3.0 -1.4820479736328125
   vertex 0.09948443603515625 3.0 -1.496697265625
  endloop
 endfacet
 facet normal -0.11039403080940247 0.0 0.9938879013061523
  outer loop
   vertex 0.09948443603515625 -3.0 -1.496697265625
   vertex 0.23137339782714844 -3.0 -1.4820479736328125
   vertex 0.09948443603515625 3.0 -1.496697265625
  endloop
 endfacet
 facet normal -0.022122589871287346 0.0 0.9997552633285522
  outer loop
   vertex -0.03318313217163086 -3.0 -1.4996329345703125
   vertex 0.09948443603515625 3.0 -1.496697265625
   vertex -0.03318313217163086 3.0 -1.4996329345703125
  endloop
 endfacet
 facet normal -0.022122589871287346 0.0 0.9997552633285522
  outer loop
   vertex -0.03318313217163086 -3.0 -1.4996329345703125
   vertex 0.09948443603515625 -3.0 -1.496697265625
   vertex 0.09948443603515625 3.0 -1.496697265625
  endloop
 endfacet
 facet normal 0.0663227066397667 -0.0 0.9977982044219971
  outer loop
   vertex -0.1655909881591797 -3.0 -1.4908319091796876
   vertex -0.03318313217163086 3.0 -1.4996329345703125
   vertex -0.1655909881591797 3.0 -1.4908319091796876
  endloop
 endfacet
 facet normal 0.1542491614818573 -0.0 0.9880319833755493
  outer loop
   vertex -0.1655909881591797 -3.0 -1.4908319091796876
   vertex -0.1655909881591797 3.0 -1.4908319091796876
   vertex -0.296702880859375 3.0 -1.470363037109375
  endloop
 endfacet
 facet normal 0.0663227066397667 0.0 0.9977982044219971
  outer loop
   vertex -0.1655909881591797 -3.0 -1.4908319091796876
   vertex -0.03318313217163086 -3.0 -1.4996329345703125
   vertex -0.03318313217163086 3.0 -1.4996329345703125
  endloop
 endfacet
 facet normal 0.1542491614818573 -0.0 0.9880319833755493
  outer loop
   vertex -0.296702880859375 -3.0 -1.470363037109375
   vertex -0.1655909881591797 -3.0 -1.4908319091796876
   vertex -0.296702880859375 3.0 -1.470363037109375
  endloop
 endfacet
 facet normal 0.24096781015396118 -0.0 0.9705330729484558
  outer loop
   vertex -0.42549267578125 -3.0 -1.4383865966796876
   vertex -0.296702880859375 3.0 -1.470363037109375
   vertex -0.42549267578125 3.0 -1.4383865966796876
  endloop
 endfacet
 facet normal 0.32580071687698364 -0.0 0.9454385042190552
  outer loop
   vertex -0.42549267578125 -3.0 -1.4383865966796876
   vertex -0.42549267578125 3.0 -1.4383865966796876
   vertex -0.550952392578125 3.0 -1.39515283203125
  endloop
 endfacet
 facet normal 0.24096781015396118 0.0 0.9705330729484558
  outer loop
   vertex -0.42549267578125 -3.0 -1.4383865966796876
   vertex -0.296702880859375 -3.0 -1.470363037109375
   vertex -0.296702880859375 3.0 -1.470363037109375
  endloop
 endfacet
 facet normal 0.32580071687698364 -0.0 0.9454385042190552
  outer loop
   vertex -0.550952392578125 -3.0 -1.39515283203125
   vertex -0.42549267578125 -3.0 -1.4383865966796876
   vertex -0.550952392578125 3.0 -1.39515283203125
  endloop
 endfacet
 facet normal 0.40808361768722534 -0.0 0.9129445552825928
  outer loop
   vertex -0.6721001586914063 -3.0 -1.3410001220703125
   vertex -0.550952392578125 3.0 -1.39515283203125
   vertex -0.6721001586914063 3.0 -1.3410001220703125
  endloop
 endfacet
 facet normal 0.40808361768722534 0.0 0.9129445552825928
  outer loop
   vertex -0.6721001586914063 -3.0 -1.3410001220703125
   vertex -0.550952392578125 -3.0 -1.39515283203125
   vertex -0.550952392578125 3.0 -1.39515283203125
  endloop
 endfacet
 facet normal 0.4871726334095001 -0.0 0.8733056783676147
  outer loop
   vertex -0.7879878540039063 -3.0 -1.276352294921875
   vertex -0.6721001586914063 3.0 -1.3410001220703125
   vertex -0.7879878540039063 3.0 -1.276352294921875
  endloop
 endfacet
 facet normal 0.4871726334095001 0.0 0.8733056783676147
  outer loop
   vertex -0.7879878540039063 -3.0 -1.276352294921875
   vertex -0.6721001586914063 -3.0 -1.3410001220703125
   vertex -0.6721001586914063 3.0 -1.3410001220703125
  endloop
 endfacet
 facet normal 0.5624493360519409 -0.0 0.8268316984176636
  outer loop
   vertex -0.89770849609375 -3.0 -1.2017152099609376
   vertex -0.7879878540039063 3.0 -1.276352294921875
   vertex -0.89770849609375 3.0 -1.2017152099609376
  endloop
 endfacet
 facet normal 0.5624493360519409 0.0 0.8268316984176636
  outer loop
   vertex -0.89770849609375 -3.0 -1.2017152099609376
   vertex -0.7879878540039063 -3.0 -1.276352294921875
   vertex -0.7879878540039063 3.0 -1.276352294921875
  endloop
 endfacet
 facet normal 0.6333239078521729 -0.0 0.7738868594169617
  outer loop
   vertex -1.0004033203125 -3.0 -1.1176730957031251
   vertex -0.89770849609375 3.0 -1.2017152099609376
   vertex -1.0004033203125 3.0 -1.1176730957031251
  endloop
 endfacet
 facet normal 0.6333239078521729 0.0 0.7738868594169617
  outer loop
   vertex -1.0004033203125 -3.0 -1.1176730957031251
   vertex -0.89770849609375 -3.0 -1.2017152099609376
   vertex -0.89770849609375 3.0 -1.2017152099609376
  endloop
 endfacet
 facet normal 0.699241578578949 -0.0 0.7148853540420532
  outer loop
   vertex -1.0952685546875 -3.0 -1.0248837890625
   vertex -1.0004033203125 3.0 -1.1176730957031251
   vertex -1.0952685546875 3.0 -1.0248837890625
  endloop
 endfacet
 facet normal 0.699241578578949 0.0 0.7148853540420532
  outer loop
   vertex -1.0952685546875 -3.0 -1.0248837890625
   vertex -1.0004033203125 -3.0 -1.1176730957031251
   vertex -1.0004033203125 3.0 -1.1176730957031251
  endloop
 endfacet
 facet normal 0.7596868276596069 -0.0 0.6502891778945923
  outer loop
   vertex -1.18156201171875 -3.0 -0.9240732421875
   vertex -1.0952685546875 3.0 -1.0248837890625
   vertex -1.18156201171875 3.0 -0.9240732421875
  endloop
 endfacet
 facet normal 0.7596868276596069 0.0 0.6502891778945923
  outer loop
   vertex -1.18156201171875 -3.0 -0.9240732421875
   vertex -1.0952685546875 -3.0 -1.0248837890625
   vertex -1.0952685546875 3.0 -1.0248837890625
  endloop
 endfacet
 facet normal 0.8141869902610779 -0.0 0.580602765083313
  outer loop
   vertex -1.2586080322265625 -3.0 -0.8160305786132813
   vertex -1.18156201171875 3.0 -0.9240732421875
   vertex -1.2586080322265625 3.0 -0.8160305786132813
  endloop
 endfacet
 facet normal 0.8141869902610779 0.0 0.580602765083313
  outer loop
   vertex -1.2586080322265625 -3.0 -0.8160305786132813
   vertex -1.18156201171875 -3.0 -0.9240732421875
   vertex -1.18156201171875 3.0 -0.9240732421875
  endloop
 endfacet
 facet normal 0.8623145818710327 -0.0 0.50637286901474
  outer loop
   vertex -1.3258037109375 -3.0 -0.7016014404296875
   vertex -1.2586080322265625 3.0 -0.8160305786132813
   vertex -1.3258037109375 3.0 -0.7016014404296875
  endloop
 endfacet
 facet normal 0.8623145818710327 0.0 0.50637286901474
  outer loop
   vertex -1.3258037109375 -3.0 -0.7016014404296875
   vertex -1.2586080322265625 -3.0 -0.8160305786132813
   vertex -1.2586080322265625 3.0 -0.8160305786132813
  endloop
 endfacet
 facet normal 0.9036935567855835 -0.0 0.42817968130111694
  outer loop
   vertex -1.3826231689453126 -3.0 -0.5816812744140625
   vertex -1.3258037109375 3.0 -0.7016014404296875
   vertex -1.3826231689453126 3.0 -0.5816812744140625
  endloop
 endfacet
 facet normal 0.9036935567855835 0.0 0.42817968130111694
  outer loop
   vertex -1.3826231689453126 -3.0 -0.5816812744140625
   vertex -1.3258037109375 -3.0 -0.7016014404296875
   vertex -1.3258037109375 3.0 -0.7016014404296875
  endloop
 endfacet
 facet normal 0.9379996061325073 -0.0 0.34663623571395874
  outer loop
   vertex -1.428621826171875 -3.0 -0.45720864868164063
   vertex -1.3826231689453126 3.0 -0.5816812744140625
   vertex -1.428621826171875 3.0 -0.45720864868164063
  endloop
 endfacet
 facet normal 0.9379996061325073 0.0 0.34663623571395874
  outer loop
   vertex -1.428621826171875 -3.0 -0.45720864868164063
   vertex -1.3826231689453126 -3.0 -0.5816812744140625
   vertex -1.3826231689453126 3.0 -0.5816812744140625
  endloop
 endfacet
 facet normal 0.9649650454521179 -0.0 0.2623784840106964
  outer loop
   vertex -1.4634394531250001 -3.0 -0.32915777587890627
   vertex -1.428621826171875 3.0 -0.45720864868164063
   vertex -1.4634394531250001 3.0 -0.32915777587890627
  endloop
 endfacet
 facet normal 0.9649650454521179 0.0 0.2623784840106964
  outer loop
   vertex -1.4634394531250001 -3.0 -0.32915777587890627
   vertex -1.428621826171875 -3.0 -0.45720864868164063
   vertex -1.428621826171875 3.0 -0.45720864868164063
  endloop
 endfacet
 facet normal 0.9843777418136597 -0.0 0.17606908082962036
  outer loop
   vertex -1.4868038330078126 -3.0 -0.19853077697753907
   vertex -1.4634394531250001 3.0 -0.32915777587890627
   vertex -1.4868038330078126 3.0 -0.19853077697753907
  endloop
 endfacet
 facet normal 0.9843777418136597 0.0 0.17606908082962036
  outer loop
   vertex -1.4868038330078126 -3.0 -0.19853077697753907
   vertex -1.4634394531250001 -3.0 -0.32915777587890627
   vertex -1.4634394531250001 3.0 -0.32915777587890627
  endloop
 endfacet
 facet normal 0.9960867762565613 -0.0 0.08837997913360596
  outer loop
   vertex -1.4985318603515625 -3.0 -0.0663500213623047
   vertex -1.4868038330078126 3.0 -0.19853077697753907
   vertex -1.4985318603515625 3.0 -0.0663500213623047
  endloop
 endfacet
 facet normal 1.0 0.0 0.0
  outer loop
   vertex -1.4985318603515625 -3.0 -0.0663500213623047
   vertex -1.4985318603515625 3.0 -0.0663500213623047
   vertex -1.4985318603515625 3.0 0.0663500213623047
  endloop
 endfacet
 facet normal 0.9960867762565613 0.0 0.08837997913360596
  outer loop
   vertex -1.4985318603515625 -3.0 -0.0663500213623047
   vertex -1.4868038330078126 -3.0 -0.19853077697753907
   vertex -1.4868038330078126 3.0 -0.19853077697753907
  endloop
 endfacet
 facet normal 1.0 -0.0 0.0
  outer loop
   vertex -1.4985318603515625 -3.0 0.0663500213623047
   vertex -1.4985318603515625 -3.0 -0.0663500213623047
   vertex -1.4985318603515625 3.0 0.0663500213623047
  endloop
 endfacet
 facet normal 0.9960867762565613 0.0 -0.08837997913360596
  outer loop
   vertex -1.4868038330078126 -3.0 0.19853077697753907
   vertex -1.4985318603515625 3.0 0.0663500213623047
   vertex -1.4868038330078126 3.0 0.19853077697753907
  endloop
 endfacet
 facet normal 0.9960867762565613 0.0 -0.08837997913360596
  outer loop
   vertex -1.4868038330078126 -3.0 0.19853077697753907
   vertex -1.4985318603515625 -3.0 0.0663500213623047
   vertex -1.4985318603515625 3.0 0.0663500213623047
  endloop
 endfacet
 facet normal 0.9843777418136597 0.0 -0.17606908082962036
  outer loop
   vertex -1.4634394531250001 -3.0 0.32915777587890627
   vertex -1.4868038330078126 3.0 0.19853077697753907
   vertex -1.4634394531250001 3.0 0.32915777587890627
  endloop
 endfacet
 facet normal 0.9843777418136597 0.0 -0.17606908082962036
  outer loop
   vertex -1.4634394531250001 -3.0 0.32915777587890627
   vertex -1.4868038330078126 -3.0 0.19853077697753907
   vertex -1.4868038330078126 3.0 0.19853077697753907
  endloop
 endfacet
 facet normal 0.9649650454521179 0.0 -0.2623784840106964
  outer loop
   vertex -1.428621826171875 -3.0 0.45720864868164063
   vertex -1.4634394531250001 -3.0 0.32915777587890627
   vertex -1.4634394531250001 3.0 0.32915777587890627
  endloop
 endfacet
 facet normal 0.9649650454521179 0.0 -0.2623784840106964
  outer loop
   vertex -1.428621826171875 -3.0 0.45720864868164063
   vertex -1.4634394531250001 3.0 0.32915777587890627
   vertex -1.428621826171875 3.0 0.45720864868164063
  endloop
 endfacet
 facet normal 0.9379996061325073 0.0 -0.34663623571395874
  outer loop
   vertex -1.3826231689453126 -3.0 0.5816812744140625
   vertex -1.428621826171875 -3.0 0.45720864868164063
   vertex -1.428621826171875 3.0 0.45720864868164063
  endloop
 endfacet
 facet normal 0.9379996061325073 0.0 -0.34663623571395874
  outer loop
   vertex -1.3826231689453126 -3.0 0.5816812744140625
   vertex -1.428621826171875 3.0 0.45720864868164063
   vertex -1.3826231689453126 3.0 0.5816812744140625
  endloop
 endfacet
 facet normal 0.9036935567855835 0.0 -0.42817968130111694
  outer loop
   vertex -1.3258037109375 -3.0 0.7016014404296875
   vertex -1.3826231689453126 -3.0 0.5816812744140625
   vertex -1.3826231689453126 3.0 0.5816812744140625
  endloop
 endfacet
 facet normal 0.9036935567855835 0.0 -0.42817968130111694
  outer loop
   vertex -1.3258037109375 -3.0 0.7016014404296875
   vertex -1.3826231689453126 3.0 0.5816812744140625
   vertex -1.3258037109375 3.0 0.7016014404296875
  endloop
 endfacet
 facet normal 0.8623145818710327 0.0 -0.50637286901474
  outer loop
   vertex -1.2586080322265625 -3.0 0.8160305786132813
   vertex -1.3258037109375 -3.0 0.7016014404296875
   vertex -1.3258037109375 3.0 0.7016014404296875
  endloop
 endfacet
 facet normal 0.8623145818710327 0.0 -0.50637286901474
  outer loop
   vertex -1.2586080322265625 -3.0 0.8160305786132813
   vertex -1.3258037109375 3.0 0.7016014404296875
   vertex -1.2586080322265625 3.0 0.8160305786132813
  endloop
 endfacet
 facet normal 0.8141869902610779 0.0 -0.580602765083313
  outer loop
   vertex -1.18156201171875 -3.0 0.9240732421875
   vertex -1.2586080322265625 -3.0 0.8160305786132813
   vertex -1.2586080322265625 3.0 0.8160305786132813
  endloop
 endfacet
 facet normal 0.8141869902610779 0.0 -0.580602765083313
  outer loop
   vertex -1.18156201171875 -3.0 0.9240732421875
   vertex -1.2586080322265625 3.0 0.8160305786132813
   vertex -1.18156201171875 3.0 0.9240732421875
  endloop
 endfacet
 facet normal 0.7596868276596069 0.0 -0.6502891778945923
  outer loop
   vertex -1.0952685546875 -3.0 1.0248837890625
   vertex -1.18156201171875 -3.0 0.9240732421875
   vertex -1.18156201171875 3.0 0.9240732421875
  endloop
 endfacet
 facet normal 0.7596868276596069 0.0 -0.6502891778945923
  outer loop
   vertex -1.0952685546875 -3.0 1.0248837890625
   vertex -1.18156201171875 3.0 0.9240732421875
   vertex -1.0952685546875 3.0 1.0248837890625
  endloop
 endfacet
 facet normal 0.699241578578949 0.0 -0.7148853540420532
  outer loop
   vertex -1.0004033203125 -3.0 1.1176730957031251
   vertex -1.0952685546875 -3.0 1.0248837890625
   vertex -1.0952685546875 3.0 1.0248837890625
  endloop
 endfacet
 facet normal 0.699241578578949 0.0 -0.7148853540420532
  outer loop
   vertex -1.0004033203125 -3.0 1.1176730957031251
   vertex -1.0952685546875 3.0 1.0248837890625
   vertex -1.0004033203125 3.0 1.1176730957031251
  endloop
 endfacet
 facet normal 0.6333239078521729 0.0 -0.7738868594169617
  outer loop
   vertex -0.89770849609375 -3.0 1.2017152099609376
   vertex -1.0004033203125 -3.0 1.1176730957031251
   vertex -1.0004033203125 3.0 1.1176730957031251
  endloop
 endfacet
 facet normal 0.6333239078521729 0.0 -0.7738868594169617
  outer loop
   vertex -0.89770849609375 -3.0 1.2017152099609376
   vertex -1.0004033203125 3.0 1.1176730957031251
   vertex -0.89770849609375 3.0 1.2017152099609376
  endloop
 endfacet
 facet normal 0.5624493360519409 0.0 -0.8268316984176636
  outer loop
   vertex -0.7879878540039063 -3.0 1.276352294921875
   vertex -0.89770849609375 -3.0 1.2017152099609376
   vertex -0.89770849609375 3.0 1.2017152099609376
  endloop
 endfacet
 facet normal 0.5624493360519409 0.0 -0.8268316984176636
  outer loop
   vertex -0.7879878540039063 -3.0 1.276352294921875
   vertex -0.89770849609375 3.0 1.2017152099609376
   vertex -0.7879878540039063 3.0 1.276352294921875
  endloop
 endfacet
 facet normal 0.4871726334095001 0.0 -0.8733056783676147
  outer loop
   vertex -0.6721001586914063 -3.0 1.3410001220703125
   vertex -0.7879878540039063 -3.0 1.276352294921875
   vertex -0.7879878540039063 3.0 1.276352294921875
  endloop
 endfacet
 facet normal 0.4871726334095001 0.0 -0.8733056783676147
  outer loop
   vertex -0.6721001586914063 -3.0 1.3410001220703125
   vertex -0.7879878540039063 3.0 1.276352294921875
   vertex -0.6721001586914063 3.0 1.3410001220703125
  endloop
 endfacet
 facet normal 0.40808361768722534 0.0 -0.9129445552825928
  outer loop
   vertex -0.550952392578125 -3.0 1.39515283203125
   vertex -0.6721001586914063 -3.0 1.3410001220703125
   vertex -0.6721001586914063 3.0 1.3410001220703125
  endloop
 endfacet
 facet normal 0.40808361768722534 0.0 -0.9129445552825928
  outer loop
   vertex -0.550952392578125 -3.0 1.39515283203125
   vertex -0.6721001586914063 3.0 1.3410001220703125
   vertex -0.550952392578125 3.0 1.39515283203125
  endloop
 endfacet
 facet normal 0.32580071687698364 0.0 -0.9454385042190552
  outer loop
   vertex -0.42549267578125 -3.0 1.4383865966796876
   vertex -0.550952392578125 -3.0 1.39515283203125
   vertex -0.550952392578125 3.0 1.39515283203125
  endloop
 endfacet
 facet normal 0.32580071687698364 0.0 -0.9454385042190552
  outer loop
   vertex -0.42549267578125 -3.0 1.4383865966796876
   vertex -0.550952392578125 3.0 1.39515283203125
   vertex -0.42549267578125 3.0 1.4383865966796876
  endloop
 endfacet
 facet normal 0.24096781015396118 0.0 -0.9705330729484558
  outer loop
   vertex -0.296702880859375 -3.0 1.470363037109375
   vertex -0.42549267578125 -3.0 1.4383865966796876
   vertex -0.42549267578125 3.0 1.4383865966796876
  endloop
 endfacet
 facet normal 0.24096781015396118 0.0 -0.9705330729484558
  outer loop
   vertex -0.296702880859375 -3.0 1.470363037109375
   vertex -0.42549267578125 3.0 1.4383865966796876
   vertex -0.296702880859375 3.0 1.470363037109375
  endloop
 endfacet
 facet normal 0.1542491614818573 0.0 -0.9880319833755493
  outer loop
   vertex -0.1655909881591797 -3.0 1.4908319091796876
   vertex -0.296702880859375 3.0 1.470363037109375
   vertex -0.1655909881591797 3.0 1.4908319091796876
  endloop
 endfacet
 facet normal 0.1542491614818573 0.0 -0.9880319833755493
  outer loop
   vertex -0.1655909881591797 -3.0 1.4908319091796876
   vertex -0.296702880859375 -3.0 1.470363037109375
   vertex -0.296702880859375 3.0 1.470363037109375
  endloop
 endfacet
 facet normal 0.0663227066397667 0.0 -0.9977982044219971
  outer loop
   vertex -0.03318313217163086 -3.0 1.4996329345703125
   vertex -0.1655909881591797 3.0 1.4908319091796876
   vertex -0.03318313217163086 3.0 1.4996329345703125
  endloop
 endfacet
 facet normal -0.022122589871287346 0.0 -0.9997552633285522
  outer loop
   vertex -0.03318313217163086 -3.0 1.4996329345703125
   vertex -0.03318313217163086 3.0 1.4996329345703125
   vertex 0.09948443603515625 3.0 1.496697265625
  endloop
 endfacet
 facet normal 0.0663227066397667 0.0 -0.9977982044219971
  outer loop
   vertex -0.03318313217163086 -3.0 1.4996329345703125
   vertex -0.1655909881591797 -3.0 1.4908319091796876
   vertex -0.1655909881591797 3.0 1.4908319091796876
  endloop
 endfacet
 facet normal -0.022122589871287346 0.0 -0.9997552633285522
  outer loop
   vertex 0.09948443603515625 -3.0 1.496697265625
   vertex -0.03318313217163086 -3.0 1.4996329345703125
   vertex 0.09948443603515625 3.0 1.496697265625
  endloop
 endfacet
 facet normal -0.11039403080940247 0.0 -0.9938879013061523
  outer loop
   vertex 0.23137339782714844 -3.0 1.4820479736328125
   vertex 0.09948443603515625 3.0 1.496697265625
   vertex 0.23137339782714844 3.0 1.4820479736328125
  endloop
 endfacet
 facet normal -0.11039403080940247 0.0 -0.9938879013061523
  outer loop
   vertex 0.23137339782714844 -3.0 1.4820479736328125
   vertex 0.09948443603515625 -3.0 1.496697265625
   vertex 0.09948443603515625 3.0 1.496697265625
  endloop
 endfacet
 facet normal -0.19780166447162628 0.0 -0.9802420139312744
  outer loop
   vertex 0.3614515686035156 -3.0 1.4557996826171875
   vertex 0.23137339782714844 3.0 1.4820479736328125
   vertex 0.3614515686035156 3.0 1.4557996826171875
  endloop
 endfacet
 facet normal -0.19780166447162628 0.0 -0.9802420139312744
  outer loop
   vertex 0.3614515686035156 -3.0 1.4557996826171875
   vertex 0.23137339782714844 -3.0 1.4820479736328125
   vertex 0.23137339782714844 3.0 1.4820479736328125
  endloop
 endfacet
 facet normal -0.2836620509624481 0.0 -0.9589242935180664
  outer loop
   vertex 0.48870086669921875 -3.0 1.41815771484375
   vertex 0.3614515686035156 3.0 1.4557996826171875
   vertex 0.48870086669921875 3.0 1.41815771484375
  endloop
 endfacet
 facet normal -0.36730098724365234 0.0 -0.9301021099090576
  outer loop
   vertex 0.48870086669921875 -3.0 1.41815771484375
   vertex 0.48870086669921875 3.0 1.41815771484375
   vertex 0.6121254272460938 3.0 1.3694168701171876
  endloop
 endfacet
 facet normal -0.2836620509624481 0.0 -0.9589242935180664
  outer loop
   vertex 0.48870086669921875 -3.0 1.41815771484375
   vertex 0.3614515686035156 -3.0 1.4557996826171875
   vertex 0.3614515686035156 3.0 1.4557996826171875
  endloop
 endfacet
 facet normal -0.36730098724365234 0.0 -0.9301021099090576
  outer loop
   vertex 0.6121254272460938 -3.0 1.3694168701171876
   vertex 0.48870086669921875 -3.0 1.41815771484375
   vertex 0.6121254272460938 3.0 1.3694168701171876
  endloop
 endfacet
 facet normal -0.4480668604373932 0.0 -0.8940000534057617
  outer loop
   vertex 0.73075927734375 -3.0 1.3099583740234375
   vertex 0.6121254272460938 3.0 1.3694168701171876
   vertex 0.73075927734375 3.0 1.3099583740234375
  endloop
 endfacet
 facet normal -0.4480668604373932 0.0 -0.8940000534057617
  outer loop
   vertex 0.73075927734375 -3.0 1.3099583740234375
   vertex 0.6121254272460938 -3.0 1.3694168701171876
   vertex 0.6121254272460938 3.0 1.3694168701171876
  endloop
 endfacet
 facet normal -0.5253252983093262 0.0 -0.8509015440940857
  outer loop
   vertex 0.8436739501953125 -3.0 1.2402476806640625
   vertex 0.73075927734375 3.0 1.3099583740234375
   vertex 0.8436739501953125 3.0 1.2402476806640625
  endloop
 endfacet
 facet normal -0.5253252983093262 0.0 -0.8509015440940857
  outer loop
   vertex 0.8436739501953125 -3.0 1.2402476806640625
   vertex 0.73075927734375 -3.0 1.3099583740234375
   vertex 0.73075927734375 3.0 1.3099583740234375
  endloop
 endfacet
 facet normal -0.5984725952148438 0.0 -0.8011432886123657
  outer loop
   vertex 0.9499857177734375 -3.0 1.160830322265625
   vertex 0.8436739501953125 3.0 1.2402476806640625
   vertex 0.9499857177734375 3.0 1.160830322265625
  endloop
 endfacet
 facet normal -0.5984725952148438 0.0 -0.8011432886123657
  outer loop
   vertex 0.9499857177734375 -3.0 1.160830322265625
   vertex 0.8436739501953125 -3.0 1.2402476806640625
   vertex 0.8436739501953125 3.0 1.2402476806640625
  endloop
 endfacet
 facet normal -0.666935384273529 0.0 -0.7451155781745911
  outer loop
   vertex 1.0488625488281251 -3.0 1.0723280029296876
   vertex 0.9499857177734375 3.0 1.160830322265625
   vertex 1.0488625488281251 3.0 1.0723280029296876
  endloop
 endfacet
 facet normal -0.730178952217102 0.0 -0.6832560300827026
  outer loop
   vertex 1.0488625488281251 -3.0 1.0723280029296876
   vertex 1.0488625488281251 3.0 1.0723280029296876
   vertex 1.1395306396484375 3.0 0.9754332275390625
  endloop
 endfacet
 facet normal -0.666935384273529 0.0 -0.7451155781745911
  outer loop
   vertex 1.0488625488281251 -3.0 1.0723280029296876
   vertex 0.9499857177734375 -3.0 1.160830322265625
   vertex 0.9499857177734375 3.0 1.160830322265625
  endloop
 endfacet
 facet normal -0.730178952217102 0.0 -0.6832560300827026
  outer loop
   vertex 1.1395306396484375 -3.0 0.9754332275390625
   vertex 1.0488625488281251 -3.0 1.0723280029296876
   vertex 1.1395306396484375 3.0 0.9754332275390625
  endloop
 endfacet
 facet normal -0.7877081632614136 0.0 -0.6160485148429871
  outer loop
   vertex 1.2212802734375001 -3.0 0.8709043579101563
   vertex 1.1395306396484375 -3.0 0.9754332275390625
   vertex 1.1395306396484375 3.0 0.9754332275390625
  endloop
 endfacet
 facet normal -0.7877081632614136 0.0 -0.6160485148429871
  outer loop
   vertex 1.2212802734375001 -3.0 0.8709043579101563
   vertex 1.1395306396484375 3.0 0.9754332275390625
   vertex 1.2212802734375001 3.0 0.8709043579101563
  endloop
 endfacet
 facet normal -0.839072048664093 0.0 -0.5440203547477722
  outer loop
   vertex 1.2934718017578126 -3.0 0.7595594482421875
   vertex 1.2212802734375001 -3.0 0.8709043579101563
   vertex 1.2212802734375001 3.0 0.8709043579101563
  endloop
 endfacet
 facet normal -0.839072048664093 0.0 -0.5440203547477722
  outer loop
   vertex 1.2934718017578126 -3.0 0.7595594482421875
   vertex 1.2212802734375001 3.0 0.8709043579101563
   vertex 1.2934718017578126 3.0 0.7595594482421875
  endloop
 endfacet
 facet normal -0.8838691115379333 0.0 -0.4677342176437378
  outer loop
   vertex 1.2934718017578126 -3.0 0.7595594482421875
   vertex 1.2934718017578126 3.0 0.7595594482421875
   vertex 1.3555401611328126 3.0 0.6422699584960938
  endloop
 endfacet
 facet normal -0.8838691115379333 0.0 -0.4677342176437378
  outer loop
   vertex 1.3555401611328126 -3.0 0.6422699584960938
   vertex 1.2934718017578126 -3.0 0.7595594482421875
   vertex 1.3555401611328126 3.0 0.6422699584960938
  endloop
 endfacet
 facet normal -0.9217486381530762 0.0 -0.3877878785133362
  outer loop
   vertex 1.4069996337890625 -3.0 0.519953857421875
   vertex 1.3555401611328126 -3.0 0.6422699584960938
   vertex 1.3555401611328126 3.0 0.6422699584960938
  endloop
 endfacet
 facet normal -0.9217486381530762 0.0 -0.3877878785133362
  outer loop
   vertex 1.4069996337890625 -3.0 0.519953857421875
   vertex 1.3555401611328126 3.0 0.6422699584960938
   vertex 1.4069996337890625 3.0 0.519953857421875
  endloop
 endfacet
 facet normal -0.9524145126342773 0.0 -0.3048059344291687
  outer loop
   vertex 1.4474473876953124 -3.0 0.39356842041015627
   vertex 1.4069996337890625 -3.0 0.519953857421875
   vertex 1.4069996337890625 3.0 0.519953857421875
  endloop
 endfacet
 facet normal -0.9524145126342773 0.0 -0.3048059344291687
  outer loop
   vertex 1.4474473876953124 -3.0 0.39356842041015627
   vertex 1.4069996337890625 3.0 0.519953857421875
   vertex 1.4474473876953124 3.0 0.39356842041015627
  endloop
 endfacet
 facet normal -0.9756262898445129 0.0 -0.2194385975599289
  outer loop
   vertex 1.4474473876953124 -3.0 0.39356842041015627
   vertex 1.4474473876953124 3.0 0.39356842041015627
   vertex 1.47656689453125 3.0 0.264102783203125
  endloop
 endfacet
 facet normal -0.9756262898445129 0.0 -0.2194385975599289
  outer loop
   vertex 1.47656689453125 -3.0 0.264102783203125
   vertex 1.4474473876953124 -3.0 0.39356842041015627
   vertex 1.47656689453125 3.0 0.264102783203125
  endloop
 endfacet
 facet normal -0.9912025332450867 0.0 -0.1323537826538086
  outer loop
   vertex 1.47656689453125 -3.0 0.264102783203125
   vertex 1.47656689453125 3.0 0.264102783203125
   vertex 1.4941302490234376 3.0 0.13257015991210938
  endloop
 endfacet
 facet normal -0.9912025332450867 0.0 -0.1323537826538086
  outer loop
   vertex 1.4941302490234376 -3.0 0.13257015991210938
   vertex 1.47656689453125 -3.0 0.264102783203125
   vertex 1.4941302490234376 3.0 0.13257015991210938
  endloop
 endfacet
 facet normal -0.9990212917327881 0.0 -0.044233232736587524
  outer loop
   vertex 1.4941302490234376 -3.0 0.13257015991210938
   vertex 1.4941302490234376 3.0 0.13257015991210938
   vertex 1.5 3.0 3.6699999593145515e-16
  endloop
 endfacet
 facet normal -0.9990212917327881 0.0 -0.044233232736587524
  outer loop
   vertex 1.5 -3.0 3.6699999593145515e-16
   vertex 1.4941302490234376 -3.0 0.13257015991210938
   vertex 1.5 3.0 3.6699999593145515e-16
  endloop
 endfacet
 facet normal 0.0 1.0 0.0
  outer loop
   vertex -0.7879878540039063 -3.0 1.276352294921875
   vertex -1.0004033203125 -3.0 1.1176730957031251
   vertex -0.89770849609375 -3.0 1.2017152099609376
  endloop
 endfacet
 facet normal 0.0 1.0 0.0
  outer loop
   vertex -0.550952392578125 -3.0 1.39515283203125
   vertex -1.0952685546875 -3.0 1.0248837890625
   vertex -1.0004033203125 -3.0 1.1176730957031251
  endloop
 endfacet
 facet normal 0.0 1.0 0.0
  outer loop
   vertex -0.550952392578125 -3.0 1.39515283203125
   vertex -0.7879878540039063 -3.0 1.276352294921875
   vertex -0.6721001586914063 -3.0 1.3410001220703125
  endloop
 endfacet
 facet normal 0.0 1.0 0.0
  outer loop
   vertex -0.550952392578125 -3.0 1.39515283203125
   vertex -1.0004033203125 -3.0 1.1176730957031251
   vertex -0.7879878540039063 -3.0 1.276352294921875
  endloop
 endfacet
 facet normal 0.0 1.0 0.0
  outer loop
   vertex -1.428621826171875 -3.0 0.45720864868164063
   vertex -1.3826231689453126 -3.0 0.5816812744140625
   vertex -1.3258037109375 -3.0 0.7016014404296875
  endloop
 endfacet
 facet normal 0.0 1.0 0.0
  outer loop
   vertex -1.428621826171875 -3.0 0.45720864868164063
   vertex -1.3258037109375 -3.0 0.7016014404296875
   vertex -1.2586080322265625 -3.0 0.8160305786132813
  endloop
 endfacet
 facet normal 0.0 1.0 0.0
  outer loop
   vertex -1.428621826171875 -3.0 0.45720864868164063
   vertex -1.2586080322265625 -3.0 0.8160305786132813
   vertex -1.18156201171875 -3.0 0.9240732421875
  endloop
 endfacet
 facet normal 0.0 1.0 0.0
  outer loop
   vertex -1.428621826171875 -3.0 0.45720864868164063
   vertex -1.18156201171875 -3.0 0.9240732421875
   vertex -1.0952685546875 -3.0 1.0248837890625
  endloop
 endfacet
 facet normal 0.0 1.0 0.0
  outer loop
   vertex -0.296702880859375 -3.0 1.470363037109375
   vertex -0.550952392578125 -3.0 1.39515283203125
   vertex -0.42549267578125 -3.0 1.4383865966796876
  endloop
 endfacet
 facet normal 0.0 1.0 0.0
  outer loop
   vertex -1.4985318603515625 -3.0 0.0663500213623047
   vertex -1.4868038330078126 -3.0 0.19853077697753907
   vertex -1.4634394531250001 -3.0 0.32915777587890627
  endloop
 endfacet
 facet normal 0.0 1.0 0.0
  outer loop
   vertex -1.4985318603515625 -3.0 0.0663500213623047
   vertex -1.4634394531250001 -3.0 0.32915777587890627
   vertex -1.428621826171875 -3.0 0.45720864868164063
  endloop
 endfacet
 facet normal 0.0 1.0 0.0
  outer loop
   vertex -0.03318313217163086 -3.0 1.4996329345703125
   vertex -0.296702880859375 -3.0 1.470363037109375
   vertex -0.1655909881591797 -3.0 1.4908319091796876
  endloop
 endfacet
 facet normal 0.0 1.0 0.0
  outer loop
   vertex -0.03318313217163086 -3.0 1.4996329345703125
   vertex -0.550952392578125 -3.0 1.39515283203125
   vertex -0.296702880859375 -3.0 1.470363037109375
  endloop
 endfacet
 facet normal 0.0 1.0 0.0
  outer loop
   vertex 0.09948443603515625 -3.0 1.496697265625
   vertex -0.550952392578125 -3.0 1.39515283203125
   vertex -0.03318313217163086 -3.0 1.4996329345703125
  endloop
 endfacet
 facet normal 0.0 1.0 0.0
  outer loop
   vertex -1.4868038330078126 -3.0 -0.19853077697753907
   vertex -1.4985318603515625 -3.0 -0.0663500213623047
   vertex -1.4985318603515625 -3.0 0.0663500213623047
  endloop
 endfacet
 facet normal 0.0 1.0 -0.0
  outer loop
   vertex -1.4634394531250001 -3.0 -0.32915777587890627
   vertex -1.4985318603515625 -3.0 0.0663500213623047
   vertex -1.428621826171875 -3.0 0.45720864868164063
  endloop
 endfacet
 facet normal 0.0 1.0 0.0
  outer loop
   vertex -1.4634394531250001 -3.0 -0.32915777587890627
   vertex -1.4868038330078126 -3.0 -0.19853077697753907
   vertex -1.4985318603515625 -3.0 0.0663500213623047
  endloop
 endfacet
 facet normal 0.0 1.0 0.0
  outer loop
   vertex -1.3826231689453126 -3.0 -0.5816812744140625
   vertex -1.428621826171875 -3.0 -0.45720864868164063
   vertex -1.4634394531250001 -3.0 -0.32915777587890627
  endloop
 endfacet
 facet normal 0.0 1.0 0.0
  outer loop
   vertex 0.6121254272460938 -3.0 1.3694168701171876
   vertex 0.09948443603515625 -3.0 1.496697265625
   vertex 0.23137339782714844 -3.0 1.4820479736328125
  endloop
 endfacet
 facet normal 0.0 1.0 0.0
  outer loop
   vertex 0.6121254272460938 -3.0 1.3694168701171876
   vertex 0.23137339782714844 -3.0 1.4820479736328125
   vertex 0.3614515686035156 -3.0 1.4557996826171875
  endloop
 endfacet
 facet normal 0.0 1.0 0.0
  outer loop
   vertex 0.6121254272460938 -3.0 1.3694168701171876
   vertex 0.3614515686035156 -3.0 1.4557996826171875
   vertex 0.48870086669921875 -3.0 1.41815771484375
  endloop
 endfacet
 facet normal 0.0 1.0 0.0
  outer loop
   vertex 0.73075927734375 -3.0 1.3099583740234375
   vertex 0.09948443603515625 -3.0 1.496697265625
   vertex 0.6121254272460938 -3.0 1.3694168701171876
  endloop
 endfacet
 facet normal 0.0 1.0 0.0
  outer loop
   vertex 0.73075927734375 -3.0 1.3099583740234375
   vertex -0.550952392578125 -3.0 1.39515283203125
   vertex 0.09948443603515625 -3.0 1.496697265625
  endloop
 endfacet
 facet normal 0.0 1.0 0.0
  outer loop
   vertex -1.2586080322265625 -3.0 -0.8160305786132813
   vertex -1.4634394531250001 -3.0 -0.32915777587890627
   vertex -1.428621826171875 -3.0 0.45720864868164063
  endloop
 endfacet
 facet normal 0.0 1.0 0.0
  outer loop
   vertex -1.2586080322265625 -3.0 -0.8160305786132813
   vertex -1.3826231689453126 -3.0 -0.5816812744140625
   vertex -1.4634394531250001 -3.0 -0.32915777587890627
  endloop
 endfacet
 facet normal 0.0 1.0 0.0
  outer loop
   vertex -1.2586080322265625 -3.0 -0.8160305786132813
   vertex -1.3258037109375 -3.0 -0.7016014404296875
   vertex -1.3826231689453126 -3.0 -0.5816812744140625
  endloop
 endfacet
 facet normal 0.0 1.0 0.0
  outer loop
   vertex -1.0952685546875 -3.0 -1.0248837890625
   vertex -1.18156201171875 -3.0 -0.9240732421875
   vertex -1.2586080322265625 -3.0 -0.8160305786132813
  endloop
 endfacet
 facet normal 0.0 1.0 0.0
  outer loop
   vertex -0.7879878540039063 -3.0 -1.276352294921875
   vertex -0.89770849609375 -3.0 -1.2017152099609376
   vertex -1.0004033203125 -3.0 -1.1176730957031251
  endloop
 endfacet
 facet normal 0.0 1.0 0.0
  outer loop
   vertex -0.7879878540039063 -3.0 -1.276352294921875
   vertex -1.0004033203125 -3.0 -1.1176730957031251
   vertex -1.0952685546875 -3.0 -1.0248837890625
  endloop
 endfacet
 facet normal 0.0 1.0 0.0
  outer loop
   vertex -0.7879878540039063 -3.0 -1.276352294921875
   vertex -1.0952685546875 -3.0 -1.0248837890625
   vertex -1.2586080322265625 -3.0 -0.8160305786132813
  endloop
 endfacet
 facet normal 0.0 1.0 0.0
  outer loop
   vertex 1.2934718017578126 -3.0 0.7595594482421875
   vertex 0.9499857177734375 -3.0 1.160830322265625
   vertex 1.0488625488281251 -3.0 1.0723280029296876
  endloop
 endfacet
 facet normal 0.0 1.0 0.0
  outer loop
   vertex 1.2934718017578126 -3.0 0.7595594482421875
   vertex 1.0488625488281251 -3.0 1.0723280029296876
   vertex 1.1395306396484375 -3.0 0.9754332275390625
  endloop
 endfacet
 facet normal 0.0 1.0 0.0
  outer loop
   vertex 1.2934718017578126 -3.0 0.7595594482421875
   vertex 1.1395306396484375 -3.0 0.9754332275390625
   vertex 1.2212802734375001 -3.0 0.8709043579101563
  endloop
 endfacet
 facet normal 0.0 1.0 0.0
  outer loop
   vertex -0.550952392578125 -3.0 -1.39515283203125
   vertex -0.6721001586914063 -3.0 -1.3410001220703125
   vertex -0.7879878540039063 -3.0 -1.276352294921875
  endloop
 endfacet
 facet normal 0.0 1.0 0.0
  outer loop
   vertex -0.550952392578125 -3.0 -1.39515283203125
   vertex -1.2586080322265625 -3.0 -0.8160305786132813
   vertex -1.428621826171875 -3.0 0.45720864868164063
  endloop
 endfacet
 facet normal 0.0 1.0 0.0
  outer loop
   vertex -0.550952392578125 -3.0 -1.39515283203125
   vertex -0.550952392578125 -3.0 1.39515283203125
   vertex 0.73075927734375 -3.0 1.3099583740234375
  endloop
 endfacet
 facet normal 0.0 1.0 0.0
  outer loop
   vertex -0.550952392578125 -3.0 -1.39515283203125
   vertex -0.7879878540039063 -3.0 -1.276352294921875
   vertex -1.2586080322265625 -3.0 -0.8160305786132813
  endloop
 endfacet
 facet normal 0.0 1.0 -0.0
  outer loop
   vertex -0.550952392578125 -3.0 -1.39515283203125
   vertex -1.0952685546875 -3.0 1.0248837890625
   vertex -0.550952392578125 -3.0 1.39515283203125
  endloop
 endfacet
 facet normal 0.0 1.0 0.0
  outer loop
   vertex -0.550952392578125 -3.0 -1.39515283203125
   vertex -1.428621826171875 -3.0 0.45720864868164063
   vertex -1.0952685546875 -3.0 1.0248837890625
  endloop
 endfacet
 facet normal 0.0 1.0 0.0
  outer loop
   vertex 1.4069996337890625 -3.0 0.519953857421875
   vertex 0.9499857177734375 -3.0 1.160830322265625
   vertex 1.2934718017578126 -3.0 0.7595594482421875
  endloop
 endfacet
 facet normal 0.0 1.0 0.0
  outer loop
   vertex 1.4069996337890625 -3.0 0.519953857421875
   vertex 0.73075927734375 -3.0 1.3099583740234375
   vertex 0.8436739501953125 -3.0 1.2402476806640625
  endloop
 endfacet
 facet normal 0.0 1.0 0.0
  outer loop
   vertex 1.4069996337890625 -3.0 0.519953857421875
   vertex 0.8436739501953125 -3.0 1.2402476806640625
   vertex 0.9499857177734375 -3.0 1.160830322265625
  endloop
 endfacet
 facet normal 0.0 1.0 0.0
  outer loop
   vertex 1.4069996337890625 -3.0 0.519953857421875
   vertex 1.2934718017578126 -3.0 0.7595594482421875
   vertex 1.3555401611328126 -3.0 0.6422699584960938
  endloop
 endfacet
 facet normal 0.0 1.0 0.0
  outer loop
   vertex 1.47656689453125 -3.0 0.264102783203125
   vertex 0.73075927734375 -3.0 1.3099583740234375
   vertex 1.4069996337890625 -3.0 0.519953857421875
  endloop
 endfacet
 facet normal 0.0 1.0 0.0
  outer loop
   vertex 1.47656689453125 -3.0 0.264102783203125
   vertex 1.4069996337890625 -3.0 0.519953857421875
   vertex 1.4474473876953124 -3.0 0.39356842041015627
  endloop
 endfacet
 facet normal 0.0 1.0 0.0
  outer loop
   vertex -0.1655909881591797 -3.0 -1.4908319091796876
   vertex -0.296702880859375 -3.0 -1.470363037109375
   vertex -0.42549267578125 -3.0 -1.4383865966796876
  endloop
 endfacet
 facet normal 0.0 1.0 0.0
  outer loop
   vertex -0.1655909881591797 -3.0 -1.4908319091796876
   vertex -0.42549267578125 -3.0 -1.4383865966796876
   vertex -0.550952392578125 -3.0 -1.39515283203125
  endloop
 endfacet
 facet normal 0.0 1.0 0.0
  outer loop
   vertex 1.4941302490234376 -3.0 0.13257015991210938
   vertex -0.550952392578125 -3.0 -1.39515283203125
   vertex 0.73075927734375 -3.0 1.3099583740234375
  endloop
 endfacet
 facet normal 0.0 1.0 0.0
  outer loop
   vertex 1.4941302490234376 -3.0 0.13257015991210938
   vertex 0.73075927734375 -3.0 1.3099583740234375
   vertex 1.47656689453125 -3.0 0.264102783203125
  endloop
 endfacet
 facet normal 0.0 1.0 0.0
  outer loop
   vertex -0.03318313217163086 -3.0 -1.4996329345703125
   vertex -0.1655909881591797 -3.0 -1.4908319091796876
   vertex -0.550952392578125 -3.0 -1.39515283203125
  endloop
 endfacet
 facet normal 0.0 1.0 0.0
  outer loop
   vertex 0.09948443603515625 -3.0 -1.496697265625
   vertex -0.03318313217163086 -3.0 -1.4996329345703125
   vertex -0.550952392578125 -3.0 -1.39515283203125
  endloop
 endfacet
 facet normal 0.0 1.0 0.0
  outer loop
   vertex 0.09948443603515625 -3.0 -1.496697265625
   vertex 1.4941302490234376 -3.0 0.13257015991210938
   vertex 1.5 -3.0 3.6699999593145515e-16
  endloop
 endfacet
 facet normal 0.0 1.0 -0.0
  outer loop
   vertex 0.09948443603515625 -3.0 -1.496697265625
   vertex -0.550952392578125 -3.0 -1.39515283203125
   vertex 1.4941302490234376 -3.0 0.13257015991210938
  endloop
 endfacet
 facet normal 0.0 1.0 0.0
  outer loop
   vertex 0.3614515686035156 -3.0 -1.4557996826171875
   vertex 0.23137339782714844 -3.0 -1.4820479736328125
   vertex 0.09948443603515625 -3.0 -1.496697265625
  endloop
 endfacet
 facet normal 0.0 1.0 0.0
  outer loop
   vertex 1.4069996337890625 -3.0 -0.519953857421875
   vertex 1.5 -3.0 3.6699999593145515e-16
   vertex 1.4941302490234376 -3.0 -0.13257015991210938
  endloop
 endfacet
 facet normal 0.0 1.0 0.0
  outer loop
   vertex 1.4069996337890625 -3.0 -0.519953857421875
   vertex 1.4941302490234376 -3.0 -0.13257015991210938
   vertex 1.47656689453125 -3.0 -0.264102783203125
  endloop
 endfacet
 facet normal 0.0 1.0 0.0
  outer loop
   vertex 1.4069996337890625 -3.0 -0.519953857421875
   vertex 1.47656689453125 -3.0 -0.264102783203125
   vertex 1.4474473876953124 -3.0 -0.39356842041015627
  endloop
 endfacet
 facet normal 0.0 1.0 -0.0
  outer loop
   vertex 1.4069996337890625 -3.0 -0.519953857421875
   vertex 0.09948443603515625 -3.0 -1.496697265625
   vertex 1.5 -3.0 3.6699999593145515e-16
  endloop
 endfacet
 facet normal 0.0 1.0 0.0
  outer loop
   vertex 1.4069996337890625 -3.0 -0.519953857421875
   vertex 0.3614515686035156 -3.0 -1.4557996826171875
   vertex 0.09948443603515625 -3.0 -1.496697265625
  endloop
 endfacet
 facet normal 0.0 1.0 0.0
  outer loop
   vertex 0.6121254272460938 -3.0 -1.3694168701171876
   vertex 0.48870086669921875 -3.0 -1.41815771484375
   vertex 0.3614515686035156 -3.0 -1.4557996826171875
  endloop
 endfacet
 facet normal 0.0 1.0 0.0
  outer loop
   vertex 1.1395306396484375 -3.0 -0.9754332275390625
   vertex 1.4069996337890625 -3.0 -0.519953857421875
   vertex 1.3555401611328126 -3.0 -0.6422699584960938
  endloop
 endfacet
 facet normal 0.0 1.0 0.0
  outer loop
   vertex 1.1395306396484375 -3.0 -0.9754332275390625
   vertex 1.3555401611328126 -3.0 -0.6422699584960938
   vertex 1.2934718017578126 -3.0 -0.7595594482421875
  endloop
 endfacet
 facet normal 0.0 1.0 0.0
  outer loop
   vertex 1.1395306396484375 -3.0 -0.9754332275390625
   vertex 1.2934718017578126 -3.0 -0.7595594482421875
   vertex 1.2212802734375001 -3.0 -0.8709043579101563
  endloop
 endfacet
 facet normal 0.0 1.0 0.0
  outer loop
   vertex 1.1395306396484375 -3.0 -0.9754332275390625
   vertex 0.6121254272460938 -3.0 -1.3694168701171876
   vertex 0.3614515686035156 -3.0 -1.4557996826171875
  endloop
 endfacet
 facet normal 0.0 1.0 -0.0
  outer loop
   vertex 1.1395306396484375 -3.0 -0.9754332275390625
   vertex 0.3614515686035156 -3.0 -1.4557996826171875
   vertex 1.4069996337890625 -3.0 -0.519953857421875
  endloop
 endfacet
 facet normal 0.0 1.0 0.0
  outer loop
   vertex 1.0488625488281251 -3.0 -1.0723280029296876
   vertex 0.9499857177734375 -3.0 -1.160830322265625
   vertex 0.8436739501953125 -3.0 -1.2402476806640625
  endloop
 endfacet
 facet normal 0.0 1.0 -0.0
  outer loop
   vertex 1.0488625488281251 -3.0 -1.0723280029296876
   vertex 0.6121254272460938 -3.0 -1.3694168701171876
   vertex 1.1395306396484375 -3.0 -0.9754332275390625
  endloop
 endfacet
 facet normal 0.0 1.0 0.0
  outer loop
   vertex 1.0488625488281251 -3.0 -1.0723280029296876
   vertex 0.8436739501953125 -3.0 -1.2402476806640625
   vertex 0.73075927734375 -3.0 -1.3099583740234375
  endloop
 endfacet
 facet normal 0.0 1.0 0.0
  outer loop
   vertex 1.0488625488281251 -3.0 -1.0723280029296876
   vertex 0.73075927734375 -3.0 -1.3099583740234375
   vertex 0.6121254272460938 -3.0 -1.3694168701171876
  endloop
 endfacet
 facet normal 0.0 -1.0 0.0
  outer loop
   vertex -1.0004033203125 3.0 1.1176730957031251
   vertex -0.7879878540039063 3.0 1.276352294921875
   vertex -0.89770849609375 3.0 1.2017152099609376
  endloop
 endfacet
 facet normal 0.0 -1.0 0.0
  outer loop
   vertex -1.0952685546875 3.0 1.0248837890625
   vertex -0.550952392578125 3.0 1.39515283203125
   vertex -1.0004033203125 3.0 1.1176730957031251
  endloop
 endfacet
 facet normal 0.0 -1.0 0.0
  outer loop
   vertex -0.7879878540039063 3.0 1.276352294921875
   vertex -0.550952392578125 3.0 1.39515283203125
   vertex -0.6721001586914063 3.0 1.3410001220703125
  endloop
 endfacet
 facet normal 0.0 -1.0 0.0
  outer loop
   vertex -1.0004033203125 3.0 1.1176730957031251
   vertex -0.550952392578125 3.0 1.39515283203125
   vertex -0.7879878540039063 3.0 1.276352294921875
  endloop
 endfacet
 facet normal 0.0 -1.0 -0.0
  outer loop
   vertex -1.3826231689453126 3.0 0.5816812744140625
   vertex -1.428621826171875 3.0 0.45720864868164063
   vertex -1.3258037109375 3.0 0.7016014404296875
  endloop
 endfacet
 facet normal 0.0 -1.0 -0.0
  outer loop
   vertex -1.3258037109375 3.0 0.7016014404296875
   vertex -1.428621826171875 3.0 0.45720864868164063
   vertex -1.2586080322265625 3.0 0.8160305786132813
  endloop
 endfacet
 facet normal 0.0 -1.0 -0.0
  outer loop
   vertex -1.2586080322265625 3.0 0.8160305786132813
   vertex -1.428621826171875 3.0 0.45720864868164063
   vertex -1.18156201171875 3.0 0.9240732421875
  endloop
 endfacet
 facet normal 0.0 -1.0 -0.0
  outer loop
   vertex -1.18156201171875 3.0 0.9240732421875
   vertex -1.428621826171875 3.0 0.45720864868164063
   vertex -1.0952685546875 3.0 1.0248837890625
  endloop
 endfacet
 facet normal 0.0 -1.0 0.0
  outer loop
   vertex -0.550952392578125 3.0 1.39515283203125
   vertex -0.296702880859375 3.0 1.470363037109375
   vertex -0.42549267578125 3.0 1.4383865966796876
  endloop
 endfacet
 facet normal 0.0 -1.0 -0.0
  outer loop
   vertex -1.4868038330078126 3.0 0.19853077697753907
   vertex -1.4985318603515625 3.0 0.0663500213623047
   vertex -1.4634394531250001 3.0 0.32915777587890627
  endloop
 endfacet
 facet normal 0.0 -1.0 -0.0
  outer loop
   vertex -1.4634394531250001 3.0 0.32915777587890627
   vertex -1.4985318603515625 3.0 0.0663500213623047
   vertex -1.428621826171875 3.0 0.45720864868164063
  endloop
 endfacet
 facet normal 0.0 -1.0 0.0
  outer loop
   vertex -0.296702880859375 3.0 1.470363037109375
   vertex -0.03318313217163086 3.0 1.4996329345703125
   vertex -0.1655909881591797 3.0 1.4908319091796876
  endloop
 endfacet
 facet normal 0.0 -1.0 0.0
  outer loop
   vertex -0.550952392578125 3.0 1.39515283203125
   vertex -0.03318313217163086 3.0 1.4996329345703125
   vertex -0.296702880859375 3.0 1.470363037109375
  endloop
 endfacet
 facet normal 0.0 -1.0 0.0
  outer loop
   vertex -0.550952392578125 3.0 1.39515283203125
   vertex 0.09948443603515625 3.0 1.496697265625
   vertex -0.03318313217163086 3.0 1.4996329345703125
  endloop
 endfacet
 facet normal 0.0 -1.0 0.0
  outer loop
   vertex -1.4985318603515625 3.0 -0.0663500213623047
   vertex -1.4868038330078126 3.0 -0.19853077697753907
   vertex -1.4985318603515625 3.0 0.0663500213623047
  endloop
 endfacet
 facet normal 0.0 -1.0 0.0
  outer loop
   vertex -1.4985318603515625 3.0 0.0663500213623047
   vertex -1.4634394531250001 3.0 -0.32915777587890627
   vertex -1.428621826171875 3.0 0.45720864868164063
  endloop
 endfacet
 facet normal 0.0 -1.0 0.0
  outer loop
   vertex -1.4868038330078126 3.0 -0.19853077697753907
   vertex -1.4634394531250001 3.0 -0.32915777587890627
   vertex -1.4985318603515625 3.0 0.0663500213623047
  endloop
 endfacet
 facet normal 0.0 -1.0 0.0
  outer loop
   vertex -1.428621826171875 3.0 -0.45720864868164063
   vertex -1.3826231689453126 3.0 -0.5816812744140625
   vertex -1.4634394531250001 3.0 -0.32915777587890627
  endloop
 endfacet
 facet normal 0.0 -1.0 0.0
  outer loop
   vertex 0.09948443603515625 3.0 1.496697265625
   vertex 0.6121254272460938 3.0 1.3694168701171876
   vertex 0.23137339782714844 3.0 1.4820479736328125
  endloop
 endfacet
 facet normal 0.0 -1.0 0.0
  outer loop
   vertex 0.23137339782714844 3.0 1.4820479736328125
   vertex 0.6121254272460938 3.0 1.3694168701171876
   vertex 0.3614515686035156 3.0 1.4557996826171875
  endloop
 endfacet
 facet normal 0.0 -1.0 0.0
  outer loop
   vertex 0.3614515686035156 3.0 1.4557996826171875
   vertex 0.6121254272460938 3.0 1.3694168701171876
   vertex 0.48870086669921875 3.0 1.41815771484375
  endloop
 endfacet
 facet normal 0.0 -1.0 0.0
  outer loop
   vertex 0.09948443603515625 3.0 1.496697265625
   vertex 0.73075927734375 3.0 1.3099583740234375
   vertex 0.6121254272460938 3.0 1.3694168701171876
  endloop
 endfacet
 facet normal 0.0 -1.0 0.0
  outer loop
   vertex -0.550952392578125 3.0 1.39515283203125
   vertex 0.73075927734375 3.0 1.3099583740234375
   vertex 0.09948443603515625 3.0 1.496697265625
  endloop
 endfacet
 facet normal 0.0 -1.0 0.0
  outer loop
   vertex -1.4634394531250001 3.0 -0.32915777587890627
   vertex -1.2586080322265625 3.0 -0.8160305786132813
   vertex -1.428621826171875 3.0 0.45720864868164063
  endloop
 endfacet
 facet normal 0.0 -1.0 0.0
  outer loop
   vertex -1.3826231689453126 3.0 -0.5816812744140625
   vertex -1.2586080322265625 3.0 -0.8160305786132813
   vertex -1.4634394531250001 3.0 -0.32915777587890627
  endloop
 endfacet
 facet normal 0.0 -1.0 0.0
  outer loop
   vertex -1.3258037109375 3.0 -0.7016014404296875
   vertex -1.2586080322265625 3.0 -0.8160305786132813
   vertex -1.3826231689453126 3.0 -0.5816812744140625
  endloop
 endfacet
 facet normal 0.0 -1.0 0.0
  outer loop
   vertex -1.18156201171875 3.0 -0.9240732421875
   vertex -1.0952685546875 3.0 -1.0248837890625
   vertex -1.2586080322265625 3.0 -0.8160305786132813
  endloop
 endfacet
 facet normal 0.0 -1.0 0.0
  outer loop
   vertex -0.89770849609375 3.0 -1.2017152099609376
   vertex -0.7879878540039063 3.0 -1.276352294921875
   vertex -1.0004033203125 3.0 -1.1176730957031251
  endloop
 endfacet
 facet normal 0.0 -1.0 0.0
  outer loop
   vertex -1.0004033203125 3.0 -1.1176730957031251
   vertex -0.7879878540039063 3.0 -1.276352294921875
   vertex -1.0952685546875 3.0 -1.0248837890625
  endloop
 endfacet
 facet normal 0.0 -1.0 0.0
  outer loop
   vertex -1.0952685546875 3.0 -1.0248837890625
   vertex -0.7879878540039063 3.0 -1.276352294921875
   vertex -1.2586080322265625 3.0 -0.8160305786132813
  endloop
 endfacet
 facet normal 0.0 -1.0 0.0
  outer loop
   vertex 0.9499857177734375 3.0 1.160830322265625
   vertex 1.2934718017578126 3.0 0.7595594482421875
   vertex 1.0488625488281251 3.0 1.0723280029296876
  endloop
 endfacet
 facet normal 0.0 -1.0 0.0
  outer loop
   vertex 1.0488625488281251 3.0 1.0723280029296876
   vertex 1.2934718017578126 3.0 0.7595594482421875
   vertex 1.1395306396484375 3.0 0.9754332275390625
  endloop
 endfacet
 facet normal 0.0 -1.0 0.0
  outer loop
   vertex 1.1395306396484375 3.0 0.9754332275390625
   vertex 1.2934718017578126 3.0 0.7595594482421875
   vertex 1.2212802734375001 3.0 0.8709043579101563
  endloop
 endfacet
 facet normal 0.0 -1.0 0.0
  outer loop
   vertex -0.6721001586914063 3.0 -1.3410001220703125
   vertex -0.550952392578125 3.0 -1.39515283203125
   vertex -0.7879878540039063 3.0 -1.276352294921875
  endloop
 endfacet
 facet normal 0.0 -1.0 0.0
  outer loop
   vertex -1.2586080322265625 3.0 -0.8160305786132813
   vertex -0.550952392578125 3.0 -1.39515283203125
   vertex -1.428621826171875 3.0 0.45720864868164063
  endloop
 endfacet
 facet normal 0.0 -1.0 0.0
  outer loop
   vertex -0.550952392578125 3.0 1.39515283203125
   vertex -0.550952392578125 3.0 -1.39515283203125
   vertex 0.73075927734375 3.0 1.3099583740234375
  endloop
 endfacet
 facet normal 0.0 -1.0 0.0
  outer loop
   vertex -0.7879878540039063 3.0 -1.276352294921875
   vertex -0.550952392578125 3.0 -1.39515283203125
   vertex -1.2586080322265625 3.0 -0.8160305786132813
  endloop
 endfacet
 facet normal 0.0 -1.0 0.0
  outer loop
   vertex -1.0952685546875 3.0 1.0248837890625
   vertex -0.550952392578125 3.0 -1.39515283203125
   vertex -0.550952392578125 3.0 1.39515283203125
  endloop
 endfacet
 facet normal 0.0 -1.0 0.0
  outer loop
   vertex -1.428621826171875 3.0 0.45720864868164063
   vertex -0.550952392578125 3.0 -1.39515283203125
   vertex -1.0952685546875 3.0 1.0248837890625
  endloop
 endfacet
 facet normal 0.0 -1.0 0.0
  outer loop
   vertex 0.9499857177734375 3.0 1.160830322265625
   vertex 1.4069996337890625 3.0 0.519953857421875
   vertex 1.2934718017578126 3.0 0.7595594482421875
  endloop
 endfacet
 facet normal 0.0 -1.0 0.0
  outer loop
   vertex 0.73075927734375 3.0 1.3099583740234375
   vertex 1.4069996337890625 3.0 0.519953857421875
   vertex 0.8436739501953125 3.0 1.2402476806640625
  endloop
 endfacet
 facet normal 0.0 -1.0 0.0
  outer loop
   vertex 0.8436739501953125 3.0 1.2402476806640625
   vertex 1.4069996337890625 3.0 0.519953857421875
   vertex 0.9499857177734375 3.0 1.160830322265625
  endloop
 endfacet
 facet normal 0.0 -1.0 0.0
  outer loop
   vertex 1.2934718017578126 3.0 0.7595594482421875
   vertex 1.4069996337890625 3.0 0.519953857421875
   vertex 1.3555401611328126 3.0 0.6422699584960938
  endloop
 endfacet
 facet normal 0.0 -1.0 0.0
  outer loop
   vertex 0.73075927734375 3.0 1.3099583740234375
   vertex 1.47656689453125 3.0 0.264102783203125
   vertex 1.4069996337890625 3.0 0.519953857421875
  endloop
 endfacet
 facet normal 0.0 -1.0 0.0
  outer loop
   vertex 1.4069996337890625 3.0 0.519953857421875
   vertex 1.47656689453125 3.0 0.264102783203125
   vertex 1.4474473876953124 3.0 0.39356842041015627
  endloop
 endfacet
 facet normal 0.0 -1.0 0.0
  outer loop
   vertex -0.296702880859375 3.0 -1.470363037109375
   vertex -0.1655909881591797 3.0 -1.4908319091796876
   vertex -0.42549267578125 3.0 -1.4383865966796876
  endloop
 endfacet
 facet normal 0.0 -1.0 0.0
  outer loop
   vertex -0.42549267578125 3.0 -1.4383865966796876
   vertex -0.1655909881591797 3.0 -1.4908319091796876
   vertex -0.550952392578125 3.0 -1.39515283203125
  endloop
 endfacet
 facet normal 0.0 -1.0 0.0
  outer loop
   vertex -0.550952392578125 3.0 -1.39515283203125
   vertex 1.4941302490234376 3.0 0.13257015991210938
   vertex 0.73075927734375 3.0 1.3099583740234375
  endloop
 endfacet
 facet normal 0.0 -1.0 0.0
  outer loop
   vertex 0.73075927734375 3.0 1.3099583740234375
   vertex 1.4941302490234376 3.0 0.13257015991210938
   vertex 1.47656689453125 3.0 0.264102783203125
  endloop
 endfacet
 facet normal 0.0 -1.0 0.0
  outer loop
   vertex -0.1655909881591797 3.0 -1.4908319091796876
   vertex -0.03318313217163086 3.0 -1.4996329345703125
   vertex -0.550952392578125 3.0 -1.39515283203125
  endloop
 endfacet
 facet normal 0.0 -1.0 0.0
  outer loop
   vertex -0.03318313217163086 3.0 -1.4996329345703125
   vertex 0.09948443603515625 3.0 -1.496697265625
   vertex -0.550952392578125 3.0 -1.39515283203125
  endloop
 endfacet
 facet normal 0.0 -1.0 -0.0
  outer loop
   vertex 1.4941302490234376 3.0 0.13257015991210938
   vertex 0.09948443603515625 3.0 -1.496697265625
   vertex 1.5 3.0 3.6699999593145515e-16
  endloop
 endfacet
 facet normal 0.0 -1.0 0.0
  outer loop
   vertex -0.550952392578125 3.0 -1.39515283203125
   vertex 0.09948443603515625 3.0 -1.496697265625
   vertex 1.4941302490234376 3.0 0.13257015991210938
  endloop
 endfacet
 facet normal -0.0 -1.0 0.0
  outer loop
   vertex 0.23137339782714844 3.0 -1.4820479736328125
   vertex 0.3614515686035156 3.0 -1.4557996826171875
   vertex 0.09948443603515625 3.0 -1.496697265625
  endloop
 endfacet
 facet normal 0.0 -1.0 0.0
  outer loop
   vertex 1.5 3.0 3.6699999593145515e-16
   vertex 1.4069996337890625 3.0 -0.519953857421875
   vertex 1.4941302490234376 3.0 -0.13257015991210938
  endloop
 endfacet
 facet normal 0.0 -1.0 0.0
  outer loop
   vertex 1.4941302490234376 3.0 -0.13257015991210938
   vertex 1.4069996337890625 3.0 -0.519953857421875
   vertex 1.47656689453125 3.0 -0.264102783203125
  endloop
 endfacet
 facet normal 0.0 -1.0 0.0
  outer loop
   vertex 1.47656689453125 3.0 -0.264102783203125
   vertex 1.4069996337890625 3.0 -0.519953857421875
   vertex 1.4474473876953124 3.0 -0.39356842041015627
  endloop
 endfacet
 facet normal 0.0 -1.0 0.0
  outer loop
   vertex 0.09948443603515625 3.0 -1.496697265625
   vertex 1.4069996337890625 3.0 -0.519953857421875
   vertex 1.5 3.0 3.6699999593145515e-16
  endloop
 endfacet
 facet normal -0.0 -1.0 0.0
  outer loop
   vertex 0.3614515686035156 3.0 -1.4557996826171875
   vertex 1.4069996337890625 3.0 -0.519953857421875
   vertex 0.09948443603515625 3.0 -1.496697265625
  endloop
 endfacet
 facet normal -0.0 -1.0 0.0
  outer loop
   vertex 0.48870086669921875 3.0 -1.41815771484375
   vertex 0.6121254272460938 3.0 -1.3694168701171876
   vertex 0.3614515686035156 3.0 -1.4557996826171875
  endloop
 endfacet
 facet normal 0.0 -1.0 0.0
  outer loop
   vertex 1.4069996337890625 3.0 -0.519953857421875
   vertex 1.1395306396484375 3.0 -0.9754332275390625
   vertex 1.3555401611328126 3.0 -0.6422699584960938
  endloop
 endfacet
 facet normal 0.0 -1.0 0.0
  outer loop
   vertex 1.3555401611328126 3.0 -0.6422699584960938
   vertex 1.1395306396484375 3.0 -0.9754332275390625
   vertex 1.2934718017578126 3.0 -0.7595594482421875
  endloop
 endfacet
 facet normal 0.0 -1.0 0.0
  outer loop
   vertex 1.2934718017578126 3.0 -0.7595594482421875
   vertex 1.1395306396484375 3.0 -0.9754332275390625
   vertex 1.2212802734375001 3.0 -0.8709043579101563
  endloop
 endfacet
 facet normal -0.0 -1.0 0.0
  outer loop
   vertex 0.6121254272460938 3.0 -1.3694168701171876
   vertex 1.1395306396484375 3.0 -0.9754332275390625
   vertex 0.3614515686035156 3.0 -1.4557996826171875
  endloop
 endfacet
 facet normal 0.0 -1.0 0.0
  outer loop
   vertex 0.3614515686035156 3.0 -1.4557996826171875
   vertex 1.1395306396484375 3.0 -0.9754332275390625
   vertex 1.4069996337890625 3.0 -0.519953857421875
  endloop
 endfacet
 facet normal -0.0 -1.0 0.0
  outer loop
   vertex 0.9499857177734375 3.0 -1.160830322265625
   vertex 1.0488625488281251 3.0 -1.0723280029296876
   vertex 0.8436739501953125 3.0 -1.2402476806640625
  endloop
 endfacet
 facet normal 0.0 -1.0 0.0
  outer loop
   vertex 0.6121254272460938 3.0 -1.3694168701171876
   vertex 1.0488625488281251 3.0 -1.0723280029296876
   vertex 1.1395306396484375 3.0 -0.9754332275390625
  endloop
 endfacet
 facet normal -0.0 -1.0 0.0
  outer loop
   vertex 0.8436739501953125 3.0 -1.2402476806640625
   vertex 1.0488625488281251 3.0 -1.0723280029296876
   vertex 0.73075927734375 3.0 -1.3099583740234375
  endloop
 endfacet
 facet normal -0.0 -1.0 0.0
  outer loop
   vertex 0.73075927734375 3.0 -1.3099583740234375
   vertex 1.0488625488281251 3.0 -1.0723280029296876
   vertex 0.6121254272460938 3.0 -1.3694168701171876
  endloop
 endfacet
endsolid MeshRefinement
