# Wavefront OBJ file written 2026-06-22T09:24:06
o Cut_Geometry_edgeMesh

# points : 328
# lines  : 334

# <points count="328">
v -9 -9 -0.5
v 9 -9 -0.5
v -9 15 -0.5
v 9 15 -0.5
v -9 -9 0.5
v 9 -9 0.5
v -9 15 0.5
v 9 15 0.5
v 4.5 0 -0.5
v 4.5 0 0.5
v -3.22268486022949 -3.14074873924255 -0.5
v -2.88266921043396 -3.45546197891235 -0.5
v -3.52853918075562 -2.79274272918701 -0.5
v -2.51209664344788 -3.7335467338562 -0.5
v -3.79698991775513 -2.41513276100159 -0.5
v -2.11489534378052 -3.97205471992493 -0.5
v -4.02519178390503 -2.01192212104797 -0.5
v -1.69527554512024 -4.16845798492432 -0.5
v -4.21072578430176 -1.58738434314728 -0.5
v -1.25768530368805 -4.32067441940308 -0.5
v -4.35162496566772 -1.1460200548172 -0.5
v -0.806763410568237 -4.42709064483643 -0.5
v -4.44639539718628 -0.692507565021515 -0.5
v -0.347289592027664 -4.48657894134521 -0.5
v -4.4940333366394 -0.231654405593872 -0.5
v 0.115865610539913 -4.49850845336914 -0.5
v -4.4940333366394 0.231654405593872 -0.5
v -4.44639539718628 0.692507565021515 -0.5
v 0.577792584896088 -4.46275186538696 -0.5
v 1.03359484672546 -4.37968921661377 -0.5
v 1.47844064235687 -4.25020170211792 -0.5
v 1.90761470794678 -4.07566022872925 -0.5
v 2.31656765937805 -3.8579158782959 -0.5
v 2.70096445083618 -3.59927654266357 -0.5
v 3.05673003196716 -3.30248403549194 -0.5
v 3.3800938129425 -2.97068452835083 -0.5
v 3.66762733459473 -2.60739493370056 -0.5
v 3.91628360748291 -2.21646642684937 -0.5
v 4.12342643737793 -1.80204260349274 -0.5
v 4.2868595123291 -1.36851668357849 -0.5
v 4.40485048294067 -0.920484304428101 -0.5
v 4.476149559021 -0.462694495916367 -0.5
v 4.476149559021 0.462694495916367 -0.5
v 0.115865610539913 4.49850845336914 -0.5
v -0.347289592027664 4.48657894134521 -0.5
v -0.806763410568237 4.42709064483643 -0.5
v -1.25768530368805 4.32067441940308 -0.5
v -1.69527554512024 4.16845798492432 -0.5
v -2.11489534378052 3.97205471992493 -0.5
v -2.51209664344788 3.7335467338562 -0.5
v -2.88266921043396 3.45546197891235 -0.5
v -3.22268486022949 3.14074873924255 -0.5
v -3.52853918075562 2.79274272918701 -0.5
v -3.79698991775513 2.41513276100159 -0.5
v -4.02519178390503 2.01192212104797 -0.5
v -4.21072578430176 1.58738434314728 -0.5
v -4.35162496566772 1.1460200548172 -0.5
v 4.40485048294067 0.920484304428101 -0.5
v 4.2868595123291 1.36851668357849 -0.5
v 4.12342643737793 1.80204260349274 -0.5
v 3.91628360748291 2.21646642684937 -0.5
v 3.66762733459473 2.60739493370056 -0.5
v 3.3800938129425 2.97068452835083 -0.5
v 3.05673003196716 3.30248403549194 -0.5
v 2.70096445083618 3.59927654266357 -0.5
v 2.31656765937805 3.8579158782959 -0.5
v 1.90761470794678 4.07566022872925 -0.5
v 1.47844064235687 4.25020170211792 -0.5
v 1.03359484672546 4.37968921661377 -0.5
v 0.577792584896088 4.46275186538696 -0.5
v -2.88266921043396 -3.45546197891235 0.5
v -3.22268486022949 -3.14074873924255 0.5
v -3.52853918075562 -2.79274272918701 0.5
v -2.51209664344788 -3.7335467338562 0.5
v -3.79698991775513 -2.41513276100159 0.5
v -2.11489534378052 -3.97205471992493 0.5
v -4.02519178390503 -2.01192212104797 0.5
v -1.69527554512024 -4.16845798492432 0.5
v -4.21072578430176 -1.58738434314728 0.5
v -1.25768530368805 -4.32067441940308 0.5
v -4.35162496566772 -1.1460200548172 0.5
v -0.806763410568237 -4.42709064483643 0.5
v -4.44639539718628 -0.692507565021515 0.5
v -0.347289592027664 -4.48657894134521 0.5
v -4.4940333366394 -0.231654405593872 0.5
v 0.115865610539913 -4.49850845336914 0.5
v -4.4940333366394 0.231654405593872 0.5
v -4.44639539718628 0.692507565021515 0.5
v 0.577792584896088 -4.46275186538696 0.5
v 1.03359484672546 -4.37968921661377 0.5
v 1.47844064235687 -4.25020170211792 0.5
v 1.90761470794678 -4.07566022872925 0.5
v 2.31656765937805 -3.8579158782959 0.5
v 2.70096445083618 -3.59927654266357 0.5
v 3.05673003196716 -3.30248403549194 0.5
v 3.3800938129425 -2.97068452835083 0.5
v 3.66762733459473 -2.60739493370056 0.5
v 3.91628360748291 -2.21646642684937 0.5
v 4.12342643737793 -1.80204260349274 0.5
v 4.2868595123291 -1.36851668357849 0.5
v 4.40485048294067 -0.920484304428101 0.5
v 4.476149559021 -0.462694495916367 0.5
v 4.476149559021 0.462694495916367 0.5
v -0.347289592027664 4.48657894134521 0.5
v 0.115865610539913 4.49850845336914 0.5
v -0.806763410568237 4.42709064483643 0.5
v -1.25768530368805 4.32067441940308 0.5
v -1.69527554512024 4.16845798492432 0.5
v -2.11489534378052 3.97205471992493 0.5
v -2.51209664344788 3.7335467338562 0.5
v -2.88266921043396 3.45546197891235 0.5
v -3.22268486022949 3.14074873924255 0.5
v -3.52853918075562 2.79274272918701 0.5
v -3.79698991775513 2.41513276100159 0.5
v -4.02519178390503 2.01192212104797 0.5
v -4.21072578430176 1.58738434314728 0.5
v -4.35162496566772 1.1460200548172 0.5
v 4.40485048294067 0.920484304428101 0.5
v 4.2868595123291 1.36851668357849 0.5
v 4.12342643737793 1.80204260349274 0.5
v 3.91628360748291 2.21646642684937 0.5
v 3.66762733459473 2.60739493370056 0.5
v 3.3800938129425 2.97068452835083 0.5
v 3.05673003196716 3.30248403549194 0.5
v 2.70096445083618 3.59927654266357 0.5
v 2.31656765937805 3.8579158782959 0.5
v 1.90761470794678 4.07566022872925 0.5
v 1.47844064235687 4.25020170211792 0.5
v 1.03359484672546 4.37968921661377 0.5
v 0.577792584896088 4.46275186538696 0.5
v 4.49112033843994 0.282557338476181 -0.5
v 4.49112033843994 0.282557338476181 0.5
v 4.46451616287231 0.563999593257904 0.5
v 4.42029237747192 0.843215942382812 0.5
v 4.46451616287231 0.563999593257904 -0.5
v 4.35862398147583 1.11910450458527 0.5
v 4.42029237747192 0.843215942382812 -0.5
v 4.35862398147583 1.11910450458527 -0.5
v 4.27975416183472 1.39057636260986 0.5
v 4.27975416183472 1.39057636260986 -0.5
v 4.18399429321289 1.65656054019928 0.5
v 4.18399429321289 1.65656054019928 -0.5
v 4.07172155380249 1.91600680351257 0.5
v 4.07172155380249 1.91600680351257 -0.5
v 3.94338011741638 2.16789150238037 0.5
v 3.94338011741638 2.16789150238037 -0.5
v 3.79947566986084 2.41122055053711 0.5
v 3.64057636260986 2.64503359794617 0.5
v 3.79947566986084 2.41122055053711 -0.5
v 3.64057636260986 2.64503359794617 -0.5
v 3.46730947494507 2.86840796470642 0.5
v 3.46730947494507 2.86840796470642 -0.5
v 3.28035879135132 3.08046197891235 0.5
v 3.28035879135132 3.08046197891235 -0.5
v 3.08046197891235 3.28035879135132 0.5
v 3.08046197891235 3.28035879135132 -0.5
v 2.86840796470642 3.46730947494507 0.5
v 2.86840796470642 3.46730947494507 -0.5
v 2.64503359794617 3.64057636260986 0.5
v 2.64503359794617 3.64057636260986 -0.5
v 2.41122055053711 3.79947566986084 0.5
v 2.41122055053711 3.79947566986084 -0.5
v 2.16789150238037 3.94338011741638 0.5
v 2.16789150238037 3.94338011741638 -0.5
v 1.91600680351257 4.07172155380249 0.5
v 1.91600680351257 4.07172155380249 -0.5
v 1.65656054019928 4.18399429321289 0.5
v 1.65656054019928 4.18399429321289 -0.5
v 1.39057636260986 4.27975416183472 0.5
v 1.11910450458527 4.35862398147583 0.5
v 1.39057636260986 4.27975416183472 -0.5
v 1.11910450458527 4.35862398147583 -0.5
v 0.843215942382812 4.42029237747192 0.5
v 0.843215942382812 4.42029237747192 -0.5
v 0.563999593257904 4.46451616287231 0.5
v 0.563999593257904 4.46451616287231 -0.5
v 0.282557338476181 4.49112033843994 0.5
v 0.282557338476181 4.49112033843994 -0.5
v -2.72205684303194e-15 4.5 -0.5
v -2.72205684303194e-15 4.5 0.5
v -0.282557338476181 4.49112033843994 -0.5
v -0.282557338476181 4.49112033843994 0.5
v -0.563999593257904 4.46451616287231 0.5
v -0.563999593257904 4.46451616287231 -0.5
v -0.843215942382812 4.42029237747192 0.5
v -0.843215942382812 4.42029237747192 -0.5
v -1.11910450458527 4.35862398147583 -0.5
v -1.11910450458527 4.35862398147583 0.5
v -1.39057636260986 4.27975416183472 0.5
v -1.39057636260986 4.27975416183472 -0.5
v -1.65656054019928 4.18399429321289 -0.5
v -1.65656054019928 4.18399429321289 0.5
v -1.91600680351257 4.07172155380249 0.5
v -1.91600680351257 4.07172155380249 -0.5
v -2.16789150238037 3.94338011741638 0.5
v -2.16789150238037 3.94338011741638 -0.5
v -2.41122055053711 3.79947566986084 0.5
v -2.64503359794617 3.64057636260986 0.5
v -2.41122055053711 3.79947566986084 -0.5
v -2.64503359794617 3.64057636260986 -0.5
v -2.86840796470642 3.46730947494507 0.5
v -2.86840796470642 3.46730947494507 -0.5
v -3.08046197891235 3.28035879135132 0.5
v -3.08046197891235 3.28035879135132 -0.5
v -3.28035879135132 3.08046197891235 0.5
v -3.28035879135132 3.08046197891235 -0.5
v -3.46730947494507 2.86840796470642 0.5
v -3.64057636260986 2.64503359794617 0.5
v -3.46730947494507 2.86840796470642 -0.5
v -3.79947566986084 2.41122055053711 0.5
v -3.64057636260986 2.64503359794617 -0.5
v -3.79947566986084 2.41122055053711 -0.5
v -3.94338011741638 2.16789150238037 0.5
v -3.94338011741638 2.16789150238037 -0.5
v -4.07172155380249 1.91600680351257 0.5
v -4.07172155380249 1.91600680351257 -0.5
v -4.18399429321289 1.65656054019928 0.5
v -4.18399429321289 1.65656054019928 -0.5
v -4.27975416183472 1.39057636260986 0.5
v -4.27975416183472 1.39057636260986 -0.5
v -4.35862398147583 1.11910450458527 0.5
v -4.35862398147583 1.11910450458527 -0.5
v -4.42029237747192 0.843215942382812 0.5
v -4.42029237747192 0.843215942382812 -0.5
v -4.46451616287231 0.563999593257904 0.5
v -4.46451616287231 0.563999593257904 -0.5
v -4.49112033843994 0.282557338476181 0.5
v -4.49112033843994 0.282557338476181 -0.5
v -4.5 -1.14393171720068e-14 -0.5
v -4.5 -1.14393171720068e-14 0.5
v -4.49112033843994 -0.282557338476181 -0.5
v -4.49112033843994 -0.282557338476181 0.5
v -4.46451616287231 -0.563999593257904 -0.5
v -4.46451616287231 -0.563999593257904 0.5
v -4.42029237747192 -0.843215942382812 -0.5
v -4.42029237747192 -0.843215942382812 0.5
v -4.35862398147583 -1.11910450458527 0.5
v -4.35862398147583 -1.11910450458527 -0.5
v -4.27975416183472 -1.39057636260986 -0.5
v -4.27975416183472 -1.39057636260986 0.5
v -4.18399429321289 -1.65656054019928 -0.5
v -4.18399429321289 -1.65656054019928 0.5
v -4.07172155380249 -1.91600680351257 -0.5
v -4.07172155380249 -1.91600680351257 0.5
v -3.94338011741638 -2.16789150238037 -0.5
v -3.94338011741638 -2.16789150238037 0.5
v -3.79947566986084 -2.41122055053711 -0.5
v -3.79947566986084 -2.41122055053711 0.5
v -3.64057636260986 -2.64503359794617 -0.5
v -3.64057636260986 -2.64503359794617 0.5
v -3.46730947494507 -2.86840796470642 -0.5
v -3.46730947494507 -2.86840796470642 0.5
v -3.28035879135132 -3.08046197891235 -0.5
v -3.28035879135132 -3.08046197891235 0.5
v -3.08046197891235 -3.28035879135132 -0.5
v -3.08046197891235 -3.28035879135132 0.5
v -2.86840796470642 -3.46730947494507 -0.5
v -2.86840796470642 -3.46730947494507 0.5
v -2.64503359794617 -3.64057636260986 -0.5
v -2.64503359794617 -3.64057636260986 0.5
v -2.41122055053711 -3.79947566986084 0.5
v -2.41122055053711 -3.79947566986084 -0.5
v -2.16789150238037 -3.94338011741638 0.5
v -2.16789150238037 -3.94338011741638 -0.5
v -1.91600680351257 -4.07172155380249 0.5
v -1.91600680351257 -4.07172155380249 -0.5
v -1.65656054019928 -4.18399429321289 0.5
v -1.65656054019928 -4.18399429321289 -0.5
v -1.39057636260986 -4.27975416183472 0.5
v -1.39057636260986 -4.27975416183472 -0.5
v -1.11910450458527 -4.35862398147583 0.5
v -1.11910450458527 -4.35862398147583 -0.5
v -0.843215942382812 -4.42029237747192 0.5
v -0.563999593257904 -4.46451616287231 0.5
v -0.843215942382812 -4.42029237747192 -0.5
v -0.563999593257904 -4.46451616287231 -0.5
v -0.282557338476181 -4.49112033843994 0.5
v -0.282557338476181 -4.49112033843994 -0.5
v -8.26636605642654e-16 -4.5 -0.5
v -8.26636605642654e-16 -4.5 0.5
v 0.282557338476181 -4.49112033843994 -0.5
v 0.282557338476181 -4.49112033843994 0.5
v 0.563999593257904 -4.46451616287231 -0.5
v 0.563999593257904 -4.46451616287231 0.5
v 0.843215942382812 -4.42029237747192 -0.5
v 0.843215942382812 -4.42029237747192 0.5
v 1.11910450458527 -4.35862398147583 -0.5
v 1.11910450458527 -4.35862398147583 0.5
v 1.39057636260986 -4.27975416183472 -0.5
v 1.39057636260986 -4.27975416183472 0.5
v 1.65656054019928 -4.18399429321289 -0.5
v 1.65656054019928 -4.18399429321289 0.5
v 1.91600680351257 -4.07172155380249 -0.5
v 1.91600680351257 -4.07172155380249 0.5
v 2.16789150238037 -3.94338011741638 -0.5
v 2.16789150238037 -3.94338011741638 0.5
v 2.41122055053711 -3.79947566986084 -0.5
v 2.41122055053711 -3.79947566986084 0.5
v 2.64503359794617 -3.64057636260986 -0.5
v 2.64503359794617 -3.64057636260986 0.5
v 2.86840796470642 -3.46730947494507 -0.5
v 2.86840796470642 -3.46730947494507 0.5
v 3.08046197891235 -3.28035879135132 -0.5
v 3.08046197891235 -3.28035879135132 0.5
v 3.28035879135132 -3.08046197891235 -0.5
v 3.28035879135132 -3.08046197891235 0.5
v 3.46730947494507 -2.86840796470642 -0.5
v 3.46730947494507 -2.86840796470642 0.5
v 3.64057636260986 -2.64503359794617 -0.5
v 3.64057636260986 -2.64503359794617 0.5
v 3.79947566986084 -2.41122055053711 -0.5
v 3.79947566986084 -2.41122055053711 0.5
v 3.94338011741638 -2.16789150238037 -0.5
v 3.94338011741638 -2.16789150238037 0.5
v 4.07172155380249 -1.91600680351257 -0.5
v 4.07172155380249 -1.91600680351257 0.5
v 4.18399429321289 -1.65656054019928 -0.5
v 4.18399429321289 -1.65656054019928 0.5
v 4.27975416183472 -1.39057636260986 -0.5
v 4.27975416183472 -1.39057636260986 0.5
v 4.35862398147583 -1.11910450458527 -0.5
v 4.35862398147583 -1.11910450458527 0.5
v 4.42029237747192 -0.843215942382812 -0.5
v 4.42029237747192 -0.843215942382812 0.5
v 4.46451616287231 -0.563999593257904 -0.5
v 4.46451616287231 -0.563999593257904 0.5
v 4.49112033843994 -0.282557338476181 0.5
v 4.49112033843994 -0.282557338476181 -0.5
# </points>

# <edges count="334">
l 2 1
l 1 3
l 3 4
l 4 2
l 5 6
l 7 5
l 8 7
l 6 8
l 8 4
l 3 7
l 1 5
l 6 2
l 11 12
l 13 11
l 12 14
l 15 13
l 14 16
l 17 15
l 16 18
l 19 17
l 18 20
l 21 19
l 20 22
l 23 21
l 22 24
l 25 23
l 24 26
l 27 25
l 28 27
l 26 29
l 29 30
l 30 31
l 31 32
l 32 33
l 33 34
l 34 35
l 35 36
l 36 37
l 37 38
l 38 39
l 39 40
l 40 41
l 41 42
l 42 9
l 9 43
l 44 45
l 45 46
l 46 47
l 47 48
l 48 49
l 49 50
l 50 51
l 51 52
l 52 53
l 53 54
l 54 55
l 55 56
l 56 57
l 57 28
l 43 58
l 58 59
l 59 60
l 60 61
l 61 62
l 62 63
l 63 64
l 64 65
l 65 66
l 66 67
l 67 68
l 68 69
l 69 70
l 70 44
l 71 72
l 72 73
l 74 71
l 73 75
l 76 74
l 75 77
l 78 76
l 77 79
l 80 78
l 79 81
l 82 80
l 81 83
l 84 82
l 83 85
l 86 84
l 85 87
l 87 88
l 89 86
l 90 89
l 91 90
l 92 91
l 93 92
l 94 93
l 95 94
l 96 95
l 97 96
l 98 97
l 99 98
l 100 99
l 101 100
l 102 101
l 10 102
l 103 10
l 104 105
l 106 104
l 107 106
l 108 107
l 109 108
l 110 109
l 111 110
l 112 111
l 113 112
l 114 113
l 115 114
l 116 115
l 117 116
l 88 117
l 118 103
l 119 118
l 120 119
l 121 120
l 122 121
l 123 122
l 124 123
l 125 124
l 126 125
l 127 126
l 128 127
l 129 128
l 130 129
l 105 130
l 131 9
l 10 132
l 132 133
l 133 134
l 135 131
l 134 136
l 137 135
l 138 137
l 136 139
l 140 138
l 139 141
l 142 140
l 141 143
l 144 142
l 143 145
l 146 144
l 145 147
l 147 148
l 149 146
l 150 149
l 148 151
l 152 150
l 151 153
l 154 152
l 153 155
l 156 154
l 155 157
l 158 156
l 157 159
l 160 158
l 159 161
l 162 160
l 161 163
l 164 162
l 163 165
l 166 164
l 165 167
l 168 166
l 167 169
l 169 170
l 171 168
l 172 171
l 170 173
l 174 172
l 173 175
l 176 174
l 175 177
l 178 176
l 179 178
l 177 180
l 181 179
l 180 182
l 182 183
l 184 181
l 183 185
l 186 184
l 187 186
l 185 188
l 188 189
l 190 187
l 191 190
l 189 192
l 192 193
l 194 191
l 193 195
l 196 194
l 195 197
l 197 198
l 199 196
l 200 199
l 198 201
l 202 200
l 201 203
l 204 202
l 203 205
l 206 204
l 205 207
l 207 208
l 209 206
l 208 210
l 211 209
l 212 211
l 210 213
l 214 212
l 213 215
l 216 214
l 215 217
l 218 216
l 217 219
l 220 218
l 219 221
l 222 220
l 221 223
l 224 222
l 223 225
l 226 224
l 225 227
l 228 226
l 229 228
l 227 230
l 231 229
l 230 232
l 233 231
l 232 234
l 235 233
l 234 236
l 236 237
l 238 235
l 239 238
l 237 240
l 241 239
l 240 242
l 243 241
l 242 244
l 245 243
l 244 246
l 247 245
l 246 248
l 249 247
l 248 250
l 251 249
l 250 252
l 253 251
l 252 254
l 255 253
l 254 256
l 257 255
l 256 258
l 259 257
l 258 260
l 260 261
l 262 259
l 261 263
l 264 262
l 263 265
l 266 264
l 265 267
l 268 266
l 267 269
l 270 268
l 269 271
l 272 270
l 271 273
l 273 274
l 275 272
l 276 275
l 274 277
l 278 276
l 279 278
l 277 280
l 281 279
l 280 282
l 283 281
l 282 284
l 285 283
l 284 286
l 287 285
l 286 288
l 289 287
l 288 290
l 291 289
l 290 292
l 293 291
l 292 294
l 295 293
l 294 296
l 297 295
l 296 298
l 299 297
l 298 300
l 301 299
l 300 302
l 303 301
l 302 304
l 305 303
l 304 306
l 307 305
l 306 308
l 309 307
l 308 310
l 311 309
l 310 312
l 313 311
l 312 314
l 315 313
l 314 316
l 317 315
l 316 318
l 319 317
l 318 320
l 321 319
l 320 322
l 323 321
l 322 324
l 325 323
l 324 326
l 327 10
l 328 325
l 326 327
l 9 328
# </edges>
