v 4.49112033843994 0.282557338476181 -0.5
v 4.52253088360809 -0.71694922861192 -0.5
l 1 2
v 4.5 0 0.5
v 4.46858945483185 0.999506567088101 0.5
l 3 4
v 4.49112033843994 0.282557338476181 0.5
v 4.39701185114907 1.27811928663402 0.5
l 5 6
v 4.46451616287231 0.563999593257904 0.5
v 4.30808079988487 1.55168779163176 0.5
l 7 8
v 4.46451616287231 0.563999593257904 -0.5
v 4.55862465016319 -0.431562354899931 -0.5
l 9 10
v 4.42029237747192 0.843215942382812 0.5
v 4.20214914949952 1.81913270732221 0.5
l 11 12
v 4.42029237747192 0.843215942382812 -0.5
v 4.57672774045937 -0.14447225599104 -0.5
l 13 14
v 4.35862398147583 1.11910450458527 -0.5
v 4.57676720944824 0.143187739645869 -0.5
l 15 16
v 4.35862398147583 1.11910450458527 0.5
v 4.07963302536567 2.07939823382062 0.5
l 17 18
v 4.27975416183472 1.39057636260986 -0.5
v 4.55874511794488 0.430282633374512 -0.5
l 19 20
v 4.27975416183472 1.39057636260986 0.5
v 3.94101726771985 2.33145750099314 0.5
l 21 22
v 4.18399429321289 1.65656054019928 -0.5
v 4.52273118732776 0.715679401816003 -0.5
l 23 24
v 4.18399429321289 1.65656054019928 0.5
v 3.78684546201019 2.5743147588626 0.5
l 25 26
v 4.07172155380249 1.91600680351257 -0.5
v 4.46887038500519 0.99825258484925 -0.5
l 27 28
v 4.07172155380249 1.91600680351257 0.5
v 3.61773169442279 2.80701365398029 0.5
l 29 30
v 3.94338011741638 2.16789150238037 -0.5
v 4.39736997679608 1.27688465191265 -0.5
l 31 32
v 3.94338011741638 2.16789150238037 0.5
v 3.43433857160349 3.02863345246554 0.5
l 33 34
v 3.79947566986084 2.41122055053711 0.5
v 3.23739199119215 3.23830092037687 0.5
l 35 36
v 3.79947566986084 2.41122055053711 -0.5
v 4.30851721567373 1.55047860045194 -0.5
l 37 38
v 3.64057636260986 2.64503359794617 -0.5
v 4.20266004127855 1.81795322810641 -0.5
l 39 40
v 3.64057636260986 2.64503359794617 0.5
v 3.02766937946385 3.43518866501266 0.5
l 41 42
v 3.46730947494507 2.86840796470642 -0.5
v 4.08021645809108 2.07825289763993 -0.5
l 43 44
v 3.46730947494507 2.86840796470642 0.5
v 2.80599776470075 3.61851917105767 0.5
l 45 46
v 3.28035879135132 3.08046197891235 -0.5
v 3.94167050159564 2.3303507725611 -0.5
l 47 48
v 3.28035879135132 3.08046197891235 0.5
v 2.57325201016477 3.7875687600989 0.5
l 49 50
v 3.08046197891235 3.28035879135132 -0.5
v 3.7875687600989 2.57325201016477 -0.5
l 51 52
v 3.08046197891235 3.28035879135132 0.5
v 2.3303507725611 3.94167050159564 0.5
l 53 54
v 2.86840796470642 3.46730947494507 -0.5
v 3.61851917105767 2.80599776470075 -0.5
l 55 56
v 2.86840796470642 3.46730947494507 0.5
v 2.07825289763993 4.08021645809108 0.5
l 57 58
v 2.64503359794617 3.64057636260986 -0.5
v 3.43518866501266 3.02766937946385 -0.5
l 59 60
v 2.64503359794617 3.64057636260986 0.5
v 1.81795322810641 4.20266004127855 0.5
l 61 62
v 2.41122055053711 3.79947566986084 -0.5
v 3.23830092037687 3.23739199119215 -0.5
l 63 64
v 2.41122055053711 3.79947566986084 0.5
v 1.55047860045194 4.30851721567373 0.5
l 65 66
v 2.16789150238037 3.94338011741638 -0.5
v 3.02863345246554 3.43433857160349 -0.5
l 67 68
v 2.16789150238037 3.94338011741638 0.5
v 1.27688465191265 4.39736997679608 0.5
l 69 70
v 1.91600680351257 4.07172155380249 -0.5
v 2.80701365398029 3.61773169442279 -0.5
l 71 72
v 1.91600680351257 4.07172155380249 0.5
v 0.99825258484925 4.46887038500519 0.5
l 73 74
v 1.65656054019928 4.18399429321289 -0.5
v 2.5743147588626 3.78684546201019 -0.5
l 75 76
v 1.65656054019928 4.18399429321289 0.5
v 0.715679401816003 4.52273118732776 0.5
l 77 78
v 1.39057636260986 4.27975416183472 0.5
v 0.430282633374512 4.55874511794488 0.5
l 79 80
v 1.39057636260986 4.27975416183472 -0.5
v 2.33145750099314 3.94101726771985 -0.5
l 81 82
v 1.11910450458527 4.35862398147583 -0.5
v 2.07939823382062 4.07963302536567 -0.5
l 83 84
v 1.11910450458527 4.35862398147583 0.5
v 0.143187739645869 4.57676720944824 0.5
l 85 86
v 0.843215942382812 4.42029237747192 -0.5
v 1.81913270732221 4.20214914949952 -0.5
l 87 88
v 0.843215942382812 4.42029237747192 0.5
v -0.14447225599104 4.57672774045937 0.5
l 89 90
v 0.563999593257904 4.46451616287231 -0.5
v 1.55168779163176 4.30808079988487 -0.5
l 91 92
v 0.563999593257904 4.46451616287231 0.5
v -0.431562354899931 4.55862465016319 0.5
l 93 94
v 0.282557338476181 4.49112033843994 -0.5
v 1.27811928663402 4.39701185114907 -0.5
l 95 96
v -2.72205684303194e-15 4.5 -0.5
v 0.999506567088098 4.46858945483185 -0.5
l 97 98
v 0.282557338476181 4.49112033843994 0.5
v -0.71694922861192 4.52253088360809 0.5
l 99 100
v -0.282557338476181 4.49112033843994 -0.5
v 0.71694922861192 4.52253088360809 -0.5
l 101 102
v -2.72205684303194e-15 4.5 0.5
v -0.999506567088103 4.46858945483185 0.5
l 103 104
v -0.282557338476181 4.49112033843994 0.5
v -1.27811928663402 4.39701185114907 0.5
l 105 106
v -0.563999593257904 4.46451616287231 -0.5
v 0.431562354899931 4.55862465016319 -0.5
l 107 108
v -0.563999593257904 4.46451616287231 0.5
v -1.55168779163176 4.30808079988487 0.5
l 109 110
v -0.843215942382812 4.42029237747192 -0.5
v 0.14447225599104 4.57672774045937 -0.5
l 111 112
v -1.11910450458527 4.35862398147583 -0.5
v -0.143187739645869 4.57676720944824 -0.5
l 113 114
v -0.843215942382812 4.42029237747192 0.5
v -1.81913270732221 4.20214914949952 0.5
l 115 116
v -1.11910450458527 4.35862398147583 0.5
v -2.07939823382062 4.07963302536567 0.5
l 117 118
v -1.39057636260986 4.27975416183472 -0.5
v -0.430282633374512 4.55874511794488 -0.5
l 119 120
v -1.65656054019928 4.18399429321289 -0.5
v -0.715679401816003 4.52273118732776 -0.5
l 121 122
v -1.39057636260986 4.27975416183472 0.5
v -2.33145750099314 3.94101726771985 0.5
l 123 124
v -1.65656054019928 4.18399429321289 0.5
v -2.5743147588626 3.78684546201019 0.5
l 125 126
v -1.91600680351257 4.07172155380249 -0.5
v -0.99825258484925 4.46887038500519 -0.5
l 127 128
v -1.91600680351257 4.07172155380249 0.5
v -2.80701365398029 3.61773169442279 0.5
l 129 130
v -2.16789150238037 3.94338011741638 -0.5
v -1.27688465191265 4.39736997679608 -0.5
l 131 132
v -2.16789150238037 3.94338011741638 0.5
v -3.02863345246554 3.43433857160349 0.5
l 133 134
v -2.41122055053711 3.79947566986084 0.5
v -3.23830092037687 3.23739199119215 0.5
l 135 136
v -2.41122055053711 3.79947566986084 -0.5
v -1.55047860045194 4.30851721567373 -0.5
l 137 138
v -2.64503359794617 3.64057636260986 -0.5
v -1.81795322810641 4.20266004127855 -0.5
l 139 140
v -2.64503359794617 3.64057636260986 0.5
v -3.43518866501266 3.02766937946385 0.5
l 141 142
v -2.86840796470642 3.46730947494507 -0.5
v -2.07825289763993 4.08021645809108 -0.5
l 143 144
v -2.86840796470642 3.46730947494507 0.5
v -3.61851917105767 2.80599776470075 0.5
l 145 146
v -3.08046197891235 3.28035879135132 -0.5
v -2.3303507725611 3.94167050159564 -0.5
l 147 148
v -3.08046197891235 3.28035879135132 0.5
v -3.7875687600989 2.57325201016477 0.5
l 149 150
v -3.28035879135132 3.08046197891235 -0.5
v -2.57325201016477 3.7875687600989 -0.5
l 151 152
v -3.28035879135132 3.08046197891235 0.5
v -3.94167050159564 2.3303507725611 0.5
l 153 154
v -3.46730947494507 2.86840796470642 0.5
v -4.08021645809108 2.07825289763993 0.5
l 155 156
v -3.46730947494507 2.86840796470642 -0.5
v -2.80599776470075 3.61851917105767 -0.5
l 157 158
v -3.64057636260986 2.64503359794617 0.5
v -4.20266004127855 1.81795322810641 0.5
l 159 160
v -3.64057636260986 2.64503359794617 -0.5
v -3.02766937946385 3.43518866501266 -0.5
l 161 162
v -3.79947566986084 2.41122055053711 -0.5
v -3.23739199119215 3.23830092037687 -0.5
l 163 164
v -3.79947566986084 2.41122055053711 0.5
v -4.30851721567373 1.55047860045194 0.5
l 165 166
v -3.94338011741638 2.16789150238037 -0.5
v -3.43433857160349 3.02863345246554 -0.5
l 167 168
v -3.94338011741638 2.16789150238037 0.5
v -4.39736997679608 1.27688465191265 0.5
l 169 170
v -4.07172155380249 1.91600680351257 -0.5
v -3.61773169442279 2.80701365398029 -0.5
l 171 172
v -4.07172155380249 1.91600680351257 0.5
v -4.46887038500519 0.99825258484925 0.5
l 173 174
v -4.18399429321289 1.65656054019928 -0.5
v -3.78684546201019 2.5743147588626 -0.5
l 175 176
v -4.18399429321289 1.65656054019928 0.5
v -4.52273118732776 0.715679401816003 0.5
l 177 178
v -4.27975416183472 1.39057636260986 -0.5
v -3.94101726771985 2.33145750099314 -0.5
l 179 180
v -4.27975416183472 1.39057636260986 0.5
v -4.55874511794488 0.430282633374512 0.5
l 181 182
v -4.35862398147583 1.11910450458527 -0.5
v -4.07963302536567 2.07939823382062 -0.5
l 183 184
v -4.35862398147583 1.11910450458527 0.5
v -4.57676720944824 0.143187739645869 0.5
l 185 186
v -4.42029237747192 0.843215942382812 -0.5
v -4.20214914949952 1.81913270732221 -0.5
l 187 188
v -4.42029237747192 0.843215942382812 0.5
v -4.57672774045937 -0.14447225599104 0.5
l 189 190
v -4.46451616287231 0.563999593257904 -0.5
v -4.30808079988487 1.55168779163176 -0.5
l 191 192
v -4.46451616287231 0.563999593257904 0.5
v -4.55862465016319 -0.431562354899931 0.5
l 193 194
v -4.49112033843994 0.282557338476181 -0.5
v -4.39701185114907 1.27811928663402 -0.5
l 195 196
v -4.5 -1.14393171720068e-14 -0.5
v -4.46858945483185 0.999506567088089 -0.5
l 197 198
v -4.49112033843994 0.282557338476181 0.5
v -4.52253088360809 -0.71694922861192 0.5
l 199 200
v -4.49112033843994 -0.282557338476181 -0.5
v -4.52253088360809 0.716949228611919 -0.5
l 201 202
v -4.5 -1.14393171720068e-14 0.5
v -4.46858945483185 -0.999506567088112 0.5
l 203 204
v -4.46451616287231 -0.563999593257904 -0.5
v -4.55862465016319 0.431562354899931 -0.5
l 205 206
v -4.49112033843994 -0.282557338476181 0.5
v -4.39701185114907 -1.27811928663402 0.5
l 207 208
v -4.42029237747192 -0.843215942382812 -0.5
v -4.57672774045937 0.14447225599104 -0.5
l 209 210
v -4.46451616287231 -0.563999593257904 0.5
v -4.30808079988487 -1.55168779163176 0.5
l 211 212
v -4.42029237747192 -0.843215942382812 0.5
v -4.20214914949952 -1.81913270732221 0.5
l 213 214
v -4.35862398147583 -1.11910450458527 -0.5
v -4.57676720944824 -0.143187739645869 -0.5
l 215 216
v -4.27975416183472 -1.39057636260986 -0.5
v -4.55874511794488 -0.430282633374512 -0.5
l 217 218
v -4.35862398147583 -1.11910450458527 0.5
v -4.07963302536567 -2.07939823382062 0.5
l 219 220
v -4.18399429321289 -1.65656054019928 -0.5
v -4.52273118732776 -0.715679401816003 -0.5
l 221 222
v -4.27975416183472 -1.39057636260986 0.5
v -3.94101726771985 -2.33145750099314 0.5
l 223 224
v -4.07172155380249 -1.91600680351257 -0.5
v -4.46887038500519 -0.99825258484925 -0.5
l 225 226
v -4.18399429321289 -1.65656054019928 0.5
v -3.78684546201019 -2.5743147588626 0.5
l 227 228
v -3.94338011741638 -2.16789150238037 -0.5
v -4.39736997679608 -1.27688465191265 -0.5
l 229 230
v -4.07172155380249 -1.91600680351257 0.5
v -3.61773169442279 -2.80701365398029 0.5
l 231 232
v -3.79947566986084 -2.41122055053711 -0.5
v -4.30851721567373 -1.55047860045194 -0.5
l 233 234
v -3.94338011741638 -2.16789150238037 0.5
v -3.43433857160349 -3.02863345246554 0.5
l 235 236
v -3.64057636260986 -2.64503359794617 -0.5
v -4.20266004127855 -1.81795322810641 -0.5
l 237 238
v -3.79947566986084 -2.41122055053711 0.5
v -3.23739199119215 -3.23830092037687 0.5
l 239 240
v -3.46730947494507 -2.86840796470642 -0.5
v -4.08021645809108 -2.07825289763993 -0.5
l 241 242
v -3.64057636260986 -2.64503359794617 0.5
v -3.02766937946385 -3.43518866501266 0.5
l 243 244
v -3.28035879135132 -3.08046197891235 -0.5
v -3.94167050159564 -2.3303507725611 -0.5
l 245 246
v -3.46730947494507 -2.86840796470642 0.5
v -2.80599776470075 -3.61851917105767 0.5
l 247 248
v -3.08046197891235 -3.28035879135132 -0.5
v -3.7875687600989 -2.57325201016477 -0.5
l 249 250
v -3.28035879135132 -3.08046197891235 0.5
v -2.57325201016477 -3.7875687600989 0.5
l 251 252
v -2.86840796470642 -3.46730947494507 -0.5
v -3.61851917105767 -2.80599776470075 -0.5
l 253 254
v -3.08046197891235 -3.28035879135132 0.5
v -2.3303507725611 -3.94167050159564 0.5
l 255 256
v -2.64503359794617 -3.64057636260986 -0.5
v -3.43518866501266 -3.02766937946385 -0.5
l 257 258
v -2.86840796470642 -3.46730947494507 0.5
v -2.07825289763993 -4.08021645809108 0.5
l 259 260
v -2.64503359794617 -3.64057636260986 0.5
v -1.81795322810641 -4.20266004127855 0.5
l 261 262
v -2.41122055053711 -3.79947566986084 -0.5
v -3.23830092037687 -3.23739199119215 -0.5
l 263 264
v -2.41122055053711 -3.79947566986084 0.5
v -1.55047860045194 -4.30851721567373 0.5
l 265 266
v -2.16789150238037 -3.94338011741638 -0.5
v -3.02863345246554 -3.43433857160349 -0.5
l 267 268
v -2.16789150238037 -3.94338011741638 0.5
v -1.27688465191265 -4.39736997679608 0.5
l 269 270
v -1.91600680351257 -4.07172155380249 -0.5
v -2.80701365398029 -3.61773169442279 -0.5
l 271 272
v -1.91600680351257 -4.07172155380249 0.5
v -0.99825258484925 -4.46887038500519 0.5
l 273 274
v -1.65656054019928 -4.18399429321289 -0.5
v -2.5743147588626 -3.78684546201019 -0.5
l 275 276
v -1.65656054019928 -4.18399429321289 0.5
v -0.715679401816003 -4.52273118732776 0.5
l 277 278
v -1.39057636260986 -4.27975416183472 -0.5
v -2.33145750099314 -3.94101726771985 -0.5
l 279 280
v -1.39057636260986 -4.27975416183472 0.5
v -0.430282633374512 -4.55874511794488 0.5
l 281 282
v -1.11910450458527 -4.35862398147583 -0.5
v -2.07939823382062 -4.07963302536567 -0.5
l 283 284
v -1.11910450458527 -4.35862398147583 0.5
v -0.143187739645869 -4.57676720944824 0.5
l 285 286
v -0.843215942382812 -4.42029237747192 0.5
v 0.14447225599104 -4.57672774045937 0.5
l 287 288
v -0.843215942382812 -4.42029237747192 -0.5
v -1.81913270732221 -4.20214914949952 -0.5
l 289 290
v -0.563999593257904 -4.46451616287231 -0.5
v -1.55168779163176 -4.30808079988487 -0.5
l 291 292
v -0.563999593257904 -4.46451616287231 0.5
v 0.431562354899931 -4.55862465016319 0.5
l 293 294
v -0.282557338476181 -4.49112033843994 -0.5
v -1.27811928663402 -4.39701185114907 -0.5
l 295 296
v -8.26636605642654e-16 -4.5 -0.5
v -0.999506567088101 -4.46858945483185 -0.5
l 297 298
v -0.282557338476181 -4.49112033843994 0.5
v 0.71694922861192 -4.52253088360809 0.5
l 299 300
v 0.282557338476181 -4.49112033843994 -0.5
v -0.71694922861192 -4.52253088360809 -0.5
l 301 302
v -8.26636605642654e-16 -4.5 0.5
v 0.9995065670881 -4.46858945483185 0.5
l 303 304
v 0.563999593257904 -4.46451616287231 -0.5
v -0.431562354899931 -4.55862465016319 -0.5
l 305 306
v 0.282557338476181 -4.49112033843994 0.5
v 1.27811928663402 -4.39701185114907 0.5
l 307 308
v 0.843215942382812 -4.42029237747192 -0.5
v -0.14447225599104 -4.57672774045937 -0.5
l 309 310
v 0.563999593257904 -4.46451616287231 0.5
v 1.55168779163176 -4.30808079988487 0.5
l 311 312
v 1.11910450458527 -4.35862398147583 -0.5
v 0.143187739645869 -4.57676720944824 -0.5
l 313 314
v 0.843215942382812 -4.42029237747192 0.5
v 1.81913270732221 -4.20214914949952 0.5
l 315 316
v 1.39057636260986 -4.27975416183472 -0.5
v 0.430282633374512 -4.55874511794488 -0.5
l 317 318
v 1.11910450458527 -4.35862398147583 0.5
v 2.07939823382062 -4.07963302536567 0.5
l 319 320
v 1.65656054019928 -4.18399429321289 -0.5
v 0.715679401816003 -4.52273118732776 -0.5
l 321 322
v 1.39057636260986 -4.27975416183472 0.5
v 2.33145750099314 -3.94101726771985 0.5
l 323 324
v 1.91600680351257 -4.07172155380249 -0.5
v 0.99825258484925 -4.46887038500519 -0.5
l 325 326
v 1.65656054019928 -4.18399429321289 0.5
v 2.5743147588626 -3.78684546201019 0.5
l 327 328
v 2.16789150238037 -3.94338011741638 -0.5
v 1.27688465191265 -4.39736997679608 -0.5
l 329 330
v 1.91600680351257 -4.07172155380249 0.5
v 2.80701365398029 -3.61773169442279 0.5
l 331 332
v 2.41122055053711 -3.79947566986084 -0.5
v 1.55047860045194 -4.30851721567373 -0.5
l 333 334
v 2.16789150238037 -3.94338011741638 0.5
v 3.02863345246554 -3.43433857160349 0.5
l 335 336
v 2.64503359794617 -3.64057636260986 -0.5
v 1.81795322810641 -4.20266004127855 -0.5
l 337 338
v 2.41122055053711 -3.79947566986084 0.5
v 3.23830092037687 -3.23739199119215 0.5
l 339 340
v 2.86840796470642 -3.46730947494507 -0.5
v 2.07825289763993 -4.08021645809108 -0.5
l 341 342
v 2.64503359794617 -3.64057636260986 0.5
v 3.43518866501266 -3.02766937946385 0.5
l 343 344
v 3.08046197891235 -3.28035879135132 -0.5
v 2.3303507725611 -3.94167050159564 -0.5
l 345 346
v 2.86840796470642 -3.46730947494507 0.5
v 3.61851917105767 -2.80599776470075 0.5
l 347 348
v 3.28035879135132 -3.08046197891235 -0.5
v 2.57325201016477 -3.7875687600989 -0.5
l 349 350
v 3.08046197891235 -3.28035879135132 0.5
v 3.7875687600989 -2.57325201016477 0.5
l 351 352
v 3.46730947494507 -2.86840796470642 -0.5
v 2.80599776470075 -3.61851917105767 -0.5
l 353 354
v 3.28035879135132 -3.08046197891235 0.5
v 3.94167050159564 -2.3303507725611 0.5
l 355 356
v 3.64057636260986 -2.64503359794617 -0.5
v 3.02766937946385 -3.43518866501266 -0.5
l 357 358
v 3.46730947494507 -2.86840796470642 0.5
v 4.08021645809108 -2.07825289763993 0.5
l 359 360
v 3.79947566986084 -2.41122055053711 -0.5
v 3.23739199119215 -3.23830092037687 -0.5
l 361 362
v 3.64057636260986 -2.64503359794617 0.5
v 4.20266004127855 -1.81795322810641 0.5
l 363 364
v 3.94338011741638 -2.16789150238037 -0.5
v 3.43433857160349 -3.02863345246554 -0.5
l 365 366
v 3.79947566986084 -2.41122055053711 0.5
v 4.30851721567373 -1.55047860045194 0.5
l 367 368
v 4.07172155380249 -1.91600680351257 -0.5
v 3.61773169442279 -2.80701365398029 -0.5
l 369 370
v 3.94338011741638 -2.16789150238037 0.5
v 4.39736997679608 -1.27688465191265 0.5
l 371 372
v 4.18399429321289 -1.65656054019928 -0.5
v 3.78684546201019 -2.5743147588626 -0.5
l 373 374
v 4.07172155380249 -1.91600680351257 0.5
v 4.46887038500519 -0.99825258484925 0.5
l 375 376
v 4.27975416183472 -1.39057636260986 -0.5
v 3.94101726771985 -2.33145750099314 -0.5
l 377 378
v 4.18399429321289 -1.65656054019928 0.5
v 4.52273118732776 -0.715679401816003 0.5
l 379 380
v 4.35862398147583 -1.11910450458527 -0.5
v 4.07963302536567 -2.07939823382062 -0.5
l 381 382
v 4.27975416183472 -1.39057636260986 0.5
v 4.55874511794488 -0.430282633374512 0.5
l 383 384
v 4.42029237747192 -0.843215942382812 -0.5
v 4.20214914949952 -1.81913270732221 -0.5
l 385 386
v 4.35862398147583 -1.11910450458527 0.5
v 4.57676720944824 -0.143187739645869 0.5
l 387 388
v 4.46451616287231 -0.563999593257904 -0.5
v 4.30808079988487 -1.55168779163176 -0.5
l 389 390
v 4.42029237747192 -0.843215942382812 0.5
v 4.57672774045937 0.14447225599104 0.5
l 391 392
v 4.49112033843994 -0.282557338476181 0.5
v 4.52253088360809 0.71694922861192 0.5
l 393 394
v 4.49112033843994 -0.282557338476181 -0.5
v 4.39701185114907 -1.27811928663402 -0.5
l 395 396
v 4.46451616287231 -0.563999593257904 0.5
v 4.55862465016319 0.431562354899931 0.5
l 397 398
v 4.5 0 -0.5
v 4.46858945483185 -0.999506567088101 -0.5
l 399 400
