# Wavefront OBJ file written 2026-06-22T09:24:06
o MeshRefinement002_edgeMesh

# points : 200
# lines  : 200

# <points count="200">
v 4.49112033843994 0.282557338476181 -0.5
v 4.5 0 -0.5
v 4.5 0 0.5
v 4.49112033843994 0.282557338476181 0.5
v 4.46451616287231 0.563999593257904 0.5
v 4.42029237747192 0.843215942382812 0.5
v 4.46451616287231 0.563999593257904 -0.5
v 4.35862398147583 1.11910450458527 0.5
v 4.42029237747192 0.843215942382812 -0.5
v 4.35862398147583 1.11910450458527 -0.5
v 4.27975416183472 1.39057636260986 0.5
v 4.27975416183472 1.39057636260986 -0.5
v 4.18399429321289 1.65656054019928 0.5
v 4.18399429321289 1.65656054019928 -0.5
v 4.07172155380249 1.91600680351257 0.5
v 4.07172155380249 1.91600680351257 -0.5
v 3.94338011741638 2.16789150238037 0.5
v 3.94338011741638 2.16789150238037 -0.5
v 3.79947566986084 2.41122055053711 0.5
v 3.64057636260986 2.64503359794617 0.5
v 3.79947566986084 2.41122055053711 -0.5
v 3.64057636260986 2.64503359794617 -0.5
v 3.46730947494507 2.86840796470642 0.5
v 3.46730947494507 2.86840796470642 -0.5
v 3.28035879135132 3.08046197891235 0.5
v 3.28035879135132 3.08046197891235 -0.5
v 3.08046197891235 3.28035879135132 0.5
v 3.08046197891235 3.28035879135132 -0.5
v 2.86840796470642 3.46730947494507 0.5
v 2.86840796470642 3.46730947494507 -0.5
v 2.64503359794617 3.64057636260986 0.5
v 2.64503359794617 3.64057636260986 -0.5
v 2.41122055053711 3.79947566986084 0.5
v 2.41122055053711 3.79947566986084 -0.5
v 2.16789150238037 3.94338011741638 0.5
v 2.16789150238037 3.94338011741638 -0.5
v 1.91600680351257 4.07172155380249 0.5
v 1.91600680351257 4.07172155380249 -0.5
v 1.65656054019928 4.18399429321289 0.5
v 1.65656054019928 4.18399429321289 -0.5
v 1.39057636260986 4.27975416183472 0.5
v 1.11910450458527 4.35862398147583 0.5
v 1.39057636260986 4.27975416183472 -0.5
v 1.11910450458527 4.35862398147583 -0.5
v 0.843215942382812 4.42029237747192 0.5
v 0.843215942382812 4.42029237747192 -0.5
v 0.563999593257904 4.46451616287231 0.5
v 0.563999593257904 4.46451616287231 -0.5
v 0.282557338476181 4.49112033843994 0.5
v 0.282557338476181 4.49112033843994 -0.5
v -2.72205684303194e-15 4.5 -0.5
v -2.72205684303194e-15 4.5 0.5
v -0.282557338476181 4.49112033843994 -0.5
v -0.282557338476181 4.49112033843994 0.5
v -0.563999593257904 4.46451616287231 0.5
v -0.563999593257904 4.46451616287231 -0.5
v -0.843215942382812 4.42029237747192 0.5
v -0.843215942382812 4.42029237747192 -0.5
v -1.11910450458527 4.35862398147583 -0.5
v -1.11910450458527 4.35862398147583 0.5
v -1.39057636260986 4.27975416183472 0.5
v -1.39057636260986 4.27975416183472 -0.5
v -1.65656054019928 4.18399429321289 -0.5
v -1.65656054019928 4.18399429321289 0.5
v -1.91600680351257 4.07172155380249 0.5
v -1.91600680351257 4.07172155380249 -0.5
v -2.16789150238037 3.94338011741638 0.5
v -2.16789150238037 3.94338011741638 -0.5
v -2.41122055053711 3.79947566986084 0.5
v -2.64503359794617 3.64057636260986 0.5
v -2.41122055053711 3.79947566986084 -0.5
v -2.64503359794617 3.64057636260986 -0.5
v -2.86840796470642 3.46730947494507 0.5
v -2.86840796470642 3.46730947494507 -0.5
v -3.08046197891235 3.28035879135132 0.5
v -3.08046197891235 3.28035879135132 -0.5
v -3.28035879135132 3.08046197891235 0.5
v -3.28035879135132 3.08046197891235 -0.5
v -3.46730947494507 2.86840796470642 0.5
v -3.64057636260986 2.64503359794617 0.5
v -3.46730947494507 2.86840796470642 -0.5
v -3.79947566986084 2.41122055053711 0.5
v -3.64057636260986 2.64503359794617 -0.5
v -3.79947566986084 2.41122055053711 -0.5
v -3.94338011741638 2.16789150238037 0.5
v -3.94338011741638 2.16789150238037 -0.5
v -4.07172155380249 1.91600680351257 0.5
v -4.07172155380249 1.91600680351257 -0.5
v -4.18399429321289 1.65656054019928 0.5
v -4.18399429321289 1.65656054019928 -0.5
v -4.27975416183472 1.39057636260986 0.5
v -4.27975416183472 1.39057636260986 -0.5
v -4.35862398147583 1.11910450458527 0.5
v -4.35862398147583 1.11910450458527 -0.5
v -4.42029237747192 0.843215942382812 0.5
v -4.42029237747192 0.843215942382812 -0.5
v -4.46451616287231 0.563999593257904 0.5
v -4.46451616287231 0.563999593257904 -0.5
v -4.49112033843994 0.282557338476181 0.5
v -4.49112033843994 0.282557338476181 -0.5
v -4.5 -1.14393171720068e-14 -0.5
v -4.5 -1.14393171720068e-14 0.5
v -4.49112033843994 -0.282557338476181 -0.5
v -4.49112033843994 -0.282557338476181 0.5
v -4.46451616287231 -0.563999593257904 -0.5
v -4.46451616287231 -0.563999593257904 0.5
v -4.42029237747192 -0.843215942382812 -0.5
v -4.42029237747192 -0.843215942382812 0.5
v -4.35862398147583 -1.11910450458527 0.5
v -4.35862398147583 -1.11910450458527 -0.5
v -4.27975416183472 -1.39057636260986 -0.5
v -4.27975416183472 -1.39057636260986 0.5
v -4.18399429321289 -1.65656054019928 -0.5
v -4.18399429321289 -1.65656054019928 0.5
v -4.07172155380249 -1.91600680351257 -0.5
v -4.07172155380249 -1.91600680351257 0.5
v -3.94338011741638 -2.16789150238037 -0.5
v -3.94338011741638 -2.16789150238037 0.5
v -3.79947566986084 -2.41122055053711 -0.5
v -3.79947566986084 -2.41122055053711 0.5
v -3.64057636260986 -2.64503359794617 -0.5
v -3.64057636260986 -2.64503359794617 0.5
v -3.46730947494507 -2.86840796470642 -0.5
v -3.46730947494507 -2.86840796470642 0.5
v -3.28035879135132 -3.08046197891235 -0.5
v -3.28035879135132 -3.08046197891235 0.5
v -3.08046197891235 -3.28035879135132 -0.5
v -3.08046197891235 -3.28035879135132 0.5
v -2.86840796470642 -3.46730947494507 -0.5
v -2.86840796470642 -3.46730947494507 0.5
v -2.64503359794617 -3.64057636260986 -0.5
v -2.64503359794617 -3.64057636260986 0.5
v -2.41122055053711 -3.79947566986084 0.5
v -2.41122055053711 -3.79947566986084 -0.5
v -2.16789150238037 -3.94338011741638 0.5
v -2.16789150238037 -3.94338011741638 -0.5
v -1.91600680351257 -4.07172155380249 0.5
v -1.91600680351257 -4.07172155380249 -0.5
v -1.65656054019928 -4.18399429321289 0.5
v -1.65656054019928 -4.18399429321289 -0.5
v -1.39057636260986 -4.27975416183472 0.5
v -1.39057636260986 -4.27975416183472 -0.5
v -1.11910450458527 -4.35862398147583 0.5
v -1.11910450458527 -4.35862398147583 -0.5
v -0.843215942382812 -4.42029237747192 0.5
v -0.563999593257904 -4.46451616287231 0.5
v -0.843215942382812 -4.42029237747192 -0.5
v -0.563999593257904 -4.46451616287231 -0.5
v -0.282557338476181 -4.49112033843994 0.5
v -0.282557338476181 -4.49112033843994 -0.5
v -8.26636605642654e-16 -4.5 -0.5
v -8.26636605642654e-16 -4.5 0.5
v 0.282557338476181 -4.49112033843994 -0.5
v 0.282557338476181 -4.49112033843994 0.5
v 0.563999593257904 -4.46451616287231 -0.5
v 0.563999593257904 -4.46451616287231 0.5
v 0.843215942382812 -4.42029237747192 -0.5
v 0.843215942382812 -4.42029237747192 0.5
v 1.11910450458527 -4.35862398147583 -0.5
v 1.11910450458527 -4.35862398147583 0.5
v 1.39057636260986 -4.27975416183472 -0.5
v 1.39057636260986 -4.27975416183472 0.5
v 1.65656054019928 -4.18399429321289 -0.5
v 1.65656054019928 -4.18399429321289 0.5
v 1.91600680351257 -4.07172155380249 -0.5
v 1.91600680351257 -4.07172155380249 0.5
v 2.16789150238037 -3.94338011741638 -0.5
v 2.16789150238037 -3.94338011741638 0.5
v 2.41122055053711 -3.79947566986084 -0.5
v 2.41122055053711 -3.79947566986084 0.5
v 2.64503359794617 -3.64057636260986 -0.5
v 2.64503359794617 -3.64057636260986 0.5
v 2.86840796470642 -3.46730947494507 -0.5
v 2.86840796470642 -3.46730947494507 0.5
v 3.08046197891235 -3.28035879135132 -0.5
v 3.08046197891235 -3.28035879135132 0.5
v 3.28035879135132 -3.08046197891235 -0.5
v 3.28035879135132 -3.08046197891235 0.5
v 3.46730947494507 -2.86840796470642 -0.5
v 3.46730947494507 -2.86840796470642 0.5
v 3.64057636260986 -2.64503359794617 -0.5
v 3.64057636260986 -2.64503359794617 0.5
v 3.79947566986084 -2.41122055053711 -0.5
v 3.79947566986084 -2.41122055053711 0.5
v 3.94338011741638 -2.16789150238037 -0.5
v 3.94338011741638 -2.16789150238037 0.5
v 4.07172155380249 -1.91600680351257 -0.5
v 4.07172155380249 -1.91600680351257 0.5
v 4.18399429321289 -1.65656054019928 -0.5
v 4.18399429321289 -1.65656054019928 0.5
v 4.27975416183472 -1.39057636260986 -0.5
v 4.27975416183472 -1.39057636260986 0.5
v 4.35862398147583 -1.11910450458527 -0.5
v 4.35862398147583 -1.11910450458527 0.5
v 4.42029237747192 -0.843215942382812 -0.5
v 4.42029237747192 -0.843215942382812 0.5
v 4.46451616287231 -0.563999593257904 -0.5
v 4.46451616287231 -0.563999593257904 0.5
v 4.49112033843994 -0.282557338476181 0.5
v 4.49112033843994 -0.282557338476181 -0.5
# </points>

# <edges count="200">
l 1 2
l 3 4
l 4 5
l 5 6
l 7 1
l 6 8
l 9 7
l 10 9
l 8 11
l 12 10
l 11 13
l 14 12
l 13 15
l 16 14
l 15 17
l 18 16
l 17 19
l 19 20
l 21 18
l 22 21
l 20 23
l 24 22
l 23 25
l 26 24
l 25 27
l 28 26
l 27 29
l 30 28
l 29 31
l 32 30
l 31 33
l 34 32
l 33 35
l 36 34
l 35 37
l 38 36
l 37 39
l 40 38
l 39 41
l 41 42
l 43 40
l 44 43
l 42 45
l 46 44
l 45 47
l 48 46
l 47 49
l 50 48
l 51 50
l 49 52
l 53 51
l 52 54
l 54 55
l 56 53
l 55 57
l 58 56
l 59 58
l 57 60
l 60 61
l 62 59
l 63 62
l 61 64
l 64 65
l 66 63
l 65 67
l 68 66
l 67 69
l 69 70
l 71 68
l 72 71
l 70 73
l 74 72
l 73 75
l 76 74
l 75 77
l 78 76
l 77 79
l 79 80
l 81 78
l 80 82
l 83 81
l 84 83
l 82 85
l 86 84
l 85 87
l 88 86
l 87 89
l 90 88
l 89 91
l 92 90
l 91 93
l 94 92
l 93 95
l 96 94
l 95 97
l 98 96
l 97 99
l 100 98
l 101 100
l 99 102
l 103 101
l 102 104
l 105 103
l 104 106
l 107 105
l 106 108
l 108 109
l 110 107
l 111 110
l 109 112
l 113 111
l 112 114
l 115 113
l 114 116
l 117 115
l 116 118
l 119 117
l 118 120
l 121 119
l 120 122
l 123 121
l 122 124
l 125 123
l 124 126
l 127 125
l 126 128
l 129 127
l 128 130
l 131 129
l 130 132
l 132 133
l 134 131
l 133 135
l 136 134
l 135 137
l 138 136
l 137 139
l 140 138
l 139 141
l 142 140
l 141 143
l 144 142
l 143 145
l 145 146
l 147 144
l 148 147
l 146 149
l 150 148
l 151 150
l 149 152
l 153 151
l 152 154
l 155 153
l 154 156
l 157 155
l 156 158
l 159 157
l 158 160
l 161 159
l 160 162
l 163 161
l 162 164
l 165 163
l 164 166
l 167 165
l 166 168
l 169 167
l 168 170
l 171 169
l 170 172
l 173 171
l 172 174
l 175 173
l 174 176
l 177 175
l 176 178
l 179 177
l 178 180
l 181 179
l 180 182
l 183 181
l 182 184
l 185 183
l 184 186
l 187 185
l 186 188
l 189 187
l 188 190
l 191 189
l 190 192
l 193 191
l 192 194
l 195 193
l 194 196
l 197 195
l 196 198
l 199 3
l 200 197
l 198 199
l 2 200
# </edges>
