v 0.89290326833725 -6 0.112799912691116
v 0.955693248938694 -6 -0.885226849643477
l 1 2
v 0.899999976158142 6 -2.19999999739257e-16
v 0.837209995556698 6 0.998026762334593
l 3 4
v 0.871724843978882 -6 0.223820894956589
v 1.05910649433649 -6 -0.758466291720128
l 5 6
v 0.89290326833725 6 0.112799912691116
v 0.705521617979642 6 1.09508709936783
l 7 8
v 0.836798846721649 -6 0.331312090158463
v 1.14581576718626 -6 -0.619744450151613
l 9 10
v 0.871724843978882 6 0.223820894956589
v 0.562707923514276 6 1.17487743526666
l 11 12
v 0.788676023483276 -6 0.433578312397003
v 1.21445525621737 -6 -0.47124876775277
l 13 14
v 0.836798846721649 6 0.331312090158463
v 0.411019613987552 6 1.23613917030824
l 15 16
v 0.728115320205688 -6 0.529006719589233
v 1.26394208074268 -6 -0.31532122777034
l 17 18
v 0.788676023483276 6 0.433578312397003
v 0.252849262946282 6 1.27790625975658
l 19 20
v 0.656071782112122 -6 0.616092383861542
v 1.29349583040211 -6 -0.154420810484672
l 21 22
v 0.728115320205688 6 0.529006719589233
v 0.0906912719157028 6 1.29951991393545
l 23 24
v 0.573681592941284 -6 0.693461894989014
v 1.30265033679054 -6 0.00891491304340808
l 25 26
v 0.656071782112122 6 0.616092383861542
v -0.0728969617371347 6 1.30063936580715
l 27 28
v 0.482244104146957 -6 0.759895145893097
v 1.29126098643366 -6 0.172109739324424
l 29 30
v 0.573681592941284 6 0.693461894989014
v -0.235335289345421 6 1.28124730155769
l 31 32
v 0.383201360702515 -6 0.814344346523285
v 1.25950807191417 -6 0.332590729115579
l 33 34
v 0.482244104146957 6 0.759895145893097
v -0.394062607064699 6 1.2416487633008
l 35 36
v 0.278115302324295 -6 0.855950891971588
v 1.2078916925098 -6 0.487826097569456
l 37 38
v 0.383201360702515 6 0.814344346523285
v -0.54657502948299 6 1.18246914092542
l 39 40
v 0.168643191456795 -6 0.88405853509903
v 1.13722639013896 -6 0.635368794195566
l 41 42
v 0.278115302324295 6 0.855950891971588
v -0.690467896357867 6 1.10464063287505
l 43 44
v 0.056511465460062 -6 0.898224055767059
v 1.04862617841573 -6 0.772890914352296
l 45 46
v 0.168643191456795 6 0.88405853509903
v -0.823471521498873 6 1.00939167651379
l 47 48
v -0.056511465460062 -6 0.898224055767059
v 0.943488534539938 -6 0.898224055767059
l 49 50
v 0.056511465460062 6 0.898224055767059
v -0.943488534539938 6 0.898224055767059
l 51 52
v -0.168643191456795 -6 0.88405853509903
v 0.823471521498873 -6 1.00939167651379
l 53 54
v -0.056511465460062 6 0.898224055767059
v -1.04862617841573 6 0.772890914352296
l 55 56
v -0.278115302324295 -6 0.855950891971588
v 0.690467896357867 -6 1.10464063287505
l 57 58
v -0.168643191456795 6 0.88405853509903
v -1.13722639013896 6 0.635368794195566
l 59 60
v -0.383201360702515 -6 0.814344346523285
v 0.54657502948299 -6 1.18246914092542
l 61 62
v -0.482244104146957 -6 0.759895145893097
v 0.394062607064699 -6 1.2416487633008
l 63 64
v -0.278115302324295 6 0.855950891971588
v -1.2078916925098 6 0.487826097569456
l 65 66
v -0.383201360702515 6 0.814344346523285
v -1.25950807191417 6 0.332590729115579
l 67 68
v -0.573681592941284 -6 0.693461894989014
v 0.235335289345421 -6 1.28124730155769
l 69 70
v -0.482244104146957 6 0.759895145893097
v -1.29126098643366 6 0.172109739324424
l 71 72
v -0.656071782112122 -6 0.616092383861542
v 0.0728969617371347 -6 1.30063936580715
l 73 74
v -0.573681592941284 6 0.693461894989014
v -1.30265033679054 6 0.00891491304340808
l 75 76
v -0.728115320205688 -6 0.529006719589233
v -0.0906912719157028 -6 1.29951991393545
l 77 78
v -0.656071782112122 6 0.616092383861542
v -1.29349583040211 6 -0.154420810484672
l 79 80
v -0.788676023483276 -6 0.433578312397003
v -0.252849262946282 -6 1.27790625975658
l 81 82
v -0.728115320205688 6 0.529006719589233
v -1.26394208074268 6 -0.31532122777034
l 83 84
v -0.836798846721649 -6 0.331312090158463
v -0.411019613987552 -6 1.23613917030824
l 85 86
v -0.788676023483276 6 0.433578312397003
v -1.21445525621737 6 -0.47124876775277
l 87 88
v -0.871724843978882 -6 0.223820894956589
v -0.562707923514276 -6 1.17487743526666
l 89 90
v -0.89290326833725 -6 0.112799912691116
v -0.705521617979642 -6 1.09508709936783
l 91 92
v -0.836798846721649 6 0.331312090158463
v -1.14581576718626 6 -0.619744450151613
l 93 94
v -0.871724843978882 6 0.223820894956589
v -1.05910649433649 6 -0.758466291720128
l 95 96
v -0.89290326833725 6 0.112799912691116
v -0.955693248938693 6 -0.885226849643477
l 97 98
v -0.899999976158142 -6 -1.08882263133366e-15
v -0.837209995556699 -6 0.998026762334592
l 99 100
v -0.899999976158142 6 -1.08882263133366e-15
v -0.837209995556698 6 -0.998026762334594
l 101 102
v -0.89290326833725 -6 -0.112799912691116
v -0.955693248938694 -6 0.885226849643477
l 103 104
v -0.89290326833725 6 -0.112799912691116
v -0.705521617979642 6 -1.09508709936783
l 105 106
v -0.871724843978882 -6 -0.223820894956589
v -1.05910649433649 -6 0.758466291720128
l 107 108
v -0.836798846721649 -6 -0.331312090158463
v -1.14581576718626 -6 0.619744450151613
l 109 110
v -0.871724843978882 6 -0.223820894956589
v -0.562707923514276 6 -1.17487743526666
l 111 112
v -0.836798846721649 6 -0.331312090158463
v -0.411019613987552 6 -1.23613917030824
l 113 114
v -0.788676023483276 -6 -0.433578312397003
v -1.21445525621737 -6 0.47124876775277
l 115 116
v -0.728115320205688 -6 -0.529006719589233
v -1.26394208074268 -6 0.31532122777034
l 117 118
v -0.788676023483276 6 -0.433578312397003
v -0.252849262946282 6 -1.27790625975658
l 119 120
v -0.728115320205688 6 -0.529006719589233
v -0.0906912719157028 6 -1.29951991393545
l 121 122
v -0.656071782112122 -6 -0.616092383861542
v -1.29349583040211 -6 0.154420810484672
l 123 124
v -0.573681592941284 -6 -0.693461894989014
v -1.30265033679054 -6 -0.00891491304340808
l 125 126
v -0.656071782112122 6 -0.616092383861542
v 0.0728969617371347 6 -1.30063936580715
l 127 128
v -0.482244104146957 -6 -0.759895145893097
v -1.29126098643366 -6 -0.172109739324424
l 129 130
v -0.573681592941284 6 -0.693461894989014
v 0.235335289345421 6 -1.28124730155769
l 131 132
v -0.383201360702515 -6 -0.814344346523285
v -1.25950807191417 -6 -0.332590729115579
l 133 134
v -0.278115302324295 -6 -0.855950891971588
v -1.2078916925098 -6 -0.487826097569456
l 135 136
v -0.482244104146957 6 -0.759895145893097
v 0.394062607064699 6 -1.2416487633008
l 137 138
v -0.383201360702515 6 -0.814344346523285
v 0.54657502948299 6 -1.18246914092542
l 139 140
v -0.168643191456795 -6 -0.88405853509903
v -1.13722639013896 -6 -0.635368794195566
l 141 142
v -0.278115302324295 6 -0.855950891971588
v 0.690467896357867 6 -1.10464063287505
l 143 144
v -0.056511465460062 -6 -0.898224055767059
v -1.04862617841573 -6 -0.772890914352296
l 145 146
v -0.168643191456795 6 -0.88405853509903
v 0.823471521498873 6 -1.00939167651379
l 147 148
v 0.056511465460062 -6 -0.898224055767059
v -0.943488534539938 -6 -0.898224055767059
l 149 150
v -0.056511465460062 6 -0.898224055767059
v 0.943488534539938 6 -0.898224055767059
l 151 152
v 0.168643191456795 -6 -0.88405853509903
v -0.823471521498873 -6 -1.00939167651379
l 153 154
v 0.278115302324295 -6 -0.855950891971588
v -0.690467896357867 -6 -1.10464063287505
l 155 156
v 0.056511465460062 6 -0.898224055767059
v 1.04862617841573 6 -0.772890914352296
l 157 158
v 0.168643191456795 6 -0.88405853509903
v 1.13722639013896 6 -0.635368794195566
l 159 160
v 0.383201360702515 -6 -0.814344346523285
v -0.54657502948299 -6 -1.18246914092542
l 161 162
v 0.482244104146957 -6 -0.759895145893097
v -0.394062607064699 -6 -1.2416487633008
l 163 164
v 0.278115302324295 6 -0.855950891971588
v 1.2078916925098 6 -0.487826097569456
l 165 166
v 0.573681592941284 -6 -0.693461894989014
v -0.235335289345421 -6 -1.28124730155769
l 167 168
v 0.383201360702515 6 -0.814344346523285
v 1.25950807191417 6 -0.332590729115579
l 169 170
v 0.482244104146957 6 -0.759895145893097
v 1.29126098643366 6 -0.172109739324424
l 171 172
v 0.656071782112122 -6 -0.616092383861542
v -0.0728969617371347 -6 -1.30063936580715
l 173 174
v 0.573681592941284 6 -0.693461894989014
v 1.30265033679054 6 -0.00891491304340808
l 175 176
v 0.728115320205688 -6 -0.529006719589233
v 0.0906912719157028 -6 -1.29951991393545
l 177 178
v 0.656071782112122 6 -0.616092383861542
v 1.29349583040211 6 0.154420810484672
l 179 180
v 0.788676023483276 -6 -0.433578312397003
v 0.252849262946282 -6 -1.27790625975658
l 181 182
v 0.728115320205688 6 -0.529006719589233
v 1.26394208074268 6 0.31532122777034
l 183 184
v 0.836798846721649 -6 -0.331312090158463
v 0.411019613987552 -6 -1.23613917030824
l 185 186
v 0.788676023483276 6 -0.433578312397003
v 1.21445525621737 6 0.47124876775277
l 187 188
v 0.871724843978882 -6 -0.223820894956589
v 0.562707923514276 -6 -1.17487743526666
l 189 190
v 0.836798846721649 6 -0.331312090158463
v 1.14581576718626 6 0.619744450151613
l 191 192
v 0.871724843978882 6 -0.223820894956589
v 1.05910649433649 6 0.758466291720128
l 193 194
v 0.89290326833725 -6 -0.112799912691116
v 0.705521617979642 -6 -1.09508709936783
l 195 196
v 0.89290326833725 6 -0.112799912691116
v 0.955693248938694 6 0.885226849643477
l 197 198
v 0.899999976158142 -6 -2.19999999739257e-16
v 0.837209995556698 -6 -0.998026762334593
l 199 200
v 0.297634392976761 3 0.0375999733805656
v 0.360425682668225 3 -0.960426706592912
l 201 202
v 0.300000011920929 -3 -7.30000059293399e-17
v 0.237208722229465 -3 0.998026679973478
l 203 204
v 0.297634392976761 -3 0.0375999733805656
v 0.110253227202937 -3 1.01988725249663
l 205 206
v 0.290574938058853 3 0.0746069625020027
v 0.477956103832677 3 -0.907680316614063
l 207 208
v 0.290574938058853 -3 0.0746069625020027
v -0.0184414860233657 -3 1.02566366409631
l 209 210
v 0.278932958841324 3 0.110437363386154
v 0.587949382923543 3 -0.84061933820815
l 211 212
v 0.278932958841324 -3 0.110437363386154
v -0.146846438980885 -3 1.01526436585135
l 213 214
v 0.262892007827759 3 0.144526109099388
v 0.688671405649968 3 -0.760300893365811
l 215 216
v 0.262892007827759 -3 0.144526109099388
v -0.272935094322522 -3 0.9888538396645
l 217 218
v 0.242705091834068 3 0.176335573196411
v 0.778532193984349 3 -0.667992157368701
l 219 220
v 0.242705091834068 -3 0.176335573196411
v -0.394718670402627 -3 0.946849004186434
l 221 222
v 0.21869058907032 3 0.205364137887955
v 0.856114351307015 3 -0.565149293102068
l 223 224
v 0.21869058907032 -3 0.205364137887955
v -0.510278027206318 -3 0.889911255684622
l 225 226
v 0.191227197647095 -3 0.231153979897499
v -0.617789998112367 -3 0.818938955007868
l 227 228
v 0.191227197647095 3 0.231153979897499
v 0.920195813923732 3 -0.453393137899168
l 229 230
v 0.160748034715652 3 0.253298372030258
v 0.969765230475114 3 -0.33448660308011
l 231 232
v 0.160748034715652 -3 0.253298372030258
v -0.71555870709474 -3 0.735051933779058
l 233 234
v 0.127733781933784 -3 0.271448105573654
v -0.802042680637102 -3 0.639572717151268
l 235 236
v 0.127733781933784 3 0.271448105573654
v 1.00404052374418 3 -0.210305456175146
l 237 238
v 0.092705100774765 3 0.285316944122314
v 1.02248156334565 3 -0.0828076674552989
l 239 240
v 0.092705100774765 -3 0.285316944122314
v -0.875877851999796 -3 0.534007642771286
l 241 242
v 0.0562143921852112 3 0.294686198234558
v 1.02479734495977 3 0.045995499585587
l 243 244
v 0.0562143921852112 -3 0.294686198234558
v -0.935900384015894 -3 0.420018839008743
l 245 246
v 0.0188371557742357 -3 0.29940801858902
v -0.981162844225764 -3 0.29940801858902
l 247 248
v 0.0188371557742357 3 0.29940801858902
v 1.01095193197534 3 0.174075377814835
l 249 250
v -0.0188371557742357 -3 0.29940801858902
v -1.01095193197534 -3 0.174075377814835
l 251 252
v -0.0188371557742357 3 0.29940801858902
v 0.981162844225764 3 0.29940801858902
l 253 254
v -0.0562143921852112 3 0.294686198234558
v 0.935900384015894 3 0.420018839008743
l 255 256
v -0.0562143921852112 -3 0.294686198234558
v -1.02479734495977 -3 0.045995499585587
l 257 258
v -0.092705100774765 3 0.285316944122314
v 0.875877851999796 3 0.534007642771286
l 259 260
v -0.092705100774765 -3 0.285316944122314
v -1.02248156334565 -3 -0.0828076674552989
l 261 262
v -0.127733781933784 3 0.271448105573654
v 0.802042680637102 3 0.639572717151268
l 263 264
v -0.127733781933784 -3 0.271448105573654
v -1.00404052374418 -3 -0.210305456175146
l 265 266
v -0.160748034715652 -3 0.253298372030258
v -0.969765230475114 -3 -0.33448660308011
l 267 268
v -0.160748034715652 3 0.253298372030258
v 0.71555870709474 3 0.735051933779058
l 269 270
v -0.191227197647095 3 0.231153979897499
v 0.617789998112367 3 0.818938955007868
l 271 272
v -0.191227197647095 -3 0.231153979897499
v -0.920195813923732 -3 -0.453393137899168
l 273 274
v -0.21869058907032 3 0.205364137887955
v 0.510278027206318 3 0.889911255684622
l 275 276
v -0.21869058907032 -3 0.205364137887955
v -0.856114351307015 -3 -0.565149293102068
l 277 278
v -0.242705091834068 3 0.176335573196411
v 0.394718670402627 3 0.946849004186434
l 279 280
v -0.242705091834068 -3 0.176335573196411
v -0.778532193984349 -3 -0.667992157368701
l 281 282
v -0.262892007827759 3 0.144526109099388
v 0.272935094322522 3 0.9888538396645
l 283 284
v -0.262892007827759 -3 0.144526109099388
v -0.688671405649968 -3 -0.760300893365811
l 285 286
v -0.278932958841324 3 0.110437363386154
v 0.146846438980885 3 1.01526436585135
l 287 288
v -0.278932958841324 -3 0.110437363386154
v -0.587949382923543 -3 -0.84061933820815
l 289 290
v -0.290574938058853 3 0.0746069625020027
v 0.0184414860233657 3 1.02566366409631
l 291 292
v -0.290574938058853 -3 0.0746069625020027
v -0.477956103832677 -3 -0.907680316614063
l 293 294
v -0.297634392976761 3 0.0375999733805656
v -0.110253227202937 3 1.01988725249663
l 295 296
v -0.300000011920929 3 -3.62940885934479e-16
v -0.237208722229465 3 0.998026679973478
l 297 298
v -0.297634392976761 -3 0.0375999733805656
v -0.360425682668225 -3 -0.960426706592912
l 299 300
v -0.300000011920929 -3 -3.62940885934479e-16
v -0.237208722229464 -3 -0.998026679973478
l 301 302
v -0.297634392976761 3 -0.0375999733805656
v -0.360425682668226 3 0.960426706592912
l 303 304
v -0.290574938058853 3 -0.0746069625020027
v -0.477956103832677 3 0.907680316614063
l 305 306
v -0.297634392976761 -3 -0.0375999733805656
v -0.110253227202937 -3 -1.01988725249663
l 307 308
v -0.290574938058853 -3 -0.0746069625020027
v 0.0184414860233657 -3 -1.02566366409631
l 309 310
v -0.278932958841324 3 -0.110437363386154
v -0.587949382923543 3 0.84061933820815
l 311 312
v -0.262892007827759 3 -0.144526109099388
v -0.688671405649968 3 0.760300893365811
l 313 314
v -0.278932958841324 -3 -0.110437363386154
v 0.146846438980885 -3 -1.01526436585135
l 315 316
v -0.262892007827759 -3 -0.144526109099388
v 0.272935094322522 -3 -0.9888538396645
l 317 318
v -0.242705091834068 3 -0.176335573196411
v -0.778532193984349 3 0.667992157368701
l 319 320
v -0.21869058907032 3 -0.205364137887955
v -0.856114351307015 3 0.565149293102068
l 321 322
v -0.242705091834068 -3 -0.176335573196411
v 0.394718670402627 -3 -0.946849004186434
l 323 324
v -0.21869058907032 -3 -0.205364137887955
v 0.510278027206318 -3 -0.889911255684622
l 325 326
v -0.191227197647095 3 -0.231153979897499
v -0.920195813923732 3 0.453393137899168
l 327 328
v -0.191227197647095 -3 -0.231153979897499
v 0.617789998112367 -3 -0.818938955007868
l 329 330
v -0.160748034715652 3 -0.253298372030258
v -0.969765230475114 3 0.33448660308011
l 331 332
v -0.160748034715652 -3 -0.253298372030258
v 0.71555870709474 -3 -0.735051933779058
l 333 334
v -0.127733781933784 -3 -0.271448105573654
v 0.802042680637102 -3 -0.639572717151268
l 335 336
v -0.127733781933784 3 -0.271448105573654
v -1.00404052374418 3 0.210305456175146
l 337 338
v -0.092705100774765 3 -0.285316944122314
v -1.02248156334565 3 0.0828076674552989
l 339 340
v -0.092705100774765 -3 -0.285316944122314
v 0.875877851999796 -3 -0.534007642771286
l 341 342
v -0.0562143921852112 -3 -0.294686198234558
v 0.935900384015894 -3 -0.420018839008743
l 343 344
v -0.0562143921852112 3 -0.294686198234558
v -1.02479734495977 3 -0.045995499585587
l 345 346
v -0.0188371557742357 -3 -0.29940801858902
v 0.981162844225764 -3 -0.29940801858902
l 347 348
v -0.0188371557742357 3 -0.29940801858902
v -1.01095193197534 3 -0.174075377814835
l 349 350
v 0.0188371557742357 3 -0.29940801858902
v -0.981162844225764 3 -0.29940801858902
l 351 352
v 0.0188371557742357 -3 -0.29940801858902
v 1.01095193197534 -3 -0.174075377814835
l 353 354
v 0.0562143921852112 -3 -0.294686198234558
v 1.02479734495977 -3 -0.045995499585587
l 355 356
v 0.0562143921852112 3 -0.294686198234558
v -0.935900384015894 3 -0.420018839008743
l 357 358
v 0.092705100774765 3 -0.285316944122314
v -0.875877851999796 3 -0.534007642771286
l 359 360
v 0.092705100774765 -3 -0.285316944122314
v 1.02248156334565 -3 0.0828076674552989
l 361 362
v 0.127733781933784 -3 -0.271448105573654
v 1.00404052374418 -3 0.210305456175146
l 363 364
v 0.127733781933784 3 -0.271448105573654
v -0.802042680637102 3 -0.639572717151268
l 365 366
v 0.160748034715652 3 -0.253298372030258
v -0.71555870709474 3 -0.735051933779058
l 367 368
v 0.160748034715652 -3 -0.253298372030258
v 0.969765230475114 -3 0.33448660308011
l 369 370
v 0.191227197647095 3 -0.231153979897499
v -0.617789998112367 3 -0.818938955007868
l 371 372
v 0.191227197647095 -3 -0.231153979897499
v 0.920195813923732 -3 0.453393137899168
l 373 374
v 0.21869058907032 3 -0.205364137887955
v -0.510278027206318 3 -0.889911255684622
l 375 376
v 0.21869058907032 -3 -0.205364137887955
v 0.856114351307015 -3 0.565149293102068
l 377 378
v 0.242705091834068 3 -0.176335573196411
v -0.394718670402627 3 -0.946849004186434
l 379 380
v 0.242705091834068 -3 -0.176335573196411
v 0.778532193984349 -3 0.667992157368701
l 381 382
v 0.262892007827759 -3 -0.144526109099388
v 0.688671405649968 -3 0.760300893365811
l 383 384
v 0.262892007827759 3 -0.144526109099388
v -0.272935094322522 3 -0.9888538396645
l 385 386
v 0.278932958841324 -3 -0.110437363386154
v 0.587949382923543 -3 0.84061933820815
l 387 388
v 0.278932958841324 3 -0.110437363386154
v -0.146846438980885 3 -1.01526436585135
l 389 390
v 0.290574938058853 3 -0.0746069625020027
v -0.0184414860233657 3 -1.02566366409631
l 391 392
v 0.297634392976761 3 -0.0375999733805656
v 0.110253227202937 3 -1.01988725249663
l 393 394
v 0.290574938058853 -3 -0.0746069625020027
v 0.477956103832677 -3 0.907680316614063
l 395 396
v 0.300000011920929 3 -7.30000059293399e-17
v 0.237208722229465 3 -0.998026679973478
l 397 398
v 0.297634392976761 -3 -0.0375999733805656
v 0.360425682668225 -3 0.960426706592912
l 399 400
