v 0.89290326833725 -6 0.112799912691116
v 0.899999976158142 -6 -2.19999999739257e-16
l 1 2
v 0.899999976158142 6 -2.19999999739257e-16
v 0.89290326833725 6 0.112799912691116
l 3 4
v 0.871724843978882 -6 0.223820894956589
v 0.89290326833725 -6 0.112799912691116
l 5 6
v 0.89290326833725 6 0.112799912691116
v 0.871724843978882 6 0.223820894956589
l 7 8
v 0.836798846721649 -6 0.331312090158463
v 0.871724843978882 -6 0.223820894956589
l 9 10
v 0.871724843978882 6 0.223820894956589
v 0.836798846721649 6 0.331312090158463
l 11 12
v 0.788676023483276 -6 0.433578312397003
v 0.836798846721649 -6 0.331312090158463
l 13 14
v 0.836798846721649 6 0.331312090158463
v 0.788676023483276 6 0.433578312397003
l 15 16
v 0.728115320205688 -6 0.529006719589233
v 0.788676023483276 -6 0.433578312397003
l 17 18
v 0.788676023483276 6 0.433578312397003
v 0.728115320205688 6 0.529006719589233
l 19 20
v 0.656071782112122 -6 0.616092383861542
v 0.728115320205688 -6 0.529006719589233
l 21 22
v 0.728115320205688 6 0.529006719589233
v 0.656071782112122 6 0.616092383861542
l 23 24
v 0.573681592941284 -6 0.693461894989014
v 0.656071782112122 -6 0.616092383861542
l 25 26
v 0.656071782112122 6 0.616092383861542
v 0.573681592941284 6 0.693461894989014
l 27 28
v 0.482244104146957 -6 0.759895145893097
v 0.573681592941284 -6 0.693461894989014
l 29 30
v 0.573681592941284 6 0.693461894989014
v 0.482244104146957 6 0.759895145893097
l 31 32
v 0.383201360702515 -6 0.814344346523285
v 0.482244104146957 -6 0.759895145893097
l 33 34
v 0.482244104146957 6 0.759895145893097
v 0.383201360702515 6 0.814344346523285
l 35 36
v 0.278115302324295 -6 0.855950891971588
v 0.383201360702515 -6 0.814344346523285
l 37 38
v 0.383201360702515 6 0.814344346523285
v 0.278115302324295 6 0.855950891971588
l 39 40
v 0.168643191456795 -6 0.88405853509903
v 0.278115302324295 -6 0.855950891971588
l 41 42
v 0.278115302324295 6 0.855950891971588
v 0.168643191456795 6 0.88405853509903
l 43 44
v 0.056511465460062 -6 0.898224055767059
v 0.168643191456795 -6 0.88405853509903
l 45 46
v 0.168643191456795 6 0.88405853509903
v 0.056511465460062 6 0.898224055767059
l 47 48
v -0.056511465460062 -6 0.898224055767059
v 0.056511465460062 -6 0.898224055767059
l 49 50
v 0.056511465460062 6 0.898224055767059
v -0.056511465460062 6 0.898224055767059
l 51 52
v -0.168643191456795 -6 0.88405853509903
v -0.056511465460062 -6 0.898224055767059
l 53 54
v -0.056511465460062 6 0.898224055767059
v -0.168643191456795 6 0.88405853509903
l 55 56
v -0.278115302324295 -6 0.855950891971588
v -0.168643191456795 -6 0.88405853509903
l 57 58
v -0.168643191456795 6 0.88405853509903
v -0.278115302324295 6 0.855950891971588
l 59 60
v -0.383201360702515 -6 0.814344346523285
v -0.278115302324295 -6 0.855950891971588
l 61 62
v -0.482244104146957 -6 0.759895145893097
v -0.383201360702515 -6 0.814344346523285
l 63 64
v -0.278115302324295 6 0.855950891971588
v -0.383201360702515 6 0.814344346523285
l 65 66
v -0.383201360702515 6 0.814344346523285
v -0.482244104146957 6 0.759895145893097
l 67 68
v -0.573681592941284 -6 0.693461894989014
v -0.482244104146957 -6 0.759895145893097
l 69 70
v -0.482244104146957 6 0.759895145893097
v -0.573681592941284 6 0.693461894989014
l 71 72
v -0.656071782112122 -6 0.616092383861542
v -0.573681592941284 -6 0.693461894989014
l 73 74
v -0.573681592941284 6 0.693461894989014
v -0.656071782112122 6 0.616092383861542
l 75 76
v -0.728115320205688 -6 0.529006719589233
v -0.656071782112122 -6 0.616092383861542
l 77 78
v -0.656071782112122 6 0.616092383861542
v -0.728115320205688 6 0.529006719589233
l 79 80
v -0.788676023483276 -6 0.433578312397003
v -0.728115320205688 -6 0.529006719589233
l 81 82
v -0.728115320205688 6 0.529006719589233
v -0.788676023483276 6 0.433578312397003
l 83 84
v -0.836798846721649 -6 0.331312090158463
v -0.788676023483276 -6 0.433578312397003
l 85 86
v -0.788676023483276 6 0.433578312397003
v -0.836798846721649 6 0.331312090158463
l 87 88
v -0.871724843978882 -6 0.223820894956589
v -0.836798846721649 -6 0.331312090158463
l 89 90
v -0.89290326833725 -6 0.112799912691116
v -0.871724843978882 -6 0.223820894956589
l 91 92
v -0.836798846721649 6 0.331312090158463
v -0.871724843978882 6 0.223820894956589
l 93 94
v -0.871724843978882 6 0.223820894956589
v -0.89290326833725 6 0.112799912691116
l 95 96
v -0.89290326833725 6 0.112799912691116
v -0.899999976158142 6 -1.08882263133366e-15
l 97 98
v -0.899999976158142 -6 -1.08882263133366e-15
v -0.89290326833725 -6 0.112799912691116
l 99 100
v -0.899999976158142 6 -1.08882263133366e-15
v -0.89290326833725 6 -0.112799912691116
l 101 102
v -0.89290326833725 -6 -0.112799912691116
v -0.899999976158142 -6 -1.08882263133366e-15
l 103 104
v -0.89290326833725 6 -0.112799912691116
v -0.871724843978882 6 -0.223820894956589
l 105 106
v -0.871724843978882 -6 -0.223820894956589
v -0.89290326833725 -6 -0.112799912691116
l 107 108
v -0.836798846721649 -6 -0.331312090158463
v -0.871724843978882 -6 -0.223820894956589
l 109 110
v -0.871724843978882 6 -0.223820894956589
v -0.836798846721649 6 -0.331312090158463
l 111 112
v -0.836798846721649 6 -0.331312090158463
v -0.788676023483276 6 -0.433578312397003
l 113 114
v -0.788676023483276 -6 -0.433578312397003
v -0.836798846721649 -6 -0.331312090158463
l 115 116
v -0.728115320205688 -6 -0.529006719589233
v -0.788676023483276 -6 -0.433578312397003
l 117 118
v -0.788676023483276 6 -0.433578312397003
v -0.728115320205688 6 -0.529006719589233
l 119 120
v -0.728115320205688 6 -0.529006719589233
v -0.656071782112122 6 -0.616092383861542
l 121 122
v -0.656071782112122 -6 -0.616092383861542
v -0.728115320205688 -6 -0.529006719589233
l 123 124
v -0.573681592941284 -6 -0.693461894989014
v -0.656071782112122 -6 -0.616092383861542
l 125 126
v -0.656071782112122 6 -0.616092383861542
v -0.573681592941284 6 -0.693461894989014
l 127 128
v -0.482244104146957 -6 -0.759895145893097
v -0.573681592941284 -6 -0.693461894989014
l 129 130
v -0.573681592941284 6 -0.693461894989014
v -0.482244104146957 6 -0.759895145893097
l 131 132
v -0.383201360702515 -6 -0.814344346523285
v -0.482244104146957 -6 -0.759895145893097
l 133 134
v -0.278115302324295 -6 -0.855950891971588
v -0.383201360702515 -6 -0.814344346523285
l 135 136
v -0.482244104146957 6 -0.759895145893097
v -0.383201360702515 6 -0.814344346523285
l 137 138
v -0.383201360702515 6 -0.814344346523285
v -0.278115302324295 6 -0.855950891971588
l 139 140
v -0.168643191456795 -6 -0.88405853509903
v -0.278115302324295 -6 -0.855950891971588
l 141 142
v -0.278115302324295 6 -0.855950891971588
v -0.168643191456795 6 -0.88405853509903
l 143 144
v -0.056511465460062 -6 -0.898224055767059
v -0.168643191456795 -6 -0.88405853509903
l 145 146
v -0.168643191456795 6 -0.88405853509903
v -0.056511465460062 6 -0.898224055767059
l 147 148
v 0.056511465460062 -6 -0.898224055767059
v -0.056511465460062 -6 -0.898224055767059
l 149 150
v -0.056511465460062 6 -0.898224055767059
v 0.056511465460062 6 -0.898224055767059
l 151 152
v 0.168643191456795 -6 -0.88405853509903
v 0.056511465460062 -6 -0.898224055767059
l 153 154
v 0.278115302324295 -6 -0.855950891971588
v 0.168643191456795 -6 -0.88405853509903
l 155 156
v 0.056511465460062 6 -0.898224055767059
v 0.168643191456795 6 -0.88405853509903
l 157 158
v 0.168643191456795 6 -0.88405853509903
v 0.278115302324295 6 -0.855950891971588
l 159 160
v 0.383201360702515 -6 -0.814344346523285
v 0.278115302324295 -6 -0.855950891971588
l 161 162
v 0.482244104146957 -6 -0.759895145893097
v 0.383201360702515 -6 -0.814344346523285
l 163 164
v 0.278115302324295 6 -0.855950891971588
v 0.383201360702515 6 -0.814344346523285
l 165 166
v 0.573681592941284 -6 -0.693461894989014
v 0.482244104146957 -6 -0.759895145893097
l 167 168
v 0.383201360702515 6 -0.814344346523285
v 0.482244104146957 6 -0.759895145893097
l 169 170
v 0.482244104146957 6 -0.759895145893097
v 0.573681592941284 6 -0.693461894989014
l 171 172
v 0.656071782112122 -6 -0.616092383861542
v 0.573681592941284 -6 -0.693461894989014
l 173 174
v 0.573681592941284 6 -0.693461894989014
v 0.656071782112122 6 -0.616092383861542
l 175 176
v 0.728115320205688 -6 -0.529006719589233
v 0.656071782112122 -6 -0.616092383861542
l 177 178
v 0.656071782112122 6 -0.616092383861542
v 0.728115320205688 6 -0.529006719589233
l 179 180
v 0.788676023483276 -6 -0.433578312397003
v 0.728115320205688 -6 -0.529006719589233
l 181 182
v 0.728115320205688 6 -0.529006719589233
v 0.788676023483276 6 -0.433578312397003
l 183 184
v 0.836798846721649 -6 -0.331312090158463
v 0.788676023483276 -6 -0.433578312397003
l 185 186
v 0.788676023483276 6 -0.433578312397003
v 0.836798846721649 6 -0.331312090158463
l 187 188
v 0.871724843978882 -6 -0.223820894956589
v 0.836798846721649 -6 -0.331312090158463
l 189 190
v 0.836798846721649 6 -0.331312090158463
v 0.871724843978882 6 -0.223820894956589
l 191 192
v 0.871724843978882 6 -0.223820894956589
v 0.89290326833725 6 -0.112799912691116
l 193 194
v 0.89290326833725 -6 -0.112799912691116
v 0.871724843978882 -6 -0.223820894956589
l 195 196
v 0.89290326833725 6 -0.112799912691116
v 0.899999976158142 6 -2.19999999739257e-16
l 197 198
v 0.899999976158142 -6 -2.19999999739257e-16
v 0.89290326833725 -6 -0.112799912691116
l 199 200
