# Wavefront OBJ file written 2026-06-16T07:50:35
o Cut_Geometry_edgeMesh

# points : 200
# lines  : 200

# <points count="200">
v 0.89290326833725 -6 0.112799912691116
v 0.899999976158142 -6 -2.19999999739257e-16
v 0.899999976158142 6 -2.19999999739257e-16
v 0.89290326833725 6 0.112799912691116
v 0.871724843978882 -6 0.223820894956589
v 0.871724843978882 6 0.223820894956589
v 0.836798846721649 -6 0.331312090158463
v 0.836798846721649 6 0.331312090158463
v 0.788676023483276 -6 0.433578312397003
v 0.788676023483276 6 0.433578312397003
v 0.728115320205688 -6 0.529006719589233
v 0.728115320205688 6 0.529006719589233
v 0.656071782112122 -6 0.616092383861542
v 0.656071782112122 6 0.616092383861542
v 0.573681592941284 -6 0.693461894989014
v 0.573681592941284 6 0.693461894989014
v 0.482244104146957 -6 0.759895145893097
v 0.482244104146957 6 0.759895145893097
v 0.383201360702515 -6 0.814344346523285
v 0.383201360702515 6 0.814344346523285
v 0.278115302324295 -6 0.855950891971588
v 0.278115302324295 6 0.855950891971588
v 0.168643191456795 -6 0.88405853509903
v 0.168643191456795 6 0.88405853509903
v 0.056511465460062 -6 0.898224055767059
v 0.056511465460062 6 0.898224055767059
v -0.056511465460062 -6 0.898224055767059
v -0.056511465460062 6 0.898224055767059
v -0.168643191456795 -6 0.88405853509903
v -0.168643191456795 6 0.88405853509903
v -0.278115302324295 -6 0.855950891971588
v -0.278115302324295 6 0.855950891971588
v -0.383201360702515 -6 0.814344346523285
v -0.482244104146957 -6 0.759895145893097
v -0.383201360702515 6 0.814344346523285
v -0.482244104146957 6 0.759895145893097
v -0.573681592941284 -6 0.693461894989014
v -0.573681592941284 6 0.693461894989014
v -0.656071782112122 -6 0.616092383861542
v -0.656071782112122 6 0.616092383861542
v -0.728115320205688 -6 0.529006719589233
v -0.728115320205688 6 0.529006719589233
v -0.788676023483276 -6 0.433578312397003
v -0.788676023483276 6 0.433578312397003
v -0.836798846721649 -6 0.331312090158463
v -0.836798846721649 6 0.331312090158463
v -0.871724843978882 -6 0.223820894956589
v -0.89290326833725 -6 0.112799912691116
v -0.871724843978882 6 0.223820894956589
v -0.89290326833725 6 0.112799912691116
v -0.899999976158142 6 -1.08882263133366e-15
v -0.899999976158142 -6 -1.08882263133366e-15
v -0.89290326833725 6 -0.112799912691116
v -0.89290326833725 -6 -0.112799912691116
v -0.871724843978882 6 -0.223820894956589
v -0.871724843978882 -6 -0.223820894956589
v -0.836798846721649 -6 -0.331312090158463
v -0.836798846721649 6 -0.331312090158463
v -0.788676023483276 6 -0.433578312397003
v -0.788676023483276 -6 -0.433578312397003
v -0.728115320205688 -6 -0.529006719589233
v -0.728115320205688 6 -0.529006719589233
v -0.656071782112122 6 -0.616092383861542
v -0.656071782112122 -6 -0.616092383861542
v -0.573681592941284 -6 -0.693461894989014
v -0.573681592941284 6 -0.693461894989014
v -0.482244104146957 -6 -0.759895145893097
v -0.482244104146957 6 -0.759895145893097
v -0.383201360702515 -6 -0.814344346523285
v -0.278115302324295 -6 -0.855950891971588
v -0.383201360702515 6 -0.814344346523285
v -0.278115302324295 6 -0.855950891971588
v -0.168643191456795 -6 -0.88405853509903
v -0.168643191456795 6 -0.88405853509903
v -0.056511465460062 -6 -0.898224055767059
v -0.056511465460062 6 -0.898224055767059
v 0.056511465460062 -6 -0.898224055767059
v 0.056511465460062 6 -0.898224055767059
v 0.168643191456795 -6 -0.88405853509903
v 0.278115302324295 -6 -0.855950891971588
v 0.168643191456795 6 -0.88405853509903
v 0.278115302324295 6 -0.855950891971588
v 0.383201360702515 -6 -0.814344346523285
v 0.482244104146957 -6 -0.759895145893097
v 0.383201360702515 6 -0.814344346523285
v 0.573681592941284 -6 -0.693461894989014
v 0.482244104146957 6 -0.759895145893097
v 0.573681592941284 6 -0.693461894989014
v 0.656071782112122 -6 -0.616092383861542
v 0.656071782112122 6 -0.616092383861542
v 0.728115320205688 -6 -0.529006719589233
v 0.728115320205688 6 -0.529006719589233
v 0.788676023483276 -6 -0.433578312397003
v 0.788676023483276 6 -0.433578312397003
v 0.836798846721649 -6 -0.331312090158463
v 0.836798846721649 6 -0.331312090158463
v 0.871724843978882 -6 -0.223820894956589
v 0.871724843978882 6 -0.223820894956589
v 0.89290326833725 6 -0.112799912691116
v 0.89290326833725 -6 -0.112799912691116
v 0.297634392976761 3 0.0375999733805656
v 0.300000011920929 3 -7.30000059293399e-17
v 0.300000011920929 -3 -7.30000059293399e-17
v 0.297634392976761 -3 0.0375999733805656
v 0.290574938058853 -3 0.0746069625020027
v 0.290574938058853 3 0.0746069625020027
v 0.278932958841324 -3 0.110437363386154
v 0.278932958841324 3 0.110437363386154
v 0.262892007827759 -3 0.144526109099388
v 0.262892007827759 3 0.144526109099388
v 0.242705091834068 -3 0.176335573196411
v 0.242705091834068 3 0.176335573196411
v 0.21869058907032 -3 0.205364137887955
v 0.21869058907032 3 0.205364137887955
v 0.191227197647095 -3 0.231153979897499
v 0.160748034715652 -3 0.253298372030258
v 0.191227197647095 3 0.231153979897499
v 0.160748034715652 3 0.253298372030258
v 0.127733781933784 -3 0.271448105573654
v 0.092705100774765 -3 0.285316944122314
v 0.127733781933784 3 0.271448105573654
v 0.092705100774765 3 0.285316944122314
v 0.0562143921852112 -3 0.294686198234558
v 0.0562143921852112 3 0.294686198234558
v 0.0188371557742357 -3 0.29940801858902
v -0.0188371557742357 -3 0.29940801858902
v 0.0188371557742357 3 0.29940801858902
v -0.0562143921852112 -3 0.294686198234558
v -0.0188371557742357 3 0.29940801858902
v -0.0562143921852112 3 0.294686198234558
v -0.092705100774765 -3 0.285316944122314
v -0.092705100774765 3 0.285316944122314
v -0.127733781933784 -3 0.271448105573654
v -0.127733781933784 3 0.271448105573654
v -0.160748034715652 -3 0.253298372030258
v -0.191227197647095 -3 0.231153979897499
v -0.160748034715652 3 0.253298372030258
v -0.191227197647095 3 0.231153979897499
v -0.21869058907032 -3 0.205364137887955
v -0.21869058907032 3 0.205364137887955
v -0.242705091834068 -3 0.176335573196411
v -0.242705091834068 3 0.176335573196411
v -0.262892007827759 -3 0.144526109099388
v -0.262892007827759 3 0.144526109099388
v -0.278932958841324 -3 0.110437363386154
v -0.278932958841324 3 0.110437363386154
v -0.290574938058853 -3 0.0746069625020027
v -0.290574938058853 3 0.0746069625020027
v -0.297634392976761 -3 0.0375999733805656
v -0.297634392976761 3 0.0375999733805656
v -0.300000011920929 3 -3.62940885934479e-16
v -0.300000011920929 -3 -3.62940885934479e-16
v -0.297634392976761 -3 -0.0375999733805656
v -0.297634392976761 3 -0.0375999733805656
v -0.290574938058853 3 -0.0746069625020027
v -0.290574938058853 -3 -0.0746069625020027
v -0.278932958841324 -3 -0.110437363386154
v -0.278932958841324 3 -0.110437363386154
v -0.262892007827759 3 -0.144526109099388
v -0.262892007827759 -3 -0.144526109099388
v -0.242705091834068 -3 -0.176335573196411
v -0.242705091834068 3 -0.176335573196411
v -0.21869058907032 3 -0.205364137887955
v -0.21869058907032 -3 -0.205364137887955
v -0.191227197647095 -3 -0.231153979897499
v -0.191227197647095 3 -0.231153979897499
v -0.160748034715652 -3 -0.253298372030258
v -0.160748034715652 3 -0.253298372030258
v -0.127733781933784 -3 -0.271448105573654
v -0.092705100774765 -3 -0.285316944122314
v -0.127733781933784 3 -0.271448105573654
v -0.092705100774765 3 -0.285316944122314
v -0.0562143921852112 -3 -0.294686198234558
v -0.0188371557742357 -3 -0.29940801858902
v -0.0562143921852112 3 -0.294686198234558
v 0.0188371557742357 -3 -0.29940801858902
v -0.0188371557742357 3 -0.29940801858902
v 0.0188371557742357 3 -0.29940801858902
v 0.0562143921852112 -3 -0.294686198234558
v 0.092705100774765 -3 -0.285316944122314
v 0.0562143921852112 3 -0.294686198234558
v 0.092705100774765 3 -0.285316944122314
v 0.127733781933784 -3 -0.271448105573654
v 0.160748034715652 -3 -0.253298372030258
v 0.127733781933784 3 -0.271448105573654
v 0.160748034715652 3 -0.253298372030258
v 0.191227197647095 -3 -0.231153979897499
v 0.191227197647095 3 -0.231153979897499
v 0.21869058907032 -3 -0.205364137887955
v 0.21869058907032 3 -0.205364137887955
v 0.242705091834068 -3 -0.176335573196411
v 0.242705091834068 3 -0.176335573196411
v 0.262892007827759 -3 -0.144526109099388
v 0.278932958841324 -3 -0.110437363386154
v 0.262892007827759 3 -0.144526109099388
v 0.290574938058853 -3 -0.0746069625020027
v 0.278932958841324 3 -0.110437363386154
v 0.290574938058853 3 -0.0746069625020027
v 0.297634392976761 3 -0.0375999733805656
v 0.297634392976761 -3 -0.0375999733805656
# </points>

# <edges count="200">
l 1 2
l 3 4
l 5 1
l 4 6
l 7 5
l 6 8
l 9 7
l 8 10
l 11 9
l 10 12
l 13 11
l 12 14
l 15 13
l 14 16
l 17 15
l 16 18
l 19 17
l 18 20
l 21 19
l 20 22
l 23 21
l 22 24
l 25 23
l 24 26
l 27 25
l 26 28
l 29 27
l 28 30
l 31 29
l 30 32
l 33 31
l 34 33
l 32 35
l 35 36
l 37 34
l 36 38
l 39 37
l 38 40
l 41 39
l 40 42
l 43 41
l 42 44
l 45 43
l 44 46
l 47 45
l 48 47
l 46 49
l 49 50
l 50 51
l 52 48
l 51 53
l 54 52
l 53 55
l 56 54
l 57 56
l 55 58
l 58 59
l 60 57
l 61 60
l 59 62
l 62 63
l 64 61
l 65 64
l 63 66
l 67 65
l 66 68
l 69 67
l 70 69
l 68 71
l 71 72
l 73 70
l 72 74
l 75 73
l 74 76
l 77 75
l 76 78
l 79 77
l 80 79
l 78 81
l 81 82
l 83 80
l 84 83
l 82 85
l 86 84
l 85 87
l 87 88
l 89 86
l 88 90
l 91 89
l 90 92
l 93 91
l 92 94
l 95 93
l 94 96
l 97 95
l 96 98
l 98 99
l 100 97
l 99 3
l 2 100
l 101 102
l 103 104
l 104 105
l 106 101
l 105 107
l 108 106
l 107 109
l 110 108
l 109 111
l 112 110
l 111 113
l 114 112
l 113 115
l 115 116
l 117 114
l 118 117
l 116 119
l 119 120
l 121 118
l 122 121
l 120 123
l 124 122
l 123 125
l 125 126
l 127 124
l 126 128
l 129 127
l 130 129
l 128 131
l 132 130
l 131 133
l 134 132
l 133 135
l 135 136
l 137 134
l 138 137
l 136 139
l 140 138
l 139 141
l 142 140
l 141 143
l 144 142
l 143 145
l 146 144
l 145 147
l 148 146
l 147 149
l 150 148
l 151 150
l 149 152
l 152 153
l 154 151
l 155 154
l 153 156
l 156 157
l 158 155
l 159 158
l 157 160
l 160 161
l 162 159
l 163 162
l 161 164
l 164 165
l 166 163
l 165 167
l 168 166
l 167 169
l 169 170
l 171 168
l 172 171
l 170 173
l 173 174
l 175 172
l 174 176
l 177 175
l 178 177
l 176 179
l 179 180
l 181 178
l 182 181
l 180 183
l 183 184
l 185 182
l 186 185
l 184 187
l 188 186
l 187 189
l 190 188
l 189 191
l 192 190
l 191 193
l 193 194
l 195 192
l 194 196
l 197 195
l 198 197
l 199 198
l 196 200
l 102 199
l 200 103
# </edges>
