# Wavefront OBJ file written 2026-06-18T01:45:24
o MeshRefinement001_edgeMesh

# points : 100
# lines  : 100

# <points count="100">
v 0.300000011920929 3 -7.30000059293399e-17
v 0.297634392976761 3 0.0375999733805656
v 0.297634392976761 -3 0.0375999733805656
v 0.300000011920929 -3 -7.30000059293399e-17
v 0.290574938058853 -3 0.0746069625020027
v 0.290574938058853 3 0.0746069625020027
v 0.278932958841324 -3 0.110437363386154
v 0.278932958841324 3 0.110437363386154
v 0.262892007827759 -3 0.144526109099388
v 0.262892007827759 3 0.144526109099388
v 0.242705091834068 -3 0.176335573196411
v 0.242705091834068 3 0.176335573196411
v 0.21869058907032 -3 0.205364137887955
v 0.21869058907032 3 0.205364137887955
v 0.191227197647095 -3 0.231153979897499
v 0.160748034715652 -3 0.253298372030258
v 0.191227197647095 3 0.231153979897499
v 0.160748034715652 3 0.253298372030258
v 0.127733781933784 -3 0.271448105573654
v 0.092705100774765 -3 0.285316944122314
v 0.127733781933784 3 0.271448105573654
v 0.092705100774765 3 0.285316944122314
v 0.0562143921852112 -3 0.294686198234558
v 0.0562143921852112 3 0.294686198234558
v 0.0188371557742357 -3 0.29940801858902
v -0.0188371557742357 -3 0.29940801858902
v 0.0188371557742357 3 0.29940801858902
v -0.0562143921852112 -3 0.294686198234558
v -0.0188371557742357 3 0.29940801858902
v -0.0562143921852112 3 0.294686198234558
v -0.092705100774765 -3 0.285316944122314
v -0.092705100774765 3 0.285316944122314
v -0.127733781933784 -3 0.271448105573654
v -0.127733781933784 3 0.271448105573654
v -0.160748034715652 -3 0.253298372030258
v -0.191227197647095 -3 0.231153979897499
v -0.160748034715652 3 0.253298372030258
v -0.191227197647095 3 0.231153979897499
v -0.21869058907032 -3 0.205364137887955
v -0.21869058907032 3 0.205364137887955
v -0.242705091834068 -3 0.176335573196411
v -0.242705091834068 3 0.176335573196411
v -0.262892007827759 -3 0.144526109099388
v -0.262892007827759 3 0.144526109099388
v -0.278932958841324 -3 0.110437363386154
v -0.278932958841324 3 0.110437363386154
v -0.290574938058853 -3 0.0746069625020027
v -0.290574938058853 3 0.0746069625020027
v -0.297634392976761 -3 0.0375999733805656
v -0.297634392976761 3 0.0375999733805656
v -0.300000011920929 3 -3.62940885934479e-16
v -0.300000011920929 -3 -3.62940885934479e-16
v -0.297634392976761 -3 -0.0375999733805656
v -0.297634392976761 3 -0.0375999733805656
v -0.290574938058853 3 -0.0746069625020027
v -0.290574938058853 -3 -0.0746069625020027
v -0.278932958841324 -3 -0.110437363386154
v -0.278932958841324 3 -0.110437363386154
v -0.262892007827759 3 -0.144526109099388
v -0.262892007827759 -3 -0.144526109099388
v -0.242705091834068 -3 -0.176335573196411
v -0.242705091834068 3 -0.176335573196411
v -0.21869058907032 3 -0.205364137887955
v -0.21869058907032 -3 -0.205364137887955
v -0.191227197647095 -3 -0.231153979897499
v -0.191227197647095 3 -0.231153979897499
v -0.160748034715652 -3 -0.253298372030258
v -0.160748034715652 3 -0.253298372030258
v -0.127733781933784 -3 -0.271448105573654
v -0.092705100774765 -3 -0.285316944122314
v -0.127733781933784 3 -0.271448105573654
v -0.092705100774765 3 -0.285316944122314
v -0.0562143921852112 -3 -0.294686198234558
v -0.0188371557742357 -3 -0.29940801858902
v -0.0562143921852112 3 -0.294686198234558
v 0.0188371557742357 -3 -0.29940801858902
v -0.0188371557742357 3 -0.29940801858902
v 0.0188371557742357 3 -0.29940801858902
v 0.0562143921852112 -3 -0.294686198234558
v 0.092705100774765 -3 -0.285316944122314
v 0.0562143921852112 3 -0.294686198234558
v 0.092705100774765 3 -0.285316944122314
v 0.127733781933784 -3 -0.271448105573654
v 0.160748034715652 -3 -0.253298372030258
v 0.127733781933784 3 -0.271448105573654
v 0.160748034715652 3 -0.253298372030258
v 0.191227197647095 -3 -0.231153979897499
v 0.191227197647095 3 -0.231153979897499
v 0.21869058907032 -3 -0.205364137887955
v 0.21869058907032 3 -0.205364137887955
v 0.242705091834068 -3 -0.176335573196411
v 0.242705091834068 3 -0.176335573196411
v 0.262892007827759 -3 -0.144526109099388
v 0.278932958841324 -3 -0.110437363386154
v 0.262892007827759 3 -0.144526109099388
v 0.290574938058853 -3 -0.0746069625020027
v 0.278932958841324 3 -0.110437363386154
v 0.290574938058853 3 -0.0746069625020027
v 0.297634392976761 3 -0.0375999733805656
v 0.297634392976761 -3 -0.0375999733805656
# </points>

# <edges count="100">
l 1 2
l 3 4
l 5 3
l 2 6
l 7 5
l 6 8
l 9 7
l 8 10
l 11 9
l 10 12
l 13 11
l 12 14
l 15 13
l 16 15
l 14 17
l 17 18
l 19 16
l 20 19
l 18 21
l 21 22
l 23 20
l 22 24
l 25 23
l 26 25
l 24 27
l 28 26
l 27 29
l 29 30
l 31 28
l 30 32
l 33 31
l 32 34
l 35 33
l 36 35
l 34 37
l 37 38
l 39 36
l 38 40
l 41 39
l 40 42
l 43 41
l 42 44
l 45 43
l 44 46
l 47 45
l 46 48
l 49 47
l 48 50
l 50 51
l 52 49
l 53 52
l 51 54
l 54 55
l 56 53
l 57 56
l 55 58
l 58 59
l 60 57
l 61 60
l 59 62
l 62 63
l 64 61
l 65 64
l 63 66
l 67 65
l 66 68
l 69 67
l 70 69
l 68 71
l 71 72
l 73 70
l 74 73
l 72 75
l 76 74
l 75 77
l 77 78
l 79 76
l 80 79
l 78 81
l 81 82
l 83 80
l 84 83
l 82 85
l 85 86
l 87 84
l 86 88
l 89 87
l 88 90
l 91 89
l 90 92
l 93 91
l 94 93
l 92 95
l 96 94
l 95 97
l 97 98
l 98 99
l 100 96
l 99 1
l 4 100
# </edges>
